G04 (created by PCBNEW (2011-12-28 BZR 3254)-stable) date 7/17/2012 5:32:34 PM*
G01*
G70*
G90*
%MOIN*%
G04 Gerber Fmt 3.4, Leading zero omitted, Abs format*
%FSLAX34Y34*%
G04 APERTURE LIST*
%ADD10C,0.001000*%
%ADD11C,0.015000*%
%ADD12C,0.008000*%
G04 APERTURE END LIST*
G54D10*
G54D11*
X38000Y-12500D02*
X75000Y-12500D01*
X30500Y-12500D02*
X37000Y-12500D01*
X52000Y-60000D02*
X15000Y-60000D01*
X59500Y-60000D02*
X53000Y-60000D01*
X38000Y-34300D02*
X38000Y-12500D01*
X45500Y-34300D02*
X38000Y-34300D01*
X45500Y-37500D02*
X45500Y-34300D01*
X53000Y-37500D02*
X45500Y-37500D01*
X53000Y-60000D02*
X53000Y-37500D01*
X52000Y-38200D02*
X52000Y-60000D01*
X44500Y-38200D02*
X52000Y-38200D01*
X44500Y-35000D02*
X44500Y-38200D01*
X37000Y-35000D02*
X44500Y-35000D01*
X37000Y-12500D02*
X37000Y-35000D01*
X15000Y-27500D02*
X15000Y-60000D01*
X30500Y-27500D02*
X15000Y-27500D01*
X30500Y-12500D02*
X30500Y-27500D01*
X75000Y-45000D02*
X75000Y-12500D01*
X59500Y-45000D02*
X75000Y-45000D01*
X59500Y-60000D02*
X59500Y-45000D01*
G54D10*
X17775Y-51475D02*
X18025Y-51725D01*
X18025Y-51475D02*
X17775Y-51725D01*
X19995Y-50275D02*
X20245Y-50525D01*
X20245Y-50275D02*
X19995Y-50525D01*
X21975Y-44825D02*
X22225Y-45075D01*
X22225Y-44825D02*
X21975Y-45075D01*
X21975Y-48425D02*
X22225Y-48675D01*
X22225Y-48425D02*
X21975Y-48675D01*
X24225Y-51475D02*
X24475Y-51725D01*
X24475Y-51475D02*
X24225Y-51725D01*
X24850Y-52875D02*
X25100Y-53125D01*
X25100Y-52875D02*
X24850Y-53125D01*
X25135Y-56335D02*
X25385Y-56585D01*
X25385Y-56335D02*
X25135Y-56585D01*
X27565Y-49675D02*
X27815Y-49925D01*
X27815Y-49675D02*
X27565Y-49925D01*
X27565Y-51855D02*
X27815Y-52105D01*
X27815Y-51855D02*
X27565Y-52105D01*
X27775Y-40425D02*
X28025Y-40675D01*
X28025Y-40425D02*
X27775Y-40675D01*
X27925Y-43425D02*
X28175Y-43675D01*
X28175Y-43425D02*
X27925Y-43675D01*
X28025Y-50375D02*
X28275Y-50625D01*
X28275Y-50375D02*
X28025Y-50625D01*
X28025Y-53495D02*
X28275Y-53745D01*
X28275Y-53495D02*
X28025Y-53745D01*
X28403Y-53981D02*
X28653Y-54231D01*
X28653Y-53981D02*
X28403Y-54231D01*
X28475Y-51475D02*
X28725Y-51725D01*
X28725Y-51475D02*
X28475Y-51725D01*
X28475Y-52925D02*
X28725Y-53175D01*
X28725Y-52925D02*
X28475Y-53175D01*
X28835Y-40425D02*
X29085Y-40675D01*
X29085Y-40425D02*
X28835Y-40675D01*
X28835Y-46155D02*
X29085Y-46405D01*
X29085Y-46155D02*
X28835Y-46405D01*
X28850Y-43425D02*
X29100Y-43675D01*
X29100Y-43425D02*
X28850Y-43675D01*
X29325Y-57375D02*
X29575Y-57625D01*
X29575Y-57375D02*
X29325Y-57625D01*
X29535Y-45155D02*
X29785Y-45405D01*
X29785Y-45155D02*
X29535Y-45405D01*
X29725Y-41950D02*
X29975Y-42200D01*
X29975Y-41950D02*
X29725Y-42200D01*
X29755Y-47805D02*
X30005Y-48055D01*
X30005Y-47805D02*
X29755Y-48055D01*
X30175Y-41425D02*
X30425Y-41675D01*
X30425Y-41425D02*
X30175Y-41675D01*
X30435Y-33155D02*
X30685Y-33405D01*
X30685Y-33155D02*
X30435Y-33405D01*
X30525Y-38800D02*
X30775Y-39050D01*
X30775Y-38800D02*
X30525Y-39050D01*
X30525Y-40425D02*
X30775Y-40675D01*
X30775Y-40425D02*
X30525Y-40675D01*
X31200Y-52825D02*
X31450Y-53075D01*
X31450Y-52825D02*
X31200Y-53075D01*
X31200Y-53350D02*
X31450Y-53600D01*
X31450Y-53350D02*
X31200Y-53600D01*
X31850Y-40350D02*
X32100Y-40600D01*
X32100Y-40350D02*
X31850Y-40600D01*
X31935Y-33275D02*
X32185Y-33525D01*
X32185Y-33275D02*
X31935Y-33525D01*
X32275Y-14375D02*
X32525Y-14625D01*
X32525Y-14375D02*
X32275Y-14625D01*
X32275Y-18375D02*
X32525Y-18625D01*
X32525Y-18375D02*
X32275Y-18625D01*
X32275Y-22375D02*
X32525Y-22625D01*
X32525Y-22375D02*
X32275Y-22625D01*
X32275Y-26375D02*
X32525Y-26625D01*
X32525Y-26375D02*
X32275Y-26625D01*
X32275Y-30375D02*
X32525Y-30625D01*
X32525Y-30375D02*
X32275Y-30625D01*
X32550Y-36725D02*
X32800Y-36975D01*
X32800Y-36725D02*
X32550Y-36975D01*
X33225Y-37125D02*
X33475Y-37375D01*
X33475Y-37125D02*
X33225Y-37375D01*
X33575Y-48025D02*
X33825Y-48275D01*
X33825Y-48025D02*
X33575Y-48275D01*
X33700Y-44425D02*
X33950Y-44675D01*
X33950Y-44425D02*
X33700Y-44675D01*
X33975Y-47250D02*
X34225Y-47500D01*
X34225Y-47250D02*
X33975Y-47500D01*
X34835Y-14375D02*
X35085Y-14625D01*
X35085Y-14375D02*
X34835Y-14625D01*
X34855Y-30375D02*
X35105Y-30625D01*
X35105Y-30375D02*
X34855Y-30625D01*
X34875Y-22375D02*
X35125Y-22625D01*
X35125Y-22375D02*
X34875Y-22625D01*
X34895Y-26375D02*
X35145Y-26625D01*
X35145Y-26375D02*
X34895Y-26625D01*
X34915Y-18375D02*
X35165Y-18625D01*
X35165Y-18375D02*
X34915Y-18625D01*
X34950Y-36725D02*
X35200Y-36975D01*
X35200Y-36725D02*
X34950Y-36975D01*
X35250Y-53575D02*
X35500Y-53825D01*
X35500Y-53575D02*
X35250Y-53825D01*
X35775Y-54725D02*
X36025Y-54975D01*
X36025Y-54725D02*
X35775Y-54975D01*
X36075Y-54350D02*
X36325Y-54600D01*
X36325Y-54350D02*
X36075Y-54600D01*
X36275Y-55200D02*
X36525Y-55450D01*
X36525Y-55200D02*
X36275Y-55450D01*
X36325Y-53975D02*
X36575Y-54225D01*
X36575Y-53975D02*
X36325Y-54225D01*
X36700Y-55450D02*
X36950Y-55700D01*
X36950Y-55450D02*
X36700Y-55700D01*
X37000Y-55100D02*
X37250Y-55350D01*
X37250Y-55100D02*
X37000Y-55350D01*
X37155Y-45835D02*
X37405Y-46085D01*
X37405Y-45835D02*
X37155Y-46085D01*
X37315Y-42265D02*
X37565Y-42515D01*
X37565Y-42265D02*
X37315Y-42515D01*
X37325Y-39175D02*
X37575Y-39425D01*
X37575Y-39175D02*
X37325Y-39425D01*
X37705Y-45845D02*
X37955Y-46095D01*
X37955Y-45845D02*
X37705Y-46095D01*
X37735Y-52745D02*
X37985Y-52995D01*
X37985Y-52745D02*
X37735Y-52995D01*
X38635Y-53075D02*
X38885Y-53325D01*
X38885Y-53075D02*
X38635Y-53325D01*
X38735Y-37825D02*
X38985Y-38075D01*
X38985Y-37825D02*
X38735Y-38075D01*
X38800Y-21475D02*
X39050Y-21725D01*
X39050Y-21475D02*
X38800Y-21725D01*
X39815Y-37825D02*
X40065Y-38075D01*
X40065Y-37825D02*
X39815Y-38075D01*
X39835Y-47175D02*
X40085Y-47425D01*
X40085Y-47175D02*
X39835Y-47425D01*
X39835Y-47775D02*
X40085Y-48025D01*
X40085Y-47775D02*
X39835Y-48025D01*
X39975Y-38875D02*
X40225Y-39125D01*
X40225Y-38875D02*
X39975Y-39125D01*
X39975Y-39775D02*
X40225Y-40025D01*
X40225Y-39775D02*
X39975Y-40025D01*
X40755Y-55245D02*
X41005Y-55495D01*
X41005Y-55245D02*
X40755Y-55495D01*
X40795Y-42175D02*
X41045Y-42425D01*
X41045Y-42175D02*
X40795Y-42425D01*
X41125Y-42655D02*
X41375Y-42905D01*
X41375Y-42655D02*
X41125Y-42905D01*
X42400Y-52875D02*
X42650Y-53125D01*
X42650Y-52875D02*
X42400Y-53125D01*
X42845Y-55595D02*
X43095Y-55845D01*
X43095Y-55595D02*
X42845Y-55845D01*
X42900Y-20725D02*
X43150Y-20975D01*
X43150Y-20725D02*
X42900Y-20975D01*
X43475Y-57985D02*
X43725Y-58235D01*
X43725Y-57985D02*
X43475Y-58235D01*
X44345Y-54705D02*
X44595Y-54955D01*
X44595Y-54705D02*
X44345Y-54955D01*
X44500Y-51475D02*
X44750Y-51725D01*
X44750Y-51475D02*
X44500Y-51725D01*
X44735Y-54345D02*
X44985Y-54595D01*
X44985Y-54345D02*
X44735Y-54595D01*
X45045Y-53975D02*
X45295Y-54225D01*
X45295Y-53975D02*
X45045Y-54225D01*
X45400Y-51475D02*
X45650Y-51725D01*
X45650Y-51475D02*
X45400Y-51725D01*
X46300Y-21475D02*
X46550Y-21725D01*
X46550Y-21475D02*
X46300Y-21725D01*
X46875Y-52075D02*
X47125Y-52325D01*
X47125Y-52075D02*
X46875Y-52325D01*
X47875Y-53115D02*
X48125Y-53365D01*
X48125Y-53115D02*
X47875Y-53365D01*
X48025Y-17875D02*
X48275Y-18125D01*
X48275Y-17875D02*
X48025Y-18125D01*
X49225Y-20725D02*
X49475Y-20975D01*
X49475Y-20725D02*
X49225Y-20975D01*
X50255Y-16165D02*
X50505Y-16415D01*
X50505Y-16165D02*
X50255Y-16415D01*
X50375Y-19875D02*
X50625Y-20125D01*
X50625Y-19875D02*
X50375Y-20125D01*
X50700Y-16950D02*
X50950Y-17200D01*
X50950Y-16950D02*
X50700Y-17200D01*
X51150Y-17375D02*
X51400Y-17625D01*
X51400Y-17375D02*
X51150Y-17625D01*
X51975Y-15075D02*
X52225Y-15325D01*
X52225Y-15075D02*
X51975Y-15325D01*
X52465Y-15435D02*
X52715Y-15685D01*
X52715Y-15435D02*
X52465Y-15685D01*
X52845Y-15795D02*
X53095Y-16045D01*
X53095Y-15795D02*
X52845Y-16045D01*
X53355Y-16525D02*
X53605Y-16775D01*
X53605Y-16525D02*
X53355Y-16775D01*
X53850Y-17875D02*
X54100Y-18125D01*
X54100Y-17875D02*
X53850Y-18125D01*
X61300Y-21475D02*
X61550Y-21725D01*
X61550Y-21475D02*
X61300Y-21725D01*
X66495Y-20375D02*
X66745Y-20625D01*
X66745Y-20375D02*
X66495Y-20625D01*
X70395Y-20375D02*
X70645Y-20625D01*
X70645Y-20375D02*
X70395Y-20625D01*
X30750Y-46900D02*
X30746Y-46931D01*
X30737Y-46960D01*
X30723Y-46988D01*
X30703Y-47012D01*
X30679Y-47032D01*
X30652Y-47047D01*
X30622Y-47056D01*
X30591Y-47059D01*
X30561Y-47057D01*
X30531Y-47048D01*
X30503Y-47033D01*
X30479Y-47014D01*
X30458Y-46990D01*
X30443Y-46963D01*
X30434Y-46933D01*
X30431Y-46902D01*
X30433Y-46872D01*
X30442Y-46842D01*
X30456Y-46814D01*
X30475Y-46789D01*
X30499Y-46769D01*
X30526Y-46754D01*
X30556Y-46744D01*
X30587Y-46741D01*
X30617Y-46743D01*
X30647Y-46751D01*
X30675Y-46765D01*
X30700Y-46785D01*
X30720Y-46808D01*
X30736Y-46835D01*
X30746Y-46865D01*
X30749Y-46896D01*
X30750Y-46900D01*
X31750Y-46900D02*
X31746Y-46931D01*
X31737Y-46960D01*
X31723Y-46988D01*
X31703Y-47012D01*
X31679Y-47032D01*
X31652Y-47047D01*
X31622Y-47056D01*
X31591Y-47059D01*
X31561Y-47057D01*
X31531Y-47048D01*
X31503Y-47033D01*
X31479Y-47014D01*
X31458Y-46990D01*
X31443Y-46963D01*
X31434Y-46933D01*
X31431Y-46902D01*
X31433Y-46872D01*
X31442Y-46842D01*
X31456Y-46814D01*
X31475Y-46789D01*
X31499Y-46769D01*
X31526Y-46754D01*
X31556Y-46744D01*
X31587Y-46741D01*
X31617Y-46743D01*
X31647Y-46751D01*
X31675Y-46765D01*
X31700Y-46785D01*
X31720Y-46808D01*
X31736Y-46835D01*
X31746Y-46865D01*
X31749Y-46896D01*
X31750Y-46900D01*
X32750Y-46900D02*
X32746Y-46931D01*
X32737Y-46960D01*
X32723Y-46988D01*
X32703Y-47012D01*
X32679Y-47032D01*
X32652Y-47047D01*
X32622Y-47056D01*
X32591Y-47059D01*
X32561Y-47057D01*
X32531Y-47048D01*
X32503Y-47033D01*
X32479Y-47014D01*
X32458Y-46990D01*
X32443Y-46963D01*
X32434Y-46933D01*
X32431Y-46902D01*
X32433Y-46872D01*
X32442Y-46842D01*
X32456Y-46814D01*
X32475Y-46789D01*
X32499Y-46769D01*
X32526Y-46754D01*
X32556Y-46744D01*
X32587Y-46741D01*
X32617Y-46743D01*
X32647Y-46751D01*
X32675Y-46765D01*
X32700Y-46785D01*
X32720Y-46808D01*
X32736Y-46835D01*
X32746Y-46865D01*
X32749Y-46896D01*
X32750Y-46900D01*
X36100Y-39125D02*
X36100Y-39475D01*
X36275Y-39300D02*
X35925Y-39300D01*
X36100Y-40125D02*
X36100Y-40475D01*
X36275Y-40300D02*
X35925Y-40300D01*
X36100Y-41125D02*
X36100Y-41475D01*
X36275Y-41300D02*
X35925Y-41300D01*
X36100Y-42125D02*
X36100Y-42475D01*
X36275Y-42300D02*
X35925Y-42300D01*
X36100Y-43125D02*
X36100Y-43475D01*
X36275Y-43300D02*
X35925Y-43300D01*
X36100Y-44125D02*
X36100Y-44475D01*
X36275Y-44300D02*
X35925Y-44300D01*
X36100Y-45125D02*
X36100Y-45475D01*
X36275Y-45300D02*
X35925Y-45300D01*
X36100Y-46125D02*
X36100Y-46475D01*
X36275Y-46300D02*
X35925Y-46300D01*
X36100Y-47125D02*
X36100Y-47475D01*
X36275Y-47300D02*
X35925Y-47300D01*
X36100Y-48125D02*
X36100Y-48475D01*
X36275Y-48300D02*
X35925Y-48300D01*
X36100Y-49125D02*
X36100Y-49475D01*
X36275Y-49300D02*
X35925Y-49300D01*
X36100Y-50125D02*
X36100Y-50475D01*
X36275Y-50300D02*
X35925Y-50300D01*
X36100Y-51125D02*
X36100Y-51475D01*
X36275Y-51300D02*
X35925Y-51300D01*
X36100Y-52125D02*
X36100Y-52475D01*
X36275Y-52300D02*
X35925Y-52300D01*
X39100Y-39125D02*
X39100Y-39475D01*
X39275Y-39300D02*
X38925Y-39300D01*
X39100Y-40125D02*
X39100Y-40475D01*
X39275Y-40300D02*
X38925Y-40300D01*
X39100Y-41125D02*
X39100Y-41475D01*
X39275Y-41300D02*
X38925Y-41300D01*
X39100Y-42125D02*
X39100Y-42475D01*
X39275Y-42300D02*
X38925Y-42300D01*
X39100Y-43125D02*
X39100Y-43475D01*
X39275Y-43300D02*
X38925Y-43300D01*
X39100Y-44125D02*
X39100Y-44475D01*
X39275Y-44300D02*
X38925Y-44300D01*
X39100Y-45125D02*
X39100Y-45475D01*
X39275Y-45300D02*
X38925Y-45300D01*
X39100Y-46125D02*
X39100Y-46475D01*
X39275Y-46300D02*
X38925Y-46300D01*
X39100Y-47125D02*
X39100Y-47475D01*
X39275Y-47300D02*
X38925Y-47300D01*
X39100Y-48125D02*
X39100Y-48475D01*
X39275Y-48300D02*
X38925Y-48300D01*
X39100Y-49125D02*
X39100Y-49475D01*
X39275Y-49300D02*
X38925Y-49300D01*
X39100Y-50125D02*
X39100Y-50475D01*
X39275Y-50300D02*
X38925Y-50300D01*
X39100Y-51125D02*
X39100Y-51475D01*
X39275Y-51300D02*
X38925Y-51300D01*
X39100Y-52125D02*
X39100Y-52475D01*
X39275Y-52300D02*
X38925Y-52300D01*
X21305Y-58890D02*
X21301Y-58928D01*
X21289Y-58966D01*
X21271Y-59000D01*
X21246Y-59030D01*
X21216Y-59055D01*
X21182Y-59074D01*
X21145Y-59085D01*
X21106Y-59089D01*
X21068Y-59086D01*
X21031Y-59075D01*
X20996Y-59057D01*
X20966Y-59032D01*
X20940Y-59002D01*
X20922Y-58968D01*
X20910Y-58931D01*
X20906Y-58892D01*
X20909Y-58854D01*
X20920Y-58817D01*
X20937Y-58782D01*
X20962Y-58752D01*
X20991Y-58726D01*
X21025Y-58707D01*
X21063Y-58695D01*
X21101Y-58691D01*
X21139Y-58694D01*
X21177Y-58704D01*
X21212Y-58722D01*
X21242Y-58746D01*
X21268Y-58775D01*
X21287Y-58809D01*
X21300Y-58846D01*
X21304Y-58885D01*
X21305Y-58890D01*
X20905Y-58690D02*
X21305Y-59090D01*
X21305Y-58690D02*
X20905Y-59090D01*
X21680Y-57390D02*
X21676Y-57428D01*
X21664Y-57466D01*
X21646Y-57500D01*
X21621Y-57530D01*
X21591Y-57555D01*
X21557Y-57574D01*
X21520Y-57585D01*
X21481Y-57589D01*
X21443Y-57586D01*
X21406Y-57575D01*
X21371Y-57557D01*
X21341Y-57532D01*
X21315Y-57502D01*
X21297Y-57468D01*
X21285Y-57431D01*
X21281Y-57392D01*
X21284Y-57354D01*
X21295Y-57317D01*
X21312Y-57282D01*
X21337Y-57252D01*
X21366Y-57226D01*
X21400Y-57207D01*
X21438Y-57195D01*
X21476Y-57191D01*
X21514Y-57194D01*
X21552Y-57204D01*
X21587Y-57222D01*
X21617Y-57246D01*
X21643Y-57275D01*
X21662Y-57309D01*
X21675Y-57346D01*
X21679Y-57385D01*
X21680Y-57390D01*
X21280Y-57190D02*
X21680Y-57590D01*
X21680Y-57190D02*
X21280Y-57590D01*
X22680Y-57390D02*
X22676Y-57428D01*
X22664Y-57466D01*
X22646Y-57500D01*
X22621Y-57530D01*
X22591Y-57555D01*
X22557Y-57574D01*
X22520Y-57585D01*
X22481Y-57589D01*
X22443Y-57586D01*
X22406Y-57575D01*
X22371Y-57557D01*
X22341Y-57532D01*
X22315Y-57502D01*
X22297Y-57468D01*
X22285Y-57431D01*
X22281Y-57392D01*
X22284Y-57354D01*
X22295Y-57317D01*
X22312Y-57282D01*
X22337Y-57252D01*
X22366Y-57226D01*
X22400Y-57207D01*
X22438Y-57195D01*
X22476Y-57191D01*
X22514Y-57194D01*
X22552Y-57204D01*
X22587Y-57222D01*
X22617Y-57246D01*
X22643Y-57275D01*
X22662Y-57309D01*
X22675Y-57346D01*
X22679Y-57385D01*
X22680Y-57390D01*
X22280Y-57190D02*
X22680Y-57590D01*
X22680Y-57190D02*
X22280Y-57590D01*
X23055Y-58890D02*
X23051Y-58928D01*
X23039Y-58966D01*
X23021Y-59000D01*
X22996Y-59030D01*
X22966Y-59055D01*
X22932Y-59074D01*
X22895Y-59085D01*
X22856Y-59089D01*
X22818Y-59086D01*
X22781Y-59075D01*
X22746Y-59057D01*
X22716Y-59032D01*
X22690Y-59002D01*
X22672Y-58968D01*
X22660Y-58931D01*
X22656Y-58892D01*
X22659Y-58854D01*
X22670Y-58817D01*
X22687Y-58782D01*
X22712Y-58752D01*
X22741Y-58726D01*
X22775Y-58707D01*
X22813Y-58695D01*
X22851Y-58691D01*
X22889Y-58694D01*
X22927Y-58704D01*
X22962Y-58722D01*
X22992Y-58746D01*
X23018Y-58775D01*
X23037Y-58809D01*
X23050Y-58846D01*
X23054Y-58885D01*
X23055Y-58890D01*
X22655Y-58690D02*
X23055Y-59090D01*
X23055Y-58690D02*
X22655Y-59090D01*
X26305Y-58890D02*
X26301Y-58928D01*
X26289Y-58966D01*
X26271Y-59000D01*
X26246Y-59030D01*
X26216Y-59055D01*
X26182Y-59074D01*
X26145Y-59085D01*
X26106Y-59089D01*
X26068Y-59086D01*
X26031Y-59075D01*
X25996Y-59057D01*
X25966Y-59032D01*
X25940Y-59002D01*
X25922Y-58968D01*
X25910Y-58931D01*
X25906Y-58892D01*
X25909Y-58854D01*
X25920Y-58817D01*
X25937Y-58782D01*
X25962Y-58752D01*
X25991Y-58726D01*
X26025Y-58707D01*
X26063Y-58695D01*
X26101Y-58691D01*
X26139Y-58694D01*
X26177Y-58704D01*
X26212Y-58722D01*
X26242Y-58746D01*
X26268Y-58775D01*
X26287Y-58809D01*
X26300Y-58846D01*
X26304Y-58885D01*
X26305Y-58890D01*
X25905Y-58690D02*
X26305Y-59090D01*
X26305Y-58690D02*
X25905Y-59090D01*
X26680Y-57390D02*
X26676Y-57428D01*
X26664Y-57466D01*
X26646Y-57500D01*
X26621Y-57530D01*
X26591Y-57555D01*
X26557Y-57574D01*
X26520Y-57585D01*
X26481Y-57589D01*
X26443Y-57586D01*
X26406Y-57575D01*
X26371Y-57557D01*
X26341Y-57532D01*
X26315Y-57502D01*
X26297Y-57468D01*
X26285Y-57431D01*
X26281Y-57392D01*
X26284Y-57354D01*
X26295Y-57317D01*
X26312Y-57282D01*
X26337Y-57252D01*
X26366Y-57226D01*
X26400Y-57207D01*
X26438Y-57195D01*
X26476Y-57191D01*
X26514Y-57194D01*
X26552Y-57204D01*
X26587Y-57222D01*
X26617Y-57246D01*
X26643Y-57275D01*
X26662Y-57309D01*
X26675Y-57346D01*
X26679Y-57385D01*
X26680Y-57390D01*
X26280Y-57190D02*
X26680Y-57590D01*
X26680Y-57190D02*
X26280Y-57590D01*
X27680Y-57390D02*
X27676Y-57428D01*
X27664Y-57466D01*
X27646Y-57500D01*
X27621Y-57530D01*
X27591Y-57555D01*
X27557Y-57574D01*
X27520Y-57585D01*
X27481Y-57589D01*
X27443Y-57586D01*
X27406Y-57575D01*
X27371Y-57557D01*
X27341Y-57532D01*
X27315Y-57502D01*
X27297Y-57468D01*
X27285Y-57431D01*
X27281Y-57392D01*
X27284Y-57354D01*
X27295Y-57317D01*
X27312Y-57282D01*
X27337Y-57252D01*
X27366Y-57226D01*
X27400Y-57207D01*
X27438Y-57195D01*
X27476Y-57191D01*
X27514Y-57194D01*
X27552Y-57204D01*
X27587Y-57222D01*
X27617Y-57246D01*
X27643Y-57275D01*
X27662Y-57309D01*
X27675Y-57346D01*
X27679Y-57385D01*
X27680Y-57390D01*
X27280Y-57190D02*
X27680Y-57590D01*
X27680Y-57190D02*
X27280Y-57590D01*
X28055Y-58890D02*
X28051Y-58928D01*
X28039Y-58966D01*
X28021Y-59000D01*
X27996Y-59030D01*
X27966Y-59055D01*
X27932Y-59074D01*
X27895Y-59085D01*
X27856Y-59089D01*
X27818Y-59086D01*
X27781Y-59075D01*
X27746Y-59057D01*
X27716Y-59032D01*
X27690Y-59002D01*
X27672Y-58968D01*
X27660Y-58931D01*
X27656Y-58892D01*
X27659Y-58854D01*
X27670Y-58817D01*
X27687Y-58782D01*
X27712Y-58752D01*
X27741Y-58726D01*
X27775Y-58707D01*
X27813Y-58695D01*
X27851Y-58691D01*
X27889Y-58694D01*
X27927Y-58704D01*
X27962Y-58722D01*
X27992Y-58746D01*
X28018Y-58775D01*
X28037Y-58809D01*
X28050Y-58846D01*
X28054Y-58885D01*
X28055Y-58890D01*
X27655Y-58690D02*
X28055Y-59090D01*
X28055Y-58690D02*
X27655Y-59090D01*
X30825Y-56500D02*
X30821Y-56538D01*
X30809Y-56576D01*
X30791Y-56610D01*
X30766Y-56640D01*
X30736Y-56665D01*
X30702Y-56684D01*
X30665Y-56695D01*
X30626Y-56699D01*
X30588Y-56696D01*
X30551Y-56685D01*
X30516Y-56667D01*
X30486Y-56642D01*
X30460Y-56612D01*
X30442Y-56578D01*
X30430Y-56541D01*
X30426Y-56502D01*
X30429Y-56464D01*
X30440Y-56427D01*
X30457Y-56392D01*
X30482Y-56362D01*
X30511Y-56336D01*
X30545Y-56317D01*
X30583Y-56305D01*
X30621Y-56301D01*
X30659Y-56304D01*
X30697Y-56314D01*
X30732Y-56332D01*
X30762Y-56356D01*
X30788Y-56385D01*
X30807Y-56419D01*
X30820Y-56456D01*
X30824Y-56495D01*
X30825Y-56500D01*
X30425Y-56300D02*
X30825Y-56700D01*
X30825Y-56300D02*
X30425Y-56700D01*
X30825Y-57500D02*
X30821Y-57538D01*
X30809Y-57576D01*
X30791Y-57610D01*
X30766Y-57640D01*
X30736Y-57665D01*
X30702Y-57684D01*
X30665Y-57695D01*
X30626Y-57699D01*
X30588Y-57696D01*
X30551Y-57685D01*
X30516Y-57667D01*
X30486Y-57642D01*
X30460Y-57612D01*
X30442Y-57578D01*
X30430Y-57541D01*
X30426Y-57502D01*
X30429Y-57464D01*
X30440Y-57427D01*
X30457Y-57392D01*
X30482Y-57362D01*
X30511Y-57336D01*
X30545Y-57317D01*
X30583Y-57305D01*
X30621Y-57301D01*
X30659Y-57304D01*
X30697Y-57314D01*
X30732Y-57332D01*
X30762Y-57356D01*
X30788Y-57385D01*
X30807Y-57419D01*
X30820Y-57456D01*
X30824Y-57495D01*
X30825Y-57500D01*
X30425Y-57300D02*
X30825Y-57700D01*
X30825Y-57300D02*
X30425Y-57700D01*
X30825Y-58500D02*
X30821Y-58538D01*
X30809Y-58576D01*
X30791Y-58610D01*
X30766Y-58640D01*
X30736Y-58665D01*
X30702Y-58684D01*
X30665Y-58695D01*
X30626Y-58699D01*
X30588Y-58696D01*
X30551Y-58685D01*
X30516Y-58667D01*
X30486Y-58642D01*
X30460Y-58612D01*
X30442Y-58578D01*
X30430Y-58541D01*
X30426Y-58502D01*
X30429Y-58464D01*
X30440Y-58427D01*
X30457Y-58392D01*
X30482Y-58362D01*
X30511Y-58336D01*
X30545Y-58317D01*
X30583Y-58305D01*
X30621Y-58301D01*
X30659Y-58304D01*
X30697Y-58314D01*
X30732Y-58332D01*
X30762Y-58356D01*
X30788Y-58385D01*
X30807Y-58419D01*
X30820Y-58456D01*
X30824Y-58495D01*
X30825Y-58500D01*
X30425Y-58300D02*
X30825Y-58700D01*
X30825Y-58300D02*
X30425Y-58700D01*
X36700Y-56500D02*
X36696Y-56538D01*
X36684Y-56576D01*
X36666Y-56610D01*
X36641Y-56640D01*
X36611Y-56665D01*
X36577Y-56684D01*
X36540Y-56695D01*
X36501Y-56699D01*
X36463Y-56696D01*
X36426Y-56685D01*
X36391Y-56667D01*
X36361Y-56642D01*
X36335Y-56612D01*
X36317Y-56578D01*
X36305Y-56541D01*
X36301Y-56502D01*
X36304Y-56464D01*
X36315Y-56427D01*
X36332Y-56392D01*
X36357Y-56362D01*
X36386Y-56336D01*
X36420Y-56317D01*
X36458Y-56305D01*
X36496Y-56301D01*
X36534Y-56304D01*
X36572Y-56314D01*
X36607Y-56332D01*
X36637Y-56356D01*
X36663Y-56385D01*
X36682Y-56419D01*
X36695Y-56456D01*
X36699Y-56495D01*
X36700Y-56500D01*
X36300Y-56300D02*
X36700Y-56700D01*
X36700Y-56300D02*
X36300Y-56700D01*
X36700Y-57500D02*
X36696Y-57538D01*
X36684Y-57576D01*
X36666Y-57610D01*
X36641Y-57640D01*
X36611Y-57665D01*
X36577Y-57684D01*
X36540Y-57695D01*
X36501Y-57699D01*
X36463Y-57696D01*
X36426Y-57685D01*
X36391Y-57667D01*
X36361Y-57642D01*
X36335Y-57612D01*
X36317Y-57578D01*
X36305Y-57541D01*
X36301Y-57502D01*
X36304Y-57464D01*
X36315Y-57427D01*
X36332Y-57392D01*
X36357Y-57362D01*
X36386Y-57336D01*
X36420Y-57317D01*
X36458Y-57305D01*
X36496Y-57301D01*
X36534Y-57304D01*
X36572Y-57314D01*
X36607Y-57332D01*
X36637Y-57356D01*
X36663Y-57385D01*
X36682Y-57419D01*
X36695Y-57456D01*
X36699Y-57495D01*
X36700Y-57500D01*
X36300Y-57300D02*
X36700Y-57700D01*
X36700Y-57300D02*
X36300Y-57700D01*
X36700Y-58500D02*
X36696Y-58538D01*
X36684Y-58576D01*
X36666Y-58610D01*
X36641Y-58640D01*
X36611Y-58665D01*
X36577Y-58684D01*
X36540Y-58695D01*
X36501Y-58699D01*
X36463Y-58696D01*
X36426Y-58685D01*
X36391Y-58667D01*
X36361Y-58642D01*
X36335Y-58612D01*
X36317Y-58578D01*
X36305Y-58541D01*
X36301Y-58502D01*
X36304Y-58464D01*
X36315Y-58427D01*
X36332Y-58392D01*
X36357Y-58362D01*
X36386Y-58336D01*
X36420Y-58317D01*
X36458Y-58305D01*
X36496Y-58301D01*
X36534Y-58304D01*
X36572Y-58314D01*
X36607Y-58332D01*
X36637Y-58356D01*
X36663Y-58385D01*
X36682Y-58419D01*
X36695Y-58456D01*
X36699Y-58495D01*
X36700Y-58500D01*
X36300Y-58300D02*
X36700Y-58700D01*
X36700Y-58300D02*
X36300Y-58700D01*
X37600Y-37175D02*
X37596Y-37213D01*
X37584Y-37251D01*
X37566Y-37285D01*
X37541Y-37315D01*
X37511Y-37340D01*
X37477Y-37359D01*
X37440Y-37370D01*
X37401Y-37374D01*
X37363Y-37371D01*
X37326Y-37360D01*
X37291Y-37342D01*
X37261Y-37317D01*
X37235Y-37287D01*
X37217Y-37253D01*
X37205Y-37216D01*
X37201Y-37177D01*
X37204Y-37139D01*
X37215Y-37102D01*
X37232Y-37067D01*
X37257Y-37037D01*
X37286Y-37011D01*
X37320Y-36992D01*
X37358Y-36980D01*
X37396Y-36976D01*
X37434Y-36979D01*
X37472Y-36989D01*
X37507Y-37007D01*
X37537Y-37031D01*
X37563Y-37060D01*
X37582Y-37094D01*
X37595Y-37131D01*
X37599Y-37170D01*
X37600Y-37175D01*
X37200Y-36975D02*
X37600Y-37375D01*
X37600Y-36975D02*
X37200Y-37375D01*
X38200Y-56500D02*
X38196Y-56538D01*
X38184Y-56576D01*
X38166Y-56610D01*
X38141Y-56640D01*
X38111Y-56665D01*
X38077Y-56684D01*
X38040Y-56695D01*
X38001Y-56699D01*
X37963Y-56696D01*
X37926Y-56685D01*
X37891Y-56667D01*
X37861Y-56642D01*
X37835Y-56612D01*
X37817Y-56578D01*
X37805Y-56541D01*
X37801Y-56502D01*
X37804Y-56464D01*
X37815Y-56427D01*
X37832Y-56392D01*
X37857Y-56362D01*
X37886Y-56336D01*
X37920Y-56317D01*
X37958Y-56305D01*
X37996Y-56301D01*
X38034Y-56304D01*
X38072Y-56314D01*
X38107Y-56332D01*
X38137Y-56356D01*
X38163Y-56385D01*
X38182Y-56419D01*
X38195Y-56456D01*
X38199Y-56495D01*
X38200Y-56500D01*
X37800Y-56300D02*
X38200Y-56700D01*
X38200Y-56300D02*
X37800Y-56700D01*
X38200Y-57500D02*
X38196Y-57538D01*
X38184Y-57576D01*
X38166Y-57610D01*
X38141Y-57640D01*
X38111Y-57665D01*
X38077Y-57684D01*
X38040Y-57695D01*
X38001Y-57699D01*
X37963Y-57696D01*
X37926Y-57685D01*
X37891Y-57667D01*
X37861Y-57642D01*
X37835Y-57612D01*
X37817Y-57578D01*
X37805Y-57541D01*
X37801Y-57502D01*
X37804Y-57464D01*
X37815Y-57427D01*
X37832Y-57392D01*
X37857Y-57362D01*
X37886Y-57336D01*
X37920Y-57317D01*
X37958Y-57305D01*
X37996Y-57301D01*
X38034Y-57304D01*
X38072Y-57314D01*
X38107Y-57332D01*
X38137Y-57356D01*
X38163Y-57385D01*
X38182Y-57419D01*
X38195Y-57456D01*
X38199Y-57495D01*
X38200Y-57500D01*
X37800Y-57300D02*
X38200Y-57700D01*
X38200Y-57300D02*
X37800Y-57700D01*
X38200Y-59000D02*
X38196Y-59038D01*
X38184Y-59076D01*
X38166Y-59110D01*
X38141Y-59140D01*
X38111Y-59165D01*
X38077Y-59184D01*
X38040Y-59195D01*
X38001Y-59199D01*
X37963Y-59196D01*
X37926Y-59185D01*
X37891Y-59167D01*
X37861Y-59142D01*
X37835Y-59112D01*
X37817Y-59078D01*
X37805Y-59041D01*
X37801Y-59002D01*
X37804Y-58964D01*
X37815Y-58927D01*
X37832Y-58892D01*
X37857Y-58862D01*
X37886Y-58836D01*
X37920Y-58817D01*
X37958Y-58805D01*
X37996Y-58801D01*
X38034Y-58804D01*
X38072Y-58814D01*
X38107Y-58832D01*
X38137Y-58856D01*
X38163Y-58885D01*
X38182Y-58919D01*
X38195Y-58956D01*
X38199Y-58995D01*
X38200Y-59000D01*
X37800Y-58800D02*
X38200Y-59200D01*
X38200Y-58800D02*
X37800Y-59200D01*
X38600Y-37175D02*
X38596Y-37213D01*
X38584Y-37251D01*
X38566Y-37285D01*
X38541Y-37315D01*
X38511Y-37340D01*
X38477Y-37359D01*
X38440Y-37370D01*
X38401Y-37374D01*
X38363Y-37371D01*
X38326Y-37360D01*
X38291Y-37342D01*
X38261Y-37317D01*
X38235Y-37287D01*
X38217Y-37253D01*
X38205Y-37216D01*
X38201Y-37177D01*
X38204Y-37139D01*
X38215Y-37102D01*
X38232Y-37067D01*
X38257Y-37037D01*
X38286Y-37011D01*
X38320Y-36992D01*
X38358Y-36980D01*
X38396Y-36976D01*
X38434Y-36979D01*
X38472Y-36989D01*
X38507Y-37007D01*
X38537Y-37031D01*
X38563Y-37060D01*
X38582Y-37094D01*
X38595Y-37131D01*
X38599Y-37170D01*
X38600Y-37175D01*
X38200Y-36975D02*
X38600Y-37375D01*
X38600Y-36975D02*
X38200Y-37375D01*
X39200Y-56500D02*
X39196Y-56538D01*
X39184Y-56576D01*
X39166Y-56610D01*
X39141Y-56640D01*
X39111Y-56665D01*
X39077Y-56684D01*
X39040Y-56695D01*
X39001Y-56699D01*
X38963Y-56696D01*
X38926Y-56685D01*
X38891Y-56667D01*
X38861Y-56642D01*
X38835Y-56612D01*
X38817Y-56578D01*
X38805Y-56541D01*
X38801Y-56502D01*
X38804Y-56464D01*
X38815Y-56427D01*
X38832Y-56392D01*
X38857Y-56362D01*
X38886Y-56336D01*
X38920Y-56317D01*
X38958Y-56305D01*
X38996Y-56301D01*
X39034Y-56304D01*
X39072Y-56314D01*
X39107Y-56332D01*
X39137Y-56356D01*
X39163Y-56385D01*
X39182Y-56419D01*
X39195Y-56456D01*
X39199Y-56495D01*
X39200Y-56500D01*
X38800Y-56300D02*
X39200Y-56700D01*
X39200Y-56300D02*
X38800Y-56700D01*
X39200Y-57500D02*
X39196Y-57538D01*
X39184Y-57576D01*
X39166Y-57610D01*
X39141Y-57640D01*
X39111Y-57665D01*
X39077Y-57684D01*
X39040Y-57695D01*
X39001Y-57699D01*
X38963Y-57696D01*
X38926Y-57685D01*
X38891Y-57667D01*
X38861Y-57642D01*
X38835Y-57612D01*
X38817Y-57578D01*
X38805Y-57541D01*
X38801Y-57502D01*
X38804Y-57464D01*
X38815Y-57427D01*
X38832Y-57392D01*
X38857Y-57362D01*
X38886Y-57336D01*
X38920Y-57317D01*
X38958Y-57305D01*
X38996Y-57301D01*
X39034Y-57304D01*
X39072Y-57314D01*
X39107Y-57332D01*
X39137Y-57356D01*
X39163Y-57385D01*
X39182Y-57419D01*
X39195Y-57456D01*
X39199Y-57495D01*
X39200Y-57500D01*
X38800Y-57300D02*
X39200Y-57700D01*
X39200Y-57300D02*
X38800Y-57700D01*
X39200Y-59000D02*
X39196Y-59038D01*
X39184Y-59076D01*
X39166Y-59110D01*
X39141Y-59140D01*
X39111Y-59165D01*
X39077Y-59184D01*
X39040Y-59195D01*
X39001Y-59199D01*
X38963Y-59196D01*
X38926Y-59185D01*
X38891Y-59167D01*
X38861Y-59142D01*
X38835Y-59112D01*
X38817Y-59078D01*
X38805Y-59041D01*
X38801Y-59002D01*
X38804Y-58964D01*
X38815Y-58927D01*
X38832Y-58892D01*
X38857Y-58862D01*
X38886Y-58836D01*
X38920Y-58817D01*
X38958Y-58805D01*
X38996Y-58801D01*
X39034Y-58804D01*
X39072Y-58814D01*
X39107Y-58832D01*
X39137Y-58856D01*
X39163Y-58885D01*
X39182Y-58919D01*
X39195Y-58956D01*
X39199Y-58995D01*
X39200Y-59000D01*
X38800Y-58800D02*
X39200Y-59200D01*
X39200Y-58800D02*
X38800Y-59200D01*
X39225Y-13500D02*
X39221Y-13538D01*
X39209Y-13576D01*
X39191Y-13610D01*
X39166Y-13640D01*
X39136Y-13665D01*
X39102Y-13684D01*
X39065Y-13695D01*
X39026Y-13699D01*
X38988Y-13696D01*
X38951Y-13685D01*
X38916Y-13667D01*
X38886Y-13642D01*
X38860Y-13612D01*
X38842Y-13578D01*
X38830Y-13541D01*
X38826Y-13502D01*
X38829Y-13464D01*
X38840Y-13427D01*
X38857Y-13392D01*
X38882Y-13362D01*
X38911Y-13336D01*
X38945Y-13317D01*
X38983Y-13305D01*
X39021Y-13301D01*
X39059Y-13304D01*
X39097Y-13314D01*
X39132Y-13332D01*
X39162Y-13356D01*
X39188Y-13385D01*
X39207Y-13419D01*
X39220Y-13456D01*
X39224Y-13495D01*
X39225Y-13500D01*
X38825Y-13300D02*
X39225Y-13700D01*
X39225Y-13300D02*
X38825Y-13700D01*
X39225Y-14500D02*
X39221Y-14538D01*
X39209Y-14576D01*
X39191Y-14610D01*
X39166Y-14640D01*
X39136Y-14665D01*
X39102Y-14684D01*
X39065Y-14695D01*
X39026Y-14699D01*
X38988Y-14696D01*
X38951Y-14685D01*
X38916Y-14667D01*
X38886Y-14642D01*
X38860Y-14612D01*
X38842Y-14578D01*
X38830Y-14541D01*
X38826Y-14502D01*
X38829Y-14464D01*
X38840Y-14427D01*
X38857Y-14392D01*
X38882Y-14362D01*
X38911Y-14336D01*
X38945Y-14317D01*
X38983Y-14305D01*
X39021Y-14301D01*
X39059Y-14304D01*
X39097Y-14314D01*
X39132Y-14332D01*
X39162Y-14356D01*
X39188Y-14385D01*
X39207Y-14419D01*
X39220Y-14456D01*
X39224Y-14495D01*
X39225Y-14500D01*
X38825Y-14300D02*
X39225Y-14700D01*
X39225Y-14300D02*
X38825Y-14700D01*
X39600Y-37175D02*
X39596Y-37213D01*
X39584Y-37251D01*
X39566Y-37285D01*
X39541Y-37315D01*
X39511Y-37340D01*
X39477Y-37359D01*
X39440Y-37370D01*
X39401Y-37374D01*
X39363Y-37371D01*
X39326Y-37360D01*
X39291Y-37342D01*
X39261Y-37317D01*
X39235Y-37287D01*
X39217Y-37253D01*
X39205Y-37216D01*
X39201Y-37177D01*
X39204Y-37139D01*
X39215Y-37102D01*
X39232Y-37067D01*
X39257Y-37037D01*
X39286Y-37011D01*
X39320Y-36992D01*
X39358Y-36980D01*
X39396Y-36976D01*
X39434Y-36979D01*
X39472Y-36989D01*
X39507Y-37007D01*
X39537Y-37031D01*
X39563Y-37060D01*
X39582Y-37094D01*
X39595Y-37131D01*
X39599Y-37170D01*
X39600Y-37175D01*
X39200Y-36975D02*
X39600Y-37375D01*
X39600Y-36975D02*
X39200Y-37375D01*
X40200Y-56500D02*
X40196Y-56538D01*
X40184Y-56576D01*
X40166Y-56610D01*
X40141Y-56640D01*
X40111Y-56665D01*
X40077Y-56684D01*
X40040Y-56695D01*
X40001Y-56699D01*
X39963Y-56696D01*
X39926Y-56685D01*
X39891Y-56667D01*
X39861Y-56642D01*
X39835Y-56612D01*
X39817Y-56578D01*
X39805Y-56541D01*
X39801Y-56502D01*
X39804Y-56464D01*
X39815Y-56427D01*
X39832Y-56392D01*
X39857Y-56362D01*
X39886Y-56336D01*
X39920Y-56317D01*
X39958Y-56305D01*
X39996Y-56301D01*
X40034Y-56304D01*
X40072Y-56314D01*
X40107Y-56332D01*
X40137Y-56356D01*
X40163Y-56385D01*
X40182Y-56419D01*
X40195Y-56456D01*
X40199Y-56495D01*
X40200Y-56500D01*
X39800Y-56300D02*
X40200Y-56700D01*
X40200Y-56300D02*
X39800Y-56700D01*
X40200Y-57500D02*
X40196Y-57538D01*
X40184Y-57576D01*
X40166Y-57610D01*
X40141Y-57640D01*
X40111Y-57665D01*
X40077Y-57684D01*
X40040Y-57695D01*
X40001Y-57699D01*
X39963Y-57696D01*
X39926Y-57685D01*
X39891Y-57667D01*
X39861Y-57642D01*
X39835Y-57612D01*
X39817Y-57578D01*
X39805Y-57541D01*
X39801Y-57502D01*
X39804Y-57464D01*
X39815Y-57427D01*
X39832Y-57392D01*
X39857Y-57362D01*
X39886Y-57336D01*
X39920Y-57317D01*
X39958Y-57305D01*
X39996Y-57301D01*
X40034Y-57304D01*
X40072Y-57314D01*
X40107Y-57332D01*
X40137Y-57356D01*
X40163Y-57385D01*
X40182Y-57419D01*
X40195Y-57456D01*
X40199Y-57495D01*
X40200Y-57500D01*
X39800Y-57300D02*
X40200Y-57700D01*
X40200Y-57300D02*
X39800Y-57700D01*
X40200Y-59000D02*
X40196Y-59038D01*
X40184Y-59076D01*
X40166Y-59110D01*
X40141Y-59140D01*
X40111Y-59165D01*
X40077Y-59184D01*
X40040Y-59195D01*
X40001Y-59199D01*
X39963Y-59196D01*
X39926Y-59185D01*
X39891Y-59167D01*
X39861Y-59142D01*
X39835Y-59112D01*
X39817Y-59078D01*
X39805Y-59041D01*
X39801Y-59002D01*
X39804Y-58964D01*
X39815Y-58927D01*
X39832Y-58892D01*
X39857Y-58862D01*
X39886Y-58836D01*
X39920Y-58817D01*
X39958Y-58805D01*
X39996Y-58801D01*
X40034Y-58804D01*
X40072Y-58814D01*
X40107Y-58832D01*
X40137Y-58856D01*
X40163Y-58885D01*
X40182Y-58919D01*
X40195Y-58956D01*
X40199Y-58995D01*
X40200Y-59000D01*
X39800Y-58800D02*
X40200Y-59200D01*
X40200Y-58800D02*
X39800Y-59200D01*
X40225Y-13500D02*
X40221Y-13538D01*
X40209Y-13576D01*
X40191Y-13610D01*
X40166Y-13640D01*
X40136Y-13665D01*
X40102Y-13684D01*
X40065Y-13695D01*
X40026Y-13699D01*
X39988Y-13696D01*
X39951Y-13685D01*
X39916Y-13667D01*
X39886Y-13642D01*
X39860Y-13612D01*
X39842Y-13578D01*
X39830Y-13541D01*
X39826Y-13502D01*
X39829Y-13464D01*
X39840Y-13427D01*
X39857Y-13392D01*
X39882Y-13362D01*
X39911Y-13336D01*
X39945Y-13317D01*
X39983Y-13305D01*
X40021Y-13301D01*
X40059Y-13304D01*
X40097Y-13314D01*
X40132Y-13332D01*
X40162Y-13356D01*
X40188Y-13385D01*
X40207Y-13419D01*
X40220Y-13456D01*
X40224Y-13495D01*
X40225Y-13500D01*
X39825Y-13300D02*
X40225Y-13700D01*
X40225Y-13300D02*
X39825Y-13700D01*
X40225Y-14500D02*
X40221Y-14538D01*
X40209Y-14576D01*
X40191Y-14610D01*
X40166Y-14640D01*
X40136Y-14665D01*
X40102Y-14684D01*
X40065Y-14695D01*
X40026Y-14699D01*
X39988Y-14696D01*
X39951Y-14685D01*
X39916Y-14667D01*
X39886Y-14642D01*
X39860Y-14612D01*
X39842Y-14578D01*
X39830Y-14541D01*
X39826Y-14502D01*
X39829Y-14464D01*
X39840Y-14427D01*
X39857Y-14392D01*
X39882Y-14362D01*
X39911Y-14336D01*
X39945Y-14317D01*
X39983Y-14305D01*
X40021Y-14301D01*
X40059Y-14304D01*
X40097Y-14314D01*
X40132Y-14332D01*
X40162Y-14356D01*
X40188Y-14385D01*
X40207Y-14419D01*
X40220Y-14456D01*
X40224Y-14495D01*
X40225Y-14500D01*
X39825Y-14300D02*
X40225Y-14700D01*
X40225Y-14300D02*
X39825Y-14700D01*
X41200Y-59000D02*
X41196Y-59038D01*
X41184Y-59076D01*
X41166Y-59110D01*
X41141Y-59140D01*
X41111Y-59165D01*
X41077Y-59184D01*
X41040Y-59195D01*
X41001Y-59199D01*
X40963Y-59196D01*
X40926Y-59185D01*
X40891Y-59167D01*
X40861Y-59142D01*
X40835Y-59112D01*
X40817Y-59078D01*
X40805Y-59041D01*
X40801Y-59002D01*
X40804Y-58964D01*
X40815Y-58927D01*
X40832Y-58892D01*
X40857Y-58862D01*
X40886Y-58836D01*
X40920Y-58817D01*
X40958Y-58805D01*
X40996Y-58801D01*
X41034Y-58804D01*
X41072Y-58814D01*
X41107Y-58832D01*
X41137Y-58856D01*
X41163Y-58885D01*
X41182Y-58919D01*
X41195Y-58956D01*
X41199Y-58995D01*
X41200Y-59000D01*
X40800Y-58800D02*
X41200Y-59200D01*
X41200Y-58800D02*
X40800Y-59200D01*
X41225Y-13500D02*
X41221Y-13538D01*
X41209Y-13576D01*
X41191Y-13610D01*
X41166Y-13640D01*
X41136Y-13665D01*
X41102Y-13684D01*
X41065Y-13695D01*
X41026Y-13699D01*
X40988Y-13696D01*
X40951Y-13685D01*
X40916Y-13667D01*
X40886Y-13642D01*
X40860Y-13612D01*
X40842Y-13578D01*
X40830Y-13541D01*
X40826Y-13502D01*
X40829Y-13464D01*
X40840Y-13427D01*
X40857Y-13392D01*
X40882Y-13362D01*
X40911Y-13336D01*
X40945Y-13317D01*
X40983Y-13305D01*
X41021Y-13301D01*
X41059Y-13304D01*
X41097Y-13314D01*
X41132Y-13332D01*
X41162Y-13356D01*
X41188Y-13385D01*
X41207Y-13419D01*
X41220Y-13456D01*
X41224Y-13495D01*
X41225Y-13500D01*
X40825Y-13300D02*
X41225Y-13700D01*
X41225Y-13300D02*
X40825Y-13700D01*
X41225Y-14500D02*
X41221Y-14538D01*
X41209Y-14576D01*
X41191Y-14610D01*
X41166Y-14640D01*
X41136Y-14665D01*
X41102Y-14684D01*
X41065Y-14695D01*
X41026Y-14699D01*
X40988Y-14696D01*
X40951Y-14685D01*
X40916Y-14667D01*
X40886Y-14642D01*
X40860Y-14612D01*
X40842Y-14578D01*
X40830Y-14541D01*
X40826Y-14502D01*
X40829Y-14464D01*
X40840Y-14427D01*
X40857Y-14392D01*
X40882Y-14362D01*
X40911Y-14336D01*
X40945Y-14317D01*
X40983Y-14305D01*
X41021Y-14301D01*
X41059Y-14304D01*
X41097Y-14314D01*
X41132Y-14332D01*
X41162Y-14356D01*
X41188Y-14385D01*
X41207Y-14419D01*
X41220Y-14456D01*
X41224Y-14495D01*
X41225Y-14500D01*
X40825Y-14300D02*
X41225Y-14700D01*
X41225Y-14300D02*
X40825Y-14700D01*
X42200Y-59000D02*
X42196Y-59038D01*
X42184Y-59076D01*
X42166Y-59110D01*
X42141Y-59140D01*
X42111Y-59165D01*
X42077Y-59184D01*
X42040Y-59195D01*
X42001Y-59199D01*
X41963Y-59196D01*
X41926Y-59185D01*
X41891Y-59167D01*
X41861Y-59142D01*
X41835Y-59112D01*
X41817Y-59078D01*
X41805Y-59041D01*
X41801Y-59002D01*
X41804Y-58964D01*
X41815Y-58927D01*
X41832Y-58892D01*
X41857Y-58862D01*
X41886Y-58836D01*
X41920Y-58817D01*
X41958Y-58805D01*
X41996Y-58801D01*
X42034Y-58804D01*
X42072Y-58814D01*
X42107Y-58832D01*
X42137Y-58856D01*
X42163Y-58885D01*
X42182Y-58919D01*
X42195Y-58956D01*
X42199Y-58995D01*
X42200Y-59000D01*
X41800Y-58800D02*
X42200Y-59200D01*
X42200Y-58800D02*
X41800Y-59200D01*
X42225Y-13500D02*
X42221Y-13538D01*
X42209Y-13576D01*
X42191Y-13610D01*
X42166Y-13640D01*
X42136Y-13665D01*
X42102Y-13684D01*
X42065Y-13695D01*
X42026Y-13699D01*
X41988Y-13696D01*
X41951Y-13685D01*
X41916Y-13667D01*
X41886Y-13642D01*
X41860Y-13612D01*
X41842Y-13578D01*
X41830Y-13541D01*
X41826Y-13502D01*
X41829Y-13464D01*
X41840Y-13427D01*
X41857Y-13392D01*
X41882Y-13362D01*
X41911Y-13336D01*
X41945Y-13317D01*
X41983Y-13305D01*
X42021Y-13301D01*
X42059Y-13304D01*
X42097Y-13314D01*
X42132Y-13332D01*
X42162Y-13356D01*
X42188Y-13385D01*
X42207Y-13419D01*
X42220Y-13456D01*
X42224Y-13495D01*
X42225Y-13500D01*
X41825Y-13300D02*
X42225Y-13700D01*
X42225Y-13300D02*
X41825Y-13700D01*
X42225Y-14500D02*
X42221Y-14538D01*
X42209Y-14576D01*
X42191Y-14610D01*
X42166Y-14640D01*
X42136Y-14665D01*
X42102Y-14684D01*
X42065Y-14695D01*
X42026Y-14699D01*
X41988Y-14696D01*
X41951Y-14685D01*
X41916Y-14667D01*
X41886Y-14642D01*
X41860Y-14612D01*
X41842Y-14578D01*
X41830Y-14541D01*
X41826Y-14502D01*
X41829Y-14464D01*
X41840Y-14427D01*
X41857Y-14392D01*
X41882Y-14362D01*
X41911Y-14336D01*
X41945Y-14317D01*
X41983Y-14305D01*
X42021Y-14301D01*
X42059Y-14304D01*
X42097Y-14314D01*
X42132Y-14332D01*
X42162Y-14356D01*
X42188Y-14385D01*
X42207Y-14419D01*
X42220Y-14456D01*
X42224Y-14495D01*
X42225Y-14500D01*
X41825Y-14300D02*
X42225Y-14700D01*
X42225Y-14300D02*
X41825Y-14700D01*
X43200Y-59000D02*
X43196Y-59038D01*
X43184Y-59076D01*
X43166Y-59110D01*
X43141Y-59140D01*
X43111Y-59165D01*
X43077Y-59184D01*
X43040Y-59195D01*
X43001Y-59199D01*
X42963Y-59196D01*
X42926Y-59185D01*
X42891Y-59167D01*
X42861Y-59142D01*
X42835Y-59112D01*
X42817Y-59078D01*
X42805Y-59041D01*
X42801Y-59002D01*
X42804Y-58964D01*
X42815Y-58927D01*
X42832Y-58892D01*
X42857Y-58862D01*
X42886Y-58836D01*
X42920Y-58817D01*
X42958Y-58805D01*
X42996Y-58801D01*
X43034Y-58804D01*
X43072Y-58814D01*
X43107Y-58832D01*
X43137Y-58856D01*
X43163Y-58885D01*
X43182Y-58919D01*
X43195Y-58956D01*
X43199Y-58995D01*
X43200Y-59000D01*
X42800Y-58800D02*
X43200Y-59200D01*
X43200Y-58800D02*
X42800Y-59200D01*
X43225Y-13500D02*
X43221Y-13538D01*
X43209Y-13576D01*
X43191Y-13610D01*
X43166Y-13640D01*
X43136Y-13665D01*
X43102Y-13684D01*
X43065Y-13695D01*
X43026Y-13699D01*
X42988Y-13696D01*
X42951Y-13685D01*
X42916Y-13667D01*
X42886Y-13642D01*
X42860Y-13612D01*
X42842Y-13578D01*
X42830Y-13541D01*
X42826Y-13502D01*
X42829Y-13464D01*
X42840Y-13427D01*
X42857Y-13392D01*
X42882Y-13362D01*
X42911Y-13336D01*
X42945Y-13317D01*
X42983Y-13305D01*
X43021Y-13301D01*
X43059Y-13304D01*
X43097Y-13314D01*
X43132Y-13332D01*
X43162Y-13356D01*
X43188Y-13385D01*
X43207Y-13419D01*
X43220Y-13456D01*
X43224Y-13495D01*
X43225Y-13500D01*
X42825Y-13300D02*
X43225Y-13700D01*
X43225Y-13300D02*
X42825Y-13700D01*
X43225Y-14500D02*
X43221Y-14538D01*
X43209Y-14576D01*
X43191Y-14610D01*
X43166Y-14640D01*
X43136Y-14665D01*
X43102Y-14684D01*
X43065Y-14695D01*
X43026Y-14699D01*
X42988Y-14696D01*
X42951Y-14685D01*
X42916Y-14667D01*
X42886Y-14642D01*
X42860Y-14612D01*
X42842Y-14578D01*
X42830Y-14541D01*
X42826Y-14502D01*
X42829Y-14464D01*
X42840Y-14427D01*
X42857Y-14392D01*
X42882Y-14362D01*
X42911Y-14336D01*
X42945Y-14317D01*
X42983Y-14305D01*
X43021Y-14301D01*
X43059Y-14304D01*
X43097Y-14314D01*
X43132Y-14332D01*
X43162Y-14356D01*
X43188Y-14385D01*
X43207Y-14419D01*
X43220Y-14456D01*
X43224Y-14495D01*
X43225Y-14500D01*
X42825Y-14300D02*
X43225Y-14700D01*
X43225Y-14300D02*
X42825Y-14700D01*
X44225Y-13500D02*
X44221Y-13538D01*
X44209Y-13576D01*
X44191Y-13610D01*
X44166Y-13640D01*
X44136Y-13665D01*
X44102Y-13684D01*
X44065Y-13695D01*
X44026Y-13699D01*
X43988Y-13696D01*
X43951Y-13685D01*
X43916Y-13667D01*
X43886Y-13642D01*
X43860Y-13612D01*
X43842Y-13578D01*
X43830Y-13541D01*
X43826Y-13502D01*
X43829Y-13464D01*
X43840Y-13427D01*
X43857Y-13392D01*
X43882Y-13362D01*
X43911Y-13336D01*
X43945Y-13317D01*
X43983Y-13305D01*
X44021Y-13301D01*
X44059Y-13304D01*
X44097Y-13314D01*
X44132Y-13332D01*
X44162Y-13356D01*
X44188Y-13385D01*
X44207Y-13419D01*
X44220Y-13456D01*
X44224Y-13495D01*
X44225Y-13500D01*
X43825Y-13300D02*
X44225Y-13700D01*
X44225Y-13300D02*
X43825Y-13700D01*
X44225Y-14500D02*
X44221Y-14538D01*
X44209Y-14576D01*
X44191Y-14610D01*
X44166Y-14640D01*
X44136Y-14665D01*
X44102Y-14684D01*
X44065Y-14695D01*
X44026Y-14699D01*
X43988Y-14696D01*
X43951Y-14685D01*
X43916Y-14667D01*
X43886Y-14642D01*
X43860Y-14612D01*
X43842Y-14578D01*
X43830Y-14541D01*
X43826Y-14502D01*
X43829Y-14464D01*
X43840Y-14427D01*
X43857Y-14392D01*
X43882Y-14362D01*
X43911Y-14336D01*
X43945Y-14317D01*
X43983Y-14305D01*
X44021Y-14301D01*
X44059Y-14304D01*
X44097Y-14314D01*
X44132Y-14332D01*
X44162Y-14356D01*
X44188Y-14385D01*
X44207Y-14419D01*
X44220Y-14456D01*
X44224Y-14495D01*
X44225Y-14500D01*
X43825Y-14300D02*
X44225Y-14700D01*
X44225Y-14300D02*
X43825Y-14700D01*
X44700Y-56000D02*
X44696Y-56038D01*
X44684Y-56076D01*
X44666Y-56110D01*
X44641Y-56140D01*
X44611Y-56165D01*
X44577Y-56184D01*
X44540Y-56195D01*
X44501Y-56199D01*
X44463Y-56196D01*
X44426Y-56185D01*
X44391Y-56167D01*
X44361Y-56142D01*
X44335Y-56112D01*
X44317Y-56078D01*
X44305Y-56041D01*
X44301Y-56002D01*
X44304Y-55964D01*
X44315Y-55927D01*
X44332Y-55892D01*
X44357Y-55862D01*
X44386Y-55836D01*
X44420Y-55817D01*
X44458Y-55805D01*
X44496Y-55801D01*
X44534Y-55804D01*
X44572Y-55814D01*
X44607Y-55832D01*
X44637Y-55856D01*
X44663Y-55885D01*
X44682Y-55919D01*
X44695Y-55956D01*
X44699Y-55995D01*
X44700Y-56000D01*
X44300Y-55800D02*
X44700Y-56200D01*
X44700Y-55800D02*
X44300Y-56200D01*
X44700Y-57000D02*
X44696Y-57038D01*
X44684Y-57076D01*
X44666Y-57110D01*
X44641Y-57140D01*
X44611Y-57165D01*
X44577Y-57184D01*
X44540Y-57195D01*
X44501Y-57199D01*
X44463Y-57196D01*
X44426Y-57185D01*
X44391Y-57167D01*
X44361Y-57142D01*
X44335Y-57112D01*
X44317Y-57078D01*
X44305Y-57041D01*
X44301Y-57002D01*
X44304Y-56964D01*
X44315Y-56927D01*
X44332Y-56892D01*
X44357Y-56862D01*
X44386Y-56836D01*
X44420Y-56817D01*
X44458Y-56805D01*
X44496Y-56801D01*
X44534Y-56804D01*
X44572Y-56814D01*
X44607Y-56832D01*
X44637Y-56856D01*
X44663Y-56885D01*
X44682Y-56919D01*
X44695Y-56956D01*
X44699Y-56995D01*
X44700Y-57000D01*
X44300Y-56800D02*
X44700Y-57200D01*
X44700Y-56800D02*
X44300Y-57200D01*
X44700Y-58000D02*
X44696Y-58038D01*
X44684Y-58076D01*
X44666Y-58110D01*
X44641Y-58140D01*
X44611Y-58165D01*
X44577Y-58184D01*
X44540Y-58195D01*
X44501Y-58199D01*
X44463Y-58196D01*
X44426Y-58185D01*
X44391Y-58167D01*
X44361Y-58142D01*
X44335Y-58112D01*
X44317Y-58078D01*
X44305Y-58041D01*
X44301Y-58002D01*
X44304Y-57964D01*
X44315Y-57927D01*
X44332Y-57892D01*
X44357Y-57862D01*
X44386Y-57836D01*
X44420Y-57817D01*
X44458Y-57805D01*
X44496Y-57801D01*
X44534Y-57804D01*
X44572Y-57814D01*
X44607Y-57832D01*
X44637Y-57856D01*
X44663Y-57885D01*
X44682Y-57919D01*
X44695Y-57956D01*
X44699Y-57995D01*
X44700Y-58000D01*
X44300Y-57800D02*
X44700Y-58200D01*
X44700Y-57800D02*
X44300Y-58200D01*
X44700Y-59000D02*
X44696Y-59038D01*
X44684Y-59076D01*
X44666Y-59110D01*
X44641Y-59140D01*
X44611Y-59165D01*
X44577Y-59184D01*
X44540Y-59195D01*
X44501Y-59199D01*
X44463Y-59196D01*
X44426Y-59185D01*
X44391Y-59167D01*
X44361Y-59142D01*
X44335Y-59112D01*
X44317Y-59078D01*
X44305Y-59041D01*
X44301Y-59002D01*
X44304Y-58964D01*
X44315Y-58927D01*
X44332Y-58892D01*
X44357Y-58862D01*
X44386Y-58836D01*
X44420Y-58817D01*
X44458Y-58805D01*
X44496Y-58801D01*
X44534Y-58804D01*
X44572Y-58814D01*
X44607Y-58832D01*
X44637Y-58856D01*
X44663Y-58885D01*
X44682Y-58919D01*
X44695Y-58956D01*
X44699Y-58995D01*
X44700Y-59000D01*
X44300Y-58800D02*
X44700Y-59200D01*
X44700Y-58800D02*
X44300Y-59200D01*
X46200Y-58000D02*
X46196Y-58038D01*
X46184Y-58076D01*
X46166Y-58110D01*
X46141Y-58140D01*
X46111Y-58165D01*
X46077Y-58184D01*
X46040Y-58195D01*
X46001Y-58199D01*
X45963Y-58196D01*
X45926Y-58185D01*
X45891Y-58167D01*
X45861Y-58142D01*
X45835Y-58112D01*
X45817Y-58078D01*
X45805Y-58041D01*
X45801Y-58002D01*
X45804Y-57964D01*
X45815Y-57927D01*
X45832Y-57892D01*
X45857Y-57862D01*
X45886Y-57836D01*
X45920Y-57817D01*
X45958Y-57805D01*
X45996Y-57801D01*
X46034Y-57804D01*
X46072Y-57814D01*
X46107Y-57832D01*
X46137Y-57856D01*
X46163Y-57885D01*
X46182Y-57919D01*
X46195Y-57956D01*
X46199Y-57995D01*
X46200Y-58000D01*
X45800Y-57800D02*
X46200Y-58200D01*
X46200Y-57800D02*
X45800Y-58200D01*
X46200Y-59000D02*
X46196Y-59038D01*
X46184Y-59076D01*
X46166Y-59110D01*
X46141Y-59140D01*
X46111Y-59165D01*
X46077Y-59184D01*
X46040Y-59195D01*
X46001Y-59199D01*
X45963Y-59196D01*
X45926Y-59185D01*
X45891Y-59167D01*
X45861Y-59142D01*
X45835Y-59112D01*
X45817Y-59078D01*
X45805Y-59041D01*
X45801Y-59002D01*
X45804Y-58964D01*
X45815Y-58927D01*
X45832Y-58892D01*
X45857Y-58862D01*
X45886Y-58836D01*
X45920Y-58817D01*
X45958Y-58805D01*
X45996Y-58801D01*
X46034Y-58804D01*
X46072Y-58814D01*
X46107Y-58832D01*
X46137Y-58856D01*
X46163Y-58885D01*
X46182Y-58919D01*
X46195Y-58956D01*
X46199Y-58995D01*
X46200Y-59000D01*
X45800Y-58800D02*
X46200Y-59200D01*
X46200Y-58800D02*
X45800Y-59200D01*
X47200Y-58000D02*
X47196Y-58038D01*
X47184Y-58076D01*
X47166Y-58110D01*
X47141Y-58140D01*
X47111Y-58165D01*
X47077Y-58184D01*
X47040Y-58195D01*
X47001Y-58199D01*
X46963Y-58196D01*
X46926Y-58185D01*
X46891Y-58167D01*
X46861Y-58142D01*
X46835Y-58112D01*
X46817Y-58078D01*
X46805Y-58041D01*
X46801Y-58002D01*
X46804Y-57964D01*
X46815Y-57927D01*
X46832Y-57892D01*
X46857Y-57862D01*
X46886Y-57836D01*
X46920Y-57817D01*
X46958Y-57805D01*
X46996Y-57801D01*
X47034Y-57804D01*
X47072Y-57814D01*
X47107Y-57832D01*
X47137Y-57856D01*
X47163Y-57885D01*
X47182Y-57919D01*
X47195Y-57956D01*
X47199Y-57995D01*
X47200Y-58000D01*
X46800Y-57800D02*
X47200Y-58200D01*
X47200Y-57800D02*
X46800Y-58200D01*
X47200Y-59000D02*
X47196Y-59038D01*
X47184Y-59076D01*
X47166Y-59110D01*
X47141Y-59140D01*
X47111Y-59165D01*
X47077Y-59184D01*
X47040Y-59195D01*
X47001Y-59199D01*
X46963Y-59196D01*
X46926Y-59185D01*
X46891Y-59167D01*
X46861Y-59142D01*
X46835Y-59112D01*
X46817Y-59078D01*
X46805Y-59041D01*
X46801Y-59002D01*
X46804Y-58964D01*
X46815Y-58927D01*
X46832Y-58892D01*
X46857Y-58862D01*
X46886Y-58836D01*
X46920Y-58817D01*
X46958Y-58805D01*
X46996Y-58801D01*
X47034Y-58804D01*
X47072Y-58814D01*
X47107Y-58832D01*
X47137Y-58856D01*
X47163Y-58885D01*
X47182Y-58919D01*
X47195Y-58956D01*
X47199Y-58995D01*
X47200Y-59000D01*
X46800Y-58800D02*
X47200Y-59200D01*
X47200Y-58800D02*
X46800Y-59200D01*
X48200Y-58000D02*
X48196Y-58038D01*
X48184Y-58076D01*
X48166Y-58110D01*
X48141Y-58140D01*
X48111Y-58165D01*
X48077Y-58184D01*
X48040Y-58195D01*
X48001Y-58199D01*
X47963Y-58196D01*
X47926Y-58185D01*
X47891Y-58167D01*
X47861Y-58142D01*
X47835Y-58112D01*
X47817Y-58078D01*
X47805Y-58041D01*
X47801Y-58002D01*
X47804Y-57964D01*
X47815Y-57927D01*
X47832Y-57892D01*
X47857Y-57862D01*
X47886Y-57836D01*
X47920Y-57817D01*
X47958Y-57805D01*
X47996Y-57801D01*
X48034Y-57804D01*
X48072Y-57814D01*
X48107Y-57832D01*
X48137Y-57856D01*
X48163Y-57885D01*
X48182Y-57919D01*
X48195Y-57956D01*
X48199Y-57995D01*
X48200Y-58000D01*
X47800Y-57800D02*
X48200Y-58200D01*
X48200Y-57800D02*
X47800Y-58200D01*
X48200Y-59000D02*
X48196Y-59038D01*
X48184Y-59076D01*
X48166Y-59110D01*
X48141Y-59140D01*
X48111Y-59165D01*
X48077Y-59184D01*
X48040Y-59195D01*
X48001Y-59199D01*
X47963Y-59196D01*
X47926Y-59185D01*
X47891Y-59167D01*
X47861Y-59142D01*
X47835Y-59112D01*
X47817Y-59078D01*
X47805Y-59041D01*
X47801Y-59002D01*
X47804Y-58964D01*
X47815Y-58927D01*
X47832Y-58892D01*
X47857Y-58862D01*
X47886Y-58836D01*
X47920Y-58817D01*
X47958Y-58805D01*
X47996Y-58801D01*
X48034Y-58804D01*
X48072Y-58814D01*
X48107Y-58832D01*
X48137Y-58856D01*
X48163Y-58885D01*
X48182Y-58919D01*
X48195Y-58956D01*
X48199Y-58995D01*
X48200Y-59000D01*
X47800Y-58800D02*
X48200Y-59200D01*
X48200Y-58800D02*
X47800Y-59200D01*
X49200Y-58000D02*
X49196Y-58038D01*
X49184Y-58076D01*
X49166Y-58110D01*
X49141Y-58140D01*
X49111Y-58165D01*
X49077Y-58184D01*
X49040Y-58195D01*
X49001Y-58199D01*
X48963Y-58196D01*
X48926Y-58185D01*
X48891Y-58167D01*
X48861Y-58142D01*
X48835Y-58112D01*
X48817Y-58078D01*
X48805Y-58041D01*
X48801Y-58002D01*
X48804Y-57964D01*
X48815Y-57927D01*
X48832Y-57892D01*
X48857Y-57862D01*
X48886Y-57836D01*
X48920Y-57817D01*
X48958Y-57805D01*
X48996Y-57801D01*
X49034Y-57804D01*
X49072Y-57814D01*
X49107Y-57832D01*
X49137Y-57856D01*
X49163Y-57885D01*
X49182Y-57919D01*
X49195Y-57956D01*
X49199Y-57995D01*
X49200Y-58000D01*
X48800Y-57800D02*
X49200Y-58200D01*
X49200Y-57800D02*
X48800Y-58200D01*
X49200Y-59000D02*
X49196Y-59038D01*
X49184Y-59076D01*
X49166Y-59110D01*
X49141Y-59140D01*
X49111Y-59165D01*
X49077Y-59184D01*
X49040Y-59195D01*
X49001Y-59199D01*
X48963Y-59196D01*
X48926Y-59185D01*
X48891Y-59167D01*
X48861Y-59142D01*
X48835Y-59112D01*
X48817Y-59078D01*
X48805Y-59041D01*
X48801Y-59002D01*
X48804Y-58964D01*
X48815Y-58927D01*
X48832Y-58892D01*
X48857Y-58862D01*
X48886Y-58836D01*
X48920Y-58817D01*
X48958Y-58805D01*
X48996Y-58801D01*
X49034Y-58804D01*
X49072Y-58814D01*
X49107Y-58832D01*
X49137Y-58856D01*
X49163Y-58885D01*
X49182Y-58919D01*
X49195Y-58956D01*
X49199Y-58995D01*
X49200Y-59000D01*
X48800Y-58800D02*
X49200Y-59200D01*
X49200Y-58800D02*
X48800Y-59200D01*
X50200Y-58000D02*
X50196Y-58038D01*
X50184Y-58076D01*
X50166Y-58110D01*
X50141Y-58140D01*
X50111Y-58165D01*
X50077Y-58184D01*
X50040Y-58195D01*
X50001Y-58199D01*
X49963Y-58196D01*
X49926Y-58185D01*
X49891Y-58167D01*
X49861Y-58142D01*
X49835Y-58112D01*
X49817Y-58078D01*
X49805Y-58041D01*
X49801Y-58002D01*
X49804Y-57964D01*
X49815Y-57927D01*
X49832Y-57892D01*
X49857Y-57862D01*
X49886Y-57836D01*
X49920Y-57817D01*
X49958Y-57805D01*
X49996Y-57801D01*
X50034Y-57804D01*
X50072Y-57814D01*
X50107Y-57832D01*
X50137Y-57856D01*
X50163Y-57885D01*
X50182Y-57919D01*
X50195Y-57956D01*
X50199Y-57995D01*
X50200Y-58000D01*
X49800Y-57800D02*
X50200Y-58200D01*
X50200Y-57800D02*
X49800Y-58200D01*
X50200Y-59000D02*
X50196Y-59038D01*
X50184Y-59076D01*
X50166Y-59110D01*
X50141Y-59140D01*
X50111Y-59165D01*
X50077Y-59184D01*
X50040Y-59195D01*
X50001Y-59199D01*
X49963Y-59196D01*
X49926Y-59185D01*
X49891Y-59167D01*
X49861Y-59142D01*
X49835Y-59112D01*
X49817Y-59078D01*
X49805Y-59041D01*
X49801Y-59002D01*
X49804Y-58964D01*
X49815Y-58927D01*
X49832Y-58892D01*
X49857Y-58862D01*
X49886Y-58836D01*
X49920Y-58817D01*
X49958Y-58805D01*
X49996Y-58801D01*
X50034Y-58804D01*
X50072Y-58814D01*
X50107Y-58832D01*
X50137Y-58856D01*
X50163Y-58885D01*
X50182Y-58919D01*
X50195Y-58956D01*
X50199Y-58995D01*
X50200Y-59000D01*
X49800Y-58800D02*
X50200Y-59200D01*
X50200Y-58800D02*
X49800Y-59200D01*
X51200Y-58000D02*
X51196Y-58038D01*
X51184Y-58076D01*
X51166Y-58110D01*
X51141Y-58140D01*
X51111Y-58165D01*
X51077Y-58184D01*
X51040Y-58195D01*
X51001Y-58199D01*
X50963Y-58196D01*
X50926Y-58185D01*
X50891Y-58167D01*
X50861Y-58142D01*
X50835Y-58112D01*
X50817Y-58078D01*
X50805Y-58041D01*
X50801Y-58002D01*
X50804Y-57964D01*
X50815Y-57927D01*
X50832Y-57892D01*
X50857Y-57862D01*
X50886Y-57836D01*
X50920Y-57817D01*
X50958Y-57805D01*
X50996Y-57801D01*
X51034Y-57804D01*
X51072Y-57814D01*
X51107Y-57832D01*
X51137Y-57856D01*
X51163Y-57885D01*
X51182Y-57919D01*
X51195Y-57956D01*
X51199Y-57995D01*
X51200Y-58000D01*
X50800Y-57800D02*
X51200Y-58200D01*
X51200Y-57800D02*
X50800Y-58200D01*
X51200Y-59000D02*
X51196Y-59038D01*
X51184Y-59076D01*
X51166Y-59110D01*
X51141Y-59140D01*
X51111Y-59165D01*
X51077Y-59184D01*
X51040Y-59195D01*
X51001Y-59199D01*
X50963Y-59196D01*
X50926Y-59185D01*
X50891Y-59167D01*
X50861Y-59142D01*
X50835Y-59112D01*
X50817Y-59078D01*
X50805Y-59041D01*
X50801Y-59002D01*
X50804Y-58964D01*
X50815Y-58927D01*
X50832Y-58892D01*
X50857Y-58862D01*
X50886Y-58836D01*
X50920Y-58817D01*
X50958Y-58805D01*
X50996Y-58801D01*
X51034Y-58804D01*
X51072Y-58814D01*
X51107Y-58832D01*
X51137Y-58856D01*
X51163Y-58885D01*
X51182Y-58919D01*
X51195Y-58956D01*
X51199Y-58995D01*
X51200Y-59000D01*
X50800Y-58800D02*
X51200Y-59200D01*
X51200Y-58800D02*
X50800Y-59200D01*
X20855Y-57890D02*
X20850Y-57938D01*
X20836Y-57985D01*
X20813Y-58028D01*
X20782Y-58066D01*
X20744Y-58097D01*
X20701Y-58120D01*
X20655Y-58134D01*
X20606Y-58139D01*
X20559Y-58135D01*
X20512Y-58121D01*
X20469Y-58099D01*
X20431Y-58068D01*
X20399Y-58031D01*
X20376Y-57988D01*
X20361Y-57941D01*
X20356Y-57893D01*
X20360Y-57845D01*
X20373Y-57798D01*
X20395Y-57755D01*
X20426Y-57717D01*
X20463Y-57685D01*
X20505Y-57661D01*
X20552Y-57646D01*
X20600Y-57641D01*
X20648Y-57644D01*
X20695Y-57657D01*
X20738Y-57679D01*
X20777Y-57709D01*
X20809Y-57746D01*
X20833Y-57789D01*
X20848Y-57835D01*
X20854Y-57884D01*
X20855Y-57890D01*
X20355Y-57890D02*
X20855Y-57890D01*
X23605Y-57890D02*
X23600Y-57938D01*
X23586Y-57985D01*
X23563Y-58028D01*
X23532Y-58066D01*
X23494Y-58097D01*
X23451Y-58120D01*
X23405Y-58134D01*
X23356Y-58139D01*
X23309Y-58135D01*
X23262Y-58121D01*
X23219Y-58099D01*
X23181Y-58068D01*
X23149Y-58031D01*
X23126Y-57988D01*
X23111Y-57941D01*
X23106Y-57893D01*
X23110Y-57845D01*
X23123Y-57798D01*
X23145Y-57755D01*
X23176Y-57717D01*
X23213Y-57685D01*
X23255Y-57661D01*
X23302Y-57646D01*
X23350Y-57641D01*
X23398Y-57644D01*
X23445Y-57657D01*
X23488Y-57679D01*
X23527Y-57709D01*
X23559Y-57746D01*
X23583Y-57789D01*
X23598Y-57835D01*
X23604Y-57884D01*
X23605Y-57890D01*
X23105Y-57890D02*
X23605Y-57890D01*
X25855Y-57890D02*
X25850Y-57938D01*
X25836Y-57985D01*
X25813Y-58028D01*
X25782Y-58066D01*
X25744Y-58097D01*
X25701Y-58120D01*
X25655Y-58134D01*
X25606Y-58139D01*
X25559Y-58135D01*
X25512Y-58121D01*
X25469Y-58099D01*
X25431Y-58068D01*
X25399Y-58031D01*
X25376Y-57988D01*
X25361Y-57941D01*
X25356Y-57893D01*
X25360Y-57845D01*
X25373Y-57798D01*
X25395Y-57755D01*
X25426Y-57717D01*
X25463Y-57685D01*
X25505Y-57661D01*
X25552Y-57646D01*
X25600Y-57641D01*
X25648Y-57644D01*
X25695Y-57657D01*
X25738Y-57679D01*
X25777Y-57709D01*
X25809Y-57746D01*
X25833Y-57789D01*
X25848Y-57835D01*
X25854Y-57884D01*
X25855Y-57890D01*
X25355Y-57890D02*
X25855Y-57890D01*
X28605Y-57890D02*
X28600Y-57938D01*
X28586Y-57985D01*
X28563Y-58028D01*
X28532Y-58066D01*
X28494Y-58097D01*
X28451Y-58120D01*
X28405Y-58134D01*
X28356Y-58139D01*
X28309Y-58135D01*
X28262Y-58121D01*
X28219Y-58099D01*
X28181Y-58068D01*
X28149Y-58031D01*
X28126Y-57988D01*
X28111Y-57941D01*
X28106Y-57893D01*
X28110Y-57845D01*
X28123Y-57798D01*
X28145Y-57755D01*
X28176Y-57717D01*
X28213Y-57685D01*
X28255Y-57661D01*
X28302Y-57646D01*
X28350Y-57641D01*
X28398Y-57644D01*
X28445Y-57657D01*
X28488Y-57679D01*
X28527Y-57709D01*
X28559Y-57746D01*
X28583Y-57789D01*
X28598Y-57835D01*
X28604Y-57884D01*
X28605Y-57890D01*
X28105Y-57890D02*
X28605Y-57890D01*
X16850Y-57200D02*
X16844Y-57258D01*
X16827Y-57314D01*
X16799Y-57366D01*
X16762Y-57411D01*
X16717Y-57448D01*
X16666Y-57476D01*
X16610Y-57493D01*
X16552Y-57499D01*
X16494Y-57494D01*
X16438Y-57478D01*
X16386Y-57451D01*
X16341Y-57414D01*
X16303Y-57369D01*
X16275Y-57318D01*
X16257Y-57262D01*
X16251Y-57204D01*
X16255Y-57146D01*
X16272Y-57090D01*
X16298Y-57038D01*
X16335Y-56992D01*
X16379Y-56954D01*
X16430Y-56926D01*
X16486Y-56907D01*
X16544Y-56901D01*
X16602Y-56905D01*
X16658Y-56921D01*
X16710Y-56947D01*
X16756Y-56983D01*
X16795Y-57028D01*
X16824Y-57078D01*
X16842Y-57134D01*
X16849Y-57192D01*
X16850Y-57200D01*
X16550Y-56900D02*
X16550Y-57500D01*
X18850Y-57200D02*
X18844Y-57258D01*
X18827Y-57314D01*
X18799Y-57366D01*
X18762Y-57411D01*
X18717Y-57448D01*
X18666Y-57476D01*
X18610Y-57493D01*
X18552Y-57499D01*
X18494Y-57494D01*
X18438Y-57478D01*
X18386Y-57451D01*
X18341Y-57414D01*
X18303Y-57369D01*
X18275Y-57318D01*
X18257Y-57262D01*
X18251Y-57204D01*
X18255Y-57146D01*
X18272Y-57090D01*
X18298Y-57038D01*
X18335Y-56992D01*
X18379Y-56954D01*
X18430Y-56926D01*
X18486Y-56907D01*
X18544Y-56901D01*
X18602Y-56905D01*
X18658Y-56921D01*
X18710Y-56947D01*
X18756Y-56983D01*
X18795Y-57028D01*
X18824Y-57078D01*
X18842Y-57134D01*
X18849Y-57192D01*
X18850Y-57200D01*
X18550Y-56900D02*
X18550Y-57500D01*
X33924Y-52424D02*
X33924Y-51576D01*
X33076Y-51576D01*
X33076Y-52424D01*
X33924Y-52424D01*
X33924Y-57424D02*
X33924Y-56576D01*
X33076Y-56576D01*
X33076Y-57424D01*
X33924Y-57424D01*
X56924Y-15924D02*
X56924Y-15076D01*
X56076Y-15076D01*
X56076Y-15924D01*
X56924Y-15924D01*
X56924Y-20924D02*
X56924Y-20076D01*
X56076Y-20076D01*
X56076Y-20924D01*
X56924Y-20924D01*
G54D12*
X09038Y-63935D02*
X09038Y-63135D01*
X09229Y-63135D01*
X09343Y-63173D01*
X09419Y-63249D01*
X09458Y-63325D01*
X09496Y-63478D01*
X09496Y-63592D01*
X09458Y-63744D01*
X09419Y-63821D01*
X09343Y-63897D01*
X09229Y-63935D01*
X09038Y-63935D01*
X09838Y-63935D02*
X09838Y-63401D01*
X09838Y-63554D02*
X09877Y-63478D01*
X09915Y-63440D01*
X09991Y-63401D01*
X10067Y-63401D01*
X10333Y-63935D02*
X10333Y-63401D01*
X10333Y-63135D02*
X10295Y-63173D01*
X10333Y-63211D01*
X10372Y-63173D01*
X10333Y-63135D01*
X10333Y-63211D01*
X10829Y-63935D02*
X10753Y-63897D01*
X10714Y-63821D01*
X10714Y-63135D01*
X11248Y-63935D02*
X11172Y-63897D01*
X11133Y-63821D01*
X11133Y-63135D01*
X12162Y-63935D02*
X12162Y-63135D01*
X12429Y-63706D01*
X12696Y-63135D01*
X12696Y-63935D01*
X13419Y-63935D02*
X13419Y-63516D01*
X13381Y-63440D01*
X13305Y-63401D01*
X13153Y-63401D01*
X13076Y-63440D01*
X13419Y-63897D02*
X13343Y-63935D01*
X13153Y-63935D01*
X13076Y-63897D01*
X13038Y-63821D01*
X13038Y-63744D01*
X13076Y-63668D01*
X13153Y-63630D01*
X13343Y-63630D01*
X13419Y-63592D01*
X13800Y-63401D02*
X13800Y-64201D01*
X13800Y-63440D02*
X13877Y-63401D01*
X14029Y-63401D01*
X14105Y-63440D01*
X14143Y-63478D01*
X14181Y-63554D01*
X14181Y-63782D01*
X14143Y-63859D01*
X14105Y-63897D01*
X14029Y-63935D01*
X13877Y-63935D01*
X13800Y-63897D01*
X14524Y-63859D02*
X14563Y-63897D01*
X14524Y-63935D01*
X14486Y-63897D01*
X14524Y-63859D01*
X14524Y-63935D01*
X14524Y-63440D02*
X14563Y-63478D01*
X14524Y-63516D01*
X14486Y-63478D01*
X14524Y-63440D01*
X14524Y-63516D01*
X08398Y-65166D02*
X08648Y-65416D01*
X08648Y-65166D02*
X08398Y-65416D01*
X09191Y-64815D02*
X09267Y-64815D01*
X09343Y-64853D01*
X09381Y-64891D01*
X09419Y-64967D01*
X09458Y-65120D01*
X09458Y-65310D01*
X09419Y-65462D01*
X09381Y-65539D01*
X09343Y-65577D01*
X09267Y-65615D01*
X09191Y-65615D01*
X09115Y-65577D01*
X09077Y-65539D01*
X09038Y-65462D01*
X09000Y-65310D01*
X09000Y-65120D01*
X09038Y-64967D01*
X09077Y-64891D01*
X09115Y-64853D01*
X09191Y-64815D01*
X09800Y-65539D02*
X09839Y-65577D01*
X09800Y-65615D01*
X09762Y-65577D01*
X09800Y-65539D01*
X09800Y-65615D01*
X10334Y-64815D02*
X10410Y-64815D01*
X10486Y-64853D01*
X10524Y-64891D01*
X10562Y-64967D01*
X10601Y-65120D01*
X10601Y-65310D01*
X10562Y-65462D01*
X10524Y-65539D01*
X10486Y-65577D01*
X10410Y-65615D01*
X10334Y-65615D01*
X10258Y-65577D01*
X10220Y-65539D01*
X10181Y-65462D01*
X10143Y-65310D01*
X10143Y-65120D01*
X10181Y-64967D01*
X10220Y-64891D01*
X10258Y-64853D01*
X10334Y-64815D01*
X10905Y-64891D02*
X10943Y-64853D01*
X11020Y-64815D01*
X11210Y-64815D01*
X11286Y-64853D01*
X11324Y-64891D01*
X11363Y-64967D01*
X11363Y-65043D01*
X11324Y-65158D01*
X10867Y-65615D01*
X11363Y-65615D01*
X12086Y-64815D02*
X11705Y-64815D01*
X11667Y-65196D01*
X11705Y-65158D01*
X11782Y-65120D01*
X11972Y-65120D01*
X12048Y-65158D01*
X12086Y-65196D01*
X12125Y-65272D01*
X12125Y-65462D01*
X12086Y-65539D01*
X12048Y-65577D01*
X11972Y-65615D01*
X11782Y-65615D01*
X11705Y-65577D01*
X11667Y-65539D01*
X12429Y-64815D02*
X12429Y-64967D01*
X12734Y-64815D02*
X12734Y-64967D01*
X14259Y-64777D02*
X13573Y-65805D01*
X15288Y-64815D02*
X15364Y-64815D01*
X15440Y-64853D01*
X15478Y-64891D01*
X15516Y-64967D01*
X15555Y-65120D01*
X15555Y-65310D01*
X15516Y-65462D01*
X15478Y-65539D01*
X15440Y-65577D01*
X15364Y-65615D01*
X15288Y-65615D01*
X15212Y-65577D01*
X15174Y-65539D01*
X15135Y-65462D01*
X15097Y-65310D01*
X15097Y-65120D01*
X15135Y-64967D01*
X15174Y-64891D01*
X15212Y-64853D01*
X15288Y-64815D01*
X15897Y-65539D02*
X15936Y-65577D01*
X15897Y-65615D01*
X15859Y-65577D01*
X15897Y-65539D01*
X15897Y-65615D01*
X16621Y-64815D02*
X16469Y-64815D01*
X16393Y-64853D01*
X16355Y-64891D01*
X16278Y-65005D01*
X16240Y-65158D01*
X16240Y-65462D01*
X16278Y-65539D01*
X16317Y-65577D01*
X16393Y-65615D01*
X16545Y-65615D01*
X16621Y-65577D01*
X16659Y-65539D01*
X16698Y-65462D01*
X16698Y-65272D01*
X16659Y-65196D01*
X16621Y-65158D01*
X16545Y-65120D01*
X16393Y-65120D01*
X16317Y-65158D01*
X16278Y-65196D01*
X16240Y-65272D01*
X17383Y-65081D02*
X17383Y-65615D01*
X17193Y-64777D02*
X17002Y-65348D01*
X17498Y-65348D01*
X17802Y-65615D02*
X17802Y-65081D01*
X17802Y-65158D02*
X17841Y-65120D01*
X17917Y-65081D01*
X18031Y-65081D01*
X18107Y-65120D01*
X18145Y-65196D01*
X18145Y-65615D01*
X18145Y-65196D02*
X18183Y-65120D01*
X18260Y-65081D01*
X18374Y-65081D01*
X18450Y-65120D01*
X18488Y-65196D01*
X18488Y-65615D01*
X18869Y-65615D02*
X18869Y-65081D01*
X18869Y-65158D02*
X18908Y-65120D01*
X18984Y-65081D01*
X19098Y-65081D01*
X19174Y-65120D01*
X19212Y-65196D01*
X19212Y-65615D01*
X19212Y-65196D02*
X19250Y-65120D01*
X19327Y-65081D01*
X19441Y-65081D01*
X19517Y-65120D01*
X19555Y-65196D01*
X19555Y-65615D01*
X20775Y-65920D02*
X20737Y-65881D01*
X20661Y-65767D01*
X20623Y-65691D01*
X20585Y-65577D01*
X20546Y-65386D01*
X20546Y-65234D01*
X20585Y-65043D01*
X20623Y-64929D01*
X20661Y-64853D01*
X20737Y-64739D01*
X20775Y-64701D01*
X21118Y-65615D02*
X21270Y-65615D01*
X21346Y-65577D01*
X21384Y-65539D01*
X21460Y-65424D01*
X21499Y-65272D01*
X21499Y-64967D01*
X21460Y-64891D01*
X21422Y-64853D01*
X21346Y-64815D01*
X21194Y-64815D01*
X21118Y-64853D01*
X21079Y-64891D01*
X21041Y-64967D01*
X21041Y-65158D01*
X21079Y-65234D01*
X21118Y-65272D01*
X21194Y-65310D01*
X21346Y-65310D01*
X21422Y-65272D01*
X21460Y-65234D01*
X21499Y-65158D01*
X22184Y-64815D02*
X22032Y-64815D01*
X21956Y-64853D01*
X21918Y-64891D01*
X21841Y-65005D01*
X21803Y-65158D01*
X21803Y-65462D01*
X21841Y-65539D01*
X21880Y-65577D01*
X21956Y-65615D01*
X22108Y-65615D01*
X22184Y-65577D01*
X22222Y-65539D01*
X22261Y-65462D01*
X22261Y-65272D01*
X22222Y-65196D01*
X22184Y-65158D01*
X22108Y-65120D01*
X21956Y-65120D01*
X21880Y-65158D01*
X21841Y-65196D01*
X21803Y-65272D01*
X23213Y-65615D02*
X23213Y-64815D01*
X23556Y-65615D02*
X23556Y-65196D01*
X23518Y-65120D01*
X23442Y-65081D01*
X23328Y-65081D01*
X23252Y-65120D01*
X23213Y-65158D01*
X24052Y-65615D02*
X23976Y-65577D01*
X23937Y-65539D01*
X23899Y-65462D01*
X23899Y-65234D01*
X23937Y-65158D01*
X23976Y-65120D01*
X24052Y-65081D01*
X24166Y-65081D01*
X24242Y-65120D01*
X24280Y-65158D01*
X24318Y-65234D01*
X24318Y-65462D01*
X24280Y-65539D01*
X24242Y-65577D01*
X24166Y-65615D01*
X24052Y-65615D01*
X24776Y-65615D02*
X24700Y-65577D01*
X24661Y-65501D01*
X24661Y-64815D01*
X25385Y-65577D02*
X25309Y-65615D01*
X25157Y-65615D01*
X25080Y-65577D01*
X25042Y-65501D01*
X25042Y-65196D01*
X25080Y-65120D01*
X25157Y-65081D01*
X25309Y-65081D01*
X25385Y-65120D01*
X25423Y-65196D01*
X25423Y-65272D01*
X25042Y-65348D01*
X25728Y-65577D02*
X25805Y-65615D01*
X25957Y-65615D01*
X26033Y-65577D01*
X26071Y-65501D01*
X26071Y-65462D01*
X26033Y-65386D01*
X25957Y-65348D01*
X25843Y-65348D01*
X25766Y-65310D01*
X25728Y-65234D01*
X25728Y-65196D01*
X25766Y-65120D01*
X25843Y-65081D01*
X25957Y-65081D01*
X26033Y-65120D01*
X26338Y-65920D02*
X26376Y-65881D01*
X26453Y-65767D01*
X26491Y-65691D01*
X26529Y-65577D01*
X26567Y-65386D01*
X26567Y-65234D01*
X26529Y-65043D01*
X26491Y-64929D01*
X26453Y-64853D01*
X26376Y-64739D01*
X26338Y-64701D01*
G54D10*
X08648Y-66347D02*
X08644Y-66378D01*
X08635Y-66407D01*
X08621Y-66435D01*
X08601Y-66459D01*
X08577Y-66479D01*
X08550Y-66494D01*
X08520Y-66503D01*
X08489Y-66506D01*
X08459Y-66504D01*
X08429Y-66495D01*
X08401Y-66480D01*
X08377Y-66461D01*
X08356Y-66437D01*
X08341Y-66410D01*
X08332Y-66380D01*
X08329Y-66349D01*
X08331Y-66319D01*
X08340Y-66289D01*
X08354Y-66261D01*
X08373Y-66236D01*
X08397Y-66216D01*
X08424Y-66201D01*
X08454Y-66191D01*
X08485Y-66188D01*
X08515Y-66190D01*
X08545Y-66198D01*
X08573Y-66212D01*
X08598Y-66232D01*
X08618Y-66255D01*
X08634Y-66282D01*
X08644Y-66312D01*
X08647Y-66343D01*
X08648Y-66347D01*
G54D12*
X09191Y-65871D02*
X09267Y-65871D01*
X09343Y-65909D01*
X09381Y-65947D01*
X09419Y-66023D01*
X09458Y-66176D01*
X09458Y-66366D01*
X09419Y-66518D01*
X09381Y-66595D01*
X09343Y-66633D01*
X09267Y-66671D01*
X09191Y-66671D01*
X09115Y-66633D01*
X09077Y-66595D01*
X09038Y-66518D01*
X09000Y-66366D01*
X09000Y-66176D01*
X09038Y-66023D01*
X09077Y-65947D01*
X09115Y-65909D01*
X09191Y-65871D01*
X09800Y-66595D02*
X09839Y-66633D01*
X09800Y-66671D01*
X09762Y-66633D01*
X09800Y-66595D01*
X09800Y-66671D01*
X10334Y-65871D02*
X10410Y-65871D01*
X10486Y-65909D01*
X10524Y-65947D01*
X10562Y-66023D01*
X10601Y-66176D01*
X10601Y-66366D01*
X10562Y-66518D01*
X10524Y-66595D01*
X10486Y-66633D01*
X10410Y-66671D01*
X10334Y-66671D01*
X10258Y-66633D01*
X10220Y-66595D01*
X10181Y-66518D01*
X10143Y-66366D01*
X10143Y-66176D01*
X10181Y-66023D01*
X10220Y-65947D01*
X10258Y-65909D01*
X10334Y-65871D01*
X10867Y-65871D02*
X11363Y-65871D01*
X11096Y-66176D01*
X11210Y-66176D01*
X11286Y-66214D01*
X11324Y-66252D01*
X11363Y-66328D01*
X11363Y-66518D01*
X11324Y-66595D01*
X11286Y-66633D01*
X11210Y-66671D01*
X10982Y-66671D01*
X10905Y-66633D01*
X10867Y-66595D01*
X11667Y-65947D02*
X11705Y-65909D01*
X11782Y-65871D01*
X11972Y-65871D01*
X12048Y-65909D01*
X12086Y-65947D01*
X12125Y-66023D01*
X12125Y-66099D01*
X12086Y-66214D01*
X11629Y-66671D01*
X12125Y-66671D01*
X12429Y-65871D02*
X12429Y-66023D01*
X12734Y-65871D02*
X12734Y-66023D01*
X14259Y-65833D02*
X13573Y-66861D01*
X15288Y-65871D02*
X15364Y-65871D01*
X15440Y-65909D01*
X15478Y-65947D01*
X15516Y-66023D01*
X15555Y-66176D01*
X15555Y-66366D01*
X15516Y-66518D01*
X15478Y-66595D01*
X15440Y-66633D01*
X15364Y-66671D01*
X15288Y-66671D01*
X15212Y-66633D01*
X15174Y-66595D01*
X15135Y-66518D01*
X15097Y-66366D01*
X15097Y-66176D01*
X15135Y-66023D01*
X15174Y-65947D01*
X15212Y-65909D01*
X15288Y-65871D01*
X15897Y-66595D02*
X15936Y-66633D01*
X15897Y-66671D01*
X15859Y-66633D01*
X15897Y-66595D01*
X15897Y-66671D01*
X16393Y-66214D02*
X16317Y-66176D01*
X16278Y-66137D01*
X16240Y-66061D01*
X16240Y-66023D01*
X16278Y-65947D01*
X16317Y-65909D01*
X16393Y-65871D01*
X16545Y-65871D01*
X16621Y-65909D01*
X16659Y-65947D01*
X16698Y-66023D01*
X16698Y-66061D01*
X16659Y-66137D01*
X16621Y-66176D01*
X16545Y-66214D01*
X16393Y-66214D01*
X16317Y-66252D01*
X16278Y-66290D01*
X16240Y-66366D01*
X16240Y-66518D01*
X16278Y-66595D01*
X16317Y-66633D01*
X16393Y-66671D01*
X16545Y-66671D01*
X16621Y-66633D01*
X16659Y-66595D01*
X16698Y-66518D01*
X16698Y-66366D01*
X16659Y-66290D01*
X16621Y-66252D01*
X16545Y-66214D01*
X17460Y-66671D02*
X17002Y-66671D01*
X17231Y-66671D02*
X17231Y-65871D01*
X17155Y-65985D01*
X17079Y-66061D01*
X17002Y-66099D01*
X17802Y-66671D02*
X17802Y-66137D01*
X17802Y-66214D02*
X17841Y-66176D01*
X17917Y-66137D01*
X18031Y-66137D01*
X18107Y-66176D01*
X18145Y-66252D01*
X18145Y-66671D01*
X18145Y-66252D02*
X18183Y-66176D01*
X18260Y-66137D01*
X18374Y-66137D01*
X18450Y-66176D01*
X18488Y-66252D01*
X18488Y-66671D01*
X18869Y-66671D02*
X18869Y-66137D01*
X18869Y-66214D02*
X18908Y-66176D01*
X18984Y-66137D01*
X19098Y-66137D01*
X19174Y-66176D01*
X19212Y-66252D01*
X19212Y-66671D01*
X19212Y-66252D02*
X19250Y-66176D01*
X19327Y-66137D01*
X19441Y-66137D01*
X19517Y-66176D01*
X19555Y-66252D01*
X19555Y-66671D01*
X20775Y-66976D02*
X20737Y-66937D01*
X20661Y-66823D01*
X20623Y-66747D01*
X20585Y-66633D01*
X20546Y-66442D01*
X20546Y-66290D01*
X20585Y-66099D01*
X20623Y-65985D01*
X20661Y-65909D01*
X20737Y-65795D01*
X20775Y-65757D01*
X21003Y-65871D02*
X21499Y-65871D01*
X21232Y-66176D01*
X21346Y-66176D01*
X21422Y-66214D01*
X21460Y-66252D01*
X21499Y-66328D01*
X21499Y-66518D01*
X21460Y-66595D01*
X21422Y-66633D01*
X21346Y-66671D01*
X21118Y-66671D01*
X21041Y-66633D01*
X21003Y-66595D01*
X22451Y-66671D02*
X22451Y-65871D01*
X22794Y-66671D02*
X22794Y-66252D01*
X22756Y-66176D01*
X22680Y-66137D01*
X22566Y-66137D01*
X22490Y-66176D01*
X22451Y-66214D01*
X23290Y-66671D02*
X23214Y-66633D01*
X23175Y-66595D01*
X23137Y-66518D01*
X23137Y-66290D01*
X23175Y-66214D01*
X23214Y-66176D01*
X23290Y-66137D01*
X23404Y-66137D01*
X23480Y-66176D01*
X23518Y-66214D01*
X23556Y-66290D01*
X23556Y-66518D01*
X23518Y-66595D01*
X23480Y-66633D01*
X23404Y-66671D01*
X23290Y-66671D01*
X24014Y-66671D02*
X23938Y-66633D01*
X23899Y-66557D01*
X23899Y-65871D01*
X24623Y-66633D02*
X24547Y-66671D01*
X24395Y-66671D01*
X24318Y-66633D01*
X24280Y-66557D01*
X24280Y-66252D01*
X24318Y-66176D01*
X24395Y-66137D01*
X24547Y-66137D01*
X24623Y-66176D01*
X24661Y-66252D01*
X24661Y-66328D01*
X24280Y-66404D01*
X24966Y-66633D02*
X25043Y-66671D01*
X25195Y-66671D01*
X25271Y-66633D01*
X25309Y-66557D01*
X25309Y-66518D01*
X25271Y-66442D01*
X25195Y-66404D01*
X25081Y-66404D01*
X25004Y-66366D01*
X24966Y-66290D01*
X24966Y-66252D01*
X25004Y-66176D01*
X25081Y-66137D01*
X25195Y-66137D01*
X25271Y-66176D01*
X25576Y-66976D02*
X25614Y-66937D01*
X25691Y-66823D01*
X25729Y-66747D01*
X25767Y-66633D01*
X25805Y-66442D01*
X25805Y-66290D01*
X25767Y-66099D01*
X25729Y-65985D01*
X25691Y-65909D01*
X25614Y-65795D01*
X25576Y-65757D01*
X08473Y-67228D02*
X08473Y-67578D01*
X08648Y-67403D02*
X08298Y-67403D01*
X09191Y-66927D02*
X09267Y-66927D01*
X09343Y-66965D01*
X09381Y-67003D01*
X09419Y-67079D01*
X09458Y-67232D01*
X09458Y-67422D01*
X09419Y-67574D01*
X09381Y-67651D01*
X09343Y-67689D01*
X09267Y-67727D01*
X09191Y-67727D01*
X09115Y-67689D01*
X09077Y-67651D01*
X09038Y-67574D01*
X09000Y-67422D01*
X09000Y-67232D01*
X09038Y-67079D01*
X09077Y-67003D01*
X09115Y-66965D01*
X09191Y-66927D01*
X09800Y-67651D02*
X09839Y-67689D01*
X09800Y-67727D01*
X09762Y-67689D01*
X09800Y-67651D01*
X09800Y-67727D01*
X10334Y-66927D02*
X10410Y-66927D01*
X10486Y-66965D01*
X10524Y-67003D01*
X10562Y-67079D01*
X10601Y-67232D01*
X10601Y-67422D01*
X10562Y-67574D01*
X10524Y-67651D01*
X10486Y-67689D01*
X10410Y-67727D01*
X10334Y-67727D01*
X10258Y-67689D01*
X10220Y-67651D01*
X10181Y-67574D01*
X10143Y-67422D01*
X10143Y-67232D01*
X10181Y-67079D01*
X10220Y-67003D01*
X10258Y-66965D01*
X10334Y-66927D01*
X10867Y-66927D02*
X11363Y-66927D01*
X11096Y-67232D01*
X11210Y-67232D01*
X11286Y-67270D01*
X11324Y-67308D01*
X11363Y-67384D01*
X11363Y-67574D01*
X11324Y-67651D01*
X11286Y-67689D01*
X11210Y-67727D01*
X10982Y-67727D01*
X10905Y-67689D01*
X10867Y-67651D01*
X12086Y-66927D02*
X11705Y-66927D01*
X11667Y-67308D01*
X11705Y-67270D01*
X11782Y-67232D01*
X11972Y-67232D01*
X12048Y-67270D01*
X12086Y-67308D01*
X12125Y-67384D01*
X12125Y-67574D01*
X12086Y-67651D01*
X12048Y-67689D01*
X11972Y-67727D01*
X11782Y-67727D01*
X11705Y-67689D01*
X11667Y-67651D01*
X12429Y-66927D02*
X12429Y-67079D01*
X12734Y-66927D02*
X12734Y-67079D01*
X14259Y-66889D02*
X13573Y-67917D01*
X15288Y-66927D02*
X15364Y-66927D01*
X15440Y-66965D01*
X15478Y-67003D01*
X15516Y-67079D01*
X15555Y-67232D01*
X15555Y-67422D01*
X15516Y-67574D01*
X15478Y-67651D01*
X15440Y-67689D01*
X15364Y-67727D01*
X15288Y-67727D01*
X15212Y-67689D01*
X15174Y-67651D01*
X15135Y-67574D01*
X15097Y-67422D01*
X15097Y-67232D01*
X15135Y-67079D01*
X15174Y-67003D01*
X15212Y-66965D01*
X15288Y-66927D01*
X15897Y-67651D02*
X15936Y-67689D01*
X15897Y-67727D01*
X15859Y-67689D01*
X15897Y-67651D01*
X15897Y-67727D01*
X16393Y-67270D02*
X16317Y-67232D01*
X16278Y-67193D01*
X16240Y-67117D01*
X16240Y-67079D01*
X16278Y-67003D01*
X16317Y-66965D01*
X16393Y-66927D01*
X16545Y-66927D01*
X16621Y-66965D01*
X16659Y-67003D01*
X16698Y-67079D01*
X16698Y-67117D01*
X16659Y-67193D01*
X16621Y-67232D01*
X16545Y-67270D01*
X16393Y-67270D01*
X16317Y-67308D01*
X16278Y-67346D01*
X16240Y-67422D01*
X16240Y-67574D01*
X16278Y-67651D01*
X16317Y-67689D01*
X16393Y-67727D01*
X16545Y-67727D01*
X16621Y-67689D01*
X16659Y-67651D01*
X16698Y-67574D01*
X16698Y-67422D01*
X16659Y-67346D01*
X16621Y-67308D01*
X16545Y-67270D01*
X17079Y-67727D02*
X17231Y-67727D01*
X17307Y-67689D01*
X17345Y-67651D01*
X17421Y-67536D01*
X17460Y-67384D01*
X17460Y-67079D01*
X17421Y-67003D01*
X17383Y-66965D01*
X17307Y-66927D01*
X17155Y-66927D01*
X17079Y-66965D01*
X17040Y-67003D01*
X17002Y-67079D01*
X17002Y-67270D01*
X17040Y-67346D01*
X17079Y-67384D01*
X17155Y-67422D01*
X17307Y-67422D01*
X17383Y-67384D01*
X17421Y-67346D01*
X17460Y-67270D01*
X17802Y-67727D02*
X17802Y-67193D01*
X17802Y-67270D02*
X17841Y-67232D01*
X17917Y-67193D01*
X18031Y-67193D01*
X18107Y-67232D01*
X18145Y-67308D01*
X18145Y-67727D01*
X18145Y-67308D02*
X18183Y-67232D01*
X18260Y-67193D01*
X18374Y-67193D01*
X18450Y-67232D01*
X18488Y-67308D01*
X18488Y-67727D01*
X18869Y-67727D02*
X18869Y-67193D01*
X18869Y-67270D02*
X18908Y-67232D01*
X18984Y-67193D01*
X19098Y-67193D01*
X19174Y-67232D01*
X19212Y-67308D01*
X19212Y-67727D01*
X19212Y-67308D02*
X19250Y-67232D01*
X19327Y-67193D01*
X19441Y-67193D01*
X19517Y-67232D01*
X19555Y-67308D01*
X19555Y-67727D01*
X20775Y-68032D02*
X20737Y-67993D01*
X20661Y-67879D01*
X20623Y-67803D01*
X20585Y-67689D01*
X20546Y-67498D01*
X20546Y-67346D01*
X20585Y-67155D01*
X20623Y-67041D01*
X20661Y-66965D01*
X20737Y-66851D01*
X20775Y-66813D01*
X21041Y-67003D02*
X21079Y-66965D01*
X21156Y-66927D01*
X21346Y-66927D01*
X21422Y-66965D01*
X21460Y-67003D01*
X21499Y-67079D01*
X21499Y-67155D01*
X21460Y-67270D01*
X21003Y-67727D01*
X21499Y-67727D01*
X21956Y-67270D02*
X21880Y-67232D01*
X21841Y-67193D01*
X21803Y-67117D01*
X21803Y-67079D01*
X21841Y-67003D01*
X21880Y-66965D01*
X21956Y-66927D01*
X22108Y-66927D01*
X22184Y-66965D01*
X22222Y-67003D01*
X22261Y-67079D01*
X22261Y-67117D01*
X22222Y-67193D01*
X22184Y-67232D01*
X22108Y-67270D01*
X21956Y-67270D01*
X21880Y-67308D01*
X21841Y-67346D01*
X21803Y-67422D01*
X21803Y-67574D01*
X21841Y-67651D01*
X21880Y-67689D01*
X21956Y-67727D01*
X22108Y-67727D01*
X22184Y-67689D01*
X22222Y-67651D01*
X22261Y-67574D01*
X22261Y-67422D01*
X22222Y-67346D01*
X22184Y-67308D01*
X22108Y-67270D01*
X23213Y-67727D02*
X23213Y-66927D01*
X23556Y-67727D02*
X23556Y-67308D01*
X23518Y-67232D01*
X23442Y-67193D01*
X23328Y-67193D01*
X23252Y-67232D01*
X23213Y-67270D01*
X24052Y-67727D02*
X23976Y-67689D01*
X23937Y-67651D01*
X23899Y-67574D01*
X23899Y-67346D01*
X23937Y-67270D01*
X23976Y-67232D01*
X24052Y-67193D01*
X24166Y-67193D01*
X24242Y-67232D01*
X24280Y-67270D01*
X24318Y-67346D01*
X24318Y-67574D01*
X24280Y-67651D01*
X24242Y-67689D01*
X24166Y-67727D01*
X24052Y-67727D01*
X24776Y-67727D02*
X24700Y-67689D01*
X24661Y-67613D01*
X24661Y-66927D01*
X25385Y-67689D02*
X25309Y-67727D01*
X25157Y-67727D01*
X25080Y-67689D01*
X25042Y-67613D01*
X25042Y-67308D01*
X25080Y-67232D01*
X25157Y-67193D01*
X25309Y-67193D01*
X25385Y-67232D01*
X25423Y-67308D01*
X25423Y-67384D01*
X25042Y-67460D01*
X25728Y-67689D02*
X25805Y-67727D01*
X25957Y-67727D01*
X26033Y-67689D01*
X26071Y-67613D01*
X26071Y-67574D01*
X26033Y-67498D01*
X25957Y-67460D01*
X25843Y-67460D01*
X25766Y-67422D01*
X25728Y-67346D01*
X25728Y-67308D01*
X25766Y-67232D01*
X25843Y-67193D01*
X25957Y-67193D01*
X26033Y-67232D01*
X26338Y-68032D02*
X26376Y-67993D01*
X26453Y-67879D01*
X26491Y-67803D01*
X26529Y-67689D01*
X26567Y-67498D01*
X26567Y-67346D01*
X26529Y-67155D01*
X26491Y-67041D01*
X26453Y-66965D01*
X26376Y-66851D01*
X26338Y-66813D01*
G54D10*
X08648Y-68459D02*
X08644Y-68497D01*
X08632Y-68535D01*
X08614Y-68569D01*
X08589Y-68599D01*
X08559Y-68624D01*
X08525Y-68643D01*
X08488Y-68654D01*
X08449Y-68658D01*
X08411Y-68655D01*
X08374Y-68644D01*
X08339Y-68626D01*
X08309Y-68601D01*
X08283Y-68571D01*
X08265Y-68537D01*
X08253Y-68500D01*
X08249Y-68461D01*
X08252Y-68423D01*
X08263Y-68386D01*
X08280Y-68351D01*
X08305Y-68321D01*
X08334Y-68295D01*
X08368Y-68276D01*
X08406Y-68264D01*
X08444Y-68260D01*
X08482Y-68263D01*
X08520Y-68273D01*
X08555Y-68291D01*
X08585Y-68315D01*
X08611Y-68344D01*
X08630Y-68378D01*
X08643Y-68415D01*
X08647Y-68454D01*
X08648Y-68459D01*
X08248Y-68259D02*
X08648Y-68659D01*
X08648Y-68259D02*
X08248Y-68659D01*
G54D12*
X09191Y-67983D02*
X09267Y-67983D01*
X09343Y-68021D01*
X09381Y-68059D01*
X09419Y-68135D01*
X09458Y-68288D01*
X09458Y-68478D01*
X09419Y-68630D01*
X09381Y-68707D01*
X09343Y-68745D01*
X09267Y-68783D01*
X09191Y-68783D01*
X09115Y-68745D01*
X09077Y-68707D01*
X09038Y-68630D01*
X09000Y-68478D01*
X09000Y-68288D01*
X09038Y-68135D01*
X09077Y-68059D01*
X09115Y-68021D01*
X09191Y-67983D01*
X09800Y-68707D02*
X09839Y-68745D01*
X09800Y-68783D01*
X09762Y-68745D01*
X09800Y-68707D01*
X09800Y-68783D01*
X10334Y-67983D02*
X10410Y-67983D01*
X10486Y-68021D01*
X10524Y-68059D01*
X10562Y-68135D01*
X10601Y-68288D01*
X10601Y-68478D01*
X10562Y-68630D01*
X10524Y-68707D01*
X10486Y-68745D01*
X10410Y-68783D01*
X10334Y-68783D01*
X10258Y-68745D01*
X10220Y-68707D01*
X10181Y-68630D01*
X10143Y-68478D01*
X10143Y-68288D01*
X10181Y-68135D01*
X10220Y-68059D01*
X10258Y-68021D01*
X10334Y-67983D01*
X11286Y-68249D02*
X11286Y-68783D01*
X11096Y-67945D02*
X10905Y-68516D01*
X11401Y-68516D01*
X11858Y-67983D02*
X11934Y-67983D01*
X12010Y-68021D01*
X12048Y-68059D01*
X12086Y-68135D01*
X12125Y-68288D01*
X12125Y-68478D01*
X12086Y-68630D01*
X12048Y-68707D01*
X12010Y-68745D01*
X11934Y-68783D01*
X11858Y-68783D01*
X11782Y-68745D01*
X11744Y-68707D01*
X11705Y-68630D01*
X11667Y-68478D01*
X11667Y-68288D01*
X11705Y-68135D01*
X11744Y-68059D01*
X11782Y-68021D01*
X11858Y-67983D01*
X12429Y-67983D02*
X12429Y-68135D01*
X12734Y-67983D02*
X12734Y-68135D01*
X14259Y-67945D02*
X13573Y-68973D01*
X15555Y-68783D02*
X15097Y-68783D01*
X15326Y-68783D02*
X15326Y-67983D01*
X15250Y-68097D01*
X15174Y-68173D01*
X15097Y-68211D01*
X15897Y-68707D02*
X15936Y-68745D01*
X15897Y-68783D01*
X15859Y-68745D01*
X15897Y-68707D01*
X15897Y-68783D01*
X16431Y-67983D02*
X16507Y-67983D01*
X16583Y-68021D01*
X16621Y-68059D01*
X16659Y-68135D01*
X16698Y-68288D01*
X16698Y-68478D01*
X16659Y-68630D01*
X16621Y-68707D01*
X16583Y-68745D01*
X16507Y-68783D01*
X16431Y-68783D01*
X16355Y-68745D01*
X16317Y-68707D01*
X16278Y-68630D01*
X16240Y-68478D01*
X16240Y-68288D01*
X16278Y-68135D01*
X16317Y-68059D01*
X16355Y-68021D01*
X16431Y-67983D01*
X17002Y-68059D02*
X17040Y-68021D01*
X17117Y-67983D01*
X17307Y-67983D01*
X17383Y-68021D01*
X17421Y-68059D01*
X17460Y-68135D01*
X17460Y-68211D01*
X17421Y-68326D01*
X16964Y-68783D01*
X17460Y-68783D01*
X17802Y-68783D02*
X17802Y-68249D01*
X17802Y-68326D02*
X17841Y-68288D01*
X17917Y-68249D01*
X18031Y-68249D01*
X18107Y-68288D01*
X18145Y-68364D01*
X18145Y-68783D01*
X18145Y-68364D02*
X18183Y-68288D01*
X18260Y-68249D01*
X18374Y-68249D01*
X18450Y-68288D01*
X18488Y-68364D01*
X18488Y-68783D01*
X18869Y-68783D02*
X18869Y-68249D01*
X18869Y-68326D02*
X18908Y-68288D01*
X18984Y-68249D01*
X19098Y-68249D01*
X19174Y-68288D01*
X19212Y-68364D01*
X19212Y-68783D01*
X19212Y-68364D02*
X19250Y-68288D01*
X19327Y-68249D01*
X19441Y-68249D01*
X19517Y-68288D01*
X19555Y-68364D01*
X19555Y-68783D01*
X20775Y-69088D02*
X20737Y-69049D01*
X20661Y-68935D01*
X20623Y-68859D01*
X20585Y-68745D01*
X20546Y-68554D01*
X20546Y-68402D01*
X20585Y-68211D01*
X20623Y-68097D01*
X20661Y-68021D01*
X20737Y-67907D01*
X20775Y-67869D01*
X21460Y-67983D02*
X21079Y-67983D01*
X21041Y-68364D01*
X21079Y-68326D01*
X21156Y-68288D01*
X21346Y-68288D01*
X21422Y-68326D01*
X21460Y-68364D01*
X21499Y-68440D01*
X21499Y-68630D01*
X21460Y-68707D01*
X21422Y-68745D01*
X21346Y-68783D01*
X21156Y-68783D01*
X21079Y-68745D01*
X21041Y-68707D01*
X21765Y-67983D02*
X22299Y-67983D01*
X21956Y-68783D01*
X23213Y-68783D02*
X23213Y-67983D01*
X23556Y-68783D02*
X23556Y-68364D01*
X23518Y-68288D01*
X23442Y-68249D01*
X23328Y-68249D01*
X23252Y-68288D01*
X23213Y-68326D01*
X24052Y-68783D02*
X23976Y-68745D01*
X23937Y-68707D01*
X23899Y-68630D01*
X23899Y-68402D01*
X23937Y-68326D01*
X23976Y-68288D01*
X24052Y-68249D01*
X24166Y-68249D01*
X24242Y-68288D01*
X24280Y-68326D01*
X24318Y-68402D01*
X24318Y-68630D01*
X24280Y-68707D01*
X24242Y-68745D01*
X24166Y-68783D01*
X24052Y-68783D01*
X24776Y-68783D02*
X24700Y-68745D01*
X24661Y-68669D01*
X24661Y-67983D01*
X25385Y-68745D02*
X25309Y-68783D01*
X25157Y-68783D01*
X25080Y-68745D01*
X25042Y-68669D01*
X25042Y-68364D01*
X25080Y-68288D01*
X25157Y-68249D01*
X25309Y-68249D01*
X25385Y-68288D01*
X25423Y-68364D01*
X25423Y-68440D01*
X25042Y-68516D01*
X25728Y-68745D02*
X25805Y-68783D01*
X25957Y-68783D01*
X26033Y-68745D01*
X26071Y-68669D01*
X26071Y-68630D01*
X26033Y-68554D01*
X25957Y-68516D01*
X25843Y-68516D01*
X25766Y-68478D01*
X25728Y-68402D01*
X25728Y-68364D01*
X25766Y-68288D01*
X25843Y-68249D01*
X25957Y-68249D01*
X26033Y-68288D01*
X26338Y-69088D02*
X26376Y-69049D01*
X26453Y-68935D01*
X26491Y-68859D01*
X26529Y-68745D01*
X26567Y-68554D01*
X26567Y-68402D01*
X26529Y-68211D01*
X26491Y-68097D01*
X26453Y-68021D01*
X26376Y-67907D01*
X26338Y-67869D01*
G54D10*
X08648Y-69515D02*
X08643Y-69563D01*
X08629Y-69610D01*
X08606Y-69653D01*
X08575Y-69691D01*
X08537Y-69722D01*
X08494Y-69745D01*
X08448Y-69759D01*
X08399Y-69764D01*
X08352Y-69760D01*
X08305Y-69746D01*
X08262Y-69724D01*
X08224Y-69693D01*
X08192Y-69656D01*
X08169Y-69613D01*
X08154Y-69566D01*
X08149Y-69518D01*
X08153Y-69470D01*
X08166Y-69423D01*
X08188Y-69380D01*
X08219Y-69342D01*
X08256Y-69310D01*
X08298Y-69286D01*
X08345Y-69271D01*
X08393Y-69266D01*
X08441Y-69269D01*
X08488Y-69282D01*
X08531Y-69304D01*
X08570Y-69334D01*
X08602Y-69371D01*
X08626Y-69414D01*
X08641Y-69460D01*
X08647Y-69509D01*
X08648Y-69515D01*
X08148Y-69515D02*
X08648Y-69515D01*
G54D12*
X09191Y-69039D02*
X09267Y-69039D01*
X09343Y-69077D01*
X09381Y-69115D01*
X09419Y-69191D01*
X09458Y-69344D01*
X09458Y-69534D01*
X09419Y-69686D01*
X09381Y-69763D01*
X09343Y-69801D01*
X09267Y-69839D01*
X09191Y-69839D01*
X09115Y-69801D01*
X09077Y-69763D01*
X09038Y-69686D01*
X09000Y-69534D01*
X09000Y-69344D01*
X09038Y-69191D01*
X09077Y-69115D01*
X09115Y-69077D01*
X09191Y-69039D01*
X09800Y-69763D02*
X09839Y-69801D01*
X09800Y-69839D01*
X09762Y-69801D01*
X09800Y-69763D01*
X09800Y-69839D01*
X10334Y-69039D02*
X10410Y-69039D01*
X10486Y-69077D01*
X10524Y-69115D01*
X10562Y-69191D01*
X10601Y-69344D01*
X10601Y-69534D01*
X10562Y-69686D01*
X10524Y-69763D01*
X10486Y-69801D01*
X10410Y-69839D01*
X10334Y-69839D01*
X10258Y-69801D01*
X10220Y-69763D01*
X10181Y-69686D01*
X10143Y-69534D01*
X10143Y-69344D01*
X10181Y-69191D01*
X10220Y-69115D01*
X10258Y-69077D01*
X10334Y-69039D01*
X11324Y-69039D02*
X10943Y-69039D01*
X10905Y-69420D01*
X10943Y-69382D01*
X11020Y-69344D01*
X11210Y-69344D01*
X11286Y-69382D01*
X11324Y-69420D01*
X11363Y-69496D01*
X11363Y-69686D01*
X11324Y-69763D01*
X11286Y-69801D01*
X11210Y-69839D01*
X11020Y-69839D01*
X10943Y-69801D01*
X10905Y-69763D01*
X11858Y-69039D02*
X11934Y-69039D01*
X12010Y-69077D01*
X12048Y-69115D01*
X12086Y-69191D01*
X12125Y-69344D01*
X12125Y-69534D01*
X12086Y-69686D01*
X12048Y-69763D01*
X12010Y-69801D01*
X11934Y-69839D01*
X11858Y-69839D01*
X11782Y-69801D01*
X11744Y-69763D01*
X11705Y-69686D01*
X11667Y-69534D01*
X11667Y-69344D01*
X11705Y-69191D01*
X11744Y-69115D01*
X11782Y-69077D01*
X11858Y-69039D01*
X12429Y-69039D02*
X12429Y-69191D01*
X12734Y-69039D02*
X12734Y-69191D01*
X14259Y-69001D02*
X13573Y-70029D01*
X15555Y-69839D02*
X15097Y-69839D01*
X15326Y-69839D02*
X15326Y-69039D01*
X15250Y-69153D01*
X15174Y-69229D01*
X15097Y-69267D01*
X15897Y-69763D02*
X15936Y-69801D01*
X15897Y-69839D01*
X15859Y-69801D01*
X15897Y-69763D01*
X15897Y-69839D01*
X16240Y-69115D02*
X16278Y-69077D01*
X16355Y-69039D01*
X16545Y-69039D01*
X16621Y-69077D01*
X16659Y-69115D01*
X16698Y-69191D01*
X16698Y-69267D01*
X16659Y-69382D01*
X16202Y-69839D01*
X16698Y-69839D01*
X16964Y-69039D02*
X17498Y-69039D01*
X17155Y-69839D01*
X17802Y-69839D02*
X17802Y-69305D01*
X17802Y-69382D02*
X17841Y-69344D01*
X17917Y-69305D01*
X18031Y-69305D01*
X18107Y-69344D01*
X18145Y-69420D01*
X18145Y-69839D01*
X18145Y-69420D02*
X18183Y-69344D01*
X18260Y-69305D01*
X18374Y-69305D01*
X18450Y-69344D01*
X18488Y-69420D01*
X18488Y-69839D01*
X18869Y-69839D02*
X18869Y-69305D01*
X18869Y-69382D02*
X18908Y-69344D01*
X18984Y-69305D01*
X19098Y-69305D01*
X19174Y-69344D01*
X19212Y-69420D01*
X19212Y-69839D01*
X19212Y-69420D02*
X19250Y-69344D01*
X19327Y-69305D01*
X19441Y-69305D01*
X19517Y-69344D01*
X19555Y-69420D01*
X19555Y-69839D01*
X20775Y-70144D02*
X20737Y-70105D01*
X20661Y-69991D01*
X20623Y-69915D01*
X20585Y-69801D01*
X20546Y-69610D01*
X20546Y-69458D01*
X20585Y-69267D01*
X20623Y-69153D01*
X20661Y-69077D01*
X20737Y-68963D01*
X20775Y-68925D01*
X21422Y-69305D02*
X21422Y-69839D01*
X21232Y-69001D02*
X21041Y-69572D01*
X21537Y-69572D01*
X22451Y-69839D02*
X22451Y-69039D01*
X22794Y-69839D02*
X22794Y-69420D01*
X22756Y-69344D01*
X22680Y-69305D01*
X22566Y-69305D01*
X22490Y-69344D01*
X22451Y-69382D01*
X23290Y-69839D02*
X23214Y-69801D01*
X23175Y-69763D01*
X23137Y-69686D01*
X23137Y-69458D01*
X23175Y-69382D01*
X23214Y-69344D01*
X23290Y-69305D01*
X23404Y-69305D01*
X23480Y-69344D01*
X23518Y-69382D01*
X23556Y-69458D01*
X23556Y-69686D01*
X23518Y-69763D01*
X23480Y-69801D01*
X23404Y-69839D01*
X23290Y-69839D01*
X24014Y-69839D02*
X23938Y-69801D01*
X23899Y-69725D01*
X23899Y-69039D01*
X24623Y-69801D02*
X24547Y-69839D01*
X24395Y-69839D01*
X24318Y-69801D01*
X24280Y-69725D01*
X24280Y-69420D01*
X24318Y-69344D01*
X24395Y-69305D01*
X24547Y-69305D01*
X24623Y-69344D01*
X24661Y-69420D01*
X24661Y-69496D01*
X24280Y-69572D01*
X24966Y-69801D02*
X25043Y-69839D01*
X25195Y-69839D01*
X25271Y-69801D01*
X25309Y-69725D01*
X25309Y-69686D01*
X25271Y-69610D01*
X25195Y-69572D01*
X25081Y-69572D01*
X25004Y-69534D01*
X24966Y-69458D01*
X24966Y-69420D01*
X25004Y-69344D01*
X25081Y-69305D01*
X25195Y-69305D01*
X25271Y-69344D01*
X25576Y-70144D02*
X25614Y-70105D01*
X25691Y-69991D01*
X25729Y-69915D01*
X25767Y-69801D01*
X25805Y-69610D01*
X25805Y-69458D01*
X25767Y-69267D01*
X25729Y-69153D01*
X25691Y-69077D01*
X25614Y-68963D01*
X25576Y-68925D01*
G54D10*
X08648Y-70571D02*
X08642Y-70629D01*
X08625Y-70685D01*
X08597Y-70737D01*
X08560Y-70782D01*
X08515Y-70819D01*
X08464Y-70847D01*
X08408Y-70864D01*
X08350Y-70870D01*
X08292Y-70865D01*
X08236Y-70849D01*
X08184Y-70822D01*
X08139Y-70785D01*
X08101Y-70740D01*
X08073Y-70689D01*
X08055Y-70633D01*
X08049Y-70575D01*
X08053Y-70517D01*
X08070Y-70461D01*
X08096Y-70409D01*
X08133Y-70363D01*
X08177Y-70325D01*
X08228Y-70297D01*
X08284Y-70278D01*
X08342Y-70272D01*
X08400Y-70276D01*
X08456Y-70292D01*
X08508Y-70318D01*
X08554Y-70354D01*
X08593Y-70399D01*
X08622Y-70449D01*
X08640Y-70505D01*
X08647Y-70563D01*
X08648Y-70571D01*
X08348Y-70271D02*
X08348Y-70871D01*
G54D12*
X09191Y-70095D02*
X09267Y-70095D01*
X09343Y-70133D01*
X09381Y-70171D01*
X09419Y-70247D01*
X09458Y-70400D01*
X09458Y-70590D01*
X09419Y-70742D01*
X09381Y-70819D01*
X09343Y-70857D01*
X09267Y-70895D01*
X09191Y-70895D01*
X09115Y-70857D01*
X09077Y-70819D01*
X09038Y-70742D01*
X09000Y-70590D01*
X09000Y-70400D01*
X09038Y-70247D01*
X09077Y-70171D01*
X09115Y-70133D01*
X09191Y-70095D01*
X09800Y-70819D02*
X09839Y-70857D01*
X09800Y-70895D01*
X09762Y-70857D01*
X09800Y-70819D01*
X09800Y-70895D01*
X10334Y-70095D02*
X10410Y-70095D01*
X10486Y-70133D01*
X10524Y-70171D01*
X10562Y-70247D01*
X10601Y-70400D01*
X10601Y-70590D01*
X10562Y-70742D01*
X10524Y-70819D01*
X10486Y-70857D01*
X10410Y-70895D01*
X10334Y-70895D01*
X10258Y-70857D01*
X10220Y-70819D01*
X10181Y-70742D01*
X10143Y-70590D01*
X10143Y-70400D01*
X10181Y-70247D01*
X10220Y-70171D01*
X10258Y-70133D01*
X10334Y-70095D01*
X11286Y-70095D02*
X11134Y-70095D01*
X11058Y-70133D01*
X11020Y-70171D01*
X10943Y-70285D01*
X10905Y-70438D01*
X10905Y-70742D01*
X10943Y-70819D01*
X10982Y-70857D01*
X11058Y-70895D01*
X11210Y-70895D01*
X11286Y-70857D01*
X11324Y-70819D01*
X11363Y-70742D01*
X11363Y-70552D01*
X11324Y-70476D01*
X11286Y-70438D01*
X11210Y-70400D01*
X11058Y-70400D01*
X10982Y-70438D01*
X10943Y-70476D01*
X10905Y-70552D01*
X11858Y-70095D02*
X11934Y-70095D01*
X12010Y-70133D01*
X12048Y-70171D01*
X12086Y-70247D01*
X12125Y-70400D01*
X12125Y-70590D01*
X12086Y-70742D01*
X12048Y-70819D01*
X12010Y-70857D01*
X11934Y-70895D01*
X11858Y-70895D01*
X11782Y-70857D01*
X11744Y-70819D01*
X11705Y-70742D01*
X11667Y-70590D01*
X11667Y-70400D01*
X11705Y-70247D01*
X11744Y-70171D01*
X11782Y-70133D01*
X11858Y-70095D01*
X12429Y-70095D02*
X12429Y-70247D01*
X12734Y-70095D02*
X12734Y-70247D01*
X14259Y-70057D02*
X13573Y-71085D01*
X15555Y-70895D02*
X15097Y-70895D01*
X15326Y-70895D02*
X15326Y-70095D01*
X15250Y-70209D01*
X15174Y-70285D01*
X15097Y-70323D01*
X15897Y-70819D02*
X15936Y-70857D01*
X15897Y-70895D01*
X15859Y-70857D01*
X15897Y-70819D01*
X15897Y-70895D01*
X16659Y-70095D02*
X16278Y-70095D01*
X16240Y-70476D01*
X16278Y-70438D01*
X16355Y-70400D01*
X16545Y-70400D01*
X16621Y-70438D01*
X16659Y-70476D01*
X16698Y-70552D01*
X16698Y-70742D01*
X16659Y-70819D01*
X16621Y-70857D01*
X16545Y-70895D01*
X16355Y-70895D01*
X16278Y-70857D01*
X16240Y-70819D01*
X17002Y-70171D02*
X17040Y-70133D01*
X17117Y-70095D01*
X17307Y-70095D01*
X17383Y-70133D01*
X17421Y-70171D01*
X17460Y-70247D01*
X17460Y-70323D01*
X17421Y-70438D01*
X16964Y-70895D01*
X17460Y-70895D01*
X17802Y-70895D02*
X17802Y-70361D01*
X17802Y-70438D02*
X17841Y-70400D01*
X17917Y-70361D01*
X18031Y-70361D01*
X18107Y-70400D01*
X18145Y-70476D01*
X18145Y-70895D01*
X18145Y-70476D02*
X18183Y-70400D01*
X18260Y-70361D01*
X18374Y-70361D01*
X18450Y-70400D01*
X18488Y-70476D01*
X18488Y-70895D01*
X18869Y-70895D02*
X18869Y-70361D01*
X18869Y-70438D02*
X18908Y-70400D01*
X18984Y-70361D01*
X19098Y-70361D01*
X19174Y-70400D01*
X19212Y-70476D01*
X19212Y-70895D01*
X19212Y-70476D02*
X19250Y-70400D01*
X19327Y-70361D01*
X19441Y-70361D01*
X19517Y-70400D01*
X19555Y-70476D01*
X19555Y-70895D01*
X20775Y-71200D02*
X20737Y-71161D01*
X20661Y-71047D01*
X20623Y-70971D01*
X20585Y-70857D01*
X20546Y-70666D01*
X20546Y-70514D01*
X20585Y-70323D01*
X20623Y-70209D01*
X20661Y-70133D01*
X20737Y-70019D01*
X20775Y-69981D01*
X21041Y-70171D02*
X21079Y-70133D01*
X21156Y-70095D01*
X21346Y-70095D01*
X21422Y-70133D01*
X21460Y-70171D01*
X21499Y-70247D01*
X21499Y-70323D01*
X21460Y-70438D01*
X21003Y-70895D01*
X21499Y-70895D01*
X22451Y-70895D02*
X22451Y-70095D01*
X22794Y-70895D02*
X22794Y-70476D01*
X22756Y-70400D01*
X22680Y-70361D01*
X22566Y-70361D01*
X22490Y-70400D01*
X22451Y-70438D01*
X23290Y-70895D02*
X23214Y-70857D01*
X23175Y-70819D01*
X23137Y-70742D01*
X23137Y-70514D01*
X23175Y-70438D01*
X23214Y-70400D01*
X23290Y-70361D01*
X23404Y-70361D01*
X23480Y-70400D01*
X23518Y-70438D01*
X23556Y-70514D01*
X23556Y-70742D01*
X23518Y-70819D01*
X23480Y-70857D01*
X23404Y-70895D01*
X23290Y-70895D01*
X24014Y-70895D02*
X23938Y-70857D01*
X23899Y-70781D01*
X23899Y-70095D01*
X24623Y-70857D02*
X24547Y-70895D01*
X24395Y-70895D01*
X24318Y-70857D01*
X24280Y-70781D01*
X24280Y-70476D01*
X24318Y-70400D01*
X24395Y-70361D01*
X24547Y-70361D01*
X24623Y-70400D01*
X24661Y-70476D01*
X24661Y-70552D01*
X24280Y-70628D01*
X24966Y-70857D02*
X25043Y-70895D01*
X25195Y-70895D01*
X25271Y-70857D01*
X25309Y-70781D01*
X25309Y-70742D01*
X25271Y-70666D01*
X25195Y-70628D01*
X25081Y-70628D01*
X25004Y-70590D01*
X24966Y-70514D01*
X24966Y-70476D01*
X25004Y-70400D01*
X25081Y-70361D01*
X25195Y-70361D01*
X25271Y-70400D01*
X25576Y-71200D02*
X25614Y-71161D01*
X25691Y-71047D01*
X25729Y-70971D01*
X25767Y-70857D01*
X25805Y-70666D01*
X25805Y-70514D01*
X25767Y-70323D01*
X25729Y-70209D01*
X25691Y-70133D01*
X25614Y-70019D01*
X25576Y-69981D01*
G54D10*
X08472Y-72051D02*
X08472Y-71203D01*
X07624Y-71203D01*
X07624Y-72051D01*
X08472Y-72051D01*
G54D12*
X09191Y-71151D02*
X09267Y-71151D01*
X09343Y-71189D01*
X09381Y-71227D01*
X09419Y-71303D01*
X09458Y-71456D01*
X09458Y-71646D01*
X09419Y-71798D01*
X09381Y-71875D01*
X09343Y-71913D01*
X09267Y-71951D01*
X09191Y-71951D01*
X09115Y-71913D01*
X09077Y-71875D01*
X09038Y-71798D01*
X09000Y-71646D01*
X09000Y-71456D01*
X09038Y-71303D01*
X09077Y-71227D01*
X09115Y-71189D01*
X09191Y-71151D01*
X09800Y-71875D02*
X09839Y-71913D01*
X09800Y-71951D01*
X09762Y-71913D01*
X09800Y-71875D01*
X09800Y-71951D01*
X10601Y-71951D02*
X10143Y-71951D01*
X10372Y-71951D02*
X10372Y-71151D01*
X10296Y-71265D01*
X10220Y-71341D01*
X10143Y-71379D01*
X10905Y-71227D02*
X10943Y-71189D01*
X11020Y-71151D01*
X11210Y-71151D01*
X11286Y-71189D01*
X11324Y-71227D01*
X11363Y-71303D01*
X11363Y-71379D01*
X11324Y-71494D01*
X10867Y-71951D01*
X11363Y-71951D01*
X11858Y-71151D02*
X11934Y-71151D01*
X12010Y-71189D01*
X12048Y-71227D01*
X12086Y-71303D01*
X12125Y-71456D01*
X12125Y-71646D01*
X12086Y-71798D01*
X12048Y-71875D01*
X12010Y-71913D01*
X11934Y-71951D01*
X11858Y-71951D01*
X11782Y-71913D01*
X11744Y-71875D01*
X11705Y-71798D01*
X11667Y-71646D01*
X11667Y-71456D01*
X11705Y-71303D01*
X11744Y-71227D01*
X11782Y-71189D01*
X11858Y-71151D01*
X12429Y-71151D02*
X12429Y-71303D01*
X12734Y-71151D02*
X12734Y-71303D01*
X14259Y-71113D02*
X13573Y-72141D01*
X15059Y-71151D02*
X15555Y-71151D01*
X15288Y-71456D01*
X15402Y-71456D01*
X15478Y-71494D01*
X15516Y-71532D01*
X15555Y-71608D01*
X15555Y-71798D01*
X15516Y-71875D01*
X15478Y-71913D01*
X15402Y-71951D01*
X15174Y-71951D01*
X15097Y-71913D01*
X15059Y-71875D01*
X15897Y-71875D02*
X15936Y-71913D01*
X15897Y-71951D01*
X15859Y-71913D01*
X15897Y-71875D01*
X15897Y-71951D01*
X16431Y-71151D02*
X16507Y-71151D01*
X16583Y-71189D01*
X16621Y-71227D01*
X16659Y-71303D01*
X16698Y-71456D01*
X16698Y-71646D01*
X16659Y-71798D01*
X16621Y-71875D01*
X16583Y-71913D01*
X16507Y-71951D01*
X16431Y-71951D01*
X16355Y-71913D01*
X16317Y-71875D01*
X16278Y-71798D01*
X16240Y-71646D01*
X16240Y-71456D01*
X16278Y-71303D01*
X16317Y-71227D01*
X16355Y-71189D01*
X16431Y-71151D01*
X17421Y-71151D02*
X17040Y-71151D01*
X17002Y-71532D01*
X17040Y-71494D01*
X17117Y-71456D01*
X17307Y-71456D01*
X17383Y-71494D01*
X17421Y-71532D01*
X17460Y-71608D01*
X17460Y-71798D01*
X17421Y-71875D01*
X17383Y-71913D01*
X17307Y-71951D01*
X17117Y-71951D01*
X17040Y-71913D01*
X17002Y-71875D01*
X17802Y-71951D02*
X17802Y-71417D01*
X17802Y-71494D02*
X17841Y-71456D01*
X17917Y-71417D01*
X18031Y-71417D01*
X18107Y-71456D01*
X18145Y-71532D01*
X18145Y-71951D01*
X18145Y-71532D02*
X18183Y-71456D01*
X18260Y-71417D01*
X18374Y-71417D01*
X18450Y-71456D01*
X18488Y-71532D01*
X18488Y-71951D01*
X18869Y-71951D02*
X18869Y-71417D01*
X18869Y-71494D02*
X18908Y-71456D01*
X18984Y-71417D01*
X19098Y-71417D01*
X19174Y-71456D01*
X19212Y-71532D01*
X19212Y-71951D01*
X19212Y-71532D02*
X19250Y-71456D01*
X19327Y-71417D01*
X19441Y-71417D01*
X19517Y-71456D01*
X19555Y-71532D01*
X19555Y-71951D01*
X20775Y-72256D02*
X20737Y-72217D01*
X20661Y-72103D01*
X20623Y-72027D01*
X20585Y-71913D01*
X20546Y-71722D01*
X20546Y-71570D01*
X20585Y-71379D01*
X20623Y-71265D01*
X20661Y-71189D01*
X20737Y-71075D01*
X20775Y-71037D01*
X21422Y-71417D02*
X21422Y-71951D01*
X21232Y-71113D02*
X21041Y-71684D01*
X21537Y-71684D01*
X22451Y-71951D02*
X22451Y-71151D01*
X22794Y-71951D02*
X22794Y-71532D01*
X22756Y-71456D01*
X22680Y-71417D01*
X22566Y-71417D01*
X22490Y-71456D01*
X22451Y-71494D01*
X23290Y-71951D02*
X23214Y-71913D01*
X23175Y-71875D01*
X23137Y-71798D01*
X23137Y-71570D01*
X23175Y-71494D01*
X23214Y-71456D01*
X23290Y-71417D01*
X23404Y-71417D01*
X23480Y-71456D01*
X23518Y-71494D01*
X23556Y-71570D01*
X23556Y-71798D01*
X23518Y-71875D01*
X23480Y-71913D01*
X23404Y-71951D01*
X23290Y-71951D01*
X24014Y-71951D02*
X23938Y-71913D01*
X23899Y-71837D01*
X23899Y-71151D01*
X24623Y-71913D02*
X24547Y-71951D01*
X24395Y-71951D01*
X24318Y-71913D01*
X24280Y-71837D01*
X24280Y-71532D01*
X24318Y-71456D01*
X24395Y-71417D01*
X24547Y-71417D01*
X24623Y-71456D01*
X24661Y-71532D01*
X24661Y-71608D01*
X24280Y-71684D01*
X24966Y-71913D02*
X25043Y-71951D01*
X25195Y-71951D01*
X25271Y-71913D01*
X25309Y-71837D01*
X25309Y-71798D01*
X25271Y-71722D01*
X25195Y-71684D01*
X25081Y-71684D01*
X25004Y-71646D01*
X24966Y-71570D01*
X24966Y-71532D01*
X25004Y-71456D01*
X25081Y-71417D01*
X25195Y-71417D01*
X25271Y-71456D01*
X25576Y-72256D02*
X25614Y-72217D01*
X25691Y-72103D01*
X25729Y-72027D01*
X25767Y-71913D01*
X25805Y-71722D01*
X25805Y-71570D01*
X25767Y-71379D01*
X25729Y-71265D01*
X25691Y-71189D01*
X25614Y-71075D01*
X25576Y-71037D01*
M02*
