G04 (created by PCBNEW-RS274X (2011-12-28 BZR 3254)-stable) date 7/11/2012 5:38:12 PM*
G01*
G70*
G90*
%MOIN*%
G04 Gerber Fmt 3.4, Leading zero omitted, Abs format*
%FSLAX34Y34*%
G04 APERTURE LIST*
%ADD10C,0.006000*%
%ADD11C,0.060000*%
%ADD12R,0.060000X0.060000*%
%ADD13C,0.200000*%
%ADD14C,0.070000*%
%ADD15C,0.080000*%
%ADD16R,0.051200X0.059000*%
%ADD17R,0.059000X0.051200*%
%ADD18C,0.065000*%
%ADD19R,0.065000X0.065000*%
%ADD20R,0.040000X0.050000*%
%ADD21R,0.050000X0.040000*%
%ADD22C,0.040000*%
%ADD23O,0.060000X0.090000*%
%ADD24R,0.060000X0.090000*%
%ADD25R,0.042000X0.056000*%
%ADD26R,0.100000X0.100000*%
%ADD27C,0.100000*%
%ADD28R,0.080000X0.150000*%
%ADD29R,0.080000X0.060000*%
%ADD30C,0.035000*%
%ADD31C,0.010000*%
G04 APERTURE END LIST*
G54D10*
G54D11*
X35725Y-54100D03*
X37725Y-54100D03*
G54D12*
X36725Y-54100D03*
G54D13*
X33500Y-57000D03*
X56175Y-14275D03*
G54D14*
X16100Y-28650D03*
X16100Y-30400D03*
G54D15*
X17100Y-28150D03*
X17100Y-30900D03*
G54D14*
X17600Y-30025D03*
X17600Y-29025D03*
X16075Y-35950D03*
X16075Y-37700D03*
G54D15*
X17075Y-35450D03*
X17075Y-38200D03*
G54D14*
X17575Y-37325D03*
X17575Y-36325D03*
X16100Y-39875D03*
X16100Y-41625D03*
G54D15*
X17100Y-39375D03*
X17100Y-42125D03*
G54D14*
X17600Y-41250D03*
X17600Y-40250D03*
X16100Y-43800D03*
X16100Y-45550D03*
G54D15*
X17100Y-43300D03*
X17100Y-46050D03*
G54D14*
X17600Y-45175D03*
X17600Y-44175D03*
X16100Y-47875D03*
X16100Y-49625D03*
G54D15*
X17100Y-47375D03*
X17100Y-50125D03*
G54D14*
X17600Y-49250D03*
X17600Y-48250D03*
X50600Y-56500D03*
X48850Y-56500D03*
G54D16*
X27825Y-39000D03*
X28575Y-39000D03*
X20975Y-53000D03*
X20225Y-53000D03*
X20225Y-40750D03*
X20975Y-40750D03*
X20225Y-48750D03*
X20975Y-48750D03*
X17600Y-32000D03*
X16850Y-32000D03*
X27825Y-47000D03*
X28575Y-47000D03*
X42825Y-39000D03*
X43575Y-39000D03*
X42825Y-47000D03*
X43575Y-47000D03*
X50325Y-42200D03*
X51075Y-42200D03*
X20225Y-32550D03*
X20975Y-32550D03*
X25875Y-32550D03*
X25125Y-32550D03*
X19100Y-29025D03*
X19850Y-29025D03*
G54D17*
X18825Y-48350D03*
X18825Y-49100D03*
X18700Y-40300D03*
X18700Y-41050D03*
X18700Y-45100D03*
X18700Y-44350D03*
G54D16*
X25875Y-55000D03*
X26625Y-55000D03*
X44475Y-57750D03*
X43725Y-57750D03*
X40100Y-54775D03*
X40850Y-54775D03*
X41850Y-54825D03*
X42600Y-54825D03*
X50325Y-50200D03*
X51075Y-50200D03*
G54D18*
X42050Y-56025D03*
G54D19*
X39050Y-56025D03*
G54D18*
X40050Y-56025D03*
X41050Y-56025D03*
G54D20*
X34125Y-39925D03*
X33325Y-39925D03*
X41650Y-41000D03*
X40850Y-41000D03*
X49150Y-52200D03*
X48350Y-52200D03*
X49150Y-48200D03*
X48350Y-48200D03*
X49150Y-44200D03*
X48350Y-44200D03*
X49150Y-40200D03*
X48350Y-40200D03*
X41650Y-49000D03*
X40850Y-49000D03*
X41650Y-45000D03*
X40850Y-45000D03*
X34125Y-36075D03*
X33325Y-36075D03*
X41650Y-37000D03*
X40850Y-37000D03*
X26650Y-49000D03*
X25850Y-49000D03*
X26650Y-45000D03*
X25850Y-45000D03*
X26650Y-41000D03*
X25850Y-41000D03*
X26650Y-37000D03*
X25850Y-37000D03*
X41650Y-53000D03*
X40850Y-53000D03*
X26650Y-53000D03*
X25850Y-53000D03*
X18900Y-50750D03*
X18100Y-50750D03*
X18900Y-46750D03*
X18100Y-46750D03*
X18900Y-42750D03*
X18100Y-42750D03*
X18900Y-38750D03*
X18100Y-38750D03*
X18900Y-34750D03*
X18100Y-34750D03*
G54D21*
X19500Y-31150D03*
X19500Y-30350D03*
X23500Y-31150D03*
X23500Y-30350D03*
X27500Y-31150D03*
X27500Y-30350D03*
G54D20*
X34125Y-29450D03*
X33325Y-29450D03*
X34050Y-32800D03*
X33250Y-32800D03*
X34125Y-25750D03*
X33325Y-25750D03*
X34050Y-22650D03*
X33250Y-22650D03*
X34050Y-18650D03*
X33250Y-18650D03*
X34250Y-14875D03*
X33450Y-14875D03*
G54D22*
X31725Y-34950D03*
X40250Y-51675D03*
X40125Y-50775D03*
X39200Y-50775D03*
G54D11*
X39400Y-58875D03*
X39400Y-57875D03*
X40400Y-58875D03*
X40400Y-57875D03*
X41400Y-58875D03*
G54D12*
X41400Y-57875D03*
X33125Y-58900D03*
X34125Y-58900D03*
G54D11*
X35125Y-58900D03*
X36125Y-58900D03*
X37125Y-58900D03*
X38125Y-58900D03*
G54D23*
X28150Y-52725D03*
X29150Y-52725D03*
X30150Y-52725D03*
X31150Y-52725D03*
X32150Y-52725D03*
X33150Y-52725D03*
G54D24*
X34150Y-52725D03*
G54D23*
X35150Y-52725D03*
X36150Y-52725D03*
X37150Y-52725D03*
X38150Y-52725D03*
X39150Y-52725D03*
X40150Y-52725D03*
X27150Y-52725D03*
X40150Y-49725D03*
X39150Y-49725D03*
X38150Y-49725D03*
X37150Y-49725D03*
X36150Y-49725D03*
X35150Y-49725D03*
X34150Y-49725D03*
G54D24*
X33150Y-49725D03*
G54D23*
X32150Y-49725D03*
X31150Y-49725D03*
X30150Y-49725D03*
X29150Y-49725D03*
X28150Y-49725D03*
X27150Y-49725D03*
G54D25*
X38075Y-57575D03*
X37275Y-57575D03*
X34100Y-51100D03*
X33300Y-51100D03*
G54D26*
X18550Y-57200D03*
G54D27*
X16550Y-57200D03*
G54D19*
X46000Y-59000D03*
G54D18*
X47000Y-59000D03*
X48000Y-59000D03*
X49000Y-59000D03*
X50000Y-59000D03*
X51000Y-59000D03*
G54D19*
X46000Y-58000D03*
G54D18*
X47000Y-58000D03*
X48000Y-58000D03*
X49000Y-58000D03*
X50000Y-58000D03*
X51000Y-58000D03*
G54D19*
X44025Y-14500D03*
G54D18*
X43025Y-14500D03*
X42025Y-14500D03*
X41025Y-14500D03*
X40025Y-14500D03*
X39025Y-14500D03*
G54D19*
X44025Y-13500D03*
G54D18*
X43025Y-13500D03*
X42025Y-13500D03*
X41025Y-13500D03*
X40025Y-13500D03*
X39025Y-13500D03*
G54D28*
X21800Y-54850D03*
G54D29*
X24300Y-54850D03*
X24300Y-53950D03*
X24300Y-55750D03*
G54D11*
X31000Y-56875D03*
X31000Y-57875D03*
X31000Y-58875D03*
X44650Y-58975D03*
X43650Y-58975D03*
X42650Y-58975D03*
G54D30*
X28575Y-51050D03*
X20975Y-51050D03*
X51075Y-51050D03*
X43575Y-51050D03*
X53300Y-20000D03*
X42325Y-20850D03*
X70525Y-20850D03*
X49900Y-20850D03*
X66625Y-20850D03*
X46425Y-21600D03*
X61425Y-21600D03*
X38925Y-21600D03*
X58875Y-16450D03*
X58525Y-16050D03*
X58175Y-15650D03*
X57775Y-15250D03*
X56975Y-16825D03*
X55575Y-17150D03*
X55150Y-16450D03*
X39800Y-51600D03*
X47600Y-51600D03*
X18100Y-51600D03*
X25000Y-51600D03*
X41650Y-53525D03*
X25850Y-53525D03*
X35450Y-56175D03*
X35050Y-56575D03*
X34650Y-56975D03*
X35000Y-54175D03*
X34625Y-54575D03*
X35850Y-55775D03*
X34250Y-55375D03*
X36250Y-54975D03*
X48350Y-18550D03*
X62650Y-19500D03*
G54D31*
X28575Y-39000D02*
X28575Y-47000D01*
X51075Y-50200D02*
X51075Y-51050D01*
X28575Y-47000D02*
X28575Y-51050D01*
X51075Y-51352D02*
X48000Y-54427D01*
X20975Y-48750D02*
X20975Y-51050D01*
X20975Y-51525D02*
X20225Y-52275D01*
X20225Y-52275D02*
X20225Y-53000D01*
X20975Y-40750D02*
X20975Y-34250D01*
X20975Y-51050D02*
X20975Y-51525D01*
X20975Y-48750D02*
X20975Y-40750D01*
X48000Y-54427D02*
X48000Y-58000D01*
X20975Y-32550D02*
X20975Y-34250D01*
X20975Y-32550D02*
X25125Y-32550D01*
X51075Y-51050D02*
X51075Y-51352D01*
X51075Y-42200D02*
X51075Y-50200D01*
X43575Y-51050D02*
X43575Y-47000D01*
X43575Y-39000D02*
X43575Y-47000D01*
X39550Y-20000D02*
X38325Y-18775D01*
X53300Y-20000D02*
X39550Y-20000D01*
X38325Y-14200D02*
X39025Y-13500D01*
X38325Y-18775D02*
X38325Y-14200D01*
X49900Y-20850D02*
X49500Y-20850D01*
X59650Y-20850D02*
X66625Y-20850D01*
X66625Y-20850D02*
X70525Y-20850D01*
X49500Y-20850D02*
X42325Y-20850D01*
X59650Y-20850D02*
X49500Y-20850D01*
X61425Y-21600D02*
X46425Y-21600D01*
X46425Y-21600D02*
X38925Y-21600D01*
X40525Y-16150D02*
X40525Y-14000D01*
X56775Y-16450D02*
X56375Y-16450D01*
X55338Y-16812D02*
X40837Y-16812D01*
X55700Y-16450D02*
X55338Y-16812D01*
X40525Y-14000D02*
X40025Y-13500D01*
X56375Y-16450D02*
X55700Y-16450D01*
X58875Y-16450D02*
X56775Y-16450D01*
X40525Y-16500D02*
X40525Y-16150D01*
X40837Y-16812D02*
X40525Y-16500D01*
X41525Y-14000D02*
X41025Y-13500D01*
X41525Y-15750D02*
X41525Y-14000D01*
X41825Y-16050D02*
X41525Y-15750D01*
X58525Y-16050D02*
X41875Y-16050D01*
X41875Y-16050D02*
X41825Y-16050D01*
X42750Y-15650D02*
X42525Y-15425D01*
X58175Y-15650D02*
X42875Y-15650D01*
X42525Y-14000D02*
X42025Y-13500D01*
X42525Y-15425D02*
X42525Y-14000D01*
X42875Y-15650D02*
X42750Y-15650D01*
X44000Y-15250D02*
X43750Y-15250D01*
X43525Y-14000D02*
X43025Y-13500D01*
X57775Y-15250D02*
X44000Y-15250D01*
X43750Y-15250D02*
X43525Y-15025D01*
X43525Y-15025D02*
X43525Y-14000D01*
X56450Y-16825D02*
X55775Y-17500D01*
X50050Y-17500D02*
X42550Y-17500D01*
X41075Y-17500D02*
X39225Y-17500D01*
X42550Y-17500D02*
X41075Y-17500D01*
X39025Y-17300D02*
X39025Y-14500D01*
X39225Y-17500D02*
X39025Y-17300D01*
X55775Y-17500D02*
X50050Y-17500D01*
X56975Y-16825D02*
X56450Y-16825D01*
X55575Y-17150D02*
X40300Y-17150D01*
X40300Y-17150D02*
X40025Y-16875D01*
X40025Y-16875D02*
X40025Y-14500D01*
X41025Y-14500D02*
X41025Y-16250D01*
X55150Y-16450D02*
X41225Y-16450D01*
X41225Y-16450D02*
X41025Y-16250D01*
X40850Y-41000D02*
X40025Y-41000D01*
X25000Y-51600D02*
X25000Y-49000D01*
X47600Y-51600D02*
X47600Y-51975D01*
X39800Y-51600D02*
X39800Y-52850D01*
X39950Y-53000D02*
X40850Y-53000D01*
X39800Y-52850D02*
X39950Y-53000D01*
X39800Y-49000D02*
X39800Y-51600D01*
X18100Y-50750D02*
X18100Y-51600D01*
X47600Y-51975D02*
X47825Y-52200D01*
X25850Y-41000D02*
X25225Y-41000D01*
X47000Y-58000D02*
X46000Y-58000D01*
X48350Y-52200D02*
X48350Y-52802D01*
X47000Y-54152D02*
X47000Y-58000D01*
X48350Y-52802D02*
X47000Y-54152D01*
X25000Y-41225D02*
X25000Y-49000D01*
X18025Y-29575D02*
X17275Y-30325D01*
X23500Y-30350D02*
X23500Y-29825D01*
X40025Y-41000D02*
X39800Y-41225D01*
X39800Y-41225D02*
X39800Y-49000D01*
X47600Y-44475D02*
X47600Y-51600D01*
X48350Y-44200D02*
X47875Y-44200D01*
X25000Y-49000D02*
X25850Y-49000D01*
X47825Y-52200D02*
X48350Y-52200D01*
X18100Y-34750D02*
X17275Y-34750D01*
X23250Y-29575D02*
X18025Y-29575D01*
X25225Y-41000D02*
X25000Y-41225D01*
X47875Y-44200D02*
X47600Y-44475D01*
X18100Y-42750D02*
X17275Y-42750D01*
X23500Y-29825D02*
X23250Y-29575D01*
X17275Y-42750D02*
X17275Y-50750D01*
X17275Y-34750D02*
X17275Y-42750D01*
X17275Y-30325D02*
X17275Y-34750D01*
X17275Y-50750D02*
X18100Y-50750D01*
X39800Y-49000D02*
X40850Y-49000D01*
X50325Y-48600D02*
X50325Y-50200D01*
X49925Y-48200D02*
X50325Y-48600D01*
X49150Y-48200D02*
X49925Y-48200D01*
X40850Y-38550D02*
X41650Y-39350D01*
X40850Y-37000D02*
X40850Y-38550D01*
X41650Y-39350D02*
X41650Y-41000D01*
X27400Y-45000D02*
X27825Y-45425D01*
X27825Y-45425D02*
X27825Y-47000D01*
X26650Y-45000D02*
X27400Y-45000D01*
X25850Y-45000D02*
X25850Y-46100D01*
X26650Y-46900D02*
X26650Y-49000D01*
X25850Y-46100D02*
X26650Y-46900D01*
X18900Y-38750D02*
X19850Y-38750D01*
X20225Y-39125D02*
X20225Y-40750D01*
X19850Y-38750D02*
X20225Y-39125D01*
X18100Y-38750D02*
X18100Y-40075D01*
X18900Y-40875D02*
X18900Y-42750D01*
X18100Y-40075D02*
X18900Y-40875D01*
X41650Y-37000D02*
X42450Y-37000D01*
X42450Y-37000D02*
X42825Y-37375D01*
X42825Y-37375D02*
X42825Y-39000D01*
X18900Y-46750D02*
X19800Y-46750D01*
X20225Y-47175D02*
X20225Y-48750D01*
X19800Y-46750D02*
X20225Y-47175D01*
X18100Y-46750D02*
X18100Y-48550D01*
X18900Y-49350D02*
X18900Y-50750D01*
X18100Y-48550D02*
X18900Y-49350D01*
X19500Y-31150D02*
X19500Y-32325D01*
X19725Y-32550D02*
X20225Y-32550D01*
X19500Y-32325D02*
X19725Y-32550D01*
X18675Y-33225D02*
X18900Y-33450D01*
X18675Y-30675D02*
X18675Y-33225D01*
X19000Y-30350D02*
X18675Y-30675D01*
X18900Y-33450D02*
X18900Y-34750D01*
X19500Y-30350D02*
X19000Y-30350D01*
X48350Y-48200D02*
X48350Y-49800D01*
X49150Y-50600D02*
X49150Y-52200D01*
X48350Y-49800D02*
X49150Y-50600D01*
X50325Y-40625D02*
X50325Y-42200D01*
X49900Y-40200D02*
X50325Y-40625D01*
X49150Y-40200D02*
X49900Y-40200D01*
X48350Y-41875D02*
X49150Y-42675D01*
X48350Y-40200D02*
X48350Y-41875D01*
X49150Y-42675D02*
X49150Y-44200D01*
X41650Y-47200D02*
X41650Y-49000D01*
X40850Y-45000D02*
X40850Y-46400D01*
X40850Y-46400D02*
X41650Y-47200D01*
X41650Y-45000D02*
X42525Y-45000D01*
X42825Y-45300D02*
X42825Y-47000D01*
X42525Y-45000D02*
X42825Y-45300D01*
X26650Y-53000D02*
X26650Y-52500D01*
X20975Y-53000D02*
X23450Y-53000D01*
X24150Y-52300D02*
X23450Y-53000D01*
X26650Y-52500D02*
X26450Y-52300D01*
X26450Y-52300D02*
X24150Y-52300D01*
X25850Y-53000D02*
X25850Y-53525D01*
X41650Y-53525D02*
X41650Y-53000D01*
X26650Y-37000D02*
X27475Y-37000D01*
X27825Y-37350D02*
X27825Y-39000D01*
X27475Y-37000D02*
X27825Y-37350D01*
X25850Y-37000D02*
X25850Y-38550D01*
X26650Y-39350D02*
X26650Y-41000D01*
X25850Y-38550D02*
X26650Y-39350D01*
X35800Y-50000D02*
X35800Y-54050D01*
X35800Y-54050D02*
X35800Y-54600D01*
X35800Y-54600D02*
X35450Y-54950D01*
X35450Y-54950D02*
X35450Y-56175D01*
X35000Y-22650D02*
X35800Y-23450D01*
X34050Y-22650D02*
X35000Y-22650D01*
X35800Y-23450D02*
X35800Y-50000D01*
X35575Y-54025D02*
X35575Y-54500D01*
X35050Y-55025D02*
X35050Y-56575D01*
X35575Y-54500D02*
X35050Y-55025D01*
X35575Y-50000D02*
X35575Y-54025D01*
X34900Y-25750D02*
X35575Y-26425D01*
X35575Y-26425D02*
X35575Y-50000D01*
X34125Y-25750D02*
X34900Y-25750D01*
X35350Y-54400D02*
X34650Y-55100D01*
X35350Y-50000D02*
X35350Y-53975D01*
X34125Y-29450D02*
X34900Y-29450D01*
X35350Y-53975D02*
X35350Y-54400D01*
X35350Y-29900D02*
X35350Y-50000D01*
X34900Y-29450D02*
X35350Y-29900D01*
X34650Y-55100D02*
X34650Y-56975D01*
X35125Y-53525D02*
X35125Y-54050D01*
X35125Y-33125D02*
X35125Y-50000D01*
X34800Y-32800D02*
X35125Y-33125D01*
X35125Y-54050D02*
X35000Y-54175D01*
X35125Y-50000D02*
X35125Y-53525D01*
X34050Y-32800D02*
X34800Y-32800D01*
X34900Y-50000D02*
X34900Y-53375D01*
X34625Y-54575D02*
X34625Y-54000D01*
X34900Y-36425D02*
X34900Y-50000D01*
X34900Y-53725D02*
X34900Y-53375D01*
X34125Y-36075D02*
X34550Y-36075D01*
X34550Y-36075D02*
X34900Y-36425D01*
X34625Y-54000D02*
X34900Y-53725D01*
X36025Y-54700D02*
X35850Y-54875D01*
X36025Y-50000D02*
X36025Y-54325D01*
X34050Y-18650D02*
X35000Y-18650D01*
X35850Y-54875D02*
X35850Y-55775D01*
X36025Y-19675D02*
X36025Y-50000D01*
X35000Y-18650D02*
X36025Y-19675D01*
X36025Y-54325D02*
X36025Y-54700D01*
X34675Y-53600D02*
X34675Y-52950D01*
X34250Y-55375D02*
X34250Y-54025D01*
X34250Y-54025D02*
X34675Y-53600D01*
X34675Y-50000D02*
X34675Y-52950D01*
X34125Y-39925D02*
X34525Y-39925D01*
X34675Y-40075D02*
X34675Y-50000D01*
X34525Y-39925D02*
X34675Y-40075D01*
X34250Y-14875D02*
X35300Y-14875D01*
X36250Y-50000D02*
X36250Y-54975D01*
X35300Y-14875D02*
X36250Y-15825D01*
X36250Y-15825D02*
X36250Y-50000D01*
X27500Y-32025D02*
X26975Y-32550D01*
X26975Y-32550D02*
X25875Y-32550D01*
X27500Y-31150D02*
X27500Y-32025D01*
X27500Y-30350D02*
X25700Y-30350D01*
X24900Y-31150D02*
X23500Y-31150D01*
X25700Y-30350D02*
X24900Y-31150D01*
X61700Y-18550D02*
X48350Y-18550D01*
X62650Y-19500D02*
X61700Y-18550D01*
M02*
