G04 (created by PCBNEW-RS274X (2011-12-28 BZR 3254)-stable) date 7/21/2012 6:49:21 PM*
G01*
G70*
G90*
%MOIN*%
G04 Gerber Fmt 3.4, Leading zero omitted, Abs format*
%FSLAX34Y34*%
G04 APERTURE LIST*
%ADD10C,0.006000*%
%ADD11C,0.005000*%
%ADD12C,0.015000*%
%ADD13C,0.010000*%
%ADD14C,0.080000*%
%ADD15C,0.008000*%
%ADD16C,0.004000*%
%ADD17C,0.080000*%
%ADD18C,0.090000*%
%ADD19O,0.075000X0.100000*%
%ADD20R,0.075000X0.100000*%
%ADD21R,0.090000X0.090000*%
%ADD22R,0.120000X0.120000*%
%ADD23C,0.120000*%
%ADD24R,0.080000X0.130000*%
%ADD25R,0.070000X0.060000*%
%ADD26C,0.100000*%
%ADD27C,0.220000*%
%ADD28C,0.060000*%
%ADD29R,0.085000X0.085000*%
%ADD30C,0.085000*%
%ADD31R,0.264000X0.248000*%
%ADD32R,0.140000X0.100000*%
%ADD33R,0.062000X0.076000*%
%ADD34R,0.076000X0.062000*%
%ADD35R,0.140000X0.084000*%
%ADD36O,0.110000X0.080000*%
%ADD37R,0.110000X0.080000*%
%ADD38R,0.080000X0.080000*%
%ADD39R,0.071200X0.079000*%
%ADD40R,0.079000X0.071200*%
%ADD41R,0.100000X0.044000*%
%ADD42R,0.042000X0.080000*%
%ADD43R,0.060000X0.055000*%
%ADD44R,0.230000X0.230000*%
%ADD45C,0.270000*%
G04 APERTURE END LIST*
G54D10*
G54D11*
X45752Y-59755D02*
X45662Y-59755D01*
X45662Y-59624D02*
X45662Y-59874D01*
X45791Y-59874D01*
X45945Y-59874D02*
X45970Y-59874D01*
X45996Y-59862D01*
X46009Y-59850D01*
X46022Y-59826D01*
X46035Y-59779D01*
X46035Y-59719D01*
X46022Y-59671D01*
X46009Y-59648D01*
X45996Y-59636D01*
X45970Y-59624D01*
X45945Y-59624D01*
X45919Y-59636D01*
X45906Y-59648D01*
X45893Y-59671D01*
X45880Y-59719D01*
X45880Y-59779D01*
X45893Y-59826D01*
X45906Y-59850D01*
X45919Y-59862D01*
X45945Y-59874D01*
X46279Y-59874D02*
X46150Y-59874D01*
X46137Y-59755D01*
X46150Y-59767D01*
X46176Y-59779D01*
X46240Y-59779D01*
X46266Y-59767D01*
X46279Y-59755D01*
X46292Y-59731D01*
X46292Y-59671D01*
X46279Y-59648D01*
X46266Y-59636D01*
X46240Y-59624D01*
X46176Y-59624D01*
X46150Y-59636D01*
X46137Y-59648D01*
X46472Y-59540D02*
X46472Y-59898D01*
X46754Y-59755D02*
X46664Y-59755D01*
X46664Y-59624D02*
X46664Y-59874D01*
X46793Y-59874D01*
X46947Y-59874D02*
X46972Y-59874D01*
X46998Y-59862D01*
X47011Y-59850D01*
X47024Y-59826D01*
X47037Y-59779D01*
X47037Y-59719D01*
X47024Y-59671D01*
X47011Y-59648D01*
X46998Y-59636D01*
X46972Y-59624D01*
X46947Y-59624D01*
X46921Y-59636D01*
X46908Y-59648D01*
X46895Y-59671D01*
X46882Y-59719D01*
X46882Y-59779D01*
X46895Y-59826D01*
X46908Y-59850D01*
X46921Y-59862D01*
X46947Y-59874D01*
X47268Y-59790D02*
X47268Y-59624D01*
X47204Y-59886D02*
X47139Y-59707D01*
X47307Y-59707D01*
X47474Y-59540D02*
X47474Y-59898D01*
X47756Y-59755D02*
X47666Y-59755D01*
X47666Y-59624D02*
X47666Y-59874D01*
X47795Y-59874D01*
X47949Y-59874D02*
X47974Y-59874D01*
X48000Y-59862D01*
X48013Y-59850D01*
X48026Y-59826D01*
X48039Y-59779D01*
X48039Y-59719D01*
X48026Y-59671D01*
X48013Y-59648D01*
X48000Y-59636D01*
X47974Y-59624D01*
X47949Y-59624D01*
X47923Y-59636D01*
X47910Y-59648D01*
X47897Y-59671D01*
X47884Y-59719D01*
X47884Y-59779D01*
X47897Y-59826D01*
X47910Y-59850D01*
X47923Y-59862D01*
X47949Y-59874D01*
X48129Y-59874D02*
X48296Y-59874D01*
X48206Y-59779D01*
X48244Y-59779D01*
X48270Y-59767D01*
X48283Y-59755D01*
X48296Y-59731D01*
X48296Y-59671D01*
X48283Y-59648D01*
X48270Y-59636D01*
X48244Y-59624D01*
X48167Y-59624D01*
X48141Y-59636D01*
X48129Y-59648D01*
X48476Y-59540D02*
X48476Y-59898D01*
X48758Y-59755D02*
X48668Y-59755D01*
X48668Y-59624D02*
X48668Y-59874D01*
X48797Y-59874D01*
X48951Y-59874D02*
X48976Y-59874D01*
X49002Y-59862D01*
X49015Y-59850D01*
X49028Y-59826D01*
X49041Y-59779D01*
X49041Y-59719D01*
X49028Y-59671D01*
X49015Y-59648D01*
X49002Y-59636D01*
X48976Y-59624D01*
X48951Y-59624D01*
X48925Y-59636D01*
X48912Y-59648D01*
X48899Y-59671D01*
X48886Y-59719D01*
X48886Y-59779D01*
X48899Y-59826D01*
X48912Y-59850D01*
X48925Y-59862D01*
X48951Y-59874D01*
X49143Y-59850D02*
X49156Y-59862D01*
X49182Y-59874D01*
X49246Y-59874D01*
X49272Y-59862D01*
X49285Y-59850D01*
X49298Y-59826D01*
X49298Y-59802D01*
X49285Y-59767D01*
X49131Y-59624D01*
X49298Y-59624D01*
X49478Y-59540D02*
X49478Y-59898D01*
X49760Y-59755D02*
X49670Y-59755D01*
X49670Y-59624D02*
X49670Y-59874D01*
X49799Y-59874D01*
X49953Y-59874D02*
X49978Y-59874D01*
X50004Y-59862D01*
X50017Y-59850D01*
X50030Y-59826D01*
X50043Y-59779D01*
X50043Y-59719D01*
X50030Y-59671D01*
X50017Y-59648D01*
X50004Y-59636D01*
X49978Y-59624D01*
X49953Y-59624D01*
X49927Y-59636D01*
X49914Y-59648D01*
X49901Y-59671D01*
X49888Y-59719D01*
X49888Y-59779D01*
X49901Y-59826D01*
X49914Y-59850D01*
X49927Y-59862D01*
X49953Y-59874D01*
X50300Y-59624D02*
X50145Y-59624D01*
X50223Y-59624D02*
X50223Y-59874D01*
X50197Y-59838D01*
X50171Y-59814D01*
X50145Y-59802D01*
X50480Y-59540D02*
X50480Y-59898D01*
X50685Y-59624D02*
X50737Y-59624D01*
X50762Y-59636D01*
X50775Y-59648D01*
X50801Y-59683D01*
X50814Y-59731D01*
X50814Y-59826D01*
X50801Y-59850D01*
X50788Y-59862D01*
X50762Y-59874D01*
X50711Y-59874D01*
X50685Y-59862D01*
X50672Y-59850D01*
X50659Y-59826D01*
X50659Y-59767D01*
X50672Y-59743D01*
X50685Y-59731D01*
X50711Y-59719D01*
X50762Y-59719D01*
X50788Y-59731D01*
X50801Y-59743D01*
X50814Y-59767D01*
X50891Y-59874D02*
X50981Y-59624D01*
X51071Y-59874D01*
X51212Y-59874D02*
X51237Y-59874D01*
X51263Y-59862D01*
X51276Y-59850D01*
X51289Y-59826D01*
X51302Y-59779D01*
X51302Y-59719D01*
X51289Y-59671D01*
X51276Y-59648D01*
X51263Y-59636D01*
X51237Y-59624D01*
X51212Y-59624D01*
X51186Y-59636D01*
X51173Y-59648D01*
X51160Y-59671D01*
X51147Y-59719D01*
X51147Y-59779D01*
X51160Y-59826D01*
X51173Y-59850D01*
X51186Y-59862D01*
X51212Y-59874D01*
X45756Y-57312D02*
X45731Y-57324D01*
X45694Y-57324D01*
X45657Y-57312D01*
X45632Y-57288D01*
X45620Y-57264D01*
X45608Y-57217D01*
X45608Y-57181D01*
X45620Y-57133D01*
X45632Y-57110D01*
X45657Y-57086D01*
X45694Y-57074D01*
X45719Y-57074D01*
X45756Y-57086D01*
X45768Y-57098D01*
X45768Y-57181D01*
X45719Y-57181D01*
X45880Y-57074D02*
X45880Y-57324D01*
X46028Y-57074D01*
X46028Y-57324D01*
X46152Y-57074D02*
X46152Y-57324D01*
X46214Y-57324D01*
X46251Y-57312D01*
X46276Y-57288D01*
X46288Y-57264D01*
X46300Y-57217D01*
X46300Y-57181D01*
X46288Y-57133D01*
X46276Y-57110D01*
X46251Y-57086D01*
X46214Y-57074D01*
X46152Y-57074D01*
X46474Y-56990D02*
X46474Y-57348D01*
X46796Y-57312D02*
X46771Y-57324D01*
X46734Y-57324D01*
X46697Y-57312D01*
X46672Y-57288D01*
X46660Y-57264D01*
X46648Y-57217D01*
X46648Y-57181D01*
X46660Y-57133D01*
X46672Y-57110D01*
X46697Y-57086D01*
X46734Y-57074D01*
X46759Y-57074D01*
X46796Y-57086D01*
X46808Y-57098D01*
X46808Y-57181D01*
X46759Y-57181D01*
X46920Y-57074D02*
X46920Y-57324D01*
X47068Y-57074D01*
X47068Y-57324D01*
X47192Y-57074D02*
X47192Y-57324D01*
X47254Y-57324D01*
X47291Y-57312D01*
X47316Y-57288D01*
X47328Y-57264D01*
X47340Y-57217D01*
X47340Y-57181D01*
X47328Y-57133D01*
X47316Y-57110D01*
X47291Y-57086D01*
X47254Y-57074D01*
X47192Y-57074D01*
X47514Y-56990D02*
X47514Y-57348D01*
X47700Y-57074D02*
X47700Y-57324D01*
X47799Y-57324D01*
X47824Y-57312D01*
X47836Y-57300D01*
X47848Y-57276D01*
X47848Y-57240D01*
X47836Y-57217D01*
X47824Y-57205D01*
X47799Y-57193D01*
X47700Y-57193D01*
X47935Y-57324D02*
X47997Y-57074D01*
X48047Y-57252D01*
X48096Y-57074D01*
X48158Y-57324D01*
X48257Y-57074D02*
X48257Y-57324D01*
X48344Y-57145D01*
X48430Y-57324D01*
X48430Y-57074D01*
X48616Y-56990D02*
X48616Y-57348D01*
X48889Y-57205D02*
X48802Y-57205D01*
X48802Y-57074D02*
X48802Y-57324D01*
X48926Y-57324D01*
X49074Y-57324D02*
X49099Y-57324D01*
X49124Y-57312D01*
X49136Y-57300D01*
X49149Y-57276D01*
X49161Y-57229D01*
X49161Y-57169D01*
X49149Y-57121D01*
X49136Y-57098D01*
X49124Y-57086D01*
X49099Y-57074D01*
X49074Y-57074D01*
X49050Y-57086D01*
X49037Y-57098D01*
X49025Y-57121D01*
X49013Y-57169D01*
X49013Y-57229D01*
X49025Y-57276D01*
X49037Y-57300D01*
X49050Y-57312D01*
X49074Y-57324D01*
X49310Y-57217D02*
X49285Y-57229D01*
X49273Y-57240D01*
X49261Y-57264D01*
X49261Y-57276D01*
X49273Y-57300D01*
X49285Y-57312D01*
X49310Y-57324D01*
X49360Y-57324D01*
X49384Y-57312D01*
X49397Y-57300D01*
X49409Y-57276D01*
X49409Y-57264D01*
X49397Y-57240D01*
X49384Y-57229D01*
X49360Y-57217D01*
X49310Y-57217D01*
X49285Y-57205D01*
X49273Y-57193D01*
X49261Y-57169D01*
X49261Y-57121D01*
X49273Y-57098D01*
X49285Y-57086D01*
X49310Y-57074D01*
X49360Y-57074D01*
X49384Y-57086D01*
X49397Y-57098D01*
X49409Y-57121D01*
X49409Y-57169D01*
X49397Y-57193D01*
X49384Y-57205D01*
X49360Y-57217D01*
X49583Y-56990D02*
X49583Y-57348D01*
X49856Y-57205D02*
X49769Y-57205D01*
X49769Y-57074D02*
X49769Y-57324D01*
X49893Y-57324D01*
X50041Y-57324D02*
X50066Y-57324D01*
X50091Y-57312D01*
X50103Y-57300D01*
X50116Y-57276D01*
X50128Y-57229D01*
X50128Y-57169D01*
X50116Y-57121D01*
X50103Y-57098D01*
X50091Y-57086D01*
X50066Y-57074D01*
X50041Y-57074D01*
X50017Y-57086D01*
X50004Y-57098D01*
X49992Y-57121D01*
X49980Y-57169D01*
X49980Y-57229D01*
X49992Y-57276D01*
X50004Y-57300D01*
X50017Y-57312D01*
X50041Y-57324D01*
X50215Y-57324D02*
X50388Y-57324D01*
X50277Y-57074D01*
X50550Y-56990D02*
X50550Y-57348D01*
X50823Y-57205D02*
X50736Y-57205D01*
X50736Y-57074D02*
X50736Y-57324D01*
X50860Y-57324D01*
X51008Y-57324D02*
X51033Y-57324D01*
X51058Y-57312D01*
X51070Y-57300D01*
X51083Y-57276D01*
X51095Y-57229D01*
X51095Y-57169D01*
X51083Y-57121D01*
X51070Y-57098D01*
X51058Y-57086D01*
X51033Y-57074D01*
X51008Y-57074D01*
X50984Y-57086D01*
X50971Y-57098D01*
X50959Y-57121D01*
X50947Y-57169D01*
X50947Y-57229D01*
X50959Y-57276D01*
X50971Y-57300D01*
X50984Y-57312D01*
X51008Y-57324D01*
X51318Y-57324D02*
X51269Y-57324D01*
X51244Y-57312D01*
X51232Y-57300D01*
X51207Y-57264D01*
X51195Y-57217D01*
X51195Y-57121D01*
X51207Y-57098D01*
X51219Y-57086D01*
X51244Y-57074D01*
X51294Y-57074D01*
X51318Y-57086D01*
X51331Y-57098D01*
X51343Y-57121D01*
X51343Y-57181D01*
X51331Y-57205D01*
X51318Y-57217D01*
X51294Y-57229D01*
X51244Y-57229D01*
X51219Y-57217D01*
X51207Y-57205D01*
X51195Y-57181D01*
G54D12*
X75000Y-46000D02*
X75000Y-60000D01*
X60500Y-46000D02*
X75000Y-46000D01*
X60500Y-60000D02*
X60500Y-46000D01*
X75000Y-60000D02*
X60500Y-60000D01*
G54D13*
X50905Y-54759D02*
X50381Y-54759D01*
X50286Y-54807D01*
X50238Y-54902D01*
X50238Y-55093D01*
X50286Y-55188D01*
X50857Y-54759D02*
X50905Y-54855D01*
X50905Y-55093D01*
X50857Y-55188D01*
X50762Y-55236D01*
X50667Y-55236D01*
X50571Y-55188D01*
X50524Y-55093D01*
X50524Y-54855D01*
X50476Y-54759D01*
X50238Y-54283D02*
X50905Y-54283D01*
X50333Y-54283D02*
X50286Y-54235D01*
X50238Y-54140D01*
X50238Y-53997D01*
X50286Y-53902D01*
X50381Y-53854D01*
X50905Y-53854D01*
X50905Y-53235D02*
X50857Y-53330D01*
X50810Y-53378D01*
X50714Y-53426D01*
X50429Y-53426D01*
X50333Y-53378D01*
X50286Y-53330D01*
X50238Y-53235D01*
X50238Y-53092D01*
X50286Y-52997D01*
X50333Y-52949D01*
X50429Y-52902D01*
X50714Y-52902D01*
X50810Y-52949D01*
X50857Y-52997D01*
X50905Y-53092D01*
X50905Y-53235D01*
X50905Y-52330D02*
X50857Y-52425D01*
X50810Y-52473D01*
X50714Y-52521D01*
X50429Y-52521D01*
X50333Y-52473D01*
X50286Y-52425D01*
X50238Y-52330D01*
X50238Y-52187D01*
X50286Y-52092D01*
X50333Y-52044D01*
X50429Y-51997D01*
X50714Y-51997D01*
X50810Y-52044D01*
X50857Y-52092D01*
X50905Y-52187D01*
X50905Y-52330D01*
X50905Y-51425D02*
X50857Y-51520D01*
X50762Y-51568D01*
X49905Y-51568D01*
X50810Y-51044D02*
X50857Y-50996D01*
X50905Y-51044D01*
X50857Y-51092D01*
X50810Y-51044D01*
X50905Y-51044D01*
X50905Y-50568D02*
X50238Y-50568D01*
X50333Y-50568D02*
X50286Y-50520D01*
X50238Y-50425D01*
X50238Y-50282D01*
X50286Y-50187D01*
X50381Y-50139D01*
X50905Y-50139D01*
X50381Y-50139D02*
X50286Y-50092D01*
X50238Y-49996D01*
X50238Y-49854D01*
X50286Y-49758D01*
X50381Y-49711D01*
X50905Y-49711D01*
X50429Y-48616D02*
X50381Y-48663D01*
X50333Y-48759D01*
X50333Y-48854D01*
X50381Y-48949D01*
X50429Y-48997D01*
X50524Y-49044D01*
X50619Y-49044D01*
X50714Y-48997D01*
X50762Y-48949D01*
X50810Y-48854D01*
X50810Y-48759D01*
X50762Y-48663D01*
X50714Y-48616D01*
X50333Y-48616D02*
X50714Y-48616D01*
X50762Y-48568D01*
X50762Y-48521D01*
X50714Y-48425D01*
X50619Y-48378D01*
X50381Y-48378D01*
X50238Y-48473D01*
X50143Y-48616D01*
X50095Y-48806D01*
X50143Y-48997D01*
X50238Y-49140D01*
X50381Y-49235D01*
X50571Y-49283D01*
X50762Y-49235D01*
X50905Y-49140D01*
X51000Y-48997D01*
X51048Y-48806D01*
X51000Y-48616D01*
X50905Y-48473D01*
X50238Y-47520D02*
X51048Y-47520D01*
X51143Y-47568D01*
X51190Y-47616D01*
X51238Y-47711D01*
X51238Y-47854D01*
X51190Y-47949D01*
X50857Y-47520D02*
X50905Y-47616D01*
X50905Y-47806D01*
X50857Y-47901D01*
X50810Y-47949D01*
X50714Y-47997D01*
X50429Y-47997D01*
X50333Y-47949D01*
X50286Y-47901D01*
X50238Y-47806D01*
X50238Y-47616D01*
X50286Y-47520D01*
X50905Y-47044D02*
X50238Y-47044D01*
X50333Y-47044D02*
X50286Y-46996D01*
X50238Y-46901D01*
X50238Y-46758D01*
X50286Y-46663D01*
X50381Y-46615D01*
X50905Y-46615D01*
X50381Y-46615D02*
X50286Y-46568D01*
X50238Y-46472D01*
X50238Y-46330D01*
X50286Y-46234D01*
X50381Y-46187D01*
X50905Y-46187D01*
X50905Y-45282D02*
X50381Y-45282D01*
X50286Y-45330D01*
X50238Y-45425D01*
X50238Y-45616D01*
X50286Y-45711D01*
X50857Y-45282D02*
X50905Y-45378D01*
X50905Y-45616D01*
X50857Y-45711D01*
X50762Y-45759D01*
X50667Y-45759D01*
X50571Y-45711D01*
X50524Y-45616D01*
X50524Y-45378D01*
X50476Y-45282D01*
X50905Y-44806D02*
X50238Y-44806D01*
X49905Y-44806D02*
X49952Y-44854D01*
X50000Y-44806D01*
X49952Y-44758D01*
X49905Y-44806D01*
X50000Y-44806D01*
X50905Y-44187D02*
X50857Y-44282D01*
X50762Y-44330D01*
X49905Y-44330D01*
X50810Y-43806D02*
X50857Y-43758D01*
X50905Y-43806D01*
X50857Y-43854D01*
X50810Y-43806D01*
X50905Y-43806D01*
X50857Y-42901D02*
X50905Y-42997D01*
X50905Y-43187D01*
X50857Y-43282D01*
X50810Y-43330D01*
X50714Y-43378D01*
X50429Y-43378D01*
X50333Y-43330D01*
X50286Y-43282D01*
X50238Y-43187D01*
X50238Y-42997D01*
X50286Y-42901D01*
X50905Y-42330D02*
X50857Y-42425D01*
X50810Y-42473D01*
X50714Y-42521D01*
X50429Y-42521D01*
X50333Y-42473D01*
X50286Y-42425D01*
X50238Y-42330D01*
X50238Y-42187D01*
X50286Y-42092D01*
X50333Y-42044D01*
X50429Y-41997D01*
X50714Y-41997D01*
X50810Y-42044D01*
X50857Y-42092D01*
X50905Y-42187D01*
X50905Y-42330D01*
X50905Y-41568D02*
X50238Y-41568D01*
X50333Y-41568D02*
X50286Y-41520D01*
X50238Y-41425D01*
X50238Y-41282D01*
X50286Y-41187D01*
X50381Y-41139D01*
X50905Y-41139D01*
X50381Y-41139D02*
X50286Y-41092D01*
X50238Y-40996D01*
X50238Y-40854D01*
X50286Y-40758D01*
X50381Y-40711D01*
X50905Y-40711D01*
G54D14*
X27929Y-36539D02*
X28119Y-37254D01*
X28119Y-38444D01*
X27929Y-38920D01*
X27738Y-39158D01*
X27357Y-39397D01*
X26976Y-39397D01*
X26595Y-39158D01*
X26405Y-38920D01*
X26214Y-38444D01*
X26024Y-37492D01*
X25833Y-37016D01*
X25643Y-36777D01*
X25262Y-36539D01*
X24881Y-36539D01*
X24500Y-36777D01*
X24310Y-37016D01*
X24119Y-37492D01*
X24119Y-38682D01*
X24310Y-39397D01*
X24119Y-40825D02*
X24119Y-43682D01*
X28119Y-42254D02*
X24119Y-42254D01*
X26024Y-47016D02*
X26024Y-45349D01*
X28119Y-45349D02*
X24119Y-45349D01*
X24119Y-47730D01*
X24119Y-49635D02*
X27357Y-49635D01*
X27738Y-49874D01*
X27929Y-50112D01*
X28119Y-50588D01*
X28119Y-51540D01*
X27929Y-52016D01*
X27738Y-52255D01*
X27357Y-52493D01*
X24119Y-52493D01*
X27738Y-54873D02*
X27929Y-55112D01*
X28119Y-54873D01*
X27929Y-54635D01*
X27738Y-54873D01*
X28119Y-54873D01*
X26595Y-54873D02*
X24310Y-54635D01*
X24119Y-54873D01*
X24310Y-55112D01*
X26595Y-54873D01*
X24119Y-54873D01*
G54D12*
X58000Y-15500D02*
X57971Y-15791D01*
X57886Y-16071D01*
X57749Y-16330D01*
X57564Y-16556D01*
X57338Y-16743D01*
X57081Y-16882D01*
X56801Y-16969D01*
X56510Y-16999D01*
X56219Y-16973D01*
X55939Y-16890D01*
X55679Y-16755D01*
X55451Y-16571D01*
X55263Y-16347D01*
X55122Y-16090D01*
X55033Y-15811D01*
X55001Y-15520D01*
X55025Y-15230D01*
X55106Y-14948D01*
X55240Y-14688D01*
X55421Y-14459D01*
X55644Y-14269D01*
X55900Y-14126D01*
X56178Y-14035D01*
X56469Y-14001D01*
X56760Y-14023D01*
X57042Y-14102D01*
X57303Y-14234D01*
X57534Y-14414D01*
X57725Y-14636D01*
X57870Y-14890D01*
X57962Y-15168D01*
X57999Y-15459D01*
X58000Y-15500D01*
X58000Y-20500D02*
X57971Y-20791D01*
X57886Y-21071D01*
X57749Y-21330D01*
X57564Y-21556D01*
X57338Y-21743D01*
X57081Y-21882D01*
X56801Y-21969D01*
X56510Y-21999D01*
X56219Y-21973D01*
X55939Y-21890D01*
X55679Y-21755D01*
X55451Y-21571D01*
X55263Y-21347D01*
X55122Y-21090D01*
X55033Y-20811D01*
X55001Y-20520D01*
X55025Y-20230D01*
X55106Y-19948D01*
X55240Y-19688D01*
X55421Y-19459D01*
X55644Y-19269D01*
X55900Y-19126D01*
X56178Y-19035D01*
X56469Y-19001D01*
X56760Y-19023D01*
X57042Y-19102D01*
X57303Y-19234D01*
X57534Y-19414D01*
X57725Y-19636D01*
X57870Y-19890D01*
X57962Y-20168D01*
X57999Y-20459D01*
X58000Y-20500D01*
X35003Y-56975D02*
X34974Y-57266D01*
X34889Y-57547D01*
X34751Y-57806D01*
X34566Y-58034D01*
X34340Y-58221D01*
X34082Y-58360D01*
X33802Y-58447D01*
X33510Y-58477D01*
X33219Y-58451D01*
X32937Y-58368D01*
X32678Y-58232D01*
X32449Y-58048D01*
X32260Y-57824D01*
X32119Y-57567D01*
X32030Y-57287D01*
X31998Y-56995D01*
X32022Y-56704D01*
X32103Y-56422D01*
X32237Y-56161D01*
X32419Y-55931D01*
X32643Y-55741D01*
X32899Y-55598D01*
X33178Y-55508D01*
X33469Y-55473D01*
X33760Y-55495D01*
X34043Y-55574D01*
X34305Y-55706D01*
X34536Y-55887D01*
X34728Y-56109D01*
X34873Y-56364D01*
X34965Y-56643D01*
X35002Y-56934D01*
X35003Y-56975D01*
X35000Y-52000D02*
X34971Y-52291D01*
X34886Y-52571D01*
X34749Y-52830D01*
X34564Y-53056D01*
X34338Y-53243D01*
X34081Y-53382D01*
X33801Y-53469D01*
X33510Y-53499D01*
X33219Y-53473D01*
X32939Y-53390D01*
X32679Y-53255D01*
X32451Y-53071D01*
X32263Y-52847D01*
X32122Y-52590D01*
X32033Y-52311D01*
X32001Y-52020D01*
X32025Y-51730D01*
X32106Y-51448D01*
X32240Y-51188D01*
X32421Y-50959D01*
X32644Y-50769D01*
X32900Y-50626D01*
X33178Y-50535D01*
X33469Y-50501D01*
X33760Y-50523D01*
X34042Y-50602D01*
X34303Y-50734D01*
X34534Y-50914D01*
X34725Y-51136D01*
X34870Y-51390D01*
X34962Y-51668D01*
X34999Y-51959D01*
X35000Y-52000D01*
X54700Y-12650D02*
X56500Y-12650D01*
X54700Y-15500D02*
X54700Y-12650D01*
X54700Y-20500D02*
X54700Y-15500D01*
X54700Y-23000D02*
X54700Y-20500D01*
X58300Y-23000D02*
X54700Y-23000D01*
X58300Y-20500D02*
X58300Y-23000D01*
X58300Y-15500D02*
X58300Y-20500D01*
X58300Y-12650D02*
X58300Y-15500D01*
X56500Y-12650D02*
X58300Y-12650D01*
X31700Y-59850D02*
X31700Y-49500D01*
X35300Y-59850D02*
X31700Y-59850D01*
X35300Y-49500D02*
X35300Y-59850D01*
X31700Y-49500D02*
X35300Y-49500D01*
X60500Y-41750D02*
X60500Y-45000D01*
X68000Y-38500D02*
X63750Y-38500D01*
X68000Y-22500D02*
X68000Y-38500D01*
X67000Y-34250D02*
X67000Y-22500D01*
X60500Y-22500D02*
X60500Y-34250D01*
X59500Y-56750D02*
X59500Y-22500D01*
X53000Y-22500D02*
X53000Y-56750D01*
X52000Y-34250D02*
X52000Y-22500D01*
X45500Y-22500D02*
X45500Y-34250D01*
X44500Y-31050D02*
X44500Y-22500D01*
X63750Y-38500D02*
X63467Y-38513D01*
X63186Y-38550D01*
X62909Y-38611D01*
X62639Y-38696D01*
X62377Y-38805D01*
X62126Y-38936D01*
X61886Y-39088D01*
X61661Y-39261D01*
X61452Y-39452D01*
X61261Y-39661D01*
X61088Y-39886D01*
X60936Y-40126D01*
X60805Y-40377D01*
X60696Y-40639D01*
X60611Y-40909D01*
X60550Y-41186D01*
X60513Y-41467D01*
X60500Y-41750D01*
X63750Y-37500D02*
X64033Y-37487D01*
X64314Y-37450D01*
X64591Y-37389D01*
X64861Y-37304D01*
X65123Y-37195D01*
X65375Y-37064D01*
X65614Y-36912D01*
X65839Y-36739D01*
X66048Y-36548D01*
X66239Y-36339D01*
X66412Y-36114D01*
X66564Y-35874D01*
X66695Y-35623D01*
X66804Y-35361D01*
X66889Y-35091D01*
X66950Y-34814D01*
X66987Y-34533D01*
X67000Y-34250D01*
X60500Y-34250D02*
X60513Y-34533D01*
X60550Y-34814D01*
X60611Y-35091D01*
X60696Y-35361D01*
X60805Y-35623D01*
X60936Y-35874D01*
X61088Y-36114D01*
X61261Y-36339D01*
X61452Y-36548D01*
X61661Y-36739D01*
X61886Y-36912D01*
X62126Y-37064D01*
X62377Y-37195D01*
X62639Y-37304D01*
X62909Y-37389D01*
X63186Y-37450D01*
X63467Y-37487D01*
X63750Y-37500D01*
X56250Y-60000D02*
X56533Y-59987D01*
X56814Y-59950D01*
X57091Y-59889D01*
X57361Y-59804D01*
X57623Y-59695D01*
X57875Y-59564D01*
X58114Y-59412D01*
X58339Y-59239D01*
X58548Y-59048D01*
X58739Y-58839D01*
X58912Y-58614D01*
X59064Y-58374D01*
X59195Y-58123D01*
X59304Y-57861D01*
X59389Y-57591D01*
X59450Y-57314D01*
X59487Y-57033D01*
X59500Y-56750D01*
X53000Y-56750D02*
X53013Y-57033D01*
X53050Y-57314D01*
X53111Y-57591D01*
X53196Y-57861D01*
X53305Y-58123D01*
X53436Y-58374D01*
X53588Y-58614D01*
X53761Y-58839D01*
X53952Y-59048D01*
X54161Y-59239D01*
X54386Y-59412D01*
X54626Y-59564D01*
X54877Y-59695D01*
X55139Y-59804D01*
X55409Y-59889D01*
X55686Y-59950D01*
X55967Y-59987D01*
X56250Y-60000D01*
X48750Y-37500D02*
X49033Y-37487D01*
X49314Y-37450D01*
X49591Y-37389D01*
X49861Y-37304D01*
X50123Y-37195D01*
X50375Y-37064D01*
X50614Y-36912D01*
X50839Y-36739D01*
X51048Y-36548D01*
X51239Y-36339D01*
X51412Y-36114D01*
X51564Y-35874D01*
X51695Y-35623D01*
X51804Y-35361D01*
X51889Y-35091D01*
X51950Y-34814D01*
X51987Y-34533D01*
X52000Y-34250D01*
X45500Y-34250D02*
X45513Y-34533D01*
X45550Y-34814D01*
X45611Y-35091D01*
X45696Y-35361D01*
X45805Y-35623D01*
X45936Y-35874D01*
X46088Y-36114D01*
X46261Y-36339D01*
X46452Y-36548D01*
X46661Y-36739D01*
X46886Y-36912D01*
X47126Y-37064D01*
X47377Y-37195D01*
X47639Y-37304D01*
X47909Y-37389D01*
X48186Y-37450D01*
X48467Y-37487D01*
X48750Y-37500D01*
X41250Y-34300D02*
X41533Y-34287D01*
X41814Y-34250D01*
X42091Y-34189D01*
X42361Y-34104D01*
X42623Y-33995D01*
X42875Y-33864D01*
X43114Y-33712D01*
X43339Y-33539D01*
X43548Y-33348D01*
X43739Y-33139D01*
X43912Y-32914D01*
X44064Y-32674D01*
X44195Y-32423D01*
X44304Y-32161D01*
X44389Y-31891D01*
X44450Y-31614D01*
X44487Y-31333D01*
X44500Y-31050D01*
X38000Y-31050D02*
X38013Y-31333D01*
X38050Y-31614D01*
X38111Y-31891D01*
X38196Y-32161D01*
X38305Y-32423D01*
X38436Y-32674D01*
X38588Y-32914D01*
X38761Y-33139D01*
X38952Y-33348D01*
X39161Y-33539D01*
X39386Y-33712D01*
X39626Y-33864D01*
X39877Y-33995D01*
X40139Y-34104D01*
X40409Y-34189D01*
X40686Y-34250D01*
X40967Y-34287D01*
X41250Y-34300D01*
X67000Y-22500D02*
X68000Y-22500D01*
X59500Y-22500D02*
X60500Y-22500D01*
X52000Y-22500D02*
X53000Y-22500D01*
X44500Y-22500D02*
X45500Y-22500D01*
X29500Y-30750D02*
X29500Y-27500D01*
X22000Y-34000D02*
X26250Y-34000D01*
X22000Y-50000D02*
X22000Y-34000D01*
X23000Y-38250D02*
X23000Y-50000D01*
X29500Y-50000D02*
X29500Y-38250D01*
X30500Y-47600D02*
X30500Y-50000D01*
X30500Y-45075D02*
X30500Y-46200D01*
X30500Y-38625D02*
X30500Y-44250D01*
X30500Y-15750D02*
X30500Y-32850D01*
X37000Y-36050D02*
X37000Y-15750D01*
X37000Y-50000D02*
X37000Y-37850D01*
X38000Y-50000D02*
X38000Y-38275D01*
X44500Y-50000D02*
X44500Y-38250D01*
X45500Y-41450D02*
X45500Y-50000D01*
X33750Y-12500D02*
X33467Y-12513D01*
X33186Y-12550D01*
X32909Y-12611D01*
X32639Y-12696D01*
X32377Y-12805D01*
X32126Y-12936D01*
X31886Y-13088D01*
X31661Y-13261D01*
X31452Y-13452D01*
X31261Y-13661D01*
X31088Y-13886D01*
X30936Y-14126D01*
X30805Y-14377D01*
X30696Y-14639D01*
X30611Y-14909D01*
X30550Y-15186D01*
X30513Y-15467D01*
X30500Y-15750D01*
X37000Y-15750D02*
X36987Y-15467D01*
X36950Y-15186D01*
X36889Y-14909D01*
X36804Y-14639D01*
X36695Y-14377D01*
X36564Y-14126D01*
X36412Y-13886D01*
X36239Y-13661D01*
X36048Y-13452D01*
X35839Y-13261D01*
X35614Y-13088D01*
X35375Y-12936D01*
X35123Y-12805D01*
X34861Y-12696D01*
X34591Y-12611D01*
X34314Y-12550D01*
X34033Y-12513D01*
X33750Y-12500D01*
X48750Y-38200D02*
X48467Y-38213D01*
X48186Y-38250D01*
X47909Y-38311D01*
X47639Y-38396D01*
X47377Y-38505D01*
X47126Y-38636D01*
X46886Y-38788D01*
X46661Y-38961D01*
X46452Y-39152D01*
X46261Y-39361D01*
X46088Y-39586D01*
X45936Y-39826D01*
X45805Y-40077D01*
X45696Y-40339D01*
X45611Y-40609D01*
X45550Y-40886D01*
X45513Y-41167D01*
X45500Y-41450D01*
X52000Y-41450D02*
X51987Y-41167D01*
X51950Y-40886D01*
X51889Y-40609D01*
X51804Y-40339D01*
X51695Y-40077D01*
X51564Y-39826D01*
X51412Y-39586D01*
X51239Y-39361D01*
X51048Y-39152D01*
X50839Y-38961D01*
X50614Y-38788D01*
X50375Y-38636D01*
X50123Y-38505D01*
X49861Y-38396D01*
X49591Y-38311D01*
X49314Y-38250D01*
X49033Y-38213D01*
X48750Y-38200D01*
X41250Y-35000D02*
X40967Y-35013D01*
X40686Y-35050D01*
X40409Y-35111D01*
X40139Y-35196D01*
X39877Y-35305D01*
X39626Y-35436D01*
X39386Y-35588D01*
X39161Y-35761D01*
X38952Y-35952D01*
X38761Y-36161D01*
X38588Y-36386D01*
X38436Y-36626D01*
X38305Y-36877D01*
X38196Y-37139D01*
X38111Y-37409D01*
X38050Y-37686D01*
X38013Y-37967D01*
X38000Y-38250D01*
X44500Y-38250D02*
X44487Y-37967D01*
X44450Y-37686D01*
X44389Y-37409D01*
X44304Y-37139D01*
X44195Y-36877D01*
X44064Y-36626D01*
X43912Y-36386D01*
X43739Y-36161D01*
X43548Y-35952D01*
X43339Y-35761D01*
X43114Y-35588D01*
X42875Y-35436D01*
X42623Y-35305D01*
X42361Y-35196D01*
X42091Y-35111D01*
X41814Y-35050D01*
X41533Y-35013D01*
X41250Y-35000D01*
X26250Y-35000D02*
X25967Y-35013D01*
X25686Y-35050D01*
X25409Y-35111D01*
X25139Y-35196D01*
X24877Y-35305D01*
X24626Y-35436D01*
X24386Y-35588D01*
X24161Y-35761D01*
X23952Y-35952D01*
X23761Y-36161D01*
X23588Y-36386D01*
X23436Y-36626D01*
X23305Y-36877D01*
X23196Y-37139D01*
X23111Y-37409D01*
X23050Y-37686D01*
X23013Y-37967D01*
X23000Y-38250D01*
X29500Y-38250D02*
X29487Y-37967D01*
X29450Y-37686D01*
X29389Y-37409D01*
X29304Y-37139D01*
X29195Y-36877D01*
X29064Y-36626D01*
X28912Y-36386D01*
X28739Y-36161D01*
X28548Y-35952D01*
X28339Y-35761D01*
X28114Y-35588D01*
X27875Y-35436D01*
X27623Y-35305D01*
X27361Y-35196D01*
X27091Y-35111D01*
X26814Y-35050D01*
X26533Y-35013D01*
X26250Y-35000D01*
X26250Y-34000D02*
X26533Y-33987D01*
X26814Y-33950D01*
X27091Y-33889D01*
X27361Y-33804D01*
X27623Y-33695D01*
X27875Y-33564D01*
X28114Y-33412D01*
X28339Y-33239D01*
X28548Y-33048D01*
X28739Y-32839D01*
X28912Y-32614D01*
X29064Y-32374D01*
X29195Y-32123D01*
X29304Y-31861D01*
X29389Y-31591D01*
X29450Y-31314D01*
X29487Y-31033D01*
X29500Y-30750D01*
X44500Y-50000D02*
X45500Y-50000D01*
X37000Y-50000D02*
X38000Y-50000D01*
X29500Y-50000D02*
X30500Y-50000D01*
X22000Y-50000D02*
X23000Y-50000D01*
G54D11*
X18322Y-59901D02*
X18251Y-59901D01*
X18251Y-59473D01*
X18322Y-59473D01*
X18436Y-59687D02*
X18665Y-59687D01*
X18551Y-59801D02*
X18551Y-59573D01*
X18779Y-59901D02*
X18850Y-59901D01*
X18850Y-59473D01*
X18779Y-59473D01*
X16322Y-59901D02*
X16251Y-59901D01*
X16251Y-59473D01*
X16322Y-59473D01*
X16436Y-59687D02*
X16665Y-59687D01*
X16779Y-59901D02*
X16850Y-59901D01*
X16850Y-59473D01*
X16779Y-59473D01*
X45171Y-59404D02*
X45161Y-59364D01*
X45161Y-59297D01*
X45171Y-59270D01*
X45182Y-59257D01*
X45203Y-59244D01*
X45224Y-59244D01*
X45245Y-59257D01*
X45255Y-59270D01*
X45266Y-59297D01*
X45276Y-59350D01*
X45287Y-59377D01*
X45297Y-59390D01*
X45318Y-59404D01*
X45339Y-59404D01*
X45360Y-59390D01*
X45370Y-59377D01*
X45381Y-59350D01*
X45381Y-59284D01*
X45370Y-59244D01*
X45161Y-59123D02*
X45381Y-59123D01*
X45381Y-59057D01*
X45370Y-59017D01*
X45350Y-58990D01*
X45329Y-58977D01*
X45287Y-58963D01*
X45255Y-58963D01*
X45213Y-58977D01*
X45192Y-58990D01*
X45171Y-59017D01*
X45161Y-59057D01*
X45161Y-59123D01*
X45224Y-58857D02*
X45224Y-58723D01*
X45161Y-58883D02*
X45381Y-58790D01*
X45161Y-58697D01*
X45088Y-58537D02*
X45402Y-58537D01*
X45171Y-58350D02*
X45161Y-58310D01*
X45161Y-58243D01*
X45171Y-58216D01*
X45182Y-58203D01*
X45203Y-58190D01*
X45224Y-58190D01*
X45245Y-58203D01*
X45255Y-58216D01*
X45266Y-58243D01*
X45276Y-58296D01*
X45287Y-58323D01*
X45297Y-58336D01*
X45318Y-58350D01*
X45339Y-58350D01*
X45360Y-58336D01*
X45370Y-58323D01*
X45381Y-58296D01*
X45381Y-58230D01*
X45370Y-58190D01*
X45182Y-57909D02*
X45171Y-57923D01*
X45161Y-57963D01*
X45161Y-57989D01*
X45171Y-58029D01*
X45192Y-58056D01*
X45213Y-58069D01*
X45255Y-58083D01*
X45287Y-58083D01*
X45329Y-58069D01*
X45350Y-58056D01*
X45370Y-58029D01*
X45381Y-57989D01*
X45381Y-57963D01*
X45370Y-57923D01*
X45360Y-57909D01*
X45161Y-57656D02*
X45161Y-57789D01*
X45381Y-57789D01*
X45088Y-57496D02*
X45402Y-57496D01*
X45381Y-57335D02*
X45161Y-57242D01*
X45381Y-57149D01*
X45182Y-56895D02*
X45171Y-56909D01*
X45161Y-56949D01*
X45161Y-56975D01*
X45171Y-57015D01*
X45192Y-57042D01*
X45213Y-57055D01*
X45255Y-57069D01*
X45287Y-57069D01*
X45329Y-57055D01*
X45350Y-57042D01*
X45370Y-57015D01*
X45381Y-56975D01*
X45381Y-56949D01*
X45370Y-56909D01*
X45360Y-56895D01*
X45182Y-56615D02*
X45171Y-56629D01*
X45161Y-56669D01*
X45161Y-56695D01*
X45171Y-56735D01*
X45192Y-56762D01*
X45213Y-56775D01*
X45255Y-56789D01*
X45287Y-56789D01*
X45329Y-56775D01*
X45350Y-56762D01*
X45370Y-56735D01*
X45381Y-56695D01*
X45381Y-56669D01*
X45370Y-56629D01*
X45360Y-56615D01*
X45088Y-56429D02*
X45402Y-56429D01*
X45370Y-56082D02*
X45381Y-56108D01*
X45381Y-56148D01*
X45370Y-56188D01*
X45350Y-56215D01*
X45329Y-56228D01*
X45287Y-56242D01*
X45255Y-56242D01*
X45213Y-56228D01*
X45192Y-56215D01*
X45171Y-56188D01*
X45161Y-56148D01*
X45161Y-56122D01*
X45171Y-56082D01*
X45182Y-56068D01*
X45255Y-56068D01*
X45255Y-56122D01*
X45161Y-55948D02*
X45381Y-55948D01*
X45161Y-55788D01*
X45381Y-55788D01*
X45161Y-55655D02*
X45381Y-55655D01*
X45381Y-55589D01*
X45370Y-55549D01*
X45350Y-55522D01*
X45329Y-55509D01*
X45287Y-55495D01*
X45255Y-55495D01*
X45213Y-55509D01*
X45192Y-55522D01*
X45171Y-55549D01*
X45161Y-55589D01*
X45161Y-55655D01*
G54D12*
X38000Y-12500D02*
X75000Y-12500D01*
X30500Y-12500D02*
X37000Y-12500D01*
X52000Y-60000D02*
X15000Y-60000D01*
X59500Y-60000D02*
X53000Y-60000D01*
X38000Y-34300D02*
X38000Y-12500D01*
X45500Y-34300D02*
X38000Y-34300D01*
X45500Y-37500D02*
X45500Y-34300D01*
X53000Y-37500D02*
X45500Y-37500D01*
X53000Y-60000D02*
X53000Y-37500D01*
X52000Y-38200D02*
X52000Y-60000D01*
X44500Y-38200D02*
X52000Y-38200D01*
X44500Y-35000D02*
X44500Y-38200D01*
X37000Y-35000D02*
X44500Y-35000D01*
X37000Y-12500D02*
X37000Y-35000D01*
X15000Y-27500D02*
X15000Y-60000D01*
X30500Y-27500D02*
X15000Y-27500D01*
X30500Y-12500D02*
X30500Y-27500D01*
X75000Y-45000D02*
X75000Y-12500D01*
X59500Y-45000D02*
X75000Y-45000D01*
X59500Y-60000D02*
X59500Y-45000D01*
G54D13*
X62500Y-59579D02*
X62619Y-59541D01*
X62735Y-59492D01*
X62847Y-59434D01*
X62952Y-59366D01*
X63052Y-59289D01*
X63144Y-59203D01*
X63228Y-59110D01*
X63304Y-59010D01*
X63371Y-58903D01*
X63429Y-58792D01*
X63476Y-58675D01*
X63513Y-58555D01*
X63540Y-58432D01*
X63556Y-58308D01*
X63560Y-58183D01*
X63554Y-58057D01*
X63537Y-57933D01*
X63509Y-57810D01*
X60681Y-57802D02*
X60651Y-57926D01*
X60633Y-58052D01*
X60626Y-58180D01*
X60629Y-58307D01*
X60644Y-58434D01*
X60670Y-58559D01*
X60707Y-58681D01*
X60754Y-58800D01*
X60812Y-58914D01*
X60879Y-59023D01*
X60955Y-59125D01*
X61040Y-59221D01*
X61133Y-59308D01*
X61234Y-59388D01*
X61340Y-59458D01*
X61453Y-59518D01*
X61570Y-59569D01*
X61692Y-59609D01*
X62100Y-57550D02*
X63200Y-57550D01*
X62100Y-57550D02*
X61000Y-57550D01*
G54D12*
X64825Y-57025D02*
X64825Y-58175D01*
X64825Y-56725D02*
X65275Y-56725D01*
X64825Y-56875D02*
X65475Y-56875D01*
X64825Y-58475D02*
X65275Y-58475D01*
X64825Y-58325D02*
X65450Y-58325D01*
X65700Y-57225D02*
X65700Y-57975D01*
X65600Y-57025D02*
X64825Y-57025D01*
X64825Y-57025D02*
X64825Y-56600D01*
X65575Y-58175D02*
X64825Y-58175D01*
X64825Y-58175D02*
X64825Y-58600D01*
X65775Y-57600D02*
X65755Y-57799D01*
X65697Y-57990D01*
X65603Y-58167D01*
X65477Y-58322D01*
X65323Y-58449D01*
X65147Y-58544D01*
X64956Y-58604D01*
X64757Y-58624D01*
X64558Y-58606D01*
X64367Y-58550D01*
X64189Y-58457D01*
X64033Y-58332D01*
X63905Y-58179D01*
X63808Y-58003D01*
X63748Y-57813D01*
X63726Y-57614D01*
X63742Y-57415D01*
X63797Y-57223D01*
X63889Y-57045D01*
X64013Y-56888D01*
X64166Y-56759D01*
X64340Y-56661D01*
X64530Y-56599D01*
X64729Y-56576D01*
X64927Y-56591D01*
X65120Y-56645D01*
X65299Y-56735D01*
X65456Y-56858D01*
X65587Y-57010D01*
X65686Y-57184D01*
X65749Y-57373D01*
X65774Y-57572D01*
X65775Y-57600D01*
X67675Y-58175D02*
X67675Y-57025D01*
X67675Y-58475D02*
X67225Y-58475D01*
X67675Y-58325D02*
X67025Y-58325D01*
X67675Y-56725D02*
X67225Y-56725D01*
X67675Y-56875D02*
X67050Y-56875D01*
X66800Y-57975D02*
X66800Y-57225D01*
X66900Y-58175D02*
X67675Y-58175D01*
X67675Y-58175D02*
X67675Y-58600D01*
X66925Y-57025D02*
X67675Y-57025D01*
X67675Y-57025D02*
X67675Y-56600D01*
X68775Y-57600D02*
X68755Y-57799D01*
X68697Y-57990D01*
X68603Y-58167D01*
X68477Y-58322D01*
X68323Y-58449D01*
X68147Y-58544D01*
X67956Y-58604D01*
X67757Y-58624D01*
X67558Y-58606D01*
X67367Y-58550D01*
X67189Y-58457D01*
X67033Y-58332D01*
X66905Y-58179D01*
X66808Y-58003D01*
X66748Y-57813D01*
X66726Y-57614D01*
X66742Y-57415D01*
X66797Y-57223D01*
X66889Y-57045D01*
X67013Y-56888D01*
X67166Y-56759D01*
X67340Y-56661D01*
X67530Y-56599D01*
X67729Y-56576D01*
X67927Y-56591D01*
X68120Y-56645D01*
X68299Y-56735D01*
X68456Y-56858D01*
X68587Y-57010D01*
X68686Y-57184D01*
X68749Y-57373D01*
X68774Y-57572D01*
X68775Y-57600D01*
G54D13*
X15550Y-58700D02*
X19550Y-58700D01*
X15550Y-56200D02*
X19550Y-56200D01*
X15550Y-57200D02*
X15550Y-54950D01*
X15550Y-54950D02*
X17550Y-54950D01*
X17550Y-54950D02*
X19550Y-54950D01*
X19550Y-54950D02*
X19550Y-57200D01*
X17550Y-59450D02*
X19550Y-59450D01*
X19550Y-59450D02*
X19550Y-57200D01*
X17550Y-59450D02*
X15550Y-59450D01*
X15550Y-59450D02*
X15550Y-57200D01*
G54D12*
X62500Y-41625D02*
X62500Y-41875D01*
X62625Y-41750D02*
X62625Y-41500D01*
X62625Y-41500D02*
X62375Y-41750D01*
X62375Y-41750D02*
X62625Y-42000D01*
X62625Y-42000D02*
X62625Y-41750D01*
X61425Y-42475D02*
X61125Y-42475D01*
X61425Y-41025D02*
X61125Y-41025D01*
X61125Y-42475D02*
X61125Y-41025D01*
X61275Y-41025D02*
X61275Y-42475D01*
X62300Y-41025D02*
X61425Y-41025D01*
X61425Y-41025D02*
X61425Y-42475D01*
X61425Y-42475D02*
X62300Y-42475D01*
X62700Y-41025D02*
X63575Y-41025D01*
X63575Y-41025D02*
X63575Y-42475D01*
X63575Y-42475D02*
X62700Y-42475D01*
X66500Y-41625D02*
X66500Y-41875D01*
X66625Y-41750D02*
X66625Y-41500D01*
X66625Y-41500D02*
X66375Y-41750D01*
X66375Y-41750D02*
X66625Y-42000D01*
X66625Y-42000D02*
X66625Y-41750D01*
X65425Y-42475D02*
X65125Y-42475D01*
X65425Y-41025D02*
X65125Y-41025D01*
X65125Y-42475D02*
X65125Y-41025D01*
X65275Y-41025D02*
X65275Y-42475D01*
X66300Y-41025D02*
X65425Y-41025D01*
X65425Y-41025D02*
X65425Y-42475D01*
X65425Y-42475D02*
X66300Y-42475D01*
X66700Y-41025D02*
X67575Y-41025D01*
X67575Y-41025D02*
X67575Y-42475D01*
X67575Y-42475D02*
X66700Y-42475D01*
X70500Y-41625D02*
X70500Y-41875D01*
X70625Y-41750D02*
X70625Y-41500D01*
X70625Y-41500D02*
X70375Y-41750D01*
X70375Y-41750D02*
X70625Y-42000D01*
X70625Y-42000D02*
X70625Y-41750D01*
X69425Y-42475D02*
X69125Y-42475D01*
X69425Y-41025D02*
X69125Y-41025D01*
X69125Y-42475D02*
X69125Y-41025D01*
X69275Y-41025D02*
X69275Y-42475D01*
X70300Y-41025D02*
X69425Y-41025D01*
X69425Y-41025D02*
X69425Y-42475D01*
X69425Y-42475D02*
X70300Y-42475D01*
X70700Y-41025D02*
X71575Y-41025D01*
X71575Y-41025D02*
X71575Y-42475D01*
X71575Y-42475D02*
X70700Y-42475D01*
X71500Y-37625D02*
X71500Y-37875D01*
X71625Y-37750D02*
X71625Y-37500D01*
X71625Y-37500D02*
X71375Y-37750D01*
X71375Y-37750D02*
X71625Y-38000D01*
X71625Y-38000D02*
X71625Y-37750D01*
X70425Y-38475D02*
X70125Y-38475D01*
X70425Y-37025D02*
X70125Y-37025D01*
X70125Y-38475D02*
X70125Y-37025D01*
X70275Y-37025D02*
X70275Y-38475D01*
X71300Y-37025D02*
X70425Y-37025D01*
X70425Y-37025D02*
X70425Y-38475D01*
X70425Y-38475D02*
X71300Y-38475D01*
X71700Y-37025D02*
X72575Y-37025D01*
X72575Y-37025D02*
X72575Y-38475D01*
X72575Y-38475D02*
X71700Y-38475D01*
X71500Y-33625D02*
X71500Y-33875D01*
X71625Y-33750D02*
X71625Y-33500D01*
X71625Y-33500D02*
X71375Y-33750D01*
X71375Y-33750D02*
X71625Y-34000D01*
X71625Y-34000D02*
X71625Y-33750D01*
X70425Y-34475D02*
X70125Y-34475D01*
X70425Y-33025D02*
X70125Y-33025D01*
X70125Y-34475D02*
X70125Y-33025D01*
X70275Y-33025D02*
X70275Y-34475D01*
X71300Y-33025D02*
X70425Y-33025D01*
X70425Y-33025D02*
X70425Y-34475D01*
X70425Y-34475D02*
X71300Y-34475D01*
X71700Y-33025D02*
X72575Y-33025D01*
X72575Y-33025D02*
X72575Y-34475D01*
X72575Y-34475D02*
X71700Y-34475D01*
X71500Y-29625D02*
X71500Y-29875D01*
X71625Y-29750D02*
X71625Y-29500D01*
X71625Y-29500D02*
X71375Y-29750D01*
X71375Y-29750D02*
X71625Y-30000D01*
X71625Y-30000D02*
X71625Y-29750D01*
X70425Y-30475D02*
X70125Y-30475D01*
X70425Y-29025D02*
X70125Y-29025D01*
X70125Y-30475D02*
X70125Y-29025D01*
X70275Y-29025D02*
X70275Y-30475D01*
X71300Y-29025D02*
X70425Y-29025D01*
X70425Y-29025D02*
X70425Y-30475D01*
X70425Y-30475D02*
X71300Y-30475D01*
X71700Y-29025D02*
X72575Y-29025D01*
X72575Y-29025D02*
X72575Y-30475D01*
X72575Y-30475D02*
X71700Y-30475D01*
X71500Y-25625D02*
X71500Y-25875D01*
X71625Y-25750D02*
X71625Y-25500D01*
X71625Y-25500D02*
X71375Y-25750D01*
X71375Y-25750D02*
X71625Y-26000D01*
X71625Y-26000D02*
X71625Y-25750D01*
X70425Y-26475D02*
X70125Y-26475D01*
X70425Y-25025D02*
X70125Y-25025D01*
X70125Y-26475D02*
X70125Y-25025D01*
X70275Y-25025D02*
X70275Y-26475D01*
X71300Y-25025D02*
X70425Y-25025D01*
X70425Y-25025D02*
X70425Y-26475D01*
X70425Y-26475D02*
X71300Y-26475D01*
X71700Y-25025D02*
X72575Y-25025D01*
X72575Y-25025D02*
X72575Y-26475D01*
X72575Y-26475D02*
X71700Y-26475D01*
X71500Y-21625D02*
X71500Y-21875D01*
X71625Y-21750D02*
X71625Y-21500D01*
X71625Y-21500D02*
X71375Y-21750D01*
X71375Y-21750D02*
X71625Y-22000D01*
X71625Y-22000D02*
X71625Y-21750D01*
X70425Y-22475D02*
X70125Y-22475D01*
X70425Y-21025D02*
X70125Y-21025D01*
X70125Y-22475D02*
X70125Y-21025D01*
X70275Y-21025D02*
X70275Y-22475D01*
X71300Y-21025D02*
X70425Y-21025D01*
X70425Y-21025D02*
X70425Y-22475D01*
X70425Y-22475D02*
X71300Y-22475D01*
X71700Y-21025D02*
X72575Y-21025D01*
X72575Y-21025D02*
X72575Y-22475D01*
X72575Y-22475D02*
X71700Y-22475D01*
X63750Y-19625D02*
X63750Y-19375D01*
X63625Y-19500D02*
X63625Y-19750D01*
X63625Y-19750D02*
X63875Y-19500D01*
X63875Y-19500D02*
X63625Y-19250D01*
X63625Y-19250D02*
X63625Y-19500D01*
X64825Y-18775D02*
X65125Y-18775D01*
X64825Y-20225D02*
X65125Y-20225D01*
X65125Y-18775D02*
X65125Y-20225D01*
X64975Y-20225D02*
X64975Y-18775D01*
X63950Y-20225D02*
X64825Y-20225D01*
X64825Y-20225D02*
X64825Y-18775D01*
X64825Y-18775D02*
X63950Y-18775D01*
X63550Y-20225D02*
X62675Y-20225D01*
X62675Y-20225D02*
X62675Y-18775D01*
X62675Y-18775D02*
X63550Y-18775D01*
X48750Y-19375D02*
X48750Y-19625D01*
X48875Y-19500D02*
X48875Y-19250D01*
X48875Y-19250D02*
X48625Y-19500D01*
X48625Y-19500D02*
X48875Y-19750D01*
X48875Y-19750D02*
X48875Y-19500D01*
X47675Y-20225D02*
X47375Y-20225D01*
X47675Y-18775D02*
X47375Y-18775D01*
X47375Y-20225D02*
X47375Y-18775D01*
X47525Y-18775D02*
X47525Y-20225D01*
X48550Y-18775D02*
X47675Y-18775D01*
X47675Y-18775D02*
X47675Y-20225D01*
X47675Y-20225D02*
X48550Y-20225D01*
X48950Y-18775D02*
X49825Y-18775D01*
X49825Y-18775D02*
X49825Y-20225D01*
X49825Y-20225D02*
X48950Y-20225D01*
X63750Y-35375D02*
X63750Y-35625D01*
X63875Y-35500D02*
X63875Y-35250D01*
X63875Y-35250D02*
X63625Y-35500D01*
X63625Y-35500D02*
X63875Y-35750D01*
X63875Y-35750D02*
X63875Y-35500D01*
X62675Y-36225D02*
X62375Y-36225D01*
X62675Y-34775D02*
X62375Y-34775D01*
X62375Y-36225D02*
X62375Y-34775D01*
X62525Y-34775D02*
X62525Y-36225D01*
X63550Y-34775D02*
X62675Y-34775D01*
X62675Y-34775D02*
X62675Y-36225D01*
X62675Y-36225D02*
X63550Y-36225D01*
X63950Y-34775D02*
X64825Y-34775D01*
X64825Y-34775D02*
X64825Y-36225D01*
X64825Y-36225D02*
X63950Y-36225D01*
X63750Y-31375D02*
X63750Y-31625D01*
X63875Y-31500D02*
X63875Y-31250D01*
X63875Y-31250D02*
X63625Y-31500D01*
X63625Y-31500D02*
X63875Y-31750D01*
X63875Y-31750D02*
X63875Y-31500D01*
X62675Y-32225D02*
X62375Y-32225D01*
X62675Y-30775D02*
X62375Y-30775D01*
X62375Y-32225D02*
X62375Y-30775D01*
X62525Y-30775D02*
X62525Y-32225D01*
X63550Y-30775D02*
X62675Y-30775D01*
X62675Y-30775D02*
X62675Y-32225D01*
X62675Y-32225D02*
X63550Y-32225D01*
X63950Y-30775D02*
X64825Y-30775D01*
X64825Y-30775D02*
X64825Y-32225D01*
X64825Y-32225D02*
X63950Y-32225D01*
X63750Y-27375D02*
X63750Y-27625D01*
X63875Y-27500D02*
X63875Y-27250D01*
X63875Y-27250D02*
X63625Y-27500D01*
X63625Y-27500D02*
X63875Y-27750D01*
X63875Y-27750D02*
X63875Y-27500D01*
X62675Y-28225D02*
X62375Y-28225D01*
X62675Y-26775D02*
X62375Y-26775D01*
X62375Y-28225D02*
X62375Y-26775D01*
X62525Y-26775D02*
X62525Y-28225D01*
X63550Y-26775D02*
X62675Y-26775D01*
X62675Y-26775D02*
X62675Y-28225D01*
X62675Y-28225D02*
X63550Y-28225D01*
X63950Y-26775D02*
X64825Y-26775D01*
X64825Y-26775D02*
X64825Y-28225D01*
X64825Y-28225D02*
X63950Y-28225D01*
X63750Y-23375D02*
X63750Y-23625D01*
X63875Y-23500D02*
X63875Y-23250D01*
X63875Y-23250D02*
X63625Y-23500D01*
X63625Y-23500D02*
X63875Y-23750D01*
X63875Y-23750D02*
X63875Y-23500D01*
X62675Y-24225D02*
X62375Y-24225D01*
X62675Y-22775D02*
X62375Y-22775D01*
X62375Y-24225D02*
X62375Y-22775D01*
X62525Y-22775D02*
X62525Y-24225D01*
X63550Y-22775D02*
X62675Y-22775D01*
X62675Y-22775D02*
X62675Y-24225D01*
X62675Y-24225D02*
X63550Y-24225D01*
X63950Y-22775D02*
X64825Y-22775D01*
X64825Y-22775D02*
X64825Y-24225D01*
X64825Y-24225D02*
X63950Y-24225D01*
X48750Y-35375D02*
X48750Y-35625D01*
X48875Y-35500D02*
X48875Y-35250D01*
X48875Y-35250D02*
X48625Y-35500D01*
X48625Y-35500D02*
X48875Y-35750D01*
X48875Y-35750D02*
X48875Y-35500D01*
X47675Y-36225D02*
X47375Y-36225D01*
X47675Y-34775D02*
X47375Y-34775D01*
X47375Y-36225D02*
X47375Y-34775D01*
X47525Y-34775D02*
X47525Y-36225D01*
X48550Y-34775D02*
X47675Y-34775D01*
X47675Y-34775D02*
X47675Y-36225D01*
X47675Y-36225D02*
X48550Y-36225D01*
X48950Y-34775D02*
X49825Y-34775D01*
X49825Y-34775D02*
X49825Y-36225D01*
X49825Y-36225D02*
X48950Y-36225D01*
X48750Y-31375D02*
X48750Y-31625D01*
X48875Y-31500D02*
X48875Y-31250D01*
X48875Y-31250D02*
X48625Y-31500D01*
X48625Y-31500D02*
X48875Y-31750D01*
X48875Y-31750D02*
X48875Y-31500D01*
X47675Y-32225D02*
X47375Y-32225D01*
X47675Y-30775D02*
X47375Y-30775D01*
X47375Y-32225D02*
X47375Y-30775D01*
X47525Y-30775D02*
X47525Y-32225D01*
X48550Y-30775D02*
X47675Y-30775D01*
X47675Y-30775D02*
X47675Y-32225D01*
X47675Y-32225D02*
X48550Y-32225D01*
X48950Y-30775D02*
X49825Y-30775D01*
X49825Y-30775D02*
X49825Y-32225D01*
X49825Y-32225D02*
X48950Y-32225D01*
X48750Y-27375D02*
X48750Y-27625D01*
X48875Y-27500D02*
X48875Y-27250D01*
X48875Y-27250D02*
X48625Y-27500D01*
X48625Y-27500D02*
X48875Y-27750D01*
X48875Y-27750D02*
X48875Y-27500D01*
X47675Y-28225D02*
X47375Y-28225D01*
X47675Y-26775D02*
X47375Y-26775D01*
X47375Y-28225D02*
X47375Y-26775D01*
X47525Y-26775D02*
X47525Y-28225D01*
X48550Y-26775D02*
X47675Y-26775D01*
X47675Y-26775D02*
X47675Y-28225D01*
X47675Y-28225D02*
X48550Y-28225D01*
X48950Y-26775D02*
X49825Y-26775D01*
X49825Y-26775D02*
X49825Y-28225D01*
X49825Y-28225D02*
X48950Y-28225D01*
X48750Y-23375D02*
X48750Y-23625D01*
X48875Y-23500D02*
X48875Y-23250D01*
X48875Y-23250D02*
X48625Y-23500D01*
X48625Y-23500D02*
X48875Y-23750D01*
X48875Y-23750D02*
X48875Y-23500D01*
X47675Y-24225D02*
X47375Y-24225D01*
X47675Y-22775D02*
X47375Y-22775D01*
X47375Y-24225D02*
X47375Y-22775D01*
X47525Y-22775D02*
X47525Y-24225D01*
X48550Y-22775D02*
X47675Y-22775D01*
X47675Y-22775D02*
X47675Y-24225D01*
X47675Y-24225D02*
X48550Y-24225D01*
X48950Y-22775D02*
X49825Y-22775D01*
X49825Y-22775D02*
X49825Y-24225D01*
X49825Y-24225D02*
X48950Y-24225D01*
X41250Y-32175D02*
X41250Y-32425D01*
X41375Y-32300D02*
X41375Y-32050D01*
X41375Y-32050D02*
X41125Y-32300D01*
X41125Y-32300D02*
X41375Y-32550D01*
X41375Y-32550D02*
X41375Y-32300D01*
X40175Y-33025D02*
X39875Y-33025D01*
X40175Y-31575D02*
X39875Y-31575D01*
X39875Y-33025D02*
X39875Y-31575D01*
X40025Y-31575D02*
X40025Y-33025D01*
X41050Y-31575D02*
X40175Y-31575D01*
X40175Y-31575D02*
X40175Y-33025D01*
X40175Y-33025D02*
X41050Y-33025D01*
X41450Y-31575D02*
X42325Y-31575D01*
X42325Y-31575D02*
X42325Y-33025D01*
X42325Y-33025D02*
X41450Y-33025D01*
X41250Y-28175D02*
X41250Y-28425D01*
X41375Y-28300D02*
X41375Y-28050D01*
X41375Y-28050D02*
X41125Y-28300D01*
X41125Y-28300D02*
X41375Y-28550D01*
X41375Y-28550D02*
X41375Y-28300D01*
X40175Y-29025D02*
X39875Y-29025D01*
X40175Y-27575D02*
X39875Y-27575D01*
X39875Y-29025D02*
X39875Y-27575D01*
X40025Y-27575D02*
X40025Y-29025D01*
X41050Y-27575D02*
X40175Y-27575D01*
X40175Y-27575D02*
X40175Y-29025D01*
X40175Y-29025D02*
X41050Y-29025D01*
X41450Y-27575D02*
X42325Y-27575D01*
X42325Y-27575D02*
X42325Y-29025D01*
X42325Y-29025D02*
X41450Y-29025D01*
X41250Y-24175D02*
X41250Y-24425D01*
X41375Y-24300D02*
X41375Y-24050D01*
X41375Y-24050D02*
X41125Y-24300D01*
X41125Y-24300D02*
X41375Y-24550D01*
X41375Y-24550D02*
X41375Y-24300D01*
X40175Y-25025D02*
X39875Y-25025D01*
X40175Y-23575D02*
X39875Y-23575D01*
X39875Y-25025D02*
X39875Y-23575D01*
X40025Y-23575D02*
X40025Y-25025D01*
X41050Y-23575D02*
X40175Y-23575D01*
X40175Y-23575D02*
X40175Y-25025D01*
X40175Y-25025D02*
X41050Y-25025D01*
X41450Y-23575D02*
X42325Y-23575D01*
X42325Y-23575D02*
X42325Y-25025D01*
X42325Y-25025D02*
X41450Y-25025D01*
X41250Y-20175D02*
X41250Y-20425D01*
X41375Y-20300D02*
X41375Y-20050D01*
X41375Y-20050D02*
X41125Y-20300D01*
X41125Y-20300D02*
X41375Y-20550D01*
X41375Y-20550D02*
X41375Y-20300D01*
X40175Y-21025D02*
X39875Y-21025D01*
X40175Y-19575D02*
X39875Y-19575D01*
X39875Y-21025D02*
X39875Y-19575D01*
X40025Y-19575D02*
X40025Y-21025D01*
X41050Y-19575D02*
X40175Y-19575D01*
X40175Y-19575D02*
X40175Y-21025D01*
X40175Y-21025D02*
X41050Y-21025D01*
X41450Y-19575D02*
X42325Y-19575D01*
X42325Y-19575D02*
X42325Y-21025D01*
X42325Y-21025D02*
X41450Y-21025D01*
X56250Y-57875D02*
X56250Y-58125D01*
X56375Y-58000D02*
X56375Y-57750D01*
X56375Y-57750D02*
X56125Y-58000D01*
X56125Y-58000D02*
X56375Y-58250D01*
X56375Y-58250D02*
X56375Y-58000D01*
X55175Y-58725D02*
X54875Y-58725D01*
X55175Y-57275D02*
X54875Y-57275D01*
X54875Y-58725D02*
X54875Y-57275D01*
X55025Y-57275D02*
X55025Y-58725D01*
X56050Y-57275D02*
X55175Y-57275D01*
X55175Y-57275D02*
X55175Y-58725D01*
X55175Y-58725D02*
X56050Y-58725D01*
X56450Y-57275D02*
X57325Y-57275D01*
X57325Y-57275D02*
X57325Y-58725D01*
X57325Y-58725D02*
X56450Y-58725D01*
X56250Y-53875D02*
X56250Y-54125D01*
X56375Y-54000D02*
X56375Y-53750D01*
X56375Y-53750D02*
X56125Y-54000D01*
X56125Y-54000D02*
X56375Y-54250D01*
X56375Y-54250D02*
X56375Y-54000D01*
X55175Y-54725D02*
X54875Y-54725D01*
X55175Y-53275D02*
X54875Y-53275D01*
X54875Y-54725D02*
X54875Y-53275D01*
X55025Y-53275D02*
X55025Y-54725D01*
X56050Y-53275D02*
X55175Y-53275D01*
X55175Y-53275D02*
X55175Y-54725D01*
X55175Y-54725D02*
X56050Y-54725D01*
X56450Y-53275D02*
X57325Y-53275D01*
X57325Y-53275D02*
X57325Y-54725D01*
X57325Y-54725D02*
X56450Y-54725D01*
X56250Y-49875D02*
X56250Y-50125D01*
X56375Y-50000D02*
X56375Y-49750D01*
X56375Y-49750D02*
X56125Y-50000D01*
X56125Y-50000D02*
X56375Y-50250D01*
X56375Y-50250D02*
X56375Y-50000D01*
X55175Y-50725D02*
X54875Y-50725D01*
X55175Y-49275D02*
X54875Y-49275D01*
X54875Y-50725D02*
X54875Y-49275D01*
X55025Y-49275D02*
X55025Y-50725D01*
X56050Y-49275D02*
X55175Y-49275D01*
X55175Y-49275D02*
X55175Y-50725D01*
X55175Y-50725D02*
X56050Y-50725D01*
X56450Y-49275D02*
X57325Y-49275D01*
X57325Y-49275D02*
X57325Y-50725D01*
X57325Y-50725D02*
X56450Y-50725D01*
X56250Y-45875D02*
X56250Y-46125D01*
X56375Y-46000D02*
X56375Y-45750D01*
X56375Y-45750D02*
X56125Y-46000D01*
X56125Y-46000D02*
X56375Y-46250D01*
X56375Y-46250D02*
X56375Y-46000D01*
X55175Y-46725D02*
X54875Y-46725D01*
X55175Y-45275D02*
X54875Y-45275D01*
X54875Y-46725D02*
X54875Y-45275D01*
X55025Y-45275D02*
X55025Y-46725D01*
X56050Y-45275D02*
X55175Y-45275D01*
X55175Y-45275D02*
X55175Y-46725D01*
X55175Y-46725D02*
X56050Y-46725D01*
X56450Y-45275D02*
X57325Y-45275D01*
X57325Y-45275D02*
X57325Y-46725D01*
X57325Y-46725D02*
X56450Y-46725D01*
X56250Y-41875D02*
X56250Y-42125D01*
X56375Y-42000D02*
X56375Y-41750D01*
X56375Y-41750D02*
X56125Y-42000D01*
X56125Y-42000D02*
X56375Y-42250D01*
X56375Y-42250D02*
X56375Y-42000D01*
X55175Y-42725D02*
X54875Y-42725D01*
X55175Y-41275D02*
X54875Y-41275D01*
X54875Y-42725D02*
X54875Y-41275D01*
X55025Y-41275D02*
X55025Y-42725D01*
X56050Y-41275D02*
X55175Y-41275D01*
X55175Y-41275D02*
X55175Y-42725D01*
X55175Y-42725D02*
X56050Y-42725D01*
X56450Y-41275D02*
X57325Y-41275D01*
X57325Y-41275D02*
X57325Y-42725D01*
X57325Y-42725D02*
X56450Y-42725D01*
X56250Y-37875D02*
X56250Y-38125D01*
X56375Y-38000D02*
X56375Y-37750D01*
X56375Y-37750D02*
X56125Y-38000D01*
X56125Y-38000D02*
X56375Y-38250D01*
X56375Y-38250D02*
X56375Y-38000D01*
X55175Y-38725D02*
X54875Y-38725D01*
X55175Y-37275D02*
X54875Y-37275D01*
X54875Y-38725D02*
X54875Y-37275D01*
X55025Y-37275D02*
X55025Y-38725D01*
X56050Y-37275D02*
X55175Y-37275D01*
X55175Y-37275D02*
X55175Y-38725D01*
X55175Y-38725D02*
X56050Y-38725D01*
X56450Y-37275D02*
X57325Y-37275D01*
X57325Y-37275D02*
X57325Y-38725D01*
X57325Y-38725D02*
X56450Y-38725D01*
X56250Y-33875D02*
X56250Y-34125D01*
X56375Y-34000D02*
X56375Y-33750D01*
X56375Y-33750D02*
X56125Y-34000D01*
X56125Y-34000D02*
X56375Y-34250D01*
X56375Y-34250D02*
X56375Y-34000D01*
X55175Y-34725D02*
X54875Y-34725D01*
X55175Y-33275D02*
X54875Y-33275D01*
X54875Y-34725D02*
X54875Y-33275D01*
X55025Y-33275D02*
X55025Y-34725D01*
X56050Y-33275D02*
X55175Y-33275D01*
X55175Y-33275D02*
X55175Y-34725D01*
X55175Y-34725D02*
X56050Y-34725D01*
X56450Y-33275D02*
X57325Y-33275D01*
X57325Y-33275D02*
X57325Y-34725D01*
X57325Y-34725D02*
X56450Y-34725D01*
X56250Y-29875D02*
X56250Y-30125D01*
X56375Y-30000D02*
X56375Y-29750D01*
X56375Y-29750D02*
X56125Y-30000D01*
X56125Y-30000D02*
X56375Y-30250D01*
X56375Y-30250D02*
X56375Y-30000D01*
X55175Y-30725D02*
X54875Y-30725D01*
X55175Y-29275D02*
X54875Y-29275D01*
X54875Y-30725D02*
X54875Y-29275D01*
X55025Y-29275D02*
X55025Y-30725D01*
X56050Y-29275D02*
X55175Y-29275D01*
X55175Y-29275D02*
X55175Y-30725D01*
X55175Y-30725D02*
X56050Y-30725D01*
X56450Y-29275D02*
X57325Y-29275D01*
X57325Y-29275D02*
X57325Y-30725D01*
X57325Y-30725D02*
X56450Y-30725D01*
G54D10*
X29450Y-54750D02*
X29700Y-54750D01*
X29450Y-54750D02*
X29200Y-54750D01*
X29400Y-54550D02*
X29500Y-54550D01*
X29350Y-54500D02*
X29550Y-54500D01*
X29450Y-54650D02*
X29550Y-54450D01*
X29450Y-54650D02*
X29350Y-54450D01*
X29450Y-54750D02*
X29300Y-54450D01*
X29300Y-54450D02*
X29600Y-54450D01*
X29600Y-54450D02*
X29450Y-54750D01*
X29750Y-55350D02*
X29750Y-55275D01*
X29800Y-55350D02*
X29800Y-55225D01*
X29650Y-55350D02*
X29850Y-55350D01*
X29850Y-55350D02*
X29850Y-55150D01*
X29150Y-55350D02*
X29150Y-55275D01*
X29100Y-55350D02*
X29100Y-55225D01*
X29250Y-55350D02*
X29050Y-55350D01*
X29050Y-55350D02*
X29050Y-55150D01*
X29850Y-55150D02*
X29650Y-55350D01*
X29650Y-55350D02*
X29450Y-55350D01*
X29450Y-55350D02*
X29250Y-55350D01*
X29250Y-55350D02*
X29050Y-55150D01*
X29050Y-54200D02*
X29050Y-53850D01*
X29050Y-53850D02*
X29850Y-53850D01*
X29850Y-53850D02*
X29850Y-54200D01*
X29050Y-54825D02*
X29050Y-55150D01*
X29850Y-54825D02*
X29850Y-55150D01*
G54D13*
X26980Y-57840D02*
X26030Y-57840D01*
X26030Y-57840D02*
X26030Y-56940D01*
X26030Y-56940D02*
X26980Y-56940D01*
X26980Y-56940D02*
X27930Y-56940D01*
X27930Y-56940D02*
X27930Y-57840D01*
X27930Y-57840D02*
X26980Y-57840D01*
G54D11*
X28360Y-59895D02*
X28360Y-57135D01*
X28360Y-57135D02*
X28260Y-57135D01*
X28260Y-57135D02*
X28260Y-58315D01*
X28260Y-58315D02*
X25700Y-58315D01*
X25700Y-58315D02*
X25700Y-57135D01*
X25700Y-57135D02*
X25600Y-57135D01*
X25600Y-57135D02*
X25600Y-59895D01*
X25600Y-59895D02*
X28360Y-59895D01*
G54D13*
X21980Y-57840D02*
X21030Y-57840D01*
X21030Y-57840D02*
X21030Y-56940D01*
X21030Y-56940D02*
X21980Y-56940D01*
X21980Y-56940D02*
X22930Y-56940D01*
X22930Y-56940D02*
X22930Y-57840D01*
X22930Y-57840D02*
X21980Y-57840D01*
G54D11*
X23360Y-59895D02*
X23360Y-57135D01*
X23360Y-57135D02*
X23260Y-57135D01*
X23260Y-57135D02*
X23260Y-58315D01*
X23260Y-58315D02*
X20700Y-58315D01*
X20700Y-58315D02*
X20700Y-57135D01*
X20700Y-57135D02*
X20600Y-57135D01*
X20600Y-57135D02*
X20600Y-59895D01*
X20600Y-59895D02*
X23360Y-59895D01*
G54D12*
X36900Y-37175D02*
X36900Y-37675D01*
X36900Y-37675D02*
X37900Y-37675D01*
X37900Y-37675D02*
X37900Y-37425D01*
X37900Y-37425D02*
X38150Y-37675D01*
X38150Y-37675D02*
X38400Y-37675D01*
X38400Y-37675D02*
X38650Y-37675D01*
X38650Y-37675D02*
X38900Y-37425D01*
X38900Y-37425D02*
X39150Y-37675D01*
X39150Y-37675D02*
X39650Y-37675D01*
X39650Y-37675D02*
X39900Y-37425D01*
X39900Y-37425D02*
X39900Y-36925D01*
X39900Y-36925D02*
X39650Y-36675D01*
X39650Y-36675D02*
X39150Y-36675D01*
X39150Y-36675D02*
X38900Y-36925D01*
X38900Y-36925D02*
X38650Y-36675D01*
X38650Y-36675D02*
X38150Y-36675D01*
X38150Y-36675D02*
X37900Y-36925D01*
X37900Y-36925D02*
X37900Y-36675D01*
X37900Y-36675D02*
X36900Y-36675D01*
X36900Y-36675D02*
X36900Y-37175D01*
X15975Y-43675D02*
X15575Y-43675D01*
X15575Y-43675D02*
X15575Y-46325D01*
X15575Y-46325D02*
X15975Y-46325D01*
X19025Y-43575D02*
X20575Y-43575D01*
X20575Y-43575D02*
X20575Y-46425D01*
X20575Y-46425D02*
X19025Y-46425D01*
X15975Y-47175D02*
X15575Y-47175D01*
X15575Y-47175D02*
X15575Y-49825D01*
X15575Y-49825D02*
X15975Y-49825D01*
X19025Y-47075D02*
X20575Y-47075D01*
X20575Y-47075D02*
X20575Y-49925D01*
X20575Y-49925D02*
X19025Y-49925D01*
G54D10*
X36250Y-59000D02*
X36750Y-59000D01*
X36250Y-56000D02*
X36750Y-56000D01*
X37000Y-56750D02*
X37000Y-56250D01*
X37000Y-57750D02*
X37000Y-57250D01*
X37000Y-58750D02*
X37000Y-58250D01*
X36000Y-58250D02*
X36000Y-58750D01*
X36000Y-57250D02*
X36000Y-57750D01*
X36000Y-56250D02*
X36000Y-56750D01*
X36000Y-58750D02*
X36250Y-59000D01*
X36000Y-57750D02*
X36250Y-58000D01*
X36250Y-58000D02*
X36000Y-58250D01*
X36000Y-56750D02*
X36250Y-57000D01*
X36250Y-57000D02*
X36000Y-57250D01*
X36250Y-56000D02*
X36000Y-56250D01*
X37000Y-56250D02*
X36750Y-56000D01*
X37000Y-57250D02*
X36750Y-57000D01*
X36750Y-57000D02*
X37000Y-56750D01*
X37000Y-58250D02*
X36750Y-58000D01*
X36750Y-58000D02*
X37000Y-57750D01*
X36750Y-59000D02*
X37000Y-58750D01*
X30375Y-59000D02*
X30875Y-59000D01*
X30375Y-56000D02*
X30875Y-56000D01*
X31125Y-56750D02*
X31125Y-56250D01*
X31125Y-57750D02*
X31125Y-57250D01*
X31125Y-58750D02*
X31125Y-58250D01*
X30125Y-58250D02*
X30125Y-58750D01*
X30125Y-57250D02*
X30125Y-57750D01*
X30125Y-56250D02*
X30125Y-56750D01*
X30125Y-58750D02*
X30375Y-59000D01*
X30125Y-57750D02*
X30375Y-58000D01*
X30375Y-58000D02*
X30125Y-58250D01*
X30125Y-56750D02*
X30375Y-57000D01*
X30375Y-57000D02*
X30125Y-57250D01*
X30375Y-56000D02*
X30125Y-56250D01*
X31125Y-56250D02*
X30875Y-56000D01*
X31125Y-57250D02*
X30875Y-57000D01*
X30875Y-57000D02*
X31125Y-56750D01*
X31125Y-58250D02*
X30875Y-58000D01*
X30875Y-58000D02*
X31125Y-57750D01*
X30875Y-59000D02*
X31125Y-58750D01*
G54D13*
X51500Y-58250D02*
X51500Y-57750D01*
X46500Y-58250D02*
X46500Y-57750D01*
X46500Y-58250D02*
X46750Y-58500D01*
X46750Y-58500D02*
X47250Y-58500D01*
X47250Y-58500D02*
X47500Y-58250D01*
X47500Y-58250D02*
X47750Y-58500D01*
X47750Y-58500D02*
X48250Y-58500D01*
X48250Y-58500D02*
X48500Y-58250D01*
X48500Y-58250D02*
X48750Y-58500D01*
X48750Y-58500D02*
X49250Y-58500D01*
X49250Y-58500D02*
X49500Y-58250D01*
X49500Y-58250D02*
X49750Y-58500D01*
X49750Y-58500D02*
X50250Y-58500D01*
X50250Y-58500D02*
X50500Y-58250D01*
X50500Y-58250D02*
X50750Y-58500D01*
X50750Y-58500D02*
X51250Y-58500D01*
X51250Y-58500D02*
X51500Y-58250D01*
X51500Y-57750D02*
X51250Y-57500D01*
X51250Y-57500D02*
X50750Y-57500D01*
X50750Y-57500D02*
X50500Y-57750D01*
X50500Y-57750D02*
X50250Y-57500D01*
X50250Y-57500D02*
X49750Y-57500D01*
X49750Y-57500D02*
X49500Y-57750D01*
X49500Y-57750D02*
X49250Y-57500D01*
X49250Y-57500D02*
X48750Y-57500D01*
X48750Y-57500D02*
X48500Y-57750D01*
X48500Y-57750D02*
X48250Y-57500D01*
X48250Y-57500D02*
X47750Y-57500D01*
X47750Y-57500D02*
X47500Y-57750D01*
X47500Y-57750D02*
X47250Y-57500D01*
X47250Y-57500D02*
X46750Y-57500D01*
X46750Y-57500D02*
X46500Y-57750D01*
X46500Y-57750D02*
X46500Y-57500D01*
X46500Y-57500D02*
X45500Y-57500D01*
X45500Y-57500D02*
X45500Y-58475D01*
X45500Y-58475D02*
X45500Y-58500D01*
X45500Y-58500D02*
X46500Y-58500D01*
X46500Y-58500D02*
X46500Y-58250D01*
X51500Y-59250D02*
X51500Y-58750D01*
X46500Y-59250D02*
X46500Y-58750D01*
X46500Y-59250D02*
X46750Y-59500D01*
X46750Y-59500D02*
X47250Y-59500D01*
X47250Y-59500D02*
X47500Y-59250D01*
X47500Y-59250D02*
X47750Y-59500D01*
X47750Y-59500D02*
X48250Y-59500D01*
X48250Y-59500D02*
X48500Y-59250D01*
X48500Y-59250D02*
X48750Y-59500D01*
X48750Y-59500D02*
X49250Y-59500D01*
X49250Y-59500D02*
X49500Y-59250D01*
X49500Y-59250D02*
X49750Y-59500D01*
X49750Y-59500D02*
X50250Y-59500D01*
X50250Y-59500D02*
X50500Y-59250D01*
X50500Y-59250D02*
X50750Y-59500D01*
X50750Y-59500D02*
X51250Y-59500D01*
X51250Y-59500D02*
X51500Y-59250D01*
X51500Y-58750D02*
X51250Y-58500D01*
X51250Y-58500D02*
X50750Y-58500D01*
X50750Y-58500D02*
X50500Y-58750D01*
X50500Y-58750D02*
X50250Y-58500D01*
X50250Y-58500D02*
X49750Y-58500D01*
X49750Y-58500D02*
X49500Y-58750D01*
X49500Y-58750D02*
X49250Y-58500D01*
X49250Y-58500D02*
X48750Y-58500D01*
X48750Y-58500D02*
X48500Y-58750D01*
X48500Y-58750D02*
X48250Y-58500D01*
X48250Y-58500D02*
X47750Y-58500D01*
X47750Y-58500D02*
X47500Y-58750D01*
X47500Y-58750D02*
X47250Y-58500D01*
X47250Y-58500D02*
X46750Y-58500D01*
X46750Y-58500D02*
X46500Y-58750D01*
X46500Y-58750D02*
X46500Y-58500D01*
X46500Y-58500D02*
X45500Y-58500D01*
X45500Y-58500D02*
X45500Y-59475D01*
X45500Y-59475D02*
X45500Y-59500D01*
X45500Y-59500D02*
X46500Y-59500D01*
X46500Y-59500D02*
X46500Y-59250D01*
G54D10*
X17750Y-50335D02*
X17050Y-50335D01*
X17750Y-51185D02*
X17050Y-51185D01*
X16600Y-50335D02*
X16250Y-50335D01*
X16250Y-51185D02*
X16600Y-51185D01*
X17050Y-51185D02*
X17050Y-50335D01*
X17750Y-51185D02*
X17750Y-50335D01*
X16250Y-51185D02*
X16250Y-50335D01*
X21865Y-49700D02*
X21865Y-49000D01*
X21015Y-49700D02*
X21015Y-49000D01*
X21865Y-48550D02*
X21865Y-48200D01*
X21015Y-48200D02*
X21015Y-48550D01*
X21015Y-49000D02*
X21865Y-49000D01*
X21015Y-49700D02*
X21865Y-49700D01*
X21015Y-48200D02*
X21865Y-48200D01*
X29025Y-58050D02*
X29025Y-58750D01*
X29875Y-58050D02*
X29875Y-58750D01*
X29025Y-59200D02*
X29025Y-59550D01*
X29875Y-59550D02*
X29875Y-59200D01*
X29875Y-58750D02*
X29025Y-58750D01*
X29875Y-58050D02*
X29025Y-58050D01*
X29875Y-59550D02*
X29025Y-59550D01*
X21015Y-43800D02*
X21015Y-44500D01*
X21865Y-43800D02*
X21865Y-44500D01*
X21015Y-44950D02*
X21015Y-45300D01*
X21865Y-45300D02*
X21865Y-44950D01*
X21865Y-44500D02*
X21015Y-44500D01*
X21865Y-43800D02*
X21015Y-43800D01*
X21865Y-45300D02*
X21015Y-45300D01*
X17924Y-52301D02*
X17879Y-52222D01*
X17827Y-52147D01*
X17769Y-52078D01*
X17705Y-52013D01*
X17636Y-51955D01*
X17562Y-51902D01*
X17484Y-51856D01*
X17402Y-51818D01*
X17317Y-51786D01*
X17230Y-51762D01*
X17141Y-51746D01*
X17050Y-51738D01*
X16961Y-51737D01*
X16870Y-51745D01*
X16781Y-51760D01*
X16693Y-51783D01*
X16608Y-51814D01*
X16526Y-51851D01*
X17474Y-51851D02*
X17392Y-51814D01*
X17307Y-51783D01*
X17219Y-51760D01*
X17130Y-51745D01*
X17039Y-51737D01*
X16950Y-51738D01*
X16859Y-51746D01*
X16770Y-51762D01*
X16683Y-51786D01*
X16598Y-51818D01*
X16516Y-51856D01*
X16438Y-51902D01*
X16364Y-51955D01*
X16295Y-52013D01*
X16231Y-52078D01*
X16173Y-52147D01*
X16121Y-52222D01*
X16076Y-52301D01*
X17800Y-51725D02*
X15950Y-51725D01*
X16551Y-53699D02*
X16634Y-53735D01*
X16719Y-53763D01*
X16806Y-53784D01*
X16895Y-53797D01*
X16984Y-53802D01*
X17073Y-53800D01*
X17162Y-53790D01*
X17250Y-53772D01*
X17336Y-53746D01*
X17419Y-53713D01*
X17499Y-53673D01*
X17576Y-53626D01*
X17648Y-53572D01*
X17715Y-53513D01*
X17777Y-53448D01*
X17832Y-53377D01*
X17882Y-53302D01*
X17924Y-53224D01*
X16076Y-53199D02*
X16115Y-53278D01*
X16160Y-53354D01*
X16211Y-53425D01*
X16269Y-53491D01*
X16332Y-53553D01*
X16400Y-53608D01*
X16473Y-53657D01*
X16550Y-53700D01*
X16630Y-53736D01*
X16713Y-53765D01*
X16798Y-53786D01*
X16885Y-53800D01*
X16972Y-53806D01*
X17059Y-53805D01*
X17147Y-53796D01*
X17233Y-53779D01*
X17317Y-53755D01*
X17399Y-53724D01*
X15950Y-53825D02*
X15950Y-53175D01*
X15950Y-51725D02*
X15950Y-52325D01*
X18050Y-51975D02*
X18050Y-52350D01*
X18050Y-53575D02*
X18050Y-53200D01*
X18050Y-53575D02*
X17800Y-53825D01*
X17800Y-53825D02*
X17000Y-53825D01*
X18050Y-51975D02*
X17800Y-51725D01*
X15950Y-53825D02*
X17000Y-53825D01*
G54D13*
X36725Y-53100D02*
X36900Y-53100D01*
X36725Y-53200D02*
X37000Y-53200D01*
X37100Y-53300D02*
X36725Y-52925D01*
X37225Y-53225D02*
X37975Y-53225D01*
X37975Y-53125D02*
X37225Y-53125D01*
X37225Y-53025D02*
X37975Y-53025D01*
X37975Y-53300D02*
X37975Y-52925D01*
X37975Y-52925D02*
X37225Y-52925D01*
X37225Y-52925D02*
X37225Y-53300D01*
X36725Y-38300D02*
X38475Y-38300D01*
X36725Y-53300D02*
X38475Y-53300D01*
X38475Y-53300D02*
X38475Y-38300D01*
X36725Y-38300D02*
X36725Y-53300D01*
G54D10*
X37200Y-59100D02*
X37100Y-59100D01*
X37100Y-58900D02*
X37200Y-58900D01*
X37300Y-58950D02*
X37100Y-58950D01*
X37100Y-59050D02*
X37300Y-59050D01*
X37400Y-59000D02*
X37100Y-59150D01*
X37100Y-59150D02*
X37100Y-58850D01*
X37100Y-58850D02*
X37400Y-59000D01*
X37400Y-59000D02*
X37100Y-59000D01*
X38350Y-59475D02*
X38350Y-59425D01*
X38400Y-59475D02*
X38400Y-59375D01*
X38450Y-59475D02*
X38450Y-59325D01*
X37650Y-59475D02*
X37650Y-59425D01*
X37600Y-59475D02*
X37600Y-59375D01*
X37550Y-59475D02*
X37550Y-59325D01*
X37650Y-58525D02*
X37650Y-58575D01*
X37600Y-58525D02*
X37600Y-58625D01*
X37550Y-58525D02*
X37550Y-58675D01*
X38350Y-58525D02*
X38350Y-58575D01*
X38400Y-58525D02*
X38400Y-58600D01*
X38450Y-58525D02*
X38450Y-58675D01*
X38250Y-59500D02*
X38475Y-59500D01*
X38475Y-59500D02*
X38500Y-59500D01*
X38500Y-59500D02*
X38500Y-59275D01*
X37500Y-59250D02*
X37500Y-59500D01*
X37500Y-59500D02*
X37750Y-59500D01*
X38500Y-58750D02*
X38500Y-58500D01*
X38500Y-58500D02*
X38250Y-58500D01*
X37500Y-58750D02*
X37500Y-58500D01*
X37500Y-58500D02*
X37750Y-58500D01*
X38500Y-59250D02*
X38500Y-58750D01*
X37500Y-59250D02*
X37500Y-58750D01*
X37500Y-58750D02*
X37750Y-58500D01*
X37750Y-58500D02*
X38250Y-58500D01*
X38250Y-58500D02*
X38500Y-58750D01*
X38500Y-58750D02*
X38750Y-58500D01*
X38750Y-58500D02*
X39250Y-58500D01*
X39250Y-58500D02*
X39500Y-58750D01*
X39500Y-58750D02*
X39750Y-58500D01*
X39750Y-58500D02*
X40250Y-58500D01*
X40250Y-58500D02*
X40500Y-58750D01*
X40500Y-58750D02*
X40750Y-58500D01*
X40750Y-58500D02*
X41250Y-58500D01*
X41250Y-58500D02*
X41500Y-58750D01*
X41500Y-58750D02*
X41750Y-58500D01*
X41750Y-58500D02*
X42250Y-58500D01*
X42250Y-58500D02*
X42500Y-58750D01*
X42500Y-58750D02*
X42750Y-58500D01*
X42750Y-58500D02*
X43250Y-58500D01*
X43250Y-58500D02*
X43500Y-58750D01*
X43500Y-58750D02*
X43500Y-59250D01*
X43500Y-59250D02*
X43250Y-59500D01*
X43250Y-59500D02*
X42750Y-59500D01*
X42750Y-59500D02*
X42500Y-59250D01*
X42500Y-59250D02*
X42250Y-59500D01*
X42250Y-59500D02*
X41750Y-59500D01*
X41750Y-59500D02*
X41500Y-59250D01*
X41500Y-59250D02*
X41250Y-59500D01*
X41250Y-59500D02*
X40750Y-59500D01*
X40750Y-59500D02*
X40500Y-59250D01*
X40500Y-59250D02*
X40250Y-59500D01*
X40250Y-59500D02*
X39750Y-59500D01*
X39750Y-59500D02*
X39500Y-59250D01*
X39500Y-59250D02*
X39250Y-59500D01*
X39250Y-59500D02*
X38750Y-59500D01*
X38750Y-59500D02*
X38500Y-59250D01*
X38500Y-59250D02*
X38250Y-59500D01*
X38250Y-59500D02*
X37750Y-59500D01*
X37750Y-59500D02*
X37500Y-59250D01*
X40100Y-58450D02*
X40100Y-58350D01*
X39900Y-58450D02*
X39900Y-58350D01*
X40050Y-58450D02*
X40050Y-58250D01*
X39950Y-58450D02*
X39950Y-58250D01*
X40000Y-58150D02*
X40000Y-58450D01*
X40000Y-58150D02*
X40150Y-58450D01*
X40150Y-58450D02*
X39850Y-58450D01*
X39850Y-58450D02*
X40000Y-58150D01*
X39650Y-57000D02*
X39650Y-57100D01*
X39600Y-57000D02*
X39600Y-57150D01*
X39550Y-57000D02*
X39550Y-57200D01*
X40350Y-57000D02*
X40350Y-57100D01*
X40400Y-57000D02*
X40400Y-57150D01*
X40450Y-57000D02*
X40450Y-57200D01*
X40350Y-58000D02*
X40350Y-57900D01*
X40400Y-58000D02*
X40400Y-57850D01*
X40450Y-58000D02*
X40450Y-57800D01*
X39650Y-58000D02*
X39650Y-57900D01*
X39600Y-58000D02*
X39600Y-57850D01*
X39550Y-58000D02*
X39550Y-57800D01*
X39500Y-57250D02*
X39750Y-57000D01*
X40250Y-57000D02*
X40500Y-57250D01*
X39500Y-57000D02*
X39750Y-57000D01*
X39750Y-57000D02*
X40250Y-57000D01*
X40250Y-57000D02*
X40500Y-57000D01*
X39500Y-57000D02*
X39500Y-57250D01*
X39500Y-57250D02*
X39500Y-57750D01*
X40250Y-58000D02*
X40500Y-58000D01*
X40500Y-58000D02*
X40500Y-57750D01*
X39500Y-57750D02*
X39500Y-58000D01*
X39500Y-58000D02*
X39750Y-58000D01*
X38250Y-56000D02*
X37750Y-56000D01*
X39250Y-56000D02*
X38750Y-56000D01*
X40250Y-56000D02*
X39750Y-56000D01*
X40500Y-57750D02*
X40500Y-56250D01*
X39750Y-58000D02*
X40250Y-58000D01*
X38750Y-58000D02*
X39250Y-58000D01*
X37750Y-58000D02*
X38250Y-58000D01*
X37500Y-56250D02*
X37500Y-57750D01*
X40250Y-58000D02*
X40500Y-57750D01*
X39250Y-58000D02*
X39500Y-57750D01*
X39500Y-57750D02*
X39750Y-58000D01*
X38250Y-58000D02*
X38500Y-57750D01*
X38500Y-57750D02*
X38750Y-58000D01*
X37500Y-57750D02*
X37750Y-58000D01*
X37750Y-56000D02*
X37500Y-56250D01*
X38750Y-56000D02*
X38500Y-56250D01*
X38500Y-56250D02*
X38250Y-56000D01*
X39750Y-56000D02*
X39500Y-56250D01*
X39500Y-56250D02*
X39250Y-56000D01*
X40500Y-56250D02*
X40250Y-56000D01*
G54D12*
X45000Y-58750D02*
X44750Y-58500D01*
X45000Y-59250D02*
X45000Y-58750D01*
X44750Y-59500D02*
X45000Y-59250D01*
X44250Y-59500D02*
X44750Y-59500D01*
X44000Y-59250D02*
X44250Y-59500D01*
X44000Y-58750D02*
X44000Y-59250D01*
X44250Y-58500D02*
X44000Y-58750D01*
X44500Y-55500D02*
X44000Y-55500D01*
X44000Y-55500D02*
X44000Y-56500D01*
X44000Y-56500D02*
X44250Y-56500D01*
X44250Y-56500D02*
X44000Y-56750D01*
X44000Y-56750D02*
X44000Y-57000D01*
X44000Y-57000D02*
X44000Y-57250D01*
X44000Y-57250D02*
X44250Y-57500D01*
X44250Y-57500D02*
X44000Y-57750D01*
X44000Y-57750D02*
X44000Y-58250D01*
X44000Y-58250D02*
X44250Y-58500D01*
X44750Y-58500D02*
X45000Y-58250D01*
X45000Y-58250D02*
X45000Y-57750D01*
X45000Y-57750D02*
X44750Y-57500D01*
X44750Y-57500D02*
X45000Y-57250D01*
X45000Y-57250D02*
X45000Y-56750D01*
X45000Y-56750D02*
X44750Y-56500D01*
X44750Y-56500D02*
X45000Y-56500D01*
X45000Y-56500D02*
X45000Y-55500D01*
X45000Y-55500D02*
X44500Y-55500D01*
G54D10*
X42450Y-57925D02*
X41825Y-57925D01*
X41825Y-57925D02*
X41825Y-57075D01*
X41825Y-57075D02*
X42450Y-57075D01*
X42750Y-57075D02*
X43350Y-57075D01*
X43350Y-57075D02*
X43375Y-57075D01*
X43375Y-57075D02*
X43375Y-57925D01*
X43375Y-57925D02*
X42750Y-57925D01*
X42450Y-56925D02*
X41825Y-56925D01*
X41825Y-56925D02*
X41825Y-56075D01*
X41825Y-56075D02*
X42450Y-56075D01*
X42750Y-56075D02*
X43350Y-56075D01*
X43350Y-56075D02*
X43375Y-56075D01*
X43375Y-56075D02*
X43375Y-56925D01*
X43375Y-56925D02*
X42750Y-56925D01*
X30500Y-54450D02*
X30500Y-53825D01*
X30500Y-53825D02*
X31350Y-53825D01*
X31350Y-53825D02*
X31350Y-54450D01*
X31350Y-54750D02*
X31350Y-55350D01*
X31350Y-55350D02*
X31350Y-55375D01*
X31350Y-55375D02*
X30500Y-55375D01*
X30500Y-55375D02*
X30500Y-54750D01*
X24055Y-58790D02*
X24055Y-58165D01*
X24055Y-58165D02*
X24905Y-58165D01*
X24905Y-58165D02*
X24905Y-58790D01*
X24905Y-59090D02*
X24905Y-59690D01*
X24905Y-59690D02*
X24905Y-59715D01*
X24905Y-59715D02*
X24055Y-59715D01*
X24055Y-59715D02*
X24055Y-59090D01*
X24055Y-57040D02*
X24055Y-56415D01*
X24055Y-56415D02*
X24905Y-56415D01*
X24905Y-56415D02*
X24905Y-57040D01*
X24905Y-57340D02*
X24905Y-57940D01*
X24905Y-57940D02*
X24905Y-57965D01*
X24905Y-57965D02*
X24055Y-57965D01*
X24055Y-57965D02*
X24055Y-57340D01*
G54D13*
X31675Y-44950D02*
X31550Y-44825D01*
X31550Y-44725D02*
X31775Y-44950D01*
X32450Y-44850D02*
X32050Y-44850D01*
X32450Y-44750D02*
X32050Y-44750D01*
X32050Y-44650D02*
X32450Y-44650D01*
X32050Y-44650D02*
X32050Y-44950D01*
X32450Y-44650D02*
X32450Y-44950D01*
X32950Y-40650D02*
X31550Y-40650D01*
X32950Y-40650D02*
X32950Y-40875D01*
X31550Y-40650D02*
X31550Y-40875D01*
X31550Y-44950D02*
X31550Y-44725D01*
X32950Y-44950D02*
X32950Y-44725D01*
X31550Y-44950D02*
X32950Y-44950D01*
G54D12*
X34960Y-37605D02*
X30160Y-37605D01*
X34960Y-34555D02*
X30160Y-34555D01*
X34960Y-37305D02*
X34660Y-37605D01*
X34810Y-35880D02*
X34810Y-36280D01*
X34660Y-36280D02*
X34960Y-36280D01*
X34660Y-35880D02*
X34960Y-35880D01*
X34660Y-35880D02*
X34660Y-36280D01*
X30160Y-34555D02*
X30160Y-37605D01*
X34960Y-34555D02*
X34960Y-37605D01*
G54D11*
X17025Y-54350D02*
X17025Y-54425D01*
X16975Y-54275D02*
X16975Y-54475D01*
X16925Y-54225D02*
X16925Y-54525D01*
X16875Y-54375D02*
X16875Y-54575D01*
X16875Y-54575D02*
X17075Y-54375D01*
X17075Y-54375D02*
X16875Y-54175D01*
X16875Y-54175D02*
X16875Y-54375D01*
X17600Y-54075D02*
X17725Y-54075D01*
X17725Y-54075D02*
X17725Y-54675D01*
X17725Y-54675D02*
X17600Y-54675D01*
X16850Y-54675D02*
X16225Y-54675D01*
X16225Y-54675D02*
X16225Y-54075D01*
X16225Y-54075D02*
X16850Y-54075D01*
G54D13*
X32590Y-47400D02*
X30590Y-47400D01*
X32590Y-46400D02*
X30590Y-46400D01*
X30590Y-46400D02*
X30547Y-46402D01*
X30504Y-46408D01*
X30461Y-46418D01*
X30419Y-46431D01*
X30379Y-46447D01*
X30341Y-46467D01*
X30304Y-46491D01*
X30269Y-46517D01*
X30237Y-46547D01*
X30207Y-46579D01*
X30181Y-46614D01*
X30157Y-46651D01*
X30137Y-46689D01*
X30121Y-46729D01*
X30108Y-46771D01*
X30098Y-46814D01*
X30092Y-46857D01*
X30090Y-46900D01*
X30090Y-46900D02*
X30092Y-46943D01*
X30098Y-46986D01*
X30108Y-47029D01*
X30121Y-47071D01*
X30137Y-47111D01*
X30157Y-47149D01*
X30181Y-47186D01*
X30207Y-47221D01*
X30237Y-47253D01*
X30269Y-47283D01*
X30304Y-47309D01*
X30340Y-47333D01*
X30379Y-47353D01*
X30419Y-47369D01*
X30461Y-47382D01*
X30504Y-47392D01*
X30547Y-47398D01*
X30590Y-47400D01*
X33090Y-46900D02*
X33088Y-46857D01*
X33082Y-46814D01*
X33072Y-46771D01*
X33059Y-46729D01*
X33043Y-46689D01*
X33023Y-46651D01*
X32999Y-46614D01*
X32973Y-46579D01*
X32943Y-46547D01*
X32911Y-46517D01*
X32876Y-46491D01*
X32840Y-46467D01*
X32801Y-46447D01*
X32761Y-46431D01*
X32719Y-46418D01*
X32676Y-46408D01*
X32633Y-46402D01*
X32590Y-46400D01*
X32590Y-47400D02*
X32633Y-47398D01*
X32676Y-47392D01*
X32719Y-47382D01*
X32761Y-47369D01*
X32801Y-47353D01*
X32840Y-47333D01*
X32876Y-47309D01*
X32911Y-47283D01*
X32943Y-47253D01*
X32973Y-47221D01*
X32999Y-47186D01*
X33023Y-47149D01*
X33043Y-47111D01*
X33059Y-47071D01*
X33072Y-47029D01*
X33082Y-46986D01*
X33088Y-46943D01*
X33090Y-46900D01*
G54D10*
X39450Y-29925D02*
X40075Y-29925D01*
X40075Y-29925D02*
X40075Y-30775D01*
X40075Y-30775D02*
X39450Y-30775D01*
X39150Y-30775D02*
X38550Y-30775D01*
X38550Y-30775D02*
X38525Y-30775D01*
X38525Y-30775D02*
X38525Y-29925D01*
X38525Y-29925D02*
X39150Y-29925D01*
X46950Y-25075D02*
X47575Y-25075D01*
X47575Y-25075D02*
X47575Y-25925D01*
X47575Y-25925D02*
X46950Y-25925D01*
X46650Y-25925D02*
X46050Y-25925D01*
X46050Y-25925D02*
X46025Y-25925D01*
X46025Y-25925D02*
X46025Y-25075D01*
X46025Y-25075D02*
X46650Y-25075D01*
X46950Y-33075D02*
X47575Y-33075D01*
X47575Y-33075D02*
X47575Y-33925D01*
X47575Y-33925D02*
X46950Y-33925D01*
X46650Y-33925D02*
X46050Y-33925D01*
X46050Y-33925D02*
X46025Y-33925D01*
X46025Y-33925D02*
X46025Y-33075D01*
X46025Y-33075D02*
X46650Y-33075D01*
X39450Y-21875D02*
X40075Y-21875D01*
X40075Y-21875D02*
X40075Y-22725D01*
X40075Y-22725D02*
X39450Y-22725D01*
X39150Y-22725D02*
X38550Y-22725D01*
X38550Y-22725D02*
X38525Y-22725D01*
X38525Y-22725D02*
X38525Y-21875D01*
X38525Y-21875D02*
X39150Y-21875D01*
X61950Y-25075D02*
X62575Y-25075D01*
X62575Y-25075D02*
X62575Y-25925D01*
X62575Y-25925D02*
X61950Y-25925D01*
X61650Y-25925D02*
X61050Y-25925D01*
X61050Y-25925D02*
X61025Y-25925D01*
X61025Y-25925D02*
X61025Y-25075D01*
X61025Y-25075D02*
X61650Y-25075D01*
X61950Y-32975D02*
X62575Y-32975D01*
X62575Y-32975D02*
X62575Y-33825D01*
X62575Y-33825D02*
X61950Y-33825D01*
X61650Y-33825D02*
X61050Y-33825D01*
X61050Y-33825D02*
X61025Y-33825D01*
X61025Y-33825D02*
X61025Y-32975D01*
X61025Y-32975D02*
X61650Y-32975D01*
X69700Y-19100D02*
X70325Y-19100D01*
X70325Y-19100D02*
X70325Y-19950D01*
X70325Y-19950D02*
X69700Y-19950D01*
X69400Y-19950D02*
X68800Y-19950D01*
X68800Y-19950D02*
X68775Y-19950D01*
X68775Y-19950D02*
X68775Y-19100D01*
X68775Y-19100D02*
X69400Y-19100D01*
X69700Y-23325D02*
X70325Y-23325D01*
X70325Y-23325D02*
X70325Y-24175D01*
X70325Y-24175D02*
X69700Y-24175D01*
X69400Y-24175D02*
X68800Y-24175D01*
X68800Y-24175D02*
X68775Y-24175D01*
X68775Y-24175D02*
X68775Y-23325D01*
X68775Y-23325D02*
X69400Y-23325D01*
X68650Y-39275D02*
X69275Y-39275D01*
X69275Y-39275D02*
X69275Y-40125D01*
X69275Y-40125D02*
X68650Y-40125D01*
X68350Y-40125D02*
X67750Y-40125D01*
X67750Y-40125D02*
X67725Y-40125D01*
X67725Y-40125D02*
X67725Y-39275D01*
X67725Y-39275D02*
X68350Y-39275D01*
X64225Y-40125D02*
X63600Y-40125D01*
X63600Y-40125D02*
X63600Y-39275D01*
X63600Y-39275D02*
X64225Y-39275D01*
X64525Y-39275D02*
X65125Y-39275D01*
X65125Y-39275D02*
X65150Y-39275D01*
X65150Y-39275D02*
X65150Y-40125D01*
X65150Y-40125D02*
X64525Y-40125D01*
X54450Y-55575D02*
X55075Y-55575D01*
X55075Y-55575D02*
X55075Y-56425D01*
X55075Y-56425D02*
X54450Y-56425D01*
X54150Y-56425D02*
X53550Y-56425D01*
X53550Y-56425D02*
X53525Y-56425D01*
X53525Y-56425D02*
X53525Y-55575D01*
X53525Y-55575D02*
X54150Y-55575D01*
X54450Y-51575D02*
X55075Y-51575D01*
X55075Y-51575D02*
X55075Y-52425D01*
X55075Y-52425D02*
X54450Y-52425D01*
X54150Y-52425D02*
X53550Y-52425D01*
X53550Y-52425D02*
X53525Y-52425D01*
X53525Y-52425D02*
X53525Y-51575D01*
X53525Y-51575D02*
X54150Y-51575D01*
X54450Y-43575D02*
X55075Y-43575D01*
X55075Y-43575D02*
X55075Y-44425D01*
X55075Y-44425D02*
X54450Y-44425D01*
X54150Y-44425D02*
X53550Y-44425D01*
X53550Y-44425D02*
X53525Y-44425D01*
X53525Y-44425D02*
X53525Y-43575D01*
X53525Y-43575D02*
X54150Y-43575D01*
X54450Y-39575D02*
X55075Y-39575D01*
X55075Y-39575D02*
X55075Y-40425D01*
X55075Y-40425D02*
X54450Y-40425D01*
X54150Y-40425D02*
X53550Y-40425D01*
X53550Y-40425D02*
X53525Y-40425D01*
X53525Y-40425D02*
X53525Y-39575D01*
X53525Y-39575D02*
X54150Y-39575D01*
X54450Y-35575D02*
X55075Y-35575D01*
X55075Y-35575D02*
X55075Y-36425D01*
X55075Y-36425D02*
X54450Y-36425D01*
X54150Y-36425D02*
X53550Y-36425D01*
X53550Y-36425D02*
X53525Y-36425D01*
X53525Y-36425D02*
X53525Y-35575D01*
X53525Y-35575D02*
X54150Y-35575D01*
X54450Y-31575D02*
X55075Y-31575D01*
X55075Y-31575D02*
X55075Y-32425D01*
X55075Y-32425D02*
X54450Y-32425D01*
X54150Y-32425D02*
X53550Y-32425D01*
X53550Y-32425D02*
X53525Y-32425D01*
X53525Y-32425D02*
X53525Y-31575D01*
X53525Y-31575D02*
X54150Y-31575D01*
X54450Y-27575D02*
X55075Y-27575D01*
X55075Y-27575D02*
X55075Y-28425D01*
X55075Y-28425D02*
X54450Y-28425D01*
X54150Y-28425D02*
X53550Y-28425D01*
X53550Y-28425D02*
X53525Y-28425D01*
X53525Y-28425D02*
X53525Y-27575D01*
X53525Y-27575D02*
X54150Y-27575D01*
X54450Y-47575D02*
X55075Y-47575D01*
X55075Y-47575D02*
X55075Y-48425D01*
X55075Y-48425D02*
X54450Y-48425D01*
X54150Y-48425D02*
X53550Y-48425D01*
X53550Y-48425D02*
X53525Y-48425D01*
X53525Y-48425D02*
X53525Y-47575D01*
X53525Y-47575D02*
X54150Y-47575D01*
X69700Y-31325D02*
X70325Y-31325D01*
X70325Y-31325D02*
X70325Y-32175D01*
X70325Y-32175D02*
X69700Y-32175D01*
X69400Y-32175D02*
X68800Y-32175D01*
X68800Y-32175D02*
X68775Y-32175D01*
X68775Y-32175D02*
X68775Y-31325D01*
X68775Y-31325D02*
X69400Y-31325D01*
G54D12*
X62250Y-47000D02*
X62250Y-48200D01*
X73250Y-46950D02*
X73250Y-48200D01*
X63000Y-46200D02*
X72500Y-46200D01*
X72500Y-46200D02*
X73250Y-46950D01*
X63000Y-46200D02*
X62250Y-47000D01*
X66303Y-55975D02*
X66690Y-56085D01*
X67085Y-56160D01*
X67485Y-56201D01*
X67886Y-56206D01*
X68287Y-56177D01*
X68684Y-56113D01*
X69074Y-56014D01*
X69454Y-55882D01*
X69820Y-55717D01*
X70171Y-55521D01*
X70504Y-55295D01*
X70816Y-55041D01*
X71104Y-54760D01*
X71367Y-54456D01*
X71602Y-54130D01*
X71808Y-53785D01*
X71983Y-53423D01*
X72125Y-53047D01*
X63375Y-53021D02*
X63515Y-53397D01*
X63688Y-53760D01*
X63892Y-54105D01*
X64125Y-54432D01*
X64386Y-54737D01*
X64672Y-55019D01*
X64982Y-55274D01*
X65312Y-55501D01*
X65662Y-55699D01*
X66027Y-55865D01*
X66405Y-55999D01*
X66794Y-56100D01*
X67190Y-56166D01*
X67590Y-56198D01*
X67990Y-56194D01*
X68390Y-56156D01*
X68784Y-56083D01*
X69171Y-55975D01*
X62250Y-48200D02*
X63375Y-49100D01*
X73250Y-48200D02*
X72125Y-49100D01*
X72125Y-51600D02*
X72125Y-49100D01*
X63375Y-51600D02*
X63375Y-49100D01*
X72125Y-51600D02*
X72125Y-53025D01*
X63375Y-51600D02*
X63375Y-53025D01*
X71750Y-51600D02*
X71673Y-52376D01*
X71448Y-53124D01*
X71081Y-53813D01*
X70588Y-54418D01*
X69986Y-54916D01*
X69300Y-55287D01*
X68554Y-55518D01*
X67777Y-55599D01*
X67001Y-55529D01*
X66252Y-55308D01*
X65560Y-54947D01*
X64952Y-54457D01*
X64450Y-53859D01*
X64074Y-53175D01*
X63838Y-52431D01*
X63751Y-51655D01*
X63816Y-50878D01*
X64031Y-50128D01*
X64388Y-49434D01*
X64873Y-48822D01*
X65468Y-48316D01*
X66149Y-47935D01*
X66892Y-47694D01*
X67667Y-47601D01*
X68444Y-47661D01*
X69196Y-47871D01*
X69893Y-48223D01*
X70508Y-48704D01*
X71018Y-49295D01*
X71404Y-49974D01*
X71650Y-50714D01*
X71748Y-51489D01*
X71750Y-51600D01*
G54D10*
X41775Y-36750D02*
X42400Y-36750D01*
X42400Y-36750D02*
X42400Y-37600D01*
X42400Y-37600D02*
X41775Y-37600D01*
X41475Y-37600D02*
X40875Y-37600D01*
X40875Y-37600D02*
X40850Y-37600D01*
X40850Y-37600D02*
X40850Y-36750D01*
X40850Y-36750D02*
X41475Y-36750D01*
X40900Y-38625D02*
X41600Y-38625D01*
X40900Y-37775D02*
X41600Y-37775D01*
X42050Y-38625D02*
X42400Y-38625D01*
X42400Y-37775D02*
X42050Y-37775D01*
X41600Y-37775D02*
X41600Y-38625D01*
X40900Y-37775D02*
X40900Y-38625D01*
X42400Y-37775D02*
X42400Y-38625D01*
G54D11*
X62129Y-57400D02*
X62157Y-57386D01*
X62186Y-57357D01*
X62229Y-57314D01*
X62257Y-57300D01*
X62286Y-57300D01*
X62271Y-57371D02*
X62300Y-57357D01*
X62329Y-57329D01*
X62343Y-57271D01*
X62343Y-57171D01*
X62329Y-57114D01*
X62300Y-57086D01*
X62271Y-57071D01*
X62214Y-57071D01*
X62186Y-57086D01*
X62157Y-57114D01*
X62143Y-57171D01*
X62143Y-57271D01*
X62157Y-57329D01*
X62186Y-57357D01*
X62214Y-57371D01*
X62271Y-57371D01*
X62029Y-57100D02*
X62015Y-57086D01*
X61986Y-57071D01*
X61915Y-57071D01*
X61886Y-57086D01*
X61872Y-57100D01*
X61857Y-57129D01*
X61857Y-57157D01*
X61872Y-57200D01*
X62043Y-57371D01*
X61857Y-57371D01*
X65115Y-59196D02*
X65115Y-58896D01*
X65043Y-58896D01*
X65000Y-58911D01*
X64972Y-58939D01*
X64957Y-58968D01*
X64943Y-59025D01*
X64943Y-59068D01*
X64957Y-59125D01*
X64972Y-59154D01*
X65000Y-59182D01*
X65043Y-59196D01*
X65115Y-59196D01*
X64686Y-58896D02*
X64743Y-58896D01*
X64772Y-58911D01*
X64786Y-58925D01*
X64815Y-58968D01*
X64829Y-59025D01*
X64829Y-59139D01*
X64815Y-59168D01*
X64800Y-59182D01*
X64772Y-59196D01*
X64715Y-59196D01*
X64686Y-59182D01*
X64672Y-59168D01*
X64657Y-59139D01*
X64657Y-59068D01*
X64672Y-59039D01*
X64686Y-59025D01*
X64715Y-59011D01*
X64772Y-59011D01*
X64800Y-59025D01*
X64815Y-59039D01*
X64829Y-59068D01*
X64543Y-58925D02*
X64529Y-58911D01*
X64500Y-58896D01*
X64429Y-58896D01*
X64400Y-58911D01*
X64386Y-58925D01*
X64371Y-58954D01*
X64371Y-58982D01*
X64386Y-59025D01*
X64557Y-59196D01*
X64371Y-59196D01*
X68115Y-59196D02*
X68115Y-58896D01*
X68043Y-58896D01*
X68000Y-58911D01*
X67972Y-58939D01*
X67957Y-58968D01*
X67943Y-59025D01*
X67943Y-59068D01*
X67957Y-59125D01*
X67972Y-59154D01*
X68000Y-59182D01*
X68043Y-59196D01*
X68115Y-59196D01*
X67686Y-58896D02*
X67743Y-58896D01*
X67772Y-58911D01*
X67786Y-58925D01*
X67815Y-58968D01*
X67829Y-59025D01*
X67829Y-59139D01*
X67815Y-59168D01*
X67800Y-59182D01*
X67772Y-59196D01*
X67715Y-59196D01*
X67686Y-59182D01*
X67672Y-59168D01*
X67657Y-59139D01*
X67657Y-59068D01*
X67672Y-59039D01*
X67686Y-59025D01*
X67715Y-59011D01*
X67772Y-59011D01*
X67800Y-59025D01*
X67815Y-59039D01*
X67829Y-59068D01*
X67400Y-58996D02*
X67400Y-59196D01*
X67471Y-58882D02*
X67543Y-59096D01*
X67357Y-59096D01*
X15247Y-57321D02*
X15247Y-57021D01*
X15132Y-57021D01*
X15104Y-57036D01*
X15089Y-57050D01*
X15075Y-57079D01*
X15075Y-57121D01*
X15089Y-57150D01*
X15104Y-57164D01*
X15132Y-57179D01*
X15247Y-57179D01*
X14975Y-57021D02*
X14775Y-57021D01*
X14904Y-57321D01*
X18415Y-55539D02*
X18372Y-55554D01*
X18357Y-55568D01*
X18343Y-55596D01*
X18343Y-55639D01*
X18357Y-55668D01*
X18372Y-55682D01*
X18400Y-55696D01*
X18515Y-55696D01*
X18515Y-55396D01*
X18415Y-55396D01*
X18386Y-55411D01*
X18372Y-55425D01*
X18357Y-55454D01*
X18357Y-55482D01*
X18372Y-55511D01*
X18386Y-55525D01*
X18415Y-55539D01*
X18515Y-55539D01*
X18229Y-55611D02*
X18086Y-55611D01*
X18257Y-55696D02*
X18157Y-55396D01*
X18057Y-55696D01*
X18000Y-55396D02*
X17829Y-55396D01*
X17915Y-55696D02*
X17915Y-55396D01*
X17771Y-55396D02*
X17600Y-55396D01*
X17686Y-55696D02*
X17686Y-55396D01*
X17571Y-55725D02*
X17342Y-55725D01*
X17113Y-55696D02*
X17285Y-55696D01*
X17199Y-55696D02*
X17199Y-55396D01*
X17228Y-55439D01*
X17256Y-55468D01*
X17285Y-55482D01*
X16999Y-55425D02*
X16985Y-55411D01*
X16956Y-55396D01*
X16885Y-55396D01*
X16856Y-55411D01*
X16842Y-55425D01*
X16827Y-55454D01*
X16827Y-55482D01*
X16842Y-55525D01*
X17013Y-55696D01*
X16827Y-55696D01*
X16741Y-55396D02*
X16641Y-55696D01*
X16541Y-55396D01*
X64071Y-41035D02*
X63771Y-41035D01*
X63771Y-41107D01*
X63786Y-41150D01*
X63814Y-41178D01*
X63843Y-41193D01*
X63900Y-41207D01*
X63943Y-41207D01*
X64000Y-41193D01*
X64029Y-41178D01*
X64057Y-41150D01*
X64071Y-41107D01*
X64071Y-41035D01*
X63800Y-41321D02*
X63786Y-41335D01*
X63771Y-41364D01*
X63771Y-41435D01*
X63786Y-41464D01*
X63800Y-41478D01*
X63829Y-41493D01*
X63857Y-41493D01*
X63900Y-41478D01*
X64071Y-41307D01*
X64071Y-41493D01*
X63771Y-41593D02*
X63771Y-41779D01*
X63886Y-41679D01*
X63886Y-41721D01*
X63900Y-41750D01*
X63914Y-41764D01*
X63943Y-41779D01*
X64014Y-41779D01*
X64043Y-41764D01*
X64057Y-41750D01*
X64071Y-41721D01*
X64071Y-41636D01*
X64057Y-41607D01*
X64043Y-41593D01*
X68071Y-41035D02*
X67771Y-41035D01*
X67771Y-41107D01*
X67786Y-41150D01*
X67814Y-41178D01*
X67843Y-41193D01*
X67900Y-41207D01*
X67943Y-41207D01*
X68000Y-41193D01*
X68029Y-41178D01*
X68057Y-41150D01*
X68071Y-41107D01*
X68071Y-41035D01*
X67800Y-41321D02*
X67786Y-41335D01*
X67771Y-41364D01*
X67771Y-41435D01*
X67786Y-41464D01*
X67800Y-41478D01*
X67829Y-41493D01*
X67857Y-41493D01*
X67900Y-41478D01*
X68071Y-41307D01*
X68071Y-41493D01*
X67871Y-41750D02*
X68071Y-41750D01*
X67757Y-41679D02*
X67971Y-41607D01*
X67971Y-41793D01*
X72071Y-41035D02*
X71771Y-41035D01*
X71771Y-41107D01*
X71786Y-41150D01*
X71814Y-41178D01*
X71843Y-41193D01*
X71900Y-41207D01*
X71943Y-41207D01*
X72000Y-41193D01*
X72029Y-41178D01*
X72057Y-41150D01*
X72071Y-41107D01*
X72071Y-41035D01*
X71800Y-41321D02*
X71786Y-41335D01*
X71771Y-41364D01*
X71771Y-41435D01*
X71786Y-41464D01*
X71800Y-41478D01*
X71829Y-41493D01*
X71857Y-41493D01*
X71900Y-41478D01*
X72071Y-41307D01*
X72071Y-41493D01*
X71771Y-41764D02*
X71771Y-41621D01*
X71914Y-41607D01*
X71900Y-41621D01*
X71886Y-41650D01*
X71886Y-41721D01*
X71900Y-41750D01*
X71914Y-41764D01*
X71943Y-41779D01*
X72014Y-41779D01*
X72043Y-41764D01*
X72057Y-41750D01*
X72071Y-41721D01*
X72071Y-41650D01*
X72057Y-41621D01*
X72043Y-41607D01*
X73071Y-37035D02*
X72771Y-37035D01*
X72771Y-37107D01*
X72786Y-37150D01*
X72814Y-37178D01*
X72843Y-37193D01*
X72900Y-37207D01*
X72943Y-37207D01*
X73000Y-37193D01*
X73029Y-37178D01*
X73057Y-37150D01*
X73071Y-37107D01*
X73071Y-37035D01*
X72800Y-37321D02*
X72786Y-37335D01*
X72771Y-37364D01*
X72771Y-37435D01*
X72786Y-37464D01*
X72800Y-37478D01*
X72829Y-37493D01*
X72857Y-37493D01*
X72900Y-37478D01*
X73071Y-37307D01*
X73071Y-37493D01*
X72771Y-37750D02*
X72771Y-37693D01*
X72786Y-37664D01*
X72800Y-37650D01*
X72843Y-37621D01*
X72900Y-37607D01*
X73014Y-37607D01*
X73043Y-37621D01*
X73057Y-37636D01*
X73071Y-37664D01*
X73071Y-37721D01*
X73057Y-37750D01*
X73043Y-37764D01*
X73014Y-37779D01*
X72943Y-37779D01*
X72914Y-37764D01*
X72900Y-37750D01*
X72886Y-37721D01*
X72886Y-37664D01*
X72900Y-37636D01*
X72914Y-37621D01*
X72943Y-37607D01*
X73071Y-33035D02*
X72771Y-33035D01*
X72771Y-33107D01*
X72786Y-33150D01*
X72814Y-33178D01*
X72843Y-33193D01*
X72900Y-33207D01*
X72943Y-33207D01*
X73000Y-33193D01*
X73029Y-33178D01*
X73057Y-33150D01*
X73071Y-33107D01*
X73071Y-33035D01*
X72800Y-33321D02*
X72786Y-33335D01*
X72771Y-33364D01*
X72771Y-33435D01*
X72786Y-33464D01*
X72800Y-33478D01*
X72829Y-33493D01*
X72857Y-33493D01*
X72900Y-33478D01*
X73071Y-33307D01*
X73071Y-33493D01*
X72771Y-33593D02*
X72771Y-33793D01*
X73071Y-33664D01*
X73071Y-29035D02*
X72771Y-29035D01*
X72771Y-29107D01*
X72786Y-29150D01*
X72814Y-29178D01*
X72843Y-29193D01*
X72900Y-29207D01*
X72943Y-29207D01*
X73000Y-29193D01*
X73029Y-29178D01*
X73057Y-29150D01*
X73071Y-29107D01*
X73071Y-29035D01*
X72800Y-29321D02*
X72786Y-29335D01*
X72771Y-29364D01*
X72771Y-29435D01*
X72786Y-29464D01*
X72800Y-29478D01*
X72829Y-29493D01*
X72857Y-29493D01*
X72900Y-29478D01*
X73071Y-29307D01*
X73071Y-29493D01*
X72900Y-29664D02*
X72886Y-29636D01*
X72871Y-29621D01*
X72843Y-29607D01*
X72829Y-29607D01*
X72800Y-29621D01*
X72786Y-29636D01*
X72771Y-29664D01*
X72771Y-29721D01*
X72786Y-29750D01*
X72800Y-29764D01*
X72829Y-29779D01*
X72843Y-29779D01*
X72871Y-29764D01*
X72886Y-29750D01*
X72900Y-29721D01*
X72900Y-29664D01*
X72914Y-29636D01*
X72929Y-29621D01*
X72957Y-29607D01*
X73014Y-29607D01*
X73043Y-29621D01*
X73057Y-29636D01*
X73071Y-29664D01*
X73071Y-29721D01*
X73057Y-29750D01*
X73043Y-29764D01*
X73014Y-29779D01*
X72957Y-29779D01*
X72929Y-29764D01*
X72914Y-29750D01*
X72900Y-29721D01*
X73071Y-25035D02*
X72771Y-25035D01*
X72771Y-25107D01*
X72786Y-25150D01*
X72814Y-25178D01*
X72843Y-25193D01*
X72900Y-25207D01*
X72943Y-25207D01*
X73000Y-25193D01*
X73029Y-25178D01*
X73057Y-25150D01*
X73071Y-25107D01*
X73071Y-25035D01*
X72800Y-25321D02*
X72786Y-25335D01*
X72771Y-25364D01*
X72771Y-25435D01*
X72786Y-25464D01*
X72800Y-25478D01*
X72829Y-25493D01*
X72857Y-25493D01*
X72900Y-25478D01*
X73071Y-25307D01*
X73071Y-25493D01*
X73071Y-25636D02*
X73071Y-25693D01*
X73057Y-25721D01*
X73043Y-25736D01*
X73000Y-25764D01*
X72943Y-25779D01*
X72829Y-25779D01*
X72800Y-25764D01*
X72786Y-25750D01*
X72771Y-25721D01*
X72771Y-25664D01*
X72786Y-25636D01*
X72800Y-25621D01*
X72829Y-25607D01*
X72900Y-25607D01*
X72929Y-25621D01*
X72943Y-25636D01*
X72957Y-25664D01*
X72957Y-25721D01*
X72943Y-25750D01*
X72929Y-25764D01*
X72900Y-25779D01*
X73071Y-21035D02*
X72771Y-21035D01*
X72771Y-21107D01*
X72786Y-21150D01*
X72814Y-21178D01*
X72843Y-21193D01*
X72900Y-21207D01*
X72943Y-21207D01*
X73000Y-21193D01*
X73029Y-21178D01*
X73057Y-21150D01*
X73071Y-21107D01*
X73071Y-21035D01*
X72771Y-21307D02*
X72771Y-21493D01*
X72886Y-21393D01*
X72886Y-21435D01*
X72900Y-21464D01*
X72914Y-21478D01*
X72943Y-21493D01*
X73014Y-21493D01*
X73043Y-21478D01*
X73057Y-21464D01*
X73071Y-21435D01*
X73071Y-21350D01*
X73057Y-21321D01*
X73043Y-21307D01*
X72771Y-21679D02*
X72771Y-21707D01*
X72786Y-21736D01*
X72800Y-21750D01*
X72829Y-21764D01*
X72886Y-21779D01*
X72957Y-21779D01*
X73014Y-21764D01*
X73043Y-21750D01*
X73057Y-21736D01*
X73071Y-21707D01*
X73071Y-21679D01*
X73057Y-21650D01*
X73043Y-21636D01*
X73014Y-21621D01*
X72957Y-21607D01*
X72886Y-21607D01*
X72829Y-21621D01*
X72800Y-21636D01*
X72786Y-21650D01*
X72771Y-21679D01*
X62421Y-19485D02*
X62121Y-19485D01*
X62121Y-19557D01*
X62136Y-19600D01*
X62164Y-19628D01*
X62193Y-19643D01*
X62250Y-19657D01*
X62293Y-19657D01*
X62350Y-19643D01*
X62379Y-19628D01*
X62407Y-19600D01*
X62421Y-19557D01*
X62421Y-19485D01*
X62121Y-19757D02*
X62121Y-19943D01*
X62236Y-19843D01*
X62236Y-19885D01*
X62250Y-19914D01*
X62264Y-19928D01*
X62293Y-19943D01*
X62364Y-19943D01*
X62393Y-19928D01*
X62407Y-19914D01*
X62421Y-19885D01*
X62421Y-19800D01*
X62407Y-19771D01*
X62393Y-19757D01*
X62421Y-20229D02*
X62421Y-20057D01*
X62421Y-20143D02*
X62121Y-20143D01*
X62164Y-20114D01*
X62193Y-20086D01*
X62207Y-20057D01*
X50321Y-18785D02*
X50021Y-18785D01*
X50021Y-18857D01*
X50036Y-18900D01*
X50064Y-18928D01*
X50093Y-18943D01*
X50150Y-18957D01*
X50193Y-18957D01*
X50250Y-18943D01*
X50279Y-18928D01*
X50307Y-18900D01*
X50321Y-18857D01*
X50321Y-18785D01*
X50021Y-19057D02*
X50021Y-19243D01*
X50136Y-19143D01*
X50136Y-19185D01*
X50150Y-19214D01*
X50164Y-19228D01*
X50193Y-19243D01*
X50264Y-19243D01*
X50293Y-19228D01*
X50307Y-19214D01*
X50321Y-19185D01*
X50321Y-19100D01*
X50307Y-19071D01*
X50293Y-19057D01*
X50050Y-19357D02*
X50036Y-19371D01*
X50021Y-19400D01*
X50021Y-19471D01*
X50036Y-19500D01*
X50050Y-19514D01*
X50079Y-19529D01*
X50107Y-19529D01*
X50150Y-19514D01*
X50321Y-19343D01*
X50321Y-19529D01*
X65321Y-34785D02*
X65021Y-34785D01*
X65021Y-34857D01*
X65036Y-34900D01*
X65064Y-34928D01*
X65093Y-34943D01*
X65150Y-34957D01*
X65193Y-34957D01*
X65250Y-34943D01*
X65279Y-34928D01*
X65307Y-34900D01*
X65321Y-34857D01*
X65321Y-34785D01*
X65021Y-35057D02*
X65021Y-35243D01*
X65136Y-35143D01*
X65136Y-35185D01*
X65150Y-35214D01*
X65164Y-35228D01*
X65193Y-35243D01*
X65264Y-35243D01*
X65293Y-35228D01*
X65307Y-35214D01*
X65321Y-35185D01*
X65321Y-35100D01*
X65307Y-35071D01*
X65293Y-35057D01*
X65021Y-35343D02*
X65021Y-35529D01*
X65136Y-35429D01*
X65136Y-35471D01*
X65150Y-35500D01*
X65164Y-35514D01*
X65193Y-35529D01*
X65264Y-35529D01*
X65293Y-35514D01*
X65307Y-35500D01*
X65321Y-35471D01*
X65321Y-35386D01*
X65307Y-35357D01*
X65293Y-35343D01*
X65321Y-30785D02*
X65021Y-30785D01*
X65021Y-30857D01*
X65036Y-30900D01*
X65064Y-30928D01*
X65093Y-30943D01*
X65150Y-30957D01*
X65193Y-30957D01*
X65250Y-30943D01*
X65279Y-30928D01*
X65307Y-30900D01*
X65321Y-30857D01*
X65321Y-30785D01*
X65021Y-31057D02*
X65021Y-31243D01*
X65136Y-31143D01*
X65136Y-31185D01*
X65150Y-31214D01*
X65164Y-31228D01*
X65193Y-31243D01*
X65264Y-31243D01*
X65293Y-31228D01*
X65307Y-31214D01*
X65321Y-31185D01*
X65321Y-31100D01*
X65307Y-31071D01*
X65293Y-31057D01*
X65121Y-31500D02*
X65321Y-31500D01*
X65007Y-31429D02*
X65221Y-31357D01*
X65221Y-31543D01*
X65321Y-26785D02*
X65021Y-26785D01*
X65021Y-26857D01*
X65036Y-26900D01*
X65064Y-26928D01*
X65093Y-26943D01*
X65150Y-26957D01*
X65193Y-26957D01*
X65250Y-26943D01*
X65279Y-26928D01*
X65307Y-26900D01*
X65321Y-26857D01*
X65321Y-26785D01*
X65021Y-27057D02*
X65021Y-27243D01*
X65136Y-27143D01*
X65136Y-27185D01*
X65150Y-27214D01*
X65164Y-27228D01*
X65193Y-27243D01*
X65264Y-27243D01*
X65293Y-27228D01*
X65307Y-27214D01*
X65321Y-27185D01*
X65321Y-27100D01*
X65307Y-27071D01*
X65293Y-27057D01*
X65021Y-27514D02*
X65021Y-27371D01*
X65164Y-27357D01*
X65150Y-27371D01*
X65136Y-27400D01*
X65136Y-27471D01*
X65150Y-27500D01*
X65164Y-27514D01*
X65193Y-27529D01*
X65264Y-27529D01*
X65293Y-27514D01*
X65307Y-27500D01*
X65321Y-27471D01*
X65321Y-27400D01*
X65307Y-27371D01*
X65293Y-27357D01*
X65321Y-22785D02*
X65021Y-22785D01*
X65021Y-22857D01*
X65036Y-22900D01*
X65064Y-22928D01*
X65093Y-22943D01*
X65150Y-22957D01*
X65193Y-22957D01*
X65250Y-22943D01*
X65279Y-22928D01*
X65307Y-22900D01*
X65321Y-22857D01*
X65321Y-22785D01*
X65021Y-23057D02*
X65021Y-23243D01*
X65136Y-23143D01*
X65136Y-23185D01*
X65150Y-23214D01*
X65164Y-23228D01*
X65193Y-23243D01*
X65264Y-23243D01*
X65293Y-23228D01*
X65307Y-23214D01*
X65321Y-23185D01*
X65321Y-23100D01*
X65307Y-23071D01*
X65293Y-23057D01*
X65021Y-23500D02*
X65021Y-23443D01*
X65036Y-23414D01*
X65050Y-23400D01*
X65093Y-23371D01*
X65150Y-23357D01*
X65264Y-23357D01*
X65293Y-23371D01*
X65307Y-23386D01*
X65321Y-23414D01*
X65321Y-23471D01*
X65307Y-23500D01*
X65293Y-23514D01*
X65264Y-23529D01*
X65193Y-23529D01*
X65164Y-23514D01*
X65150Y-23500D01*
X65136Y-23471D01*
X65136Y-23414D01*
X65150Y-23386D01*
X65164Y-23371D01*
X65193Y-23357D01*
X50321Y-34785D02*
X50021Y-34785D01*
X50021Y-34857D01*
X50036Y-34900D01*
X50064Y-34928D01*
X50093Y-34943D01*
X50150Y-34957D01*
X50193Y-34957D01*
X50250Y-34943D01*
X50279Y-34928D01*
X50307Y-34900D01*
X50321Y-34857D01*
X50321Y-34785D01*
X50021Y-35057D02*
X50021Y-35243D01*
X50136Y-35143D01*
X50136Y-35185D01*
X50150Y-35214D01*
X50164Y-35228D01*
X50193Y-35243D01*
X50264Y-35243D01*
X50293Y-35228D01*
X50307Y-35214D01*
X50321Y-35185D01*
X50321Y-35100D01*
X50307Y-35071D01*
X50293Y-35057D01*
X50021Y-35343D02*
X50021Y-35543D01*
X50321Y-35414D01*
X50321Y-30785D02*
X50021Y-30785D01*
X50021Y-30857D01*
X50036Y-30900D01*
X50064Y-30928D01*
X50093Y-30943D01*
X50150Y-30957D01*
X50193Y-30957D01*
X50250Y-30943D01*
X50279Y-30928D01*
X50307Y-30900D01*
X50321Y-30857D01*
X50321Y-30785D01*
X50021Y-31057D02*
X50021Y-31243D01*
X50136Y-31143D01*
X50136Y-31185D01*
X50150Y-31214D01*
X50164Y-31228D01*
X50193Y-31243D01*
X50264Y-31243D01*
X50293Y-31228D01*
X50307Y-31214D01*
X50321Y-31185D01*
X50321Y-31100D01*
X50307Y-31071D01*
X50293Y-31057D01*
X50150Y-31414D02*
X50136Y-31386D01*
X50121Y-31371D01*
X50093Y-31357D01*
X50079Y-31357D01*
X50050Y-31371D01*
X50036Y-31386D01*
X50021Y-31414D01*
X50021Y-31471D01*
X50036Y-31500D01*
X50050Y-31514D01*
X50079Y-31529D01*
X50093Y-31529D01*
X50121Y-31514D01*
X50136Y-31500D01*
X50150Y-31471D01*
X50150Y-31414D01*
X50164Y-31386D01*
X50179Y-31371D01*
X50207Y-31357D01*
X50264Y-31357D01*
X50293Y-31371D01*
X50307Y-31386D01*
X50321Y-31414D01*
X50321Y-31471D01*
X50307Y-31500D01*
X50293Y-31514D01*
X50264Y-31529D01*
X50207Y-31529D01*
X50179Y-31514D01*
X50164Y-31500D01*
X50150Y-31471D01*
X50321Y-26785D02*
X50021Y-26785D01*
X50021Y-26857D01*
X50036Y-26900D01*
X50064Y-26928D01*
X50093Y-26943D01*
X50150Y-26957D01*
X50193Y-26957D01*
X50250Y-26943D01*
X50279Y-26928D01*
X50307Y-26900D01*
X50321Y-26857D01*
X50321Y-26785D01*
X50021Y-27057D02*
X50021Y-27243D01*
X50136Y-27143D01*
X50136Y-27185D01*
X50150Y-27214D01*
X50164Y-27228D01*
X50193Y-27243D01*
X50264Y-27243D01*
X50293Y-27228D01*
X50307Y-27214D01*
X50321Y-27185D01*
X50321Y-27100D01*
X50307Y-27071D01*
X50293Y-27057D01*
X50321Y-27386D02*
X50321Y-27443D01*
X50307Y-27471D01*
X50293Y-27486D01*
X50250Y-27514D01*
X50193Y-27529D01*
X50079Y-27529D01*
X50050Y-27514D01*
X50036Y-27500D01*
X50021Y-27471D01*
X50021Y-27414D01*
X50036Y-27386D01*
X50050Y-27371D01*
X50079Y-27357D01*
X50150Y-27357D01*
X50179Y-27371D01*
X50193Y-27386D01*
X50207Y-27414D01*
X50207Y-27471D01*
X50193Y-27500D01*
X50179Y-27514D01*
X50150Y-27529D01*
X50321Y-22785D02*
X50021Y-22785D01*
X50021Y-22857D01*
X50036Y-22900D01*
X50064Y-22928D01*
X50093Y-22943D01*
X50150Y-22957D01*
X50193Y-22957D01*
X50250Y-22943D01*
X50279Y-22928D01*
X50307Y-22900D01*
X50321Y-22857D01*
X50321Y-22785D01*
X50121Y-23214D02*
X50321Y-23214D01*
X50007Y-23143D02*
X50221Y-23071D01*
X50221Y-23257D01*
X50021Y-23429D02*
X50021Y-23457D01*
X50036Y-23486D01*
X50050Y-23500D01*
X50079Y-23514D01*
X50136Y-23529D01*
X50207Y-23529D01*
X50264Y-23514D01*
X50293Y-23500D01*
X50307Y-23486D01*
X50321Y-23457D01*
X50321Y-23429D01*
X50307Y-23400D01*
X50293Y-23386D01*
X50264Y-23371D01*
X50207Y-23357D01*
X50136Y-23357D01*
X50079Y-23371D01*
X50050Y-23386D01*
X50036Y-23400D01*
X50021Y-23429D01*
X42821Y-31585D02*
X42521Y-31585D01*
X42521Y-31657D01*
X42536Y-31700D01*
X42564Y-31728D01*
X42593Y-31743D01*
X42650Y-31757D01*
X42693Y-31757D01*
X42750Y-31743D01*
X42779Y-31728D01*
X42807Y-31700D01*
X42821Y-31657D01*
X42821Y-31585D01*
X42621Y-32014D02*
X42821Y-32014D01*
X42507Y-31943D02*
X42721Y-31871D01*
X42721Y-32057D01*
X42821Y-32329D02*
X42821Y-32157D01*
X42821Y-32243D02*
X42521Y-32243D01*
X42564Y-32214D01*
X42593Y-32186D01*
X42607Y-32157D01*
X42821Y-27585D02*
X42521Y-27585D01*
X42521Y-27657D01*
X42536Y-27700D01*
X42564Y-27728D01*
X42593Y-27743D01*
X42650Y-27757D01*
X42693Y-27757D01*
X42750Y-27743D01*
X42779Y-27728D01*
X42807Y-27700D01*
X42821Y-27657D01*
X42821Y-27585D01*
X42621Y-28014D02*
X42821Y-28014D01*
X42507Y-27943D02*
X42721Y-27871D01*
X42721Y-28057D01*
X42550Y-28157D02*
X42536Y-28171D01*
X42521Y-28200D01*
X42521Y-28271D01*
X42536Y-28300D01*
X42550Y-28314D01*
X42579Y-28329D01*
X42607Y-28329D01*
X42650Y-28314D01*
X42821Y-28143D01*
X42821Y-28329D01*
X42821Y-23585D02*
X42521Y-23585D01*
X42521Y-23657D01*
X42536Y-23700D01*
X42564Y-23728D01*
X42593Y-23743D01*
X42650Y-23757D01*
X42693Y-23757D01*
X42750Y-23743D01*
X42779Y-23728D01*
X42807Y-23700D01*
X42821Y-23657D01*
X42821Y-23585D01*
X42621Y-24014D02*
X42821Y-24014D01*
X42507Y-23943D02*
X42721Y-23871D01*
X42721Y-24057D01*
X42521Y-24143D02*
X42521Y-24329D01*
X42636Y-24229D01*
X42636Y-24271D01*
X42650Y-24300D01*
X42664Y-24314D01*
X42693Y-24329D01*
X42764Y-24329D01*
X42793Y-24314D01*
X42807Y-24300D01*
X42821Y-24271D01*
X42821Y-24186D01*
X42807Y-24157D01*
X42793Y-24143D01*
X42821Y-19585D02*
X42521Y-19585D01*
X42521Y-19657D01*
X42536Y-19700D01*
X42564Y-19728D01*
X42593Y-19743D01*
X42650Y-19757D01*
X42693Y-19757D01*
X42750Y-19743D01*
X42779Y-19728D01*
X42807Y-19700D01*
X42821Y-19657D01*
X42821Y-19585D01*
X42621Y-20014D02*
X42821Y-20014D01*
X42507Y-19943D02*
X42721Y-19871D01*
X42721Y-20057D01*
X42621Y-20300D02*
X42821Y-20300D01*
X42507Y-20229D02*
X42721Y-20157D01*
X42721Y-20343D01*
X57821Y-57285D02*
X57521Y-57285D01*
X57521Y-57357D01*
X57536Y-57400D01*
X57564Y-57428D01*
X57593Y-57443D01*
X57650Y-57457D01*
X57693Y-57457D01*
X57750Y-57443D01*
X57779Y-57428D01*
X57807Y-57400D01*
X57821Y-57357D01*
X57821Y-57285D01*
X57621Y-57714D02*
X57821Y-57714D01*
X57507Y-57643D02*
X57721Y-57571D01*
X57721Y-57757D01*
X57521Y-58014D02*
X57521Y-57871D01*
X57664Y-57857D01*
X57650Y-57871D01*
X57636Y-57900D01*
X57636Y-57971D01*
X57650Y-58000D01*
X57664Y-58014D01*
X57693Y-58029D01*
X57764Y-58029D01*
X57793Y-58014D01*
X57807Y-58000D01*
X57821Y-57971D01*
X57821Y-57900D01*
X57807Y-57871D01*
X57793Y-57857D01*
X57821Y-53285D02*
X57521Y-53285D01*
X57521Y-53357D01*
X57536Y-53400D01*
X57564Y-53428D01*
X57593Y-53443D01*
X57650Y-53457D01*
X57693Y-53457D01*
X57750Y-53443D01*
X57779Y-53428D01*
X57807Y-53400D01*
X57821Y-53357D01*
X57821Y-53285D01*
X57621Y-53714D02*
X57821Y-53714D01*
X57507Y-53643D02*
X57721Y-53571D01*
X57721Y-53757D01*
X57521Y-53843D02*
X57521Y-54043D01*
X57821Y-53914D01*
X57821Y-49285D02*
X57521Y-49285D01*
X57521Y-49357D01*
X57536Y-49400D01*
X57564Y-49428D01*
X57593Y-49443D01*
X57650Y-49457D01*
X57693Y-49457D01*
X57750Y-49443D01*
X57779Y-49428D01*
X57807Y-49400D01*
X57821Y-49357D01*
X57821Y-49285D01*
X57621Y-49714D02*
X57821Y-49714D01*
X57507Y-49643D02*
X57721Y-49571D01*
X57721Y-49757D01*
X57821Y-49886D02*
X57821Y-49943D01*
X57807Y-49971D01*
X57793Y-49986D01*
X57750Y-50014D01*
X57693Y-50029D01*
X57579Y-50029D01*
X57550Y-50014D01*
X57536Y-50000D01*
X57521Y-49971D01*
X57521Y-49914D01*
X57536Y-49886D01*
X57550Y-49871D01*
X57579Y-49857D01*
X57650Y-49857D01*
X57679Y-49871D01*
X57693Y-49886D01*
X57707Y-49914D01*
X57707Y-49971D01*
X57693Y-50000D01*
X57679Y-50014D01*
X57650Y-50029D01*
X57821Y-45285D02*
X57521Y-45285D01*
X57521Y-45357D01*
X57536Y-45400D01*
X57564Y-45428D01*
X57593Y-45443D01*
X57650Y-45457D01*
X57693Y-45457D01*
X57750Y-45443D01*
X57779Y-45428D01*
X57807Y-45400D01*
X57821Y-45357D01*
X57821Y-45285D01*
X57521Y-45728D02*
X57521Y-45585D01*
X57664Y-45571D01*
X57650Y-45585D01*
X57636Y-45614D01*
X57636Y-45685D01*
X57650Y-45714D01*
X57664Y-45728D01*
X57693Y-45743D01*
X57764Y-45743D01*
X57793Y-45728D01*
X57807Y-45714D01*
X57821Y-45685D01*
X57821Y-45614D01*
X57807Y-45585D01*
X57793Y-45571D01*
X57821Y-46029D02*
X57821Y-45857D01*
X57821Y-45943D02*
X57521Y-45943D01*
X57564Y-45914D01*
X57593Y-45886D01*
X57607Y-45857D01*
X57821Y-41285D02*
X57521Y-41285D01*
X57521Y-41357D01*
X57536Y-41400D01*
X57564Y-41428D01*
X57593Y-41443D01*
X57650Y-41457D01*
X57693Y-41457D01*
X57750Y-41443D01*
X57779Y-41428D01*
X57807Y-41400D01*
X57821Y-41357D01*
X57821Y-41285D01*
X57521Y-41728D02*
X57521Y-41585D01*
X57664Y-41571D01*
X57650Y-41585D01*
X57636Y-41614D01*
X57636Y-41685D01*
X57650Y-41714D01*
X57664Y-41728D01*
X57693Y-41743D01*
X57764Y-41743D01*
X57793Y-41728D01*
X57807Y-41714D01*
X57821Y-41685D01*
X57821Y-41614D01*
X57807Y-41585D01*
X57793Y-41571D01*
X57521Y-41843D02*
X57521Y-42029D01*
X57636Y-41929D01*
X57636Y-41971D01*
X57650Y-42000D01*
X57664Y-42014D01*
X57693Y-42029D01*
X57764Y-42029D01*
X57793Y-42014D01*
X57807Y-42000D01*
X57821Y-41971D01*
X57821Y-41886D01*
X57807Y-41857D01*
X57793Y-41843D01*
X57821Y-37285D02*
X57521Y-37285D01*
X57521Y-37357D01*
X57536Y-37400D01*
X57564Y-37428D01*
X57593Y-37443D01*
X57650Y-37457D01*
X57693Y-37457D01*
X57750Y-37443D01*
X57779Y-37428D01*
X57807Y-37400D01*
X57821Y-37357D01*
X57821Y-37285D01*
X57521Y-37728D02*
X57521Y-37585D01*
X57664Y-37571D01*
X57650Y-37585D01*
X57636Y-37614D01*
X57636Y-37685D01*
X57650Y-37714D01*
X57664Y-37728D01*
X57693Y-37743D01*
X57764Y-37743D01*
X57793Y-37728D01*
X57807Y-37714D01*
X57821Y-37685D01*
X57821Y-37614D01*
X57807Y-37585D01*
X57793Y-37571D01*
X57521Y-38014D02*
X57521Y-37871D01*
X57664Y-37857D01*
X57650Y-37871D01*
X57636Y-37900D01*
X57636Y-37971D01*
X57650Y-38000D01*
X57664Y-38014D01*
X57693Y-38029D01*
X57764Y-38029D01*
X57793Y-38014D01*
X57807Y-38000D01*
X57821Y-37971D01*
X57821Y-37900D01*
X57807Y-37871D01*
X57793Y-37857D01*
X57821Y-33285D02*
X57521Y-33285D01*
X57521Y-33357D01*
X57536Y-33400D01*
X57564Y-33428D01*
X57593Y-33443D01*
X57650Y-33457D01*
X57693Y-33457D01*
X57750Y-33443D01*
X57779Y-33428D01*
X57807Y-33400D01*
X57821Y-33357D01*
X57821Y-33285D01*
X57521Y-33728D02*
X57521Y-33585D01*
X57664Y-33571D01*
X57650Y-33585D01*
X57636Y-33614D01*
X57636Y-33685D01*
X57650Y-33714D01*
X57664Y-33728D01*
X57693Y-33743D01*
X57764Y-33743D01*
X57793Y-33728D01*
X57807Y-33714D01*
X57821Y-33685D01*
X57821Y-33614D01*
X57807Y-33585D01*
X57793Y-33571D01*
X57521Y-33843D02*
X57521Y-34043D01*
X57821Y-33914D01*
X57821Y-29285D02*
X57521Y-29285D01*
X57521Y-29357D01*
X57536Y-29400D01*
X57564Y-29428D01*
X57593Y-29443D01*
X57650Y-29457D01*
X57693Y-29457D01*
X57750Y-29443D01*
X57779Y-29428D01*
X57807Y-29400D01*
X57821Y-29357D01*
X57821Y-29285D01*
X57521Y-29728D02*
X57521Y-29585D01*
X57664Y-29571D01*
X57650Y-29585D01*
X57636Y-29614D01*
X57636Y-29685D01*
X57650Y-29714D01*
X57664Y-29728D01*
X57693Y-29743D01*
X57764Y-29743D01*
X57793Y-29728D01*
X57807Y-29714D01*
X57821Y-29685D01*
X57821Y-29614D01*
X57807Y-29585D01*
X57793Y-29571D01*
X57821Y-29886D02*
X57821Y-29943D01*
X57807Y-29971D01*
X57793Y-29986D01*
X57750Y-30014D01*
X57693Y-30029D01*
X57579Y-30029D01*
X57550Y-30014D01*
X57536Y-30000D01*
X57521Y-29971D01*
X57521Y-29914D01*
X57536Y-29886D01*
X57550Y-29871D01*
X57579Y-29857D01*
X57650Y-29857D01*
X57679Y-29871D01*
X57693Y-29886D01*
X57707Y-29914D01*
X57707Y-29971D01*
X57693Y-30000D01*
X57679Y-30014D01*
X57650Y-30029D01*
X29815Y-53746D02*
X29815Y-53446D01*
X29743Y-53446D01*
X29700Y-53461D01*
X29672Y-53489D01*
X29657Y-53518D01*
X29643Y-53575D01*
X29643Y-53618D01*
X29657Y-53675D01*
X29672Y-53704D01*
X29700Y-53732D01*
X29743Y-53746D01*
X29815Y-53746D01*
X29386Y-53446D02*
X29443Y-53446D01*
X29472Y-53461D01*
X29486Y-53475D01*
X29515Y-53518D01*
X29529Y-53575D01*
X29529Y-53689D01*
X29515Y-53718D01*
X29500Y-53732D01*
X29472Y-53746D01*
X29415Y-53746D01*
X29386Y-53732D01*
X29372Y-53718D01*
X29357Y-53689D01*
X29357Y-53618D01*
X29372Y-53589D01*
X29386Y-53575D01*
X29415Y-53561D01*
X29472Y-53561D01*
X29500Y-53575D01*
X29515Y-53589D01*
X29529Y-53618D01*
X29257Y-53446D02*
X29071Y-53446D01*
X29171Y-53561D01*
X29129Y-53561D01*
X29100Y-53575D01*
X29086Y-53589D01*
X29071Y-53618D01*
X29071Y-53689D01*
X29086Y-53718D01*
X29100Y-53732D01*
X29129Y-53746D01*
X29214Y-53746D01*
X29243Y-53732D01*
X29257Y-53718D01*
X27375Y-56707D02*
X27332Y-56721D01*
X27261Y-56721D01*
X27232Y-56707D01*
X27218Y-56693D01*
X27203Y-56664D01*
X27203Y-56636D01*
X27218Y-56607D01*
X27232Y-56593D01*
X27261Y-56579D01*
X27318Y-56564D01*
X27346Y-56550D01*
X27361Y-56536D01*
X27375Y-56507D01*
X27375Y-56479D01*
X27361Y-56450D01*
X27346Y-56436D01*
X27318Y-56421D01*
X27246Y-56421D01*
X27203Y-56436D01*
X27103Y-56421D02*
X27032Y-56721D01*
X26975Y-56507D01*
X26917Y-56721D01*
X26846Y-56421D01*
X26746Y-56450D02*
X26732Y-56436D01*
X26703Y-56421D01*
X26632Y-56421D01*
X26603Y-56436D01*
X26589Y-56450D01*
X26574Y-56479D01*
X26574Y-56507D01*
X26589Y-56550D01*
X26760Y-56721D01*
X26574Y-56721D01*
X27139Y-56271D02*
X27239Y-56129D01*
X27311Y-56271D02*
X27311Y-55971D01*
X27196Y-55971D01*
X27168Y-55986D01*
X27153Y-56000D01*
X27139Y-56029D01*
X27139Y-56071D01*
X27153Y-56100D01*
X27168Y-56114D01*
X27196Y-56129D01*
X27311Y-56129D01*
X27025Y-56257D02*
X26982Y-56271D01*
X26911Y-56271D01*
X26882Y-56257D01*
X26868Y-56243D01*
X26853Y-56214D01*
X26853Y-56186D01*
X26868Y-56157D01*
X26882Y-56143D01*
X26911Y-56129D01*
X26968Y-56114D01*
X26996Y-56100D01*
X27011Y-56086D01*
X27025Y-56057D01*
X27025Y-56029D01*
X27011Y-56000D01*
X26996Y-55986D01*
X26968Y-55971D01*
X26896Y-55971D01*
X26853Y-55986D01*
X26767Y-55971D02*
X26596Y-55971D01*
X26682Y-56271D02*
X26682Y-55971D01*
X22350Y-56707D02*
X22307Y-56721D01*
X22236Y-56721D01*
X22207Y-56707D01*
X22193Y-56693D01*
X22178Y-56664D01*
X22178Y-56636D01*
X22193Y-56607D01*
X22207Y-56593D01*
X22236Y-56579D01*
X22293Y-56564D01*
X22321Y-56550D01*
X22336Y-56536D01*
X22350Y-56507D01*
X22350Y-56479D01*
X22336Y-56450D01*
X22321Y-56436D01*
X22293Y-56421D01*
X22221Y-56421D01*
X22178Y-56436D01*
X22078Y-56421D02*
X22007Y-56721D01*
X21950Y-56507D01*
X21892Y-56721D01*
X21821Y-56421D01*
X21735Y-56421D02*
X21549Y-56421D01*
X21649Y-56536D01*
X21607Y-56536D01*
X21578Y-56550D01*
X21564Y-56564D01*
X21549Y-56593D01*
X21549Y-56664D01*
X21564Y-56693D01*
X21578Y-56707D01*
X21607Y-56721D01*
X21692Y-56721D01*
X21721Y-56707D01*
X21735Y-56693D01*
X22754Y-56232D02*
X22711Y-56246D01*
X22640Y-56246D01*
X22611Y-56232D01*
X22597Y-56218D01*
X22582Y-56189D01*
X22582Y-56161D01*
X22597Y-56132D01*
X22611Y-56118D01*
X22640Y-56104D01*
X22697Y-56089D01*
X22725Y-56075D01*
X22740Y-56061D01*
X22754Y-56032D01*
X22754Y-56004D01*
X22740Y-55975D01*
X22725Y-55961D01*
X22697Y-55946D01*
X22625Y-55946D01*
X22582Y-55961D01*
X22482Y-55946D02*
X22411Y-56246D01*
X22354Y-56032D01*
X22296Y-56246D01*
X22225Y-55946D01*
X22182Y-56275D02*
X21953Y-56275D01*
X21882Y-56089D02*
X21782Y-56089D01*
X21739Y-56246D02*
X21882Y-56246D01*
X21882Y-55946D01*
X21739Y-55946D01*
X21611Y-56246D02*
X21611Y-55946D01*
X21439Y-56246D01*
X21439Y-55946D01*
X21339Y-55946D02*
X21168Y-55946D01*
X21254Y-56246D02*
X21254Y-55946D01*
X39818Y-36471D02*
X39818Y-36171D01*
X39503Y-36471D02*
X39603Y-36329D01*
X39675Y-36471D02*
X39675Y-36171D01*
X39560Y-36171D01*
X39532Y-36186D01*
X39517Y-36200D01*
X39503Y-36229D01*
X39503Y-36271D01*
X39517Y-36300D01*
X39532Y-36314D01*
X39560Y-36329D01*
X39675Y-36329D01*
X39217Y-36471D02*
X39389Y-36471D01*
X39303Y-36471D02*
X39303Y-36171D01*
X39332Y-36214D01*
X39360Y-36243D01*
X39389Y-36257D01*
X38911Y-36496D02*
X38911Y-36196D01*
X38596Y-36496D02*
X38696Y-36354D01*
X38768Y-36496D02*
X38768Y-36196D01*
X38653Y-36196D01*
X38625Y-36211D01*
X38610Y-36225D01*
X38596Y-36254D01*
X38596Y-36296D01*
X38610Y-36325D01*
X38625Y-36339D01*
X38653Y-36354D01*
X38768Y-36354D01*
X38482Y-36482D02*
X38439Y-36496D01*
X38368Y-36496D01*
X38339Y-36482D01*
X38325Y-36468D01*
X38310Y-36439D01*
X38310Y-36411D01*
X38325Y-36382D01*
X38339Y-36368D01*
X38368Y-36354D01*
X38425Y-36339D01*
X38453Y-36325D01*
X38468Y-36311D01*
X38482Y-36282D01*
X38482Y-36254D01*
X38468Y-36225D01*
X38453Y-36211D01*
X38425Y-36196D01*
X38353Y-36196D01*
X38310Y-36211D01*
X38182Y-36339D02*
X38082Y-36339D01*
X38039Y-36496D02*
X38182Y-36496D01*
X38182Y-36196D01*
X38039Y-36196D01*
X37911Y-36496D02*
X37911Y-36196D01*
X37739Y-36496D01*
X37739Y-36196D01*
X37611Y-36482D02*
X37568Y-36496D01*
X37497Y-36496D01*
X37468Y-36482D01*
X37454Y-36468D01*
X37439Y-36439D01*
X37439Y-36411D01*
X37454Y-36382D01*
X37468Y-36368D01*
X37497Y-36354D01*
X37554Y-36339D01*
X37582Y-36325D01*
X37597Y-36311D01*
X37611Y-36282D01*
X37611Y-36254D01*
X37597Y-36225D01*
X37582Y-36211D01*
X37554Y-36196D01*
X37482Y-36196D01*
X37439Y-36211D01*
X37253Y-36196D02*
X37196Y-36196D01*
X37168Y-36211D01*
X37139Y-36239D01*
X37125Y-36296D01*
X37125Y-36396D01*
X37139Y-36454D01*
X37168Y-36482D01*
X37196Y-36496D01*
X37253Y-36496D01*
X37282Y-36482D01*
X37311Y-36454D01*
X37325Y-36396D01*
X37325Y-36296D01*
X37311Y-36239D01*
X37282Y-36211D01*
X37253Y-36196D01*
X36825Y-36496D02*
X36925Y-36354D01*
X36997Y-36496D02*
X36997Y-36196D01*
X36882Y-36196D01*
X36854Y-36211D01*
X36839Y-36225D01*
X36825Y-36254D01*
X36825Y-36296D01*
X36839Y-36325D01*
X36854Y-36339D01*
X36882Y-36354D01*
X36997Y-36354D01*
X16579Y-43196D02*
X16579Y-43439D01*
X16564Y-43468D01*
X16550Y-43482D01*
X16521Y-43496D01*
X16464Y-43496D01*
X16436Y-43482D01*
X16421Y-43468D01*
X16407Y-43439D01*
X16407Y-43196D01*
X16122Y-43196D02*
X16265Y-43196D01*
X16279Y-43339D01*
X16265Y-43325D01*
X16236Y-43311D01*
X16165Y-43311D01*
X16136Y-43325D01*
X16122Y-43339D01*
X16107Y-43368D01*
X16107Y-43439D01*
X16122Y-43468D01*
X16136Y-43482D01*
X16165Y-43496D01*
X16236Y-43496D01*
X16265Y-43482D01*
X16279Y-43468D01*
X19004Y-43121D02*
X18804Y-43121D01*
X18933Y-43421D01*
X18647Y-43250D02*
X18675Y-43236D01*
X18690Y-43221D01*
X18704Y-43193D01*
X18704Y-43179D01*
X18690Y-43150D01*
X18675Y-43136D01*
X18647Y-43121D01*
X18590Y-43121D01*
X18561Y-43136D01*
X18547Y-43150D01*
X18532Y-43179D01*
X18532Y-43193D01*
X18547Y-43221D01*
X18561Y-43236D01*
X18590Y-43250D01*
X18647Y-43250D01*
X18675Y-43264D01*
X18690Y-43279D01*
X18704Y-43307D01*
X18704Y-43364D01*
X18690Y-43393D01*
X18675Y-43407D01*
X18647Y-43421D01*
X18590Y-43421D01*
X18561Y-43407D01*
X18547Y-43393D01*
X18532Y-43364D01*
X18532Y-43307D01*
X18547Y-43279D01*
X18561Y-43264D01*
X18590Y-43250D01*
X18346Y-43121D02*
X18318Y-43121D01*
X18289Y-43136D01*
X18275Y-43150D01*
X18261Y-43179D01*
X18246Y-43236D01*
X18246Y-43307D01*
X18261Y-43364D01*
X18275Y-43393D01*
X18289Y-43407D01*
X18318Y-43421D01*
X18346Y-43421D01*
X18375Y-43407D01*
X18389Y-43393D01*
X18404Y-43364D01*
X18418Y-43307D01*
X18418Y-43236D01*
X18404Y-43179D01*
X18389Y-43150D01*
X18375Y-43136D01*
X18346Y-43121D01*
X17975Y-43121D02*
X18118Y-43121D01*
X18132Y-43264D01*
X18118Y-43250D01*
X18089Y-43236D01*
X18018Y-43236D01*
X17989Y-43250D01*
X17975Y-43264D01*
X17960Y-43293D01*
X17960Y-43364D01*
X17975Y-43393D01*
X17989Y-43407D01*
X18018Y-43421D01*
X18089Y-43421D01*
X18118Y-43407D01*
X18132Y-43393D01*
X16579Y-46696D02*
X16579Y-46939D01*
X16564Y-46968D01*
X16550Y-46982D01*
X16521Y-46996D01*
X16464Y-46996D01*
X16436Y-46982D01*
X16421Y-46968D01*
X16407Y-46939D01*
X16407Y-46696D01*
X16136Y-46796D02*
X16136Y-46996D01*
X16207Y-46682D02*
X16279Y-46896D01*
X16093Y-46896D01*
X18979Y-46671D02*
X18779Y-46671D01*
X18908Y-46971D01*
X18622Y-46800D02*
X18650Y-46786D01*
X18665Y-46771D01*
X18679Y-46743D01*
X18679Y-46729D01*
X18665Y-46700D01*
X18650Y-46686D01*
X18622Y-46671D01*
X18565Y-46671D01*
X18536Y-46686D01*
X18522Y-46700D01*
X18507Y-46729D01*
X18507Y-46743D01*
X18522Y-46771D01*
X18536Y-46786D01*
X18565Y-46800D01*
X18622Y-46800D01*
X18650Y-46814D01*
X18665Y-46829D01*
X18679Y-46857D01*
X18679Y-46914D01*
X18665Y-46943D01*
X18650Y-46957D01*
X18622Y-46971D01*
X18565Y-46971D01*
X18536Y-46957D01*
X18522Y-46943D01*
X18507Y-46914D01*
X18507Y-46857D01*
X18522Y-46829D01*
X18536Y-46814D01*
X18565Y-46800D01*
X18321Y-46671D02*
X18293Y-46671D01*
X18264Y-46686D01*
X18250Y-46700D01*
X18236Y-46729D01*
X18221Y-46786D01*
X18221Y-46857D01*
X18236Y-46914D01*
X18250Y-46943D01*
X18264Y-46957D01*
X18293Y-46971D01*
X18321Y-46971D01*
X18350Y-46957D01*
X18364Y-46943D01*
X18379Y-46914D01*
X18393Y-46857D01*
X18393Y-46786D01*
X18379Y-46729D01*
X18364Y-46700D01*
X18350Y-46686D01*
X18321Y-46671D01*
X18078Y-46971D02*
X18021Y-46971D01*
X17993Y-46957D01*
X17978Y-46943D01*
X17950Y-46900D01*
X17935Y-46843D01*
X17935Y-46729D01*
X17950Y-46700D01*
X17964Y-46686D01*
X17993Y-46671D01*
X18050Y-46671D01*
X18078Y-46686D01*
X18093Y-46700D01*
X18107Y-46729D01*
X18107Y-46800D01*
X18093Y-46829D01*
X18078Y-46843D01*
X18050Y-46857D01*
X17993Y-46857D01*
X17964Y-46843D01*
X17950Y-46829D01*
X17935Y-46800D01*
X36722Y-59446D02*
X36722Y-59146D01*
X36550Y-59446D02*
X36679Y-59275D01*
X36550Y-59146D02*
X36722Y-59318D01*
X36293Y-59246D02*
X36293Y-59446D01*
X36364Y-59132D02*
X36436Y-59346D01*
X36250Y-59346D01*
X37157Y-55882D02*
X37114Y-55896D01*
X37043Y-55896D01*
X37014Y-55882D01*
X37000Y-55868D01*
X36985Y-55839D01*
X36985Y-55811D01*
X37000Y-55782D01*
X37014Y-55768D01*
X37043Y-55754D01*
X37100Y-55739D01*
X37128Y-55725D01*
X37143Y-55711D01*
X37157Y-55682D01*
X37157Y-55654D01*
X37143Y-55625D01*
X37128Y-55611D01*
X37100Y-55596D01*
X37028Y-55596D01*
X36985Y-55611D01*
X36857Y-55739D02*
X36757Y-55739D01*
X36714Y-55896D02*
X36857Y-55896D01*
X36857Y-55596D01*
X36714Y-55596D01*
X36414Y-55896D02*
X36514Y-55754D01*
X36586Y-55896D02*
X36586Y-55596D01*
X36471Y-55596D01*
X36443Y-55611D01*
X36428Y-55625D01*
X36414Y-55654D01*
X36414Y-55696D01*
X36428Y-55725D01*
X36443Y-55739D01*
X36471Y-55754D01*
X36586Y-55754D01*
X36328Y-55596D02*
X36228Y-55896D01*
X36128Y-55596D01*
X35971Y-55596D02*
X35914Y-55596D01*
X35886Y-55611D01*
X35857Y-55639D01*
X35843Y-55696D01*
X35843Y-55796D01*
X35857Y-55854D01*
X35886Y-55882D01*
X35914Y-55896D01*
X35971Y-55896D01*
X36000Y-55882D01*
X36029Y-55854D01*
X36043Y-55796D01*
X36043Y-55696D01*
X36029Y-55639D01*
X36000Y-55611D01*
X35971Y-55596D01*
X35511Y-58372D02*
X35496Y-58343D01*
X35496Y-58300D01*
X35511Y-58257D01*
X35539Y-58229D01*
X35568Y-58214D01*
X35625Y-58200D01*
X35668Y-58200D01*
X35725Y-58214D01*
X35754Y-58229D01*
X35782Y-58257D01*
X35796Y-58300D01*
X35796Y-58329D01*
X35782Y-58372D01*
X35768Y-58386D01*
X35668Y-58386D01*
X35668Y-58329D01*
X35796Y-58514D02*
X35496Y-58514D01*
X35796Y-58686D01*
X35496Y-58686D01*
X35796Y-58828D02*
X35496Y-58828D01*
X35496Y-58900D01*
X35511Y-58943D01*
X35539Y-58971D01*
X35568Y-58986D01*
X35625Y-59000D01*
X35668Y-59000D01*
X35725Y-58986D01*
X35754Y-58971D01*
X35782Y-58943D01*
X35796Y-58900D01*
X35796Y-58828D01*
X35807Y-56129D02*
X35821Y-56172D01*
X35821Y-56243D01*
X35807Y-56272D01*
X35793Y-56286D01*
X35764Y-56301D01*
X35736Y-56301D01*
X35707Y-56286D01*
X35693Y-56272D01*
X35679Y-56243D01*
X35664Y-56186D01*
X35650Y-56158D01*
X35636Y-56143D01*
X35607Y-56129D01*
X35579Y-56129D01*
X35550Y-56143D01*
X35536Y-56158D01*
X35521Y-56186D01*
X35521Y-56258D01*
X35536Y-56301D01*
X35664Y-56429D02*
X35664Y-56529D01*
X35821Y-56572D02*
X35821Y-56429D01*
X35521Y-56429D01*
X35521Y-56572D01*
X35821Y-56872D02*
X35679Y-56772D01*
X35821Y-56700D02*
X35521Y-56700D01*
X35521Y-56815D01*
X35536Y-56843D01*
X35550Y-56858D01*
X35579Y-56872D01*
X35621Y-56872D01*
X35650Y-56858D01*
X35664Y-56843D01*
X35679Y-56815D01*
X35679Y-56700D01*
X30847Y-59446D02*
X30847Y-59146D01*
X30675Y-59446D02*
X30804Y-59275D01*
X30675Y-59146D02*
X30847Y-59318D01*
X30404Y-59146D02*
X30547Y-59146D01*
X30561Y-59289D01*
X30547Y-59275D01*
X30518Y-59261D01*
X30447Y-59261D01*
X30418Y-59275D01*
X30404Y-59289D01*
X30389Y-59318D01*
X30389Y-59389D01*
X30404Y-59418D01*
X30418Y-59432D01*
X30447Y-59446D01*
X30518Y-59446D01*
X30547Y-59432D01*
X30561Y-59418D01*
X31239Y-55571D02*
X31139Y-55871D01*
X31039Y-55571D01*
X31011Y-55900D02*
X30782Y-55900D01*
X30725Y-55857D02*
X30682Y-55871D01*
X30611Y-55871D01*
X30582Y-55857D01*
X30568Y-55843D01*
X30553Y-55814D01*
X30553Y-55786D01*
X30568Y-55757D01*
X30582Y-55743D01*
X30611Y-55729D01*
X30668Y-55714D01*
X30696Y-55700D01*
X30711Y-55686D01*
X30725Y-55657D01*
X30725Y-55629D01*
X30711Y-55600D01*
X30696Y-55586D01*
X30668Y-55571D01*
X30596Y-55571D01*
X30553Y-55586D01*
X30425Y-55714D02*
X30325Y-55714D01*
X30282Y-55871D02*
X30425Y-55871D01*
X30425Y-55571D01*
X30282Y-55571D01*
X30011Y-55871D02*
X30154Y-55871D01*
X30154Y-55571D01*
X31221Y-58121D02*
X31464Y-58121D01*
X31493Y-58136D01*
X31507Y-58150D01*
X31521Y-58179D01*
X31521Y-58236D01*
X31507Y-58264D01*
X31493Y-58279D01*
X31464Y-58293D01*
X31221Y-58293D01*
X31507Y-58421D02*
X31521Y-58464D01*
X31521Y-58535D01*
X31507Y-58564D01*
X31493Y-58578D01*
X31464Y-58593D01*
X31436Y-58593D01*
X31407Y-58578D01*
X31393Y-58564D01*
X31379Y-58535D01*
X31364Y-58478D01*
X31350Y-58450D01*
X31336Y-58435D01*
X31307Y-58421D01*
X31279Y-58421D01*
X31250Y-58435D01*
X31236Y-58450D01*
X31221Y-58478D01*
X31221Y-58550D01*
X31236Y-58593D01*
X31364Y-58821D02*
X31379Y-58864D01*
X31393Y-58879D01*
X31421Y-58893D01*
X31464Y-58893D01*
X31493Y-58879D01*
X31507Y-58864D01*
X31521Y-58836D01*
X31521Y-58721D01*
X31221Y-58721D01*
X31221Y-58821D01*
X31236Y-58850D01*
X31250Y-58864D01*
X31279Y-58879D01*
X31307Y-58879D01*
X31336Y-58864D01*
X31350Y-58850D01*
X31364Y-58821D01*
X31364Y-58721D01*
X31389Y-56278D02*
X31404Y-56321D01*
X31418Y-56336D01*
X31446Y-56350D01*
X31489Y-56350D01*
X31518Y-56336D01*
X31532Y-56321D01*
X31546Y-56293D01*
X31546Y-56178D01*
X31246Y-56178D01*
X31246Y-56278D01*
X31261Y-56307D01*
X31275Y-56321D01*
X31304Y-56336D01*
X31332Y-56336D01*
X31361Y-56321D01*
X31375Y-56307D01*
X31389Y-56278D01*
X31389Y-56178D01*
X31461Y-56464D02*
X31461Y-56607D01*
X31546Y-56436D02*
X31246Y-56536D01*
X31546Y-56636D01*
X31246Y-56693D02*
X31246Y-56864D01*
X31546Y-56778D02*
X31246Y-56778D01*
X51921Y-57778D02*
X51621Y-57778D01*
X51621Y-57893D01*
X51636Y-57921D01*
X51650Y-57936D01*
X51679Y-57950D01*
X51721Y-57950D01*
X51750Y-57936D01*
X51764Y-57921D01*
X51779Y-57893D01*
X51779Y-57778D01*
X51721Y-58207D02*
X51921Y-58207D01*
X51607Y-58136D02*
X51821Y-58064D01*
X51821Y-58250D01*
X51921Y-58778D02*
X51621Y-58778D01*
X51621Y-58893D01*
X51636Y-58921D01*
X51650Y-58936D01*
X51679Y-58950D01*
X51721Y-58950D01*
X51750Y-58936D01*
X51764Y-58921D01*
X51779Y-58893D01*
X51779Y-58778D01*
X51621Y-59050D02*
X51621Y-59236D01*
X51736Y-59136D01*
X51736Y-59178D01*
X51750Y-59207D01*
X51764Y-59221D01*
X51793Y-59236D01*
X51864Y-59236D01*
X51893Y-59221D01*
X51907Y-59207D01*
X51921Y-59178D01*
X51921Y-59093D01*
X51907Y-59064D01*
X51893Y-59050D01*
X18200Y-50868D02*
X18214Y-50882D01*
X18257Y-50896D01*
X18286Y-50896D01*
X18329Y-50882D01*
X18357Y-50854D01*
X18372Y-50825D01*
X18386Y-50768D01*
X18386Y-50725D01*
X18372Y-50668D01*
X18357Y-50639D01*
X18329Y-50611D01*
X18286Y-50596D01*
X18257Y-50596D01*
X18214Y-50611D01*
X18200Y-50625D01*
X17943Y-50696D02*
X17943Y-50896D01*
X18014Y-50582D02*
X18086Y-50796D01*
X17900Y-50796D01*
X21500Y-48043D02*
X21514Y-48057D01*
X21557Y-48071D01*
X21586Y-48071D01*
X21629Y-48057D01*
X21657Y-48029D01*
X21672Y-48000D01*
X21686Y-47943D01*
X21686Y-47900D01*
X21672Y-47843D01*
X21657Y-47814D01*
X21629Y-47786D01*
X21586Y-47771D01*
X21557Y-47771D01*
X21514Y-47786D01*
X21500Y-47800D01*
X21229Y-47771D02*
X21372Y-47771D01*
X21386Y-47914D01*
X21372Y-47900D01*
X21343Y-47886D01*
X21272Y-47886D01*
X21243Y-47900D01*
X21229Y-47914D01*
X21214Y-47943D01*
X21214Y-48014D01*
X21229Y-48043D01*
X21243Y-48057D01*
X21272Y-48071D01*
X21343Y-48071D01*
X21372Y-48057D01*
X21386Y-48043D01*
X29500Y-57893D02*
X29514Y-57907D01*
X29557Y-57921D01*
X29586Y-57921D01*
X29629Y-57907D01*
X29657Y-57879D01*
X29672Y-57850D01*
X29686Y-57793D01*
X29686Y-57750D01*
X29672Y-57693D01*
X29657Y-57664D01*
X29629Y-57636D01*
X29586Y-57621D01*
X29557Y-57621D01*
X29514Y-57636D01*
X29500Y-57650D01*
X29329Y-57750D02*
X29357Y-57736D01*
X29372Y-57721D01*
X29386Y-57693D01*
X29386Y-57679D01*
X29372Y-57650D01*
X29357Y-57636D01*
X29329Y-57621D01*
X29272Y-57621D01*
X29243Y-57636D01*
X29229Y-57650D01*
X29214Y-57679D01*
X29214Y-57693D01*
X29229Y-57721D01*
X29243Y-57736D01*
X29272Y-57750D01*
X29329Y-57750D01*
X29357Y-57764D01*
X29372Y-57779D01*
X29386Y-57807D01*
X29386Y-57864D01*
X29372Y-57893D01*
X29357Y-57907D01*
X29329Y-57921D01*
X29272Y-57921D01*
X29243Y-57907D01*
X29229Y-57893D01*
X29214Y-57864D01*
X29214Y-57807D01*
X29229Y-57779D01*
X29243Y-57764D01*
X29272Y-57750D01*
X21500Y-43643D02*
X21514Y-43657D01*
X21557Y-43671D01*
X21586Y-43671D01*
X21629Y-43657D01*
X21657Y-43629D01*
X21672Y-43600D01*
X21686Y-43543D01*
X21686Y-43500D01*
X21672Y-43443D01*
X21657Y-43414D01*
X21629Y-43386D01*
X21586Y-43371D01*
X21557Y-43371D01*
X21514Y-43386D01*
X21500Y-43400D01*
X21400Y-43371D02*
X21200Y-43371D01*
X21329Y-43671D01*
X18450Y-52168D02*
X18464Y-52182D01*
X18507Y-52196D01*
X18536Y-52196D01*
X18579Y-52182D01*
X18607Y-52154D01*
X18622Y-52125D01*
X18636Y-52068D01*
X18636Y-52025D01*
X18622Y-51968D01*
X18607Y-51939D01*
X18579Y-51911D01*
X18536Y-51896D01*
X18507Y-51896D01*
X18464Y-51911D01*
X18450Y-51925D01*
X18350Y-51896D02*
X18164Y-51896D01*
X18264Y-52011D01*
X18222Y-52011D01*
X18193Y-52025D01*
X18179Y-52039D01*
X18164Y-52068D01*
X18164Y-52139D01*
X18179Y-52168D01*
X18193Y-52182D01*
X18222Y-52196D01*
X18307Y-52196D01*
X18336Y-52182D01*
X18350Y-52168D01*
X17121Y-52440D02*
X17121Y-52268D01*
X17121Y-52354D02*
X16821Y-52354D01*
X16864Y-52325D01*
X16893Y-52297D01*
X16907Y-52268D01*
X16821Y-52626D02*
X16821Y-52654D01*
X16836Y-52683D01*
X16850Y-52697D01*
X16879Y-52711D01*
X16936Y-52726D01*
X17007Y-52726D01*
X17064Y-52711D01*
X17093Y-52697D01*
X17107Y-52683D01*
X17121Y-52654D01*
X17121Y-52626D01*
X17107Y-52597D01*
X17093Y-52583D01*
X17064Y-52568D01*
X17007Y-52554D01*
X16936Y-52554D01*
X16879Y-52568D01*
X16850Y-52583D01*
X16836Y-52597D01*
X16821Y-52626D01*
X16821Y-52912D02*
X16821Y-52940D01*
X16836Y-52969D01*
X16850Y-52983D01*
X16879Y-52997D01*
X16936Y-53012D01*
X17007Y-53012D01*
X17064Y-52997D01*
X17093Y-52983D01*
X17107Y-52969D01*
X17121Y-52940D01*
X17121Y-52912D01*
X17107Y-52883D01*
X17093Y-52869D01*
X17064Y-52854D01*
X17007Y-52840D01*
X16936Y-52840D01*
X16879Y-52854D01*
X16850Y-52869D01*
X16836Y-52883D01*
X16821Y-52912D01*
X16921Y-53269D02*
X17121Y-53269D01*
X16921Y-53140D02*
X17079Y-53140D01*
X17107Y-53155D01*
X17121Y-53183D01*
X17121Y-53226D01*
X17107Y-53255D01*
X17093Y-53269D01*
X18510Y-53334D02*
X18510Y-53274D01*
X18152Y-53274D01*
X18152Y-53334D01*
X18331Y-53430D02*
X18331Y-53620D01*
X18426Y-53525D02*
X18236Y-53525D01*
X18510Y-53716D02*
X18510Y-53775D01*
X18152Y-53775D01*
X18152Y-53716D01*
X36329Y-52846D02*
X36329Y-53089D01*
X36314Y-53118D01*
X36300Y-53132D01*
X36271Y-53146D01*
X36214Y-53146D01*
X36186Y-53132D01*
X36171Y-53118D01*
X36157Y-53089D01*
X36157Y-52846D01*
X35857Y-53146D02*
X36029Y-53146D01*
X35943Y-53146D02*
X35943Y-52846D01*
X35972Y-52889D01*
X36000Y-52918D01*
X36029Y-52932D01*
X37636Y-44264D02*
X37636Y-44407D01*
X37721Y-44236D02*
X37421Y-44336D01*
X37721Y-44436D01*
X37421Y-44493D02*
X37421Y-44664D01*
X37721Y-44578D02*
X37421Y-44578D01*
X37721Y-44764D02*
X37421Y-44764D01*
X37636Y-44864D01*
X37421Y-44964D01*
X37721Y-44964D01*
X37564Y-45107D02*
X37564Y-45207D01*
X37721Y-45250D02*
X37721Y-45107D01*
X37421Y-45107D01*
X37421Y-45250D01*
X37436Y-45536D02*
X37421Y-45507D01*
X37421Y-45464D01*
X37436Y-45421D01*
X37464Y-45393D01*
X37493Y-45378D01*
X37550Y-45364D01*
X37593Y-45364D01*
X37650Y-45378D01*
X37679Y-45393D01*
X37707Y-45421D01*
X37721Y-45464D01*
X37721Y-45493D01*
X37707Y-45536D01*
X37693Y-45550D01*
X37593Y-45550D01*
X37593Y-45493D01*
X37636Y-45664D02*
X37636Y-45807D01*
X37721Y-45636D02*
X37421Y-45736D01*
X37721Y-45836D01*
X37421Y-45907D02*
X37421Y-46093D01*
X37536Y-45993D01*
X37536Y-46035D01*
X37550Y-46064D01*
X37564Y-46078D01*
X37593Y-46093D01*
X37664Y-46093D01*
X37693Y-46078D01*
X37707Y-46064D01*
X37721Y-46035D01*
X37721Y-45950D01*
X37707Y-45921D01*
X37693Y-45907D01*
X37450Y-46207D02*
X37436Y-46221D01*
X37421Y-46250D01*
X37421Y-46321D01*
X37436Y-46350D01*
X37450Y-46364D01*
X37479Y-46379D01*
X37507Y-46379D01*
X37550Y-46364D01*
X37721Y-46193D01*
X37721Y-46379D01*
X37550Y-46550D02*
X37536Y-46522D01*
X37521Y-46507D01*
X37493Y-46493D01*
X37479Y-46493D01*
X37450Y-46507D01*
X37436Y-46522D01*
X37421Y-46550D01*
X37421Y-46607D01*
X37436Y-46636D01*
X37450Y-46650D01*
X37479Y-46665D01*
X37493Y-46665D01*
X37521Y-46650D01*
X37536Y-46636D01*
X37550Y-46607D01*
X37550Y-46550D01*
X37564Y-46522D01*
X37579Y-46507D01*
X37607Y-46493D01*
X37664Y-46493D01*
X37693Y-46507D01*
X37707Y-46522D01*
X37721Y-46550D01*
X37721Y-46607D01*
X37707Y-46636D01*
X37693Y-46650D01*
X37664Y-46665D01*
X37607Y-46665D01*
X37579Y-46650D01*
X37564Y-46636D01*
X37550Y-46607D01*
X37607Y-46793D02*
X37607Y-47022D01*
X37721Y-47164D02*
X37421Y-47164D01*
X37421Y-47279D01*
X37436Y-47307D01*
X37450Y-47322D01*
X37479Y-47336D01*
X37521Y-47336D01*
X37550Y-47322D01*
X37564Y-47307D01*
X37579Y-47279D01*
X37579Y-47164D01*
X40722Y-59871D02*
X40722Y-59571D01*
X40550Y-59871D02*
X40679Y-59700D01*
X40550Y-59571D02*
X40722Y-59743D01*
X40264Y-59871D02*
X40436Y-59871D01*
X40350Y-59871D02*
X40350Y-59571D01*
X40379Y-59614D01*
X40407Y-59643D01*
X40436Y-59657D01*
X41818Y-59714D02*
X41918Y-59714D01*
X41918Y-59871D02*
X41918Y-59571D01*
X41775Y-59571D01*
X41703Y-59571D02*
X41532Y-59571D01*
X41618Y-59871D02*
X41618Y-59571D01*
X41432Y-59871D02*
X41432Y-59571D01*
X41360Y-59571D01*
X41317Y-59586D01*
X41289Y-59614D01*
X41274Y-59643D01*
X41260Y-59700D01*
X41260Y-59743D01*
X41274Y-59800D01*
X41289Y-59829D01*
X41317Y-59857D01*
X41360Y-59871D01*
X41432Y-59871D01*
X41132Y-59871D02*
X41132Y-59571D01*
X43228Y-59586D02*
X43257Y-59571D01*
X43300Y-59571D01*
X43343Y-59586D01*
X43371Y-59614D01*
X43386Y-59643D01*
X43400Y-59700D01*
X43400Y-59743D01*
X43386Y-59800D01*
X43371Y-59829D01*
X43343Y-59857D01*
X43300Y-59871D01*
X43271Y-59871D01*
X43228Y-59857D01*
X43214Y-59843D01*
X43214Y-59743D01*
X43271Y-59743D01*
X42914Y-59871D02*
X43014Y-59729D01*
X43086Y-59871D02*
X43086Y-59571D01*
X42971Y-59571D01*
X42943Y-59586D01*
X42928Y-59600D01*
X42914Y-59629D01*
X42914Y-59671D01*
X42928Y-59700D01*
X42943Y-59714D01*
X42971Y-59729D01*
X43086Y-59729D01*
X42786Y-59871D02*
X42786Y-59571D01*
X42614Y-59871D01*
X42614Y-59571D01*
X38250Y-59714D02*
X38207Y-59729D01*
X38192Y-59743D01*
X38178Y-59771D01*
X38178Y-59814D01*
X38192Y-59843D01*
X38207Y-59857D01*
X38235Y-59871D01*
X38350Y-59871D01*
X38350Y-59571D01*
X38250Y-59571D01*
X38221Y-59586D01*
X38207Y-59600D01*
X38192Y-59629D01*
X38192Y-59657D01*
X38207Y-59686D01*
X38221Y-59700D01*
X38250Y-59714D01*
X38350Y-59714D01*
X37907Y-59871D02*
X38050Y-59871D01*
X38050Y-59571D01*
X37807Y-59871D02*
X37807Y-59571D01*
X37635Y-59871D02*
X37764Y-59700D01*
X37635Y-59571D02*
X37807Y-59743D01*
X39222Y-55871D02*
X39222Y-55571D01*
X39050Y-55871D02*
X39179Y-55700D01*
X39050Y-55571D02*
X39222Y-55743D01*
X38936Y-55600D02*
X38922Y-55586D01*
X38893Y-55571D01*
X38822Y-55571D01*
X38793Y-55586D01*
X38779Y-55600D01*
X38764Y-55629D01*
X38764Y-55657D01*
X38779Y-55700D01*
X38950Y-55871D01*
X38764Y-55871D01*
X40243Y-55871D02*
X40243Y-55571D01*
X40114Y-55857D02*
X40071Y-55871D01*
X40000Y-55871D01*
X39971Y-55857D01*
X39957Y-55843D01*
X39942Y-55814D01*
X39942Y-55786D01*
X39957Y-55757D01*
X39971Y-55743D01*
X40000Y-55729D01*
X40057Y-55714D01*
X40085Y-55700D01*
X40100Y-55686D01*
X40114Y-55657D01*
X40114Y-55629D01*
X40100Y-55600D01*
X40085Y-55586D01*
X40057Y-55571D01*
X39985Y-55571D01*
X39942Y-55586D01*
X39814Y-55871D02*
X39814Y-55571D01*
X39699Y-55571D01*
X39671Y-55586D01*
X39656Y-55600D01*
X39642Y-55629D01*
X39642Y-55671D01*
X39656Y-55700D01*
X39671Y-55714D01*
X39699Y-55729D01*
X39814Y-55729D01*
X37126Y-57409D02*
X37126Y-57290D01*
X37245Y-57278D01*
X37233Y-57290D01*
X37221Y-57313D01*
X37221Y-57373D01*
X37233Y-57397D01*
X37245Y-57409D01*
X37269Y-57420D01*
X37329Y-57420D01*
X37352Y-57409D01*
X37364Y-57397D01*
X37376Y-57373D01*
X37376Y-57313D01*
X37364Y-57290D01*
X37352Y-57278D01*
X37126Y-57492D02*
X37376Y-57575D01*
X37126Y-57658D01*
X37126Y-57789D02*
X37126Y-57813D01*
X37138Y-57837D01*
X37150Y-57849D01*
X37174Y-57861D01*
X37221Y-57872D01*
X37281Y-57872D01*
X37329Y-57861D01*
X37352Y-57849D01*
X37364Y-57837D01*
X37376Y-57813D01*
X37376Y-57789D01*
X37364Y-57765D01*
X37352Y-57753D01*
X37329Y-57742D01*
X37281Y-57730D01*
X37221Y-57730D01*
X37174Y-57742D01*
X37150Y-57753D01*
X37138Y-57765D01*
X37126Y-57789D01*
X44347Y-55321D02*
X44347Y-55021D01*
X44175Y-55321D02*
X44304Y-55150D01*
X44175Y-55021D02*
X44347Y-55193D01*
X44075Y-55021D02*
X43889Y-55021D01*
X43989Y-55136D01*
X43947Y-55136D01*
X43918Y-55150D01*
X43904Y-55164D01*
X43889Y-55193D01*
X43889Y-55264D01*
X43904Y-55293D01*
X43918Y-55307D01*
X43947Y-55321D01*
X44032Y-55321D01*
X44061Y-55307D01*
X44075Y-55293D01*
X45418Y-55321D02*
X45418Y-55021D01*
X45289Y-55050D02*
X45275Y-55036D01*
X45246Y-55021D01*
X45175Y-55021D01*
X45146Y-55036D01*
X45132Y-55050D01*
X45117Y-55079D01*
X45117Y-55107D01*
X45132Y-55150D01*
X45303Y-55321D01*
X45117Y-55321D01*
X44817Y-55293D02*
X44831Y-55307D01*
X44874Y-55321D01*
X44903Y-55321D01*
X44946Y-55307D01*
X44974Y-55279D01*
X44989Y-55250D01*
X45003Y-55193D01*
X45003Y-55150D01*
X44989Y-55093D01*
X44974Y-55064D01*
X44946Y-55036D01*
X44903Y-55021D01*
X44874Y-55021D01*
X44831Y-55036D01*
X44817Y-55050D01*
X41493Y-57621D02*
X41593Y-57479D01*
X41665Y-57621D02*
X41665Y-57321D01*
X41550Y-57321D01*
X41522Y-57336D01*
X41507Y-57350D01*
X41493Y-57379D01*
X41493Y-57421D01*
X41507Y-57450D01*
X41522Y-57464D01*
X41550Y-57479D01*
X41665Y-57479D01*
X41393Y-57321D02*
X41207Y-57321D01*
X41307Y-57436D01*
X41265Y-57436D01*
X41236Y-57450D01*
X41222Y-57464D01*
X41207Y-57493D01*
X41207Y-57564D01*
X41222Y-57593D01*
X41236Y-57607D01*
X41265Y-57621D01*
X41350Y-57621D01*
X41379Y-57607D01*
X41393Y-57593D01*
X41036Y-57450D02*
X41064Y-57436D01*
X41079Y-57421D01*
X41093Y-57393D01*
X41093Y-57379D01*
X41079Y-57350D01*
X41064Y-57336D01*
X41036Y-57321D01*
X40979Y-57321D01*
X40950Y-57336D01*
X40936Y-57350D01*
X40921Y-57379D01*
X40921Y-57393D01*
X40936Y-57421D01*
X40950Y-57436D01*
X40979Y-57450D01*
X41036Y-57450D01*
X41064Y-57464D01*
X41079Y-57479D01*
X41093Y-57507D01*
X41093Y-57564D01*
X41079Y-57593D01*
X41064Y-57607D01*
X41036Y-57621D01*
X40979Y-57621D01*
X40950Y-57607D01*
X40936Y-57593D01*
X40921Y-57564D01*
X40921Y-57507D01*
X40936Y-57479D01*
X40950Y-57464D01*
X40979Y-57450D01*
X41493Y-56621D02*
X41593Y-56479D01*
X41665Y-56621D02*
X41665Y-56321D01*
X41550Y-56321D01*
X41522Y-56336D01*
X41507Y-56350D01*
X41493Y-56379D01*
X41493Y-56421D01*
X41507Y-56450D01*
X41522Y-56464D01*
X41550Y-56479D01*
X41665Y-56479D01*
X41393Y-56321D02*
X41207Y-56321D01*
X41307Y-56436D01*
X41265Y-56436D01*
X41236Y-56450D01*
X41222Y-56464D01*
X41207Y-56493D01*
X41207Y-56564D01*
X41222Y-56593D01*
X41236Y-56607D01*
X41265Y-56621D01*
X41350Y-56621D01*
X41379Y-56607D01*
X41393Y-56593D01*
X41064Y-56621D02*
X41007Y-56621D01*
X40979Y-56607D01*
X40964Y-56593D01*
X40936Y-56550D01*
X40921Y-56493D01*
X40921Y-56379D01*
X40936Y-56350D01*
X40950Y-56336D01*
X40979Y-56321D01*
X41036Y-56321D01*
X41064Y-56336D01*
X41079Y-56350D01*
X41093Y-56379D01*
X41093Y-56450D01*
X41079Y-56479D01*
X41064Y-56493D01*
X41036Y-56507D01*
X40979Y-56507D01*
X40950Y-56493D01*
X40936Y-56479D01*
X40921Y-56450D01*
X30918Y-53696D02*
X31018Y-53554D01*
X31090Y-53696D02*
X31090Y-53396D01*
X30975Y-53396D01*
X30947Y-53411D01*
X30932Y-53425D01*
X30918Y-53454D01*
X30918Y-53496D01*
X30932Y-53525D01*
X30947Y-53539D01*
X30975Y-53554D01*
X31090Y-53554D01*
X30661Y-53496D02*
X30661Y-53696D01*
X30732Y-53382D02*
X30804Y-53596D01*
X30618Y-53596D01*
X30446Y-53396D02*
X30418Y-53396D01*
X30389Y-53411D01*
X30375Y-53425D01*
X30361Y-53454D01*
X30346Y-53511D01*
X30346Y-53582D01*
X30361Y-53639D01*
X30375Y-53668D01*
X30389Y-53682D01*
X30418Y-53696D01*
X30446Y-53696D01*
X30475Y-53682D01*
X30489Y-53668D01*
X30504Y-53639D01*
X30518Y-53582D01*
X30518Y-53511D01*
X30504Y-53454D01*
X30489Y-53425D01*
X30475Y-53411D01*
X30446Y-53396D01*
X25275Y-59671D02*
X25375Y-59529D01*
X25447Y-59671D02*
X25447Y-59371D01*
X25332Y-59371D01*
X25304Y-59386D01*
X25289Y-59400D01*
X25275Y-59429D01*
X25275Y-59471D01*
X25289Y-59500D01*
X25304Y-59514D01*
X25332Y-59529D01*
X25447Y-59529D01*
X25018Y-59471D02*
X25018Y-59671D01*
X25089Y-59357D02*
X25161Y-59571D01*
X24975Y-59571D01*
X24550Y-56271D02*
X24650Y-56129D01*
X24722Y-56271D02*
X24722Y-55971D01*
X24607Y-55971D01*
X24579Y-55986D01*
X24564Y-56000D01*
X24550Y-56029D01*
X24550Y-56071D01*
X24564Y-56100D01*
X24579Y-56114D01*
X24607Y-56129D01*
X24722Y-56129D01*
X24264Y-56271D02*
X24436Y-56271D01*
X24350Y-56271D02*
X24350Y-55971D01*
X24379Y-56014D01*
X24407Y-56043D01*
X24436Y-56057D01*
X30679Y-44471D02*
X30679Y-44714D01*
X30664Y-44743D01*
X30650Y-44757D01*
X30621Y-44771D01*
X30564Y-44771D01*
X30536Y-44757D01*
X30521Y-44743D01*
X30507Y-44714D01*
X30507Y-44471D01*
X30379Y-44500D02*
X30365Y-44486D01*
X30336Y-44471D01*
X30265Y-44471D01*
X30236Y-44486D01*
X30222Y-44500D01*
X30207Y-44529D01*
X30207Y-44557D01*
X30222Y-44600D01*
X30393Y-44771D01*
X30207Y-44771D01*
X33322Y-45421D02*
X33322Y-45121D01*
X33322Y-45264D02*
X33150Y-45264D01*
X33150Y-45421D02*
X33150Y-45121D01*
X33008Y-45264D02*
X32908Y-45264D01*
X32865Y-45421D02*
X33008Y-45421D01*
X33008Y-45121D01*
X32865Y-45121D01*
X32637Y-45264D02*
X32737Y-45264D01*
X32737Y-45421D02*
X32737Y-45121D01*
X32594Y-45121D01*
X32351Y-45221D02*
X32351Y-45421D01*
X32422Y-45107D02*
X32494Y-45321D01*
X32308Y-45321D01*
X32136Y-45121D02*
X32108Y-45121D01*
X32079Y-45136D01*
X32065Y-45150D01*
X32051Y-45179D01*
X32036Y-45236D01*
X32036Y-45307D01*
X32051Y-45364D01*
X32065Y-45393D01*
X32079Y-45407D01*
X32108Y-45421D01*
X32136Y-45421D01*
X32165Y-45407D01*
X32179Y-45393D01*
X32194Y-45364D01*
X32208Y-45307D01*
X32208Y-45236D01*
X32194Y-45179D01*
X32179Y-45150D01*
X32165Y-45136D01*
X32136Y-45121D01*
X31765Y-45121D02*
X31908Y-45121D01*
X31922Y-45264D01*
X31908Y-45250D01*
X31879Y-45236D01*
X31808Y-45236D01*
X31779Y-45250D01*
X31765Y-45264D01*
X31750Y-45293D01*
X31750Y-45364D01*
X31765Y-45393D01*
X31779Y-45407D01*
X31808Y-45421D01*
X31879Y-45421D01*
X31908Y-45407D01*
X31922Y-45393D01*
X31464Y-45421D02*
X31636Y-45421D01*
X31550Y-45421D02*
X31550Y-45121D01*
X31579Y-45164D01*
X31607Y-45193D01*
X31636Y-45207D01*
X31236Y-45264D02*
X31193Y-45279D01*
X31178Y-45293D01*
X31164Y-45321D01*
X31164Y-45364D01*
X31178Y-45393D01*
X31193Y-45407D01*
X31221Y-45421D01*
X31336Y-45421D01*
X31336Y-45121D01*
X31236Y-45121D01*
X31207Y-45136D01*
X31193Y-45150D01*
X31178Y-45179D01*
X31178Y-45207D01*
X31193Y-45236D01*
X31207Y-45250D01*
X31236Y-45264D01*
X31336Y-45264D01*
X34854Y-38571D02*
X34854Y-38814D01*
X34839Y-38843D01*
X34825Y-38857D01*
X34796Y-38871D01*
X34739Y-38871D01*
X34711Y-38857D01*
X34696Y-38843D01*
X34682Y-38814D01*
X34682Y-38571D01*
X34568Y-38571D02*
X34382Y-38571D01*
X34482Y-38686D01*
X34440Y-38686D01*
X34411Y-38700D01*
X34397Y-38714D01*
X34382Y-38743D01*
X34382Y-38814D01*
X34397Y-38843D01*
X34411Y-38857D01*
X34440Y-38871D01*
X34525Y-38871D01*
X34554Y-38857D01*
X34568Y-38843D01*
X35296Y-35164D02*
X35539Y-35164D01*
X35568Y-35179D01*
X35582Y-35193D01*
X35596Y-35222D01*
X35596Y-35279D01*
X35582Y-35307D01*
X35568Y-35322D01*
X35539Y-35336D01*
X35296Y-35336D01*
X35596Y-35621D02*
X35596Y-35478D01*
X35296Y-35478D01*
X35596Y-35721D02*
X35296Y-35721D01*
X35596Y-35893D01*
X35296Y-35893D01*
X35325Y-36021D02*
X35311Y-36035D01*
X35296Y-36064D01*
X35296Y-36135D01*
X35311Y-36164D01*
X35325Y-36178D01*
X35354Y-36193D01*
X35382Y-36193D01*
X35425Y-36178D01*
X35596Y-36007D01*
X35596Y-36193D01*
X35425Y-36364D02*
X35411Y-36336D01*
X35396Y-36321D01*
X35368Y-36307D01*
X35354Y-36307D01*
X35325Y-36321D01*
X35311Y-36336D01*
X35296Y-36364D01*
X35296Y-36421D01*
X35311Y-36450D01*
X35325Y-36464D01*
X35354Y-36479D01*
X35368Y-36479D01*
X35396Y-36464D01*
X35411Y-36450D01*
X35425Y-36421D01*
X35425Y-36364D01*
X35439Y-36336D01*
X35454Y-36321D01*
X35482Y-36307D01*
X35539Y-36307D01*
X35568Y-36321D01*
X35582Y-36336D01*
X35596Y-36364D01*
X35596Y-36421D01*
X35582Y-36450D01*
X35568Y-36464D01*
X35539Y-36479D01*
X35482Y-36479D01*
X35454Y-36464D01*
X35439Y-36450D01*
X35425Y-36421D01*
X35296Y-36665D02*
X35296Y-36693D01*
X35311Y-36722D01*
X35325Y-36736D01*
X35354Y-36750D01*
X35411Y-36765D01*
X35482Y-36765D01*
X35539Y-36750D01*
X35568Y-36736D01*
X35582Y-36722D01*
X35596Y-36693D01*
X35596Y-36665D01*
X35582Y-36636D01*
X35568Y-36622D01*
X35539Y-36607D01*
X35482Y-36593D01*
X35411Y-36593D01*
X35354Y-36607D01*
X35325Y-36622D01*
X35311Y-36636D01*
X35296Y-36665D01*
X35296Y-36865D02*
X35296Y-37051D01*
X35411Y-36951D01*
X35411Y-36993D01*
X35425Y-37022D01*
X35439Y-37036D01*
X35468Y-37051D01*
X35539Y-37051D01*
X35568Y-37036D01*
X35582Y-37022D01*
X35596Y-36993D01*
X35596Y-36908D01*
X35582Y-36879D01*
X35568Y-36865D01*
X18665Y-54496D02*
X18665Y-54196D01*
X18593Y-54196D01*
X18550Y-54211D01*
X18522Y-54239D01*
X18507Y-54268D01*
X18493Y-54325D01*
X18493Y-54368D01*
X18507Y-54425D01*
X18522Y-54454D01*
X18550Y-54482D01*
X18593Y-54496D01*
X18665Y-54496D01*
X18236Y-54196D02*
X18293Y-54196D01*
X18322Y-54211D01*
X18336Y-54225D01*
X18365Y-54268D01*
X18379Y-54325D01*
X18379Y-54439D01*
X18365Y-54468D01*
X18350Y-54482D01*
X18322Y-54496D01*
X18265Y-54496D01*
X18236Y-54482D01*
X18222Y-54468D01*
X18207Y-54439D01*
X18207Y-54368D01*
X18222Y-54339D01*
X18236Y-54325D01*
X18265Y-54311D01*
X18322Y-54311D01*
X18350Y-54325D01*
X18365Y-54339D01*
X18379Y-54368D01*
X17921Y-54496D02*
X18093Y-54496D01*
X18007Y-54496D02*
X18007Y-54196D01*
X18036Y-54239D01*
X18064Y-54268D01*
X18093Y-54282D01*
X31833Y-45771D02*
X31633Y-46071D01*
X31633Y-45771D02*
X31833Y-46071D01*
X31361Y-46071D02*
X31533Y-46071D01*
X31447Y-46071D02*
X31447Y-45771D01*
X31476Y-45814D01*
X31504Y-45843D01*
X31533Y-45857D01*
X32097Y-48021D02*
X32269Y-48021D01*
X32183Y-48021D02*
X32183Y-47721D01*
X32212Y-47764D01*
X32240Y-47793D01*
X32269Y-47807D01*
X31840Y-47721D02*
X31897Y-47721D01*
X31926Y-47736D01*
X31940Y-47750D01*
X31969Y-47793D01*
X31983Y-47850D01*
X31983Y-47964D01*
X31969Y-47993D01*
X31954Y-48007D01*
X31926Y-48021D01*
X31869Y-48021D01*
X31840Y-48007D01*
X31826Y-47993D01*
X31811Y-47964D01*
X31811Y-47893D01*
X31826Y-47864D01*
X31840Y-47850D01*
X31869Y-47836D01*
X31926Y-47836D01*
X31954Y-47850D01*
X31969Y-47864D01*
X31983Y-47893D01*
X31683Y-48021D02*
X31683Y-47721D01*
X31583Y-47936D01*
X31483Y-47721D01*
X31483Y-48021D01*
X31340Y-48021D02*
X31340Y-47721D01*
X31340Y-47864D02*
X31168Y-47864D01*
X31168Y-48021D02*
X31168Y-47721D01*
X31054Y-47821D02*
X30897Y-47821D01*
X31054Y-48021D01*
X30897Y-48021D01*
X39493Y-31221D02*
X39593Y-31079D01*
X39665Y-31221D02*
X39665Y-30921D01*
X39550Y-30921D01*
X39522Y-30936D01*
X39507Y-30950D01*
X39493Y-30979D01*
X39493Y-31021D01*
X39507Y-31050D01*
X39522Y-31064D01*
X39550Y-31079D01*
X39665Y-31079D01*
X39379Y-30950D02*
X39365Y-30936D01*
X39336Y-30921D01*
X39265Y-30921D01*
X39236Y-30936D01*
X39222Y-30950D01*
X39207Y-30979D01*
X39207Y-31007D01*
X39222Y-31050D01*
X39393Y-31221D01*
X39207Y-31221D01*
X39036Y-31050D02*
X39064Y-31036D01*
X39079Y-31021D01*
X39093Y-30993D01*
X39093Y-30979D01*
X39079Y-30950D01*
X39064Y-30936D01*
X39036Y-30921D01*
X38979Y-30921D01*
X38950Y-30936D01*
X38936Y-30950D01*
X38921Y-30979D01*
X38921Y-30993D01*
X38936Y-31021D01*
X38950Y-31036D01*
X38979Y-31050D01*
X39036Y-31050D01*
X39064Y-31064D01*
X39079Y-31079D01*
X39093Y-31107D01*
X39093Y-31164D01*
X39079Y-31193D01*
X39064Y-31207D01*
X39036Y-31221D01*
X38979Y-31221D01*
X38950Y-31207D01*
X38936Y-31193D01*
X38921Y-31164D01*
X38921Y-31107D01*
X38936Y-31079D01*
X38950Y-31064D01*
X38979Y-31050D01*
X46993Y-26371D02*
X47093Y-26229D01*
X47165Y-26371D02*
X47165Y-26071D01*
X47050Y-26071D01*
X47022Y-26086D01*
X47007Y-26100D01*
X46993Y-26129D01*
X46993Y-26171D01*
X47007Y-26200D01*
X47022Y-26214D01*
X47050Y-26229D01*
X47165Y-26229D01*
X46879Y-26100D02*
X46865Y-26086D01*
X46836Y-26071D01*
X46765Y-26071D01*
X46736Y-26086D01*
X46722Y-26100D01*
X46707Y-26129D01*
X46707Y-26157D01*
X46722Y-26200D01*
X46893Y-26371D01*
X46707Y-26371D01*
X46607Y-26071D02*
X46407Y-26071D01*
X46536Y-26371D01*
X46993Y-34371D02*
X47093Y-34229D01*
X47165Y-34371D02*
X47165Y-34071D01*
X47050Y-34071D01*
X47022Y-34086D01*
X47007Y-34100D01*
X46993Y-34129D01*
X46993Y-34171D01*
X47007Y-34200D01*
X47022Y-34214D01*
X47050Y-34229D01*
X47165Y-34229D01*
X46879Y-34100D02*
X46865Y-34086D01*
X46836Y-34071D01*
X46765Y-34071D01*
X46736Y-34086D01*
X46722Y-34100D01*
X46707Y-34129D01*
X46707Y-34157D01*
X46722Y-34200D01*
X46893Y-34371D01*
X46707Y-34371D01*
X46450Y-34071D02*
X46507Y-34071D01*
X46536Y-34086D01*
X46550Y-34100D01*
X46579Y-34143D01*
X46593Y-34200D01*
X46593Y-34314D01*
X46579Y-34343D01*
X46564Y-34357D01*
X46536Y-34371D01*
X46479Y-34371D01*
X46450Y-34357D01*
X46436Y-34343D01*
X46421Y-34314D01*
X46421Y-34243D01*
X46436Y-34214D01*
X46450Y-34200D01*
X46479Y-34186D01*
X46536Y-34186D01*
X46564Y-34200D01*
X46579Y-34214D01*
X46593Y-34243D01*
X39493Y-23171D02*
X39593Y-23029D01*
X39665Y-23171D02*
X39665Y-22871D01*
X39550Y-22871D01*
X39522Y-22886D01*
X39507Y-22900D01*
X39493Y-22929D01*
X39493Y-22971D01*
X39507Y-23000D01*
X39522Y-23014D01*
X39550Y-23029D01*
X39665Y-23029D01*
X39379Y-22900D02*
X39365Y-22886D01*
X39336Y-22871D01*
X39265Y-22871D01*
X39236Y-22886D01*
X39222Y-22900D01*
X39207Y-22929D01*
X39207Y-22957D01*
X39222Y-23000D01*
X39393Y-23171D01*
X39207Y-23171D01*
X39064Y-23171D02*
X39007Y-23171D01*
X38979Y-23157D01*
X38964Y-23143D01*
X38936Y-23100D01*
X38921Y-23043D01*
X38921Y-22929D01*
X38936Y-22900D01*
X38950Y-22886D01*
X38979Y-22871D01*
X39036Y-22871D01*
X39064Y-22886D01*
X39079Y-22900D01*
X39093Y-22929D01*
X39093Y-23000D01*
X39079Y-23029D01*
X39064Y-23043D01*
X39036Y-23057D01*
X38979Y-23057D01*
X38950Y-23043D01*
X38936Y-23029D01*
X38921Y-23000D01*
X61993Y-26371D02*
X62093Y-26229D01*
X62165Y-26371D02*
X62165Y-26071D01*
X62050Y-26071D01*
X62022Y-26086D01*
X62007Y-26100D01*
X61993Y-26129D01*
X61993Y-26171D01*
X62007Y-26200D01*
X62022Y-26214D01*
X62050Y-26229D01*
X62165Y-26229D01*
X61879Y-26100D02*
X61865Y-26086D01*
X61836Y-26071D01*
X61765Y-26071D01*
X61736Y-26086D01*
X61722Y-26100D01*
X61707Y-26129D01*
X61707Y-26157D01*
X61722Y-26200D01*
X61893Y-26371D01*
X61707Y-26371D01*
X61436Y-26071D02*
X61579Y-26071D01*
X61593Y-26214D01*
X61579Y-26200D01*
X61550Y-26186D01*
X61479Y-26186D01*
X61450Y-26200D01*
X61436Y-26214D01*
X61421Y-26243D01*
X61421Y-26314D01*
X61436Y-26343D01*
X61450Y-26357D01*
X61479Y-26371D01*
X61550Y-26371D01*
X61579Y-26357D01*
X61593Y-26343D01*
X61993Y-34271D02*
X62093Y-34129D01*
X62165Y-34271D02*
X62165Y-33971D01*
X62050Y-33971D01*
X62022Y-33986D01*
X62007Y-34000D01*
X61993Y-34029D01*
X61993Y-34071D01*
X62007Y-34100D01*
X62022Y-34114D01*
X62050Y-34129D01*
X62165Y-34129D01*
X61879Y-34000D02*
X61865Y-33986D01*
X61836Y-33971D01*
X61765Y-33971D01*
X61736Y-33986D01*
X61722Y-34000D01*
X61707Y-34029D01*
X61707Y-34057D01*
X61722Y-34100D01*
X61893Y-34271D01*
X61707Y-34271D01*
X61450Y-34071D02*
X61450Y-34271D01*
X61521Y-33957D02*
X61593Y-34171D01*
X61407Y-34171D01*
X69743Y-20396D02*
X69843Y-20254D01*
X69915Y-20396D02*
X69915Y-20096D01*
X69800Y-20096D01*
X69772Y-20111D01*
X69757Y-20125D01*
X69743Y-20154D01*
X69743Y-20196D01*
X69757Y-20225D01*
X69772Y-20239D01*
X69800Y-20254D01*
X69915Y-20254D01*
X69629Y-20125D02*
X69615Y-20111D01*
X69586Y-20096D01*
X69515Y-20096D01*
X69486Y-20111D01*
X69472Y-20125D01*
X69457Y-20154D01*
X69457Y-20182D01*
X69472Y-20225D01*
X69643Y-20396D01*
X69457Y-20396D01*
X69357Y-20096D02*
X69171Y-20096D01*
X69271Y-20211D01*
X69229Y-20211D01*
X69200Y-20225D01*
X69186Y-20239D01*
X69171Y-20268D01*
X69171Y-20339D01*
X69186Y-20368D01*
X69200Y-20382D01*
X69229Y-20396D01*
X69314Y-20396D01*
X69343Y-20382D01*
X69357Y-20368D01*
X69743Y-24621D02*
X69843Y-24479D01*
X69915Y-24621D02*
X69915Y-24321D01*
X69800Y-24321D01*
X69772Y-24336D01*
X69757Y-24350D01*
X69743Y-24379D01*
X69743Y-24421D01*
X69757Y-24450D01*
X69772Y-24464D01*
X69800Y-24479D01*
X69915Y-24479D01*
X69629Y-24350D02*
X69615Y-24336D01*
X69586Y-24321D01*
X69515Y-24321D01*
X69486Y-24336D01*
X69472Y-24350D01*
X69457Y-24379D01*
X69457Y-24407D01*
X69472Y-24450D01*
X69643Y-24621D01*
X69457Y-24621D01*
X69343Y-24350D02*
X69329Y-24336D01*
X69300Y-24321D01*
X69229Y-24321D01*
X69200Y-24336D01*
X69186Y-24350D01*
X69171Y-24379D01*
X69171Y-24407D01*
X69186Y-24450D01*
X69357Y-24621D01*
X69171Y-24621D01*
X68693Y-40571D02*
X68793Y-40429D01*
X68865Y-40571D02*
X68865Y-40271D01*
X68750Y-40271D01*
X68722Y-40286D01*
X68707Y-40300D01*
X68693Y-40329D01*
X68693Y-40371D01*
X68707Y-40400D01*
X68722Y-40414D01*
X68750Y-40429D01*
X68865Y-40429D01*
X68579Y-40300D02*
X68565Y-40286D01*
X68536Y-40271D01*
X68465Y-40271D01*
X68436Y-40286D01*
X68422Y-40300D01*
X68407Y-40329D01*
X68407Y-40357D01*
X68422Y-40400D01*
X68593Y-40571D01*
X68407Y-40571D01*
X68221Y-40271D02*
X68193Y-40271D01*
X68164Y-40286D01*
X68150Y-40300D01*
X68136Y-40329D01*
X68121Y-40386D01*
X68121Y-40457D01*
X68136Y-40514D01*
X68150Y-40543D01*
X68164Y-40557D01*
X68193Y-40571D01*
X68221Y-40571D01*
X68250Y-40557D01*
X68264Y-40543D01*
X68279Y-40514D01*
X68293Y-40457D01*
X68293Y-40386D01*
X68279Y-40329D01*
X68264Y-40300D01*
X68250Y-40286D01*
X68221Y-40271D01*
X64568Y-39171D02*
X64668Y-39029D01*
X64740Y-39171D02*
X64740Y-38871D01*
X64625Y-38871D01*
X64597Y-38886D01*
X64582Y-38900D01*
X64568Y-38929D01*
X64568Y-38971D01*
X64582Y-39000D01*
X64597Y-39014D01*
X64625Y-39029D01*
X64740Y-39029D01*
X64282Y-39171D02*
X64454Y-39171D01*
X64368Y-39171D02*
X64368Y-38871D01*
X64397Y-38914D01*
X64425Y-38943D01*
X64454Y-38957D01*
X64139Y-39171D02*
X64082Y-39171D01*
X64054Y-39157D01*
X64039Y-39143D01*
X64011Y-39100D01*
X63996Y-39043D01*
X63996Y-38929D01*
X64011Y-38900D01*
X64025Y-38886D01*
X64054Y-38871D01*
X64111Y-38871D01*
X64139Y-38886D01*
X64154Y-38900D01*
X64168Y-38929D01*
X64168Y-39000D01*
X64154Y-39029D01*
X64139Y-39043D01*
X64111Y-39057D01*
X64054Y-39057D01*
X64025Y-39043D01*
X64011Y-39029D01*
X63996Y-39000D01*
X54493Y-56871D02*
X54593Y-56729D01*
X54665Y-56871D02*
X54665Y-56571D01*
X54550Y-56571D01*
X54522Y-56586D01*
X54507Y-56600D01*
X54493Y-56629D01*
X54493Y-56671D01*
X54507Y-56700D01*
X54522Y-56714D01*
X54550Y-56729D01*
X54665Y-56729D01*
X54393Y-56571D02*
X54207Y-56571D01*
X54307Y-56686D01*
X54265Y-56686D01*
X54236Y-56700D01*
X54222Y-56714D01*
X54207Y-56743D01*
X54207Y-56814D01*
X54222Y-56843D01*
X54236Y-56857D01*
X54265Y-56871D01*
X54350Y-56871D01*
X54379Y-56857D01*
X54393Y-56843D01*
X54021Y-56571D02*
X53993Y-56571D01*
X53964Y-56586D01*
X53950Y-56600D01*
X53936Y-56629D01*
X53921Y-56686D01*
X53921Y-56757D01*
X53936Y-56814D01*
X53950Y-56843D01*
X53964Y-56857D01*
X53993Y-56871D01*
X54021Y-56871D01*
X54050Y-56857D01*
X54064Y-56843D01*
X54079Y-56814D01*
X54093Y-56757D01*
X54093Y-56686D01*
X54079Y-56629D01*
X54064Y-56600D01*
X54050Y-56586D01*
X54021Y-56571D01*
X54493Y-52871D02*
X54593Y-52729D01*
X54665Y-52871D02*
X54665Y-52571D01*
X54550Y-52571D01*
X54522Y-52586D01*
X54507Y-52600D01*
X54493Y-52629D01*
X54493Y-52671D01*
X54507Y-52700D01*
X54522Y-52714D01*
X54550Y-52729D01*
X54665Y-52729D01*
X54393Y-52571D02*
X54207Y-52571D01*
X54307Y-52686D01*
X54265Y-52686D01*
X54236Y-52700D01*
X54222Y-52714D01*
X54207Y-52743D01*
X54207Y-52814D01*
X54222Y-52843D01*
X54236Y-52857D01*
X54265Y-52871D01*
X54350Y-52871D01*
X54379Y-52857D01*
X54393Y-52843D01*
X53921Y-52871D02*
X54093Y-52871D01*
X54007Y-52871D02*
X54007Y-52571D01*
X54036Y-52614D01*
X54064Y-52643D01*
X54093Y-52657D01*
X54493Y-44871D02*
X54593Y-44729D01*
X54665Y-44871D02*
X54665Y-44571D01*
X54550Y-44571D01*
X54522Y-44586D01*
X54507Y-44600D01*
X54493Y-44629D01*
X54493Y-44671D01*
X54507Y-44700D01*
X54522Y-44714D01*
X54550Y-44729D01*
X54665Y-44729D01*
X54393Y-44571D02*
X54207Y-44571D01*
X54307Y-44686D01*
X54265Y-44686D01*
X54236Y-44700D01*
X54222Y-44714D01*
X54207Y-44743D01*
X54207Y-44814D01*
X54222Y-44843D01*
X54236Y-44857D01*
X54265Y-44871D01*
X54350Y-44871D01*
X54379Y-44857D01*
X54393Y-44843D01*
X54107Y-44571D02*
X53921Y-44571D01*
X54021Y-44686D01*
X53979Y-44686D01*
X53950Y-44700D01*
X53936Y-44714D01*
X53921Y-44743D01*
X53921Y-44814D01*
X53936Y-44843D01*
X53950Y-44857D01*
X53979Y-44871D01*
X54064Y-44871D01*
X54093Y-44857D01*
X54107Y-44843D01*
X54493Y-40871D02*
X54593Y-40729D01*
X54665Y-40871D02*
X54665Y-40571D01*
X54550Y-40571D01*
X54522Y-40586D01*
X54507Y-40600D01*
X54493Y-40629D01*
X54493Y-40671D01*
X54507Y-40700D01*
X54522Y-40714D01*
X54550Y-40729D01*
X54665Y-40729D01*
X54393Y-40571D02*
X54207Y-40571D01*
X54307Y-40686D01*
X54265Y-40686D01*
X54236Y-40700D01*
X54222Y-40714D01*
X54207Y-40743D01*
X54207Y-40814D01*
X54222Y-40843D01*
X54236Y-40857D01*
X54265Y-40871D01*
X54350Y-40871D01*
X54379Y-40857D01*
X54393Y-40843D01*
X53950Y-40671D02*
X53950Y-40871D01*
X54021Y-40557D02*
X54093Y-40771D01*
X53907Y-40771D01*
X54493Y-36871D02*
X54593Y-36729D01*
X54665Y-36871D02*
X54665Y-36571D01*
X54550Y-36571D01*
X54522Y-36586D01*
X54507Y-36600D01*
X54493Y-36629D01*
X54493Y-36671D01*
X54507Y-36700D01*
X54522Y-36714D01*
X54550Y-36729D01*
X54665Y-36729D01*
X54393Y-36571D02*
X54207Y-36571D01*
X54307Y-36686D01*
X54265Y-36686D01*
X54236Y-36700D01*
X54222Y-36714D01*
X54207Y-36743D01*
X54207Y-36814D01*
X54222Y-36843D01*
X54236Y-36857D01*
X54265Y-36871D01*
X54350Y-36871D01*
X54379Y-36857D01*
X54393Y-36843D01*
X53936Y-36571D02*
X54079Y-36571D01*
X54093Y-36714D01*
X54079Y-36700D01*
X54050Y-36686D01*
X53979Y-36686D01*
X53950Y-36700D01*
X53936Y-36714D01*
X53921Y-36743D01*
X53921Y-36814D01*
X53936Y-36843D01*
X53950Y-36857D01*
X53979Y-36871D01*
X54050Y-36871D01*
X54079Y-36857D01*
X54093Y-36843D01*
X54493Y-32871D02*
X54593Y-32729D01*
X54665Y-32871D02*
X54665Y-32571D01*
X54550Y-32571D01*
X54522Y-32586D01*
X54507Y-32600D01*
X54493Y-32629D01*
X54493Y-32671D01*
X54507Y-32700D01*
X54522Y-32714D01*
X54550Y-32729D01*
X54665Y-32729D01*
X54393Y-32571D02*
X54207Y-32571D01*
X54307Y-32686D01*
X54265Y-32686D01*
X54236Y-32700D01*
X54222Y-32714D01*
X54207Y-32743D01*
X54207Y-32814D01*
X54222Y-32843D01*
X54236Y-32857D01*
X54265Y-32871D01*
X54350Y-32871D01*
X54379Y-32857D01*
X54393Y-32843D01*
X53950Y-32571D02*
X54007Y-32571D01*
X54036Y-32586D01*
X54050Y-32600D01*
X54079Y-32643D01*
X54093Y-32700D01*
X54093Y-32814D01*
X54079Y-32843D01*
X54064Y-32857D01*
X54036Y-32871D01*
X53979Y-32871D01*
X53950Y-32857D01*
X53936Y-32843D01*
X53921Y-32814D01*
X53921Y-32743D01*
X53936Y-32714D01*
X53950Y-32700D01*
X53979Y-32686D01*
X54036Y-32686D01*
X54064Y-32700D01*
X54079Y-32714D01*
X54093Y-32743D01*
X54493Y-28871D02*
X54593Y-28729D01*
X54665Y-28871D02*
X54665Y-28571D01*
X54550Y-28571D01*
X54522Y-28586D01*
X54507Y-28600D01*
X54493Y-28629D01*
X54493Y-28671D01*
X54507Y-28700D01*
X54522Y-28714D01*
X54550Y-28729D01*
X54665Y-28729D01*
X54393Y-28571D02*
X54207Y-28571D01*
X54307Y-28686D01*
X54265Y-28686D01*
X54236Y-28700D01*
X54222Y-28714D01*
X54207Y-28743D01*
X54207Y-28814D01*
X54222Y-28843D01*
X54236Y-28857D01*
X54265Y-28871D01*
X54350Y-28871D01*
X54379Y-28857D01*
X54393Y-28843D01*
X54107Y-28571D02*
X53907Y-28571D01*
X54036Y-28871D01*
X54493Y-48871D02*
X54593Y-48729D01*
X54665Y-48871D02*
X54665Y-48571D01*
X54550Y-48571D01*
X54522Y-48586D01*
X54507Y-48600D01*
X54493Y-48629D01*
X54493Y-48671D01*
X54507Y-48700D01*
X54522Y-48714D01*
X54550Y-48729D01*
X54665Y-48729D01*
X54393Y-48571D02*
X54207Y-48571D01*
X54307Y-48686D01*
X54265Y-48686D01*
X54236Y-48700D01*
X54222Y-48714D01*
X54207Y-48743D01*
X54207Y-48814D01*
X54222Y-48843D01*
X54236Y-48857D01*
X54265Y-48871D01*
X54350Y-48871D01*
X54379Y-48857D01*
X54393Y-48843D01*
X54093Y-48600D02*
X54079Y-48586D01*
X54050Y-48571D01*
X53979Y-48571D01*
X53950Y-48586D01*
X53936Y-48600D01*
X53921Y-48629D01*
X53921Y-48657D01*
X53936Y-48700D01*
X54107Y-48871D01*
X53921Y-48871D01*
X69743Y-32621D02*
X69843Y-32479D01*
X69915Y-32621D02*
X69915Y-32321D01*
X69800Y-32321D01*
X69772Y-32336D01*
X69757Y-32350D01*
X69743Y-32379D01*
X69743Y-32421D01*
X69757Y-32450D01*
X69772Y-32464D01*
X69800Y-32479D01*
X69915Y-32479D01*
X69629Y-32350D02*
X69615Y-32336D01*
X69586Y-32321D01*
X69515Y-32321D01*
X69486Y-32336D01*
X69472Y-32350D01*
X69457Y-32379D01*
X69457Y-32407D01*
X69472Y-32450D01*
X69643Y-32621D01*
X69457Y-32621D01*
X69171Y-32621D02*
X69343Y-32621D01*
X69257Y-32621D02*
X69257Y-32321D01*
X69286Y-32364D01*
X69314Y-32393D01*
X69343Y-32407D01*
X74411Y-50089D02*
X74368Y-50104D01*
X74353Y-50118D01*
X74339Y-50146D01*
X74339Y-50189D01*
X74353Y-50218D01*
X74368Y-50232D01*
X74396Y-50246D01*
X74511Y-50246D01*
X74511Y-49946D01*
X74411Y-49946D01*
X74382Y-49961D01*
X74368Y-49975D01*
X74353Y-50004D01*
X74353Y-50032D01*
X74368Y-50061D01*
X74382Y-50075D01*
X74411Y-50089D01*
X74511Y-50089D01*
X74253Y-49946D02*
X74082Y-49946D01*
X74168Y-50246D02*
X74168Y-49946D01*
X73824Y-50246D02*
X73996Y-50246D01*
X73910Y-50246D02*
X73910Y-49946D01*
X73939Y-49989D01*
X73967Y-50018D01*
X73996Y-50032D01*
X74394Y-49589D02*
X74351Y-49604D01*
X74336Y-49618D01*
X74322Y-49646D01*
X74322Y-49689D01*
X74336Y-49718D01*
X74351Y-49732D01*
X74379Y-49746D01*
X74494Y-49746D01*
X74494Y-49446D01*
X74394Y-49446D01*
X74365Y-49461D01*
X74351Y-49475D01*
X74336Y-49504D01*
X74336Y-49532D01*
X74351Y-49561D01*
X74365Y-49575D01*
X74394Y-49589D01*
X74494Y-49589D01*
X74208Y-49661D02*
X74065Y-49661D01*
X74236Y-49746D02*
X74136Y-49446D01*
X74036Y-49746D01*
X73979Y-49446D02*
X73808Y-49446D01*
X73894Y-49746D02*
X73894Y-49446D01*
X73750Y-49446D02*
X73579Y-49446D01*
X73665Y-49746D02*
X73665Y-49446D01*
X73550Y-49775D02*
X73321Y-49775D01*
X73107Y-49746D02*
X73250Y-49746D01*
X73250Y-49446D01*
X73007Y-49746D02*
X73007Y-49546D01*
X73007Y-49446D02*
X73021Y-49461D01*
X73007Y-49475D01*
X72992Y-49461D01*
X73007Y-49446D01*
X73007Y-49475D01*
G54D15*
X68359Y-47515D02*
X68549Y-47515D01*
X68549Y-46373D01*
X68359Y-46373D01*
X68055Y-46944D02*
X67445Y-46944D01*
X67141Y-47515D02*
X66950Y-47515D01*
X66950Y-46373D01*
X67141Y-46373D01*
X62659Y-50290D02*
X62849Y-50290D01*
X62849Y-49148D01*
X62659Y-49148D01*
X62355Y-49719D02*
X61745Y-49719D01*
X62050Y-50024D02*
X62050Y-49414D01*
X61441Y-50290D02*
X61250Y-50290D01*
X61250Y-49148D01*
X61441Y-49148D01*
G54D16*
X43118Y-37296D02*
X43218Y-37154D01*
X43290Y-37296D02*
X43290Y-36996D01*
X43175Y-36996D01*
X43147Y-37011D01*
X43132Y-37025D01*
X43118Y-37054D01*
X43118Y-37096D01*
X43132Y-37125D01*
X43147Y-37139D01*
X43175Y-37154D01*
X43290Y-37154D01*
X42861Y-37096D02*
X42861Y-37296D01*
X42932Y-36982D02*
X43004Y-37196D01*
X42818Y-37196D01*
X42575Y-37096D02*
X42575Y-37296D01*
X42646Y-36982D02*
X42718Y-37196D01*
X42532Y-37196D01*
X43118Y-38293D02*
X43132Y-38307D01*
X43175Y-38321D01*
X43204Y-38321D01*
X43247Y-38307D01*
X43275Y-38279D01*
X43290Y-38250D01*
X43304Y-38193D01*
X43304Y-38150D01*
X43290Y-38093D01*
X43275Y-38064D01*
X43247Y-38036D01*
X43204Y-38021D01*
X43175Y-38021D01*
X43132Y-38036D01*
X43118Y-38050D01*
X42832Y-38321D02*
X43004Y-38321D01*
X42918Y-38321D02*
X42918Y-38021D01*
X42947Y-38064D01*
X42975Y-38093D01*
X43004Y-38107D01*
X42546Y-38321D02*
X42718Y-38321D01*
X42632Y-38321D02*
X42632Y-38021D01*
X42661Y-38064D01*
X42689Y-38093D01*
X42718Y-38107D01*
%LPC*%
G54D17*
X71850Y-58600D03*
X71850Y-57600D03*
X72850Y-58600D03*
X72850Y-57600D03*
X73850Y-58600D03*
X73850Y-57600D03*
X72850Y-54600D03*
G54D18*
X61089Y-54070D03*
X62861Y-56630D03*
X62861Y-54070D03*
X61089Y-56630D03*
G54D17*
X61100Y-58200D03*
X62100Y-58200D03*
X63100Y-58200D03*
X62100Y-59200D03*
G54D19*
X64250Y-57600D03*
G54D20*
X65250Y-57600D03*
G54D19*
X68250Y-57600D03*
G54D20*
X67250Y-57600D03*
G54D21*
X69900Y-58850D03*
G54D18*
X69900Y-57850D03*
G54D22*
X16550Y-57200D03*
G54D23*
X18550Y-57200D03*
G54D24*
X61900Y-41750D03*
X63100Y-41750D03*
X65900Y-41750D03*
X67100Y-41750D03*
X69900Y-41750D03*
X71100Y-41750D03*
X70900Y-37750D03*
X72100Y-37750D03*
X70900Y-33750D03*
X72100Y-33750D03*
X70900Y-29750D03*
X72100Y-29750D03*
X70900Y-25750D03*
X72100Y-25750D03*
X70900Y-21750D03*
X72100Y-21750D03*
X64350Y-19500D03*
X63150Y-19500D03*
X48150Y-19500D03*
X49350Y-19500D03*
X63150Y-35500D03*
X64350Y-35500D03*
X63150Y-31500D03*
X64350Y-31500D03*
X63150Y-27500D03*
X64350Y-27500D03*
X63150Y-23500D03*
X64350Y-23500D03*
X48150Y-35500D03*
X49350Y-35500D03*
X48150Y-31500D03*
X49350Y-31500D03*
X48150Y-27500D03*
X49350Y-27500D03*
X48150Y-23500D03*
X49350Y-23500D03*
X40650Y-32300D03*
X41850Y-32300D03*
X40650Y-28300D03*
X41850Y-28300D03*
X40650Y-24300D03*
X41850Y-24300D03*
X40650Y-20300D03*
X41850Y-20300D03*
X55650Y-58000D03*
X56850Y-58000D03*
X55650Y-54000D03*
X56850Y-54000D03*
X55650Y-50000D03*
X56850Y-50000D03*
X55650Y-46000D03*
X56850Y-46000D03*
X55650Y-42000D03*
X56850Y-42000D03*
X55650Y-38000D03*
X56850Y-38000D03*
X55650Y-34000D03*
X56850Y-34000D03*
X55650Y-30000D03*
X56850Y-30000D03*
G54D25*
X29450Y-55000D03*
X29450Y-54200D03*
G54D18*
X27855Y-58890D03*
X26105Y-58890D03*
G54D26*
X28355Y-57890D03*
X25605Y-57890D03*
G54D18*
X26480Y-57390D03*
X27480Y-57390D03*
X22855Y-58890D03*
X21105Y-58890D03*
G54D26*
X23355Y-57890D03*
X20605Y-57890D03*
G54D18*
X21480Y-57390D03*
X22480Y-57390D03*
G54D27*
X56500Y-15500D03*
X56500Y-20500D03*
G54D28*
X39960Y-47900D03*
X39960Y-47300D03*
G54D29*
X37400Y-37175D03*
G54D30*
X38400Y-37175D03*
X39400Y-37175D03*
G54D31*
X16975Y-45000D03*
G54D32*
X19800Y-45850D03*
X19800Y-44150D03*
G54D31*
X16975Y-48500D03*
G54D32*
X19800Y-49350D03*
X19800Y-47650D03*
G54D17*
X36500Y-56500D03*
X36500Y-57500D03*
X36500Y-58500D03*
X30625Y-56500D03*
X30625Y-57500D03*
X30625Y-58500D03*
G54D29*
X44025Y-13500D03*
G54D30*
X43025Y-13500D03*
X42025Y-13500D03*
X41025Y-13500D03*
X40025Y-13500D03*
X39025Y-13500D03*
G54D29*
X44025Y-14500D03*
G54D30*
X43025Y-14500D03*
X42025Y-14500D03*
X41025Y-14500D03*
X40025Y-14500D03*
X39025Y-14500D03*
G54D29*
X46000Y-58000D03*
G54D30*
X47000Y-58000D03*
X48000Y-58000D03*
X49000Y-58000D03*
X50000Y-58000D03*
X51000Y-58000D03*
G54D29*
X46000Y-59000D03*
G54D30*
X47000Y-59000D03*
X48000Y-59000D03*
X49000Y-59000D03*
X50000Y-59000D03*
X51000Y-59000D03*
G54D33*
X17400Y-50760D03*
X16600Y-50760D03*
G54D34*
X21440Y-49350D03*
X21440Y-48550D03*
X29450Y-58400D03*
X29450Y-59200D03*
X21440Y-44150D03*
X21440Y-44950D03*
G54D35*
X17900Y-52775D03*
X16100Y-52750D03*
G54D36*
X36100Y-51300D03*
X36100Y-50300D03*
X36100Y-49300D03*
X36100Y-48300D03*
X36100Y-47300D03*
X36100Y-46300D03*
G54D37*
X36100Y-45300D03*
G54D36*
X36100Y-44300D03*
X36100Y-43300D03*
X36100Y-42300D03*
X36100Y-41300D03*
X36100Y-40300D03*
X36100Y-39300D03*
X36100Y-52300D03*
X39100Y-39300D03*
X39100Y-40300D03*
X39100Y-41300D03*
X39100Y-42300D03*
X39100Y-43300D03*
X39100Y-44300D03*
X39100Y-45300D03*
G54D37*
X39100Y-46300D03*
G54D36*
X39100Y-47300D03*
X39100Y-48300D03*
X39100Y-49300D03*
X39100Y-50300D03*
X39100Y-51300D03*
X39100Y-52300D03*
G54D38*
X38000Y-59000D03*
X39000Y-59000D03*
G54D17*
X40000Y-59000D03*
X41000Y-59000D03*
X42000Y-59000D03*
X43000Y-59000D03*
X38000Y-56500D03*
X38000Y-57500D03*
X39000Y-56500D03*
X39000Y-57500D03*
X40000Y-56500D03*
G54D38*
X40000Y-57500D03*
G54D28*
X40100Y-39900D03*
X40100Y-39000D03*
X37450Y-39300D03*
X30560Y-33280D03*
G54D30*
X44500Y-59000D03*
G54D29*
X44500Y-56000D03*
G54D30*
X44500Y-57000D03*
X44500Y-58000D03*
G54D39*
X42225Y-57500D03*
X42975Y-57500D03*
X42225Y-56500D03*
X42975Y-56500D03*
G54D40*
X30925Y-54225D03*
X30925Y-54975D03*
X24480Y-58565D03*
X24480Y-59315D03*
X24480Y-56815D03*
X24480Y-57565D03*
G54D41*
X31300Y-44550D03*
X31300Y-44050D03*
X31300Y-43550D03*
X31300Y-43050D03*
X31300Y-42550D03*
X31300Y-42050D03*
X31300Y-41550D03*
X31300Y-41050D03*
X33200Y-41050D03*
X33200Y-41550D03*
X33200Y-42050D03*
X33200Y-42550D03*
X33200Y-43050D03*
X33200Y-43550D03*
X33200Y-44050D03*
X33200Y-44550D03*
G54D42*
X34560Y-38080D03*
X34060Y-38080D03*
X33560Y-38080D03*
X33060Y-38080D03*
X32560Y-38080D03*
X32060Y-38080D03*
X31560Y-38080D03*
X31060Y-38080D03*
X31060Y-34080D03*
X31560Y-34080D03*
X32060Y-34080D03*
X32560Y-34080D03*
X33060Y-34080D03*
X33560Y-34080D03*
X34060Y-34080D03*
X34560Y-34080D03*
X30560Y-38080D03*
X30560Y-34080D03*
G54D43*
X17400Y-54375D03*
X16550Y-54375D03*
G54D27*
X33500Y-52000D03*
X33500Y-57000D03*
G54D17*
X32590Y-46900D03*
X30590Y-46900D03*
G54D38*
X31590Y-46900D03*
G54D39*
X39675Y-30350D03*
X38925Y-30350D03*
X47175Y-25500D03*
X46425Y-25500D03*
X47175Y-33500D03*
X46425Y-33500D03*
X39675Y-22300D03*
X38925Y-22300D03*
X62175Y-25500D03*
X61425Y-25500D03*
X62175Y-33400D03*
X61425Y-33400D03*
X69925Y-19525D03*
X69175Y-19525D03*
X69925Y-23750D03*
X69175Y-23750D03*
X68875Y-39700D03*
X68125Y-39700D03*
X64000Y-39700D03*
X64750Y-39700D03*
X54675Y-56000D03*
X53925Y-56000D03*
X54675Y-52000D03*
X53925Y-52000D03*
X54675Y-44000D03*
X53925Y-44000D03*
X54675Y-40000D03*
X53925Y-40000D03*
X54675Y-36000D03*
X53925Y-36000D03*
X54675Y-32000D03*
X53925Y-32000D03*
X54675Y-28000D03*
X53925Y-28000D03*
X54675Y-48000D03*
X53925Y-48000D03*
X69925Y-31750D03*
X69175Y-31750D03*
G54D44*
X62150Y-51600D03*
X73350Y-51600D03*
G54D45*
X67750Y-51600D03*
G54D39*
X42000Y-37175D03*
X41250Y-37175D03*
G54D33*
X41250Y-38200D03*
X42050Y-38200D03*
M02*
