G04 (created by PCBNEW-RS274X (2011-12-28 BZR 3254)-stable) date 7/11/2012 5:38:12 PM*
G01*
G70*
G90*
%MOIN*%
G04 Gerber Fmt 3.4, Leading zero omitted, Abs format*
%FSLAX34Y34*%
G04 APERTURE LIST*
%ADD10C,0.006000*%
%ADD11R,0.051200X0.059000*%
%ADD12R,0.040000X0.050000*%
%ADD13R,0.050000X0.040000*%
%ADD14C,0.060000*%
%ADD15R,0.060000X0.060000*%
%ADD16C,0.200000*%
%ADD17C,0.070000*%
%ADD18C,0.080000*%
%ADD19R,0.040000X0.035000*%
%ADD20R,0.022000X0.060000*%
%ADD21R,0.080000X0.024000*%
%ADD22C,0.065000*%
%ADD23R,0.065000X0.065000*%
%ADD24C,0.040000*%
%ADD25O,0.060000X0.090000*%
%ADD26R,0.060000X0.090000*%
%ADD27R,0.120000X0.064000*%
%ADD28R,0.056000X0.042000*%
%ADD29R,0.100000X0.100000*%
%ADD30C,0.100000*%
%ADD31R,0.228000X0.244000*%
%ADD32R,0.080000X0.120000*%
%ADD33C,0.035000*%
%ADD34C,0.010000*%
G04 APERTURE END LIST*
G54D10*
G54D11*
X69925Y-31750D03*
X69175Y-31750D03*
X54675Y-45000D03*
X53925Y-45000D03*
X54675Y-20000D03*
X53925Y-20000D03*
X54675Y-25000D03*
X53925Y-25000D03*
X54675Y-30000D03*
X53925Y-30000D03*
X54675Y-35000D03*
X53925Y-35000D03*
X54675Y-40000D03*
X53925Y-40000D03*
X54675Y-50000D03*
X53925Y-50000D03*
X54675Y-55000D03*
X53925Y-55000D03*
X64000Y-40000D03*
X64750Y-40000D03*
X69925Y-40000D03*
X69175Y-40000D03*
X69925Y-23750D03*
X69175Y-23750D03*
X69925Y-19525D03*
X69175Y-19525D03*
X62175Y-33400D03*
X61425Y-33400D03*
X62175Y-25500D03*
X61425Y-25500D03*
G54D12*
X55850Y-22500D03*
X56650Y-22500D03*
X64150Y-19500D03*
X63350Y-19500D03*
X71100Y-21750D03*
X71900Y-21750D03*
X71100Y-25750D03*
X71900Y-25750D03*
X71100Y-29750D03*
X71900Y-29750D03*
X71100Y-33750D03*
X71900Y-33750D03*
X71100Y-37750D03*
X71900Y-37750D03*
G54D13*
X70500Y-41350D03*
X70500Y-42150D03*
X66500Y-41350D03*
X66500Y-42150D03*
X62500Y-41350D03*
X62500Y-42150D03*
G54D12*
X55850Y-57500D03*
X56650Y-57500D03*
X55850Y-32500D03*
X56650Y-32500D03*
X55850Y-37500D03*
X56650Y-37500D03*
X48350Y-19500D03*
X49150Y-19500D03*
X55850Y-42500D03*
X56650Y-42500D03*
X55850Y-47500D03*
X56650Y-47500D03*
X55850Y-52500D03*
X56650Y-52500D03*
X55850Y-27500D03*
X56650Y-27500D03*
X63350Y-23500D03*
X64150Y-23500D03*
X63350Y-27500D03*
X64150Y-27500D03*
X63350Y-31500D03*
X64150Y-31500D03*
X63350Y-35500D03*
X64150Y-35500D03*
G54D11*
X39675Y-22300D03*
X38925Y-22300D03*
X47175Y-33500D03*
X46425Y-33500D03*
X47175Y-25500D03*
X46425Y-25500D03*
X39675Y-30350D03*
X38925Y-30350D03*
G54D12*
X40850Y-20300D03*
X41650Y-20300D03*
X40850Y-24300D03*
X41650Y-24300D03*
X40850Y-28300D03*
X41650Y-28300D03*
X40850Y-32300D03*
X41650Y-32300D03*
X48350Y-23500D03*
X49150Y-23500D03*
X48350Y-27500D03*
X49150Y-27500D03*
X48350Y-31500D03*
X49150Y-31500D03*
X48350Y-35500D03*
X49150Y-35500D03*
G54D14*
X35725Y-54100D03*
X37725Y-54100D03*
G54D15*
X36725Y-54100D03*
G54D16*
X33500Y-57000D03*
X56175Y-14275D03*
G54D17*
X16100Y-28650D03*
X16100Y-30400D03*
G54D18*
X17100Y-28150D03*
X17100Y-30900D03*
G54D17*
X17600Y-30025D03*
X17600Y-29025D03*
X16075Y-35950D03*
X16075Y-37700D03*
G54D18*
X17075Y-35450D03*
X17075Y-38200D03*
G54D17*
X17575Y-37325D03*
X17575Y-36325D03*
X16100Y-39875D03*
X16100Y-41625D03*
G54D18*
X17100Y-39375D03*
X17100Y-42125D03*
G54D17*
X17600Y-41250D03*
X17600Y-40250D03*
X16100Y-43800D03*
X16100Y-45550D03*
G54D18*
X17100Y-43300D03*
X17100Y-46050D03*
G54D17*
X17600Y-45175D03*
X17600Y-44175D03*
X16100Y-47875D03*
X16100Y-49625D03*
G54D18*
X17100Y-47375D03*
X17100Y-50125D03*
G54D17*
X17600Y-49250D03*
X17600Y-48250D03*
X50600Y-56500D03*
X48850Y-56500D03*
G54D19*
X17575Y-54375D03*
X16725Y-54375D03*
G54D20*
X35725Y-38075D03*
X35225Y-38075D03*
X34725Y-38075D03*
X34225Y-38075D03*
X33725Y-38075D03*
X33225Y-38075D03*
X32725Y-38075D03*
X32225Y-38075D03*
X32225Y-34075D03*
X32725Y-34075D03*
X33225Y-34075D03*
X33725Y-34075D03*
X34225Y-34075D03*
X34725Y-34075D03*
X35225Y-34075D03*
X35725Y-34075D03*
X31725Y-38075D03*
X31725Y-34075D03*
G54D21*
X32775Y-44550D03*
X32775Y-44050D03*
X32775Y-43550D03*
X32775Y-43050D03*
X32775Y-42550D03*
X32775Y-42050D03*
X32775Y-41550D03*
X32775Y-41050D03*
X34675Y-41050D03*
X34675Y-41550D03*
X34675Y-42050D03*
X34675Y-42550D03*
X34675Y-43050D03*
X34675Y-43550D03*
X34675Y-44050D03*
X34675Y-44550D03*
G54D11*
X25525Y-57325D03*
X26275Y-57325D03*
G54D22*
X42050Y-56025D03*
G54D23*
X39050Y-56025D03*
G54D22*
X40050Y-56025D03*
X41050Y-56025D03*
G54D12*
X25525Y-58625D03*
X26325Y-58625D03*
G54D24*
X31725Y-34950D03*
X40250Y-51675D03*
X40125Y-50775D03*
X39200Y-50775D03*
G54D14*
X39400Y-58875D03*
X39400Y-57875D03*
X40400Y-58875D03*
X40400Y-57875D03*
X41400Y-58875D03*
G54D15*
X41400Y-57875D03*
X33125Y-58900D03*
X34125Y-58900D03*
G54D14*
X35125Y-58900D03*
X36125Y-58900D03*
X37125Y-58900D03*
X38125Y-58900D03*
G54D25*
X28150Y-52725D03*
X29150Y-52725D03*
X30150Y-52725D03*
X31150Y-52725D03*
X32150Y-52725D03*
X33150Y-52725D03*
G54D26*
X34150Y-52725D03*
G54D25*
X35150Y-52725D03*
X36150Y-52725D03*
X37150Y-52725D03*
X38150Y-52725D03*
X39150Y-52725D03*
X40150Y-52725D03*
X27150Y-52725D03*
X40150Y-49725D03*
X39150Y-49725D03*
X38150Y-49725D03*
X37150Y-49725D03*
X36150Y-49725D03*
X35150Y-49725D03*
X34150Y-49725D03*
G54D26*
X33150Y-49725D03*
G54D25*
X32150Y-49725D03*
X31150Y-49725D03*
X30150Y-49725D03*
X29150Y-49725D03*
X28150Y-49725D03*
X27150Y-49725D03*
G54D27*
X17900Y-52775D03*
X16100Y-52750D03*
G54D28*
X26275Y-55125D03*
X26275Y-55925D03*
X30925Y-55850D03*
X30925Y-55050D03*
X25275Y-55125D03*
X25275Y-55925D03*
X20500Y-55125D03*
X20500Y-55925D03*
G54D29*
X18550Y-57200D03*
G54D30*
X16550Y-57200D03*
G54D23*
X46000Y-59000D03*
G54D22*
X47000Y-59000D03*
X48000Y-59000D03*
X49000Y-59000D03*
X50000Y-59000D03*
X51000Y-59000D03*
G54D23*
X46000Y-58000D03*
G54D22*
X47000Y-58000D03*
X48000Y-58000D03*
X49000Y-58000D03*
X50000Y-58000D03*
X51000Y-58000D03*
G54D23*
X44025Y-14500D03*
G54D22*
X43025Y-14500D03*
X42025Y-14500D03*
X41025Y-14500D03*
X40025Y-14500D03*
X39025Y-14500D03*
G54D23*
X44025Y-13500D03*
G54D22*
X43025Y-13500D03*
X42025Y-13500D03*
X41025Y-13500D03*
X40025Y-13500D03*
X39025Y-13500D03*
G54D14*
X31000Y-56875D03*
X31000Y-57875D03*
X31000Y-58875D03*
X44650Y-58975D03*
X43650Y-58975D03*
X42650Y-58975D03*
G54D31*
X22900Y-57950D03*
G54D32*
X23750Y-55125D03*
X22050Y-55125D03*
G54D31*
X28675Y-57950D03*
G54D32*
X29525Y-55125D03*
X27825Y-55125D03*
G54D33*
X28575Y-51050D03*
X20975Y-51050D03*
X51075Y-51050D03*
X43575Y-51050D03*
X53300Y-20000D03*
X42325Y-20850D03*
X70525Y-20850D03*
X49900Y-20850D03*
X66625Y-20850D03*
X46425Y-21600D03*
X61425Y-21600D03*
X38925Y-21600D03*
X58875Y-16450D03*
X58525Y-16050D03*
X58175Y-15650D03*
X57775Y-15250D03*
X56975Y-16825D03*
X55575Y-17150D03*
X55150Y-16450D03*
X39800Y-51600D03*
X47600Y-51600D03*
X18100Y-51600D03*
X25000Y-51600D03*
X41650Y-53525D03*
X25850Y-53525D03*
X35450Y-56175D03*
X35050Y-56575D03*
X34650Y-56975D03*
X35000Y-54175D03*
X34625Y-54575D03*
X35850Y-55775D03*
X34250Y-55375D03*
X36250Y-54975D03*
X48350Y-18550D03*
X62650Y-19500D03*
G54D34*
X43575Y-51050D02*
X28825Y-51050D01*
X28575Y-51050D02*
X28825Y-51050D01*
X20975Y-51050D02*
X28825Y-51050D01*
X51075Y-51050D02*
X43575Y-51050D01*
X53925Y-25000D02*
X53925Y-20000D01*
X53925Y-40000D02*
X53925Y-35000D01*
X53925Y-55000D02*
X53925Y-50000D01*
X53925Y-35000D02*
X53925Y-30000D01*
X53925Y-45000D02*
X53925Y-40000D01*
X53925Y-50000D02*
X53925Y-45000D01*
X53925Y-20000D02*
X53300Y-20000D01*
X53925Y-30000D02*
X53925Y-25000D01*
X66625Y-21125D02*
X66625Y-21650D01*
X49900Y-31200D02*
X49900Y-23500D01*
X70525Y-20850D02*
X72375Y-20850D01*
X72625Y-36675D02*
X72625Y-29750D01*
X66500Y-42650D02*
X66500Y-42150D01*
X72625Y-37750D02*
X72625Y-42550D01*
X42325Y-21175D02*
X42325Y-20300D01*
X66625Y-20850D02*
X66625Y-21125D01*
X49900Y-20600D02*
X49900Y-20850D01*
X66625Y-21650D02*
X64775Y-23500D01*
X64150Y-31500D02*
X64500Y-31500D01*
X42125Y-28300D02*
X42325Y-28100D01*
X71275Y-43000D02*
X66850Y-43000D01*
X64775Y-31225D02*
X64775Y-23500D01*
X49150Y-31500D02*
X49600Y-31500D01*
X72175Y-43000D02*
X71275Y-43000D01*
X49900Y-20600D02*
X49900Y-19500D01*
X71900Y-29750D02*
X72625Y-29750D01*
X42125Y-28300D02*
X41650Y-28300D01*
X43025Y-14500D02*
X44025Y-14500D01*
X49900Y-19500D02*
X49150Y-19500D01*
X41650Y-20300D02*
X42325Y-20300D01*
X43025Y-14500D02*
X43025Y-19600D01*
X64775Y-23500D02*
X64150Y-23500D01*
X71900Y-37750D02*
X72625Y-37750D01*
X72625Y-42550D02*
X72175Y-43000D01*
X43025Y-19600D02*
X42325Y-20300D01*
X49900Y-23500D02*
X49900Y-20600D01*
X72625Y-29750D02*
X72625Y-21750D01*
X42325Y-28100D02*
X42325Y-21175D01*
X49600Y-31500D02*
X49900Y-31200D01*
X49150Y-23500D02*
X49900Y-23500D01*
X72625Y-36675D02*
X72625Y-37750D01*
X72625Y-21750D02*
X72625Y-21100D01*
X66850Y-43000D02*
X66500Y-42650D01*
X72625Y-37450D02*
X72625Y-36675D01*
X42325Y-20850D02*
X42325Y-21175D01*
X64500Y-31500D02*
X64775Y-31225D01*
X72375Y-20850D02*
X72625Y-21100D01*
X72625Y-21750D02*
X71900Y-21750D01*
X42025Y-14500D02*
X42025Y-19100D01*
X65000Y-19850D02*
X63250Y-21600D01*
X65325Y-19525D02*
X65000Y-19850D01*
X42025Y-19100D02*
X41675Y-19450D01*
X46425Y-33500D02*
X46425Y-25500D01*
X64750Y-40000D02*
X69175Y-40000D01*
X69175Y-23750D02*
X69175Y-19525D01*
X69175Y-19525D02*
X65325Y-19525D01*
X61425Y-21600D02*
X61425Y-25500D01*
X41675Y-19450D02*
X39150Y-19450D01*
X69175Y-31750D02*
X69175Y-40000D01*
X38925Y-22200D02*
X38925Y-19675D01*
X61425Y-25500D02*
X61425Y-33400D01*
X38925Y-22300D02*
X38925Y-22200D01*
X38925Y-19675D02*
X39150Y-19450D01*
X69175Y-23750D02*
X69175Y-31750D01*
X38925Y-21600D02*
X38925Y-22200D01*
X61425Y-21600D02*
X63250Y-21600D01*
X46425Y-21600D02*
X46425Y-25500D01*
X38925Y-30350D02*
X38925Y-22300D01*
X56650Y-57500D02*
X58300Y-57500D01*
X58300Y-57500D02*
X58875Y-56925D01*
X58875Y-56925D02*
X58875Y-16450D01*
X58525Y-16925D02*
X58525Y-16050D01*
X58000Y-52500D02*
X58650Y-51850D01*
X58650Y-17050D02*
X58525Y-16925D01*
X58650Y-51850D02*
X58650Y-17050D01*
X56650Y-52500D02*
X58000Y-52500D01*
X56650Y-47500D02*
X58025Y-47500D01*
X58425Y-47100D02*
X58425Y-17175D01*
X58175Y-16925D02*
X58175Y-15650D01*
X58025Y-47500D02*
X58425Y-47100D01*
X58425Y-17175D02*
X58175Y-16925D01*
X58200Y-42250D02*
X58200Y-17275D01*
X56650Y-42500D02*
X57950Y-42500D01*
X57950Y-42500D02*
X58200Y-42250D01*
X57775Y-16850D02*
X57775Y-15250D01*
X58200Y-17275D02*
X57775Y-16850D01*
X46050Y-14825D02*
X44725Y-13500D01*
X57750Y-37500D02*
X57950Y-37300D01*
X57150Y-14825D02*
X46050Y-14825D01*
X57350Y-16800D02*
X57350Y-15025D01*
X44725Y-13500D02*
X44025Y-13500D01*
X57350Y-15025D02*
X57150Y-14825D01*
X57950Y-37300D02*
X57950Y-17400D01*
X57950Y-17400D02*
X57350Y-16800D01*
X56650Y-37500D02*
X57750Y-37500D01*
X56650Y-32500D02*
X57475Y-32500D01*
X57475Y-32500D02*
X57700Y-32275D01*
X57700Y-32275D02*
X57700Y-17550D01*
X57700Y-17550D02*
X56975Y-16825D01*
X57450Y-27300D02*
X57450Y-17850D01*
X55575Y-17150D02*
X56750Y-17150D01*
X56650Y-27500D02*
X57250Y-27500D01*
X57250Y-27500D02*
X57450Y-27300D01*
X56750Y-17150D02*
X57450Y-17850D01*
X57225Y-18175D02*
X56700Y-17650D01*
X56975Y-22500D02*
X57225Y-22250D01*
X55250Y-17650D02*
X56700Y-17650D01*
X57225Y-22250D02*
X57225Y-18175D01*
X55150Y-16450D02*
X55150Y-17550D01*
X56650Y-22500D02*
X56975Y-22500D01*
X55150Y-17550D02*
X55250Y-17650D01*
X40850Y-51600D02*
X47600Y-51600D01*
X25000Y-51600D02*
X39800Y-51600D01*
X39800Y-51600D02*
X40850Y-51600D01*
X18100Y-51600D02*
X25000Y-51600D01*
X25850Y-53525D02*
X41650Y-53525D01*
X47500Y-58500D02*
X48000Y-59000D01*
X46600Y-56175D02*
X47275Y-56175D01*
X47275Y-56175D02*
X47500Y-56400D01*
X47500Y-56400D02*
X47500Y-58500D01*
X35450Y-56175D02*
X46600Y-56175D01*
X46200Y-56575D02*
X46500Y-56875D01*
X46500Y-56875D02*
X46500Y-58500D01*
X46000Y-56575D02*
X46200Y-56575D01*
X46500Y-58500D02*
X47000Y-59000D01*
X35050Y-56575D02*
X46000Y-56575D01*
X34650Y-56975D02*
X44875Y-56975D01*
X45500Y-57250D02*
X45500Y-58500D01*
X45225Y-56975D02*
X45500Y-57250D01*
X45500Y-58500D02*
X46000Y-59000D01*
X44875Y-56975D02*
X45225Y-56975D01*
X51000Y-58000D02*
X51000Y-54525D01*
X51000Y-54525D02*
X50650Y-54175D01*
X35000Y-54175D02*
X50650Y-54175D01*
X34625Y-54575D02*
X49650Y-54575D01*
X50000Y-58000D02*
X50000Y-54925D01*
X50000Y-54925D02*
X49650Y-54575D01*
X48175Y-55775D02*
X48500Y-56100D01*
X48500Y-56100D02*
X48500Y-58500D01*
X47800Y-55775D02*
X48175Y-55775D01*
X48500Y-58500D02*
X49000Y-59000D01*
X35850Y-55775D02*
X47800Y-55775D01*
X48725Y-55375D02*
X49000Y-55650D01*
X48375Y-55375D02*
X48725Y-55375D01*
X49000Y-55650D02*
X49000Y-58000D01*
X34250Y-55375D02*
X48375Y-55375D01*
X48925Y-54975D02*
X49200Y-54975D01*
X49500Y-58500D02*
X50000Y-59000D01*
X49500Y-55275D02*
X49500Y-58500D01*
X36250Y-54975D02*
X48925Y-54975D01*
X49200Y-54975D02*
X49500Y-55275D01*
X64150Y-35500D02*
X64150Y-33750D01*
X64150Y-33750D02*
X63350Y-32950D01*
X63350Y-32950D02*
X63350Y-31500D01*
X49150Y-33500D02*
X48350Y-32700D01*
X49150Y-35500D02*
X49150Y-33500D01*
X48350Y-32700D02*
X48350Y-31500D01*
X48350Y-18550D02*
X48350Y-19500D01*
X63350Y-19500D02*
X62650Y-19500D01*
X63350Y-24875D02*
X63350Y-23500D01*
X64150Y-25675D02*
X63350Y-24875D01*
X64150Y-27500D02*
X64150Y-25675D01*
X71100Y-31475D02*
X71100Y-29750D01*
X71900Y-33750D02*
X71900Y-32275D01*
X71900Y-32275D02*
X71100Y-31475D01*
X71900Y-25750D02*
X71900Y-23925D01*
X71100Y-23125D02*
X71100Y-21750D01*
X71900Y-23925D02*
X71100Y-23125D01*
X64250Y-42150D02*
X65050Y-41350D01*
X65050Y-41350D02*
X66500Y-41350D01*
X62500Y-42150D02*
X64250Y-42150D01*
X41650Y-24300D02*
X41650Y-22700D01*
X40850Y-21900D02*
X40850Y-20300D01*
X41650Y-22700D02*
X40850Y-21900D01*
X41650Y-30325D02*
X40850Y-29525D01*
X41650Y-32300D02*
X41650Y-30325D01*
X40850Y-29525D02*
X40850Y-28300D01*
X49150Y-27500D02*
X49150Y-25600D01*
X49150Y-25600D02*
X48350Y-24800D01*
X48350Y-24800D02*
X48350Y-23500D01*
X55850Y-47500D02*
X55250Y-47500D01*
X54675Y-46925D02*
X54675Y-45000D01*
X55250Y-47500D02*
X54675Y-46925D01*
X55850Y-42500D02*
X55075Y-42500D01*
X54675Y-42100D02*
X54675Y-40000D01*
X55075Y-42500D02*
X54675Y-42100D01*
X55225Y-37500D02*
X54675Y-36950D01*
X55850Y-37500D02*
X55225Y-37500D01*
X54675Y-36950D02*
X54675Y-35000D01*
X55850Y-32500D02*
X55250Y-32500D01*
X54675Y-31925D02*
X54675Y-30000D01*
X55250Y-32500D02*
X54675Y-31925D01*
X54675Y-26975D02*
X54675Y-25000D01*
X55200Y-27500D02*
X54675Y-26975D01*
X55850Y-27500D02*
X55200Y-27500D01*
X55850Y-22500D02*
X55200Y-22500D01*
X54675Y-21975D02*
X54675Y-20000D01*
X55200Y-22500D02*
X54675Y-21975D01*
X62500Y-41350D02*
X62500Y-40450D01*
X62950Y-40000D02*
X64000Y-40000D01*
X62500Y-40450D02*
X62950Y-40000D01*
X70500Y-41350D02*
X70500Y-40225D01*
X70275Y-40000D02*
X69925Y-40000D01*
X70500Y-40225D02*
X70275Y-40000D01*
X69925Y-31750D02*
X69925Y-33625D01*
X69925Y-33625D02*
X70050Y-33750D01*
X71100Y-33750D02*
X70050Y-33750D01*
X71100Y-25750D02*
X70275Y-25750D01*
X70275Y-25750D02*
X69925Y-25400D01*
X69925Y-23750D02*
X69925Y-25400D01*
X39900Y-24300D02*
X39675Y-24075D01*
X39675Y-24075D02*
X39675Y-22300D01*
X40850Y-24300D02*
X39900Y-24300D01*
X40850Y-32300D02*
X39975Y-32300D01*
X39975Y-32300D02*
X39675Y-32000D01*
X39675Y-32000D02*
X39675Y-30350D01*
X71100Y-39150D02*
X71100Y-37750D01*
X70500Y-42150D02*
X71100Y-42150D01*
X71250Y-39300D02*
X71100Y-39150D01*
X71250Y-42000D02*
X71250Y-39300D01*
X71100Y-42150D02*
X71250Y-42000D01*
X47625Y-27500D02*
X47175Y-27050D01*
X48350Y-27500D02*
X47625Y-27500D01*
X47175Y-27050D02*
X47175Y-25500D01*
X48350Y-35500D02*
X47425Y-35500D01*
X47175Y-35250D02*
X47175Y-33500D01*
X47425Y-35500D02*
X47175Y-35250D01*
X62450Y-27500D02*
X62175Y-27225D01*
X62175Y-27225D02*
X62175Y-25500D01*
X63350Y-27500D02*
X62450Y-27500D01*
X69925Y-19525D02*
X69925Y-19075D01*
X69600Y-18750D02*
X64325Y-18750D01*
X64325Y-18750D02*
X64150Y-18925D01*
X64150Y-18925D02*
X64150Y-19500D01*
X69925Y-19075D02*
X69600Y-18750D01*
X63350Y-35500D02*
X62475Y-35500D01*
X62175Y-35200D02*
X62175Y-33400D01*
X62475Y-35500D02*
X62175Y-35200D01*
X55850Y-57500D02*
X55100Y-57500D01*
X54675Y-57075D02*
X54675Y-55000D01*
X55100Y-57500D02*
X54675Y-57075D01*
X55850Y-52500D02*
X55100Y-52500D01*
X54675Y-52075D02*
X54675Y-50000D01*
X55100Y-52500D02*
X54675Y-52075D01*
M02*
