G04 (created by PCBNEW-RS274X (2011-12-28 BZR 3254)-stable) date 7/11/2012 5:38:12 PM*
G01*
G70*
G90*
%MOIN*%
G04 Gerber Fmt 3.4, Leading zero omitted, Abs format*
%FSLAX34Y34*%
G04 APERTURE LIST*
%ADD10C,0.006000*%
%ADD11C,0.080000*%
%ADD12R,0.080000X0.080000*%
%ADD13C,0.220000*%
%ADD14C,0.090000*%
%ADD15C,0.100000*%
%ADD16R,0.071200X0.079000*%
%ADD17R,0.079000X0.071200*%
%ADD18C,0.085000*%
%ADD19R,0.085000X0.085000*%
%ADD20R,0.060000X0.070000*%
%ADD21R,0.070000X0.060000*%
%ADD22C,0.060000*%
%ADD23O,0.080000X0.110000*%
%ADD24R,0.080000X0.110000*%
%ADD25R,0.062000X0.076000*%
%ADD26R,0.120000X0.120000*%
%ADD27C,0.120000*%
%ADD28R,0.100000X0.170000*%
%ADD29R,0.100000X0.080000*%
G04 APERTURE END LIST*
G54D10*
G54D11*
X35725Y-54100D03*
X37725Y-54100D03*
G54D12*
X36725Y-54100D03*
G54D13*
X33500Y-57000D03*
X56175Y-14275D03*
G54D14*
X16100Y-28650D03*
X16100Y-30400D03*
G54D15*
X17100Y-28150D03*
X17100Y-30900D03*
G54D14*
X17600Y-30025D03*
X17600Y-29025D03*
X16075Y-35950D03*
X16075Y-37700D03*
G54D15*
X17075Y-35450D03*
X17075Y-38200D03*
G54D14*
X17575Y-37325D03*
X17575Y-36325D03*
X16100Y-39875D03*
X16100Y-41625D03*
G54D15*
X17100Y-39375D03*
X17100Y-42125D03*
G54D14*
X17600Y-41250D03*
X17600Y-40250D03*
X16100Y-43800D03*
X16100Y-45550D03*
G54D15*
X17100Y-43300D03*
X17100Y-46050D03*
G54D14*
X17600Y-45175D03*
X17600Y-44175D03*
X16100Y-47875D03*
X16100Y-49625D03*
G54D15*
X17100Y-47375D03*
X17100Y-50125D03*
G54D14*
X17600Y-49250D03*
X17600Y-48250D03*
X50600Y-56500D03*
X48850Y-56500D03*
G54D16*
X27825Y-39000D03*
X28575Y-39000D03*
X20975Y-53000D03*
X20225Y-53000D03*
X20225Y-40750D03*
X20975Y-40750D03*
X20225Y-48750D03*
X20975Y-48750D03*
X17600Y-32000D03*
X16850Y-32000D03*
X27825Y-47000D03*
X28575Y-47000D03*
X42825Y-39000D03*
X43575Y-39000D03*
X42825Y-47000D03*
X43575Y-47000D03*
X50325Y-42200D03*
X51075Y-42200D03*
X20225Y-32550D03*
X20975Y-32550D03*
X25875Y-32550D03*
X25125Y-32550D03*
X19100Y-29025D03*
X19850Y-29025D03*
G54D17*
X18825Y-48350D03*
X18825Y-49100D03*
X18700Y-40300D03*
X18700Y-41050D03*
X18700Y-45100D03*
X18700Y-44350D03*
G54D16*
X25875Y-55000D03*
X26625Y-55000D03*
X44475Y-57750D03*
X43725Y-57750D03*
X40100Y-54775D03*
X40850Y-54775D03*
X41850Y-54825D03*
X42600Y-54825D03*
X50325Y-50200D03*
X51075Y-50200D03*
G54D18*
X42050Y-56025D03*
G54D19*
X39050Y-56025D03*
G54D18*
X40050Y-56025D03*
X41050Y-56025D03*
G54D20*
X34125Y-39925D03*
X33325Y-39925D03*
X41650Y-41000D03*
X40850Y-41000D03*
X49150Y-52200D03*
X48350Y-52200D03*
X49150Y-48200D03*
X48350Y-48200D03*
X49150Y-44200D03*
X48350Y-44200D03*
X49150Y-40200D03*
X48350Y-40200D03*
X41650Y-49000D03*
X40850Y-49000D03*
X41650Y-45000D03*
X40850Y-45000D03*
X34125Y-36075D03*
X33325Y-36075D03*
X41650Y-37000D03*
X40850Y-37000D03*
X26650Y-49000D03*
X25850Y-49000D03*
X26650Y-45000D03*
X25850Y-45000D03*
X26650Y-41000D03*
X25850Y-41000D03*
X26650Y-37000D03*
X25850Y-37000D03*
X41650Y-53000D03*
X40850Y-53000D03*
X26650Y-53000D03*
X25850Y-53000D03*
X18900Y-50750D03*
X18100Y-50750D03*
X18900Y-46750D03*
X18100Y-46750D03*
X18900Y-42750D03*
X18100Y-42750D03*
X18900Y-38750D03*
X18100Y-38750D03*
X18900Y-34750D03*
X18100Y-34750D03*
G54D21*
X19500Y-31150D03*
X19500Y-30350D03*
X23500Y-31150D03*
X23500Y-30350D03*
X27500Y-31150D03*
X27500Y-30350D03*
G54D20*
X34125Y-29450D03*
X33325Y-29450D03*
X34050Y-32800D03*
X33250Y-32800D03*
X34125Y-25750D03*
X33325Y-25750D03*
X34050Y-22650D03*
X33250Y-22650D03*
X34050Y-18650D03*
X33250Y-18650D03*
X34250Y-14875D03*
X33450Y-14875D03*
G54D22*
X31725Y-34950D03*
X40250Y-51675D03*
X40125Y-50775D03*
X39200Y-50775D03*
G54D11*
X39400Y-58875D03*
X39400Y-57875D03*
X40400Y-58875D03*
X40400Y-57875D03*
X41400Y-58875D03*
G54D12*
X41400Y-57875D03*
X33125Y-58900D03*
X34125Y-58900D03*
G54D11*
X35125Y-58900D03*
X36125Y-58900D03*
X37125Y-58900D03*
X38125Y-58900D03*
G54D23*
X28150Y-52725D03*
X29150Y-52725D03*
X30150Y-52725D03*
X31150Y-52725D03*
X32150Y-52725D03*
X33150Y-52725D03*
G54D24*
X34150Y-52725D03*
G54D23*
X35150Y-52725D03*
X36150Y-52725D03*
X37150Y-52725D03*
X38150Y-52725D03*
X39150Y-52725D03*
X40150Y-52725D03*
X27150Y-52725D03*
X40150Y-49725D03*
X39150Y-49725D03*
X38150Y-49725D03*
X37150Y-49725D03*
X36150Y-49725D03*
X35150Y-49725D03*
X34150Y-49725D03*
G54D24*
X33150Y-49725D03*
G54D23*
X32150Y-49725D03*
X31150Y-49725D03*
X30150Y-49725D03*
X29150Y-49725D03*
X28150Y-49725D03*
X27150Y-49725D03*
G54D25*
X38075Y-57575D03*
X37275Y-57575D03*
X34100Y-51100D03*
X33300Y-51100D03*
G54D26*
X18550Y-57200D03*
G54D27*
X16550Y-57200D03*
G54D19*
X46000Y-59000D03*
G54D18*
X47000Y-59000D03*
X48000Y-59000D03*
X49000Y-59000D03*
X50000Y-59000D03*
X51000Y-59000D03*
G54D19*
X46000Y-58000D03*
G54D18*
X47000Y-58000D03*
X48000Y-58000D03*
X49000Y-58000D03*
X50000Y-58000D03*
X51000Y-58000D03*
G54D19*
X44025Y-14500D03*
G54D18*
X43025Y-14500D03*
X42025Y-14500D03*
X41025Y-14500D03*
X40025Y-14500D03*
X39025Y-14500D03*
G54D19*
X44025Y-13500D03*
G54D18*
X43025Y-13500D03*
X42025Y-13500D03*
X41025Y-13500D03*
X40025Y-13500D03*
X39025Y-13500D03*
G54D28*
X21800Y-54850D03*
G54D29*
X24300Y-54850D03*
X24300Y-53950D03*
X24300Y-55750D03*
G54D11*
X31000Y-56875D03*
X31000Y-57875D03*
X31000Y-58875D03*
X44650Y-58975D03*
X43650Y-58975D03*
X42650Y-58975D03*
M02*
