G04 (created by PCBNEW (2011-12-28 BZR 3254)-stable) date 7/21/2012 6:49:30 PM*
G01*
G70*
G90*
%MOIN*%
G04 Gerber Fmt 3.4, Leading zero omitted, Abs format*
%FSLAX34Y34*%
G04 APERTURE LIST*
%ADD10C,0.001000*%
%ADD11C,0.015000*%
%ADD12C,0.008000*%
G04 APERTURE END LIST*
G54D10*
G54D11*
X75000Y-46000D02*
X75000Y-60000D01*
X60500Y-46000D02*
X75000Y-46000D01*
X60500Y-60000D02*
X60500Y-46000D01*
X75000Y-60000D02*
X60500Y-60000D01*
X38000Y-12500D02*
X75000Y-12500D01*
X30500Y-12500D02*
X37000Y-12500D01*
X52000Y-60000D02*
X15000Y-60000D01*
X59500Y-60000D02*
X53000Y-60000D01*
X38000Y-34300D02*
X38000Y-12500D01*
X45500Y-34300D02*
X38000Y-34300D01*
X45500Y-37500D02*
X45500Y-34300D01*
X53000Y-37500D02*
X45500Y-37500D01*
X53000Y-60000D02*
X53000Y-37500D01*
X52000Y-38200D02*
X52000Y-60000D01*
X44500Y-38200D02*
X52000Y-38200D01*
X44500Y-35000D02*
X44500Y-38200D01*
X37000Y-35000D02*
X44500Y-35000D01*
X37000Y-12500D02*
X37000Y-35000D01*
X15000Y-27500D02*
X15000Y-60000D01*
X30500Y-27500D02*
X15000Y-27500D01*
X30500Y-12500D02*
X30500Y-27500D01*
X75000Y-45000D02*
X75000Y-12500D01*
X59500Y-45000D02*
X75000Y-45000D01*
X59500Y-60000D02*
X59500Y-45000D01*
G54D10*
X17775Y-51475D02*
X18025Y-51725D01*
X18025Y-51475D02*
X17775Y-51725D01*
X19995Y-50275D02*
X20245Y-50525D01*
X20245Y-50275D02*
X19995Y-50525D01*
X21975Y-44825D02*
X22225Y-45075D01*
X22225Y-44825D02*
X21975Y-45075D01*
X21975Y-48425D02*
X22225Y-48675D01*
X22225Y-48425D02*
X21975Y-48675D01*
X24225Y-51475D02*
X24475Y-51725D01*
X24475Y-51475D02*
X24225Y-51725D01*
X24850Y-52875D02*
X25100Y-53125D01*
X25100Y-52875D02*
X24850Y-53125D01*
X25135Y-56335D02*
X25385Y-56585D01*
X25385Y-56335D02*
X25135Y-56585D01*
X27565Y-49675D02*
X27815Y-49925D01*
X27815Y-49675D02*
X27565Y-49925D01*
X27565Y-51855D02*
X27815Y-52105D01*
X27815Y-51855D02*
X27565Y-52105D01*
X27775Y-40425D02*
X28025Y-40675D01*
X28025Y-40425D02*
X27775Y-40675D01*
X27925Y-43425D02*
X28175Y-43675D01*
X28175Y-43425D02*
X27925Y-43675D01*
X28025Y-50375D02*
X28275Y-50625D01*
X28275Y-50375D02*
X28025Y-50625D01*
X28025Y-53495D02*
X28275Y-53745D01*
X28275Y-53495D02*
X28025Y-53745D01*
X28403Y-53981D02*
X28653Y-54231D01*
X28653Y-53981D02*
X28403Y-54231D01*
X28475Y-51475D02*
X28725Y-51725D01*
X28725Y-51475D02*
X28475Y-51725D01*
X28475Y-52925D02*
X28725Y-53175D01*
X28725Y-52925D02*
X28475Y-53175D01*
X28835Y-40425D02*
X29085Y-40675D01*
X29085Y-40425D02*
X28835Y-40675D01*
X28835Y-46155D02*
X29085Y-46405D01*
X29085Y-46155D02*
X28835Y-46405D01*
X28850Y-43425D02*
X29100Y-43675D01*
X29100Y-43425D02*
X28850Y-43675D01*
X29325Y-57375D02*
X29575Y-57625D01*
X29575Y-57375D02*
X29325Y-57625D01*
X29535Y-45155D02*
X29785Y-45405D01*
X29785Y-45155D02*
X29535Y-45405D01*
X29725Y-41950D02*
X29975Y-42200D01*
X29975Y-41950D02*
X29725Y-42200D01*
X29755Y-47805D02*
X30005Y-48055D01*
X30005Y-47805D02*
X29755Y-48055D01*
X30175Y-41425D02*
X30425Y-41675D01*
X30425Y-41425D02*
X30175Y-41675D01*
X30435Y-33155D02*
X30685Y-33405D01*
X30685Y-33155D02*
X30435Y-33405D01*
X30525Y-38800D02*
X30775Y-39050D01*
X30775Y-38800D02*
X30525Y-39050D01*
X30525Y-40425D02*
X30775Y-40675D01*
X30775Y-40425D02*
X30525Y-40675D01*
X31200Y-52825D02*
X31450Y-53075D01*
X31450Y-52825D02*
X31200Y-53075D01*
X31200Y-53350D02*
X31450Y-53600D01*
X31450Y-53350D02*
X31200Y-53600D01*
X31850Y-40350D02*
X32100Y-40600D01*
X32100Y-40350D02*
X31850Y-40600D01*
X31935Y-33275D02*
X32185Y-33525D01*
X32185Y-33275D02*
X31935Y-33525D01*
X32275Y-14375D02*
X32525Y-14625D01*
X32525Y-14375D02*
X32275Y-14625D01*
X32275Y-18375D02*
X32525Y-18625D01*
X32525Y-18375D02*
X32275Y-18625D01*
X32275Y-22375D02*
X32525Y-22625D01*
X32525Y-22375D02*
X32275Y-22625D01*
X32275Y-26375D02*
X32525Y-26625D01*
X32525Y-26375D02*
X32275Y-26625D01*
X32275Y-30375D02*
X32525Y-30625D01*
X32525Y-30375D02*
X32275Y-30625D01*
X32550Y-36725D02*
X32800Y-36975D01*
X32800Y-36725D02*
X32550Y-36975D01*
X33225Y-37125D02*
X33475Y-37375D01*
X33475Y-37125D02*
X33225Y-37375D01*
X33575Y-48025D02*
X33825Y-48275D01*
X33825Y-48025D02*
X33575Y-48275D01*
X33700Y-44425D02*
X33950Y-44675D01*
X33950Y-44425D02*
X33700Y-44675D01*
X33975Y-47250D02*
X34225Y-47500D01*
X34225Y-47250D02*
X33975Y-47500D01*
X34835Y-14375D02*
X35085Y-14625D01*
X35085Y-14375D02*
X34835Y-14625D01*
X34855Y-30375D02*
X35105Y-30625D01*
X35105Y-30375D02*
X34855Y-30625D01*
X34875Y-22375D02*
X35125Y-22625D01*
X35125Y-22375D02*
X34875Y-22625D01*
X34895Y-26375D02*
X35145Y-26625D01*
X35145Y-26375D02*
X34895Y-26625D01*
X34915Y-18375D02*
X35165Y-18625D01*
X35165Y-18375D02*
X34915Y-18625D01*
X34950Y-36725D02*
X35200Y-36975D01*
X35200Y-36725D02*
X34950Y-36975D01*
X35250Y-53575D02*
X35500Y-53825D01*
X35500Y-53575D02*
X35250Y-53825D01*
X35775Y-54725D02*
X36025Y-54975D01*
X36025Y-54725D02*
X35775Y-54975D01*
X36075Y-54350D02*
X36325Y-54600D01*
X36325Y-54350D02*
X36075Y-54600D01*
X36275Y-55200D02*
X36525Y-55450D01*
X36525Y-55200D02*
X36275Y-55450D01*
X36325Y-53975D02*
X36575Y-54225D01*
X36575Y-53975D02*
X36325Y-54225D01*
X36700Y-55450D02*
X36950Y-55700D01*
X36950Y-55450D02*
X36700Y-55700D01*
X37000Y-55100D02*
X37250Y-55350D01*
X37250Y-55100D02*
X37000Y-55350D01*
X37155Y-45835D02*
X37405Y-46085D01*
X37405Y-45835D02*
X37155Y-46085D01*
X37315Y-42265D02*
X37565Y-42515D01*
X37565Y-42265D02*
X37315Y-42515D01*
X37325Y-39175D02*
X37575Y-39425D01*
X37575Y-39175D02*
X37325Y-39425D01*
X37705Y-45845D02*
X37955Y-46095D01*
X37955Y-45845D02*
X37705Y-46095D01*
X37735Y-52745D02*
X37985Y-52995D01*
X37985Y-52745D02*
X37735Y-52995D01*
X38625Y-52850D02*
X38875Y-53100D01*
X38875Y-52850D02*
X38625Y-53100D01*
X38800Y-21475D02*
X39050Y-21725D01*
X39050Y-21475D02*
X38800Y-21725D01*
X39835Y-47175D02*
X40085Y-47425D01*
X40085Y-47175D02*
X39835Y-47425D01*
X39835Y-47775D02*
X40085Y-48025D01*
X40085Y-47775D02*
X39835Y-48025D01*
X39975Y-38875D02*
X40225Y-39125D01*
X40225Y-38875D02*
X39975Y-39125D01*
X39975Y-39775D02*
X40225Y-40025D01*
X40225Y-39775D02*
X39975Y-40025D01*
X40750Y-55475D02*
X41000Y-55725D01*
X41000Y-55475D02*
X40750Y-55725D01*
X40795Y-42175D02*
X41045Y-42425D01*
X41045Y-42175D02*
X40795Y-42425D01*
X40975Y-39325D02*
X41225Y-39575D01*
X41225Y-39325D02*
X40975Y-39575D01*
X41125Y-42655D02*
X41375Y-42905D01*
X41375Y-42655D02*
X41125Y-42905D01*
X41350Y-43825D02*
X41600Y-44075D01*
X41600Y-43825D02*
X41350Y-44075D01*
X42400Y-52875D02*
X42650Y-53125D01*
X42650Y-52875D02*
X42400Y-53125D01*
X42800Y-43825D02*
X43050Y-44075D01*
X43050Y-43825D02*
X42800Y-44075D01*
X42845Y-55595D02*
X43095Y-55845D01*
X43095Y-55595D02*
X42845Y-55845D01*
X42900Y-20725D02*
X43150Y-20975D01*
X43150Y-20725D02*
X42900Y-20975D01*
X43475Y-57985D02*
X43725Y-58235D01*
X43725Y-57985D02*
X43475Y-58235D01*
X44345Y-54705D02*
X44595Y-54955D01*
X44595Y-54705D02*
X44345Y-54955D01*
X44500Y-51475D02*
X44750Y-51725D01*
X44750Y-51475D02*
X44500Y-51725D01*
X44735Y-54345D02*
X44985Y-54595D01*
X44985Y-54345D02*
X44735Y-54595D01*
X45045Y-53975D02*
X45295Y-54225D01*
X45295Y-53975D02*
X45045Y-54225D01*
X45400Y-51475D02*
X45650Y-51725D01*
X45650Y-51475D02*
X45400Y-51725D01*
X46300Y-21475D02*
X46550Y-21725D01*
X46550Y-21475D02*
X46300Y-21725D01*
X46875Y-52075D02*
X47125Y-52325D01*
X47125Y-52075D02*
X46875Y-52325D01*
X47875Y-53115D02*
X48125Y-53365D01*
X48125Y-53115D02*
X47875Y-53365D01*
X48025Y-17875D02*
X48275Y-18125D01*
X48275Y-17875D02*
X48025Y-18125D01*
X49225Y-20725D02*
X49475Y-20975D01*
X49475Y-20725D02*
X49225Y-20975D01*
X50255Y-16165D02*
X50505Y-16415D01*
X50505Y-16165D02*
X50255Y-16415D01*
X50375Y-19875D02*
X50625Y-20125D01*
X50625Y-19875D02*
X50375Y-20125D01*
X50700Y-16950D02*
X50950Y-17200D01*
X50950Y-16950D02*
X50700Y-17200D01*
X51150Y-17375D02*
X51400Y-17625D01*
X51400Y-17375D02*
X51150Y-17625D01*
X51975Y-15075D02*
X52225Y-15325D01*
X52225Y-15075D02*
X51975Y-15325D01*
X52465Y-15435D02*
X52715Y-15685D01*
X52715Y-15435D02*
X52465Y-15685D01*
X52845Y-15795D02*
X53095Y-16045D01*
X53095Y-15795D02*
X52845Y-16045D01*
X53355Y-16525D02*
X53605Y-16775D01*
X53605Y-16525D02*
X53355Y-16775D01*
X53850Y-17875D02*
X54100Y-18125D01*
X54100Y-17875D02*
X53850Y-18125D01*
X61300Y-21475D02*
X61550Y-21725D01*
X61550Y-21475D02*
X61300Y-21725D01*
X62025Y-48325D02*
X62275Y-48575D01*
X62275Y-48325D02*
X62025Y-48575D01*
X66125Y-56925D02*
X66375Y-57175D01*
X66375Y-56925D02*
X66125Y-57175D01*
X66250Y-56350D02*
X66500Y-56600D01*
X66500Y-56350D02*
X66250Y-56600D01*
X66495Y-20375D02*
X66745Y-20625D01*
X66745Y-20375D02*
X66495Y-20625D01*
X67625Y-49775D02*
X67875Y-50025D01*
X67875Y-49775D02*
X67625Y-50025D01*
X67625Y-53625D02*
X67875Y-53875D01*
X67875Y-53625D02*
X67625Y-53875D01*
X69300Y-56350D02*
X69550Y-56600D01*
X69550Y-56350D02*
X69300Y-56600D01*
X70395Y-20375D02*
X70645Y-20625D01*
X70645Y-20375D02*
X70395Y-20625D01*
X71125Y-56275D02*
X71375Y-56525D01*
X71375Y-56275D02*
X71125Y-56525D01*
X73225Y-48325D02*
X73475Y-48575D01*
X73475Y-48325D02*
X73225Y-48575D01*
X30750Y-46900D02*
X30746Y-46931D01*
X30737Y-46960D01*
X30723Y-46988D01*
X30703Y-47012D01*
X30679Y-47032D01*
X30652Y-47047D01*
X30622Y-47056D01*
X30591Y-47059D01*
X30561Y-47057D01*
X30531Y-47048D01*
X30503Y-47033D01*
X30479Y-47014D01*
X30458Y-46990D01*
X30443Y-46963D01*
X30434Y-46933D01*
X30431Y-46902D01*
X30433Y-46872D01*
X30442Y-46842D01*
X30456Y-46814D01*
X30475Y-46789D01*
X30499Y-46769D01*
X30526Y-46754D01*
X30556Y-46744D01*
X30587Y-46741D01*
X30617Y-46743D01*
X30647Y-46751D01*
X30675Y-46765D01*
X30700Y-46785D01*
X30720Y-46808D01*
X30736Y-46835D01*
X30746Y-46865D01*
X30749Y-46896D01*
X30750Y-46900D01*
X31750Y-46900D02*
X31746Y-46931D01*
X31737Y-46960D01*
X31723Y-46988D01*
X31703Y-47012D01*
X31679Y-47032D01*
X31652Y-47047D01*
X31622Y-47056D01*
X31591Y-47059D01*
X31561Y-47057D01*
X31531Y-47048D01*
X31503Y-47033D01*
X31479Y-47014D01*
X31458Y-46990D01*
X31443Y-46963D01*
X31434Y-46933D01*
X31431Y-46902D01*
X31433Y-46872D01*
X31442Y-46842D01*
X31456Y-46814D01*
X31475Y-46789D01*
X31499Y-46769D01*
X31526Y-46754D01*
X31556Y-46744D01*
X31587Y-46741D01*
X31617Y-46743D01*
X31647Y-46751D01*
X31675Y-46765D01*
X31700Y-46785D01*
X31720Y-46808D01*
X31736Y-46835D01*
X31746Y-46865D01*
X31749Y-46896D01*
X31750Y-46900D01*
X32750Y-46900D02*
X32746Y-46931D01*
X32737Y-46960D01*
X32723Y-46988D01*
X32703Y-47012D01*
X32679Y-47032D01*
X32652Y-47047D01*
X32622Y-47056D01*
X32591Y-47059D01*
X32561Y-47057D01*
X32531Y-47048D01*
X32503Y-47033D01*
X32479Y-47014D01*
X32458Y-46990D01*
X32443Y-46963D01*
X32434Y-46933D01*
X32431Y-46902D01*
X32433Y-46872D01*
X32442Y-46842D01*
X32456Y-46814D01*
X32475Y-46789D01*
X32499Y-46769D01*
X32526Y-46754D01*
X32556Y-46744D01*
X32587Y-46741D01*
X32617Y-46743D01*
X32647Y-46751D01*
X32675Y-46765D01*
X32700Y-46785D01*
X32720Y-46808D01*
X32736Y-46835D01*
X32746Y-46865D01*
X32749Y-46896D01*
X32750Y-46900D01*
X61260Y-58200D02*
X61256Y-58231D01*
X61247Y-58260D01*
X61233Y-58288D01*
X61213Y-58312D01*
X61189Y-58332D01*
X61162Y-58347D01*
X61132Y-58356D01*
X61101Y-58359D01*
X61071Y-58357D01*
X61041Y-58348D01*
X61013Y-58333D01*
X60989Y-58314D01*
X60968Y-58290D01*
X60953Y-58263D01*
X60944Y-58233D01*
X60941Y-58202D01*
X60943Y-58172D01*
X60952Y-58142D01*
X60966Y-58114D01*
X60985Y-58089D01*
X61009Y-58069D01*
X61036Y-58054D01*
X61066Y-58044D01*
X61097Y-58041D01*
X61127Y-58043D01*
X61157Y-58051D01*
X61185Y-58065D01*
X61210Y-58085D01*
X61230Y-58108D01*
X61246Y-58135D01*
X61256Y-58165D01*
X61259Y-58196D01*
X61260Y-58200D01*
X62260Y-58200D02*
X62256Y-58231D01*
X62247Y-58260D01*
X62233Y-58288D01*
X62213Y-58312D01*
X62189Y-58332D01*
X62162Y-58347D01*
X62132Y-58356D01*
X62101Y-58359D01*
X62071Y-58357D01*
X62041Y-58348D01*
X62013Y-58333D01*
X61989Y-58314D01*
X61968Y-58290D01*
X61953Y-58263D01*
X61944Y-58233D01*
X61941Y-58202D01*
X61943Y-58172D01*
X61952Y-58142D01*
X61966Y-58114D01*
X61985Y-58089D01*
X62009Y-58069D01*
X62036Y-58054D01*
X62066Y-58044D01*
X62097Y-58041D01*
X62127Y-58043D01*
X62157Y-58051D01*
X62185Y-58065D01*
X62210Y-58085D01*
X62230Y-58108D01*
X62246Y-58135D01*
X62256Y-58165D01*
X62259Y-58196D01*
X62260Y-58200D01*
X62260Y-59200D02*
X62256Y-59231D01*
X62247Y-59260D01*
X62233Y-59288D01*
X62213Y-59312D01*
X62189Y-59332D01*
X62162Y-59347D01*
X62132Y-59356D01*
X62101Y-59359D01*
X62071Y-59357D01*
X62041Y-59348D01*
X62013Y-59333D01*
X61989Y-59314D01*
X61968Y-59290D01*
X61953Y-59263D01*
X61944Y-59233D01*
X61941Y-59202D01*
X61943Y-59172D01*
X61952Y-59142D01*
X61966Y-59114D01*
X61985Y-59089D01*
X62009Y-59069D01*
X62036Y-59054D01*
X62066Y-59044D01*
X62097Y-59041D01*
X62127Y-59043D01*
X62157Y-59051D01*
X62185Y-59065D01*
X62210Y-59085D01*
X62230Y-59108D01*
X62246Y-59135D01*
X62256Y-59165D01*
X62259Y-59196D01*
X62260Y-59200D01*
X63260Y-58200D02*
X63256Y-58231D01*
X63247Y-58260D01*
X63233Y-58288D01*
X63213Y-58312D01*
X63189Y-58332D01*
X63162Y-58347D01*
X63132Y-58356D01*
X63101Y-58359D01*
X63071Y-58357D01*
X63041Y-58348D01*
X63013Y-58333D01*
X62989Y-58314D01*
X62968Y-58290D01*
X62953Y-58263D01*
X62944Y-58233D01*
X62941Y-58202D01*
X62943Y-58172D01*
X62952Y-58142D01*
X62966Y-58114D01*
X62985Y-58089D01*
X63009Y-58069D01*
X63036Y-58054D01*
X63066Y-58044D01*
X63097Y-58041D01*
X63127Y-58043D01*
X63157Y-58051D01*
X63185Y-58065D01*
X63210Y-58085D01*
X63230Y-58108D01*
X63246Y-58135D01*
X63256Y-58165D01*
X63259Y-58196D01*
X63260Y-58200D01*
X36100Y-39125D02*
X36100Y-39475D01*
X36275Y-39300D02*
X35925Y-39300D01*
X36100Y-40125D02*
X36100Y-40475D01*
X36275Y-40300D02*
X35925Y-40300D01*
X36100Y-41125D02*
X36100Y-41475D01*
X36275Y-41300D02*
X35925Y-41300D01*
X36100Y-42125D02*
X36100Y-42475D01*
X36275Y-42300D02*
X35925Y-42300D01*
X36100Y-43125D02*
X36100Y-43475D01*
X36275Y-43300D02*
X35925Y-43300D01*
X36100Y-44125D02*
X36100Y-44475D01*
X36275Y-44300D02*
X35925Y-44300D01*
X36100Y-45125D02*
X36100Y-45475D01*
X36275Y-45300D02*
X35925Y-45300D01*
X36100Y-46125D02*
X36100Y-46475D01*
X36275Y-46300D02*
X35925Y-46300D01*
X36100Y-47125D02*
X36100Y-47475D01*
X36275Y-47300D02*
X35925Y-47300D01*
X36100Y-48125D02*
X36100Y-48475D01*
X36275Y-48300D02*
X35925Y-48300D01*
X36100Y-49125D02*
X36100Y-49475D01*
X36275Y-49300D02*
X35925Y-49300D01*
X36100Y-50125D02*
X36100Y-50475D01*
X36275Y-50300D02*
X35925Y-50300D01*
X36100Y-51125D02*
X36100Y-51475D01*
X36275Y-51300D02*
X35925Y-51300D01*
X36100Y-52125D02*
X36100Y-52475D01*
X36275Y-52300D02*
X35925Y-52300D01*
X39100Y-39125D02*
X39100Y-39475D01*
X39275Y-39300D02*
X38925Y-39300D01*
X39100Y-40125D02*
X39100Y-40475D01*
X39275Y-40300D02*
X38925Y-40300D01*
X39100Y-41125D02*
X39100Y-41475D01*
X39275Y-41300D02*
X38925Y-41300D01*
X39100Y-42125D02*
X39100Y-42475D01*
X39275Y-42300D02*
X38925Y-42300D01*
X39100Y-43125D02*
X39100Y-43475D01*
X39275Y-43300D02*
X38925Y-43300D01*
X39100Y-44125D02*
X39100Y-44475D01*
X39275Y-44300D02*
X38925Y-44300D01*
X39100Y-45125D02*
X39100Y-45475D01*
X39275Y-45300D02*
X38925Y-45300D01*
X39100Y-46125D02*
X39100Y-46475D01*
X39275Y-46300D02*
X38925Y-46300D01*
X39100Y-47125D02*
X39100Y-47475D01*
X39275Y-47300D02*
X38925Y-47300D01*
X39100Y-48125D02*
X39100Y-48475D01*
X39275Y-48300D02*
X38925Y-48300D01*
X39100Y-49125D02*
X39100Y-49475D01*
X39275Y-49300D02*
X38925Y-49300D01*
X39100Y-50125D02*
X39100Y-50475D01*
X39275Y-50300D02*
X38925Y-50300D01*
X39100Y-51125D02*
X39100Y-51475D01*
X39275Y-51300D02*
X38925Y-51300D01*
X39100Y-52125D02*
X39100Y-52475D01*
X39275Y-52300D02*
X38925Y-52300D01*
X21305Y-58890D02*
X21301Y-58928D01*
X21289Y-58966D01*
X21271Y-59000D01*
X21246Y-59030D01*
X21216Y-59055D01*
X21182Y-59074D01*
X21145Y-59085D01*
X21106Y-59089D01*
X21068Y-59086D01*
X21031Y-59075D01*
X20996Y-59057D01*
X20966Y-59032D01*
X20940Y-59002D01*
X20922Y-58968D01*
X20910Y-58931D01*
X20906Y-58892D01*
X20909Y-58854D01*
X20920Y-58817D01*
X20937Y-58782D01*
X20962Y-58752D01*
X20991Y-58726D01*
X21025Y-58707D01*
X21063Y-58695D01*
X21101Y-58691D01*
X21139Y-58694D01*
X21177Y-58704D01*
X21212Y-58722D01*
X21242Y-58746D01*
X21268Y-58775D01*
X21287Y-58809D01*
X21300Y-58846D01*
X21304Y-58885D01*
X21305Y-58890D01*
X20905Y-58690D02*
X21305Y-59090D01*
X21305Y-58690D02*
X20905Y-59090D01*
X21680Y-57390D02*
X21676Y-57428D01*
X21664Y-57466D01*
X21646Y-57500D01*
X21621Y-57530D01*
X21591Y-57555D01*
X21557Y-57574D01*
X21520Y-57585D01*
X21481Y-57589D01*
X21443Y-57586D01*
X21406Y-57575D01*
X21371Y-57557D01*
X21341Y-57532D01*
X21315Y-57502D01*
X21297Y-57468D01*
X21285Y-57431D01*
X21281Y-57392D01*
X21284Y-57354D01*
X21295Y-57317D01*
X21312Y-57282D01*
X21337Y-57252D01*
X21366Y-57226D01*
X21400Y-57207D01*
X21438Y-57195D01*
X21476Y-57191D01*
X21514Y-57194D01*
X21552Y-57204D01*
X21587Y-57222D01*
X21617Y-57246D01*
X21643Y-57275D01*
X21662Y-57309D01*
X21675Y-57346D01*
X21679Y-57385D01*
X21680Y-57390D01*
X21280Y-57190D02*
X21680Y-57590D01*
X21680Y-57190D02*
X21280Y-57590D01*
X22680Y-57390D02*
X22676Y-57428D01*
X22664Y-57466D01*
X22646Y-57500D01*
X22621Y-57530D01*
X22591Y-57555D01*
X22557Y-57574D01*
X22520Y-57585D01*
X22481Y-57589D01*
X22443Y-57586D01*
X22406Y-57575D01*
X22371Y-57557D01*
X22341Y-57532D01*
X22315Y-57502D01*
X22297Y-57468D01*
X22285Y-57431D01*
X22281Y-57392D01*
X22284Y-57354D01*
X22295Y-57317D01*
X22312Y-57282D01*
X22337Y-57252D01*
X22366Y-57226D01*
X22400Y-57207D01*
X22438Y-57195D01*
X22476Y-57191D01*
X22514Y-57194D01*
X22552Y-57204D01*
X22587Y-57222D01*
X22617Y-57246D01*
X22643Y-57275D01*
X22662Y-57309D01*
X22675Y-57346D01*
X22679Y-57385D01*
X22680Y-57390D01*
X22280Y-57190D02*
X22680Y-57590D01*
X22680Y-57190D02*
X22280Y-57590D01*
X23055Y-58890D02*
X23051Y-58928D01*
X23039Y-58966D01*
X23021Y-59000D01*
X22996Y-59030D01*
X22966Y-59055D01*
X22932Y-59074D01*
X22895Y-59085D01*
X22856Y-59089D01*
X22818Y-59086D01*
X22781Y-59075D01*
X22746Y-59057D01*
X22716Y-59032D01*
X22690Y-59002D01*
X22672Y-58968D01*
X22660Y-58931D01*
X22656Y-58892D01*
X22659Y-58854D01*
X22670Y-58817D01*
X22687Y-58782D01*
X22712Y-58752D01*
X22741Y-58726D01*
X22775Y-58707D01*
X22813Y-58695D01*
X22851Y-58691D01*
X22889Y-58694D01*
X22927Y-58704D01*
X22962Y-58722D01*
X22992Y-58746D01*
X23018Y-58775D01*
X23037Y-58809D01*
X23050Y-58846D01*
X23054Y-58885D01*
X23055Y-58890D01*
X22655Y-58690D02*
X23055Y-59090D01*
X23055Y-58690D02*
X22655Y-59090D01*
X26305Y-58890D02*
X26301Y-58928D01*
X26289Y-58966D01*
X26271Y-59000D01*
X26246Y-59030D01*
X26216Y-59055D01*
X26182Y-59074D01*
X26145Y-59085D01*
X26106Y-59089D01*
X26068Y-59086D01*
X26031Y-59075D01*
X25996Y-59057D01*
X25966Y-59032D01*
X25940Y-59002D01*
X25922Y-58968D01*
X25910Y-58931D01*
X25906Y-58892D01*
X25909Y-58854D01*
X25920Y-58817D01*
X25937Y-58782D01*
X25962Y-58752D01*
X25991Y-58726D01*
X26025Y-58707D01*
X26063Y-58695D01*
X26101Y-58691D01*
X26139Y-58694D01*
X26177Y-58704D01*
X26212Y-58722D01*
X26242Y-58746D01*
X26268Y-58775D01*
X26287Y-58809D01*
X26300Y-58846D01*
X26304Y-58885D01*
X26305Y-58890D01*
X25905Y-58690D02*
X26305Y-59090D01*
X26305Y-58690D02*
X25905Y-59090D01*
X26680Y-57390D02*
X26676Y-57428D01*
X26664Y-57466D01*
X26646Y-57500D01*
X26621Y-57530D01*
X26591Y-57555D01*
X26557Y-57574D01*
X26520Y-57585D01*
X26481Y-57589D01*
X26443Y-57586D01*
X26406Y-57575D01*
X26371Y-57557D01*
X26341Y-57532D01*
X26315Y-57502D01*
X26297Y-57468D01*
X26285Y-57431D01*
X26281Y-57392D01*
X26284Y-57354D01*
X26295Y-57317D01*
X26312Y-57282D01*
X26337Y-57252D01*
X26366Y-57226D01*
X26400Y-57207D01*
X26438Y-57195D01*
X26476Y-57191D01*
X26514Y-57194D01*
X26552Y-57204D01*
X26587Y-57222D01*
X26617Y-57246D01*
X26643Y-57275D01*
X26662Y-57309D01*
X26675Y-57346D01*
X26679Y-57385D01*
X26680Y-57390D01*
X26280Y-57190D02*
X26680Y-57590D01*
X26680Y-57190D02*
X26280Y-57590D01*
X27680Y-57390D02*
X27676Y-57428D01*
X27664Y-57466D01*
X27646Y-57500D01*
X27621Y-57530D01*
X27591Y-57555D01*
X27557Y-57574D01*
X27520Y-57585D01*
X27481Y-57589D01*
X27443Y-57586D01*
X27406Y-57575D01*
X27371Y-57557D01*
X27341Y-57532D01*
X27315Y-57502D01*
X27297Y-57468D01*
X27285Y-57431D01*
X27281Y-57392D01*
X27284Y-57354D01*
X27295Y-57317D01*
X27312Y-57282D01*
X27337Y-57252D01*
X27366Y-57226D01*
X27400Y-57207D01*
X27438Y-57195D01*
X27476Y-57191D01*
X27514Y-57194D01*
X27552Y-57204D01*
X27587Y-57222D01*
X27617Y-57246D01*
X27643Y-57275D01*
X27662Y-57309D01*
X27675Y-57346D01*
X27679Y-57385D01*
X27680Y-57390D01*
X27280Y-57190D02*
X27680Y-57590D01*
X27680Y-57190D02*
X27280Y-57590D01*
X28055Y-58890D02*
X28051Y-58928D01*
X28039Y-58966D01*
X28021Y-59000D01*
X27996Y-59030D01*
X27966Y-59055D01*
X27932Y-59074D01*
X27895Y-59085D01*
X27856Y-59089D01*
X27818Y-59086D01*
X27781Y-59075D01*
X27746Y-59057D01*
X27716Y-59032D01*
X27690Y-59002D01*
X27672Y-58968D01*
X27660Y-58931D01*
X27656Y-58892D01*
X27659Y-58854D01*
X27670Y-58817D01*
X27687Y-58782D01*
X27712Y-58752D01*
X27741Y-58726D01*
X27775Y-58707D01*
X27813Y-58695D01*
X27851Y-58691D01*
X27889Y-58694D01*
X27927Y-58704D01*
X27962Y-58722D01*
X27992Y-58746D01*
X28018Y-58775D01*
X28037Y-58809D01*
X28050Y-58846D01*
X28054Y-58885D01*
X28055Y-58890D01*
X27655Y-58690D02*
X28055Y-59090D01*
X28055Y-58690D02*
X27655Y-59090D01*
X30825Y-56500D02*
X30821Y-56538D01*
X30809Y-56576D01*
X30791Y-56610D01*
X30766Y-56640D01*
X30736Y-56665D01*
X30702Y-56684D01*
X30665Y-56695D01*
X30626Y-56699D01*
X30588Y-56696D01*
X30551Y-56685D01*
X30516Y-56667D01*
X30486Y-56642D01*
X30460Y-56612D01*
X30442Y-56578D01*
X30430Y-56541D01*
X30426Y-56502D01*
X30429Y-56464D01*
X30440Y-56427D01*
X30457Y-56392D01*
X30482Y-56362D01*
X30511Y-56336D01*
X30545Y-56317D01*
X30583Y-56305D01*
X30621Y-56301D01*
X30659Y-56304D01*
X30697Y-56314D01*
X30732Y-56332D01*
X30762Y-56356D01*
X30788Y-56385D01*
X30807Y-56419D01*
X30820Y-56456D01*
X30824Y-56495D01*
X30825Y-56500D01*
X30425Y-56300D02*
X30825Y-56700D01*
X30825Y-56300D02*
X30425Y-56700D01*
X30825Y-57500D02*
X30821Y-57538D01*
X30809Y-57576D01*
X30791Y-57610D01*
X30766Y-57640D01*
X30736Y-57665D01*
X30702Y-57684D01*
X30665Y-57695D01*
X30626Y-57699D01*
X30588Y-57696D01*
X30551Y-57685D01*
X30516Y-57667D01*
X30486Y-57642D01*
X30460Y-57612D01*
X30442Y-57578D01*
X30430Y-57541D01*
X30426Y-57502D01*
X30429Y-57464D01*
X30440Y-57427D01*
X30457Y-57392D01*
X30482Y-57362D01*
X30511Y-57336D01*
X30545Y-57317D01*
X30583Y-57305D01*
X30621Y-57301D01*
X30659Y-57304D01*
X30697Y-57314D01*
X30732Y-57332D01*
X30762Y-57356D01*
X30788Y-57385D01*
X30807Y-57419D01*
X30820Y-57456D01*
X30824Y-57495D01*
X30825Y-57500D01*
X30425Y-57300D02*
X30825Y-57700D01*
X30825Y-57300D02*
X30425Y-57700D01*
X30825Y-58500D02*
X30821Y-58538D01*
X30809Y-58576D01*
X30791Y-58610D01*
X30766Y-58640D01*
X30736Y-58665D01*
X30702Y-58684D01*
X30665Y-58695D01*
X30626Y-58699D01*
X30588Y-58696D01*
X30551Y-58685D01*
X30516Y-58667D01*
X30486Y-58642D01*
X30460Y-58612D01*
X30442Y-58578D01*
X30430Y-58541D01*
X30426Y-58502D01*
X30429Y-58464D01*
X30440Y-58427D01*
X30457Y-58392D01*
X30482Y-58362D01*
X30511Y-58336D01*
X30545Y-58317D01*
X30583Y-58305D01*
X30621Y-58301D01*
X30659Y-58304D01*
X30697Y-58314D01*
X30732Y-58332D01*
X30762Y-58356D01*
X30788Y-58385D01*
X30807Y-58419D01*
X30820Y-58456D01*
X30824Y-58495D01*
X30825Y-58500D01*
X30425Y-58300D02*
X30825Y-58700D01*
X30825Y-58300D02*
X30425Y-58700D01*
X36700Y-56500D02*
X36696Y-56538D01*
X36684Y-56576D01*
X36666Y-56610D01*
X36641Y-56640D01*
X36611Y-56665D01*
X36577Y-56684D01*
X36540Y-56695D01*
X36501Y-56699D01*
X36463Y-56696D01*
X36426Y-56685D01*
X36391Y-56667D01*
X36361Y-56642D01*
X36335Y-56612D01*
X36317Y-56578D01*
X36305Y-56541D01*
X36301Y-56502D01*
X36304Y-56464D01*
X36315Y-56427D01*
X36332Y-56392D01*
X36357Y-56362D01*
X36386Y-56336D01*
X36420Y-56317D01*
X36458Y-56305D01*
X36496Y-56301D01*
X36534Y-56304D01*
X36572Y-56314D01*
X36607Y-56332D01*
X36637Y-56356D01*
X36663Y-56385D01*
X36682Y-56419D01*
X36695Y-56456D01*
X36699Y-56495D01*
X36700Y-56500D01*
X36300Y-56300D02*
X36700Y-56700D01*
X36700Y-56300D02*
X36300Y-56700D01*
X36700Y-57500D02*
X36696Y-57538D01*
X36684Y-57576D01*
X36666Y-57610D01*
X36641Y-57640D01*
X36611Y-57665D01*
X36577Y-57684D01*
X36540Y-57695D01*
X36501Y-57699D01*
X36463Y-57696D01*
X36426Y-57685D01*
X36391Y-57667D01*
X36361Y-57642D01*
X36335Y-57612D01*
X36317Y-57578D01*
X36305Y-57541D01*
X36301Y-57502D01*
X36304Y-57464D01*
X36315Y-57427D01*
X36332Y-57392D01*
X36357Y-57362D01*
X36386Y-57336D01*
X36420Y-57317D01*
X36458Y-57305D01*
X36496Y-57301D01*
X36534Y-57304D01*
X36572Y-57314D01*
X36607Y-57332D01*
X36637Y-57356D01*
X36663Y-57385D01*
X36682Y-57419D01*
X36695Y-57456D01*
X36699Y-57495D01*
X36700Y-57500D01*
X36300Y-57300D02*
X36700Y-57700D01*
X36700Y-57300D02*
X36300Y-57700D01*
X36700Y-58500D02*
X36696Y-58538D01*
X36684Y-58576D01*
X36666Y-58610D01*
X36641Y-58640D01*
X36611Y-58665D01*
X36577Y-58684D01*
X36540Y-58695D01*
X36501Y-58699D01*
X36463Y-58696D01*
X36426Y-58685D01*
X36391Y-58667D01*
X36361Y-58642D01*
X36335Y-58612D01*
X36317Y-58578D01*
X36305Y-58541D01*
X36301Y-58502D01*
X36304Y-58464D01*
X36315Y-58427D01*
X36332Y-58392D01*
X36357Y-58362D01*
X36386Y-58336D01*
X36420Y-58317D01*
X36458Y-58305D01*
X36496Y-58301D01*
X36534Y-58304D01*
X36572Y-58314D01*
X36607Y-58332D01*
X36637Y-58356D01*
X36663Y-58385D01*
X36682Y-58419D01*
X36695Y-58456D01*
X36699Y-58495D01*
X36700Y-58500D01*
X36300Y-58300D02*
X36700Y-58700D01*
X36700Y-58300D02*
X36300Y-58700D01*
X37600Y-37175D02*
X37596Y-37213D01*
X37584Y-37251D01*
X37566Y-37285D01*
X37541Y-37315D01*
X37511Y-37340D01*
X37477Y-37359D01*
X37440Y-37370D01*
X37401Y-37374D01*
X37363Y-37371D01*
X37326Y-37360D01*
X37291Y-37342D01*
X37261Y-37317D01*
X37235Y-37287D01*
X37217Y-37253D01*
X37205Y-37216D01*
X37201Y-37177D01*
X37204Y-37139D01*
X37215Y-37102D01*
X37232Y-37067D01*
X37257Y-37037D01*
X37286Y-37011D01*
X37320Y-36992D01*
X37358Y-36980D01*
X37396Y-36976D01*
X37434Y-36979D01*
X37472Y-36989D01*
X37507Y-37007D01*
X37537Y-37031D01*
X37563Y-37060D01*
X37582Y-37094D01*
X37595Y-37131D01*
X37599Y-37170D01*
X37600Y-37175D01*
X37200Y-36975D02*
X37600Y-37375D01*
X37600Y-36975D02*
X37200Y-37375D01*
X38200Y-56500D02*
X38196Y-56538D01*
X38184Y-56576D01*
X38166Y-56610D01*
X38141Y-56640D01*
X38111Y-56665D01*
X38077Y-56684D01*
X38040Y-56695D01*
X38001Y-56699D01*
X37963Y-56696D01*
X37926Y-56685D01*
X37891Y-56667D01*
X37861Y-56642D01*
X37835Y-56612D01*
X37817Y-56578D01*
X37805Y-56541D01*
X37801Y-56502D01*
X37804Y-56464D01*
X37815Y-56427D01*
X37832Y-56392D01*
X37857Y-56362D01*
X37886Y-56336D01*
X37920Y-56317D01*
X37958Y-56305D01*
X37996Y-56301D01*
X38034Y-56304D01*
X38072Y-56314D01*
X38107Y-56332D01*
X38137Y-56356D01*
X38163Y-56385D01*
X38182Y-56419D01*
X38195Y-56456D01*
X38199Y-56495D01*
X38200Y-56500D01*
X37800Y-56300D02*
X38200Y-56700D01*
X38200Y-56300D02*
X37800Y-56700D01*
X38200Y-57500D02*
X38196Y-57538D01*
X38184Y-57576D01*
X38166Y-57610D01*
X38141Y-57640D01*
X38111Y-57665D01*
X38077Y-57684D01*
X38040Y-57695D01*
X38001Y-57699D01*
X37963Y-57696D01*
X37926Y-57685D01*
X37891Y-57667D01*
X37861Y-57642D01*
X37835Y-57612D01*
X37817Y-57578D01*
X37805Y-57541D01*
X37801Y-57502D01*
X37804Y-57464D01*
X37815Y-57427D01*
X37832Y-57392D01*
X37857Y-57362D01*
X37886Y-57336D01*
X37920Y-57317D01*
X37958Y-57305D01*
X37996Y-57301D01*
X38034Y-57304D01*
X38072Y-57314D01*
X38107Y-57332D01*
X38137Y-57356D01*
X38163Y-57385D01*
X38182Y-57419D01*
X38195Y-57456D01*
X38199Y-57495D01*
X38200Y-57500D01*
X37800Y-57300D02*
X38200Y-57700D01*
X38200Y-57300D02*
X37800Y-57700D01*
X38200Y-59000D02*
X38196Y-59038D01*
X38184Y-59076D01*
X38166Y-59110D01*
X38141Y-59140D01*
X38111Y-59165D01*
X38077Y-59184D01*
X38040Y-59195D01*
X38001Y-59199D01*
X37963Y-59196D01*
X37926Y-59185D01*
X37891Y-59167D01*
X37861Y-59142D01*
X37835Y-59112D01*
X37817Y-59078D01*
X37805Y-59041D01*
X37801Y-59002D01*
X37804Y-58964D01*
X37815Y-58927D01*
X37832Y-58892D01*
X37857Y-58862D01*
X37886Y-58836D01*
X37920Y-58817D01*
X37958Y-58805D01*
X37996Y-58801D01*
X38034Y-58804D01*
X38072Y-58814D01*
X38107Y-58832D01*
X38137Y-58856D01*
X38163Y-58885D01*
X38182Y-58919D01*
X38195Y-58956D01*
X38199Y-58995D01*
X38200Y-59000D01*
X37800Y-58800D02*
X38200Y-59200D01*
X38200Y-58800D02*
X37800Y-59200D01*
X38600Y-37175D02*
X38596Y-37213D01*
X38584Y-37251D01*
X38566Y-37285D01*
X38541Y-37315D01*
X38511Y-37340D01*
X38477Y-37359D01*
X38440Y-37370D01*
X38401Y-37374D01*
X38363Y-37371D01*
X38326Y-37360D01*
X38291Y-37342D01*
X38261Y-37317D01*
X38235Y-37287D01*
X38217Y-37253D01*
X38205Y-37216D01*
X38201Y-37177D01*
X38204Y-37139D01*
X38215Y-37102D01*
X38232Y-37067D01*
X38257Y-37037D01*
X38286Y-37011D01*
X38320Y-36992D01*
X38358Y-36980D01*
X38396Y-36976D01*
X38434Y-36979D01*
X38472Y-36989D01*
X38507Y-37007D01*
X38537Y-37031D01*
X38563Y-37060D01*
X38582Y-37094D01*
X38595Y-37131D01*
X38599Y-37170D01*
X38600Y-37175D01*
X38200Y-36975D02*
X38600Y-37375D01*
X38600Y-36975D02*
X38200Y-37375D01*
X39200Y-56500D02*
X39196Y-56538D01*
X39184Y-56576D01*
X39166Y-56610D01*
X39141Y-56640D01*
X39111Y-56665D01*
X39077Y-56684D01*
X39040Y-56695D01*
X39001Y-56699D01*
X38963Y-56696D01*
X38926Y-56685D01*
X38891Y-56667D01*
X38861Y-56642D01*
X38835Y-56612D01*
X38817Y-56578D01*
X38805Y-56541D01*
X38801Y-56502D01*
X38804Y-56464D01*
X38815Y-56427D01*
X38832Y-56392D01*
X38857Y-56362D01*
X38886Y-56336D01*
X38920Y-56317D01*
X38958Y-56305D01*
X38996Y-56301D01*
X39034Y-56304D01*
X39072Y-56314D01*
X39107Y-56332D01*
X39137Y-56356D01*
X39163Y-56385D01*
X39182Y-56419D01*
X39195Y-56456D01*
X39199Y-56495D01*
X39200Y-56500D01*
X38800Y-56300D02*
X39200Y-56700D01*
X39200Y-56300D02*
X38800Y-56700D01*
X39200Y-57500D02*
X39196Y-57538D01*
X39184Y-57576D01*
X39166Y-57610D01*
X39141Y-57640D01*
X39111Y-57665D01*
X39077Y-57684D01*
X39040Y-57695D01*
X39001Y-57699D01*
X38963Y-57696D01*
X38926Y-57685D01*
X38891Y-57667D01*
X38861Y-57642D01*
X38835Y-57612D01*
X38817Y-57578D01*
X38805Y-57541D01*
X38801Y-57502D01*
X38804Y-57464D01*
X38815Y-57427D01*
X38832Y-57392D01*
X38857Y-57362D01*
X38886Y-57336D01*
X38920Y-57317D01*
X38958Y-57305D01*
X38996Y-57301D01*
X39034Y-57304D01*
X39072Y-57314D01*
X39107Y-57332D01*
X39137Y-57356D01*
X39163Y-57385D01*
X39182Y-57419D01*
X39195Y-57456D01*
X39199Y-57495D01*
X39200Y-57500D01*
X38800Y-57300D02*
X39200Y-57700D01*
X39200Y-57300D02*
X38800Y-57700D01*
X39200Y-59000D02*
X39196Y-59038D01*
X39184Y-59076D01*
X39166Y-59110D01*
X39141Y-59140D01*
X39111Y-59165D01*
X39077Y-59184D01*
X39040Y-59195D01*
X39001Y-59199D01*
X38963Y-59196D01*
X38926Y-59185D01*
X38891Y-59167D01*
X38861Y-59142D01*
X38835Y-59112D01*
X38817Y-59078D01*
X38805Y-59041D01*
X38801Y-59002D01*
X38804Y-58964D01*
X38815Y-58927D01*
X38832Y-58892D01*
X38857Y-58862D01*
X38886Y-58836D01*
X38920Y-58817D01*
X38958Y-58805D01*
X38996Y-58801D01*
X39034Y-58804D01*
X39072Y-58814D01*
X39107Y-58832D01*
X39137Y-58856D01*
X39163Y-58885D01*
X39182Y-58919D01*
X39195Y-58956D01*
X39199Y-58995D01*
X39200Y-59000D01*
X38800Y-58800D02*
X39200Y-59200D01*
X39200Y-58800D02*
X38800Y-59200D01*
X39225Y-13500D02*
X39221Y-13538D01*
X39209Y-13576D01*
X39191Y-13610D01*
X39166Y-13640D01*
X39136Y-13665D01*
X39102Y-13684D01*
X39065Y-13695D01*
X39026Y-13699D01*
X38988Y-13696D01*
X38951Y-13685D01*
X38916Y-13667D01*
X38886Y-13642D01*
X38860Y-13612D01*
X38842Y-13578D01*
X38830Y-13541D01*
X38826Y-13502D01*
X38829Y-13464D01*
X38840Y-13427D01*
X38857Y-13392D01*
X38882Y-13362D01*
X38911Y-13336D01*
X38945Y-13317D01*
X38983Y-13305D01*
X39021Y-13301D01*
X39059Y-13304D01*
X39097Y-13314D01*
X39132Y-13332D01*
X39162Y-13356D01*
X39188Y-13385D01*
X39207Y-13419D01*
X39220Y-13456D01*
X39224Y-13495D01*
X39225Y-13500D01*
X38825Y-13300D02*
X39225Y-13700D01*
X39225Y-13300D02*
X38825Y-13700D01*
X39225Y-14500D02*
X39221Y-14538D01*
X39209Y-14576D01*
X39191Y-14610D01*
X39166Y-14640D01*
X39136Y-14665D01*
X39102Y-14684D01*
X39065Y-14695D01*
X39026Y-14699D01*
X38988Y-14696D01*
X38951Y-14685D01*
X38916Y-14667D01*
X38886Y-14642D01*
X38860Y-14612D01*
X38842Y-14578D01*
X38830Y-14541D01*
X38826Y-14502D01*
X38829Y-14464D01*
X38840Y-14427D01*
X38857Y-14392D01*
X38882Y-14362D01*
X38911Y-14336D01*
X38945Y-14317D01*
X38983Y-14305D01*
X39021Y-14301D01*
X39059Y-14304D01*
X39097Y-14314D01*
X39132Y-14332D01*
X39162Y-14356D01*
X39188Y-14385D01*
X39207Y-14419D01*
X39220Y-14456D01*
X39224Y-14495D01*
X39225Y-14500D01*
X38825Y-14300D02*
X39225Y-14700D01*
X39225Y-14300D02*
X38825Y-14700D01*
X39600Y-37175D02*
X39596Y-37213D01*
X39584Y-37251D01*
X39566Y-37285D01*
X39541Y-37315D01*
X39511Y-37340D01*
X39477Y-37359D01*
X39440Y-37370D01*
X39401Y-37374D01*
X39363Y-37371D01*
X39326Y-37360D01*
X39291Y-37342D01*
X39261Y-37317D01*
X39235Y-37287D01*
X39217Y-37253D01*
X39205Y-37216D01*
X39201Y-37177D01*
X39204Y-37139D01*
X39215Y-37102D01*
X39232Y-37067D01*
X39257Y-37037D01*
X39286Y-37011D01*
X39320Y-36992D01*
X39358Y-36980D01*
X39396Y-36976D01*
X39434Y-36979D01*
X39472Y-36989D01*
X39507Y-37007D01*
X39537Y-37031D01*
X39563Y-37060D01*
X39582Y-37094D01*
X39595Y-37131D01*
X39599Y-37170D01*
X39600Y-37175D01*
X39200Y-36975D02*
X39600Y-37375D01*
X39600Y-36975D02*
X39200Y-37375D01*
X40200Y-56500D02*
X40196Y-56538D01*
X40184Y-56576D01*
X40166Y-56610D01*
X40141Y-56640D01*
X40111Y-56665D01*
X40077Y-56684D01*
X40040Y-56695D01*
X40001Y-56699D01*
X39963Y-56696D01*
X39926Y-56685D01*
X39891Y-56667D01*
X39861Y-56642D01*
X39835Y-56612D01*
X39817Y-56578D01*
X39805Y-56541D01*
X39801Y-56502D01*
X39804Y-56464D01*
X39815Y-56427D01*
X39832Y-56392D01*
X39857Y-56362D01*
X39886Y-56336D01*
X39920Y-56317D01*
X39958Y-56305D01*
X39996Y-56301D01*
X40034Y-56304D01*
X40072Y-56314D01*
X40107Y-56332D01*
X40137Y-56356D01*
X40163Y-56385D01*
X40182Y-56419D01*
X40195Y-56456D01*
X40199Y-56495D01*
X40200Y-56500D01*
X39800Y-56300D02*
X40200Y-56700D01*
X40200Y-56300D02*
X39800Y-56700D01*
X40200Y-57500D02*
X40196Y-57538D01*
X40184Y-57576D01*
X40166Y-57610D01*
X40141Y-57640D01*
X40111Y-57665D01*
X40077Y-57684D01*
X40040Y-57695D01*
X40001Y-57699D01*
X39963Y-57696D01*
X39926Y-57685D01*
X39891Y-57667D01*
X39861Y-57642D01*
X39835Y-57612D01*
X39817Y-57578D01*
X39805Y-57541D01*
X39801Y-57502D01*
X39804Y-57464D01*
X39815Y-57427D01*
X39832Y-57392D01*
X39857Y-57362D01*
X39886Y-57336D01*
X39920Y-57317D01*
X39958Y-57305D01*
X39996Y-57301D01*
X40034Y-57304D01*
X40072Y-57314D01*
X40107Y-57332D01*
X40137Y-57356D01*
X40163Y-57385D01*
X40182Y-57419D01*
X40195Y-57456D01*
X40199Y-57495D01*
X40200Y-57500D01*
X39800Y-57300D02*
X40200Y-57700D01*
X40200Y-57300D02*
X39800Y-57700D01*
X40200Y-59000D02*
X40196Y-59038D01*
X40184Y-59076D01*
X40166Y-59110D01*
X40141Y-59140D01*
X40111Y-59165D01*
X40077Y-59184D01*
X40040Y-59195D01*
X40001Y-59199D01*
X39963Y-59196D01*
X39926Y-59185D01*
X39891Y-59167D01*
X39861Y-59142D01*
X39835Y-59112D01*
X39817Y-59078D01*
X39805Y-59041D01*
X39801Y-59002D01*
X39804Y-58964D01*
X39815Y-58927D01*
X39832Y-58892D01*
X39857Y-58862D01*
X39886Y-58836D01*
X39920Y-58817D01*
X39958Y-58805D01*
X39996Y-58801D01*
X40034Y-58804D01*
X40072Y-58814D01*
X40107Y-58832D01*
X40137Y-58856D01*
X40163Y-58885D01*
X40182Y-58919D01*
X40195Y-58956D01*
X40199Y-58995D01*
X40200Y-59000D01*
X39800Y-58800D02*
X40200Y-59200D01*
X40200Y-58800D02*
X39800Y-59200D01*
X40225Y-13500D02*
X40221Y-13538D01*
X40209Y-13576D01*
X40191Y-13610D01*
X40166Y-13640D01*
X40136Y-13665D01*
X40102Y-13684D01*
X40065Y-13695D01*
X40026Y-13699D01*
X39988Y-13696D01*
X39951Y-13685D01*
X39916Y-13667D01*
X39886Y-13642D01*
X39860Y-13612D01*
X39842Y-13578D01*
X39830Y-13541D01*
X39826Y-13502D01*
X39829Y-13464D01*
X39840Y-13427D01*
X39857Y-13392D01*
X39882Y-13362D01*
X39911Y-13336D01*
X39945Y-13317D01*
X39983Y-13305D01*
X40021Y-13301D01*
X40059Y-13304D01*
X40097Y-13314D01*
X40132Y-13332D01*
X40162Y-13356D01*
X40188Y-13385D01*
X40207Y-13419D01*
X40220Y-13456D01*
X40224Y-13495D01*
X40225Y-13500D01*
X39825Y-13300D02*
X40225Y-13700D01*
X40225Y-13300D02*
X39825Y-13700D01*
X40225Y-14500D02*
X40221Y-14538D01*
X40209Y-14576D01*
X40191Y-14610D01*
X40166Y-14640D01*
X40136Y-14665D01*
X40102Y-14684D01*
X40065Y-14695D01*
X40026Y-14699D01*
X39988Y-14696D01*
X39951Y-14685D01*
X39916Y-14667D01*
X39886Y-14642D01*
X39860Y-14612D01*
X39842Y-14578D01*
X39830Y-14541D01*
X39826Y-14502D01*
X39829Y-14464D01*
X39840Y-14427D01*
X39857Y-14392D01*
X39882Y-14362D01*
X39911Y-14336D01*
X39945Y-14317D01*
X39983Y-14305D01*
X40021Y-14301D01*
X40059Y-14304D01*
X40097Y-14314D01*
X40132Y-14332D01*
X40162Y-14356D01*
X40188Y-14385D01*
X40207Y-14419D01*
X40220Y-14456D01*
X40224Y-14495D01*
X40225Y-14500D01*
X39825Y-14300D02*
X40225Y-14700D01*
X40225Y-14300D02*
X39825Y-14700D01*
X41200Y-59000D02*
X41196Y-59038D01*
X41184Y-59076D01*
X41166Y-59110D01*
X41141Y-59140D01*
X41111Y-59165D01*
X41077Y-59184D01*
X41040Y-59195D01*
X41001Y-59199D01*
X40963Y-59196D01*
X40926Y-59185D01*
X40891Y-59167D01*
X40861Y-59142D01*
X40835Y-59112D01*
X40817Y-59078D01*
X40805Y-59041D01*
X40801Y-59002D01*
X40804Y-58964D01*
X40815Y-58927D01*
X40832Y-58892D01*
X40857Y-58862D01*
X40886Y-58836D01*
X40920Y-58817D01*
X40958Y-58805D01*
X40996Y-58801D01*
X41034Y-58804D01*
X41072Y-58814D01*
X41107Y-58832D01*
X41137Y-58856D01*
X41163Y-58885D01*
X41182Y-58919D01*
X41195Y-58956D01*
X41199Y-58995D01*
X41200Y-59000D01*
X40800Y-58800D02*
X41200Y-59200D01*
X41200Y-58800D02*
X40800Y-59200D01*
X41225Y-13500D02*
X41221Y-13538D01*
X41209Y-13576D01*
X41191Y-13610D01*
X41166Y-13640D01*
X41136Y-13665D01*
X41102Y-13684D01*
X41065Y-13695D01*
X41026Y-13699D01*
X40988Y-13696D01*
X40951Y-13685D01*
X40916Y-13667D01*
X40886Y-13642D01*
X40860Y-13612D01*
X40842Y-13578D01*
X40830Y-13541D01*
X40826Y-13502D01*
X40829Y-13464D01*
X40840Y-13427D01*
X40857Y-13392D01*
X40882Y-13362D01*
X40911Y-13336D01*
X40945Y-13317D01*
X40983Y-13305D01*
X41021Y-13301D01*
X41059Y-13304D01*
X41097Y-13314D01*
X41132Y-13332D01*
X41162Y-13356D01*
X41188Y-13385D01*
X41207Y-13419D01*
X41220Y-13456D01*
X41224Y-13495D01*
X41225Y-13500D01*
X40825Y-13300D02*
X41225Y-13700D01*
X41225Y-13300D02*
X40825Y-13700D01*
X41225Y-14500D02*
X41221Y-14538D01*
X41209Y-14576D01*
X41191Y-14610D01*
X41166Y-14640D01*
X41136Y-14665D01*
X41102Y-14684D01*
X41065Y-14695D01*
X41026Y-14699D01*
X40988Y-14696D01*
X40951Y-14685D01*
X40916Y-14667D01*
X40886Y-14642D01*
X40860Y-14612D01*
X40842Y-14578D01*
X40830Y-14541D01*
X40826Y-14502D01*
X40829Y-14464D01*
X40840Y-14427D01*
X40857Y-14392D01*
X40882Y-14362D01*
X40911Y-14336D01*
X40945Y-14317D01*
X40983Y-14305D01*
X41021Y-14301D01*
X41059Y-14304D01*
X41097Y-14314D01*
X41132Y-14332D01*
X41162Y-14356D01*
X41188Y-14385D01*
X41207Y-14419D01*
X41220Y-14456D01*
X41224Y-14495D01*
X41225Y-14500D01*
X40825Y-14300D02*
X41225Y-14700D01*
X41225Y-14300D02*
X40825Y-14700D01*
X42200Y-59000D02*
X42196Y-59038D01*
X42184Y-59076D01*
X42166Y-59110D01*
X42141Y-59140D01*
X42111Y-59165D01*
X42077Y-59184D01*
X42040Y-59195D01*
X42001Y-59199D01*
X41963Y-59196D01*
X41926Y-59185D01*
X41891Y-59167D01*
X41861Y-59142D01*
X41835Y-59112D01*
X41817Y-59078D01*
X41805Y-59041D01*
X41801Y-59002D01*
X41804Y-58964D01*
X41815Y-58927D01*
X41832Y-58892D01*
X41857Y-58862D01*
X41886Y-58836D01*
X41920Y-58817D01*
X41958Y-58805D01*
X41996Y-58801D01*
X42034Y-58804D01*
X42072Y-58814D01*
X42107Y-58832D01*
X42137Y-58856D01*
X42163Y-58885D01*
X42182Y-58919D01*
X42195Y-58956D01*
X42199Y-58995D01*
X42200Y-59000D01*
X41800Y-58800D02*
X42200Y-59200D01*
X42200Y-58800D02*
X41800Y-59200D01*
X42225Y-13500D02*
X42221Y-13538D01*
X42209Y-13576D01*
X42191Y-13610D01*
X42166Y-13640D01*
X42136Y-13665D01*
X42102Y-13684D01*
X42065Y-13695D01*
X42026Y-13699D01*
X41988Y-13696D01*
X41951Y-13685D01*
X41916Y-13667D01*
X41886Y-13642D01*
X41860Y-13612D01*
X41842Y-13578D01*
X41830Y-13541D01*
X41826Y-13502D01*
X41829Y-13464D01*
X41840Y-13427D01*
X41857Y-13392D01*
X41882Y-13362D01*
X41911Y-13336D01*
X41945Y-13317D01*
X41983Y-13305D01*
X42021Y-13301D01*
X42059Y-13304D01*
X42097Y-13314D01*
X42132Y-13332D01*
X42162Y-13356D01*
X42188Y-13385D01*
X42207Y-13419D01*
X42220Y-13456D01*
X42224Y-13495D01*
X42225Y-13500D01*
X41825Y-13300D02*
X42225Y-13700D01*
X42225Y-13300D02*
X41825Y-13700D01*
X42225Y-14500D02*
X42221Y-14538D01*
X42209Y-14576D01*
X42191Y-14610D01*
X42166Y-14640D01*
X42136Y-14665D01*
X42102Y-14684D01*
X42065Y-14695D01*
X42026Y-14699D01*
X41988Y-14696D01*
X41951Y-14685D01*
X41916Y-14667D01*
X41886Y-14642D01*
X41860Y-14612D01*
X41842Y-14578D01*
X41830Y-14541D01*
X41826Y-14502D01*
X41829Y-14464D01*
X41840Y-14427D01*
X41857Y-14392D01*
X41882Y-14362D01*
X41911Y-14336D01*
X41945Y-14317D01*
X41983Y-14305D01*
X42021Y-14301D01*
X42059Y-14304D01*
X42097Y-14314D01*
X42132Y-14332D01*
X42162Y-14356D01*
X42188Y-14385D01*
X42207Y-14419D01*
X42220Y-14456D01*
X42224Y-14495D01*
X42225Y-14500D01*
X41825Y-14300D02*
X42225Y-14700D01*
X42225Y-14300D02*
X41825Y-14700D01*
X43200Y-59000D02*
X43196Y-59038D01*
X43184Y-59076D01*
X43166Y-59110D01*
X43141Y-59140D01*
X43111Y-59165D01*
X43077Y-59184D01*
X43040Y-59195D01*
X43001Y-59199D01*
X42963Y-59196D01*
X42926Y-59185D01*
X42891Y-59167D01*
X42861Y-59142D01*
X42835Y-59112D01*
X42817Y-59078D01*
X42805Y-59041D01*
X42801Y-59002D01*
X42804Y-58964D01*
X42815Y-58927D01*
X42832Y-58892D01*
X42857Y-58862D01*
X42886Y-58836D01*
X42920Y-58817D01*
X42958Y-58805D01*
X42996Y-58801D01*
X43034Y-58804D01*
X43072Y-58814D01*
X43107Y-58832D01*
X43137Y-58856D01*
X43163Y-58885D01*
X43182Y-58919D01*
X43195Y-58956D01*
X43199Y-58995D01*
X43200Y-59000D01*
X42800Y-58800D02*
X43200Y-59200D01*
X43200Y-58800D02*
X42800Y-59200D01*
X43225Y-13500D02*
X43221Y-13538D01*
X43209Y-13576D01*
X43191Y-13610D01*
X43166Y-13640D01*
X43136Y-13665D01*
X43102Y-13684D01*
X43065Y-13695D01*
X43026Y-13699D01*
X42988Y-13696D01*
X42951Y-13685D01*
X42916Y-13667D01*
X42886Y-13642D01*
X42860Y-13612D01*
X42842Y-13578D01*
X42830Y-13541D01*
X42826Y-13502D01*
X42829Y-13464D01*
X42840Y-13427D01*
X42857Y-13392D01*
X42882Y-13362D01*
X42911Y-13336D01*
X42945Y-13317D01*
X42983Y-13305D01*
X43021Y-13301D01*
X43059Y-13304D01*
X43097Y-13314D01*
X43132Y-13332D01*
X43162Y-13356D01*
X43188Y-13385D01*
X43207Y-13419D01*
X43220Y-13456D01*
X43224Y-13495D01*
X43225Y-13500D01*
X42825Y-13300D02*
X43225Y-13700D01*
X43225Y-13300D02*
X42825Y-13700D01*
X43225Y-14500D02*
X43221Y-14538D01*
X43209Y-14576D01*
X43191Y-14610D01*
X43166Y-14640D01*
X43136Y-14665D01*
X43102Y-14684D01*
X43065Y-14695D01*
X43026Y-14699D01*
X42988Y-14696D01*
X42951Y-14685D01*
X42916Y-14667D01*
X42886Y-14642D01*
X42860Y-14612D01*
X42842Y-14578D01*
X42830Y-14541D01*
X42826Y-14502D01*
X42829Y-14464D01*
X42840Y-14427D01*
X42857Y-14392D01*
X42882Y-14362D01*
X42911Y-14336D01*
X42945Y-14317D01*
X42983Y-14305D01*
X43021Y-14301D01*
X43059Y-14304D01*
X43097Y-14314D01*
X43132Y-14332D01*
X43162Y-14356D01*
X43188Y-14385D01*
X43207Y-14419D01*
X43220Y-14456D01*
X43224Y-14495D01*
X43225Y-14500D01*
X42825Y-14300D02*
X43225Y-14700D01*
X43225Y-14300D02*
X42825Y-14700D01*
X44225Y-13500D02*
X44221Y-13538D01*
X44209Y-13576D01*
X44191Y-13610D01*
X44166Y-13640D01*
X44136Y-13665D01*
X44102Y-13684D01*
X44065Y-13695D01*
X44026Y-13699D01*
X43988Y-13696D01*
X43951Y-13685D01*
X43916Y-13667D01*
X43886Y-13642D01*
X43860Y-13612D01*
X43842Y-13578D01*
X43830Y-13541D01*
X43826Y-13502D01*
X43829Y-13464D01*
X43840Y-13427D01*
X43857Y-13392D01*
X43882Y-13362D01*
X43911Y-13336D01*
X43945Y-13317D01*
X43983Y-13305D01*
X44021Y-13301D01*
X44059Y-13304D01*
X44097Y-13314D01*
X44132Y-13332D01*
X44162Y-13356D01*
X44188Y-13385D01*
X44207Y-13419D01*
X44220Y-13456D01*
X44224Y-13495D01*
X44225Y-13500D01*
X43825Y-13300D02*
X44225Y-13700D01*
X44225Y-13300D02*
X43825Y-13700D01*
X44225Y-14500D02*
X44221Y-14538D01*
X44209Y-14576D01*
X44191Y-14610D01*
X44166Y-14640D01*
X44136Y-14665D01*
X44102Y-14684D01*
X44065Y-14695D01*
X44026Y-14699D01*
X43988Y-14696D01*
X43951Y-14685D01*
X43916Y-14667D01*
X43886Y-14642D01*
X43860Y-14612D01*
X43842Y-14578D01*
X43830Y-14541D01*
X43826Y-14502D01*
X43829Y-14464D01*
X43840Y-14427D01*
X43857Y-14392D01*
X43882Y-14362D01*
X43911Y-14336D01*
X43945Y-14317D01*
X43983Y-14305D01*
X44021Y-14301D01*
X44059Y-14304D01*
X44097Y-14314D01*
X44132Y-14332D01*
X44162Y-14356D01*
X44188Y-14385D01*
X44207Y-14419D01*
X44220Y-14456D01*
X44224Y-14495D01*
X44225Y-14500D01*
X43825Y-14300D02*
X44225Y-14700D01*
X44225Y-14300D02*
X43825Y-14700D01*
X44700Y-56000D02*
X44696Y-56038D01*
X44684Y-56076D01*
X44666Y-56110D01*
X44641Y-56140D01*
X44611Y-56165D01*
X44577Y-56184D01*
X44540Y-56195D01*
X44501Y-56199D01*
X44463Y-56196D01*
X44426Y-56185D01*
X44391Y-56167D01*
X44361Y-56142D01*
X44335Y-56112D01*
X44317Y-56078D01*
X44305Y-56041D01*
X44301Y-56002D01*
X44304Y-55964D01*
X44315Y-55927D01*
X44332Y-55892D01*
X44357Y-55862D01*
X44386Y-55836D01*
X44420Y-55817D01*
X44458Y-55805D01*
X44496Y-55801D01*
X44534Y-55804D01*
X44572Y-55814D01*
X44607Y-55832D01*
X44637Y-55856D01*
X44663Y-55885D01*
X44682Y-55919D01*
X44695Y-55956D01*
X44699Y-55995D01*
X44700Y-56000D01*
X44300Y-55800D02*
X44700Y-56200D01*
X44700Y-55800D02*
X44300Y-56200D01*
X44700Y-57000D02*
X44696Y-57038D01*
X44684Y-57076D01*
X44666Y-57110D01*
X44641Y-57140D01*
X44611Y-57165D01*
X44577Y-57184D01*
X44540Y-57195D01*
X44501Y-57199D01*
X44463Y-57196D01*
X44426Y-57185D01*
X44391Y-57167D01*
X44361Y-57142D01*
X44335Y-57112D01*
X44317Y-57078D01*
X44305Y-57041D01*
X44301Y-57002D01*
X44304Y-56964D01*
X44315Y-56927D01*
X44332Y-56892D01*
X44357Y-56862D01*
X44386Y-56836D01*
X44420Y-56817D01*
X44458Y-56805D01*
X44496Y-56801D01*
X44534Y-56804D01*
X44572Y-56814D01*
X44607Y-56832D01*
X44637Y-56856D01*
X44663Y-56885D01*
X44682Y-56919D01*
X44695Y-56956D01*
X44699Y-56995D01*
X44700Y-57000D01*
X44300Y-56800D02*
X44700Y-57200D01*
X44700Y-56800D02*
X44300Y-57200D01*
X44700Y-58000D02*
X44696Y-58038D01*
X44684Y-58076D01*
X44666Y-58110D01*
X44641Y-58140D01*
X44611Y-58165D01*
X44577Y-58184D01*
X44540Y-58195D01*
X44501Y-58199D01*
X44463Y-58196D01*
X44426Y-58185D01*
X44391Y-58167D01*
X44361Y-58142D01*
X44335Y-58112D01*
X44317Y-58078D01*
X44305Y-58041D01*
X44301Y-58002D01*
X44304Y-57964D01*
X44315Y-57927D01*
X44332Y-57892D01*
X44357Y-57862D01*
X44386Y-57836D01*
X44420Y-57817D01*
X44458Y-57805D01*
X44496Y-57801D01*
X44534Y-57804D01*
X44572Y-57814D01*
X44607Y-57832D01*
X44637Y-57856D01*
X44663Y-57885D01*
X44682Y-57919D01*
X44695Y-57956D01*
X44699Y-57995D01*
X44700Y-58000D01*
X44300Y-57800D02*
X44700Y-58200D01*
X44700Y-57800D02*
X44300Y-58200D01*
X44700Y-59000D02*
X44696Y-59038D01*
X44684Y-59076D01*
X44666Y-59110D01*
X44641Y-59140D01*
X44611Y-59165D01*
X44577Y-59184D01*
X44540Y-59195D01*
X44501Y-59199D01*
X44463Y-59196D01*
X44426Y-59185D01*
X44391Y-59167D01*
X44361Y-59142D01*
X44335Y-59112D01*
X44317Y-59078D01*
X44305Y-59041D01*
X44301Y-59002D01*
X44304Y-58964D01*
X44315Y-58927D01*
X44332Y-58892D01*
X44357Y-58862D01*
X44386Y-58836D01*
X44420Y-58817D01*
X44458Y-58805D01*
X44496Y-58801D01*
X44534Y-58804D01*
X44572Y-58814D01*
X44607Y-58832D01*
X44637Y-58856D01*
X44663Y-58885D01*
X44682Y-58919D01*
X44695Y-58956D01*
X44699Y-58995D01*
X44700Y-59000D01*
X44300Y-58800D02*
X44700Y-59200D01*
X44700Y-58800D02*
X44300Y-59200D01*
X46200Y-58000D02*
X46196Y-58038D01*
X46184Y-58076D01*
X46166Y-58110D01*
X46141Y-58140D01*
X46111Y-58165D01*
X46077Y-58184D01*
X46040Y-58195D01*
X46001Y-58199D01*
X45963Y-58196D01*
X45926Y-58185D01*
X45891Y-58167D01*
X45861Y-58142D01*
X45835Y-58112D01*
X45817Y-58078D01*
X45805Y-58041D01*
X45801Y-58002D01*
X45804Y-57964D01*
X45815Y-57927D01*
X45832Y-57892D01*
X45857Y-57862D01*
X45886Y-57836D01*
X45920Y-57817D01*
X45958Y-57805D01*
X45996Y-57801D01*
X46034Y-57804D01*
X46072Y-57814D01*
X46107Y-57832D01*
X46137Y-57856D01*
X46163Y-57885D01*
X46182Y-57919D01*
X46195Y-57956D01*
X46199Y-57995D01*
X46200Y-58000D01*
X45800Y-57800D02*
X46200Y-58200D01*
X46200Y-57800D02*
X45800Y-58200D01*
X46200Y-59000D02*
X46196Y-59038D01*
X46184Y-59076D01*
X46166Y-59110D01*
X46141Y-59140D01*
X46111Y-59165D01*
X46077Y-59184D01*
X46040Y-59195D01*
X46001Y-59199D01*
X45963Y-59196D01*
X45926Y-59185D01*
X45891Y-59167D01*
X45861Y-59142D01*
X45835Y-59112D01*
X45817Y-59078D01*
X45805Y-59041D01*
X45801Y-59002D01*
X45804Y-58964D01*
X45815Y-58927D01*
X45832Y-58892D01*
X45857Y-58862D01*
X45886Y-58836D01*
X45920Y-58817D01*
X45958Y-58805D01*
X45996Y-58801D01*
X46034Y-58804D01*
X46072Y-58814D01*
X46107Y-58832D01*
X46137Y-58856D01*
X46163Y-58885D01*
X46182Y-58919D01*
X46195Y-58956D01*
X46199Y-58995D01*
X46200Y-59000D01*
X45800Y-58800D02*
X46200Y-59200D01*
X46200Y-58800D02*
X45800Y-59200D01*
X47200Y-58000D02*
X47196Y-58038D01*
X47184Y-58076D01*
X47166Y-58110D01*
X47141Y-58140D01*
X47111Y-58165D01*
X47077Y-58184D01*
X47040Y-58195D01*
X47001Y-58199D01*
X46963Y-58196D01*
X46926Y-58185D01*
X46891Y-58167D01*
X46861Y-58142D01*
X46835Y-58112D01*
X46817Y-58078D01*
X46805Y-58041D01*
X46801Y-58002D01*
X46804Y-57964D01*
X46815Y-57927D01*
X46832Y-57892D01*
X46857Y-57862D01*
X46886Y-57836D01*
X46920Y-57817D01*
X46958Y-57805D01*
X46996Y-57801D01*
X47034Y-57804D01*
X47072Y-57814D01*
X47107Y-57832D01*
X47137Y-57856D01*
X47163Y-57885D01*
X47182Y-57919D01*
X47195Y-57956D01*
X47199Y-57995D01*
X47200Y-58000D01*
X46800Y-57800D02*
X47200Y-58200D01*
X47200Y-57800D02*
X46800Y-58200D01*
X47200Y-59000D02*
X47196Y-59038D01*
X47184Y-59076D01*
X47166Y-59110D01*
X47141Y-59140D01*
X47111Y-59165D01*
X47077Y-59184D01*
X47040Y-59195D01*
X47001Y-59199D01*
X46963Y-59196D01*
X46926Y-59185D01*
X46891Y-59167D01*
X46861Y-59142D01*
X46835Y-59112D01*
X46817Y-59078D01*
X46805Y-59041D01*
X46801Y-59002D01*
X46804Y-58964D01*
X46815Y-58927D01*
X46832Y-58892D01*
X46857Y-58862D01*
X46886Y-58836D01*
X46920Y-58817D01*
X46958Y-58805D01*
X46996Y-58801D01*
X47034Y-58804D01*
X47072Y-58814D01*
X47107Y-58832D01*
X47137Y-58856D01*
X47163Y-58885D01*
X47182Y-58919D01*
X47195Y-58956D01*
X47199Y-58995D01*
X47200Y-59000D01*
X46800Y-58800D02*
X47200Y-59200D01*
X47200Y-58800D02*
X46800Y-59200D01*
X48200Y-58000D02*
X48196Y-58038D01*
X48184Y-58076D01*
X48166Y-58110D01*
X48141Y-58140D01*
X48111Y-58165D01*
X48077Y-58184D01*
X48040Y-58195D01*
X48001Y-58199D01*
X47963Y-58196D01*
X47926Y-58185D01*
X47891Y-58167D01*
X47861Y-58142D01*
X47835Y-58112D01*
X47817Y-58078D01*
X47805Y-58041D01*
X47801Y-58002D01*
X47804Y-57964D01*
X47815Y-57927D01*
X47832Y-57892D01*
X47857Y-57862D01*
X47886Y-57836D01*
X47920Y-57817D01*
X47958Y-57805D01*
X47996Y-57801D01*
X48034Y-57804D01*
X48072Y-57814D01*
X48107Y-57832D01*
X48137Y-57856D01*
X48163Y-57885D01*
X48182Y-57919D01*
X48195Y-57956D01*
X48199Y-57995D01*
X48200Y-58000D01*
X47800Y-57800D02*
X48200Y-58200D01*
X48200Y-57800D02*
X47800Y-58200D01*
X48200Y-59000D02*
X48196Y-59038D01*
X48184Y-59076D01*
X48166Y-59110D01*
X48141Y-59140D01*
X48111Y-59165D01*
X48077Y-59184D01*
X48040Y-59195D01*
X48001Y-59199D01*
X47963Y-59196D01*
X47926Y-59185D01*
X47891Y-59167D01*
X47861Y-59142D01*
X47835Y-59112D01*
X47817Y-59078D01*
X47805Y-59041D01*
X47801Y-59002D01*
X47804Y-58964D01*
X47815Y-58927D01*
X47832Y-58892D01*
X47857Y-58862D01*
X47886Y-58836D01*
X47920Y-58817D01*
X47958Y-58805D01*
X47996Y-58801D01*
X48034Y-58804D01*
X48072Y-58814D01*
X48107Y-58832D01*
X48137Y-58856D01*
X48163Y-58885D01*
X48182Y-58919D01*
X48195Y-58956D01*
X48199Y-58995D01*
X48200Y-59000D01*
X47800Y-58800D02*
X48200Y-59200D01*
X48200Y-58800D02*
X47800Y-59200D01*
X49200Y-58000D02*
X49196Y-58038D01*
X49184Y-58076D01*
X49166Y-58110D01*
X49141Y-58140D01*
X49111Y-58165D01*
X49077Y-58184D01*
X49040Y-58195D01*
X49001Y-58199D01*
X48963Y-58196D01*
X48926Y-58185D01*
X48891Y-58167D01*
X48861Y-58142D01*
X48835Y-58112D01*
X48817Y-58078D01*
X48805Y-58041D01*
X48801Y-58002D01*
X48804Y-57964D01*
X48815Y-57927D01*
X48832Y-57892D01*
X48857Y-57862D01*
X48886Y-57836D01*
X48920Y-57817D01*
X48958Y-57805D01*
X48996Y-57801D01*
X49034Y-57804D01*
X49072Y-57814D01*
X49107Y-57832D01*
X49137Y-57856D01*
X49163Y-57885D01*
X49182Y-57919D01*
X49195Y-57956D01*
X49199Y-57995D01*
X49200Y-58000D01*
X48800Y-57800D02*
X49200Y-58200D01*
X49200Y-57800D02*
X48800Y-58200D01*
X49200Y-59000D02*
X49196Y-59038D01*
X49184Y-59076D01*
X49166Y-59110D01*
X49141Y-59140D01*
X49111Y-59165D01*
X49077Y-59184D01*
X49040Y-59195D01*
X49001Y-59199D01*
X48963Y-59196D01*
X48926Y-59185D01*
X48891Y-59167D01*
X48861Y-59142D01*
X48835Y-59112D01*
X48817Y-59078D01*
X48805Y-59041D01*
X48801Y-59002D01*
X48804Y-58964D01*
X48815Y-58927D01*
X48832Y-58892D01*
X48857Y-58862D01*
X48886Y-58836D01*
X48920Y-58817D01*
X48958Y-58805D01*
X48996Y-58801D01*
X49034Y-58804D01*
X49072Y-58814D01*
X49107Y-58832D01*
X49137Y-58856D01*
X49163Y-58885D01*
X49182Y-58919D01*
X49195Y-58956D01*
X49199Y-58995D01*
X49200Y-59000D01*
X48800Y-58800D02*
X49200Y-59200D01*
X49200Y-58800D02*
X48800Y-59200D01*
X50200Y-58000D02*
X50196Y-58038D01*
X50184Y-58076D01*
X50166Y-58110D01*
X50141Y-58140D01*
X50111Y-58165D01*
X50077Y-58184D01*
X50040Y-58195D01*
X50001Y-58199D01*
X49963Y-58196D01*
X49926Y-58185D01*
X49891Y-58167D01*
X49861Y-58142D01*
X49835Y-58112D01*
X49817Y-58078D01*
X49805Y-58041D01*
X49801Y-58002D01*
X49804Y-57964D01*
X49815Y-57927D01*
X49832Y-57892D01*
X49857Y-57862D01*
X49886Y-57836D01*
X49920Y-57817D01*
X49958Y-57805D01*
X49996Y-57801D01*
X50034Y-57804D01*
X50072Y-57814D01*
X50107Y-57832D01*
X50137Y-57856D01*
X50163Y-57885D01*
X50182Y-57919D01*
X50195Y-57956D01*
X50199Y-57995D01*
X50200Y-58000D01*
X49800Y-57800D02*
X50200Y-58200D01*
X50200Y-57800D02*
X49800Y-58200D01*
X50200Y-59000D02*
X50196Y-59038D01*
X50184Y-59076D01*
X50166Y-59110D01*
X50141Y-59140D01*
X50111Y-59165D01*
X50077Y-59184D01*
X50040Y-59195D01*
X50001Y-59199D01*
X49963Y-59196D01*
X49926Y-59185D01*
X49891Y-59167D01*
X49861Y-59142D01*
X49835Y-59112D01*
X49817Y-59078D01*
X49805Y-59041D01*
X49801Y-59002D01*
X49804Y-58964D01*
X49815Y-58927D01*
X49832Y-58892D01*
X49857Y-58862D01*
X49886Y-58836D01*
X49920Y-58817D01*
X49958Y-58805D01*
X49996Y-58801D01*
X50034Y-58804D01*
X50072Y-58814D01*
X50107Y-58832D01*
X50137Y-58856D01*
X50163Y-58885D01*
X50182Y-58919D01*
X50195Y-58956D01*
X50199Y-58995D01*
X50200Y-59000D01*
X49800Y-58800D02*
X50200Y-59200D01*
X50200Y-58800D02*
X49800Y-59200D01*
X51200Y-58000D02*
X51196Y-58038D01*
X51184Y-58076D01*
X51166Y-58110D01*
X51141Y-58140D01*
X51111Y-58165D01*
X51077Y-58184D01*
X51040Y-58195D01*
X51001Y-58199D01*
X50963Y-58196D01*
X50926Y-58185D01*
X50891Y-58167D01*
X50861Y-58142D01*
X50835Y-58112D01*
X50817Y-58078D01*
X50805Y-58041D01*
X50801Y-58002D01*
X50804Y-57964D01*
X50815Y-57927D01*
X50832Y-57892D01*
X50857Y-57862D01*
X50886Y-57836D01*
X50920Y-57817D01*
X50958Y-57805D01*
X50996Y-57801D01*
X51034Y-57804D01*
X51072Y-57814D01*
X51107Y-57832D01*
X51137Y-57856D01*
X51163Y-57885D01*
X51182Y-57919D01*
X51195Y-57956D01*
X51199Y-57995D01*
X51200Y-58000D01*
X50800Y-57800D02*
X51200Y-58200D01*
X51200Y-57800D02*
X50800Y-58200D01*
X51200Y-59000D02*
X51196Y-59038D01*
X51184Y-59076D01*
X51166Y-59110D01*
X51141Y-59140D01*
X51111Y-59165D01*
X51077Y-59184D01*
X51040Y-59195D01*
X51001Y-59199D01*
X50963Y-59196D01*
X50926Y-59185D01*
X50891Y-59167D01*
X50861Y-59142D01*
X50835Y-59112D01*
X50817Y-59078D01*
X50805Y-59041D01*
X50801Y-59002D01*
X50804Y-58964D01*
X50815Y-58927D01*
X50832Y-58892D01*
X50857Y-58862D01*
X50886Y-58836D01*
X50920Y-58817D01*
X50958Y-58805D01*
X50996Y-58801D01*
X51034Y-58804D01*
X51072Y-58814D01*
X51107Y-58832D01*
X51137Y-58856D01*
X51163Y-58885D01*
X51182Y-58919D01*
X51195Y-58956D01*
X51199Y-58995D01*
X51200Y-59000D01*
X50800Y-58800D02*
X51200Y-59200D01*
X51200Y-58800D02*
X50800Y-59200D01*
X61289Y-54070D02*
X61285Y-54108D01*
X61273Y-54146D01*
X61255Y-54180D01*
X61230Y-54210D01*
X61200Y-54235D01*
X61166Y-54254D01*
X61129Y-54265D01*
X61090Y-54269D01*
X61052Y-54266D01*
X61015Y-54255D01*
X60980Y-54237D01*
X60950Y-54212D01*
X60924Y-54182D01*
X60906Y-54148D01*
X60894Y-54111D01*
X60890Y-54072D01*
X60893Y-54034D01*
X60904Y-53997D01*
X60921Y-53962D01*
X60946Y-53932D01*
X60975Y-53906D01*
X61009Y-53887D01*
X61047Y-53875D01*
X61085Y-53871D01*
X61123Y-53874D01*
X61161Y-53884D01*
X61196Y-53902D01*
X61226Y-53926D01*
X61252Y-53955D01*
X61271Y-53989D01*
X61284Y-54026D01*
X61288Y-54065D01*
X61289Y-54070D01*
X60889Y-53870D02*
X61289Y-54270D01*
X61289Y-53870D02*
X60889Y-54270D01*
X61289Y-56630D02*
X61285Y-56668D01*
X61273Y-56706D01*
X61255Y-56740D01*
X61230Y-56770D01*
X61200Y-56795D01*
X61166Y-56814D01*
X61129Y-56825D01*
X61090Y-56829D01*
X61052Y-56826D01*
X61015Y-56815D01*
X60980Y-56797D01*
X60950Y-56772D01*
X60924Y-56742D01*
X60906Y-56708D01*
X60894Y-56671D01*
X60890Y-56632D01*
X60893Y-56594D01*
X60904Y-56557D01*
X60921Y-56522D01*
X60946Y-56492D01*
X60975Y-56466D01*
X61009Y-56447D01*
X61047Y-56435D01*
X61085Y-56431D01*
X61123Y-56434D01*
X61161Y-56444D01*
X61196Y-56462D01*
X61226Y-56486D01*
X61252Y-56515D01*
X61271Y-56549D01*
X61284Y-56586D01*
X61288Y-56625D01*
X61289Y-56630D01*
X60889Y-56430D02*
X61289Y-56830D01*
X61289Y-56430D02*
X60889Y-56830D01*
X63061Y-54070D02*
X63057Y-54108D01*
X63045Y-54146D01*
X63027Y-54180D01*
X63002Y-54210D01*
X62972Y-54235D01*
X62938Y-54254D01*
X62901Y-54265D01*
X62862Y-54269D01*
X62824Y-54266D01*
X62787Y-54255D01*
X62752Y-54237D01*
X62722Y-54212D01*
X62696Y-54182D01*
X62678Y-54148D01*
X62666Y-54111D01*
X62662Y-54072D01*
X62665Y-54034D01*
X62676Y-53997D01*
X62693Y-53962D01*
X62718Y-53932D01*
X62747Y-53906D01*
X62781Y-53887D01*
X62819Y-53875D01*
X62857Y-53871D01*
X62895Y-53874D01*
X62933Y-53884D01*
X62968Y-53902D01*
X62998Y-53926D01*
X63024Y-53955D01*
X63043Y-53989D01*
X63056Y-54026D01*
X63060Y-54065D01*
X63061Y-54070D01*
X62661Y-53870D02*
X63061Y-54270D01*
X63061Y-53870D02*
X62661Y-54270D01*
X63061Y-56630D02*
X63057Y-56668D01*
X63045Y-56706D01*
X63027Y-56740D01*
X63002Y-56770D01*
X62972Y-56795D01*
X62938Y-56814D01*
X62901Y-56825D01*
X62862Y-56829D01*
X62824Y-56826D01*
X62787Y-56815D01*
X62752Y-56797D01*
X62722Y-56772D01*
X62696Y-56742D01*
X62678Y-56708D01*
X62666Y-56671D01*
X62662Y-56632D01*
X62665Y-56594D01*
X62676Y-56557D01*
X62693Y-56522D01*
X62718Y-56492D01*
X62747Y-56466D01*
X62781Y-56447D01*
X62819Y-56435D01*
X62857Y-56431D01*
X62895Y-56434D01*
X62933Y-56444D01*
X62968Y-56462D01*
X62998Y-56486D01*
X63024Y-56515D01*
X63043Y-56549D01*
X63056Y-56586D01*
X63060Y-56625D01*
X63061Y-56630D01*
X62661Y-56430D02*
X63061Y-56830D01*
X63061Y-56430D02*
X62661Y-56830D01*
X64450Y-57600D02*
X64446Y-57638D01*
X64434Y-57676D01*
X64416Y-57710D01*
X64391Y-57740D01*
X64361Y-57765D01*
X64327Y-57784D01*
X64290Y-57795D01*
X64251Y-57799D01*
X64213Y-57796D01*
X64176Y-57785D01*
X64141Y-57767D01*
X64111Y-57742D01*
X64085Y-57712D01*
X64067Y-57678D01*
X64055Y-57641D01*
X64051Y-57602D01*
X64054Y-57564D01*
X64065Y-57527D01*
X64082Y-57492D01*
X64107Y-57462D01*
X64136Y-57436D01*
X64170Y-57417D01*
X64208Y-57405D01*
X64246Y-57401D01*
X64284Y-57404D01*
X64322Y-57414D01*
X64357Y-57432D01*
X64387Y-57456D01*
X64413Y-57485D01*
X64432Y-57519D01*
X64445Y-57556D01*
X64449Y-57595D01*
X64450Y-57600D01*
X64050Y-57400D02*
X64450Y-57800D01*
X64450Y-57400D02*
X64050Y-57800D01*
X65450Y-57600D02*
X65446Y-57638D01*
X65434Y-57676D01*
X65416Y-57710D01*
X65391Y-57740D01*
X65361Y-57765D01*
X65327Y-57784D01*
X65290Y-57795D01*
X65251Y-57799D01*
X65213Y-57796D01*
X65176Y-57785D01*
X65141Y-57767D01*
X65111Y-57742D01*
X65085Y-57712D01*
X65067Y-57678D01*
X65055Y-57641D01*
X65051Y-57602D01*
X65054Y-57564D01*
X65065Y-57527D01*
X65082Y-57492D01*
X65107Y-57462D01*
X65136Y-57436D01*
X65170Y-57417D01*
X65208Y-57405D01*
X65246Y-57401D01*
X65284Y-57404D01*
X65322Y-57414D01*
X65357Y-57432D01*
X65387Y-57456D01*
X65413Y-57485D01*
X65432Y-57519D01*
X65445Y-57556D01*
X65449Y-57595D01*
X65450Y-57600D01*
X65050Y-57400D02*
X65450Y-57800D01*
X65450Y-57400D02*
X65050Y-57800D01*
X67450Y-57600D02*
X67446Y-57638D01*
X67434Y-57676D01*
X67416Y-57710D01*
X67391Y-57740D01*
X67361Y-57765D01*
X67327Y-57784D01*
X67290Y-57795D01*
X67251Y-57799D01*
X67213Y-57796D01*
X67176Y-57785D01*
X67141Y-57767D01*
X67111Y-57742D01*
X67085Y-57712D01*
X67067Y-57678D01*
X67055Y-57641D01*
X67051Y-57602D01*
X67054Y-57564D01*
X67065Y-57527D01*
X67082Y-57492D01*
X67107Y-57462D01*
X67136Y-57436D01*
X67170Y-57417D01*
X67208Y-57405D01*
X67246Y-57401D01*
X67284Y-57404D01*
X67322Y-57414D01*
X67357Y-57432D01*
X67387Y-57456D01*
X67413Y-57485D01*
X67432Y-57519D01*
X67445Y-57556D01*
X67449Y-57595D01*
X67450Y-57600D01*
X67050Y-57400D02*
X67450Y-57800D01*
X67450Y-57400D02*
X67050Y-57800D01*
X68450Y-57600D02*
X68446Y-57638D01*
X68434Y-57676D01*
X68416Y-57710D01*
X68391Y-57740D01*
X68361Y-57765D01*
X68327Y-57784D01*
X68290Y-57795D01*
X68251Y-57799D01*
X68213Y-57796D01*
X68176Y-57785D01*
X68141Y-57767D01*
X68111Y-57742D01*
X68085Y-57712D01*
X68067Y-57678D01*
X68055Y-57641D01*
X68051Y-57602D01*
X68054Y-57564D01*
X68065Y-57527D01*
X68082Y-57492D01*
X68107Y-57462D01*
X68136Y-57436D01*
X68170Y-57417D01*
X68208Y-57405D01*
X68246Y-57401D01*
X68284Y-57404D01*
X68322Y-57414D01*
X68357Y-57432D01*
X68387Y-57456D01*
X68413Y-57485D01*
X68432Y-57519D01*
X68445Y-57556D01*
X68449Y-57595D01*
X68450Y-57600D01*
X68050Y-57400D02*
X68450Y-57800D01*
X68450Y-57400D02*
X68050Y-57800D01*
X70100Y-57850D02*
X70096Y-57888D01*
X70084Y-57926D01*
X70066Y-57960D01*
X70041Y-57990D01*
X70011Y-58015D01*
X69977Y-58034D01*
X69940Y-58045D01*
X69901Y-58049D01*
X69863Y-58046D01*
X69826Y-58035D01*
X69791Y-58017D01*
X69761Y-57992D01*
X69735Y-57962D01*
X69717Y-57928D01*
X69705Y-57891D01*
X69701Y-57852D01*
X69704Y-57814D01*
X69715Y-57777D01*
X69732Y-57742D01*
X69757Y-57712D01*
X69786Y-57686D01*
X69820Y-57667D01*
X69858Y-57655D01*
X69896Y-57651D01*
X69934Y-57654D01*
X69972Y-57664D01*
X70007Y-57682D01*
X70037Y-57706D01*
X70063Y-57735D01*
X70082Y-57769D01*
X70095Y-57806D01*
X70099Y-57845D01*
X70100Y-57850D01*
X69700Y-57650D02*
X70100Y-58050D01*
X70100Y-57650D02*
X69700Y-58050D01*
X70100Y-58850D02*
X70096Y-58888D01*
X70084Y-58926D01*
X70066Y-58960D01*
X70041Y-58990D01*
X70011Y-59015D01*
X69977Y-59034D01*
X69940Y-59045D01*
X69901Y-59049D01*
X69863Y-59046D01*
X69826Y-59035D01*
X69791Y-59017D01*
X69761Y-58992D01*
X69735Y-58962D01*
X69717Y-58928D01*
X69705Y-58891D01*
X69701Y-58852D01*
X69704Y-58814D01*
X69715Y-58777D01*
X69732Y-58742D01*
X69757Y-58712D01*
X69786Y-58686D01*
X69820Y-58667D01*
X69858Y-58655D01*
X69896Y-58651D01*
X69934Y-58654D01*
X69972Y-58664D01*
X70007Y-58682D01*
X70037Y-58706D01*
X70063Y-58735D01*
X70082Y-58769D01*
X70095Y-58806D01*
X70099Y-58845D01*
X70100Y-58850D01*
X69700Y-58650D02*
X70100Y-59050D01*
X70100Y-58650D02*
X69700Y-59050D01*
X72050Y-57600D02*
X72046Y-57638D01*
X72034Y-57676D01*
X72016Y-57710D01*
X71991Y-57740D01*
X71961Y-57765D01*
X71927Y-57784D01*
X71890Y-57795D01*
X71851Y-57799D01*
X71813Y-57796D01*
X71776Y-57785D01*
X71741Y-57767D01*
X71711Y-57742D01*
X71685Y-57712D01*
X71667Y-57678D01*
X71655Y-57641D01*
X71651Y-57602D01*
X71654Y-57564D01*
X71665Y-57527D01*
X71682Y-57492D01*
X71707Y-57462D01*
X71736Y-57436D01*
X71770Y-57417D01*
X71808Y-57405D01*
X71846Y-57401D01*
X71884Y-57404D01*
X71922Y-57414D01*
X71957Y-57432D01*
X71987Y-57456D01*
X72013Y-57485D01*
X72032Y-57519D01*
X72045Y-57556D01*
X72049Y-57595D01*
X72050Y-57600D01*
X71650Y-57400D02*
X72050Y-57800D01*
X72050Y-57400D02*
X71650Y-57800D01*
X72050Y-58600D02*
X72046Y-58638D01*
X72034Y-58676D01*
X72016Y-58710D01*
X71991Y-58740D01*
X71961Y-58765D01*
X71927Y-58784D01*
X71890Y-58795D01*
X71851Y-58799D01*
X71813Y-58796D01*
X71776Y-58785D01*
X71741Y-58767D01*
X71711Y-58742D01*
X71685Y-58712D01*
X71667Y-58678D01*
X71655Y-58641D01*
X71651Y-58602D01*
X71654Y-58564D01*
X71665Y-58527D01*
X71682Y-58492D01*
X71707Y-58462D01*
X71736Y-58436D01*
X71770Y-58417D01*
X71808Y-58405D01*
X71846Y-58401D01*
X71884Y-58404D01*
X71922Y-58414D01*
X71957Y-58432D01*
X71987Y-58456D01*
X72013Y-58485D01*
X72032Y-58519D01*
X72045Y-58556D01*
X72049Y-58595D01*
X72050Y-58600D01*
X71650Y-58400D02*
X72050Y-58800D01*
X72050Y-58400D02*
X71650Y-58800D01*
X73050Y-54600D02*
X73046Y-54638D01*
X73034Y-54676D01*
X73016Y-54710D01*
X72991Y-54740D01*
X72961Y-54765D01*
X72927Y-54784D01*
X72890Y-54795D01*
X72851Y-54799D01*
X72813Y-54796D01*
X72776Y-54785D01*
X72741Y-54767D01*
X72711Y-54742D01*
X72685Y-54712D01*
X72667Y-54678D01*
X72655Y-54641D01*
X72651Y-54602D01*
X72654Y-54564D01*
X72665Y-54527D01*
X72682Y-54492D01*
X72707Y-54462D01*
X72736Y-54436D01*
X72770Y-54417D01*
X72808Y-54405D01*
X72846Y-54401D01*
X72884Y-54404D01*
X72922Y-54414D01*
X72957Y-54432D01*
X72987Y-54456D01*
X73013Y-54485D01*
X73032Y-54519D01*
X73045Y-54556D01*
X73049Y-54595D01*
X73050Y-54600D01*
X72650Y-54400D02*
X73050Y-54800D01*
X73050Y-54400D02*
X72650Y-54800D01*
X73050Y-57600D02*
X73046Y-57638D01*
X73034Y-57676D01*
X73016Y-57710D01*
X72991Y-57740D01*
X72961Y-57765D01*
X72927Y-57784D01*
X72890Y-57795D01*
X72851Y-57799D01*
X72813Y-57796D01*
X72776Y-57785D01*
X72741Y-57767D01*
X72711Y-57742D01*
X72685Y-57712D01*
X72667Y-57678D01*
X72655Y-57641D01*
X72651Y-57602D01*
X72654Y-57564D01*
X72665Y-57527D01*
X72682Y-57492D01*
X72707Y-57462D01*
X72736Y-57436D01*
X72770Y-57417D01*
X72808Y-57405D01*
X72846Y-57401D01*
X72884Y-57404D01*
X72922Y-57414D01*
X72957Y-57432D01*
X72987Y-57456D01*
X73013Y-57485D01*
X73032Y-57519D01*
X73045Y-57556D01*
X73049Y-57595D01*
X73050Y-57600D01*
X72650Y-57400D02*
X73050Y-57800D01*
X73050Y-57400D02*
X72650Y-57800D01*
X73050Y-58600D02*
X73046Y-58638D01*
X73034Y-58676D01*
X73016Y-58710D01*
X72991Y-58740D01*
X72961Y-58765D01*
X72927Y-58784D01*
X72890Y-58795D01*
X72851Y-58799D01*
X72813Y-58796D01*
X72776Y-58785D01*
X72741Y-58767D01*
X72711Y-58742D01*
X72685Y-58712D01*
X72667Y-58678D01*
X72655Y-58641D01*
X72651Y-58602D01*
X72654Y-58564D01*
X72665Y-58527D01*
X72682Y-58492D01*
X72707Y-58462D01*
X72736Y-58436D01*
X72770Y-58417D01*
X72808Y-58405D01*
X72846Y-58401D01*
X72884Y-58404D01*
X72922Y-58414D01*
X72957Y-58432D01*
X72987Y-58456D01*
X73013Y-58485D01*
X73032Y-58519D01*
X73045Y-58556D01*
X73049Y-58595D01*
X73050Y-58600D01*
X72650Y-58400D02*
X73050Y-58800D01*
X73050Y-58400D02*
X72650Y-58800D01*
X74050Y-57600D02*
X74046Y-57638D01*
X74034Y-57676D01*
X74016Y-57710D01*
X73991Y-57740D01*
X73961Y-57765D01*
X73927Y-57784D01*
X73890Y-57795D01*
X73851Y-57799D01*
X73813Y-57796D01*
X73776Y-57785D01*
X73741Y-57767D01*
X73711Y-57742D01*
X73685Y-57712D01*
X73667Y-57678D01*
X73655Y-57641D01*
X73651Y-57602D01*
X73654Y-57564D01*
X73665Y-57527D01*
X73682Y-57492D01*
X73707Y-57462D01*
X73736Y-57436D01*
X73770Y-57417D01*
X73808Y-57405D01*
X73846Y-57401D01*
X73884Y-57404D01*
X73922Y-57414D01*
X73957Y-57432D01*
X73987Y-57456D01*
X74013Y-57485D01*
X74032Y-57519D01*
X74045Y-57556D01*
X74049Y-57595D01*
X74050Y-57600D01*
X73650Y-57400D02*
X74050Y-57800D01*
X74050Y-57400D02*
X73650Y-57800D01*
X74050Y-58600D02*
X74046Y-58638D01*
X74034Y-58676D01*
X74016Y-58710D01*
X73991Y-58740D01*
X73961Y-58765D01*
X73927Y-58784D01*
X73890Y-58795D01*
X73851Y-58799D01*
X73813Y-58796D01*
X73776Y-58785D01*
X73741Y-58767D01*
X73711Y-58742D01*
X73685Y-58712D01*
X73667Y-58678D01*
X73655Y-58641D01*
X73651Y-58602D01*
X73654Y-58564D01*
X73665Y-58527D01*
X73682Y-58492D01*
X73707Y-58462D01*
X73736Y-58436D01*
X73770Y-58417D01*
X73808Y-58405D01*
X73846Y-58401D01*
X73884Y-58404D01*
X73922Y-58414D01*
X73957Y-58432D01*
X73987Y-58456D01*
X74013Y-58485D01*
X74032Y-58519D01*
X74045Y-58556D01*
X74049Y-58595D01*
X74050Y-58600D01*
X73650Y-58400D02*
X74050Y-58800D01*
X74050Y-58400D02*
X73650Y-58800D01*
X20855Y-57890D02*
X20850Y-57938D01*
X20836Y-57985D01*
X20813Y-58028D01*
X20782Y-58066D01*
X20744Y-58097D01*
X20701Y-58120D01*
X20655Y-58134D01*
X20606Y-58139D01*
X20559Y-58135D01*
X20512Y-58121D01*
X20469Y-58099D01*
X20431Y-58068D01*
X20399Y-58031D01*
X20376Y-57988D01*
X20361Y-57941D01*
X20356Y-57893D01*
X20360Y-57845D01*
X20373Y-57798D01*
X20395Y-57755D01*
X20426Y-57717D01*
X20463Y-57685D01*
X20505Y-57661D01*
X20552Y-57646D01*
X20600Y-57641D01*
X20648Y-57644D01*
X20695Y-57657D01*
X20738Y-57679D01*
X20777Y-57709D01*
X20809Y-57746D01*
X20833Y-57789D01*
X20848Y-57835D01*
X20854Y-57884D01*
X20855Y-57890D01*
X20355Y-57890D02*
X20855Y-57890D01*
X23605Y-57890D02*
X23600Y-57938D01*
X23586Y-57985D01*
X23563Y-58028D01*
X23532Y-58066D01*
X23494Y-58097D01*
X23451Y-58120D01*
X23405Y-58134D01*
X23356Y-58139D01*
X23309Y-58135D01*
X23262Y-58121D01*
X23219Y-58099D01*
X23181Y-58068D01*
X23149Y-58031D01*
X23126Y-57988D01*
X23111Y-57941D01*
X23106Y-57893D01*
X23110Y-57845D01*
X23123Y-57798D01*
X23145Y-57755D01*
X23176Y-57717D01*
X23213Y-57685D01*
X23255Y-57661D01*
X23302Y-57646D01*
X23350Y-57641D01*
X23398Y-57644D01*
X23445Y-57657D01*
X23488Y-57679D01*
X23527Y-57709D01*
X23559Y-57746D01*
X23583Y-57789D01*
X23598Y-57835D01*
X23604Y-57884D01*
X23605Y-57890D01*
X23105Y-57890D02*
X23605Y-57890D01*
X25855Y-57890D02*
X25850Y-57938D01*
X25836Y-57985D01*
X25813Y-58028D01*
X25782Y-58066D01*
X25744Y-58097D01*
X25701Y-58120D01*
X25655Y-58134D01*
X25606Y-58139D01*
X25559Y-58135D01*
X25512Y-58121D01*
X25469Y-58099D01*
X25431Y-58068D01*
X25399Y-58031D01*
X25376Y-57988D01*
X25361Y-57941D01*
X25356Y-57893D01*
X25360Y-57845D01*
X25373Y-57798D01*
X25395Y-57755D01*
X25426Y-57717D01*
X25463Y-57685D01*
X25505Y-57661D01*
X25552Y-57646D01*
X25600Y-57641D01*
X25648Y-57644D01*
X25695Y-57657D01*
X25738Y-57679D01*
X25777Y-57709D01*
X25809Y-57746D01*
X25833Y-57789D01*
X25848Y-57835D01*
X25854Y-57884D01*
X25855Y-57890D01*
X25355Y-57890D02*
X25855Y-57890D01*
X28605Y-57890D02*
X28600Y-57938D01*
X28586Y-57985D01*
X28563Y-58028D01*
X28532Y-58066D01*
X28494Y-58097D01*
X28451Y-58120D01*
X28405Y-58134D01*
X28356Y-58139D01*
X28309Y-58135D01*
X28262Y-58121D01*
X28219Y-58099D01*
X28181Y-58068D01*
X28149Y-58031D01*
X28126Y-57988D01*
X28111Y-57941D01*
X28106Y-57893D01*
X28110Y-57845D01*
X28123Y-57798D01*
X28145Y-57755D01*
X28176Y-57717D01*
X28213Y-57685D01*
X28255Y-57661D01*
X28302Y-57646D01*
X28350Y-57641D01*
X28398Y-57644D01*
X28445Y-57657D01*
X28488Y-57679D01*
X28527Y-57709D01*
X28559Y-57746D01*
X28583Y-57789D01*
X28598Y-57835D01*
X28604Y-57884D01*
X28605Y-57890D01*
X28105Y-57890D02*
X28605Y-57890D01*
X16850Y-57200D02*
X16844Y-57258D01*
X16827Y-57314D01*
X16799Y-57366D01*
X16762Y-57411D01*
X16717Y-57448D01*
X16666Y-57476D01*
X16610Y-57493D01*
X16552Y-57499D01*
X16494Y-57494D01*
X16438Y-57478D01*
X16386Y-57451D01*
X16341Y-57414D01*
X16303Y-57369D01*
X16275Y-57318D01*
X16257Y-57262D01*
X16251Y-57204D01*
X16255Y-57146D01*
X16272Y-57090D01*
X16298Y-57038D01*
X16335Y-56992D01*
X16379Y-56954D01*
X16430Y-56926D01*
X16486Y-56907D01*
X16544Y-56901D01*
X16602Y-56905D01*
X16658Y-56921D01*
X16710Y-56947D01*
X16756Y-56983D01*
X16795Y-57028D01*
X16824Y-57078D01*
X16842Y-57134D01*
X16849Y-57192D01*
X16850Y-57200D01*
X16550Y-56900D02*
X16550Y-57500D01*
X18850Y-57200D02*
X18844Y-57258D01*
X18827Y-57314D01*
X18799Y-57366D01*
X18762Y-57411D01*
X18717Y-57448D01*
X18666Y-57476D01*
X18610Y-57493D01*
X18552Y-57499D01*
X18494Y-57494D01*
X18438Y-57478D01*
X18386Y-57451D01*
X18341Y-57414D01*
X18303Y-57369D01*
X18275Y-57318D01*
X18257Y-57262D01*
X18251Y-57204D01*
X18255Y-57146D01*
X18272Y-57090D01*
X18298Y-57038D01*
X18335Y-56992D01*
X18379Y-56954D01*
X18430Y-56926D01*
X18486Y-56907D01*
X18544Y-56901D01*
X18602Y-56905D01*
X18658Y-56921D01*
X18710Y-56947D01*
X18756Y-56983D01*
X18795Y-57028D01*
X18824Y-57078D01*
X18842Y-57134D01*
X18849Y-57192D01*
X18850Y-57200D01*
X18550Y-56900D02*
X18550Y-57500D01*
X33924Y-52424D02*
X33924Y-51576D01*
X33076Y-51576D01*
X33076Y-52424D01*
X33924Y-52424D01*
X33924Y-57424D02*
X33924Y-56576D01*
X33076Y-56576D01*
X33076Y-57424D01*
X33924Y-57424D01*
X56924Y-15924D02*
X56924Y-15076D01*
X56076Y-15076D01*
X56076Y-15924D01*
X56924Y-15924D01*
X56924Y-20924D02*
X56924Y-20076D01*
X56076Y-20076D01*
X56076Y-20924D01*
X56924Y-20924D01*
G54D12*
X09038Y-65885D02*
X09038Y-65085D01*
X09229Y-65085D01*
X09343Y-65123D01*
X09419Y-65199D01*
X09458Y-65275D01*
X09496Y-65428D01*
X09496Y-65542D01*
X09458Y-65694D01*
X09419Y-65771D01*
X09343Y-65847D01*
X09229Y-65885D01*
X09038Y-65885D01*
X09838Y-65885D02*
X09838Y-65351D01*
X09838Y-65504D02*
X09877Y-65428D01*
X09915Y-65390D01*
X09991Y-65351D01*
X10067Y-65351D01*
X10333Y-65885D02*
X10333Y-65351D01*
X10333Y-65085D02*
X10295Y-65123D01*
X10333Y-65161D01*
X10372Y-65123D01*
X10333Y-65085D01*
X10333Y-65161D01*
X10829Y-65885D02*
X10753Y-65847D01*
X10714Y-65771D01*
X10714Y-65085D01*
X11248Y-65885D02*
X11172Y-65847D01*
X11133Y-65771D01*
X11133Y-65085D01*
X12162Y-65885D02*
X12162Y-65085D01*
X12429Y-65656D01*
X12696Y-65085D01*
X12696Y-65885D01*
X13419Y-65885D02*
X13419Y-65466D01*
X13381Y-65390D01*
X13305Y-65351D01*
X13153Y-65351D01*
X13076Y-65390D01*
X13419Y-65847D02*
X13343Y-65885D01*
X13153Y-65885D01*
X13076Y-65847D01*
X13038Y-65771D01*
X13038Y-65694D01*
X13076Y-65618D01*
X13153Y-65580D01*
X13343Y-65580D01*
X13419Y-65542D01*
X13800Y-65351D02*
X13800Y-66151D01*
X13800Y-65390D02*
X13877Y-65351D01*
X14029Y-65351D01*
X14105Y-65390D01*
X14143Y-65428D01*
X14181Y-65504D01*
X14181Y-65732D01*
X14143Y-65809D01*
X14105Y-65847D01*
X14029Y-65885D01*
X13877Y-65885D01*
X13800Y-65847D01*
X14524Y-65809D02*
X14563Y-65847D01*
X14524Y-65885D01*
X14486Y-65847D01*
X14524Y-65809D01*
X14524Y-65885D01*
X14524Y-65390D02*
X14563Y-65428D01*
X14524Y-65466D01*
X14486Y-65428D01*
X14524Y-65390D01*
X14524Y-65466D01*
X08398Y-67116D02*
X08648Y-67366D01*
X08648Y-67116D02*
X08398Y-67366D01*
X09191Y-66765D02*
X09267Y-66765D01*
X09343Y-66803D01*
X09381Y-66841D01*
X09419Y-66917D01*
X09458Y-67070D01*
X09458Y-67260D01*
X09419Y-67412D01*
X09381Y-67489D01*
X09343Y-67527D01*
X09267Y-67565D01*
X09191Y-67565D01*
X09115Y-67527D01*
X09077Y-67489D01*
X09038Y-67412D01*
X09000Y-67260D01*
X09000Y-67070D01*
X09038Y-66917D01*
X09077Y-66841D01*
X09115Y-66803D01*
X09191Y-66765D01*
X09800Y-67489D02*
X09839Y-67527D01*
X09800Y-67565D01*
X09762Y-67527D01*
X09800Y-67489D01*
X09800Y-67565D01*
X10334Y-66765D02*
X10410Y-66765D01*
X10486Y-66803D01*
X10524Y-66841D01*
X10562Y-66917D01*
X10601Y-67070D01*
X10601Y-67260D01*
X10562Y-67412D01*
X10524Y-67489D01*
X10486Y-67527D01*
X10410Y-67565D01*
X10334Y-67565D01*
X10258Y-67527D01*
X10220Y-67489D01*
X10181Y-67412D01*
X10143Y-67260D01*
X10143Y-67070D01*
X10181Y-66917D01*
X10220Y-66841D01*
X10258Y-66803D01*
X10334Y-66765D01*
X10905Y-66841D02*
X10943Y-66803D01*
X11020Y-66765D01*
X11210Y-66765D01*
X11286Y-66803D01*
X11324Y-66841D01*
X11363Y-66917D01*
X11363Y-66993D01*
X11324Y-67108D01*
X10867Y-67565D01*
X11363Y-67565D01*
X12086Y-66765D02*
X11705Y-66765D01*
X11667Y-67146D01*
X11705Y-67108D01*
X11782Y-67070D01*
X11972Y-67070D01*
X12048Y-67108D01*
X12086Y-67146D01*
X12125Y-67222D01*
X12125Y-67412D01*
X12086Y-67489D01*
X12048Y-67527D01*
X11972Y-67565D01*
X11782Y-67565D01*
X11705Y-67527D01*
X11667Y-67489D01*
X12429Y-66765D02*
X12429Y-66917D01*
X12734Y-66765D02*
X12734Y-66917D01*
X14259Y-66727D02*
X13573Y-67755D01*
X15288Y-66765D02*
X15364Y-66765D01*
X15440Y-66803D01*
X15478Y-66841D01*
X15516Y-66917D01*
X15555Y-67070D01*
X15555Y-67260D01*
X15516Y-67412D01*
X15478Y-67489D01*
X15440Y-67527D01*
X15364Y-67565D01*
X15288Y-67565D01*
X15212Y-67527D01*
X15174Y-67489D01*
X15135Y-67412D01*
X15097Y-67260D01*
X15097Y-67070D01*
X15135Y-66917D01*
X15174Y-66841D01*
X15212Y-66803D01*
X15288Y-66765D01*
X15897Y-67489D02*
X15936Y-67527D01*
X15897Y-67565D01*
X15859Y-67527D01*
X15897Y-67489D01*
X15897Y-67565D01*
X16621Y-66765D02*
X16469Y-66765D01*
X16393Y-66803D01*
X16355Y-66841D01*
X16278Y-66955D01*
X16240Y-67108D01*
X16240Y-67412D01*
X16278Y-67489D01*
X16317Y-67527D01*
X16393Y-67565D01*
X16545Y-67565D01*
X16621Y-67527D01*
X16659Y-67489D01*
X16698Y-67412D01*
X16698Y-67222D01*
X16659Y-67146D01*
X16621Y-67108D01*
X16545Y-67070D01*
X16393Y-67070D01*
X16317Y-67108D01*
X16278Y-67146D01*
X16240Y-67222D01*
X17383Y-67031D02*
X17383Y-67565D01*
X17193Y-66727D02*
X17002Y-67298D01*
X17498Y-67298D01*
X17802Y-67565D02*
X17802Y-67031D01*
X17802Y-67108D02*
X17841Y-67070D01*
X17917Y-67031D01*
X18031Y-67031D01*
X18107Y-67070D01*
X18145Y-67146D01*
X18145Y-67565D01*
X18145Y-67146D02*
X18183Y-67070D01*
X18260Y-67031D01*
X18374Y-67031D01*
X18450Y-67070D01*
X18488Y-67146D01*
X18488Y-67565D01*
X18869Y-67565D02*
X18869Y-67031D01*
X18869Y-67108D02*
X18908Y-67070D01*
X18984Y-67031D01*
X19098Y-67031D01*
X19174Y-67070D01*
X19212Y-67146D01*
X19212Y-67565D01*
X19212Y-67146D02*
X19250Y-67070D01*
X19327Y-67031D01*
X19441Y-67031D01*
X19517Y-67070D01*
X19555Y-67146D01*
X19555Y-67565D01*
X20775Y-67870D02*
X20737Y-67831D01*
X20661Y-67717D01*
X20623Y-67641D01*
X20585Y-67527D01*
X20546Y-67336D01*
X20546Y-67184D01*
X20585Y-66993D01*
X20623Y-66879D01*
X20661Y-66803D01*
X20737Y-66689D01*
X20775Y-66651D01*
X21499Y-67565D02*
X21041Y-67565D01*
X21270Y-67565D02*
X21270Y-66765D01*
X21194Y-66879D01*
X21118Y-66955D01*
X21041Y-66993D01*
X21994Y-66765D02*
X22070Y-66765D01*
X22146Y-66803D01*
X22184Y-66841D01*
X22222Y-66917D01*
X22261Y-67070D01*
X22261Y-67260D01*
X22222Y-67412D01*
X22184Y-67489D01*
X22146Y-67527D01*
X22070Y-67565D01*
X21994Y-67565D01*
X21918Y-67527D01*
X21880Y-67489D01*
X21841Y-67412D01*
X21803Y-67260D01*
X21803Y-67070D01*
X21841Y-66917D01*
X21880Y-66841D01*
X21918Y-66803D01*
X21994Y-66765D01*
X22984Y-66765D02*
X22603Y-66765D01*
X22565Y-67146D01*
X22603Y-67108D01*
X22680Y-67070D01*
X22870Y-67070D01*
X22946Y-67108D01*
X22984Y-67146D01*
X23023Y-67222D01*
X23023Y-67412D01*
X22984Y-67489D01*
X22946Y-67527D01*
X22870Y-67565D01*
X22680Y-67565D01*
X22603Y-67527D01*
X22565Y-67489D01*
X23975Y-67565D02*
X23975Y-66765D01*
X24318Y-67565D02*
X24318Y-67146D01*
X24280Y-67070D01*
X24204Y-67031D01*
X24090Y-67031D01*
X24014Y-67070D01*
X23975Y-67108D01*
X24814Y-67565D02*
X24738Y-67527D01*
X24699Y-67489D01*
X24661Y-67412D01*
X24661Y-67184D01*
X24699Y-67108D01*
X24738Y-67070D01*
X24814Y-67031D01*
X24928Y-67031D01*
X25004Y-67070D01*
X25042Y-67108D01*
X25080Y-67184D01*
X25080Y-67412D01*
X25042Y-67489D01*
X25004Y-67527D01*
X24928Y-67565D01*
X24814Y-67565D01*
X25538Y-67565D02*
X25462Y-67527D01*
X25423Y-67451D01*
X25423Y-66765D01*
X26147Y-67527D02*
X26071Y-67565D01*
X25919Y-67565D01*
X25842Y-67527D01*
X25804Y-67451D01*
X25804Y-67146D01*
X25842Y-67070D01*
X25919Y-67031D01*
X26071Y-67031D01*
X26147Y-67070D01*
X26185Y-67146D01*
X26185Y-67222D01*
X25804Y-67298D01*
X26490Y-67527D02*
X26567Y-67565D01*
X26719Y-67565D01*
X26795Y-67527D01*
X26833Y-67451D01*
X26833Y-67412D01*
X26795Y-67336D01*
X26719Y-67298D01*
X26605Y-67298D01*
X26528Y-67260D01*
X26490Y-67184D01*
X26490Y-67146D01*
X26528Y-67070D01*
X26605Y-67031D01*
X26719Y-67031D01*
X26795Y-67070D01*
X27100Y-67870D02*
X27138Y-67831D01*
X27215Y-67717D01*
X27253Y-67641D01*
X27291Y-67527D01*
X27329Y-67336D01*
X27329Y-67184D01*
X27291Y-66993D01*
X27253Y-66879D01*
X27215Y-66803D01*
X27138Y-66689D01*
X27100Y-66651D01*
G54D10*
X08648Y-68296D02*
X08644Y-68327D01*
X08635Y-68356D01*
X08621Y-68384D01*
X08601Y-68408D01*
X08577Y-68428D01*
X08550Y-68443D01*
X08520Y-68452D01*
X08489Y-68455D01*
X08459Y-68453D01*
X08429Y-68444D01*
X08401Y-68429D01*
X08377Y-68410D01*
X08356Y-68386D01*
X08341Y-68359D01*
X08332Y-68329D01*
X08329Y-68298D01*
X08331Y-68268D01*
X08340Y-68238D01*
X08354Y-68210D01*
X08373Y-68185D01*
X08397Y-68165D01*
X08424Y-68150D01*
X08454Y-68140D01*
X08485Y-68137D01*
X08515Y-68139D01*
X08545Y-68147D01*
X08573Y-68161D01*
X08598Y-68181D01*
X08618Y-68204D01*
X08634Y-68231D01*
X08644Y-68261D01*
X08647Y-68292D01*
X08648Y-68296D01*
G54D12*
X09191Y-67820D02*
X09267Y-67820D01*
X09343Y-67858D01*
X09381Y-67896D01*
X09419Y-67972D01*
X09458Y-68125D01*
X09458Y-68315D01*
X09419Y-68467D01*
X09381Y-68544D01*
X09343Y-68582D01*
X09267Y-68620D01*
X09191Y-68620D01*
X09115Y-68582D01*
X09077Y-68544D01*
X09038Y-68467D01*
X09000Y-68315D01*
X09000Y-68125D01*
X09038Y-67972D01*
X09077Y-67896D01*
X09115Y-67858D01*
X09191Y-67820D01*
X09800Y-68544D02*
X09839Y-68582D01*
X09800Y-68620D01*
X09762Y-68582D01*
X09800Y-68544D01*
X09800Y-68620D01*
X10334Y-67820D02*
X10410Y-67820D01*
X10486Y-67858D01*
X10524Y-67896D01*
X10562Y-67972D01*
X10601Y-68125D01*
X10601Y-68315D01*
X10562Y-68467D01*
X10524Y-68544D01*
X10486Y-68582D01*
X10410Y-68620D01*
X10334Y-68620D01*
X10258Y-68582D01*
X10220Y-68544D01*
X10181Y-68467D01*
X10143Y-68315D01*
X10143Y-68125D01*
X10181Y-67972D01*
X10220Y-67896D01*
X10258Y-67858D01*
X10334Y-67820D01*
X10867Y-67820D02*
X11363Y-67820D01*
X11096Y-68125D01*
X11210Y-68125D01*
X11286Y-68163D01*
X11324Y-68201D01*
X11363Y-68277D01*
X11363Y-68467D01*
X11324Y-68544D01*
X11286Y-68582D01*
X11210Y-68620D01*
X10982Y-68620D01*
X10905Y-68582D01*
X10867Y-68544D01*
X11667Y-67896D02*
X11705Y-67858D01*
X11782Y-67820D01*
X11972Y-67820D01*
X12048Y-67858D01*
X12086Y-67896D01*
X12125Y-67972D01*
X12125Y-68048D01*
X12086Y-68163D01*
X11629Y-68620D01*
X12125Y-68620D01*
X12429Y-67820D02*
X12429Y-67972D01*
X12734Y-67820D02*
X12734Y-67972D01*
X14259Y-67782D02*
X13573Y-68810D01*
X15288Y-67820D02*
X15364Y-67820D01*
X15440Y-67858D01*
X15478Y-67896D01*
X15516Y-67972D01*
X15555Y-68125D01*
X15555Y-68315D01*
X15516Y-68467D01*
X15478Y-68544D01*
X15440Y-68582D01*
X15364Y-68620D01*
X15288Y-68620D01*
X15212Y-68582D01*
X15174Y-68544D01*
X15135Y-68467D01*
X15097Y-68315D01*
X15097Y-68125D01*
X15135Y-67972D01*
X15174Y-67896D01*
X15212Y-67858D01*
X15288Y-67820D01*
X15897Y-68544D02*
X15936Y-68582D01*
X15897Y-68620D01*
X15859Y-68582D01*
X15897Y-68544D01*
X15897Y-68620D01*
X16393Y-68163D02*
X16317Y-68125D01*
X16278Y-68086D01*
X16240Y-68010D01*
X16240Y-67972D01*
X16278Y-67896D01*
X16317Y-67858D01*
X16393Y-67820D01*
X16545Y-67820D01*
X16621Y-67858D01*
X16659Y-67896D01*
X16698Y-67972D01*
X16698Y-68010D01*
X16659Y-68086D01*
X16621Y-68125D01*
X16545Y-68163D01*
X16393Y-68163D01*
X16317Y-68201D01*
X16278Y-68239D01*
X16240Y-68315D01*
X16240Y-68467D01*
X16278Y-68544D01*
X16317Y-68582D01*
X16393Y-68620D01*
X16545Y-68620D01*
X16621Y-68582D01*
X16659Y-68544D01*
X16698Y-68467D01*
X16698Y-68315D01*
X16659Y-68239D01*
X16621Y-68201D01*
X16545Y-68163D01*
X17460Y-68620D02*
X17002Y-68620D01*
X17231Y-68620D02*
X17231Y-67820D01*
X17155Y-67934D01*
X17079Y-68010D01*
X17002Y-68048D01*
X17802Y-68620D02*
X17802Y-68086D01*
X17802Y-68163D02*
X17841Y-68125D01*
X17917Y-68086D01*
X18031Y-68086D01*
X18107Y-68125D01*
X18145Y-68201D01*
X18145Y-68620D01*
X18145Y-68201D02*
X18183Y-68125D01*
X18260Y-68086D01*
X18374Y-68086D01*
X18450Y-68125D01*
X18488Y-68201D01*
X18488Y-68620D01*
X18869Y-68620D02*
X18869Y-68086D01*
X18869Y-68163D02*
X18908Y-68125D01*
X18984Y-68086D01*
X19098Y-68086D01*
X19174Y-68125D01*
X19212Y-68201D01*
X19212Y-68620D01*
X19212Y-68201D02*
X19250Y-68125D01*
X19327Y-68086D01*
X19441Y-68086D01*
X19517Y-68125D01*
X19555Y-68201D01*
X19555Y-68620D01*
X20775Y-68925D02*
X20737Y-68886D01*
X20661Y-68772D01*
X20623Y-68696D01*
X20585Y-68582D01*
X20546Y-68391D01*
X20546Y-68239D01*
X20585Y-68048D01*
X20623Y-67934D01*
X20661Y-67858D01*
X20737Y-67744D01*
X20775Y-67706D01*
X21003Y-67820D02*
X21537Y-67820D01*
X21194Y-68620D01*
X22451Y-68620D02*
X22451Y-67820D01*
X22794Y-68620D02*
X22794Y-68201D01*
X22756Y-68125D01*
X22680Y-68086D01*
X22566Y-68086D01*
X22490Y-68125D01*
X22451Y-68163D01*
X23290Y-68620D02*
X23214Y-68582D01*
X23175Y-68544D01*
X23137Y-68467D01*
X23137Y-68239D01*
X23175Y-68163D01*
X23214Y-68125D01*
X23290Y-68086D01*
X23404Y-68086D01*
X23480Y-68125D01*
X23518Y-68163D01*
X23556Y-68239D01*
X23556Y-68467D01*
X23518Y-68544D01*
X23480Y-68582D01*
X23404Y-68620D01*
X23290Y-68620D01*
X24014Y-68620D02*
X23938Y-68582D01*
X23899Y-68506D01*
X23899Y-67820D01*
X24623Y-68582D02*
X24547Y-68620D01*
X24395Y-68620D01*
X24318Y-68582D01*
X24280Y-68506D01*
X24280Y-68201D01*
X24318Y-68125D01*
X24395Y-68086D01*
X24547Y-68086D01*
X24623Y-68125D01*
X24661Y-68201D01*
X24661Y-68277D01*
X24280Y-68353D01*
X24966Y-68582D02*
X25043Y-68620D01*
X25195Y-68620D01*
X25271Y-68582D01*
X25309Y-68506D01*
X25309Y-68467D01*
X25271Y-68391D01*
X25195Y-68353D01*
X25081Y-68353D01*
X25004Y-68315D01*
X24966Y-68239D01*
X24966Y-68201D01*
X25004Y-68125D01*
X25081Y-68086D01*
X25195Y-68086D01*
X25271Y-68125D01*
X25576Y-68925D02*
X25614Y-68886D01*
X25691Y-68772D01*
X25729Y-68696D01*
X25767Y-68582D01*
X25805Y-68391D01*
X25805Y-68239D01*
X25767Y-68048D01*
X25729Y-67934D01*
X25691Y-67858D01*
X25614Y-67744D01*
X25576Y-67706D01*
X08473Y-69176D02*
X08473Y-69526D01*
X08648Y-69351D02*
X08298Y-69351D01*
X09191Y-68875D02*
X09267Y-68875D01*
X09343Y-68913D01*
X09381Y-68951D01*
X09419Y-69027D01*
X09458Y-69180D01*
X09458Y-69370D01*
X09419Y-69522D01*
X09381Y-69599D01*
X09343Y-69637D01*
X09267Y-69675D01*
X09191Y-69675D01*
X09115Y-69637D01*
X09077Y-69599D01*
X09038Y-69522D01*
X09000Y-69370D01*
X09000Y-69180D01*
X09038Y-69027D01*
X09077Y-68951D01*
X09115Y-68913D01*
X09191Y-68875D01*
X09800Y-69599D02*
X09839Y-69637D01*
X09800Y-69675D01*
X09762Y-69637D01*
X09800Y-69599D01*
X09800Y-69675D01*
X10334Y-68875D02*
X10410Y-68875D01*
X10486Y-68913D01*
X10524Y-68951D01*
X10562Y-69027D01*
X10601Y-69180D01*
X10601Y-69370D01*
X10562Y-69522D01*
X10524Y-69599D01*
X10486Y-69637D01*
X10410Y-69675D01*
X10334Y-69675D01*
X10258Y-69637D01*
X10220Y-69599D01*
X10181Y-69522D01*
X10143Y-69370D01*
X10143Y-69180D01*
X10181Y-69027D01*
X10220Y-68951D01*
X10258Y-68913D01*
X10334Y-68875D01*
X10867Y-68875D02*
X11363Y-68875D01*
X11096Y-69180D01*
X11210Y-69180D01*
X11286Y-69218D01*
X11324Y-69256D01*
X11363Y-69332D01*
X11363Y-69522D01*
X11324Y-69599D01*
X11286Y-69637D01*
X11210Y-69675D01*
X10982Y-69675D01*
X10905Y-69637D01*
X10867Y-69599D01*
X12086Y-68875D02*
X11705Y-68875D01*
X11667Y-69256D01*
X11705Y-69218D01*
X11782Y-69180D01*
X11972Y-69180D01*
X12048Y-69218D01*
X12086Y-69256D01*
X12125Y-69332D01*
X12125Y-69522D01*
X12086Y-69599D01*
X12048Y-69637D01*
X11972Y-69675D01*
X11782Y-69675D01*
X11705Y-69637D01*
X11667Y-69599D01*
X12429Y-68875D02*
X12429Y-69027D01*
X12734Y-68875D02*
X12734Y-69027D01*
X14259Y-68837D02*
X13573Y-69865D01*
X15288Y-68875D02*
X15364Y-68875D01*
X15440Y-68913D01*
X15478Y-68951D01*
X15516Y-69027D01*
X15555Y-69180D01*
X15555Y-69370D01*
X15516Y-69522D01*
X15478Y-69599D01*
X15440Y-69637D01*
X15364Y-69675D01*
X15288Y-69675D01*
X15212Y-69637D01*
X15174Y-69599D01*
X15135Y-69522D01*
X15097Y-69370D01*
X15097Y-69180D01*
X15135Y-69027D01*
X15174Y-68951D01*
X15212Y-68913D01*
X15288Y-68875D01*
X15897Y-69599D02*
X15936Y-69637D01*
X15897Y-69675D01*
X15859Y-69637D01*
X15897Y-69599D01*
X15897Y-69675D01*
X16393Y-69218D02*
X16317Y-69180D01*
X16278Y-69141D01*
X16240Y-69065D01*
X16240Y-69027D01*
X16278Y-68951D01*
X16317Y-68913D01*
X16393Y-68875D01*
X16545Y-68875D01*
X16621Y-68913D01*
X16659Y-68951D01*
X16698Y-69027D01*
X16698Y-69065D01*
X16659Y-69141D01*
X16621Y-69180D01*
X16545Y-69218D01*
X16393Y-69218D01*
X16317Y-69256D01*
X16278Y-69294D01*
X16240Y-69370D01*
X16240Y-69522D01*
X16278Y-69599D01*
X16317Y-69637D01*
X16393Y-69675D01*
X16545Y-69675D01*
X16621Y-69637D01*
X16659Y-69599D01*
X16698Y-69522D01*
X16698Y-69370D01*
X16659Y-69294D01*
X16621Y-69256D01*
X16545Y-69218D01*
X17079Y-69675D02*
X17231Y-69675D01*
X17307Y-69637D01*
X17345Y-69599D01*
X17421Y-69484D01*
X17460Y-69332D01*
X17460Y-69027D01*
X17421Y-68951D01*
X17383Y-68913D01*
X17307Y-68875D01*
X17155Y-68875D01*
X17079Y-68913D01*
X17040Y-68951D01*
X17002Y-69027D01*
X17002Y-69218D01*
X17040Y-69294D01*
X17079Y-69332D01*
X17155Y-69370D01*
X17307Y-69370D01*
X17383Y-69332D01*
X17421Y-69294D01*
X17460Y-69218D01*
X17802Y-69675D02*
X17802Y-69141D01*
X17802Y-69218D02*
X17841Y-69180D01*
X17917Y-69141D01*
X18031Y-69141D01*
X18107Y-69180D01*
X18145Y-69256D01*
X18145Y-69675D01*
X18145Y-69256D02*
X18183Y-69180D01*
X18260Y-69141D01*
X18374Y-69141D01*
X18450Y-69180D01*
X18488Y-69256D01*
X18488Y-69675D01*
X18869Y-69675D02*
X18869Y-69141D01*
X18869Y-69218D02*
X18908Y-69180D01*
X18984Y-69141D01*
X19098Y-69141D01*
X19174Y-69180D01*
X19212Y-69256D01*
X19212Y-69675D01*
X19212Y-69256D02*
X19250Y-69180D01*
X19327Y-69141D01*
X19441Y-69141D01*
X19517Y-69180D01*
X19555Y-69256D01*
X19555Y-69675D01*
X20775Y-69980D02*
X20737Y-69941D01*
X20661Y-69827D01*
X20623Y-69751D01*
X20585Y-69637D01*
X20546Y-69446D01*
X20546Y-69294D01*
X20585Y-69103D01*
X20623Y-68989D01*
X20661Y-68913D01*
X20737Y-68799D01*
X20775Y-68761D01*
X21041Y-68951D02*
X21079Y-68913D01*
X21156Y-68875D01*
X21346Y-68875D01*
X21422Y-68913D01*
X21460Y-68951D01*
X21499Y-69027D01*
X21499Y-69103D01*
X21460Y-69218D01*
X21003Y-69675D01*
X21499Y-69675D01*
X21956Y-69218D02*
X21880Y-69180D01*
X21841Y-69141D01*
X21803Y-69065D01*
X21803Y-69027D01*
X21841Y-68951D01*
X21880Y-68913D01*
X21956Y-68875D01*
X22108Y-68875D01*
X22184Y-68913D01*
X22222Y-68951D01*
X22261Y-69027D01*
X22261Y-69065D01*
X22222Y-69141D01*
X22184Y-69180D01*
X22108Y-69218D01*
X21956Y-69218D01*
X21880Y-69256D01*
X21841Y-69294D01*
X21803Y-69370D01*
X21803Y-69522D01*
X21841Y-69599D01*
X21880Y-69637D01*
X21956Y-69675D01*
X22108Y-69675D01*
X22184Y-69637D01*
X22222Y-69599D01*
X22261Y-69522D01*
X22261Y-69370D01*
X22222Y-69294D01*
X22184Y-69256D01*
X22108Y-69218D01*
X23213Y-69675D02*
X23213Y-68875D01*
X23556Y-69675D02*
X23556Y-69256D01*
X23518Y-69180D01*
X23442Y-69141D01*
X23328Y-69141D01*
X23252Y-69180D01*
X23213Y-69218D01*
X24052Y-69675D02*
X23976Y-69637D01*
X23937Y-69599D01*
X23899Y-69522D01*
X23899Y-69294D01*
X23937Y-69218D01*
X23976Y-69180D01*
X24052Y-69141D01*
X24166Y-69141D01*
X24242Y-69180D01*
X24280Y-69218D01*
X24318Y-69294D01*
X24318Y-69522D01*
X24280Y-69599D01*
X24242Y-69637D01*
X24166Y-69675D01*
X24052Y-69675D01*
X24776Y-69675D02*
X24700Y-69637D01*
X24661Y-69561D01*
X24661Y-68875D01*
X25385Y-69637D02*
X25309Y-69675D01*
X25157Y-69675D01*
X25080Y-69637D01*
X25042Y-69561D01*
X25042Y-69256D01*
X25080Y-69180D01*
X25157Y-69141D01*
X25309Y-69141D01*
X25385Y-69180D01*
X25423Y-69256D01*
X25423Y-69332D01*
X25042Y-69408D01*
X25728Y-69637D02*
X25805Y-69675D01*
X25957Y-69675D01*
X26033Y-69637D01*
X26071Y-69561D01*
X26071Y-69522D01*
X26033Y-69446D01*
X25957Y-69408D01*
X25843Y-69408D01*
X25766Y-69370D01*
X25728Y-69294D01*
X25728Y-69256D01*
X25766Y-69180D01*
X25843Y-69141D01*
X25957Y-69141D01*
X26033Y-69180D01*
X26338Y-69980D02*
X26376Y-69941D01*
X26453Y-69827D01*
X26491Y-69751D01*
X26529Y-69637D01*
X26567Y-69446D01*
X26567Y-69294D01*
X26529Y-69103D01*
X26491Y-68989D01*
X26453Y-68913D01*
X26376Y-68799D01*
X26338Y-68761D01*
G54D10*
X08648Y-70406D02*
X08644Y-70444D01*
X08632Y-70482D01*
X08614Y-70516D01*
X08589Y-70546D01*
X08559Y-70571D01*
X08525Y-70590D01*
X08488Y-70601D01*
X08449Y-70605D01*
X08411Y-70602D01*
X08374Y-70591D01*
X08339Y-70573D01*
X08309Y-70548D01*
X08283Y-70518D01*
X08265Y-70484D01*
X08253Y-70447D01*
X08249Y-70408D01*
X08252Y-70370D01*
X08263Y-70333D01*
X08280Y-70298D01*
X08305Y-70268D01*
X08334Y-70242D01*
X08368Y-70223D01*
X08406Y-70211D01*
X08444Y-70207D01*
X08482Y-70210D01*
X08520Y-70220D01*
X08555Y-70238D01*
X08585Y-70262D01*
X08611Y-70291D01*
X08630Y-70325D01*
X08643Y-70362D01*
X08647Y-70401D01*
X08648Y-70406D01*
X08248Y-70206D02*
X08648Y-70606D01*
X08648Y-70206D02*
X08248Y-70606D01*
G54D12*
X09191Y-69930D02*
X09267Y-69930D01*
X09343Y-69968D01*
X09381Y-70006D01*
X09419Y-70082D01*
X09458Y-70235D01*
X09458Y-70425D01*
X09419Y-70577D01*
X09381Y-70654D01*
X09343Y-70692D01*
X09267Y-70730D01*
X09191Y-70730D01*
X09115Y-70692D01*
X09077Y-70654D01*
X09038Y-70577D01*
X09000Y-70425D01*
X09000Y-70235D01*
X09038Y-70082D01*
X09077Y-70006D01*
X09115Y-69968D01*
X09191Y-69930D01*
X09800Y-70654D02*
X09839Y-70692D01*
X09800Y-70730D01*
X09762Y-70692D01*
X09800Y-70654D01*
X09800Y-70730D01*
X10334Y-69930D02*
X10410Y-69930D01*
X10486Y-69968D01*
X10524Y-70006D01*
X10562Y-70082D01*
X10601Y-70235D01*
X10601Y-70425D01*
X10562Y-70577D01*
X10524Y-70654D01*
X10486Y-70692D01*
X10410Y-70730D01*
X10334Y-70730D01*
X10258Y-70692D01*
X10220Y-70654D01*
X10181Y-70577D01*
X10143Y-70425D01*
X10143Y-70235D01*
X10181Y-70082D01*
X10220Y-70006D01*
X10258Y-69968D01*
X10334Y-69930D01*
X11286Y-70196D02*
X11286Y-70730D01*
X11096Y-69892D02*
X10905Y-70463D01*
X11401Y-70463D01*
X11858Y-69930D02*
X11934Y-69930D01*
X12010Y-69968D01*
X12048Y-70006D01*
X12086Y-70082D01*
X12125Y-70235D01*
X12125Y-70425D01*
X12086Y-70577D01*
X12048Y-70654D01*
X12010Y-70692D01*
X11934Y-70730D01*
X11858Y-70730D01*
X11782Y-70692D01*
X11744Y-70654D01*
X11705Y-70577D01*
X11667Y-70425D01*
X11667Y-70235D01*
X11705Y-70082D01*
X11744Y-70006D01*
X11782Y-69968D01*
X11858Y-69930D01*
X12429Y-69930D02*
X12429Y-70082D01*
X12734Y-69930D02*
X12734Y-70082D01*
X14259Y-69892D02*
X13573Y-70920D01*
X15555Y-70730D02*
X15097Y-70730D01*
X15326Y-70730D02*
X15326Y-69930D01*
X15250Y-70044D01*
X15174Y-70120D01*
X15097Y-70158D01*
X15897Y-70654D02*
X15936Y-70692D01*
X15897Y-70730D01*
X15859Y-70692D01*
X15897Y-70654D01*
X15897Y-70730D01*
X16431Y-69930D02*
X16507Y-69930D01*
X16583Y-69968D01*
X16621Y-70006D01*
X16659Y-70082D01*
X16698Y-70235D01*
X16698Y-70425D01*
X16659Y-70577D01*
X16621Y-70654D01*
X16583Y-70692D01*
X16507Y-70730D01*
X16431Y-70730D01*
X16355Y-70692D01*
X16317Y-70654D01*
X16278Y-70577D01*
X16240Y-70425D01*
X16240Y-70235D01*
X16278Y-70082D01*
X16317Y-70006D01*
X16355Y-69968D01*
X16431Y-69930D01*
X17002Y-70006D02*
X17040Y-69968D01*
X17117Y-69930D01*
X17307Y-69930D01*
X17383Y-69968D01*
X17421Y-70006D01*
X17460Y-70082D01*
X17460Y-70158D01*
X17421Y-70273D01*
X16964Y-70730D01*
X17460Y-70730D01*
X17802Y-70730D02*
X17802Y-70196D01*
X17802Y-70273D02*
X17841Y-70235D01*
X17917Y-70196D01*
X18031Y-70196D01*
X18107Y-70235D01*
X18145Y-70311D01*
X18145Y-70730D01*
X18145Y-70311D02*
X18183Y-70235D01*
X18260Y-70196D01*
X18374Y-70196D01*
X18450Y-70235D01*
X18488Y-70311D01*
X18488Y-70730D01*
X18869Y-70730D02*
X18869Y-70196D01*
X18869Y-70273D02*
X18908Y-70235D01*
X18984Y-70196D01*
X19098Y-70196D01*
X19174Y-70235D01*
X19212Y-70311D01*
X19212Y-70730D01*
X19212Y-70311D02*
X19250Y-70235D01*
X19327Y-70196D01*
X19441Y-70196D01*
X19517Y-70235D01*
X19555Y-70311D01*
X19555Y-70730D01*
X20775Y-71035D02*
X20737Y-70996D01*
X20661Y-70882D01*
X20623Y-70806D01*
X20585Y-70692D01*
X20546Y-70501D01*
X20546Y-70349D01*
X20585Y-70158D01*
X20623Y-70044D01*
X20661Y-69968D01*
X20737Y-69854D01*
X20775Y-69816D01*
X21003Y-69930D02*
X21537Y-69930D01*
X21194Y-70730D01*
X22184Y-70196D02*
X22184Y-70730D01*
X21994Y-69892D02*
X21803Y-70463D01*
X22299Y-70463D01*
X23213Y-70730D02*
X23213Y-69930D01*
X23556Y-70730D02*
X23556Y-70311D01*
X23518Y-70235D01*
X23442Y-70196D01*
X23328Y-70196D01*
X23252Y-70235D01*
X23213Y-70273D01*
X24052Y-70730D02*
X23976Y-70692D01*
X23937Y-70654D01*
X23899Y-70577D01*
X23899Y-70349D01*
X23937Y-70273D01*
X23976Y-70235D01*
X24052Y-70196D01*
X24166Y-70196D01*
X24242Y-70235D01*
X24280Y-70273D01*
X24318Y-70349D01*
X24318Y-70577D01*
X24280Y-70654D01*
X24242Y-70692D01*
X24166Y-70730D01*
X24052Y-70730D01*
X24776Y-70730D02*
X24700Y-70692D01*
X24661Y-70616D01*
X24661Y-69930D01*
X25385Y-70692D02*
X25309Y-70730D01*
X25157Y-70730D01*
X25080Y-70692D01*
X25042Y-70616D01*
X25042Y-70311D01*
X25080Y-70235D01*
X25157Y-70196D01*
X25309Y-70196D01*
X25385Y-70235D01*
X25423Y-70311D01*
X25423Y-70387D01*
X25042Y-70463D01*
X25728Y-70692D02*
X25805Y-70730D01*
X25957Y-70730D01*
X26033Y-70692D01*
X26071Y-70616D01*
X26071Y-70577D01*
X26033Y-70501D01*
X25957Y-70463D01*
X25843Y-70463D01*
X25766Y-70425D01*
X25728Y-70349D01*
X25728Y-70311D01*
X25766Y-70235D01*
X25843Y-70196D01*
X25957Y-70196D01*
X26033Y-70235D01*
X26338Y-71035D02*
X26376Y-70996D01*
X26453Y-70882D01*
X26491Y-70806D01*
X26529Y-70692D01*
X26567Y-70501D01*
X26567Y-70349D01*
X26529Y-70158D01*
X26491Y-70044D01*
X26453Y-69968D01*
X26376Y-69854D01*
X26338Y-69816D01*
G54D10*
X08648Y-71461D02*
X08643Y-71509D01*
X08629Y-71556D01*
X08606Y-71599D01*
X08575Y-71637D01*
X08537Y-71668D01*
X08494Y-71691D01*
X08448Y-71705D01*
X08399Y-71710D01*
X08352Y-71706D01*
X08305Y-71692D01*
X08262Y-71670D01*
X08224Y-71639D01*
X08192Y-71602D01*
X08169Y-71559D01*
X08154Y-71512D01*
X08149Y-71464D01*
X08153Y-71416D01*
X08166Y-71369D01*
X08188Y-71326D01*
X08219Y-71288D01*
X08256Y-71256D01*
X08298Y-71232D01*
X08345Y-71217D01*
X08393Y-71212D01*
X08441Y-71215D01*
X08488Y-71228D01*
X08531Y-71250D01*
X08570Y-71280D01*
X08602Y-71317D01*
X08626Y-71360D01*
X08641Y-71406D01*
X08647Y-71455D01*
X08648Y-71461D01*
X08148Y-71461D02*
X08648Y-71461D01*
G54D12*
X09191Y-70985D02*
X09267Y-70985D01*
X09343Y-71023D01*
X09381Y-71061D01*
X09419Y-71137D01*
X09458Y-71290D01*
X09458Y-71480D01*
X09419Y-71632D01*
X09381Y-71709D01*
X09343Y-71747D01*
X09267Y-71785D01*
X09191Y-71785D01*
X09115Y-71747D01*
X09077Y-71709D01*
X09038Y-71632D01*
X09000Y-71480D01*
X09000Y-71290D01*
X09038Y-71137D01*
X09077Y-71061D01*
X09115Y-71023D01*
X09191Y-70985D01*
X09800Y-71709D02*
X09839Y-71747D01*
X09800Y-71785D01*
X09762Y-71747D01*
X09800Y-71709D01*
X09800Y-71785D01*
X10334Y-70985D02*
X10410Y-70985D01*
X10486Y-71023D01*
X10524Y-71061D01*
X10562Y-71137D01*
X10601Y-71290D01*
X10601Y-71480D01*
X10562Y-71632D01*
X10524Y-71709D01*
X10486Y-71747D01*
X10410Y-71785D01*
X10334Y-71785D01*
X10258Y-71747D01*
X10220Y-71709D01*
X10181Y-71632D01*
X10143Y-71480D01*
X10143Y-71290D01*
X10181Y-71137D01*
X10220Y-71061D01*
X10258Y-71023D01*
X10334Y-70985D01*
X11324Y-70985D02*
X10943Y-70985D01*
X10905Y-71366D01*
X10943Y-71328D01*
X11020Y-71290D01*
X11210Y-71290D01*
X11286Y-71328D01*
X11324Y-71366D01*
X11363Y-71442D01*
X11363Y-71632D01*
X11324Y-71709D01*
X11286Y-71747D01*
X11210Y-71785D01*
X11020Y-71785D01*
X10943Y-71747D01*
X10905Y-71709D01*
X11858Y-70985D02*
X11934Y-70985D01*
X12010Y-71023D01*
X12048Y-71061D01*
X12086Y-71137D01*
X12125Y-71290D01*
X12125Y-71480D01*
X12086Y-71632D01*
X12048Y-71709D01*
X12010Y-71747D01*
X11934Y-71785D01*
X11858Y-71785D01*
X11782Y-71747D01*
X11744Y-71709D01*
X11705Y-71632D01*
X11667Y-71480D01*
X11667Y-71290D01*
X11705Y-71137D01*
X11744Y-71061D01*
X11782Y-71023D01*
X11858Y-70985D01*
X12429Y-70985D02*
X12429Y-71137D01*
X12734Y-70985D02*
X12734Y-71137D01*
X14259Y-70947D02*
X13573Y-71975D01*
X15555Y-71785D02*
X15097Y-71785D01*
X15326Y-71785D02*
X15326Y-70985D01*
X15250Y-71099D01*
X15174Y-71175D01*
X15097Y-71213D01*
X15897Y-71709D02*
X15936Y-71747D01*
X15897Y-71785D01*
X15859Y-71747D01*
X15897Y-71709D01*
X15897Y-71785D01*
X16240Y-71061D02*
X16278Y-71023D01*
X16355Y-70985D01*
X16545Y-70985D01*
X16621Y-71023D01*
X16659Y-71061D01*
X16698Y-71137D01*
X16698Y-71213D01*
X16659Y-71328D01*
X16202Y-71785D01*
X16698Y-71785D01*
X16964Y-70985D02*
X17498Y-70985D01*
X17155Y-71785D01*
X17802Y-71785D02*
X17802Y-71251D01*
X17802Y-71328D02*
X17841Y-71290D01*
X17917Y-71251D01*
X18031Y-71251D01*
X18107Y-71290D01*
X18145Y-71366D01*
X18145Y-71785D01*
X18145Y-71366D02*
X18183Y-71290D01*
X18260Y-71251D01*
X18374Y-71251D01*
X18450Y-71290D01*
X18488Y-71366D01*
X18488Y-71785D01*
X18869Y-71785D02*
X18869Y-71251D01*
X18869Y-71328D02*
X18908Y-71290D01*
X18984Y-71251D01*
X19098Y-71251D01*
X19174Y-71290D01*
X19212Y-71366D01*
X19212Y-71785D01*
X19212Y-71366D02*
X19250Y-71290D01*
X19327Y-71251D01*
X19441Y-71251D01*
X19517Y-71290D01*
X19555Y-71366D01*
X19555Y-71785D01*
X20775Y-72090D02*
X20737Y-72051D01*
X20661Y-71937D01*
X20623Y-71861D01*
X20585Y-71747D01*
X20546Y-71556D01*
X20546Y-71404D01*
X20585Y-71213D01*
X20623Y-71099D01*
X20661Y-71023D01*
X20737Y-70909D01*
X20775Y-70871D01*
X21422Y-71251D02*
X21422Y-71785D01*
X21232Y-70947D02*
X21041Y-71518D01*
X21537Y-71518D01*
X22451Y-71785D02*
X22451Y-70985D01*
X22794Y-71785D02*
X22794Y-71366D01*
X22756Y-71290D01*
X22680Y-71251D01*
X22566Y-71251D01*
X22490Y-71290D01*
X22451Y-71328D01*
X23290Y-71785D02*
X23214Y-71747D01*
X23175Y-71709D01*
X23137Y-71632D01*
X23137Y-71404D01*
X23175Y-71328D01*
X23214Y-71290D01*
X23290Y-71251D01*
X23404Y-71251D01*
X23480Y-71290D01*
X23518Y-71328D01*
X23556Y-71404D01*
X23556Y-71632D01*
X23518Y-71709D01*
X23480Y-71747D01*
X23404Y-71785D01*
X23290Y-71785D01*
X24014Y-71785D02*
X23938Y-71747D01*
X23899Y-71671D01*
X23899Y-70985D01*
X24623Y-71747D02*
X24547Y-71785D01*
X24395Y-71785D01*
X24318Y-71747D01*
X24280Y-71671D01*
X24280Y-71366D01*
X24318Y-71290D01*
X24395Y-71251D01*
X24547Y-71251D01*
X24623Y-71290D01*
X24661Y-71366D01*
X24661Y-71442D01*
X24280Y-71518D01*
X24966Y-71747D02*
X25043Y-71785D01*
X25195Y-71785D01*
X25271Y-71747D01*
X25309Y-71671D01*
X25309Y-71632D01*
X25271Y-71556D01*
X25195Y-71518D01*
X25081Y-71518D01*
X25004Y-71480D01*
X24966Y-71404D01*
X24966Y-71366D01*
X25004Y-71290D01*
X25081Y-71251D01*
X25195Y-71251D01*
X25271Y-71290D01*
X25576Y-72090D02*
X25614Y-72051D01*
X25691Y-71937D01*
X25729Y-71861D01*
X25767Y-71747D01*
X25805Y-71556D01*
X25805Y-71404D01*
X25767Y-71213D01*
X25729Y-71099D01*
X25691Y-71023D01*
X25614Y-70909D01*
X25576Y-70871D01*
G54D10*
X08648Y-72516D02*
X08642Y-72574D01*
X08625Y-72630D01*
X08597Y-72682D01*
X08560Y-72727D01*
X08515Y-72764D01*
X08464Y-72792D01*
X08408Y-72809D01*
X08350Y-72815D01*
X08292Y-72810D01*
X08236Y-72794D01*
X08184Y-72767D01*
X08139Y-72730D01*
X08101Y-72685D01*
X08073Y-72634D01*
X08055Y-72578D01*
X08049Y-72520D01*
X08053Y-72462D01*
X08070Y-72406D01*
X08096Y-72354D01*
X08133Y-72308D01*
X08177Y-72270D01*
X08228Y-72242D01*
X08284Y-72223D01*
X08342Y-72217D01*
X08400Y-72221D01*
X08456Y-72237D01*
X08508Y-72263D01*
X08554Y-72299D01*
X08593Y-72344D01*
X08622Y-72394D01*
X08640Y-72450D01*
X08647Y-72508D01*
X08648Y-72516D01*
X08348Y-72216D02*
X08348Y-72816D01*
G54D12*
X09191Y-72040D02*
X09267Y-72040D01*
X09343Y-72078D01*
X09381Y-72116D01*
X09419Y-72192D01*
X09458Y-72345D01*
X09458Y-72535D01*
X09419Y-72687D01*
X09381Y-72764D01*
X09343Y-72802D01*
X09267Y-72840D01*
X09191Y-72840D01*
X09115Y-72802D01*
X09077Y-72764D01*
X09038Y-72687D01*
X09000Y-72535D01*
X09000Y-72345D01*
X09038Y-72192D01*
X09077Y-72116D01*
X09115Y-72078D01*
X09191Y-72040D01*
X09800Y-72764D02*
X09839Y-72802D01*
X09800Y-72840D01*
X09762Y-72802D01*
X09800Y-72764D01*
X09800Y-72840D01*
X10334Y-72040D02*
X10410Y-72040D01*
X10486Y-72078D01*
X10524Y-72116D01*
X10562Y-72192D01*
X10601Y-72345D01*
X10601Y-72535D01*
X10562Y-72687D01*
X10524Y-72764D01*
X10486Y-72802D01*
X10410Y-72840D01*
X10334Y-72840D01*
X10258Y-72802D01*
X10220Y-72764D01*
X10181Y-72687D01*
X10143Y-72535D01*
X10143Y-72345D01*
X10181Y-72192D01*
X10220Y-72116D01*
X10258Y-72078D01*
X10334Y-72040D01*
X11286Y-72040D02*
X11134Y-72040D01*
X11058Y-72078D01*
X11020Y-72116D01*
X10943Y-72230D01*
X10905Y-72383D01*
X10905Y-72687D01*
X10943Y-72764D01*
X10982Y-72802D01*
X11058Y-72840D01*
X11210Y-72840D01*
X11286Y-72802D01*
X11324Y-72764D01*
X11363Y-72687D01*
X11363Y-72497D01*
X11324Y-72421D01*
X11286Y-72383D01*
X11210Y-72345D01*
X11058Y-72345D01*
X10982Y-72383D01*
X10943Y-72421D01*
X10905Y-72497D01*
X11858Y-72040D02*
X11934Y-72040D01*
X12010Y-72078D01*
X12048Y-72116D01*
X12086Y-72192D01*
X12125Y-72345D01*
X12125Y-72535D01*
X12086Y-72687D01*
X12048Y-72764D01*
X12010Y-72802D01*
X11934Y-72840D01*
X11858Y-72840D01*
X11782Y-72802D01*
X11744Y-72764D01*
X11705Y-72687D01*
X11667Y-72535D01*
X11667Y-72345D01*
X11705Y-72192D01*
X11744Y-72116D01*
X11782Y-72078D01*
X11858Y-72040D01*
X12429Y-72040D02*
X12429Y-72192D01*
X12734Y-72040D02*
X12734Y-72192D01*
X14259Y-72002D02*
X13573Y-73030D01*
X15555Y-72840D02*
X15097Y-72840D01*
X15326Y-72840D02*
X15326Y-72040D01*
X15250Y-72154D01*
X15174Y-72230D01*
X15097Y-72268D01*
X15897Y-72764D02*
X15936Y-72802D01*
X15897Y-72840D01*
X15859Y-72802D01*
X15897Y-72764D01*
X15897Y-72840D01*
X16659Y-72040D02*
X16278Y-72040D01*
X16240Y-72421D01*
X16278Y-72383D01*
X16355Y-72345D01*
X16545Y-72345D01*
X16621Y-72383D01*
X16659Y-72421D01*
X16698Y-72497D01*
X16698Y-72687D01*
X16659Y-72764D01*
X16621Y-72802D01*
X16545Y-72840D01*
X16355Y-72840D01*
X16278Y-72802D01*
X16240Y-72764D01*
X17002Y-72116D02*
X17040Y-72078D01*
X17117Y-72040D01*
X17307Y-72040D01*
X17383Y-72078D01*
X17421Y-72116D01*
X17460Y-72192D01*
X17460Y-72268D01*
X17421Y-72383D01*
X16964Y-72840D01*
X17460Y-72840D01*
X17802Y-72840D02*
X17802Y-72306D01*
X17802Y-72383D02*
X17841Y-72345D01*
X17917Y-72306D01*
X18031Y-72306D01*
X18107Y-72345D01*
X18145Y-72421D01*
X18145Y-72840D01*
X18145Y-72421D02*
X18183Y-72345D01*
X18260Y-72306D01*
X18374Y-72306D01*
X18450Y-72345D01*
X18488Y-72421D01*
X18488Y-72840D01*
X18869Y-72840D02*
X18869Y-72306D01*
X18869Y-72383D02*
X18908Y-72345D01*
X18984Y-72306D01*
X19098Y-72306D01*
X19174Y-72345D01*
X19212Y-72421D01*
X19212Y-72840D01*
X19212Y-72421D02*
X19250Y-72345D01*
X19327Y-72306D01*
X19441Y-72306D01*
X19517Y-72345D01*
X19555Y-72421D01*
X19555Y-72840D01*
X20775Y-73145D02*
X20737Y-73106D01*
X20661Y-72992D01*
X20623Y-72916D01*
X20585Y-72802D01*
X20546Y-72611D01*
X20546Y-72459D01*
X20585Y-72268D01*
X20623Y-72154D01*
X20661Y-72078D01*
X20737Y-71964D01*
X20775Y-71926D01*
X21041Y-72116D02*
X21079Y-72078D01*
X21156Y-72040D01*
X21346Y-72040D01*
X21422Y-72078D01*
X21460Y-72116D01*
X21499Y-72192D01*
X21499Y-72268D01*
X21460Y-72383D01*
X21003Y-72840D01*
X21499Y-72840D01*
X22451Y-72840D02*
X22451Y-72040D01*
X22794Y-72840D02*
X22794Y-72421D01*
X22756Y-72345D01*
X22680Y-72306D01*
X22566Y-72306D01*
X22490Y-72345D01*
X22451Y-72383D01*
X23290Y-72840D02*
X23214Y-72802D01*
X23175Y-72764D01*
X23137Y-72687D01*
X23137Y-72459D01*
X23175Y-72383D01*
X23214Y-72345D01*
X23290Y-72306D01*
X23404Y-72306D01*
X23480Y-72345D01*
X23518Y-72383D01*
X23556Y-72459D01*
X23556Y-72687D01*
X23518Y-72764D01*
X23480Y-72802D01*
X23404Y-72840D01*
X23290Y-72840D01*
X24014Y-72840D02*
X23938Y-72802D01*
X23899Y-72726D01*
X23899Y-72040D01*
X24623Y-72802D02*
X24547Y-72840D01*
X24395Y-72840D01*
X24318Y-72802D01*
X24280Y-72726D01*
X24280Y-72421D01*
X24318Y-72345D01*
X24395Y-72306D01*
X24547Y-72306D01*
X24623Y-72345D01*
X24661Y-72421D01*
X24661Y-72497D01*
X24280Y-72573D01*
X24966Y-72802D02*
X25043Y-72840D01*
X25195Y-72840D01*
X25271Y-72802D01*
X25309Y-72726D01*
X25309Y-72687D01*
X25271Y-72611D01*
X25195Y-72573D01*
X25081Y-72573D01*
X25004Y-72535D01*
X24966Y-72459D01*
X24966Y-72421D01*
X25004Y-72345D01*
X25081Y-72306D01*
X25195Y-72306D01*
X25271Y-72345D01*
X25576Y-73145D02*
X25614Y-73106D01*
X25691Y-72992D01*
X25729Y-72916D01*
X25767Y-72802D01*
X25805Y-72611D01*
X25805Y-72459D01*
X25767Y-72268D01*
X25729Y-72154D01*
X25691Y-72078D01*
X25614Y-71964D01*
X25576Y-71926D01*
G54D10*
X08472Y-73995D02*
X08472Y-73147D01*
X07624Y-73147D01*
X07624Y-73995D01*
X08472Y-73995D01*
G54D12*
X09191Y-73095D02*
X09267Y-73095D01*
X09343Y-73133D01*
X09381Y-73171D01*
X09419Y-73247D01*
X09458Y-73400D01*
X09458Y-73590D01*
X09419Y-73742D01*
X09381Y-73819D01*
X09343Y-73857D01*
X09267Y-73895D01*
X09191Y-73895D01*
X09115Y-73857D01*
X09077Y-73819D01*
X09038Y-73742D01*
X09000Y-73590D01*
X09000Y-73400D01*
X09038Y-73247D01*
X09077Y-73171D01*
X09115Y-73133D01*
X09191Y-73095D01*
X09800Y-73819D02*
X09839Y-73857D01*
X09800Y-73895D01*
X09762Y-73857D01*
X09800Y-73819D01*
X09800Y-73895D01*
X10601Y-73895D02*
X10143Y-73895D01*
X10372Y-73895D02*
X10372Y-73095D01*
X10296Y-73209D01*
X10220Y-73285D01*
X10143Y-73323D01*
X10905Y-73171D02*
X10943Y-73133D01*
X11020Y-73095D01*
X11210Y-73095D01*
X11286Y-73133D01*
X11324Y-73171D01*
X11363Y-73247D01*
X11363Y-73323D01*
X11324Y-73438D01*
X10867Y-73895D01*
X11363Y-73895D01*
X11858Y-73095D02*
X11934Y-73095D01*
X12010Y-73133D01*
X12048Y-73171D01*
X12086Y-73247D01*
X12125Y-73400D01*
X12125Y-73590D01*
X12086Y-73742D01*
X12048Y-73819D01*
X12010Y-73857D01*
X11934Y-73895D01*
X11858Y-73895D01*
X11782Y-73857D01*
X11744Y-73819D01*
X11705Y-73742D01*
X11667Y-73590D01*
X11667Y-73400D01*
X11705Y-73247D01*
X11744Y-73171D01*
X11782Y-73133D01*
X11858Y-73095D01*
X12429Y-73095D02*
X12429Y-73247D01*
X12734Y-73095D02*
X12734Y-73247D01*
X14259Y-73057D02*
X13573Y-74085D01*
X15059Y-73095D02*
X15555Y-73095D01*
X15288Y-73400D01*
X15402Y-73400D01*
X15478Y-73438D01*
X15516Y-73476D01*
X15555Y-73552D01*
X15555Y-73742D01*
X15516Y-73819D01*
X15478Y-73857D01*
X15402Y-73895D01*
X15174Y-73895D01*
X15097Y-73857D01*
X15059Y-73819D01*
X15897Y-73819D02*
X15936Y-73857D01*
X15897Y-73895D01*
X15859Y-73857D01*
X15897Y-73819D01*
X15897Y-73895D01*
X16431Y-73095D02*
X16507Y-73095D01*
X16583Y-73133D01*
X16621Y-73171D01*
X16659Y-73247D01*
X16698Y-73400D01*
X16698Y-73590D01*
X16659Y-73742D01*
X16621Y-73819D01*
X16583Y-73857D01*
X16507Y-73895D01*
X16431Y-73895D01*
X16355Y-73857D01*
X16317Y-73819D01*
X16278Y-73742D01*
X16240Y-73590D01*
X16240Y-73400D01*
X16278Y-73247D01*
X16317Y-73171D01*
X16355Y-73133D01*
X16431Y-73095D01*
X17421Y-73095D02*
X17040Y-73095D01*
X17002Y-73476D01*
X17040Y-73438D01*
X17117Y-73400D01*
X17307Y-73400D01*
X17383Y-73438D01*
X17421Y-73476D01*
X17460Y-73552D01*
X17460Y-73742D01*
X17421Y-73819D01*
X17383Y-73857D01*
X17307Y-73895D01*
X17117Y-73895D01*
X17040Y-73857D01*
X17002Y-73819D01*
X17802Y-73895D02*
X17802Y-73361D01*
X17802Y-73438D02*
X17841Y-73400D01*
X17917Y-73361D01*
X18031Y-73361D01*
X18107Y-73400D01*
X18145Y-73476D01*
X18145Y-73895D01*
X18145Y-73476D02*
X18183Y-73400D01*
X18260Y-73361D01*
X18374Y-73361D01*
X18450Y-73400D01*
X18488Y-73476D01*
X18488Y-73895D01*
X18869Y-73895D02*
X18869Y-73361D01*
X18869Y-73438D02*
X18908Y-73400D01*
X18984Y-73361D01*
X19098Y-73361D01*
X19174Y-73400D01*
X19212Y-73476D01*
X19212Y-73895D01*
X19212Y-73476D02*
X19250Y-73400D01*
X19327Y-73361D01*
X19441Y-73361D01*
X19517Y-73400D01*
X19555Y-73476D01*
X19555Y-73895D01*
X20775Y-74200D02*
X20737Y-74161D01*
X20661Y-74047D01*
X20623Y-73971D01*
X20585Y-73857D01*
X20546Y-73666D01*
X20546Y-73514D01*
X20585Y-73323D01*
X20623Y-73209D01*
X20661Y-73133D01*
X20737Y-73019D01*
X20775Y-72981D01*
X21422Y-73361D02*
X21422Y-73895D01*
X21232Y-73057D02*
X21041Y-73628D01*
X21537Y-73628D01*
X22451Y-73895D02*
X22451Y-73095D01*
X22794Y-73895D02*
X22794Y-73476D01*
X22756Y-73400D01*
X22680Y-73361D01*
X22566Y-73361D01*
X22490Y-73400D01*
X22451Y-73438D01*
X23290Y-73895D02*
X23214Y-73857D01*
X23175Y-73819D01*
X23137Y-73742D01*
X23137Y-73514D01*
X23175Y-73438D01*
X23214Y-73400D01*
X23290Y-73361D01*
X23404Y-73361D01*
X23480Y-73400D01*
X23518Y-73438D01*
X23556Y-73514D01*
X23556Y-73742D01*
X23518Y-73819D01*
X23480Y-73857D01*
X23404Y-73895D01*
X23290Y-73895D01*
X24014Y-73895D02*
X23938Y-73857D01*
X23899Y-73781D01*
X23899Y-73095D01*
X24623Y-73857D02*
X24547Y-73895D01*
X24395Y-73895D01*
X24318Y-73857D01*
X24280Y-73781D01*
X24280Y-73476D01*
X24318Y-73400D01*
X24395Y-73361D01*
X24547Y-73361D01*
X24623Y-73400D01*
X24661Y-73476D01*
X24661Y-73552D01*
X24280Y-73628D01*
X24966Y-73857D02*
X25043Y-73895D01*
X25195Y-73895D01*
X25271Y-73857D01*
X25309Y-73781D01*
X25309Y-73742D01*
X25271Y-73666D01*
X25195Y-73628D01*
X25081Y-73628D01*
X25004Y-73590D01*
X24966Y-73514D01*
X24966Y-73476D01*
X25004Y-73400D01*
X25081Y-73361D01*
X25195Y-73361D01*
X25271Y-73400D01*
X25576Y-74200D02*
X25614Y-74161D01*
X25691Y-74047D01*
X25729Y-73971D01*
X25767Y-73857D01*
X25805Y-73666D01*
X25805Y-73514D01*
X25767Y-73323D01*
X25729Y-73209D01*
X25691Y-73133D01*
X25614Y-73019D01*
X25576Y-72981D01*
M02*
