G04 (created by PCBNEW-RS274X (2011-12-28 BZR 3254)-stable) date 7/11/2012 5:38:12 PM*
G01*
G70*
G90*
%MOIN*%
G04 Gerber Fmt 3.4, Leading zero omitted, Abs format*
%FSLAX34Y34*%
G04 APERTURE LIST*
%ADD10C,0.006000*%
%ADD11R,0.071200X0.079000*%
%ADD12R,0.060000X0.070000*%
%ADD13R,0.070000X0.060000*%
%ADD14C,0.080000*%
%ADD15R,0.080000X0.080000*%
%ADD16C,0.220000*%
%ADD17C,0.090000*%
%ADD18C,0.100000*%
%ADD19R,0.060000X0.055000*%
%ADD20R,0.042000X0.080000*%
%ADD21R,0.100000X0.044000*%
%ADD22C,0.085000*%
%ADD23R,0.085000X0.085000*%
%ADD24C,0.060000*%
%ADD25O,0.080000X0.110000*%
%ADD26R,0.080000X0.110000*%
%ADD27R,0.140000X0.084000*%
%ADD28R,0.076000X0.062000*%
%ADD29R,0.120000X0.120000*%
%ADD30C,0.120000*%
%ADD31R,0.248000X0.264000*%
%ADD32R,0.100000X0.140000*%
G04 APERTURE END LIST*
G54D10*
G54D11*
X69925Y-31750D03*
X69175Y-31750D03*
X54675Y-45000D03*
X53925Y-45000D03*
X54675Y-20000D03*
X53925Y-20000D03*
X54675Y-25000D03*
X53925Y-25000D03*
X54675Y-30000D03*
X53925Y-30000D03*
X54675Y-35000D03*
X53925Y-35000D03*
X54675Y-40000D03*
X53925Y-40000D03*
X54675Y-50000D03*
X53925Y-50000D03*
X54675Y-55000D03*
X53925Y-55000D03*
X64000Y-40000D03*
X64750Y-40000D03*
X69925Y-40000D03*
X69175Y-40000D03*
X69925Y-23750D03*
X69175Y-23750D03*
X69925Y-19525D03*
X69175Y-19525D03*
X62175Y-33400D03*
X61425Y-33400D03*
X62175Y-25500D03*
X61425Y-25500D03*
G54D12*
X55850Y-22500D03*
X56650Y-22500D03*
X64150Y-19500D03*
X63350Y-19500D03*
X71100Y-21750D03*
X71900Y-21750D03*
X71100Y-25750D03*
X71900Y-25750D03*
X71100Y-29750D03*
X71900Y-29750D03*
X71100Y-33750D03*
X71900Y-33750D03*
X71100Y-37750D03*
X71900Y-37750D03*
G54D13*
X70500Y-41350D03*
X70500Y-42150D03*
X66500Y-41350D03*
X66500Y-42150D03*
X62500Y-41350D03*
X62500Y-42150D03*
G54D12*
X55850Y-57500D03*
X56650Y-57500D03*
X55850Y-32500D03*
X56650Y-32500D03*
X55850Y-37500D03*
X56650Y-37500D03*
X48350Y-19500D03*
X49150Y-19500D03*
X55850Y-42500D03*
X56650Y-42500D03*
X55850Y-47500D03*
X56650Y-47500D03*
X55850Y-52500D03*
X56650Y-52500D03*
X55850Y-27500D03*
X56650Y-27500D03*
X63350Y-23500D03*
X64150Y-23500D03*
X63350Y-27500D03*
X64150Y-27500D03*
X63350Y-31500D03*
X64150Y-31500D03*
X63350Y-35500D03*
X64150Y-35500D03*
G54D11*
X39675Y-22300D03*
X38925Y-22300D03*
X47175Y-33500D03*
X46425Y-33500D03*
X47175Y-25500D03*
X46425Y-25500D03*
X39675Y-30350D03*
X38925Y-30350D03*
G54D12*
X40850Y-20300D03*
X41650Y-20300D03*
X40850Y-24300D03*
X41650Y-24300D03*
X40850Y-28300D03*
X41650Y-28300D03*
X40850Y-32300D03*
X41650Y-32300D03*
X48350Y-23500D03*
X49150Y-23500D03*
X48350Y-27500D03*
X49150Y-27500D03*
X48350Y-31500D03*
X49150Y-31500D03*
X48350Y-35500D03*
X49150Y-35500D03*
G54D14*
X35725Y-54100D03*
X37725Y-54100D03*
G54D15*
X36725Y-54100D03*
G54D16*
X33500Y-57000D03*
X56175Y-14275D03*
G54D17*
X16100Y-28650D03*
X16100Y-30400D03*
G54D18*
X17100Y-28150D03*
X17100Y-30900D03*
G54D17*
X17600Y-30025D03*
X17600Y-29025D03*
X16075Y-35950D03*
X16075Y-37700D03*
G54D18*
X17075Y-35450D03*
X17075Y-38200D03*
G54D17*
X17575Y-37325D03*
X17575Y-36325D03*
X16100Y-39875D03*
X16100Y-41625D03*
G54D18*
X17100Y-39375D03*
X17100Y-42125D03*
G54D17*
X17600Y-41250D03*
X17600Y-40250D03*
X16100Y-43800D03*
X16100Y-45550D03*
G54D18*
X17100Y-43300D03*
X17100Y-46050D03*
G54D17*
X17600Y-45175D03*
X17600Y-44175D03*
X16100Y-47875D03*
X16100Y-49625D03*
G54D18*
X17100Y-47375D03*
X17100Y-50125D03*
G54D17*
X17600Y-49250D03*
X17600Y-48250D03*
X50600Y-56500D03*
X48850Y-56500D03*
G54D19*
X17575Y-54375D03*
X16725Y-54375D03*
G54D20*
X35725Y-38075D03*
X35225Y-38075D03*
X34725Y-38075D03*
X34225Y-38075D03*
X33725Y-38075D03*
X33225Y-38075D03*
X32725Y-38075D03*
X32225Y-38075D03*
X32225Y-34075D03*
X32725Y-34075D03*
X33225Y-34075D03*
X33725Y-34075D03*
X34225Y-34075D03*
X34725Y-34075D03*
X35225Y-34075D03*
X35725Y-34075D03*
X31725Y-38075D03*
X31725Y-34075D03*
G54D21*
X32775Y-44550D03*
X32775Y-44050D03*
X32775Y-43550D03*
X32775Y-43050D03*
X32775Y-42550D03*
X32775Y-42050D03*
X32775Y-41550D03*
X32775Y-41050D03*
X34675Y-41050D03*
X34675Y-41550D03*
X34675Y-42050D03*
X34675Y-42550D03*
X34675Y-43050D03*
X34675Y-43550D03*
X34675Y-44050D03*
X34675Y-44550D03*
G54D11*
X25525Y-57325D03*
X26275Y-57325D03*
G54D22*
X42050Y-56025D03*
G54D23*
X39050Y-56025D03*
G54D22*
X40050Y-56025D03*
X41050Y-56025D03*
G54D12*
X25525Y-58625D03*
X26325Y-58625D03*
G54D24*
X31725Y-34950D03*
X40250Y-51675D03*
X40125Y-50775D03*
X39200Y-50775D03*
G54D14*
X39400Y-58875D03*
X39400Y-57875D03*
X40400Y-58875D03*
X40400Y-57875D03*
X41400Y-58875D03*
G54D15*
X41400Y-57875D03*
X33125Y-58900D03*
X34125Y-58900D03*
G54D14*
X35125Y-58900D03*
X36125Y-58900D03*
X37125Y-58900D03*
X38125Y-58900D03*
G54D25*
X28150Y-52725D03*
X29150Y-52725D03*
X30150Y-52725D03*
X31150Y-52725D03*
X32150Y-52725D03*
X33150Y-52725D03*
G54D26*
X34150Y-52725D03*
G54D25*
X35150Y-52725D03*
X36150Y-52725D03*
X37150Y-52725D03*
X38150Y-52725D03*
X39150Y-52725D03*
X40150Y-52725D03*
X27150Y-52725D03*
X40150Y-49725D03*
X39150Y-49725D03*
X38150Y-49725D03*
X37150Y-49725D03*
X36150Y-49725D03*
X35150Y-49725D03*
X34150Y-49725D03*
G54D26*
X33150Y-49725D03*
G54D25*
X32150Y-49725D03*
X31150Y-49725D03*
X30150Y-49725D03*
X29150Y-49725D03*
X28150Y-49725D03*
X27150Y-49725D03*
G54D27*
X17900Y-52775D03*
X16100Y-52750D03*
G54D28*
X26275Y-55125D03*
X26275Y-55925D03*
X30925Y-55850D03*
X30925Y-55050D03*
X25275Y-55125D03*
X25275Y-55925D03*
X20500Y-55125D03*
X20500Y-55925D03*
G54D29*
X18550Y-57200D03*
G54D30*
X16550Y-57200D03*
G54D23*
X46000Y-59000D03*
G54D22*
X47000Y-59000D03*
X48000Y-59000D03*
X49000Y-59000D03*
X50000Y-59000D03*
X51000Y-59000D03*
G54D23*
X46000Y-58000D03*
G54D22*
X47000Y-58000D03*
X48000Y-58000D03*
X49000Y-58000D03*
X50000Y-58000D03*
X51000Y-58000D03*
G54D23*
X44025Y-14500D03*
G54D22*
X43025Y-14500D03*
X42025Y-14500D03*
X41025Y-14500D03*
X40025Y-14500D03*
X39025Y-14500D03*
G54D23*
X44025Y-13500D03*
G54D22*
X43025Y-13500D03*
X42025Y-13500D03*
X41025Y-13500D03*
X40025Y-13500D03*
X39025Y-13500D03*
G54D14*
X31000Y-56875D03*
X31000Y-57875D03*
X31000Y-58875D03*
X44650Y-58975D03*
X43650Y-58975D03*
X42650Y-58975D03*
G54D31*
X22900Y-57950D03*
G54D32*
X23750Y-55125D03*
X22050Y-55125D03*
G54D31*
X28675Y-57950D03*
G54D32*
X29525Y-55125D03*
X27825Y-55125D03*
M02*
