M48
INCH,TZ
T1C0.025
T2C0.032
T3C0.035
T4C0.040
T5C0.050
T6C0.060
T7C0.120
%
G90
G05
T1
X18100Y-51600
X20975Y-51050
X25000Y-51600
X25850Y-53525
X28575Y-51050
X31725Y-34950
X34250Y-55375
X34625Y-54575
X34650Y-56975
X35000Y-54175
X35050Y-56575
X35450Y-56175
X35850Y-55775
X36250Y-54975
X38925Y-21600
X39200Y-50775
X39800Y-51600
X40125Y-50775
X40250Y-51675
X41650Y-53525
X42325Y-20850
X43575Y-51050
X46425Y-21600
X47600Y-51600
X48350Y-18550
X49900Y-20850
X51075Y-51050
X53300Y-20000
X55150Y-16450
X55575Y-17150
X56975Y-16825
X57775Y-15250
X58175Y-15650
X58525Y-16050
X58875Y-16450
X61425Y-21600
X62650Y-19500
X66625Y-20850
X70525Y-20850
T2
X35725Y-54100
X36725Y-54100
X37725Y-54100
T3
X27150Y-49725
X27150Y-52725
X28150Y-49725
X28150Y-52725
X29150Y-49725
X29150Y-52725
X30150Y-49725
X30150Y-52725
X31150Y-49725
X31150Y-52725
X32150Y-49725
X32150Y-52725
X33150Y-49725
X33150Y-52725
X34150Y-49725
X34150Y-52725
X35150Y-49725
X35150Y-52725
X36150Y-49725
X36150Y-52725
X37150Y-49725
X37150Y-52725
X38150Y-49725
X38150Y-52725
X39150Y-49725
X39150Y-52725
X40150Y-49725
X40150Y-52725
T4
X16075Y-35950
X16075Y-37700
X16100Y-28650
X16100Y-30400
X16100Y-39875
X16100Y-41625
X16100Y-43800
X16100Y-45550
X16100Y-47875
X16100Y-49625
X17575Y-36325
X17575Y-37325
X17600Y-29025
X17600Y-30025
X17600Y-40250
X17600Y-41250
X17600Y-44175
X17600Y-45175
X17600Y-48250
X17600Y-49250
X31000Y-56875
X31000Y-57875
X31000Y-58875
X33125Y-58900
X34125Y-58900
X35125Y-58900
X36125Y-58900
X37125Y-58900
X38125Y-58900
X39025Y-13500
X39025Y-14500
X39050Y-56025
X39400Y-57875
X39400Y-58875
X40025Y-13500
X40025Y-14500
X40050Y-56025
X40400Y-57875
X40400Y-58875
X41025Y-13500
X41025Y-14500
X41050Y-56025
X41400Y-57875
X41400Y-58875
X42025Y-13500
X42025Y-14500
X42050Y-56025
X42650Y-58975
X43025Y-13500
X43025Y-14500
X43650Y-58975
X44025Y-13500
X44025Y-14500
X44650Y-58975
X46000Y-58000
X46000Y-59000
X47000Y-58000
X47000Y-59000
X48000Y-58000
X48000Y-59000
X48850Y-56500
X49000Y-58000
X49000Y-59000
X50000Y-58000
X50000Y-59000
X50600Y-56500
X51000Y-58000
X51000Y-59000
T5
X17075Y-35450
X17075Y-38200
X17100Y-28150
X17100Y-30900
X17100Y-39375
X17100Y-42125
X17100Y-43300
X17100Y-46050
X17100Y-47375
X17100Y-50125
T6
X16550Y-57200
X18550Y-57200
T7
X33500Y-57000
X56175Y-14275
T0
M30
