G04 (created by PCBNEW-RS274X (2011-12-28 BZR 3254)-stable) date 7/11/2012 5:38:12 PM*
G01*
G70*
G90*
%MOIN*%
G04 Gerber Fmt 3.4, Leading zero omitted, Abs format*
%FSLAX34Y34*%
G04 APERTURE LIST*
%ADD10C,0.006000*%
%ADD11C,0.010000*%
%ADD12C,0.005000*%
%ADD13C,0.015000*%
%ADD14C,0.008000*%
%ADD15C,0.004000*%
G04 APERTURE END LIST*
G54D10*
G54D11*
X35725Y-54600D02*
X37725Y-54600D01*
X35725Y-53600D02*
X37725Y-53600D01*
X38225Y-54100D02*
X38223Y-54057D01*
X38217Y-54014D01*
X38207Y-53971D01*
X38194Y-53929D01*
X38178Y-53889D01*
X38158Y-53851D01*
X38134Y-53814D01*
X38108Y-53779D01*
X38078Y-53747D01*
X38046Y-53717D01*
X38011Y-53691D01*
X37975Y-53667D01*
X37936Y-53647D01*
X37896Y-53631D01*
X37854Y-53618D01*
X37811Y-53608D01*
X37768Y-53602D01*
X37725Y-53600D01*
X37725Y-54600D02*
X37768Y-54598D01*
X37811Y-54592D01*
X37854Y-54582D01*
X37896Y-54569D01*
X37936Y-54553D01*
X37975Y-54533D01*
X38011Y-54509D01*
X38046Y-54483D01*
X38078Y-54453D01*
X38108Y-54421D01*
X38134Y-54386D01*
X38158Y-54349D01*
X38178Y-54311D01*
X38194Y-54271D01*
X38207Y-54229D01*
X38217Y-54186D01*
X38223Y-54143D01*
X38225Y-54100D01*
X35725Y-53600D02*
X35682Y-53602D01*
X35639Y-53608D01*
X35596Y-53618D01*
X35554Y-53631D01*
X35514Y-53647D01*
X35476Y-53667D01*
X35439Y-53691D01*
X35404Y-53717D01*
X35372Y-53747D01*
X35342Y-53779D01*
X35316Y-53814D01*
X35292Y-53851D01*
X35272Y-53889D01*
X35256Y-53929D01*
X35243Y-53971D01*
X35233Y-54014D01*
X35227Y-54057D01*
X35225Y-54100D01*
X35225Y-54100D02*
X35227Y-54143D01*
X35233Y-54186D01*
X35243Y-54229D01*
X35256Y-54271D01*
X35272Y-54311D01*
X35292Y-54349D01*
X35316Y-54386D01*
X35342Y-54421D01*
X35372Y-54453D01*
X35404Y-54483D01*
X35439Y-54509D01*
X35476Y-54533D01*
X35514Y-54553D01*
X35554Y-54569D01*
X35596Y-54582D01*
X35639Y-54592D01*
X35682Y-54598D01*
X35725Y-54600D01*
X17150Y-29525D02*
X17150Y-30475D01*
X17150Y-30475D02*
X18050Y-30475D01*
X18050Y-30475D02*
X18050Y-29525D01*
X18050Y-29525D02*
X18050Y-28575D01*
X18050Y-28575D02*
X17150Y-28575D01*
X17150Y-28575D02*
X17150Y-29525D01*
G54D12*
X15095Y-28145D02*
X17855Y-28145D01*
X17855Y-28145D02*
X17855Y-28245D01*
X17855Y-28245D02*
X16675Y-28245D01*
X16675Y-28245D02*
X16675Y-30805D01*
X16675Y-30805D02*
X17855Y-30805D01*
X17855Y-30805D02*
X17855Y-30905D01*
X17855Y-30905D02*
X15095Y-30905D01*
X15095Y-30905D02*
X15095Y-28145D01*
X14305Y-29205D02*
X14795Y-29205D01*
X14305Y-29845D02*
X14795Y-29845D01*
X15095Y-28935D02*
X14795Y-28935D01*
X14795Y-28935D02*
X14795Y-30115D01*
X14795Y-30115D02*
X15095Y-30115D01*
X13535Y-28935D02*
X13535Y-30115D01*
X13535Y-30115D02*
X14305Y-30115D01*
X14305Y-30115D02*
X14305Y-28935D01*
X14305Y-28935D02*
X13535Y-28935D01*
X13535Y-30115D02*
X14305Y-30115D01*
G54D11*
X17125Y-36825D02*
X17125Y-37775D01*
X17125Y-37775D02*
X18025Y-37775D01*
X18025Y-37775D02*
X18025Y-36825D01*
X18025Y-36825D02*
X18025Y-35875D01*
X18025Y-35875D02*
X17125Y-35875D01*
X17125Y-35875D02*
X17125Y-36825D01*
G54D12*
X15070Y-35445D02*
X17830Y-35445D01*
X17830Y-35445D02*
X17830Y-35545D01*
X17830Y-35545D02*
X16650Y-35545D01*
X16650Y-35545D02*
X16650Y-38105D01*
X16650Y-38105D02*
X17830Y-38105D01*
X17830Y-38105D02*
X17830Y-38205D01*
X17830Y-38205D02*
X15070Y-38205D01*
X15070Y-38205D02*
X15070Y-35445D01*
X14280Y-36505D02*
X14770Y-36505D01*
X14280Y-37145D02*
X14770Y-37145D01*
X15070Y-36235D02*
X14770Y-36235D01*
X14770Y-36235D02*
X14770Y-37415D01*
X14770Y-37415D02*
X15070Y-37415D01*
X13510Y-36235D02*
X13510Y-37415D01*
X13510Y-37415D02*
X14280Y-37415D01*
X14280Y-37415D02*
X14280Y-36235D01*
X14280Y-36235D02*
X13510Y-36235D01*
X13510Y-37415D02*
X14280Y-37415D01*
G54D11*
X17150Y-40750D02*
X17150Y-41700D01*
X17150Y-41700D02*
X18050Y-41700D01*
X18050Y-41700D02*
X18050Y-40750D01*
X18050Y-40750D02*
X18050Y-39800D01*
X18050Y-39800D02*
X17150Y-39800D01*
X17150Y-39800D02*
X17150Y-40750D01*
G54D12*
X15095Y-39370D02*
X17855Y-39370D01*
X17855Y-39370D02*
X17855Y-39470D01*
X17855Y-39470D02*
X16675Y-39470D01*
X16675Y-39470D02*
X16675Y-42030D01*
X16675Y-42030D02*
X17855Y-42030D01*
X17855Y-42030D02*
X17855Y-42130D01*
X17855Y-42130D02*
X15095Y-42130D01*
X15095Y-42130D02*
X15095Y-39370D01*
X14305Y-40430D02*
X14795Y-40430D01*
X14305Y-41070D02*
X14795Y-41070D01*
X15095Y-40160D02*
X14795Y-40160D01*
X14795Y-40160D02*
X14795Y-41340D01*
X14795Y-41340D02*
X15095Y-41340D01*
X13535Y-40160D02*
X13535Y-41340D01*
X13535Y-41340D02*
X14305Y-41340D01*
X14305Y-41340D02*
X14305Y-40160D01*
X14305Y-40160D02*
X13535Y-40160D01*
X13535Y-41340D02*
X14305Y-41340D01*
G54D11*
X17150Y-44675D02*
X17150Y-45625D01*
X17150Y-45625D02*
X18050Y-45625D01*
X18050Y-45625D02*
X18050Y-44675D01*
X18050Y-44675D02*
X18050Y-43725D01*
X18050Y-43725D02*
X17150Y-43725D01*
X17150Y-43725D02*
X17150Y-44675D01*
G54D12*
X15095Y-43295D02*
X17855Y-43295D01*
X17855Y-43295D02*
X17855Y-43395D01*
X17855Y-43395D02*
X16675Y-43395D01*
X16675Y-43395D02*
X16675Y-45955D01*
X16675Y-45955D02*
X17855Y-45955D01*
X17855Y-45955D02*
X17855Y-46055D01*
X17855Y-46055D02*
X15095Y-46055D01*
X15095Y-46055D02*
X15095Y-43295D01*
X14305Y-44355D02*
X14795Y-44355D01*
X14305Y-44995D02*
X14795Y-44995D01*
X15095Y-44085D02*
X14795Y-44085D01*
X14795Y-44085D02*
X14795Y-45265D01*
X14795Y-45265D02*
X15095Y-45265D01*
X13535Y-44085D02*
X13535Y-45265D01*
X13535Y-45265D02*
X14305Y-45265D01*
X14305Y-45265D02*
X14305Y-44085D01*
X14305Y-44085D02*
X13535Y-44085D01*
X13535Y-45265D02*
X14305Y-45265D01*
G54D11*
X17150Y-48750D02*
X17150Y-49700D01*
X17150Y-49700D02*
X18050Y-49700D01*
X18050Y-49700D02*
X18050Y-48750D01*
X18050Y-48750D02*
X18050Y-47800D01*
X18050Y-47800D02*
X17150Y-47800D01*
X17150Y-47800D02*
X17150Y-48750D01*
G54D12*
X15095Y-47370D02*
X17855Y-47370D01*
X17855Y-47370D02*
X17855Y-47470D01*
X17855Y-47470D02*
X16675Y-47470D01*
X16675Y-47470D02*
X16675Y-50030D01*
X16675Y-50030D02*
X17855Y-50030D01*
X17855Y-50030D02*
X17855Y-50130D01*
X17855Y-50130D02*
X15095Y-50130D01*
X15095Y-50130D02*
X15095Y-47370D01*
X14305Y-48430D02*
X14795Y-48430D01*
X14305Y-49070D02*
X14795Y-49070D01*
X15095Y-48160D02*
X14795Y-48160D01*
X14795Y-48160D02*
X14795Y-49340D01*
X14795Y-49340D02*
X15095Y-49340D01*
X13535Y-48160D02*
X13535Y-49340D01*
X13535Y-49340D02*
X14305Y-49340D01*
X14305Y-49340D02*
X14305Y-48160D01*
X14305Y-48160D02*
X13535Y-48160D01*
X13535Y-49340D02*
X14305Y-49340D01*
G54D10*
X28050Y-38575D02*
X27425Y-38575D01*
X27425Y-38575D02*
X27425Y-39425D01*
X27425Y-39425D02*
X28050Y-39425D01*
X28350Y-39425D02*
X28950Y-39425D01*
X28950Y-39425D02*
X28975Y-39425D01*
X28975Y-39425D02*
X28975Y-38575D01*
X28975Y-38575D02*
X28350Y-38575D01*
X20750Y-53425D02*
X21375Y-53425D01*
X21375Y-53425D02*
X21375Y-52575D01*
X21375Y-52575D02*
X20750Y-52575D01*
X20450Y-52575D02*
X19850Y-52575D01*
X19850Y-52575D02*
X19825Y-52575D01*
X19825Y-52575D02*
X19825Y-53425D01*
X19825Y-53425D02*
X20450Y-53425D01*
X20450Y-40325D02*
X19825Y-40325D01*
X19825Y-40325D02*
X19825Y-41175D01*
X19825Y-41175D02*
X20450Y-41175D01*
X20750Y-41175D02*
X21350Y-41175D01*
X21350Y-41175D02*
X21375Y-41175D01*
X21375Y-41175D02*
X21375Y-40325D01*
X21375Y-40325D02*
X20750Y-40325D01*
X20450Y-48325D02*
X19825Y-48325D01*
X19825Y-48325D02*
X19825Y-49175D01*
X19825Y-49175D02*
X20450Y-49175D01*
X20750Y-49175D02*
X21350Y-49175D01*
X21350Y-49175D02*
X21375Y-49175D01*
X21375Y-49175D02*
X21375Y-48325D01*
X21375Y-48325D02*
X20750Y-48325D01*
X17375Y-32425D02*
X18000Y-32425D01*
X18000Y-32425D02*
X18000Y-31575D01*
X18000Y-31575D02*
X17375Y-31575D01*
X17075Y-31575D02*
X16475Y-31575D01*
X16475Y-31575D02*
X16450Y-31575D01*
X16450Y-31575D02*
X16450Y-32425D01*
X16450Y-32425D02*
X17075Y-32425D01*
X28050Y-46575D02*
X27425Y-46575D01*
X27425Y-46575D02*
X27425Y-47425D01*
X27425Y-47425D02*
X28050Y-47425D01*
X28350Y-47425D02*
X28950Y-47425D01*
X28950Y-47425D02*
X28975Y-47425D01*
X28975Y-47425D02*
X28975Y-46575D01*
X28975Y-46575D02*
X28350Y-46575D01*
X43050Y-38575D02*
X42425Y-38575D01*
X42425Y-38575D02*
X42425Y-39425D01*
X42425Y-39425D02*
X43050Y-39425D01*
X43350Y-39425D02*
X43950Y-39425D01*
X43950Y-39425D02*
X43975Y-39425D01*
X43975Y-39425D02*
X43975Y-38575D01*
X43975Y-38575D02*
X43350Y-38575D01*
X43050Y-46575D02*
X42425Y-46575D01*
X42425Y-46575D02*
X42425Y-47425D01*
X42425Y-47425D02*
X43050Y-47425D01*
X43350Y-47425D02*
X43950Y-47425D01*
X43950Y-47425D02*
X43975Y-47425D01*
X43975Y-47425D02*
X43975Y-46575D01*
X43975Y-46575D02*
X43350Y-46575D01*
X50550Y-41775D02*
X49925Y-41775D01*
X49925Y-41775D02*
X49925Y-42625D01*
X49925Y-42625D02*
X50550Y-42625D01*
X50850Y-42625D02*
X51450Y-42625D01*
X51450Y-42625D02*
X51475Y-42625D01*
X51475Y-42625D02*
X51475Y-41775D01*
X51475Y-41775D02*
X50850Y-41775D01*
X20450Y-32125D02*
X19825Y-32125D01*
X19825Y-32125D02*
X19825Y-32975D01*
X19825Y-32975D02*
X20450Y-32975D01*
X20750Y-32975D02*
X21350Y-32975D01*
X21350Y-32975D02*
X21375Y-32975D01*
X21375Y-32975D02*
X21375Y-32125D01*
X21375Y-32125D02*
X20750Y-32125D01*
X25650Y-32975D02*
X26275Y-32975D01*
X26275Y-32975D02*
X26275Y-32125D01*
X26275Y-32125D02*
X25650Y-32125D01*
X25350Y-32125D02*
X24750Y-32125D01*
X24750Y-32125D02*
X24725Y-32125D01*
X24725Y-32125D02*
X24725Y-32975D01*
X24725Y-32975D02*
X25350Y-32975D01*
X19325Y-28600D02*
X18700Y-28600D01*
X18700Y-28600D02*
X18700Y-29450D01*
X18700Y-29450D02*
X19325Y-29450D01*
X19625Y-29450D02*
X20225Y-29450D01*
X20225Y-29450D02*
X20250Y-29450D01*
X20250Y-29450D02*
X20250Y-28600D01*
X20250Y-28600D02*
X19625Y-28600D01*
X19250Y-48575D02*
X19250Y-47950D01*
X19250Y-47950D02*
X18400Y-47950D01*
X18400Y-47950D02*
X18400Y-48575D01*
X18400Y-48875D02*
X18400Y-49475D01*
X18400Y-49475D02*
X18400Y-49500D01*
X18400Y-49500D02*
X19250Y-49500D01*
X19250Y-49500D02*
X19250Y-48875D01*
X19125Y-40525D02*
X19125Y-39900D01*
X19125Y-39900D02*
X18275Y-39900D01*
X18275Y-39900D02*
X18275Y-40525D01*
X18275Y-40825D02*
X18275Y-41425D01*
X18275Y-41425D02*
X18275Y-41450D01*
X18275Y-41450D02*
X19125Y-41450D01*
X19125Y-41450D02*
X19125Y-40825D01*
X18275Y-44875D02*
X18275Y-45500D01*
X18275Y-45500D02*
X19125Y-45500D01*
X19125Y-45500D02*
X19125Y-44875D01*
X19125Y-44575D02*
X19125Y-43975D01*
X19125Y-43975D02*
X19125Y-43950D01*
X19125Y-43950D02*
X18275Y-43950D01*
X18275Y-43950D02*
X18275Y-44575D01*
X26100Y-54575D02*
X25475Y-54575D01*
X25475Y-54575D02*
X25475Y-55425D01*
X25475Y-55425D02*
X26100Y-55425D01*
X26400Y-55425D02*
X27000Y-55425D01*
X27000Y-55425D02*
X27025Y-55425D01*
X27025Y-55425D02*
X27025Y-54575D01*
X27025Y-54575D02*
X26400Y-54575D01*
X44250Y-58175D02*
X44875Y-58175D01*
X44875Y-58175D02*
X44875Y-57325D01*
X44875Y-57325D02*
X44250Y-57325D01*
X43950Y-57325D02*
X43350Y-57325D01*
X43350Y-57325D02*
X43325Y-57325D01*
X43325Y-57325D02*
X43325Y-58175D01*
X43325Y-58175D02*
X43950Y-58175D01*
X40325Y-54350D02*
X39700Y-54350D01*
X39700Y-54350D02*
X39700Y-55200D01*
X39700Y-55200D02*
X40325Y-55200D01*
X40625Y-55200D02*
X41225Y-55200D01*
X41225Y-55200D02*
X41250Y-55200D01*
X41250Y-55200D02*
X41250Y-54350D01*
X41250Y-54350D02*
X40625Y-54350D01*
X42075Y-54400D02*
X41450Y-54400D01*
X41450Y-54400D02*
X41450Y-55250D01*
X41450Y-55250D02*
X42075Y-55250D01*
X42375Y-55250D02*
X42975Y-55250D01*
X42975Y-55250D02*
X43000Y-55250D01*
X43000Y-55250D02*
X43000Y-54400D01*
X43000Y-54400D02*
X42375Y-54400D01*
X50550Y-49775D02*
X49925Y-49775D01*
X49925Y-49775D02*
X49925Y-50625D01*
X49925Y-50625D02*
X50550Y-50625D01*
X50850Y-50625D02*
X51450Y-50625D01*
X51450Y-50625D02*
X51475Y-50625D01*
X51475Y-50625D02*
X51475Y-49775D01*
X51475Y-49775D02*
X50850Y-49775D01*
G54D13*
X41800Y-56525D02*
X41550Y-56275D01*
X42300Y-56525D02*
X41800Y-56525D01*
X42550Y-56275D02*
X42300Y-56525D01*
X42550Y-55775D02*
X42550Y-56275D01*
X42300Y-55525D02*
X42550Y-55775D01*
X41800Y-55525D02*
X42300Y-55525D01*
X41550Y-55775D02*
X41800Y-55525D01*
X38550Y-56025D02*
X38550Y-55525D01*
X38550Y-55525D02*
X39550Y-55525D01*
X39550Y-55525D02*
X39550Y-55775D01*
X39550Y-55775D02*
X39800Y-55525D01*
X39800Y-55525D02*
X40050Y-55525D01*
X40050Y-55525D02*
X40300Y-55525D01*
X40300Y-55525D02*
X40550Y-55775D01*
X40550Y-55775D02*
X40800Y-55525D01*
X40800Y-55525D02*
X41300Y-55525D01*
X41300Y-55525D02*
X41550Y-55775D01*
X41550Y-56275D02*
X41300Y-56525D01*
X41300Y-56525D02*
X40800Y-56525D01*
X40800Y-56525D02*
X40550Y-56275D01*
X40550Y-56275D02*
X40300Y-56525D01*
X40300Y-56525D02*
X39800Y-56525D01*
X39800Y-56525D02*
X39550Y-56275D01*
X39550Y-56275D02*
X39550Y-56525D01*
X39550Y-56525D02*
X38550Y-56525D01*
X38550Y-56525D02*
X38550Y-56025D01*
G54D10*
X33800Y-39825D02*
X33800Y-40025D01*
X33650Y-39925D02*
X33800Y-39925D01*
X33800Y-39925D02*
X33650Y-39850D01*
X33650Y-39850D02*
X33650Y-40000D01*
X33650Y-40000D02*
X33800Y-39925D01*
X34475Y-40225D02*
X34400Y-40225D01*
X34475Y-40275D02*
X34350Y-40275D01*
X34475Y-40125D02*
X34475Y-40325D01*
X34475Y-40325D02*
X34275Y-40325D01*
X34475Y-39625D02*
X34400Y-39625D01*
X34475Y-39575D02*
X34350Y-39575D01*
X34475Y-39725D02*
X34475Y-39525D01*
X34475Y-39525D02*
X34275Y-39525D01*
X34275Y-40325D02*
X34475Y-40125D01*
X34475Y-40125D02*
X34475Y-39925D01*
X34475Y-39925D02*
X34475Y-39725D01*
X34475Y-39725D02*
X34275Y-39525D01*
X33325Y-39525D02*
X32975Y-39525D01*
X32975Y-39525D02*
X32975Y-40325D01*
X32975Y-40325D02*
X33325Y-40325D01*
X33950Y-39525D02*
X34275Y-39525D01*
X33950Y-40325D02*
X34275Y-40325D01*
X41325Y-40900D02*
X41325Y-41100D01*
X41175Y-41000D02*
X41325Y-41000D01*
X41325Y-41000D02*
X41175Y-40925D01*
X41175Y-40925D02*
X41175Y-41075D01*
X41175Y-41075D02*
X41325Y-41000D01*
X42000Y-41300D02*
X41925Y-41300D01*
X42000Y-41350D02*
X41875Y-41350D01*
X42000Y-41200D02*
X42000Y-41400D01*
X42000Y-41400D02*
X41800Y-41400D01*
X42000Y-40700D02*
X41925Y-40700D01*
X42000Y-40650D02*
X41875Y-40650D01*
X42000Y-40800D02*
X42000Y-40600D01*
X42000Y-40600D02*
X41800Y-40600D01*
X41800Y-41400D02*
X42000Y-41200D01*
X42000Y-41200D02*
X42000Y-41000D01*
X42000Y-41000D02*
X42000Y-40800D01*
X42000Y-40800D02*
X41800Y-40600D01*
X40850Y-40600D02*
X40500Y-40600D01*
X40500Y-40600D02*
X40500Y-41400D01*
X40500Y-41400D02*
X40850Y-41400D01*
X41475Y-40600D02*
X41800Y-40600D01*
X41475Y-41400D02*
X41800Y-41400D01*
X48825Y-52100D02*
X48825Y-52300D01*
X48675Y-52200D02*
X48825Y-52200D01*
X48825Y-52200D02*
X48675Y-52125D01*
X48675Y-52125D02*
X48675Y-52275D01*
X48675Y-52275D02*
X48825Y-52200D01*
X49500Y-52500D02*
X49425Y-52500D01*
X49500Y-52550D02*
X49375Y-52550D01*
X49500Y-52400D02*
X49500Y-52600D01*
X49500Y-52600D02*
X49300Y-52600D01*
X49500Y-51900D02*
X49425Y-51900D01*
X49500Y-51850D02*
X49375Y-51850D01*
X49500Y-52000D02*
X49500Y-51800D01*
X49500Y-51800D02*
X49300Y-51800D01*
X49300Y-52600D02*
X49500Y-52400D01*
X49500Y-52400D02*
X49500Y-52200D01*
X49500Y-52200D02*
X49500Y-52000D01*
X49500Y-52000D02*
X49300Y-51800D01*
X48350Y-51800D02*
X48000Y-51800D01*
X48000Y-51800D02*
X48000Y-52600D01*
X48000Y-52600D02*
X48350Y-52600D01*
X48975Y-51800D02*
X49300Y-51800D01*
X48975Y-52600D02*
X49300Y-52600D01*
X48825Y-48100D02*
X48825Y-48300D01*
X48675Y-48200D02*
X48825Y-48200D01*
X48825Y-48200D02*
X48675Y-48125D01*
X48675Y-48125D02*
X48675Y-48275D01*
X48675Y-48275D02*
X48825Y-48200D01*
X49500Y-48500D02*
X49425Y-48500D01*
X49500Y-48550D02*
X49375Y-48550D01*
X49500Y-48400D02*
X49500Y-48600D01*
X49500Y-48600D02*
X49300Y-48600D01*
X49500Y-47900D02*
X49425Y-47900D01*
X49500Y-47850D02*
X49375Y-47850D01*
X49500Y-48000D02*
X49500Y-47800D01*
X49500Y-47800D02*
X49300Y-47800D01*
X49300Y-48600D02*
X49500Y-48400D01*
X49500Y-48400D02*
X49500Y-48200D01*
X49500Y-48200D02*
X49500Y-48000D01*
X49500Y-48000D02*
X49300Y-47800D01*
X48350Y-47800D02*
X48000Y-47800D01*
X48000Y-47800D02*
X48000Y-48600D01*
X48000Y-48600D02*
X48350Y-48600D01*
X48975Y-47800D02*
X49300Y-47800D01*
X48975Y-48600D02*
X49300Y-48600D01*
X48825Y-44100D02*
X48825Y-44300D01*
X48675Y-44200D02*
X48825Y-44200D01*
X48825Y-44200D02*
X48675Y-44125D01*
X48675Y-44125D02*
X48675Y-44275D01*
X48675Y-44275D02*
X48825Y-44200D01*
X49500Y-44500D02*
X49425Y-44500D01*
X49500Y-44550D02*
X49375Y-44550D01*
X49500Y-44400D02*
X49500Y-44600D01*
X49500Y-44600D02*
X49300Y-44600D01*
X49500Y-43900D02*
X49425Y-43900D01*
X49500Y-43850D02*
X49375Y-43850D01*
X49500Y-44000D02*
X49500Y-43800D01*
X49500Y-43800D02*
X49300Y-43800D01*
X49300Y-44600D02*
X49500Y-44400D01*
X49500Y-44400D02*
X49500Y-44200D01*
X49500Y-44200D02*
X49500Y-44000D01*
X49500Y-44000D02*
X49300Y-43800D01*
X48350Y-43800D02*
X48000Y-43800D01*
X48000Y-43800D02*
X48000Y-44600D01*
X48000Y-44600D02*
X48350Y-44600D01*
X48975Y-43800D02*
X49300Y-43800D01*
X48975Y-44600D02*
X49300Y-44600D01*
X48825Y-40100D02*
X48825Y-40300D01*
X48675Y-40200D02*
X48825Y-40200D01*
X48825Y-40200D02*
X48675Y-40125D01*
X48675Y-40125D02*
X48675Y-40275D01*
X48675Y-40275D02*
X48825Y-40200D01*
X49500Y-40500D02*
X49425Y-40500D01*
X49500Y-40550D02*
X49375Y-40550D01*
X49500Y-40400D02*
X49500Y-40600D01*
X49500Y-40600D02*
X49300Y-40600D01*
X49500Y-39900D02*
X49425Y-39900D01*
X49500Y-39850D02*
X49375Y-39850D01*
X49500Y-40000D02*
X49500Y-39800D01*
X49500Y-39800D02*
X49300Y-39800D01*
X49300Y-40600D02*
X49500Y-40400D01*
X49500Y-40400D02*
X49500Y-40200D01*
X49500Y-40200D02*
X49500Y-40000D01*
X49500Y-40000D02*
X49300Y-39800D01*
X48350Y-39800D02*
X48000Y-39800D01*
X48000Y-39800D02*
X48000Y-40600D01*
X48000Y-40600D02*
X48350Y-40600D01*
X48975Y-39800D02*
X49300Y-39800D01*
X48975Y-40600D02*
X49300Y-40600D01*
X41325Y-48900D02*
X41325Y-49100D01*
X41175Y-49000D02*
X41325Y-49000D01*
X41325Y-49000D02*
X41175Y-48925D01*
X41175Y-48925D02*
X41175Y-49075D01*
X41175Y-49075D02*
X41325Y-49000D01*
X42000Y-49300D02*
X41925Y-49300D01*
X42000Y-49350D02*
X41875Y-49350D01*
X42000Y-49200D02*
X42000Y-49400D01*
X42000Y-49400D02*
X41800Y-49400D01*
X42000Y-48700D02*
X41925Y-48700D01*
X42000Y-48650D02*
X41875Y-48650D01*
X42000Y-48800D02*
X42000Y-48600D01*
X42000Y-48600D02*
X41800Y-48600D01*
X41800Y-49400D02*
X42000Y-49200D01*
X42000Y-49200D02*
X42000Y-49000D01*
X42000Y-49000D02*
X42000Y-48800D01*
X42000Y-48800D02*
X41800Y-48600D01*
X40850Y-48600D02*
X40500Y-48600D01*
X40500Y-48600D02*
X40500Y-49400D01*
X40500Y-49400D02*
X40850Y-49400D01*
X41475Y-48600D02*
X41800Y-48600D01*
X41475Y-49400D02*
X41800Y-49400D01*
X41325Y-44900D02*
X41325Y-45100D01*
X41175Y-45000D02*
X41325Y-45000D01*
X41325Y-45000D02*
X41175Y-44925D01*
X41175Y-44925D02*
X41175Y-45075D01*
X41175Y-45075D02*
X41325Y-45000D01*
X42000Y-45300D02*
X41925Y-45300D01*
X42000Y-45350D02*
X41875Y-45350D01*
X42000Y-45200D02*
X42000Y-45400D01*
X42000Y-45400D02*
X41800Y-45400D01*
X42000Y-44700D02*
X41925Y-44700D01*
X42000Y-44650D02*
X41875Y-44650D01*
X42000Y-44800D02*
X42000Y-44600D01*
X42000Y-44600D02*
X41800Y-44600D01*
X41800Y-45400D02*
X42000Y-45200D01*
X42000Y-45200D02*
X42000Y-45000D01*
X42000Y-45000D02*
X42000Y-44800D01*
X42000Y-44800D02*
X41800Y-44600D01*
X40850Y-44600D02*
X40500Y-44600D01*
X40500Y-44600D02*
X40500Y-45400D01*
X40500Y-45400D02*
X40850Y-45400D01*
X41475Y-44600D02*
X41800Y-44600D01*
X41475Y-45400D02*
X41800Y-45400D01*
X33800Y-35975D02*
X33800Y-36175D01*
X33650Y-36075D02*
X33800Y-36075D01*
X33800Y-36075D02*
X33650Y-36000D01*
X33650Y-36000D02*
X33650Y-36150D01*
X33650Y-36150D02*
X33800Y-36075D01*
X34475Y-36375D02*
X34400Y-36375D01*
X34475Y-36425D02*
X34350Y-36425D01*
X34475Y-36275D02*
X34475Y-36475D01*
X34475Y-36475D02*
X34275Y-36475D01*
X34475Y-35775D02*
X34400Y-35775D01*
X34475Y-35725D02*
X34350Y-35725D01*
X34475Y-35875D02*
X34475Y-35675D01*
X34475Y-35675D02*
X34275Y-35675D01*
X34275Y-36475D02*
X34475Y-36275D01*
X34475Y-36275D02*
X34475Y-36075D01*
X34475Y-36075D02*
X34475Y-35875D01*
X34475Y-35875D02*
X34275Y-35675D01*
X33325Y-35675D02*
X32975Y-35675D01*
X32975Y-35675D02*
X32975Y-36475D01*
X32975Y-36475D02*
X33325Y-36475D01*
X33950Y-35675D02*
X34275Y-35675D01*
X33950Y-36475D02*
X34275Y-36475D01*
X41325Y-36900D02*
X41325Y-37100D01*
X41175Y-37000D02*
X41325Y-37000D01*
X41325Y-37000D02*
X41175Y-36925D01*
X41175Y-36925D02*
X41175Y-37075D01*
X41175Y-37075D02*
X41325Y-37000D01*
X42000Y-37300D02*
X41925Y-37300D01*
X42000Y-37350D02*
X41875Y-37350D01*
X42000Y-37200D02*
X42000Y-37400D01*
X42000Y-37400D02*
X41800Y-37400D01*
X42000Y-36700D02*
X41925Y-36700D01*
X42000Y-36650D02*
X41875Y-36650D01*
X42000Y-36800D02*
X42000Y-36600D01*
X42000Y-36600D02*
X41800Y-36600D01*
X41800Y-37400D02*
X42000Y-37200D01*
X42000Y-37200D02*
X42000Y-37000D01*
X42000Y-37000D02*
X42000Y-36800D01*
X42000Y-36800D02*
X41800Y-36600D01*
X40850Y-36600D02*
X40500Y-36600D01*
X40500Y-36600D02*
X40500Y-37400D01*
X40500Y-37400D02*
X40850Y-37400D01*
X41475Y-36600D02*
X41800Y-36600D01*
X41475Y-37400D02*
X41800Y-37400D01*
X26325Y-48900D02*
X26325Y-49100D01*
X26175Y-49000D02*
X26325Y-49000D01*
X26325Y-49000D02*
X26175Y-48925D01*
X26175Y-48925D02*
X26175Y-49075D01*
X26175Y-49075D02*
X26325Y-49000D01*
X27000Y-49300D02*
X26925Y-49300D01*
X27000Y-49350D02*
X26875Y-49350D01*
X27000Y-49200D02*
X27000Y-49400D01*
X27000Y-49400D02*
X26800Y-49400D01*
X27000Y-48700D02*
X26925Y-48700D01*
X27000Y-48650D02*
X26875Y-48650D01*
X27000Y-48800D02*
X27000Y-48600D01*
X27000Y-48600D02*
X26800Y-48600D01*
X26800Y-49400D02*
X27000Y-49200D01*
X27000Y-49200D02*
X27000Y-49000D01*
X27000Y-49000D02*
X27000Y-48800D01*
X27000Y-48800D02*
X26800Y-48600D01*
X25850Y-48600D02*
X25500Y-48600D01*
X25500Y-48600D02*
X25500Y-49400D01*
X25500Y-49400D02*
X25850Y-49400D01*
X26475Y-48600D02*
X26800Y-48600D01*
X26475Y-49400D02*
X26800Y-49400D01*
X26325Y-44900D02*
X26325Y-45100D01*
X26175Y-45000D02*
X26325Y-45000D01*
X26325Y-45000D02*
X26175Y-44925D01*
X26175Y-44925D02*
X26175Y-45075D01*
X26175Y-45075D02*
X26325Y-45000D01*
X27000Y-45300D02*
X26925Y-45300D01*
X27000Y-45350D02*
X26875Y-45350D01*
X27000Y-45200D02*
X27000Y-45400D01*
X27000Y-45400D02*
X26800Y-45400D01*
X27000Y-44700D02*
X26925Y-44700D01*
X27000Y-44650D02*
X26875Y-44650D01*
X27000Y-44800D02*
X27000Y-44600D01*
X27000Y-44600D02*
X26800Y-44600D01*
X26800Y-45400D02*
X27000Y-45200D01*
X27000Y-45200D02*
X27000Y-45000D01*
X27000Y-45000D02*
X27000Y-44800D01*
X27000Y-44800D02*
X26800Y-44600D01*
X25850Y-44600D02*
X25500Y-44600D01*
X25500Y-44600D02*
X25500Y-45400D01*
X25500Y-45400D02*
X25850Y-45400D01*
X26475Y-44600D02*
X26800Y-44600D01*
X26475Y-45400D02*
X26800Y-45400D01*
X26325Y-40900D02*
X26325Y-41100D01*
X26175Y-41000D02*
X26325Y-41000D01*
X26325Y-41000D02*
X26175Y-40925D01*
X26175Y-40925D02*
X26175Y-41075D01*
X26175Y-41075D02*
X26325Y-41000D01*
X27000Y-41300D02*
X26925Y-41300D01*
X27000Y-41350D02*
X26875Y-41350D01*
X27000Y-41200D02*
X27000Y-41400D01*
X27000Y-41400D02*
X26800Y-41400D01*
X27000Y-40700D02*
X26925Y-40700D01*
X27000Y-40650D02*
X26875Y-40650D01*
X27000Y-40800D02*
X27000Y-40600D01*
X27000Y-40600D02*
X26800Y-40600D01*
X26800Y-41400D02*
X27000Y-41200D01*
X27000Y-41200D02*
X27000Y-41000D01*
X27000Y-41000D02*
X27000Y-40800D01*
X27000Y-40800D02*
X26800Y-40600D01*
X25850Y-40600D02*
X25500Y-40600D01*
X25500Y-40600D02*
X25500Y-41400D01*
X25500Y-41400D02*
X25850Y-41400D01*
X26475Y-40600D02*
X26800Y-40600D01*
X26475Y-41400D02*
X26800Y-41400D01*
X26325Y-36900D02*
X26325Y-37100D01*
X26175Y-37000D02*
X26325Y-37000D01*
X26325Y-37000D02*
X26175Y-36925D01*
X26175Y-36925D02*
X26175Y-37075D01*
X26175Y-37075D02*
X26325Y-37000D01*
X27000Y-37300D02*
X26925Y-37300D01*
X27000Y-37350D02*
X26875Y-37350D01*
X27000Y-37200D02*
X27000Y-37400D01*
X27000Y-37400D02*
X26800Y-37400D01*
X27000Y-36700D02*
X26925Y-36700D01*
X27000Y-36650D02*
X26875Y-36650D01*
X27000Y-36800D02*
X27000Y-36600D01*
X27000Y-36600D02*
X26800Y-36600D01*
X26800Y-37400D02*
X27000Y-37200D01*
X27000Y-37200D02*
X27000Y-37000D01*
X27000Y-37000D02*
X27000Y-36800D01*
X27000Y-36800D02*
X26800Y-36600D01*
X25850Y-36600D02*
X25500Y-36600D01*
X25500Y-36600D02*
X25500Y-37400D01*
X25500Y-37400D02*
X25850Y-37400D01*
X26475Y-36600D02*
X26800Y-36600D01*
X26475Y-37400D02*
X26800Y-37400D01*
X41325Y-52900D02*
X41325Y-53100D01*
X41175Y-53000D02*
X41325Y-53000D01*
X41325Y-53000D02*
X41175Y-52925D01*
X41175Y-52925D02*
X41175Y-53075D01*
X41175Y-53075D02*
X41325Y-53000D01*
X42000Y-53300D02*
X41925Y-53300D01*
X42000Y-53350D02*
X41875Y-53350D01*
X42000Y-53200D02*
X42000Y-53400D01*
X42000Y-53400D02*
X41800Y-53400D01*
X42000Y-52700D02*
X41925Y-52700D01*
X42000Y-52650D02*
X41875Y-52650D01*
X42000Y-52800D02*
X42000Y-52600D01*
X42000Y-52600D02*
X41800Y-52600D01*
X41800Y-53400D02*
X42000Y-53200D01*
X42000Y-53200D02*
X42000Y-53000D01*
X42000Y-53000D02*
X42000Y-52800D01*
X42000Y-52800D02*
X41800Y-52600D01*
X40850Y-52600D02*
X40500Y-52600D01*
X40500Y-52600D02*
X40500Y-53400D01*
X40500Y-53400D02*
X40850Y-53400D01*
X41475Y-52600D02*
X41800Y-52600D01*
X41475Y-53400D02*
X41800Y-53400D01*
X26325Y-52900D02*
X26325Y-53100D01*
X26175Y-53000D02*
X26325Y-53000D01*
X26325Y-53000D02*
X26175Y-52925D01*
X26175Y-52925D02*
X26175Y-53075D01*
X26175Y-53075D02*
X26325Y-53000D01*
X27000Y-53300D02*
X26925Y-53300D01*
X27000Y-53350D02*
X26875Y-53350D01*
X27000Y-53200D02*
X27000Y-53400D01*
X27000Y-53400D02*
X26800Y-53400D01*
X27000Y-52700D02*
X26925Y-52700D01*
X27000Y-52650D02*
X26875Y-52650D01*
X27000Y-52800D02*
X27000Y-52600D01*
X27000Y-52600D02*
X26800Y-52600D01*
X26800Y-53400D02*
X27000Y-53200D01*
X27000Y-53200D02*
X27000Y-53000D01*
X27000Y-53000D02*
X27000Y-52800D01*
X27000Y-52800D02*
X26800Y-52600D01*
X25850Y-52600D02*
X25500Y-52600D01*
X25500Y-52600D02*
X25500Y-53400D01*
X25500Y-53400D02*
X25850Y-53400D01*
X26475Y-52600D02*
X26800Y-52600D01*
X26475Y-53400D02*
X26800Y-53400D01*
X18575Y-50650D02*
X18575Y-50850D01*
X18425Y-50750D02*
X18575Y-50750D01*
X18575Y-50750D02*
X18425Y-50675D01*
X18425Y-50675D02*
X18425Y-50825D01*
X18425Y-50825D02*
X18575Y-50750D01*
X19250Y-51050D02*
X19175Y-51050D01*
X19250Y-51100D02*
X19125Y-51100D01*
X19250Y-50950D02*
X19250Y-51150D01*
X19250Y-51150D02*
X19050Y-51150D01*
X19250Y-50450D02*
X19175Y-50450D01*
X19250Y-50400D02*
X19125Y-50400D01*
X19250Y-50550D02*
X19250Y-50350D01*
X19250Y-50350D02*
X19050Y-50350D01*
X19050Y-51150D02*
X19250Y-50950D01*
X19250Y-50950D02*
X19250Y-50750D01*
X19250Y-50750D02*
X19250Y-50550D01*
X19250Y-50550D02*
X19050Y-50350D01*
X18100Y-50350D02*
X17750Y-50350D01*
X17750Y-50350D02*
X17750Y-51150D01*
X17750Y-51150D02*
X18100Y-51150D01*
X18725Y-50350D02*
X19050Y-50350D01*
X18725Y-51150D02*
X19050Y-51150D01*
X18575Y-46650D02*
X18575Y-46850D01*
X18425Y-46750D02*
X18575Y-46750D01*
X18575Y-46750D02*
X18425Y-46675D01*
X18425Y-46675D02*
X18425Y-46825D01*
X18425Y-46825D02*
X18575Y-46750D01*
X19250Y-47050D02*
X19175Y-47050D01*
X19250Y-47100D02*
X19125Y-47100D01*
X19250Y-46950D02*
X19250Y-47150D01*
X19250Y-47150D02*
X19050Y-47150D01*
X19250Y-46450D02*
X19175Y-46450D01*
X19250Y-46400D02*
X19125Y-46400D01*
X19250Y-46550D02*
X19250Y-46350D01*
X19250Y-46350D02*
X19050Y-46350D01*
X19050Y-47150D02*
X19250Y-46950D01*
X19250Y-46950D02*
X19250Y-46750D01*
X19250Y-46750D02*
X19250Y-46550D01*
X19250Y-46550D02*
X19050Y-46350D01*
X18100Y-46350D02*
X17750Y-46350D01*
X17750Y-46350D02*
X17750Y-47150D01*
X17750Y-47150D02*
X18100Y-47150D01*
X18725Y-46350D02*
X19050Y-46350D01*
X18725Y-47150D02*
X19050Y-47150D01*
X18575Y-42650D02*
X18575Y-42850D01*
X18425Y-42750D02*
X18575Y-42750D01*
X18575Y-42750D02*
X18425Y-42675D01*
X18425Y-42675D02*
X18425Y-42825D01*
X18425Y-42825D02*
X18575Y-42750D01*
X19250Y-43050D02*
X19175Y-43050D01*
X19250Y-43100D02*
X19125Y-43100D01*
X19250Y-42950D02*
X19250Y-43150D01*
X19250Y-43150D02*
X19050Y-43150D01*
X19250Y-42450D02*
X19175Y-42450D01*
X19250Y-42400D02*
X19125Y-42400D01*
X19250Y-42550D02*
X19250Y-42350D01*
X19250Y-42350D02*
X19050Y-42350D01*
X19050Y-43150D02*
X19250Y-42950D01*
X19250Y-42950D02*
X19250Y-42750D01*
X19250Y-42750D02*
X19250Y-42550D01*
X19250Y-42550D02*
X19050Y-42350D01*
X18100Y-42350D02*
X17750Y-42350D01*
X17750Y-42350D02*
X17750Y-43150D01*
X17750Y-43150D02*
X18100Y-43150D01*
X18725Y-42350D02*
X19050Y-42350D01*
X18725Y-43150D02*
X19050Y-43150D01*
X18575Y-38650D02*
X18575Y-38850D01*
X18425Y-38750D02*
X18575Y-38750D01*
X18575Y-38750D02*
X18425Y-38675D01*
X18425Y-38675D02*
X18425Y-38825D01*
X18425Y-38825D02*
X18575Y-38750D01*
X19250Y-39050D02*
X19175Y-39050D01*
X19250Y-39100D02*
X19125Y-39100D01*
X19250Y-38950D02*
X19250Y-39150D01*
X19250Y-39150D02*
X19050Y-39150D01*
X19250Y-38450D02*
X19175Y-38450D01*
X19250Y-38400D02*
X19125Y-38400D01*
X19250Y-38550D02*
X19250Y-38350D01*
X19250Y-38350D02*
X19050Y-38350D01*
X19050Y-39150D02*
X19250Y-38950D01*
X19250Y-38950D02*
X19250Y-38750D01*
X19250Y-38750D02*
X19250Y-38550D01*
X19250Y-38550D02*
X19050Y-38350D01*
X18100Y-38350D02*
X17750Y-38350D01*
X17750Y-38350D02*
X17750Y-39150D01*
X17750Y-39150D02*
X18100Y-39150D01*
X18725Y-38350D02*
X19050Y-38350D01*
X18725Y-39150D02*
X19050Y-39150D01*
X18575Y-34650D02*
X18575Y-34850D01*
X18425Y-34750D02*
X18575Y-34750D01*
X18575Y-34750D02*
X18425Y-34675D01*
X18425Y-34675D02*
X18425Y-34825D01*
X18425Y-34825D02*
X18575Y-34750D01*
X19250Y-35050D02*
X19175Y-35050D01*
X19250Y-35100D02*
X19125Y-35100D01*
X19250Y-34950D02*
X19250Y-35150D01*
X19250Y-35150D02*
X19050Y-35150D01*
X19250Y-34450D02*
X19175Y-34450D01*
X19250Y-34400D02*
X19125Y-34400D01*
X19250Y-34550D02*
X19250Y-34350D01*
X19250Y-34350D02*
X19050Y-34350D01*
X19050Y-35150D02*
X19250Y-34950D01*
X19250Y-34950D02*
X19250Y-34750D01*
X19250Y-34750D02*
X19250Y-34550D01*
X19250Y-34550D02*
X19050Y-34350D01*
X18100Y-34350D02*
X17750Y-34350D01*
X17750Y-34350D02*
X17750Y-35150D01*
X17750Y-35150D02*
X18100Y-35150D01*
X18725Y-34350D02*
X19050Y-34350D01*
X18725Y-35150D02*
X19050Y-35150D01*
X19600Y-30825D02*
X19400Y-30825D01*
X19500Y-30675D02*
X19500Y-30825D01*
X19500Y-30825D02*
X19575Y-30675D01*
X19575Y-30675D02*
X19425Y-30675D01*
X19425Y-30675D02*
X19500Y-30825D01*
X19200Y-31500D02*
X19200Y-31425D01*
X19150Y-31500D02*
X19150Y-31375D01*
X19300Y-31500D02*
X19100Y-31500D01*
X19100Y-31500D02*
X19100Y-31300D01*
X19800Y-31500D02*
X19800Y-31425D01*
X19850Y-31500D02*
X19850Y-31375D01*
X19700Y-31500D02*
X19900Y-31500D01*
X19900Y-31500D02*
X19900Y-31300D01*
X19100Y-31300D02*
X19300Y-31500D01*
X19300Y-31500D02*
X19500Y-31500D01*
X19500Y-31500D02*
X19700Y-31500D01*
X19700Y-31500D02*
X19900Y-31300D01*
X19900Y-30350D02*
X19900Y-30000D01*
X19900Y-30000D02*
X19100Y-30000D01*
X19100Y-30000D02*
X19100Y-30350D01*
X19900Y-30975D02*
X19900Y-31300D01*
X19100Y-30975D02*
X19100Y-31300D01*
X23600Y-30825D02*
X23400Y-30825D01*
X23500Y-30675D02*
X23500Y-30825D01*
X23500Y-30825D02*
X23575Y-30675D01*
X23575Y-30675D02*
X23425Y-30675D01*
X23425Y-30675D02*
X23500Y-30825D01*
X23200Y-31500D02*
X23200Y-31425D01*
X23150Y-31500D02*
X23150Y-31375D01*
X23300Y-31500D02*
X23100Y-31500D01*
X23100Y-31500D02*
X23100Y-31300D01*
X23800Y-31500D02*
X23800Y-31425D01*
X23850Y-31500D02*
X23850Y-31375D01*
X23700Y-31500D02*
X23900Y-31500D01*
X23900Y-31500D02*
X23900Y-31300D01*
X23100Y-31300D02*
X23300Y-31500D01*
X23300Y-31500D02*
X23500Y-31500D01*
X23500Y-31500D02*
X23700Y-31500D01*
X23700Y-31500D02*
X23900Y-31300D01*
X23900Y-30350D02*
X23900Y-30000D01*
X23900Y-30000D02*
X23100Y-30000D01*
X23100Y-30000D02*
X23100Y-30350D01*
X23900Y-30975D02*
X23900Y-31300D01*
X23100Y-30975D02*
X23100Y-31300D01*
X27600Y-30825D02*
X27400Y-30825D01*
X27500Y-30675D02*
X27500Y-30825D01*
X27500Y-30825D02*
X27575Y-30675D01*
X27575Y-30675D02*
X27425Y-30675D01*
X27425Y-30675D02*
X27500Y-30825D01*
X27200Y-31500D02*
X27200Y-31425D01*
X27150Y-31500D02*
X27150Y-31375D01*
X27300Y-31500D02*
X27100Y-31500D01*
X27100Y-31500D02*
X27100Y-31300D01*
X27800Y-31500D02*
X27800Y-31425D01*
X27850Y-31500D02*
X27850Y-31375D01*
X27700Y-31500D02*
X27900Y-31500D01*
X27900Y-31500D02*
X27900Y-31300D01*
X27100Y-31300D02*
X27300Y-31500D01*
X27300Y-31500D02*
X27500Y-31500D01*
X27500Y-31500D02*
X27700Y-31500D01*
X27700Y-31500D02*
X27900Y-31300D01*
X27900Y-30350D02*
X27900Y-30000D01*
X27900Y-30000D02*
X27100Y-30000D01*
X27100Y-30000D02*
X27100Y-30350D01*
X27900Y-30975D02*
X27900Y-31300D01*
X27100Y-30975D02*
X27100Y-31300D01*
X33800Y-29350D02*
X33800Y-29550D01*
X33650Y-29450D02*
X33800Y-29450D01*
X33800Y-29450D02*
X33650Y-29375D01*
X33650Y-29375D02*
X33650Y-29525D01*
X33650Y-29525D02*
X33800Y-29450D01*
X34475Y-29750D02*
X34400Y-29750D01*
X34475Y-29800D02*
X34350Y-29800D01*
X34475Y-29650D02*
X34475Y-29850D01*
X34475Y-29850D02*
X34275Y-29850D01*
X34475Y-29150D02*
X34400Y-29150D01*
X34475Y-29100D02*
X34350Y-29100D01*
X34475Y-29250D02*
X34475Y-29050D01*
X34475Y-29050D02*
X34275Y-29050D01*
X34275Y-29850D02*
X34475Y-29650D01*
X34475Y-29650D02*
X34475Y-29450D01*
X34475Y-29450D02*
X34475Y-29250D01*
X34475Y-29250D02*
X34275Y-29050D01*
X33325Y-29050D02*
X32975Y-29050D01*
X32975Y-29050D02*
X32975Y-29850D01*
X32975Y-29850D02*
X33325Y-29850D01*
X33950Y-29050D02*
X34275Y-29050D01*
X33950Y-29850D02*
X34275Y-29850D01*
X33725Y-32700D02*
X33725Y-32900D01*
X33575Y-32800D02*
X33725Y-32800D01*
X33725Y-32800D02*
X33575Y-32725D01*
X33575Y-32725D02*
X33575Y-32875D01*
X33575Y-32875D02*
X33725Y-32800D01*
X34400Y-33100D02*
X34325Y-33100D01*
X34400Y-33150D02*
X34275Y-33150D01*
X34400Y-33000D02*
X34400Y-33200D01*
X34400Y-33200D02*
X34200Y-33200D01*
X34400Y-32500D02*
X34325Y-32500D01*
X34400Y-32450D02*
X34275Y-32450D01*
X34400Y-32600D02*
X34400Y-32400D01*
X34400Y-32400D02*
X34200Y-32400D01*
X34200Y-33200D02*
X34400Y-33000D01*
X34400Y-33000D02*
X34400Y-32800D01*
X34400Y-32800D02*
X34400Y-32600D01*
X34400Y-32600D02*
X34200Y-32400D01*
X33250Y-32400D02*
X32900Y-32400D01*
X32900Y-32400D02*
X32900Y-33200D01*
X32900Y-33200D02*
X33250Y-33200D01*
X33875Y-32400D02*
X34200Y-32400D01*
X33875Y-33200D02*
X34200Y-33200D01*
X33800Y-25650D02*
X33800Y-25850D01*
X33650Y-25750D02*
X33800Y-25750D01*
X33800Y-25750D02*
X33650Y-25675D01*
X33650Y-25675D02*
X33650Y-25825D01*
X33650Y-25825D02*
X33800Y-25750D01*
X34475Y-26050D02*
X34400Y-26050D01*
X34475Y-26100D02*
X34350Y-26100D01*
X34475Y-25950D02*
X34475Y-26150D01*
X34475Y-26150D02*
X34275Y-26150D01*
X34475Y-25450D02*
X34400Y-25450D01*
X34475Y-25400D02*
X34350Y-25400D01*
X34475Y-25550D02*
X34475Y-25350D01*
X34475Y-25350D02*
X34275Y-25350D01*
X34275Y-26150D02*
X34475Y-25950D01*
X34475Y-25950D02*
X34475Y-25750D01*
X34475Y-25750D02*
X34475Y-25550D01*
X34475Y-25550D02*
X34275Y-25350D01*
X33325Y-25350D02*
X32975Y-25350D01*
X32975Y-25350D02*
X32975Y-26150D01*
X32975Y-26150D02*
X33325Y-26150D01*
X33950Y-25350D02*
X34275Y-25350D01*
X33950Y-26150D02*
X34275Y-26150D01*
X33725Y-22550D02*
X33725Y-22750D01*
X33575Y-22650D02*
X33725Y-22650D01*
X33725Y-22650D02*
X33575Y-22575D01*
X33575Y-22575D02*
X33575Y-22725D01*
X33575Y-22725D02*
X33725Y-22650D01*
X34400Y-22950D02*
X34325Y-22950D01*
X34400Y-23000D02*
X34275Y-23000D01*
X34400Y-22850D02*
X34400Y-23050D01*
X34400Y-23050D02*
X34200Y-23050D01*
X34400Y-22350D02*
X34325Y-22350D01*
X34400Y-22300D02*
X34275Y-22300D01*
X34400Y-22450D02*
X34400Y-22250D01*
X34400Y-22250D02*
X34200Y-22250D01*
X34200Y-23050D02*
X34400Y-22850D01*
X34400Y-22850D02*
X34400Y-22650D01*
X34400Y-22650D02*
X34400Y-22450D01*
X34400Y-22450D02*
X34200Y-22250D01*
X33250Y-22250D02*
X32900Y-22250D01*
X32900Y-22250D02*
X32900Y-23050D01*
X32900Y-23050D02*
X33250Y-23050D01*
X33875Y-22250D02*
X34200Y-22250D01*
X33875Y-23050D02*
X34200Y-23050D01*
X33725Y-18550D02*
X33725Y-18750D01*
X33575Y-18650D02*
X33725Y-18650D01*
X33725Y-18650D02*
X33575Y-18575D01*
X33575Y-18575D02*
X33575Y-18725D01*
X33575Y-18725D02*
X33725Y-18650D01*
X34400Y-18950D02*
X34325Y-18950D01*
X34400Y-19000D02*
X34275Y-19000D01*
X34400Y-18850D02*
X34400Y-19050D01*
X34400Y-19050D02*
X34200Y-19050D01*
X34400Y-18350D02*
X34325Y-18350D01*
X34400Y-18300D02*
X34275Y-18300D01*
X34400Y-18450D02*
X34400Y-18250D01*
X34400Y-18250D02*
X34200Y-18250D01*
X34200Y-19050D02*
X34400Y-18850D01*
X34400Y-18850D02*
X34400Y-18650D01*
X34400Y-18650D02*
X34400Y-18450D01*
X34400Y-18450D02*
X34200Y-18250D01*
X33250Y-18250D02*
X32900Y-18250D01*
X32900Y-18250D02*
X32900Y-19050D01*
X32900Y-19050D02*
X33250Y-19050D01*
X33875Y-18250D02*
X34200Y-18250D01*
X33875Y-19050D02*
X34200Y-19050D01*
X33925Y-14775D02*
X33925Y-14975D01*
X33775Y-14875D02*
X33925Y-14875D01*
X33925Y-14875D02*
X33775Y-14800D01*
X33775Y-14800D02*
X33775Y-14950D01*
X33775Y-14950D02*
X33925Y-14875D01*
X34600Y-15175D02*
X34525Y-15175D01*
X34600Y-15225D02*
X34475Y-15225D01*
X34600Y-15075D02*
X34600Y-15275D01*
X34600Y-15275D02*
X34400Y-15275D01*
X34600Y-14575D02*
X34525Y-14575D01*
X34600Y-14525D02*
X34475Y-14525D01*
X34600Y-14675D02*
X34600Y-14475D01*
X34600Y-14475D02*
X34400Y-14475D01*
X34400Y-15275D02*
X34600Y-15075D01*
X34600Y-15075D02*
X34600Y-14875D01*
X34600Y-14875D02*
X34600Y-14675D01*
X34600Y-14675D02*
X34400Y-14475D01*
X33450Y-14475D02*
X33100Y-14475D01*
X33100Y-14475D02*
X33100Y-15275D01*
X33100Y-15275D02*
X33450Y-15275D01*
X34075Y-14475D02*
X34400Y-14475D01*
X34075Y-15275D02*
X34400Y-15275D01*
X41500Y-56925D02*
X41500Y-57025D01*
X41300Y-56925D02*
X41300Y-57025D01*
X41450Y-56925D02*
X41450Y-57125D01*
X41350Y-56925D02*
X41350Y-57125D01*
X41400Y-57225D02*
X41400Y-56925D01*
X41400Y-57225D02*
X41550Y-56925D01*
X41550Y-56925D02*
X41250Y-56925D01*
X41250Y-56925D02*
X41400Y-57225D01*
X41050Y-58375D02*
X41050Y-58275D01*
X41000Y-58375D02*
X41000Y-58225D01*
X40950Y-58375D02*
X40950Y-58175D01*
X41750Y-58375D02*
X41750Y-58275D01*
X41800Y-58375D02*
X41800Y-58225D01*
X41850Y-58375D02*
X41850Y-58175D01*
X41750Y-57375D02*
X41750Y-57475D01*
X41800Y-57375D02*
X41800Y-57525D01*
X41850Y-57375D02*
X41850Y-57575D01*
X41050Y-57375D02*
X41050Y-57475D01*
X41000Y-57375D02*
X41000Y-57525D01*
X40950Y-57375D02*
X40950Y-57575D01*
X40900Y-58125D02*
X41150Y-58375D01*
X41650Y-58375D02*
X41900Y-58125D01*
X40900Y-58375D02*
X41150Y-58375D01*
X41150Y-58375D02*
X41650Y-58375D01*
X41650Y-58375D02*
X41900Y-58375D01*
X40900Y-58375D02*
X40900Y-58125D01*
X40900Y-58125D02*
X40900Y-57625D01*
X41650Y-57375D02*
X41900Y-57375D01*
X41900Y-57375D02*
X41900Y-57625D01*
X40900Y-57625D02*
X40900Y-57375D01*
X40900Y-57375D02*
X41150Y-57375D01*
X39650Y-59375D02*
X39150Y-59375D01*
X40650Y-59375D02*
X40150Y-59375D01*
X41650Y-59375D02*
X41150Y-59375D01*
X41900Y-57625D02*
X41900Y-59125D01*
X41150Y-57375D02*
X41650Y-57375D01*
X40150Y-57375D02*
X40650Y-57375D01*
X39150Y-57375D02*
X39650Y-57375D01*
X38900Y-59125D02*
X38900Y-57625D01*
X41650Y-57375D02*
X41900Y-57625D01*
X40650Y-57375D02*
X40900Y-57625D01*
X40900Y-57625D02*
X41150Y-57375D01*
X39650Y-57375D02*
X39900Y-57625D01*
X39900Y-57625D02*
X40150Y-57375D01*
X38900Y-57625D02*
X39150Y-57375D01*
X39150Y-59375D02*
X38900Y-59125D01*
X40150Y-59375D02*
X39900Y-59125D01*
X39900Y-59125D02*
X39650Y-59375D01*
X41150Y-59375D02*
X40900Y-59125D01*
X40900Y-59125D02*
X40650Y-59375D01*
X41900Y-59125D02*
X41650Y-59375D01*
X32325Y-58800D02*
X32225Y-58800D01*
X32225Y-59000D02*
X32325Y-59000D01*
X32425Y-58950D02*
X32225Y-58950D01*
X32225Y-58850D02*
X32425Y-58850D01*
X32525Y-58900D02*
X32225Y-58750D01*
X32225Y-58750D02*
X32225Y-59050D01*
X32225Y-59050D02*
X32525Y-58900D01*
X32525Y-58900D02*
X32225Y-58900D01*
X33475Y-58425D02*
X33475Y-58475D01*
X33525Y-58425D02*
X33525Y-58525D01*
X33575Y-58425D02*
X33575Y-58575D01*
X32775Y-58425D02*
X32775Y-58475D01*
X32725Y-58425D02*
X32725Y-58525D01*
X32675Y-58425D02*
X32675Y-58575D01*
X32775Y-59375D02*
X32775Y-59325D01*
X32725Y-59375D02*
X32725Y-59275D01*
X32675Y-59375D02*
X32675Y-59225D01*
X33475Y-59375D02*
X33475Y-59325D01*
X33525Y-59375D02*
X33525Y-59300D01*
X33575Y-59375D02*
X33575Y-59225D01*
X33375Y-58400D02*
X33600Y-58400D01*
X33600Y-58400D02*
X33625Y-58400D01*
X33625Y-58400D02*
X33625Y-58625D01*
X32625Y-58650D02*
X32625Y-58400D01*
X32625Y-58400D02*
X32875Y-58400D01*
X33625Y-59150D02*
X33625Y-59400D01*
X33625Y-59400D02*
X33375Y-59400D01*
X32625Y-59150D02*
X32625Y-59400D01*
X32625Y-59400D02*
X32875Y-59400D01*
X33625Y-58650D02*
X33625Y-59150D01*
X32625Y-58650D02*
X32625Y-59150D01*
X32625Y-59150D02*
X32875Y-59400D01*
X32875Y-59400D02*
X33375Y-59400D01*
X33375Y-59400D02*
X33625Y-59150D01*
X33625Y-59150D02*
X33875Y-59400D01*
X33875Y-59400D02*
X34375Y-59400D01*
X34375Y-59400D02*
X34625Y-59150D01*
X34625Y-59150D02*
X34875Y-59400D01*
X34875Y-59400D02*
X35375Y-59400D01*
X35375Y-59400D02*
X35625Y-59150D01*
X35625Y-59150D02*
X35875Y-59400D01*
X35875Y-59400D02*
X36375Y-59400D01*
X36375Y-59400D02*
X36625Y-59150D01*
X36625Y-59150D02*
X36875Y-59400D01*
X36875Y-59400D02*
X37375Y-59400D01*
X37375Y-59400D02*
X37625Y-59150D01*
X37625Y-59150D02*
X37875Y-59400D01*
X37875Y-59400D02*
X38375Y-59400D01*
X38375Y-59400D02*
X38625Y-59150D01*
X38625Y-59150D02*
X38625Y-58650D01*
X38625Y-58650D02*
X38375Y-58400D01*
X38375Y-58400D02*
X37875Y-58400D01*
X37875Y-58400D02*
X37625Y-58650D01*
X37625Y-58650D02*
X37375Y-58400D01*
X37375Y-58400D02*
X36875Y-58400D01*
X36875Y-58400D02*
X36625Y-58650D01*
X36625Y-58650D02*
X36375Y-58400D01*
X36375Y-58400D02*
X35875Y-58400D01*
X35875Y-58400D02*
X35625Y-58650D01*
X35625Y-58650D02*
X35375Y-58400D01*
X35375Y-58400D02*
X34875Y-58400D01*
X34875Y-58400D02*
X34625Y-58650D01*
X34625Y-58650D02*
X34375Y-58400D01*
X34375Y-58400D02*
X33875Y-58400D01*
X33875Y-58400D02*
X33625Y-58650D01*
X33625Y-58650D02*
X33375Y-58400D01*
X33375Y-58400D02*
X32875Y-58400D01*
X32875Y-58400D02*
X32625Y-58650D01*
G54D11*
X26350Y-52100D02*
X26350Y-51925D01*
X26250Y-52100D02*
X26250Y-51825D01*
X26150Y-51725D02*
X26525Y-52100D01*
X26225Y-51600D02*
X26225Y-50850D01*
X26325Y-50850D02*
X26325Y-51600D01*
X26425Y-51600D02*
X26425Y-50850D01*
X26150Y-50850D02*
X26525Y-50850D01*
X26525Y-50850D02*
X26525Y-51600D01*
X26525Y-51600D02*
X26150Y-51600D01*
X41150Y-52100D02*
X41150Y-50350D01*
X26150Y-52100D02*
X26150Y-50350D01*
X26150Y-50350D02*
X41150Y-50350D01*
X41150Y-52100D02*
X26150Y-52100D01*
G54D10*
X38425Y-58000D02*
X37725Y-58000D01*
X38425Y-57150D02*
X37725Y-57150D01*
X37275Y-58000D02*
X36925Y-58000D01*
X36925Y-57150D02*
X37275Y-57150D01*
X37725Y-57150D02*
X37725Y-58000D01*
X38425Y-57150D02*
X38425Y-58000D01*
X36925Y-57150D02*
X36925Y-58000D01*
X34450Y-51525D02*
X33750Y-51525D01*
X34450Y-50675D02*
X33750Y-50675D01*
X33300Y-51525D02*
X32950Y-51525D01*
X32950Y-50675D02*
X33300Y-50675D01*
X33750Y-50675D02*
X33750Y-51525D01*
X34450Y-50675D02*
X34450Y-51525D01*
X32950Y-50675D02*
X32950Y-51525D01*
G54D11*
X51500Y-58750D02*
X51500Y-59250D01*
X46500Y-58750D02*
X46500Y-59250D01*
X46500Y-58750D02*
X46750Y-58500D01*
X46750Y-58500D02*
X47250Y-58500D01*
X47250Y-58500D02*
X47500Y-58750D01*
X47500Y-58750D02*
X47750Y-58500D01*
X47750Y-58500D02*
X48250Y-58500D01*
X48250Y-58500D02*
X48500Y-58750D01*
X48500Y-58750D02*
X48750Y-58500D01*
X48750Y-58500D02*
X49250Y-58500D01*
X49250Y-58500D02*
X49500Y-58750D01*
X49500Y-58750D02*
X49750Y-58500D01*
X49750Y-58500D02*
X50250Y-58500D01*
X50250Y-58500D02*
X50500Y-58750D01*
X50500Y-58750D02*
X50750Y-58500D01*
X50750Y-58500D02*
X51250Y-58500D01*
X51250Y-58500D02*
X51500Y-58750D01*
X51500Y-59250D02*
X51250Y-59500D01*
X51250Y-59500D02*
X50750Y-59500D01*
X50750Y-59500D02*
X50500Y-59250D01*
X50500Y-59250D02*
X50250Y-59500D01*
X50250Y-59500D02*
X49750Y-59500D01*
X49750Y-59500D02*
X49500Y-59250D01*
X49500Y-59250D02*
X49250Y-59500D01*
X49250Y-59500D02*
X48750Y-59500D01*
X48750Y-59500D02*
X48500Y-59250D01*
X48500Y-59250D02*
X48250Y-59500D01*
X48250Y-59500D02*
X47750Y-59500D01*
X47750Y-59500D02*
X47500Y-59250D01*
X47500Y-59250D02*
X47250Y-59500D01*
X47250Y-59500D02*
X46750Y-59500D01*
X46750Y-59500D02*
X46500Y-59250D01*
X46500Y-59250D02*
X46500Y-59500D01*
X46500Y-59500D02*
X45500Y-59500D01*
X45500Y-59500D02*
X45500Y-58525D01*
X45500Y-58525D02*
X45500Y-58500D01*
X45500Y-58500D02*
X46500Y-58500D01*
X46500Y-58500D02*
X46500Y-58750D01*
X51500Y-57750D02*
X51500Y-58250D01*
X46500Y-57750D02*
X46500Y-58250D01*
X46500Y-57750D02*
X46750Y-57500D01*
X46750Y-57500D02*
X47250Y-57500D01*
X47250Y-57500D02*
X47500Y-57750D01*
X47500Y-57750D02*
X47750Y-57500D01*
X47750Y-57500D02*
X48250Y-57500D01*
X48250Y-57500D02*
X48500Y-57750D01*
X48500Y-57750D02*
X48750Y-57500D01*
X48750Y-57500D02*
X49250Y-57500D01*
X49250Y-57500D02*
X49500Y-57750D01*
X49500Y-57750D02*
X49750Y-57500D01*
X49750Y-57500D02*
X50250Y-57500D01*
X50250Y-57500D02*
X50500Y-57750D01*
X50500Y-57750D02*
X50750Y-57500D01*
X50750Y-57500D02*
X51250Y-57500D01*
X51250Y-57500D02*
X51500Y-57750D01*
X51500Y-58250D02*
X51250Y-58500D01*
X51250Y-58500D02*
X50750Y-58500D01*
X50750Y-58500D02*
X50500Y-58250D01*
X50500Y-58250D02*
X50250Y-58500D01*
X50250Y-58500D02*
X49750Y-58500D01*
X49750Y-58500D02*
X49500Y-58250D01*
X49500Y-58250D02*
X49250Y-58500D01*
X49250Y-58500D02*
X48750Y-58500D01*
X48750Y-58500D02*
X48500Y-58250D01*
X48500Y-58250D02*
X48250Y-58500D01*
X48250Y-58500D02*
X47750Y-58500D01*
X47750Y-58500D02*
X47500Y-58250D01*
X47500Y-58250D02*
X47250Y-58500D01*
X47250Y-58500D02*
X46750Y-58500D01*
X46750Y-58500D02*
X46500Y-58250D01*
X46500Y-58250D02*
X46500Y-58500D01*
X46500Y-58500D02*
X45500Y-58500D01*
X45500Y-58500D02*
X45500Y-57525D01*
X45500Y-57525D02*
X45500Y-57500D01*
X45500Y-57500D02*
X46500Y-57500D01*
X46500Y-57500D02*
X46500Y-57750D01*
X38525Y-14750D02*
X38525Y-14250D01*
X43525Y-14750D02*
X43525Y-14250D01*
X43525Y-14750D02*
X43275Y-15000D01*
X43275Y-15000D02*
X42775Y-15000D01*
X42775Y-15000D02*
X42525Y-14750D01*
X42525Y-14750D02*
X42275Y-15000D01*
X42275Y-15000D02*
X41775Y-15000D01*
X41775Y-15000D02*
X41525Y-14750D01*
X41525Y-14750D02*
X41275Y-15000D01*
X41275Y-15000D02*
X40775Y-15000D01*
X40775Y-15000D02*
X40525Y-14750D01*
X40525Y-14750D02*
X40275Y-15000D01*
X40275Y-15000D02*
X39775Y-15000D01*
X39775Y-15000D02*
X39525Y-14750D01*
X39525Y-14750D02*
X39275Y-15000D01*
X39275Y-15000D02*
X38775Y-15000D01*
X38775Y-15000D02*
X38525Y-14750D01*
X38525Y-14250D02*
X38775Y-14000D01*
X38775Y-14000D02*
X39275Y-14000D01*
X39275Y-14000D02*
X39525Y-14250D01*
X39525Y-14250D02*
X39775Y-14000D01*
X39775Y-14000D02*
X40275Y-14000D01*
X40275Y-14000D02*
X40525Y-14250D01*
X40525Y-14250D02*
X40775Y-14000D01*
X40775Y-14000D02*
X41275Y-14000D01*
X41275Y-14000D02*
X41525Y-14250D01*
X41525Y-14250D02*
X41775Y-14000D01*
X41775Y-14000D02*
X42275Y-14000D01*
X42275Y-14000D02*
X42525Y-14250D01*
X42525Y-14250D02*
X42775Y-14000D01*
X42775Y-14000D02*
X43275Y-14000D01*
X43275Y-14000D02*
X43525Y-14250D01*
X43525Y-14250D02*
X43525Y-14000D01*
X43525Y-14000D02*
X44525Y-14000D01*
X44525Y-14000D02*
X44525Y-14975D01*
X44525Y-14975D02*
X44525Y-15000D01*
X44525Y-15000D02*
X43525Y-15000D01*
X43525Y-15000D02*
X43525Y-14750D01*
X38525Y-13750D02*
X38525Y-13250D01*
X43525Y-13750D02*
X43525Y-13250D01*
X43525Y-13750D02*
X43275Y-14000D01*
X43275Y-14000D02*
X42775Y-14000D01*
X42775Y-14000D02*
X42525Y-13750D01*
X42525Y-13750D02*
X42275Y-14000D01*
X42275Y-14000D02*
X41775Y-14000D01*
X41775Y-14000D02*
X41525Y-13750D01*
X41525Y-13750D02*
X41275Y-14000D01*
X41275Y-14000D02*
X40775Y-14000D01*
X40775Y-14000D02*
X40525Y-13750D01*
X40525Y-13750D02*
X40275Y-14000D01*
X40275Y-14000D02*
X39775Y-14000D01*
X39775Y-14000D02*
X39525Y-13750D01*
X39525Y-13750D02*
X39275Y-14000D01*
X39275Y-14000D02*
X38775Y-14000D01*
X38775Y-14000D02*
X38525Y-13750D01*
X38525Y-13250D02*
X38775Y-13000D01*
X38775Y-13000D02*
X39275Y-13000D01*
X39275Y-13000D02*
X39525Y-13250D01*
X39525Y-13250D02*
X39775Y-13000D01*
X39775Y-13000D02*
X40275Y-13000D01*
X40275Y-13000D02*
X40525Y-13250D01*
X40525Y-13250D02*
X40775Y-13000D01*
X40775Y-13000D02*
X41275Y-13000D01*
X41275Y-13000D02*
X41525Y-13250D01*
X41525Y-13250D02*
X41775Y-13000D01*
X41775Y-13000D02*
X42275Y-13000D01*
X42275Y-13000D02*
X42525Y-13250D01*
X42525Y-13250D02*
X42775Y-13000D01*
X42775Y-13000D02*
X43275Y-13000D01*
X43275Y-13000D02*
X43525Y-13250D01*
X43525Y-13250D02*
X43525Y-13000D01*
X43525Y-13000D02*
X44525Y-13000D01*
X44525Y-13000D02*
X44525Y-13975D01*
X44525Y-13975D02*
X44525Y-14000D01*
X44525Y-14000D02*
X43525Y-14000D01*
X43525Y-14000D02*
X43525Y-13750D01*
G54D14*
X23650Y-56250D02*
X24850Y-56250D01*
X24850Y-56250D02*
X24850Y-53450D01*
X24850Y-53450D02*
X23650Y-53450D01*
X22450Y-56250D02*
X22150Y-56250D01*
X22150Y-56250D02*
X21250Y-55650D01*
X21250Y-55650D02*
X21250Y-54050D01*
X21250Y-54050D02*
X22150Y-53450D01*
X22150Y-53450D02*
X22450Y-53450D01*
G54D12*
X36487Y-53474D02*
X36887Y-53207D01*
X36487Y-53207D02*
X36887Y-53474D01*
X36887Y-52845D02*
X36887Y-53074D01*
X36887Y-52960D02*
X36487Y-52960D01*
X36544Y-52998D01*
X36582Y-53036D01*
X36601Y-53074D01*
X36218Y-55221D02*
X36046Y-55221D01*
X36132Y-55221D02*
X36132Y-54921D01*
X36103Y-54964D01*
X36075Y-54993D01*
X36046Y-55007D01*
X36475Y-54921D02*
X36418Y-54921D01*
X36389Y-54936D01*
X36375Y-54950D01*
X36346Y-54993D01*
X36332Y-55050D01*
X36332Y-55164D01*
X36346Y-55193D01*
X36361Y-55207D01*
X36389Y-55221D01*
X36446Y-55221D01*
X36475Y-55207D01*
X36489Y-55193D01*
X36504Y-55164D01*
X36504Y-55093D01*
X36489Y-55064D01*
X36475Y-55050D01*
X36446Y-55036D01*
X36389Y-55036D01*
X36361Y-55050D01*
X36346Y-55064D01*
X36332Y-55093D01*
X36632Y-55221D02*
X36632Y-54921D01*
X36732Y-55136D01*
X36832Y-54921D01*
X36832Y-55221D01*
X36975Y-55221D02*
X36975Y-54921D01*
X36975Y-55064D02*
X37147Y-55064D01*
X37147Y-55221D02*
X37147Y-54921D01*
X37261Y-55021D02*
X37418Y-55021D01*
X37261Y-55221D01*
X37418Y-55221D01*
G54D10*
X36237Y-57320D02*
X35837Y-57320D01*
X35837Y-57167D01*
X35856Y-57129D01*
X35875Y-57110D01*
X35913Y-57091D01*
X35970Y-57091D01*
X36008Y-57110D01*
X36027Y-57129D01*
X36046Y-57167D01*
X36046Y-57320D01*
X35875Y-56939D02*
X35856Y-56920D01*
X35837Y-56882D01*
X35837Y-56786D01*
X35856Y-56748D01*
X35875Y-56729D01*
X35913Y-56710D01*
X35951Y-56710D01*
X36008Y-56729D01*
X36237Y-56958D01*
X36237Y-56710D01*
X58912Y-14595D02*
X58512Y-14595D01*
X58512Y-14442D01*
X58531Y-14404D01*
X58550Y-14385D01*
X58588Y-14366D01*
X58645Y-14366D01*
X58683Y-14385D01*
X58702Y-14404D01*
X58721Y-14442D01*
X58721Y-14595D01*
X58912Y-13985D02*
X58912Y-14214D01*
X58912Y-14100D02*
X58512Y-14100D01*
X58569Y-14138D01*
X58607Y-14176D01*
X58626Y-14214D01*
X14718Y-31433D02*
X14737Y-31376D01*
X14737Y-31280D01*
X14718Y-31242D01*
X14699Y-31223D01*
X14661Y-31204D01*
X14623Y-31204D01*
X14585Y-31223D01*
X14565Y-31242D01*
X14546Y-31280D01*
X14527Y-31357D01*
X14508Y-31395D01*
X14489Y-31414D01*
X14451Y-31433D01*
X14413Y-31433D01*
X14375Y-31414D01*
X14356Y-31395D01*
X14337Y-31357D01*
X14337Y-31261D01*
X14356Y-31204D01*
X14337Y-31071D02*
X14737Y-30976D01*
X14451Y-30899D01*
X14737Y-30823D01*
X14337Y-30728D01*
X14337Y-30404D02*
X14337Y-30481D01*
X14356Y-30519D01*
X14375Y-30538D01*
X14432Y-30576D01*
X14508Y-30595D01*
X14661Y-30595D01*
X14699Y-30576D01*
X14718Y-30557D01*
X14737Y-30519D01*
X14737Y-30442D01*
X14718Y-30404D01*
X14699Y-30385D01*
X14661Y-30366D01*
X14565Y-30366D01*
X14527Y-30385D01*
X14508Y-30404D01*
X14489Y-30442D01*
X14489Y-30519D01*
X14508Y-30557D01*
X14527Y-30576D01*
X14565Y-30595D01*
X14037Y-27893D02*
X14094Y-27912D01*
X14190Y-27912D01*
X14228Y-27893D01*
X14247Y-27874D01*
X14266Y-27836D01*
X14266Y-27798D01*
X14247Y-27760D01*
X14228Y-27740D01*
X14190Y-27721D01*
X14113Y-27702D01*
X14075Y-27683D01*
X14056Y-27664D01*
X14037Y-27626D01*
X14037Y-27588D01*
X14056Y-27550D01*
X14075Y-27531D01*
X14113Y-27512D01*
X14209Y-27512D01*
X14266Y-27531D01*
X14399Y-27512D02*
X14494Y-27912D01*
X14571Y-27626D01*
X14647Y-27912D01*
X14742Y-27512D01*
X14799Y-27950D02*
X15104Y-27950D01*
X15199Y-27702D02*
X15333Y-27702D01*
X15390Y-27912D02*
X15199Y-27912D01*
X15199Y-27512D01*
X15390Y-27512D01*
X15561Y-27912D02*
X15561Y-27512D01*
X15790Y-27912D01*
X15790Y-27512D01*
X15923Y-27512D02*
X16152Y-27512D01*
X16037Y-27912D02*
X16037Y-27512D01*
X14693Y-38733D02*
X14712Y-38676D01*
X14712Y-38580D01*
X14693Y-38542D01*
X14674Y-38523D01*
X14636Y-38504D01*
X14598Y-38504D01*
X14560Y-38523D01*
X14540Y-38542D01*
X14521Y-38580D01*
X14502Y-38657D01*
X14483Y-38695D01*
X14464Y-38714D01*
X14426Y-38733D01*
X14388Y-38733D01*
X14350Y-38714D01*
X14331Y-38695D01*
X14312Y-38657D01*
X14312Y-38561D01*
X14331Y-38504D01*
X14312Y-38371D02*
X14712Y-38276D01*
X14426Y-38199D01*
X14712Y-38123D01*
X14312Y-38028D01*
X14312Y-37685D02*
X14312Y-37876D01*
X14502Y-37895D01*
X14483Y-37876D01*
X14464Y-37838D01*
X14464Y-37742D01*
X14483Y-37704D01*
X14502Y-37685D01*
X14540Y-37666D01*
X14636Y-37666D01*
X14674Y-37685D01*
X14693Y-37704D01*
X14712Y-37742D01*
X14712Y-37838D01*
X14693Y-37876D01*
X14674Y-37895D01*
X13974Y-35193D02*
X14031Y-35212D01*
X14127Y-35212D01*
X14165Y-35193D01*
X14184Y-35174D01*
X14203Y-35136D01*
X14203Y-35098D01*
X14184Y-35060D01*
X14165Y-35040D01*
X14127Y-35021D01*
X14050Y-35002D01*
X14012Y-34983D01*
X13993Y-34964D01*
X13974Y-34926D01*
X13974Y-34888D01*
X13993Y-34850D01*
X14012Y-34831D01*
X14050Y-34812D01*
X14146Y-34812D01*
X14203Y-34831D01*
X14336Y-34812D02*
X14431Y-35212D01*
X14508Y-34926D01*
X14584Y-35212D01*
X14679Y-34812D01*
X14736Y-35250D02*
X15041Y-35250D01*
X15136Y-35212D02*
X15136Y-34812D01*
X15231Y-34812D01*
X15289Y-34831D01*
X15327Y-34869D01*
X15346Y-34907D01*
X15365Y-34983D01*
X15365Y-35040D01*
X15346Y-35117D01*
X15327Y-35155D01*
X15289Y-35193D01*
X15231Y-35212D01*
X15136Y-35212D01*
X15536Y-35002D02*
X15670Y-35002D01*
X15727Y-35212D02*
X15536Y-35212D01*
X15536Y-34812D01*
X15727Y-34812D01*
X16127Y-35174D02*
X16108Y-35193D01*
X16051Y-35212D01*
X16013Y-35212D01*
X15955Y-35193D01*
X15917Y-35155D01*
X15898Y-35117D01*
X15879Y-35040D01*
X15879Y-34983D01*
X15898Y-34907D01*
X15917Y-34869D01*
X15955Y-34831D01*
X16013Y-34812D01*
X16051Y-34812D01*
X16108Y-34831D01*
X16127Y-34850D01*
X14718Y-42658D02*
X14737Y-42601D01*
X14737Y-42505D01*
X14718Y-42467D01*
X14699Y-42448D01*
X14661Y-42429D01*
X14623Y-42429D01*
X14585Y-42448D01*
X14565Y-42467D01*
X14546Y-42505D01*
X14527Y-42582D01*
X14508Y-42620D01*
X14489Y-42639D01*
X14451Y-42658D01*
X14413Y-42658D01*
X14375Y-42639D01*
X14356Y-42620D01*
X14337Y-42582D01*
X14337Y-42486D01*
X14356Y-42429D01*
X14337Y-42296D02*
X14737Y-42201D01*
X14451Y-42124D01*
X14737Y-42048D01*
X14337Y-41953D01*
X14470Y-41629D02*
X14737Y-41629D01*
X14318Y-41725D02*
X14604Y-41820D01*
X14604Y-41572D01*
X14075Y-39118D02*
X14132Y-39137D01*
X14228Y-39137D01*
X14266Y-39118D01*
X14285Y-39099D01*
X14304Y-39061D01*
X14304Y-39023D01*
X14285Y-38985D01*
X14266Y-38965D01*
X14228Y-38946D01*
X14151Y-38927D01*
X14113Y-38908D01*
X14094Y-38889D01*
X14075Y-38851D01*
X14075Y-38813D01*
X14094Y-38775D01*
X14113Y-38756D01*
X14151Y-38737D01*
X14247Y-38737D01*
X14304Y-38756D01*
X14437Y-38737D02*
X14532Y-39137D01*
X14609Y-38851D01*
X14685Y-39137D01*
X14780Y-38737D01*
X14837Y-39175D02*
X15142Y-39175D01*
X15237Y-39137D02*
X15237Y-38737D01*
X15427Y-39137D02*
X15427Y-38737D01*
X15656Y-39137D01*
X15656Y-38737D01*
X16075Y-39099D02*
X16056Y-39118D01*
X15999Y-39137D01*
X15961Y-39137D01*
X15903Y-39118D01*
X15865Y-39080D01*
X15846Y-39042D01*
X15827Y-38965D01*
X15827Y-38908D01*
X15846Y-38832D01*
X15865Y-38794D01*
X15903Y-38756D01*
X15961Y-38737D01*
X15999Y-38737D01*
X16056Y-38756D01*
X16075Y-38775D01*
X14718Y-46583D02*
X14737Y-46526D01*
X14737Y-46430D01*
X14718Y-46392D01*
X14699Y-46373D01*
X14661Y-46354D01*
X14623Y-46354D01*
X14585Y-46373D01*
X14565Y-46392D01*
X14546Y-46430D01*
X14527Y-46507D01*
X14508Y-46545D01*
X14489Y-46564D01*
X14451Y-46583D01*
X14413Y-46583D01*
X14375Y-46564D01*
X14356Y-46545D01*
X14337Y-46507D01*
X14337Y-46411D01*
X14356Y-46354D01*
X14337Y-46221D02*
X14737Y-46126D01*
X14451Y-46049D01*
X14737Y-45973D01*
X14337Y-45878D01*
X14337Y-45764D02*
X14337Y-45516D01*
X14489Y-45650D01*
X14489Y-45592D01*
X14508Y-45554D01*
X14527Y-45535D01*
X14565Y-45516D01*
X14661Y-45516D01*
X14699Y-45535D01*
X14718Y-45554D01*
X14737Y-45592D01*
X14737Y-45707D01*
X14718Y-45745D01*
X14699Y-45764D01*
X13761Y-43043D02*
X13818Y-43062D01*
X13914Y-43062D01*
X13952Y-43043D01*
X13971Y-43024D01*
X13990Y-42986D01*
X13990Y-42948D01*
X13971Y-42910D01*
X13952Y-42890D01*
X13914Y-42871D01*
X13837Y-42852D01*
X13799Y-42833D01*
X13780Y-42814D01*
X13761Y-42776D01*
X13761Y-42738D01*
X13780Y-42700D01*
X13799Y-42681D01*
X13837Y-42662D01*
X13933Y-42662D01*
X13990Y-42681D01*
X14123Y-42662D02*
X14218Y-43062D01*
X14295Y-42776D01*
X14371Y-43062D01*
X14466Y-42662D01*
X14523Y-43100D02*
X14828Y-43100D01*
X14923Y-43062D02*
X14923Y-42662D01*
X15057Y-42948D01*
X15190Y-42662D01*
X15190Y-43062D01*
X15456Y-42662D02*
X15533Y-42662D01*
X15571Y-42681D01*
X15609Y-42719D01*
X15628Y-42795D01*
X15628Y-42929D01*
X15609Y-43005D01*
X15571Y-43043D01*
X15533Y-43062D01*
X15456Y-43062D01*
X15418Y-43043D01*
X15380Y-43005D01*
X15361Y-42929D01*
X15361Y-42795D01*
X15380Y-42719D01*
X15418Y-42681D01*
X15456Y-42662D01*
X15799Y-43062D02*
X15799Y-42662D01*
X15894Y-42662D01*
X15952Y-42681D01*
X15990Y-42719D01*
X16009Y-42757D01*
X16028Y-42833D01*
X16028Y-42890D01*
X16009Y-42967D01*
X15990Y-43005D01*
X15952Y-43043D01*
X15894Y-43062D01*
X15799Y-43062D01*
X16199Y-42852D02*
X16333Y-42852D01*
X16390Y-43062D02*
X16199Y-43062D01*
X16199Y-42662D01*
X16390Y-42662D01*
X14718Y-50658D02*
X14737Y-50601D01*
X14737Y-50505D01*
X14718Y-50467D01*
X14699Y-50448D01*
X14661Y-50429D01*
X14623Y-50429D01*
X14585Y-50448D01*
X14565Y-50467D01*
X14546Y-50505D01*
X14527Y-50582D01*
X14508Y-50620D01*
X14489Y-50639D01*
X14451Y-50658D01*
X14413Y-50658D01*
X14375Y-50639D01*
X14356Y-50620D01*
X14337Y-50582D01*
X14337Y-50486D01*
X14356Y-50429D01*
X14337Y-50296D02*
X14737Y-50201D01*
X14451Y-50124D01*
X14737Y-50048D01*
X14337Y-49953D01*
X14375Y-49820D02*
X14356Y-49801D01*
X14337Y-49763D01*
X14337Y-49667D01*
X14356Y-49629D01*
X14375Y-49610D01*
X14413Y-49591D01*
X14451Y-49591D01*
X14508Y-49610D01*
X14737Y-49839D01*
X14737Y-49591D01*
X14856Y-47137D02*
X14722Y-46946D01*
X14627Y-47137D02*
X14627Y-46737D01*
X14780Y-46737D01*
X14818Y-46756D01*
X14837Y-46775D01*
X14856Y-46813D01*
X14856Y-46870D01*
X14837Y-46908D01*
X14818Y-46927D01*
X14780Y-46946D01*
X14627Y-46946D01*
X15008Y-47118D02*
X15065Y-47137D01*
X15161Y-47137D01*
X15199Y-47118D01*
X15218Y-47099D01*
X15237Y-47061D01*
X15237Y-47023D01*
X15218Y-46985D01*
X15199Y-46965D01*
X15161Y-46946D01*
X15084Y-46927D01*
X15046Y-46908D01*
X15027Y-46889D01*
X15008Y-46851D01*
X15008Y-46813D01*
X15027Y-46775D01*
X15046Y-46756D01*
X15084Y-46737D01*
X15180Y-46737D01*
X15237Y-46756D01*
X15351Y-46737D02*
X15580Y-46737D01*
X15465Y-47137D02*
X15465Y-46737D01*
G54D15*
X28007Y-39771D02*
X27907Y-39629D01*
X27835Y-39771D02*
X27835Y-39471D01*
X27950Y-39471D01*
X27978Y-39486D01*
X27993Y-39500D01*
X28007Y-39529D01*
X28007Y-39571D01*
X27993Y-39600D01*
X27978Y-39614D01*
X27950Y-39629D01*
X27835Y-39629D01*
X28293Y-39771D02*
X28121Y-39771D01*
X28207Y-39771D02*
X28207Y-39471D01*
X28178Y-39514D01*
X28150Y-39543D01*
X28121Y-39557D01*
X28393Y-39471D02*
X28579Y-39471D01*
X28479Y-39586D01*
X28521Y-39586D01*
X28550Y-39600D01*
X28564Y-39614D01*
X28579Y-39643D01*
X28579Y-39714D01*
X28564Y-39743D01*
X28550Y-39757D01*
X28521Y-39771D01*
X28436Y-39771D01*
X28407Y-39757D01*
X28393Y-39743D01*
X20407Y-52471D02*
X20307Y-52329D01*
X20235Y-52471D02*
X20235Y-52171D01*
X20350Y-52171D01*
X20378Y-52186D01*
X20393Y-52200D01*
X20407Y-52229D01*
X20407Y-52271D01*
X20393Y-52300D01*
X20378Y-52314D01*
X20350Y-52329D01*
X20235Y-52329D01*
X20693Y-52471D02*
X20521Y-52471D01*
X20607Y-52471D02*
X20607Y-52171D01*
X20578Y-52214D01*
X20550Y-52243D01*
X20521Y-52257D01*
X20807Y-52200D02*
X20821Y-52186D01*
X20850Y-52171D01*
X20921Y-52171D01*
X20950Y-52186D01*
X20964Y-52200D01*
X20979Y-52229D01*
X20979Y-52257D01*
X20964Y-52300D01*
X20793Y-52471D01*
X20979Y-52471D01*
X20407Y-41521D02*
X20307Y-41379D01*
X20235Y-41521D02*
X20235Y-41221D01*
X20350Y-41221D01*
X20378Y-41236D01*
X20393Y-41250D01*
X20407Y-41279D01*
X20407Y-41321D01*
X20393Y-41350D01*
X20378Y-41364D01*
X20350Y-41379D01*
X20235Y-41379D01*
X20693Y-41521D02*
X20521Y-41521D01*
X20607Y-41521D02*
X20607Y-41221D01*
X20578Y-41264D01*
X20550Y-41293D01*
X20521Y-41307D01*
X20879Y-41221D02*
X20907Y-41221D01*
X20936Y-41236D01*
X20950Y-41250D01*
X20964Y-41279D01*
X20979Y-41336D01*
X20979Y-41407D01*
X20964Y-41464D01*
X20950Y-41493D01*
X20936Y-41507D01*
X20907Y-41521D01*
X20879Y-41521D01*
X20850Y-41507D01*
X20836Y-41493D01*
X20821Y-41464D01*
X20807Y-41407D01*
X20807Y-41336D01*
X20821Y-41279D01*
X20836Y-41250D01*
X20850Y-41236D01*
X20879Y-41221D01*
X20407Y-49521D02*
X20307Y-49379D01*
X20235Y-49521D02*
X20235Y-49221D01*
X20350Y-49221D01*
X20378Y-49236D01*
X20393Y-49250D01*
X20407Y-49279D01*
X20407Y-49321D01*
X20393Y-49350D01*
X20378Y-49364D01*
X20350Y-49379D01*
X20235Y-49379D01*
X20693Y-49521D02*
X20521Y-49521D01*
X20607Y-49521D02*
X20607Y-49221D01*
X20578Y-49264D01*
X20550Y-49293D01*
X20521Y-49307D01*
X20979Y-49521D02*
X20807Y-49521D01*
X20893Y-49521D02*
X20893Y-49221D01*
X20864Y-49264D01*
X20836Y-49293D01*
X20807Y-49307D01*
X17175Y-31471D02*
X17075Y-31329D01*
X17003Y-31471D02*
X17003Y-31171D01*
X17118Y-31171D01*
X17146Y-31186D01*
X17161Y-31200D01*
X17175Y-31229D01*
X17175Y-31271D01*
X17161Y-31300D01*
X17146Y-31314D01*
X17118Y-31329D01*
X17003Y-31329D01*
X17461Y-31471D02*
X17289Y-31471D01*
X17375Y-31471D02*
X17375Y-31171D01*
X17346Y-31214D01*
X17318Y-31243D01*
X17289Y-31257D01*
X28007Y-47771D02*
X27907Y-47629D01*
X27835Y-47771D02*
X27835Y-47471D01*
X27950Y-47471D01*
X27978Y-47486D01*
X27993Y-47500D01*
X28007Y-47529D01*
X28007Y-47571D01*
X27993Y-47600D01*
X27978Y-47614D01*
X27950Y-47629D01*
X27835Y-47629D01*
X28293Y-47771D02*
X28121Y-47771D01*
X28207Y-47771D02*
X28207Y-47471D01*
X28178Y-47514D01*
X28150Y-47543D01*
X28121Y-47557D01*
X28550Y-47571D02*
X28550Y-47771D01*
X28479Y-47457D02*
X28407Y-47671D01*
X28593Y-47671D01*
X43007Y-39771D02*
X42907Y-39629D01*
X42835Y-39771D02*
X42835Y-39471D01*
X42950Y-39471D01*
X42978Y-39486D01*
X42993Y-39500D01*
X43007Y-39529D01*
X43007Y-39571D01*
X42993Y-39600D01*
X42978Y-39614D01*
X42950Y-39629D01*
X42835Y-39629D01*
X43293Y-39771D02*
X43121Y-39771D01*
X43207Y-39771D02*
X43207Y-39471D01*
X43178Y-39514D01*
X43150Y-39543D01*
X43121Y-39557D01*
X43564Y-39471D02*
X43421Y-39471D01*
X43407Y-39614D01*
X43421Y-39600D01*
X43450Y-39586D01*
X43521Y-39586D01*
X43550Y-39600D01*
X43564Y-39614D01*
X43579Y-39643D01*
X43579Y-39714D01*
X43564Y-39743D01*
X43550Y-39757D01*
X43521Y-39771D01*
X43450Y-39771D01*
X43421Y-39757D01*
X43407Y-39743D01*
X43007Y-47771D02*
X42907Y-47629D01*
X42835Y-47771D02*
X42835Y-47471D01*
X42950Y-47471D01*
X42978Y-47486D01*
X42993Y-47500D01*
X43007Y-47529D01*
X43007Y-47571D01*
X42993Y-47600D01*
X42978Y-47614D01*
X42950Y-47629D01*
X42835Y-47629D01*
X43293Y-47771D02*
X43121Y-47771D01*
X43207Y-47771D02*
X43207Y-47471D01*
X43178Y-47514D01*
X43150Y-47543D01*
X43121Y-47557D01*
X43550Y-47471D02*
X43493Y-47471D01*
X43464Y-47486D01*
X43450Y-47500D01*
X43421Y-47543D01*
X43407Y-47600D01*
X43407Y-47714D01*
X43421Y-47743D01*
X43436Y-47757D01*
X43464Y-47771D01*
X43521Y-47771D01*
X43550Y-47757D01*
X43564Y-47743D01*
X43579Y-47714D01*
X43579Y-47643D01*
X43564Y-47614D01*
X43550Y-47600D01*
X43521Y-47586D01*
X43464Y-47586D01*
X43436Y-47600D01*
X43421Y-47614D01*
X43407Y-47643D01*
X50507Y-42971D02*
X50407Y-42829D01*
X50335Y-42971D02*
X50335Y-42671D01*
X50450Y-42671D01*
X50478Y-42686D01*
X50493Y-42700D01*
X50507Y-42729D01*
X50507Y-42771D01*
X50493Y-42800D01*
X50478Y-42814D01*
X50450Y-42829D01*
X50335Y-42829D01*
X50793Y-42971D02*
X50621Y-42971D01*
X50707Y-42971D02*
X50707Y-42671D01*
X50678Y-42714D01*
X50650Y-42743D01*
X50621Y-42757D01*
X50893Y-42671D02*
X51093Y-42671D01*
X50964Y-42971D01*
X20550Y-33321D02*
X20450Y-33179D01*
X20378Y-33321D02*
X20378Y-33021D01*
X20493Y-33021D01*
X20521Y-33036D01*
X20536Y-33050D01*
X20550Y-33079D01*
X20550Y-33121D01*
X20536Y-33150D01*
X20521Y-33164D01*
X20493Y-33179D01*
X20378Y-33179D01*
X20693Y-33321D02*
X20750Y-33321D01*
X20778Y-33307D01*
X20793Y-33293D01*
X20821Y-33250D01*
X20836Y-33193D01*
X20836Y-33079D01*
X20821Y-33050D01*
X20807Y-33036D01*
X20778Y-33021D01*
X20721Y-33021D01*
X20693Y-33036D01*
X20678Y-33050D01*
X20664Y-33079D01*
X20664Y-33150D01*
X20678Y-33179D01*
X20693Y-33193D01*
X20721Y-33207D01*
X20778Y-33207D01*
X20807Y-33193D01*
X20821Y-33179D01*
X20836Y-33150D01*
X25450Y-32021D02*
X25350Y-31879D01*
X25278Y-32021D02*
X25278Y-31721D01*
X25393Y-31721D01*
X25421Y-31736D01*
X25436Y-31750D01*
X25450Y-31779D01*
X25450Y-31821D01*
X25436Y-31850D01*
X25421Y-31864D01*
X25393Y-31879D01*
X25278Y-31879D01*
X25621Y-31850D02*
X25593Y-31836D01*
X25578Y-31821D01*
X25564Y-31793D01*
X25564Y-31779D01*
X25578Y-31750D01*
X25593Y-31736D01*
X25621Y-31721D01*
X25678Y-31721D01*
X25707Y-31736D01*
X25721Y-31750D01*
X25736Y-31779D01*
X25736Y-31793D01*
X25721Y-31821D01*
X25707Y-31836D01*
X25678Y-31850D01*
X25621Y-31850D01*
X25593Y-31864D01*
X25578Y-31879D01*
X25564Y-31907D01*
X25564Y-31964D01*
X25578Y-31993D01*
X25593Y-32007D01*
X25621Y-32021D01*
X25678Y-32021D01*
X25707Y-32007D01*
X25721Y-31993D01*
X25736Y-31964D01*
X25736Y-31907D01*
X25721Y-31879D01*
X25707Y-31864D01*
X25678Y-31850D01*
X19425Y-29796D02*
X19325Y-29654D01*
X19253Y-29796D02*
X19253Y-29496D01*
X19368Y-29496D01*
X19396Y-29511D01*
X19411Y-29525D01*
X19425Y-29554D01*
X19425Y-29596D01*
X19411Y-29625D01*
X19396Y-29639D01*
X19368Y-29654D01*
X19253Y-29654D01*
X19525Y-29496D02*
X19725Y-29496D01*
X19596Y-29796D01*
X18296Y-48775D02*
X18154Y-48875D01*
X18296Y-48947D02*
X17996Y-48947D01*
X17996Y-48832D01*
X18011Y-48804D01*
X18025Y-48789D01*
X18054Y-48775D01*
X18096Y-48775D01*
X18125Y-48789D01*
X18139Y-48804D01*
X18154Y-48832D01*
X18154Y-48947D01*
X17996Y-48518D02*
X17996Y-48575D01*
X18011Y-48604D01*
X18025Y-48618D01*
X18068Y-48647D01*
X18125Y-48661D01*
X18239Y-48661D01*
X18268Y-48647D01*
X18282Y-48632D01*
X18296Y-48604D01*
X18296Y-48547D01*
X18282Y-48518D01*
X18268Y-48504D01*
X18239Y-48489D01*
X18168Y-48489D01*
X18139Y-48504D01*
X18125Y-48518D01*
X18111Y-48547D01*
X18111Y-48604D01*
X18125Y-48632D01*
X18139Y-48647D01*
X18168Y-48661D01*
X18171Y-40725D02*
X18029Y-40825D01*
X18171Y-40897D02*
X17871Y-40897D01*
X17871Y-40782D01*
X17886Y-40754D01*
X17900Y-40739D01*
X17929Y-40725D01*
X17971Y-40725D01*
X18000Y-40739D01*
X18014Y-40754D01*
X18029Y-40782D01*
X18029Y-40897D01*
X17871Y-40454D02*
X17871Y-40597D01*
X18014Y-40611D01*
X18000Y-40597D01*
X17986Y-40568D01*
X17986Y-40497D01*
X18000Y-40468D01*
X18014Y-40454D01*
X18043Y-40439D01*
X18114Y-40439D01*
X18143Y-40454D01*
X18157Y-40468D01*
X18171Y-40497D01*
X18171Y-40568D01*
X18157Y-40597D01*
X18143Y-40611D01*
X19471Y-44775D02*
X19329Y-44875D01*
X19471Y-44947D02*
X19171Y-44947D01*
X19171Y-44832D01*
X19186Y-44804D01*
X19200Y-44789D01*
X19229Y-44775D01*
X19271Y-44775D01*
X19300Y-44789D01*
X19314Y-44804D01*
X19329Y-44832D01*
X19329Y-44947D01*
X19271Y-44518D02*
X19471Y-44518D01*
X19157Y-44589D02*
X19371Y-44661D01*
X19371Y-44475D01*
X26200Y-55771D02*
X26100Y-55629D01*
X26028Y-55771D02*
X26028Y-55471D01*
X26143Y-55471D01*
X26171Y-55486D01*
X26186Y-55500D01*
X26200Y-55529D01*
X26200Y-55571D01*
X26186Y-55600D01*
X26171Y-55614D01*
X26143Y-55629D01*
X26028Y-55629D01*
X26300Y-55471D02*
X26486Y-55471D01*
X26386Y-55586D01*
X26428Y-55586D01*
X26457Y-55600D01*
X26471Y-55614D01*
X26486Y-55643D01*
X26486Y-55714D01*
X26471Y-55743D01*
X26457Y-55757D01*
X26428Y-55771D01*
X26343Y-55771D01*
X26314Y-55757D01*
X26300Y-55743D01*
X44050Y-57221D02*
X43950Y-57079D01*
X43878Y-57221D02*
X43878Y-56921D01*
X43993Y-56921D01*
X44021Y-56936D01*
X44036Y-56950D01*
X44050Y-56979D01*
X44050Y-57021D01*
X44036Y-57050D01*
X44021Y-57064D01*
X43993Y-57079D01*
X43878Y-57079D01*
X44164Y-56950D02*
X44178Y-56936D01*
X44207Y-56921D01*
X44278Y-56921D01*
X44307Y-56936D01*
X44321Y-56950D01*
X44336Y-56979D01*
X44336Y-57007D01*
X44321Y-57050D01*
X44150Y-57221D01*
X44336Y-57221D01*
X40282Y-55546D02*
X40182Y-55404D01*
X40110Y-55546D02*
X40110Y-55246D01*
X40225Y-55246D01*
X40253Y-55261D01*
X40268Y-55275D01*
X40282Y-55304D01*
X40282Y-55346D01*
X40268Y-55375D01*
X40253Y-55389D01*
X40225Y-55404D01*
X40110Y-55404D01*
X40382Y-55246D02*
X40568Y-55246D01*
X40468Y-55361D01*
X40510Y-55361D01*
X40539Y-55375D01*
X40553Y-55389D01*
X40568Y-55418D01*
X40568Y-55489D01*
X40553Y-55518D01*
X40539Y-55532D01*
X40510Y-55546D01*
X40425Y-55546D01*
X40396Y-55532D01*
X40382Y-55518D01*
X40711Y-55546D02*
X40768Y-55546D01*
X40796Y-55532D01*
X40811Y-55518D01*
X40839Y-55475D01*
X40854Y-55418D01*
X40854Y-55304D01*
X40839Y-55275D01*
X40825Y-55261D01*
X40796Y-55246D01*
X40739Y-55246D01*
X40711Y-55261D01*
X40696Y-55275D01*
X40682Y-55304D01*
X40682Y-55375D01*
X40696Y-55404D01*
X40711Y-55418D01*
X40739Y-55432D01*
X40796Y-55432D01*
X40825Y-55418D01*
X40839Y-55404D01*
X40854Y-55375D01*
X42032Y-55596D02*
X41932Y-55454D01*
X41860Y-55596D02*
X41860Y-55296D01*
X41975Y-55296D01*
X42003Y-55311D01*
X42018Y-55325D01*
X42032Y-55354D01*
X42032Y-55396D01*
X42018Y-55425D01*
X42003Y-55439D01*
X41975Y-55454D01*
X41860Y-55454D01*
X42132Y-55296D02*
X42318Y-55296D01*
X42218Y-55411D01*
X42260Y-55411D01*
X42289Y-55425D01*
X42303Y-55439D01*
X42318Y-55468D01*
X42318Y-55539D01*
X42303Y-55568D01*
X42289Y-55582D01*
X42260Y-55596D01*
X42175Y-55596D01*
X42146Y-55582D01*
X42132Y-55568D01*
X42489Y-55425D02*
X42461Y-55411D01*
X42446Y-55396D01*
X42432Y-55368D01*
X42432Y-55354D01*
X42446Y-55325D01*
X42461Y-55311D01*
X42489Y-55296D01*
X42546Y-55296D01*
X42575Y-55311D01*
X42589Y-55325D01*
X42604Y-55354D01*
X42604Y-55368D01*
X42589Y-55396D01*
X42575Y-55411D01*
X42546Y-55425D01*
X42489Y-55425D01*
X42461Y-55439D01*
X42446Y-55454D01*
X42432Y-55482D01*
X42432Y-55539D01*
X42446Y-55568D01*
X42461Y-55582D01*
X42489Y-55596D01*
X42546Y-55596D01*
X42575Y-55582D01*
X42589Y-55568D01*
X42604Y-55539D01*
X42604Y-55482D01*
X42589Y-55454D01*
X42575Y-55439D01*
X42546Y-55425D01*
X50507Y-50971D02*
X50407Y-50829D01*
X50335Y-50971D02*
X50335Y-50671D01*
X50450Y-50671D01*
X50478Y-50686D01*
X50493Y-50700D01*
X50507Y-50729D01*
X50507Y-50771D01*
X50493Y-50800D01*
X50478Y-50814D01*
X50450Y-50829D01*
X50335Y-50829D01*
X50793Y-50971D02*
X50621Y-50971D01*
X50707Y-50971D02*
X50707Y-50671D01*
X50678Y-50714D01*
X50650Y-50743D01*
X50621Y-50757D01*
X50964Y-50800D02*
X50936Y-50786D01*
X50921Y-50771D01*
X50907Y-50743D01*
X50907Y-50729D01*
X50921Y-50700D01*
X50936Y-50686D01*
X50964Y-50671D01*
X51021Y-50671D01*
X51050Y-50686D01*
X51064Y-50700D01*
X51079Y-50729D01*
X51079Y-50743D01*
X51064Y-50771D01*
X51050Y-50786D01*
X51021Y-50800D01*
X50964Y-50800D01*
X50936Y-50814D01*
X50921Y-50829D01*
X50907Y-50857D01*
X50907Y-50914D01*
X50921Y-50943D01*
X50936Y-50957D01*
X50964Y-50971D01*
X51021Y-50971D01*
X51050Y-50957D01*
X51064Y-50943D01*
X51079Y-50914D01*
X51079Y-50857D01*
X51064Y-50829D01*
X51050Y-50814D01*
X51021Y-50800D01*
G54D12*
X39121Y-57372D02*
X38821Y-57372D01*
X39121Y-57200D02*
X38950Y-57329D01*
X38821Y-57200D02*
X38993Y-57372D01*
X38821Y-57100D02*
X38821Y-56914D01*
X38936Y-57014D01*
X38936Y-56972D01*
X38950Y-56943D01*
X38964Y-56929D01*
X38993Y-56914D01*
X39064Y-56914D01*
X39093Y-56929D01*
X39107Y-56943D01*
X39121Y-56972D01*
X39121Y-57057D01*
X39107Y-57086D01*
X39093Y-57100D01*
X43021Y-56318D02*
X42721Y-56318D01*
X42750Y-56189D02*
X42736Y-56175D01*
X42721Y-56146D01*
X42721Y-56075D01*
X42736Y-56046D01*
X42750Y-56032D01*
X42779Y-56017D01*
X42807Y-56017D01*
X42850Y-56032D01*
X43021Y-56203D01*
X43021Y-56017D01*
X42993Y-55717D02*
X43007Y-55731D01*
X43021Y-55774D01*
X43021Y-55803D01*
X43007Y-55846D01*
X42979Y-55874D01*
X42950Y-55889D01*
X42893Y-55903D01*
X42850Y-55903D01*
X42793Y-55889D01*
X42764Y-55874D01*
X42736Y-55846D01*
X42721Y-55803D01*
X42721Y-55774D01*
X42736Y-55731D01*
X42750Y-55717D01*
G54D15*
X33360Y-39421D02*
X33360Y-39121D01*
X33432Y-39121D01*
X33475Y-39136D01*
X33503Y-39164D01*
X33518Y-39193D01*
X33532Y-39250D01*
X33532Y-39293D01*
X33518Y-39350D01*
X33503Y-39379D01*
X33475Y-39407D01*
X33432Y-39421D01*
X33360Y-39421D01*
X33789Y-39121D02*
X33732Y-39121D01*
X33703Y-39136D01*
X33689Y-39150D01*
X33660Y-39193D01*
X33646Y-39250D01*
X33646Y-39364D01*
X33660Y-39393D01*
X33675Y-39407D01*
X33703Y-39421D01*
X33760Y-39421D01*
X33789Y-39407D01*
X33803Y-39393D01*
X33818Y-39364D01*
X33818Y-39293D01*
X33803Y-39264D01*
X33789Y-39250D01*
X33760Y-39236D01*
X33703Y-39236D01*
X33675Y-39250D01*
X33660Y-39264D01*
X33646Y-39293D01*
X34004Y-39121D02*
X34032Y-39121D01*
X34061Y-39136D01*
X34075Y-39150D01*
X34089Y-39179D01*
X34104Y-39236D01*
X34104Y-39307D01*
X34089Y-39364D01*
X34075Y-39393D01*
X34061Y-39407D01*
X34032Y-39421D01*
X34004Y-39421D01*
X33975Y-39407D01*
X33961Y-39393D01*
X33946Y-39364D01*
X33932Y-39307D01*
X33932Y-39236D01*
X33946Y-39179D01*
X33961Y-39150D01*
X33975Y-39136D01*
X34004Y-39121D01*
X40885Y-40496D02*
X40885Y-40196D01*
X40957Y-40196D01*
X41000Y-40211D01*
X41028Y-40239D01*
X41043Y-40268D01*
X41057Y-40325D01*
X41057Y-40368D01*
X41043Y-40425D01*
X41028Y-40454D01*
X41000Y-40482D01*
X40957Y-40496D01*
X40885Y-40496D01*
X41343Y-40496D02*
X41171Y-40496D01*
X41257Y-40496D02*
X41257Y-40196D01*
X41228Y-40239D01*
X41200Y-40268D01*
X41171Y-40282D01*
X41600Y-40196D02*
X41543Y-40196D01*
X41514Y-40211D01*
X41500Y-40225D01*
X41471Y-40268D01*
X41457Y-40325D01*
X41457Y-40439D01*
X41471Y-40468D01*
X41486Y-40482D01*
X41514Y-40496D01*
X41571Y-40496D01*
X41600Y-40482D01*
X41614Y-40468D01*
X41629Y-40439D01*
X41629Y-40368D01*
X41614Y-40339D01*
X41600Y-40325D01*
X41571Y-40311D01*
X41514Y-40311D01*
X41486Y-40325D01*
X41471Y-40339D01*
X41457Y-40368D01*
X48385Y-51696D02*
X48385Y-51396D01*
X48457Y-51396D01*
X48500Y-51411D01*
X48528Y-51439D01*
X48543Y-51468D01*
X48557Y-51525D01*
X48557Y-51568D01*
X48543Y-51625D01*
X48528Y-51654D01*
X48500Y-51682D01*
X48457Y-51696D01*
X48385Y-51696D01*
X48671Y-51425D02*
X48685Y-51411D01*
X48714Y-51396D01*
X48785Y-51396D01*
X48814Y-51411D01*
X48828Y-51425D01*
X48843Y-51454D01*
X48843Y-51482D01*
X48828Y-51525D01*
X48657Y-51696D01*
X48843Y-51696D01*
X48957Y-51425D02*
X48971Y-51411D01*
X49000Y-51396D01*
X49071Y-51396D01*
X49100Y-51411D01*
X49114Y-51425D01*
X49129Y-51454D01*
X49129Y-51482D01*
X49114Y-51525D01*
X48943Y-51696D01*
X49129Y-51696D01*
X48385Y-47696D02*
X48385Y-47396D01*
X48457Y-47396D01*
X48500Y-47411D01*
X48528Y-47439D01*
X48543Y-47468D01*
X48557Y-47525D01*
X48557Y-47568D01*
X48543Y-47625D01*
X48528Y-47654D01*
X48500Y-47682D01*
X48457Y-47696D01*
X48385Y-47696D01*
X48671Y-47425D02*
X48685Y-47411D01*
X48714Y-47396D01*
X48785Y-47396D01*
X48814Y-47411D01*
X48828Y-47425D01*
X48843Y-47454D01*
X48843Y-47482D01*
X48828Y-47525D01*
X48657Y-47696D01*
X48843Y-47696D01*
X49129Y-47696D02*
X48957Y-47696D01*
X49043Y-47696D02*
X49043Y-47396D01*
X49014Y-47439D01*
X48986Y-47468D01*
X48957Y-47482D01*
X48385Y-43696D02*
X48385Y-43396D01*
X48457Y-43396D01*
X48500Y-43411D01*
X48528Y-43439D01*
X48543Y-43468D01*
X48557Y-43525D01*
X48557Y-43568D01*
X48543Y-43625D01*
X48528Y-43654D01*
X48500Y-43682D01*
X48457Y-43696D01*
X48385Y-43696D01*
X48671Y-43425D02*
X48685Y-43411D01*
X48714Y-43396D01*
X48785Y-43396D01*
X48814Y-43411D01*
X48828Y-43425D01*
X48843Y-43454D01*
X48843Y-43482D01*
X48828Y-43525D01*
X48657Y-43696D01*
X48843Y-43696D01*
X49029Y-43396D02*
X49057Y-43396D01*
X49086Y-43411D01*
X49100Y-43425D01*
X49114Y-43454D01*
X49129Y-43511D01*
X49129Y-43582D01*
X49114Y-43639D01*
X49100Y-43668D01*
X49086Y-43682D01*
X49057Y-43696D01*
X49029Y-43696D01*
X49000Y-43682D01*
X48986Y-43668D01*
X48971Y-43639D01*
X48957Y-43582D01*
X48957Y-43511D01*
X48971Y-43454D01*
X48986Y-43425D01*
X49000Y-43411D01*
X49029Y-43396D01*
X48385Y-39696D02*
X48385Y-39396D01*
X48457Y-39396D01*
X48500Y-39411D01*
X48528Y-39439D01*
X48543Y-39468D01*
X48557Y-39525D01*
X48557Y-39568D01*
X48543Y-39625D01*
X48528Y-39654D01*
X48500Y-39682D01*
X48457Y-39696D01*
X48385Y-39696D01*
X48843Y-39696D02*
X48671Y-39696D01*
X48757Y-39696D02*
X48757Y-39396D01*
X48728Y-39439D01*
X48700Y-39468D01*
X48671Y-39482D01*
X48986Y-39696D02*
X49043Y-39696D01*
X49071Y-39682D01*
X49086Y-39668D01*
X49114Y-39625D01*
X49129Y-39568D01*
X49129Y-39454D01*
X49114Y-39425D01*
X49100Y-39411D01*
X49071Y-39396D01*
X49014Y-39396D01*
X48986Y-39411D01*
X48971Y-39425D01*
X48957Y-39454D01*
X48957Y-39525D01*
X48971Y-39554D01*
X48986Y-39568D01*
X49014Y-39582D01*
X49071Y-39582D01*
X49100Y-39568D01*
X49114Y-39554D01*
X49129Y-39525D01*
X40885Y-48496D02*
X40885Y-48196D01*
X40957Y-48196D01*
X41000Y-48211D01*
X41028Y-48239D01*
X41043Y-48268D01*
X41057Y-48325D01*
X41057Y-48368D01*
X41043Y-48425D01*
X41028Y-48454D01*
X41000Y-48482D01*
X40957Y-48496D01*
X40885Y-48496D01*
X41343Y-48496D02*
X41171Y-48496D01*
X41257Y-48496D02*
X41257Y-48196D01*
X41228Y-48239D01*
X41200Y-48268D01*
X41171Y-48282D01*
X41514Y-48325D02*
X41486Y-48311D01*
X41471Y-48296D01*
X41457Y-48268D01*
X41457Y-48254D01*
X41471Y-48225D01*
X41486Y-48211D01*
X41514Y-48196D01*
X41571Y-48196D01*
X41600Y-48211D01*
X41614Y-48225D01*
X41629Y-48254D01*
X41629Y-48268D01*
X41614Y-48296D01*
X41600Y-48311D01*
X41571Y-48325D01*
X41514Y-48325D01*
X41486Y-48339D01*
X41471Y-48354D01*
X41457Y-48382D01*
X41457Y-48439D01*
X41471Y-48468D01*
X41486Y-48482D01*
X41514Y-48496D01*
X41571Y-48496D01*
X41600Y-48482D01*
X41614Y-48468D01*
X41629Y-48439D01*
X41629Y-48382D01*
X41614Y-48354D01*
X41600Y-48339D01*
X41571Y-48325D01*
X40885Y-44496D02*
X40885Y-44196D01*
X40957Y-44196D01*
X41000Y-44211D01*
X41028Y-44239D01*
X41043Y-44268D01*
X41057Y-44325D01*
X41057Y-44368D01*
X41043Y-44425D01*
X41028Y-44454D01*
X41000Y-44482D01*
X40957Y-44496D01*
X40885Y-44496D01*
X41343Y-44496D02*
X41171Y-44496D01*
X41257Y-44496D02*
X41257Y-44196D01*
X41228Y-44239D01*
X41200Y-44268D01*
X41171Y-44282D01*
X41443Y-44196D02*
X41643Y-44196D01*
X41514Y-44496D01*
X33360Y-35571D02*
X33360Y-35271D01*
X33432Y-35271D01*
X33475Y-35286D01*
X33503Y-35314D01*
X33518Y-35343D01*
X33532Y-35400D01*
X33532Y-35443D01*
X33518Y-35500D01*
X33503Y-35529D01*
X33475Y-35557D01*
X33432Y-35571D01*
X33360Y-35571D01*
X33803Y-35271D02*
X33660Y-35271D01*
X33646Y-35414D01*
X33660Y-35400D01*
X33689Y-35386D01*
X33760Y-35386D01*
X33789Y-35400D01*
X33803Y-35414D01*
X33818Y-35443D01*
X33818Y-35514D01*
X33803Y-35543D01*
X33789Y-35557D01*
X33760Y-35571D01*
X33689Y-35571D01*
X33660Y-35557D01*
X33646Y-35543D01*
X33989Y-35400D02*
X33961Y-35386D01*
X33946Y-35371D01*
X33932Y-35343D01*
X33932Y-35329D01*
X33946Y-35300D01*
X33961Y-35286D01*
X33989Y-35271D01*
X34046Y-35271D01*
X34075Y-35286D01*
X34089Y-35300D01*
X34104Y-35329D01*
X34104Y-35343D01*
X34089Y-35371D01*
X34075Y-35386D01*
X34046Y-35400D01*
X33989Y-35400D01*
X33961Y-35414D01*
X33946Y-35429D01*
X33932Y-35457D01*
X33932Y-35514D01*
X33946Y-35543D01*
X33961Y-35557D01*
X33989Y-35571D01*
X34046Y-35571D01*
X34075Y-35557D01*
X34089Y-35543D01*
X34104Y-35514D01*
X34104Y-35457D01*
X34089Y-35429D01*
X34075Y-35414D01*
X34046Y-35400D01*
X40885Y-36496D02*
X40885Y-36196D01*
X40957Y-36196D01*
X41000Y-36211D01*
X41028Y-36239D01*
X41043Y-36268D01*
X41057Y-36325D01*
X41057Y-36368D01*
X41043Y-36425D01*
X41028Y-36454D01*
X41000Y-36482D01*
X40957Y-36496D01*
X40885Y-36496D01*
X41343Y-36496D02*
X41171Y-36496D01*
X41257Y-36496D02*
X41257Y-36196D01*
X41228Y-36239D01*
X41200Y-36268D01*
X41171Y-36282D01*
X41614Y-36196D02*
X41471Y-36196D01*
X41457Y-36339D01*
X41471Y-36325D01*
X41500Y-36311D01*
X41571Y-36311D01*
X41600Y-36325D01*
X41614Y-36339D01*
X41629Y-36368D01*
X41629Y-36439D01*
X41614Y-36468D01*
X41600Y-36482D01*
X41571Y-36496D01*
X41500Y-36496D01*
X41471Y-36482D01*
X41457Y-36468D01*
X25885Y-48496D02*
X25885Y-48196D01*
X25957Y-48196D01*
X26000Y-48211D01*
X26028Y-48239D01*
X26043Y-48268D01*
X26057Y-48325D01*
X26057Y-48368D01*
X26043Y-48425D01*
X26028Y-48454D01*
X26000Y-48482D01*
X25957Y-48496D01*
X25885Y-48496D01*
X26343Y-48496D02*
X26171Y-48496D01*
X26257Y-48496D02*
X26257Y-48196D01*
X26228Y-48239D01*
X26200Y-48268D01*
X26171Y-48282D01*
X26600Y-48296D02*
X26600Y-48496D01*
X26529Y-48182D02*
X26457Y-48396D01*
X26643Y-48396D01*
X25885Y-44496D02*
X25885Y-44196D01*
X25957Y-44196D01*
X26000Y-44211D01*
X26028Y-44239D01*
X26043Y-44268D01*
X26057Y-44325D01*
X26057Y-44368D01*
X26043Y-44425D01*
X26028Y-44454D01*
X26000Y-44482D01*
X25957Y-44496D01*
X25885Y-44496D01*
X26343Y-44496D02*
X26171Y-44496D01*
X26257Y-44496D02*
X26257Y-44196D01*
X26228Y-44239D01*
X26200Y-44268D01*
X26171Y-44282D01*
X26443Y-44196D02*
X26629Y-44196D01*
X26529Y-44311D01*
X26571Y-44311D01*
X26600Y-44325D01*
X26614Y-44339D01*
X26629Y-44368D01*
X26629Y-44439D01*
X26614Y-44468D01*
X26600Y-44482D01*
X26571Y-44496D01*
X26486Y-44496D01*
X26457Y-44482D01*
X26443Y-44468D01*
X25885Y-40496D02*
X25885Y-40196D01*
X25957Y-40196D01*
X26000Y-40211D01*
X26028Y-40239D01*
X26043Y-40268D01*
X26057Y-40325D01*
X26057Y-40368D01*
X26043Y-40425D01*
X26028Y-40454D01*
X26000Y-40482D01*
X25957Y-40496D01*
X25885Y-40496D01*
X26343Y-40496D02*
X26171Y-40496D01*
X26257Y-40496D02*
X26257Y-40196D01*
X26228Y-40239D01*
X26200Y-40268D01*
X26171Y-40282D01*
X26457Y-40225D02*
X26471Y-40211D01*
X26500Y-40196D01*
X26571Y-40196D01*
X26600Y-40211D01*
X26614Y-40225D01*
X26629Y-40254D01*
X26629Y-40282D01*
X26614Y-40325D01*
X26443Y-40496D01*
X26629Y-40496D01*
X25885Y-36496D02*
X25885Y-36196D01*
X25957Y-36196D01*
X26000Y-36211D01*
X26028Y-36239D01*
X26043Y-36268D01*
X26057Y-36325D01*
X26057Y-36368D01*
X26043Y-36425D01*
X26028Y-36454D01*
X26000Y-36482D01*
X25957Y-36496D01*
X25885Y-36496D01*
X26343Y-36496D02*
X26171Y-36496D01*
X26257Y-36496D02*
X26257Y-36196D01*
X26228Y-36239D01*
X26200Y-36268D01*
X26171Y-36282D01*
X26629Y-36496D02*
X26457Y-36496D01*
X26543Y-36496D02*
X26543Y-36196D01*
X26514Y-36239D01*
X26486Y-36268D01*
X26457Y-36282D01*
X40885Y-52496D02*
X40885Y-52196D01*
X40957Y-52196D01*
X41000Y-52211D01*
X41028Y-52239D01*
X41043Y-52268D01*
X41057Y-52325D01*
X41057Y-52368D01*
X41043Y-52425D01*
X41028Y-52454D01*
X41000Y-52482D01*
X40957Y-52496D01*
X40885Y-52496D01*
X41343Y-52496D02*
X41171Y-52496D01*
X41257Y-52496D02*
X41257Y-52196D01*
X41228Y-52239D01*
X41200Y-52268D01*
X41171Y-52282D01*
X41529Y-52196D02*
X41557Y-52196D01*
X41586Y-52211D01*
X41600Y-52225D01*
X41614Y-52254D01*
X41629Y-52311D01*
X41629Y-52382D01*
X41614Y-52439D01*
X41600Y-52468D01*
X41586Y-52482D01*
X41557Y-52496D01*
X41529Y-52496D01*
X41500Y-52482D01*
X41486Y-52468D01*
X41471Y-52439D01*
X41457Y-52382D01*
X41457Y-52311D01*
X41471Y-52254D01*
X41486Y-52225D01*
X41500Y-52211D01*
X41529Y-52196D01*
X26028Y-52496D02*
X26028Y-52196D01*
X26100Y-52196D01*
X26143Y-52211D01*
X26171Y-52239D01*
X26186Y-52268D01*
X26200Y-52325D01*
X26200Y-52368D01*
X26186Y-52425D01*
X26171Y-52454D01*
X26143Y-52482D01*
X26100Y-52496D01*
X26028Y-52496D01*
X26343Y-52496D02*
X26400Y-52496D01*
X26428Y-52482D01*
X26443Y-52468D01*
X26471Y-52425D01*
X26486Y-52368D01*
X26486Y-52254D01*
X26471Y-52225D01*
X26457Y-52211D01*
X26428Y-52196D01*
X26371Y-52196D01*
X26343Y-52211D01*
X26328Y-52225D01*
X26314Y-52254D01*
X26314Y-52325D01*
X26328Y-52354D01*
X26343Y-52368D01*
X26371Y-52382D01*
X26428Y-52382D01*
X26457Y-52368D01*
X26471Y-52354D01*
X26486Y-52325D01*
X18278Y-50246D02*
X18278Y-49946D01*
X18350Y-49946D01*
X18393Y-49961D01*
X18421Y-49989D01*
X18436Y-50018D01*
X18450Y-50075D01*
X18450Y-50118D01*
X18436Y-50175D01*
X18421Y-50204D01*
X18393Y-50232D01*
X18350Y-50246D01*
X18278Y-50246D01*
X18621Y-50075D02*
X18593Y-50061D01*
X18578Y-50046D01*
X18564Y-50018D01*
X18564Y-50004D01*
X18578Y-49975D01*
X18593Y-49961D01*
X18621Y-49946D01*
X18678Y-49946D01*
X18707Y-49961D01*
X18721Y-49975D01*
X18736Y-50004D01*
X18736Y-50018D01*
X18721Y-50046D01*
X18707Y-50061D01*
X18678Y-50075D01*
X18621Y-50075D01*
X18593Y-50089D01*
X18578Y-50104D01*
X18564Y-50132D01*
X18564Y-50189D01*
X18578Y-50218D01*
X18593Y-50232D01*
X18621Y-50246D01*
X18678Y-50246D01*
X18707Y-50232D01*
X18721Y-50218D01*
X18736Y-50189D01*
X18736Y-50132D01*
X18721Y-50104D01*
X18707Y-50089D01*
X18678Y-50075D01*
X18278Y-46246D02*
X18278Y-45946D01*
X18350Y-45946D01*
X18393Y-45961D01*
X18421Y-45989D01*
X18436Y-46018D01*
X18450Y-46075D01*
X18450Y-46118D01*
X18436Y-46175D01*
X18421Y-46204D01*
X18393Y-46232D01*
X18350Y-46246D01*
X18278Y-46246D01*
X18550Y-45946D02*
X18750Y-45946D01*
X18621Y-46246D01*
X18278Y-42246D02*
X18278Y-41946D01*
X18350Y-41946D01*
X18393Y-41961D01*
X18421Y-41989D01*
X18436Y-42018D01*
X18450Y-42075D01*
X18450Y-42118D01*
X18436Y-42175D01*
X18421Y-42204D01*
X18393Y-42232D01*
X18350Y-42246D01*
X18278Y-42246D01*
X18707Y-41946D02*
X18650Y-41946D01*
X18621Y-41961D01*
X18607Y-41975D01*
X18578Y-42018D01*
X18564Y-42075D01*
X18564Y-42189D01*
X18578Y-42218D01*
X18593Y-42232D01*
X18621Y-42246D01*
X18678Y-42246D01*
X18707Y-42232D01*
X18721Y-42218D01*
X18736Y-42189D01*
X18736Y-42118D01*
X18721Y-42089D01*
X18707Y-42075D01*
X18678Y-42061D01*
X18621Y-42061D01*
X18593Y-42075D01*
X18578Y-42089D01*
X18564Y-42118D01*
X18278Y-38246D02*
X18278Y-37946D01*
X18350Y-37946D01*
X18393Y-37961D01*
X18421Y-37989D01*
X18436Y-38018D01*
X18450Y-38075D01*
X18450Y-38118D01*
X18436Y-38175D01*
X18421Y-38204D01*
X18393Y-38232D01*
X18350Y-38246D01*
X18278Y-38246D01*
X18721Y-37946D02*
X18578Y-37946D01*
X18564Y-38089D01*
X18578Y-38075D01*
X18607Y-38061D01*
X18678Y-38061D01*
X18707Y-38075D01*
X18721Y-38089D01*
X18736Y-38118D01*
X18736Y-38189D01*
X18721Y-38218D01*
X18707Y-38232D01*
X18678Y-38246D01*
X18607Y-38246D01*
X18578Y-38232D01*
X18564Y-38218D01*
X18278Y-34246D02*
X18278Y-33946D01*
X18350Y-33946D01*
X18393Y-33961D01*
X18421Y-33989D01*
X18436Y-34018D01*
X18450Y-34075D01*
X18450Y-34118D01*
X18436Y-34175D01*
X18421Y-34204D01*
X18393Y-34232D01*
X18350Y-34246D01*
X18278Y-34246D01*
X18707Y-34046D02*
X18707Y-34246D01*
X18636Y-33932D02*
X18564Y-34146D01*
X18750Y-34146D01*
X20246Y-30972D02*
X19946Y-30972D01*
X19946Y-30900D01*
X19961Y-30857D01*
X19989Y-30829D01*
X20018Y-30814D01*
X20075Y-30800D01*
X20118Y-30800D01*
X20175Y-30814D01*
X20204Y-30829D01*
X20232Y-30857D01*
X20246Y-30900D01*
X20246Y-30972D01*
X19946Y-30700D02*
X19946Y-30514D01*
X20061Y-30614D01*
X20061Y-30572D01*
X20075Y-30543D01*
X20089Y-30529D01*
X20118Y-30514D01*
X20189Y-30514D01*
X20218Y-30529D01*
X20232Y-30543D01*
X20246Y-30572D01*
X20246Y-30657D01*
X20232Y-30686D01*
X20218Y-30700D01*
X24246Y-30972D02*
X23946Y-30972D01*
X23946Y-30900D01*
X23961Y-30857D01*
X23989Y-30829D01*
X24018Y-30814D01*
X24075Y-30800D01*
X24118Y-30800D01*
X24175Y-30814D01*
X24204Y-30829D01*
X24232Y-30857D01*
X24246Y-30900D01*
X24246Y-30972D01*
X23975Y-30686D02*
X23961Y-30672D01*
X23946Y-30643D01*
X23946Y-30572D01*
X23961Y-30543D01*
X23975Y-30529D01*
X24004Y-30514D01*
X24032Y-30514D01*
X24075Y-30529D01*
X24246Y-30700D01*
X24246Y-30514D01*
X28246Y-30972D02*
X27946Y-30972D01*
X27946Y-30900D01*
X27961Y-30857D01*
X27989Y-30829D01*
X28018Y-30814D01*
X28075Y-30800D01*
X28118Y-30800D01*
X28175Y-30814D01*
X28204Y-30829D01*
X28232Y-30857D01*
X28246Y-30900D01*
X28246Y-30972D01*
X28246Y-30514D02*
X28246Y-30686D01*
X28246Y-30600D02*
X27946Y-30600D01*
X27989Y-30629D01*
X28018Y-30657D01*
X28032Y-30686D01*
X33360Y-28946D02*
X33360Y-28646D01*
X33432Y-28646D01*
X33475Y-28661D01*
X33503Y-28689D01*
X33518Y-28718D01*
X33532Y-28775D01*
X33532Y-28818D01*
X33518Y-28875D01*
X33503Y-28904D01*
X33475Y-28932D01*
X33432Y-28946D01*
X33360Y-28946D01*
X33803Y-28646D02*
X33660Y-28646D01*
X33646Y-28789D01*
X33660Y-28775D01*
X33689Y-28761D01*
X33760Y-28761D01*
X33789Y-28775D01*
X33803Y-28789D01*
X33818Y-28818D01*
X33818Y-28889D01*
X33803Y-28918D01*
X33789Y-28932D01*
X33760Y-28946D01*
X33689Y-28946D01*
X33660Y-28932D01*
X33646Y-28918D01*
X34075Y-28746D02*
X34075Y-28946D01*
X34004Y-28632D02*
X33932Y-28846D01*
X34118Y-28846D01*
X33285Y-32296D02*
X33285Y-31996D01*
X33357Y-31996D01*
X33400Y-32011D01*
X33428Y-32039D01*
X33443Y-32068D01*
X33457Y-32125D01*
X33457Y-32168D01*
X33443Y-32225D01*
X33428Y-32254D01*
X33400Y-32282D01*
X33357Y-32296D01*
X33285Y-32296D01*
X33728Y-31996D02*
X33585Y-31996D01*
X33571Y-32139D01*
X33585Y-32125D01*
X33614Y-32111D01*
X33685Y-32111D01*
X33714Y-32125D01*
X33728Y-32139D01*
X33743Y-32168D01*
X33743Y-32239D01*
X33728Y-32268D01*
X33714Y-32282D01*
X33685Y-32296D01*
X33614Y-32296D01*
X33585Y-32282D01*
X33571Y-32268D01*
X34000Y-31996D02*
X33943Y-31996D01*
X33914Y-32011D01*
X33900Y-32025D01*
X33871Y-32068D01*
X33857Y-32125D01*
X33857Y-32239D01*
X33871Y-32268D01*
X33886Y-32282D01*
X33914Y-32296D01*
X33971Y-32296D01*
X34000Y-32282D01*
X34014Y-32268D01*
X34029Y-32239D01*
X34029Y-32168D01*
X34014Y-32139D01*
X34000Y-32125D01*
X33971Y-32111D01*
X33914Y-32111D01*
X33886Y-32125D01*
X33871Y-32139D01*
X33857Y-32168D01*
X33360Y-25246D02*
X33360Y-24946D01*
X33432Y-24946D01*
X33475Y-24961D01*
X33503Y-24989D01*
X33518Y-25018D01*
X33532Y-25075D01*
X33532Y-25118D01*
X33518Y-25175D01*
X33503Y-25204D01*
X33475Y-25232D01*
X33432Y-25246D01*
X33360Y-25246D01*
X33803Y-24946D02*
X33660Y-24946D01*
X33646Y-25089D01*
X33660Y-25075D01*
X33689Y-25061D01*
X33760Y-25061D01*
X33789Y-25075D01*
X33803Y-25089D01*
X33818Y-25118D01*
X33818Y-25189D01*
X33803Y-25218D01*
X33789Y-25232D01*
X33760Y-25246D01*
X33689Y-25246D01*
X33660Y-25232D01*
X33646Y-25218D01*
X33932Y-24975D02*
X33946Y-24961D01*
X33975Y-24946D01*
X34046Y-24946D01*
X34075Y-24961D01*
X34089Y-24975D01*
X34104Y-25004D01*
X34104Y-25032D01*
X34089Y-25075D01*
X33918Y-25246D01*
X34104Y-25246D01*
X33285Y-22146D02*
X33285Y-21846D01*
X33357Y-21846D01*
X33400Y-21861D01*
X33428Y-21889D01*
X33443Y-21918D01*
X33457Y-21975D01*
X33457Y-22018D01*
X33443Y-22075D01*
X33428Y-22104D01*
X33400Y-22132D01*
X33357Y-22146D01*
X33285Y-22146D01*
X33728Y-21846D02*
X33585Y-21846D01*
X33571Y-21989D01*
X33585Y-21975D01*
X33614Y-21961D01*
X33685Y-21961D01*
X33714Y-21975D01*
X33728Y-21989D01*
X33743Y-22018D01*
X33743Y-22089D01*
X33728Y-22118D01*
X33714Y-22132D01*
X33685Y-22146D01*
X33614Y-22146D01*
X33585Y-22132D01*
X33571Y-22118D01*
X33929Y-21846D02*
X33957Y-21846D01*
X33986Y-21861D01*
X34000Y-21875D01*
X34014Y-21904D01*
X34029Y-21961D01*
X34029Y-22032D01*
X34014Y-22089D01*
X34000Y-22118D01*
X33986Y-22132D01*
X33957Y-22146D01*
X33929Y-22146D01*
X33900Y-22132D01*
X33886Y-22118D01*
X33871Y-22089D01*
X33857Y-22032D01*
X33857Y-21961D01*
X33871Y-21904D01*
X33886Y-21875D01*
X33900Y-21861D01*
X33929Y-21846D01*
X33285Y-18146D02*
X33285Y-17846D01*
X33357Y-17846D01*
X33400Y-17861D01*
X33428Y-17889D01*
X33443Y-17918D01*
X33457Y-17975D01*
X33457Y-18018D01*
X33443Y-18075D01*
X33428Y-18104D01*
X33400Y-18132D01*
X33357Y-18146D01*
X33285Y-18146D01*
X33714Y-17946D02*
X33714Y-18146D01*
X33643Y-17832D02*
X33571Y-18046D01*
X33757Y-18046D01*
X33914Y-17975D02*
X33886Y-17961D01*
X33871Y-17946D01*
X33857Y-17918D01*
X33857Y-17904D01*
X33871Y-17875D01*
X33886Y-17861D01*
X33914Y-17846D01*
X33971Y-17846D01*
X34000Y-17861D01*
X34014Y-17875D01*
X34029Y-17904D01*
X34029Y-17918D01*
X34014Y-17946D01*
X34000Y-17961D01*
X33971Y-17975D01*
X33914Y-17975D01*
X33886Y-17989D01*
X33871Y-18004D01*
X33857Y-18032D01*
X33857Y-18089D01*
X33871Y-18118D01*
X33886Y-18132D01*
X33914Y-18146D01*
X33971Y-18146D01*
X34000Y-18132D01*
X34014Y-18118D01*
X34029Y-18089D01*
X34029Y-18032D01*
X34014Y-18004D01*
X34000Y-17989D01*
X33971Y-17975D01*
X33485Y-14371D02*
X33485Y-14071D01*
X33557Y-14071D01*
X33600Y-14086D01*
X33628Y-14114D01*
X33643Y-14143D01*
X33657Y-14200D01*
X33657Y-14243D01*
X33643Y-14300D01*
X33628Y-14329D01*
X33600Y-14357D01*
X33557Y-14371D01*
X33485Y-14371D01*
X33914Y-14171D02*
X33914Y-14371D01*
X33843Y-14057D02*
X33771Y-14271D01*
X33957Y-14271D01*
X34200Y-14071D02*
X34143Y-14071D01*
X34114Y-14086D01*
X34100Y-14100D01*
X34071Y-14143D01*
X34057Y-14200D01*
X34057Y-14314D01*
X34071Y-14343D01*
X34086Y-14357D01*
X34114Y-14371D01*
X34171Y-14371D01*
X34200Y-14357D01*
X34214Y-14343D01*
X34229Y-14314D01*
X34229Y-14243D01*
X34214Y-14214D01*
X34200Y-14200D01*
X34171Y-14186D01*
X34114Y-14186D01*
X34086Y-14200D01*
X34071Y-14214D01*
X34057Y-14243D01*
G54D12*
X38721Y-57822D02*
X38421Y-57822D01*
X38721Y-57650D02*
X38550Y-57779D01*
X38421Y-57650D02*
X38593Y-57822D01*
X38450Y-57536D02*
X38436Y-57522D01*
X38421Y-57493D01*
X38421Y-57422D01*
X38436Y-57393D01*
X38450Y-57379D01*
X38479Y-57364D01*
X38507Y-57364D01*
X38550Y-57379D01*
X38721Y-57550D01*
X38721Y-57364D01*
X38721Y-59368D02*
X38421Y-59368D01*
X38707Y-59239D02*
X38721Y-59196D01*
X38721Y-59125D01*
X38707Y-59096D01*
X38693Y-59082D01*
X38664Y-59067D01*
X38636Y-59067D01*
X38607Y-59082D01*
X38593Y-59096D01*
X38579Y-59125D01*
X38564Y-59182D01*
X38550Y-59210D01*
X38536Y-59225D01*
X38507Y-59239D01*
X38479Y-59239D01*
X38450Y-59225D01*
X38436Y-59210D01*
X38421Y-59182D01*
X38421Y-59110D01*
X38436Y-59067D01*
X38721Y-58939D02*
X38421Y-58939D01*
X38421Y-58824D01*
X38436Y-58796D01*
X38450Y-58781D01*
X38479Y-58767D01*
X38521Y-58767D01*
X38550Y-58781D01*
X38564Y-58796D01*
X38579Y-58824D01*
X38579Y-58939D01*
X39234Y-56976D02*
X39115Y-56976D01*
X39103Y-57095D01*
X39115Y-57083D01*
X39138Y-57071D01*
X39198Y-57071D01*
X39222Y-57083D01*
X39234Y-57095D01*
X39245Y-57119D01*
X39245Y-57179D01*
X39234Y-57202D01*
X39222Y-57214D01*
X39198Y-57226D01*
X39138Y-57226D01*
X39115Y-57214D01*
X39103Y-57202D01*
X39317Y-56976D02*
X39400Y-57226D01*
X39483Y-56976D01*
X39614Y-56976D02*
X39638Y-56976D01*
X39662Y-56988D01*
X39674Y-57000D01*
X39686Y-57024D01*
X39697Y-57071D01*
X39697Y-57131D01*
X39686Y-57179D01*
X39674Y-57202D01*
X39662Y-57214D01*
X39638Y-57226D01*
X39614Y-57226D01*
X39590Y-57214D01*
X39578Y-57202D01*
X39567Y-57179D01*
X39555Y-57131D01*
X39555Y-57071D01*
X39567Y-57024D01*
X39578Y-57000D01*
X39590Y-56988D01*
X39614Y-56976D01*
X31578Y-58646D02*
X31578Y-58346D01*
X31750Y-58646D02*
X31621Y-58475D01*
X31750Y-58346D02*
X31578Y-58518D01*
X32036Y-58646D02*
X31864Y-58646D01*
X31950Y-58646D02*
X31950Y-58346D01*
X31921Y-58389D01*
X31893Y-58418D01*
X31864Y-58432D01*
X31332Y-59139D02*
X31232Y-59139D01*
X31232Y-59296D02*
X31232Y-58996D01*
X31375Y-58996D01*
X31447Y-58996D02*
X31618Y-58996D01*
X31532Y-59296D02*
X31532Y-58996D01*
X31718Y-59296D02*
X31718Y-58996D01*
X31790Y-58996D01*
X31833Y-59011D01*
X31861Y-59039D01*
X31876Y-59068D01*
X31890Y-59125D01*
X31890Y-59168D01*
X31876Y-59225D01*
X31861Y-59254D01*
X31833Y-59282D01*
X31790Y-59296D01*
X31718Y-59296D01*
X32018Y-59296D02*
X32018Y-58996D01*
X37897Y-57986D02*
X37868Y-57971D01*
X37825Y-57971D01*
X37782Y-57986D01*
X37754Y-58014D01*
X37739Y-58043D01*
X37725Y-58100D01*
X37725Y-58143D01*
X37739Y-58200D01*
X37754Y-58229D01*
X37782Y-58257D01*
X37825Y-58271D01*
X37854Y-58271D01*
X37897Y-58257D01*
X37911Y-58243D01*
X37911Y-58143D01*
X37854Y-58143D01*
X38211Y-58271D02*
X38111Y-58129D01*
X38039Y-58271D02*
X38039Y-57971D01*
X38154Y-57971D01*
X38182Y-57986D01*
X38197Y-58000D01*
X38211Y-58029D01*
X38211Y-58071D01*
X38197Y-58100D01*
X38182Y-58114D01*
X38154Y-58129D01*
X38039Y-58129D01*
X38339Y-58271D02*
X38339Y-57971D01*
X38511Y-58271D01*
X38511Y-57971D01*
X32875Y-58114D02*
X32918Y-58129D01*
X32933Y-58143D01*
X32947Y-58171D01*
X32947Y-58214D01*
X32933Y-58243D01*
X32918Y-58257D01*
X32890Y-58271D01*
X32775Y-58271D01*
X32775Y-57971D01*
X32875Y-57971D01*
X32904Y-57986D01*
X32918Y-58000D01*
X32933Y-58029D01*
X32933Y-58057D01*
X32918Y-58086D01*
X32904Y-58100D01*
X32875Y-58114D01*
X32775Y-58114D01*
X33218Y-58271D02*
X33075Y-58271D01*
X33075Y-57971D01*
X33318Y-58271D02*
X33318Y-57971D01*
X33490Y-58271D02*
X33361Y-58100D01*
X33490Y-57971D02*
X33318Y-58143D01*
X26671Y-51454D02*
X26914Y-51454D01*
X26943Y-51439D01*
X26957Y-51425D01*
X26971Y-51396D01*
X26971Y-51339D01*
X26957Y-51311D01*
X26943Y-51296D01*
X26914Y-51282D01*
X26671Y-51282D01*
X26971Y-50982D02*
X26971Y-51154D01*
X26971Y-51068D02*
X26671Y-51068D01*
X26714Y-51097D01*
X26743Y-51125D01*
X26757Y-51154D01*
X32114Y-51261D02*
X32257Y-51261D01*
X32086Y-51346D02*
X32186Y-51046D01*
X32286Y-51346D01*
X32343Y-51046D02*
X32514Y-51046D01*
X32428Y-51346D02*
X32428Y-51046D01*
X32614Y-51346D02*
X32614Y-51046D01*
X32714Y-51261D01*
X32814Y-51046D01*
X32814Y-51346D01*
X32957Y-51189D02*
X33057Y-51189D01*
X33100Y-51346D02*
X32957Y-51346D01*
X32957Y-51046D01*
X33100Y-51046D01*
X33386Y-51061D02*
X33357Y-51046D01*
X33314Y-51046D01*
X33271Y-51061D01*
X33243Y-51089D01*
X33228Y-51118D01*
X33214Y-51175D01*
X33214Y-51218D01*
X33228Y-51275D01*
X33243Y-51304D01*
X33271Y-51332D01*
X33314Y-51346D01*
X33343Y-51346D01*
X33386Y-51332D01*
X33400Y-51318D01*
X33400Y-51218D01*
X33343Y-51218D01*
X33514Y-51261D02*
X33657Y-51261D01*
X33486Y-51346D02*
X33586Y-51046D01*
X33686Y-51346D01*
X33757Y-51046D02*
X33943Y-51046D01*
X33843Y-51161D01*
X33885Y-51161D01*
X33914Y-51175D01*
X33928Y-51189D01*
X33943Y-51218D01*
X33943Y-51289D01*
X33928Y-51318D01*
X33914Y-51332D01*
X33885Y-51346D01*
X33800Y-51346D01*
X33771Y-51332D01*
X33757Y-51318D01*
X34057Y-51075D02*
X34071Y-51061D01*
X34100Y-51046D01*
X34171Y-51046D01*
X34200Y-51061D01*
X34214Y-51075D01*
X34229Y-51104D01*
X34229Y-51132D01*
X34214Y-51175D01*
X34043Y-51346D01*
X34229Y-51346D01*
X34400Y-51175D02*
X34372Y-51161D01*
X34357Y-51146D01*
X34343Y-51118D01*
X34343Y-51104D01*
X34357Y-51075D01*
X34372Y-51061D01*
X34400Y-51046D01*
X34457Y-51046D01*
X34486Y-51061D01*
X34500Y-51075D01*
X34515Y-51104D01*
X34515Y-51118D01*
X34500Y-51146D01*
X34486Y-51161D01*
X34457Y-51175D01*
X34400Y-51175D01*
X34372Y-51189D01*
X34357Y-51204D01*
X34343Y-51232D01*
X34343Y-51289D01*
X34357Y-51318D01*
X34372Y-51332D01*
X34400Y-51346D01*
X34457Y-51346D01*
X34486Y-51332D01*
X34500Y-51318D01*
X34515Y-51289D01*
X34515Y-51232D01*
X34500Y-51204D01*
X34486Y-51189D01*
X34457Y-51175D01*
X34643Y-51232D02*
X34872Y-51232D01*
X35014Y-51346D02*
X35014Y-51046D01*
X35129Y-51046D01*
X35157Y-51061D01*
X35172Y-51075D01*
X35186Y-51104D01*
X35186Y-51146D01*
X35172Y-51175D01*
X35157Y-51189D01*
X35129Y-51204D01*
X35014Y-51204D01*
G54D15*
X37625Y-57018D02*
X37611Y-57032D01*
X37568Y-57046D01*
X37539Y-57046D01*
X37496Y-57032D01*
X37468Y-57004D01*
X37453Y-56975D01*
X37439Y-56918D01*
X37439Y-56875D01*
X37453Y-56818D01*
X37468Y-56789D01*
X37496Y-56761D01*
X37539Y-56746D01*
X37568Y-56746D01*
X37611Y-56761D01*
X37625Y-56775D01*
X37911Y-57046D02*
X37739Y-57046D01*
X37825Y-57046D02*
X37825Y-56746D01*
X37796Y-56789D01*
X37768Y-56818D01*
X37739Y-56832D01*
X33650Y-50543D02*
X33636Y-50557D01*
X33593Y-50571D01*
X33564Y-50571D01*
X33521Y-50557D01*
X33493Y-50529D01*
X33478Y-50500D01*
X33464Y-50443D01*
X33464Y-50400D01*
X33478Y-50343D01*
X33493Y-50314D01*
X33521Y-50286D01*
X33564Y-50271D01*
X33593Y-50271D01*
X33636Y-50286D01*
X33650Y-50300D01*
X33764Y-50300D02*
X33778Y-50286D01*
X33807Y-50271D01*
X33878Y-50271D01*
X33907Y-50286D01*
X33921Y-50300D01*
X33936Y-50329D01*
X33936Y-50357D01*
X33921Y-50400D01*
X33750Y-50571D01*
X33936Y-50571D01*
G54D12*
X51921Y-59222D02*
X51621Y-59222D01*
X51621Y-59107D01*
X51636Y-59079D01*
X51650Y-59064D01*
X51679Y-59050D01*
X51721Y-59050D01*
X51750Y-59064D01*
X51764Y-59079D01*
X51779Y-59107D01*
X51779Y-59222D01*
X51621Y-58950D02*
X51621Y-58764D01*
X51736Y-58864D01*
X51736Y-58822D01*
X51750Y-58793D01*
X51764Y-58779D01*
X51793Y-58764D01*
X51864Y-58764D01*
X51893Y-58779D01*
X51907Y-58793D01*
X51921Y-58822D01*
X51921Y-58907D01*
X51907Y-58936D01*
X51893Y-58950D01*
X51921Y-58222D02*
X51621Y-58222D01*
X51621Y-58107D01*
X51636Y-58079D01*
X51650Y-58064D01*
X51679Y-58050D01*
X51721Y-58050D01*
X51750Y-58064D01*
X51764Y-58079D01*
X51779Y-58107D01*
X51779Y-58222D01*
X51721Y-57793D02*
X51921Y-57793D01*
X51607Y-57864D02*
X51821Y-57936D01*
X51821Y-57750D01*
X38346Y-14722D02*
X38046Y-14722D01*
X38046Y-14607D01*
X38061Y-14579D01*
X38075Y-14564D01*
X38104Y-14550D01*
X38146Y-14550D01*
X38175Y-14564D01*
X38189Y-14579D01*
X38204Y-14607D01*
X38204Y-14722D01*
X38046Y-14293D02*
X38046Y-14350D01*
X38061Y-14379D01*
X38075Y-14393D01*
X38118Y-14422D01*
X38175Y-14436D01*
X38289Y-14436D01*
X38318Y-14422D01*
X38332Y-14407D01*
X38346Y-14379D01*
X38346Y-14322D01*
X38332Y-14293D01*
X38318Y-14279D01*
X38289Y-14264D01*
X38218Y-14264D01*
X38189Y-14279D01*
X38175Y-14293D01*
X38161Y-14322D01*
X38161Y-14379D01*
X38175Y-14407D01*
X38189Y-14422D01*
X38218Y-14436D01*
X38346Y-13722D02*
X38046Y-13722D01*
X38046Y-13607D01*
X38061Y-13579D01*
X38075Y-13564D01*
X38104Y-13550D01*
X38146Y-13550D01*
X38175Y-13564D01*
X38189Y-13579D01*
X38204Y-13607D01*
X38204Y-13722D01*
X38046Y-13279D02*
X38046Y-13422D01*
X38189Y-13436D01*
X38175Y-13422D01*
X38161Y-13393D01*
X38161Y-13322D01*
X38175Y-13293D01*
X38189Y-13279D01*
X38218Y-13264D01*
X38289Y-13264D01*
X38318Y-13279D01*
X38332Y-13293D01*
X38346Y-13322D01*
X38346Y-13393D01*
X38332Y-13422D01*
X38318Y-13436D01*
G54D14*
X22950Y-54888D02*
X22931Y-54926D01*
X22893Y-54964D01*
X22836Y-55021D01*
X22817Y-55060D01*
X22817Y-55098D01*
X22912Y-55079D02*
X22893Y-55117D01*
X22855Y-55155D01*
X22779Y-55174D01*
X22645Y-55174D01*
X22569Y-55155D01*
X22531Y-55117D01*
X22512Y-55079D01*
X22512Y-55002D01*
X22531Y-54964D01*
X22569Y-54926D01*
X22645Y-54907D01*
X22779Y-54907D01*
X22855Y-54926D01*
X22893Y-54964D01*
X22912Y-55002D01*
X22912Y-55079D01*
X22912Y-54526D02*
X22912Y-54755D01*
X22912Y-54641D02*
X22512Y-54641D01*
X22569Y-54679D01*
X22607Y-54717D01*
X22626Y-54755D01*
X23512Y-55364D02*
X23112Y-55364D01*
X23112Y-55211D01*
X23131Y-55173D01*
X23150Y-55154D01*
X23188Y-55135D01*
X23245Y-55135D01*
X23283Y-55154D01*
X23302Y-55173D01*
X23321Y-55211D01*
X23321Y-55364D01*
X23512Y-54964D02*
X23112Y-54964D01*
X23512Y-54735D01*
X23112Y-54735D01*
X23512Y-54545D02*
X23112Y-54545D01*
X23112Y-54392D01*
X23131Y-54354D01*
X23150Y-54335D01*
X23188Y-54316D01*
X23245Y-54316D01*
X23283Y-54335D01*
X23302Y-54354D01*
X23321Y-54392D01*
X23321Y-54545D01*
M02*
