M48
INCH,TZ
T1C0.025
T2C0.032
T3C0.035
T4C0.040
T5C0.050
T6C0.060
T7C0.120
%
G90
G05
T1
X17900Y-51600
X20120Y-50400
X22100Y-44950
X22100Y-48550
X24350Y-51600
X24975Y-53000
X25260Y-56460
X27690Y-49800
X27690Y-51980
X27900Y-40550
X28050Y-43550
X28150Y-50500
X28150Y-53620
X28528Y-54106
X28600Y-51600
X28600Y-53050
X28960Y-40550
X28960Y-46280
X28975Y-43550
X29450Y-57500
X29660Y-45280
X29850Y-42075
X29880Y-47930
X30300Y-41550
X30560Y-33280
X30650Y-38925
X30650Y-40550
X31325Y-52950
X31325Y-53475
X31975Y-40475
X32060Y-33400
X32400Y-14500
X32400Y-18500
X32400Y-22500
X32400Y-26500
X32400Y-30500
X32675Y-36850
X33350Y-37250
X33700Y-48150
X33825Y-44550
X34100Y-47375
X34960Y-14500
X34980Y-30500
X35000Y-22500
X35020Y-26500
X35040Y-18500
X35075Y-36850
X35375Y-53700
X35900Y-54850
X36200Y-54475
X36400Y-55325
X36450Y-54100
X36825Y-55575
X37125Y-55225
X37280Y-45960
X37440Y-42390
X37450Y-39300
X37830Y-45970
X37860Y-52870
X38760Y-53200
X38860Y-37950
X38925Y-21600
X39940Y-37950
X39960Y-47300
X39960Y-47900
X40100Y-39000
X40100Y-39900
X40880Y-55370
X40920Y-42300
X41250Y-42780
X42525Y-53000
X42970Y-55720
X43025Y-20850
X43600Y-58110
X44470Y-54830
X44625Y-51600
X44860Y-54470
X45170Y-54100
X45525Y-51600
X46425Y-21600
X47000Y-52200
X48000Y-53240
X48150Y-18000
X49350Y-20850
X50380Y-16290
X50500Y-20000
X50825Y-17075
X51275Y-17500
X52100Y-15200
X52590Y-15560
X52970Y-15920
X53480Y-16650
X53975Y-18000
X61425Y-21600
X66620Y-20500
X70520Y-20500
T2
X30590Y-46900
X31590Y-46900
X32590Y-46900
T3
X36100Y-39300
X36100Y-40300
X36100Y-41300
X36100Y-42300
X36100Y-43300
X36100Y-44300
X36100Y-45300
X36100Y-46300
X36100Y-47300
X36100Y-48300
X36100Y-49300
X36100Y-50300
X36100Y-51300
X36100Y-52300
X39100Y-39300
X39100Y-40300
X39100Y-41300
X39100Y-42300
X39100Y-43300
X39100Y-44300
X39100Y-45300
X39100Y-46300
X39100Y-47300
X39100Y-48300
X39100Y-49300
X39100Y-50300
X39100Y-51300
X39100Y-52300
T4
X21105Y-58890
X21480Y-57390
X22480Y-57390
X22855Y-58890
X26105Y-58890
X26480Y-57390
X27480Y-57390
X27855Y-58890
X30625Y-56500
X30625Y-57500
X30625Y-58500
X36500Y-56500
X36500Y-57500
X36500Y-58500
X37400Y-37175
X38000Y-56500
X38000Y-57500
X38000Y-59000
X38400Y-37175
X39000Y-56500
X39000Y-57500
X39000Y-59000
X39025Y-13500
X39025Y-14500
X39400Y-37175
X40000Y-56500
X40000Y-57500
X40000Y-59000
X40025Y-13500
X40025Y-14500
X41000Y-59000
X41025Y-13500
X41025Y-14500
X42000Y-59000
X42025Y-13500
X42025Y-14500
X43000Y-59000
X43025Y-13500
X43025Y-14500
X44025Y-13500
X44025Y-14500
X44500Y-56000
X44500Y-57000
X44500Y-58000
X44500Y-59000
X46000Y-58000
X46000Y-59000
X47000Y-58000
X47000Y-59000
X48000Y-58000
X48000Y-59000
X49000Y-58000
X49000Y-59000
X50000Y-58000
X50000Y-59000
X51000Y-58000
X51000Y-59000
T5
X20605Y-57890
X23355Y-57890
X25605Y-57890
X28355Y-57890
T6
X16550Y-57200
X18550Y-57200
T7
X33500Y-52000
X33500Y-57000
X56500Y-15500
X56500Y-20500
T0
M30
