G04 (created by PCBNEW-RS274X (2011-12-28 BZR 3254)-stable) date 7/19/2012 4:19:14 PM*
G01*
G70*
G90*
%MOIN*%
G04 Gerber Fmt 3.4, Leading zero omitted, Abs format*
%FSLAX34Y34*%
G04 APERTURE LIST*
%ADD10C,0.006000*%
%ADD11C,0.015000*%
%ADD12C,0.080000*%
%ADD13C,0.090000*%
%ADD14O,0.075000X0.100000*%
%ADD15R,0.075000X0.100000*%
%ADD16R,0.100000X0.044000*%
%ADD17R,0.071200X0.079000*%
%ADD18R,0.062000X0.076000*%
%ADD19R,0.090000X0.090000*%
%ADD20R,0.080000X0.080000*%
%ADD21C,0.220000*%
%ADD22R,0.079000X0.071200*%
%ADD23C,0.085000*%
%ADD24R,0.085000X0.085000*%
%ADD25C,0.060000*%
%ADD26O,0.110000X0.080000*%
%ADD27R,0.110000X0.080000*%
%ADD28C,0.100000*%
%ADD29R,0.080000X0.130000*%
%ADD30R,0.120000X0.120000*%
%ADD31C,0.120000*%
%ADD32R,0.094000X0.094000*%
%ADD33R,0.094000X0.064000*%
%ADD34R,0.094000X0.284000*%
G04 APERTURE END LIST*
G54D10*
G54D11*
X29500Y-26500D02*
X15000Y-26500D01*
X15000Y-26500D02*
X15000Y-12500D01*
X15000Y-12500D02*
X29500Y-12500D01*
X29500Y-12500D02*
X29500Y-26500D01*
X75000Y-46000D02*
X75000Y-60000D01*
X60500Y-46000D02*
X75000Y-46000D01*
X60500Y-60000D02*
X60500Y-46000D01*
X75000Y-60000D02*
X60500Y-60000D01*
X38000Y-12500D02*
X75000Y-12500D01*
X30500Y-12500D02*
X37000Y-12500D01*
X52000Y-60000D02*
X15000Y-60000D01*
X59500Y-60000D02*
X53000Y-60000D01*
X38000Y-34300D02*
X38000Y-12500D01*
X45500Y-34300D02*
X38000Y-34300D01*
X45500Y-37500D02*
X45500Y-34300D01*
X53000Y-37500D02*
X45500Y-37500D01*
X53000Y-60000D02*
X53000Y-37500D01*
X52000Y-38200D02*
X52000Y-60000D01*
X44500Y-38200D02*
X52000Y-38200D01*
X44500Y-35000D02*
X44500Y-38200D01*
X37000Y-35000D02*
X44500Y-35000D01*
X37000Y-12500D02*
X37000Y-35000D01*
X15000Y-27500D02*
X15000Y-60000D01*
X30500Y-27500D02*
X15000Y-27500D01*
X30500Y-12500D02*
X30500Y-27500D01*
X75000Y-45000D02*
X75000Y-12500D01*
X59500Y-45000D02*
X75000Y-45000D01*
X59500Y-60000D02*
X59500Y-45000D01*
G54D12*
X26350Y-25350D03*
X26350Y-24350D03*
X27350Y-25350D03*
X27350Y-24350D03*
X28350Y-25350D03*
X28350Y-24350D03*
X27350Y-21350D03*
G54D13*
X15589Y-20570D03*
X17361Y-23130D03*
X17361Y-20570D03*
X15589Y-23130D03*
G54D12*
X15600Y-24700D03*
X16600Y-24700D03*
X17600Y-24700D03*
X16600Y-25700D03*
G54D14*
X18750Y-24100D03*
G54D15*
X19750Y-24100D03*
G54D14*
X22750Y-24100D03*
G54D15*
X21750Y-24100D03*
G54D16*
X21300Y-20250D03*
X23200Y-20250D03*
X21300Y-19750D03*
X21300Y-19250D03*
X21300Y-18750D03*
X23200Y-19750D03*
X23200Y-19250D03*
X23200Y-18750D03*
G54D17*
X19475Y-22325D03*
X20225Y-22325D03*
X22600Y-22325D03*
X21850Y-22325D03*
X20225Y-21300D03*
X19475Y-21300D03*
X23125Y-16425D03*
X23875Y-16425D03*
X20650Y-16425D03*
X21400Y-16425D03*
G54D18*
X20625Y-17750D03*
X21425Y-17750D03*
X23875Y-17750D03*
X23075Y-17750D03*
X21850Y-21300D03*
X22650Y-21300D03*
G54D19*
X24400Y-24600D03*
G54D13*
X24400Y-23600D03*
G54D12*
X32590Y-46900D03*
X30590Y-46900D03*
G54D20*
X31590Y-46900D03*
G54D21*
X33500Y-57000D03*
X33500Y-52000D03*
G54D17*
X27825Y-39000D03*
X28575Y-39000D03*
X20975Y-52550D03*
X20225Y-52550D03*
X20225Y-40750D03*
X20975Y-40750D03*
X20225Y-48750D03*
X20975Y-48750D03*
X27825Y-47000D03*
X28575Y-47000D03*
X42825Y-39000D03*
X43575Y-39000D03*
X42825Y-47000D03*
X43575Y-47000D03*
X50325Y-42200D03*
X51075Y-42200D03*
X21100Y-32850D03*
X21850Y-32850D03*
X25875Y-32850D03*
X25125Y-32850D03*
X25875Y-55000D03*
X26625Y-55000D03*
G54D22*
X37440Y-41675D03*
X37440Y-40925D03*
G54D17*
X50325Y-50200D03*
X51075Y-50200D03*
G54D23*
X44500Y-59000D03*
G54D24*
X44500Y-56000D03*
G54D23*
X44500Y-57000D03*
X44500Y-58000D03*
G54D25*
X30560Y-33280D03*
X37450Y-39300D03*
X40100Y-39000D03*
X40100Y-39900D03*
G54D12*
X38000Y-56500D03*
X38000Y-57500D03*
X39000Y-56500D03*
X39000Y-57500D03*
X40000Y-56500D03*
G54D20*
X40000Y-57500D03*
X38000Y-59000D03*
X39000Y-59000D03*
G54D12*
X40000Y-59000D03*
X41000Y-59000D03*
X42000Y-59000D03*
X43000Y-59000D03*
G54D26*
X36100Y-51300D03*
X36100Y-50300D03*
X36100Y-49300D03*
X36100Y-48300D03*
X36100Y-47300D03*
X36100Y-46300D03*
G54D27*
X36100Y-45300D03*
G54D26*
X36100Y-44300D03*
X36100Y-43300D03*
X36100Y-42300D03*
X36100Y-41300D03*
X36100Y-40300D03*
X36100Y-39300D03*
X36100Y-52300D03*
X39100Y-39300D03*
X39100Y-40300D03*
X39100Y-41300D03*
X39100Y-42300D03*
X39100Y-43300D03*
X39100Y-44300D03*
X39100Y-45300D03*
G54D27*
X39100Y-46300D03*
G54D26*
X39100Y-47300D03*
X39100Y-48300D03*
X39100Y-49300D03*
X39100Y-50300D03*
X39100Y-51300D03*
X39100Y-52300D03*
G54D18*
X42200Y-57750D03*
X43000Y-57750D03*
X38040Y-45300D03*
X37240Y-45300D03*
G54D23*
X46000Y-59000D03*
X47000Y-59000D03*
X48000Y-59000D03*
X49000Y-59000D03*
X50000Y-59000D03*
X51000Y-59000D03*
G54D24*
X46000Y-58000D03*
X47000Y-58000D03*
G54D23*
X48000Y-58000D03*
X49000Y-58000D03*
X50000Y-58000D03*
X51000Y-58000D03*
G54D24*
X44025Y-14500D03*
X43025Y-14500D03*
G54D23*
X42025Y-14500D03*
X41025Y-14500D03*
X40025Y-14500D03*
X39025Y-14500D03*
X44025Y-13500D03*
X43025Y-13500D03*
X42025Y-13500D03*
X41025Y-13500D03*
X40025Y-13500D03*
X39025Y-13500D03*
G54D12*
X30625Y-56500D03*
X30625Y-57500D03*
X30625Y-58500D03*
X36500Y-56500D03*
X36500Y-57500D03*
G54D20*
X36500Y-58500D03*
G54D23*
X37400Y-37175D03*
G54D24*
X38400Y-37175D03*
G54D23*
X39400Y-37175D03*
G54D25*
X39960Y-47300D03*
X39960Y-47900D03*
G54D21*
X56500Y-20500D03*
X56500Y-15500D03*
G54D13*
X22855Y-58890D03*
X21105Y-58890D03*
G54D28*
X23355Y-57890D03*
X20605Y-57890D03*
G54D13*
X21480Y-57390D03*
X22480Y-57390D03*
X27855Y-58890D03*
X26105Y-58890D03*
G54D28*
X28355Y-57890D03*
X25605Y-57890D03*
G54D13*
X26480Y-57390D03*
X27480Y-57390D03*
G54D29*
X34360Y-42500D03*
X33160Y-42500D03*
X34360Y-38500D03*
X33160Y-38500D03*
X34250Y-34500D03*
X33050Y-34500D03*
X34350Y-30500D03*
X33150Y-30500D03*
X34350Y-26500D03*
X33150Y-26500D03*
X34350Y-22500D03*
X33150Y-22500D03*
X34350Y-18500D03*
X33150Y-18500D03*
X34350Y-14500D03*
X33150Y-14500D03*
X49350Y-52200D03*
X48150Y-52200D03*
X49350Y-48200D03*
X48150Y-48200D03*
X49350Y-44200D03*
X48150Y-44200D03*
X49350Y-40200D03*
X48150Y-40200D03*
X41850Y-49000D03*
X40650Y-49000D03*
X41850Y-45000D03*
X40650Y-45000D03*
X41850Y-41000D03*
X40650Y-41000D03*
X41850Y-37000D03*
X40650Y-37000D03*
X26850Y-49000D03*
X25650Y-49000D03*
X26850Y-45000D03*
X25650Y-45000D03*
X26850Y-41000D03*
X25650Y-41000D03*
X26850Y-37000D03*
X25650Y-37000D03*
X41850Y-53000D03*
X40650Y-53000D03*
X26850Y-53000D03*
X25650Y-53000D03*
X19100Y-50750D03*
X17900Y-50750D03*
X19100Y-46750D03*
X17900Y-46750D03*
X19100Y-42750D03*
X17900Y-42750D03*
X19100Y-38750D03*
X17900Y-38750D03*
X19100Y-34750D03*
X17900Y-34750D03*
X20100Y-30750D03*
X18900Y-30750D03*
X24100Y-30750D03*
X22900Y-30750D03*
X28100Y-30750D03*
X26900Y-30750D03*
G54D30*
X16550Y-57200D03*
G54D31*
X18550Y-57200D03*
G54D32*
X24270Y-55910D03*
G54D33*
X24270Y-54850D03*
G54D32*
X24270Y-53790D03*
G54D34*
X21830Y-54850D03*
G54D19*
X69900Y-58100D03*
G54D13*
X69900Y-57100D03*
G54D18*
X67350Y-54800D03*
X68150Y-54800D03*
X69375Y-51250D03*
X68575Y-51250D03*
X66125Y-51250D03*
X66925Y-51250D03*
G54D17*
X66150Y-49925D03*
X66900Y-49925D03*
X68625Y-49925D03*
X69375Y-49925D03*
X65725Y-54800D03*
X64975Y-54800D03*
X68100Y-55825D03*
X67350Y-55825D03*
X64975Y-55825D03*
X65725Y-55825D03*
G54D16*
X66800Y-53750D03*
X68700Y-53750D03*
X66800Y-53250D03*
X66800Y-52750D03*
X66800Y-52250D03*
X68700Y-53250D03*
X68700Y-52750D03*
X68700Y-52250D03*
G54D14*
X68250Y-57600D03*
G54D15*
X67250Y-57600D03*
G54D14*
X64250Y-57600D03*
G54D15*
X65250Y-57600D03*
G54D12*
X61100Y-58200D03*
X62100Y-58200D03*
X63100Y-58200D03*
X62100Y-59200D03*
G54D13*
X61089Y-54070D03*
X62861Y-56630D03*
X62861Y-54070D03*
X61089Y-56630D03*
G54D12*
X71850Y-58850D03*
X71850Y-57850D03*
X72850Y-58850D03*
X72850Y-57850D03*
X73850Y-58850D03*
X73850Y-57850D03*
X72850Y-54850D03*
M02*
