G04 (created by PCBNEW-RS274X (2011-12-28 BZR 3254)-stable) date 7/21/2012 6:49:21 PM*
G01*
G70*
G90*
%MOIN*%
G04 Gerber Fmt 3.4, Leading zero omitted, Abs format*
%FSLAX34Y34*%
G04 APERTURE LIST*
%ADD10C,0.006000*%
%ADD11C,0.005000*%
%ADD12C,0.012000*%
%ADD13C,0.020000*%
%ADD14C,0.015000*%
%ADD15C,0.010000*%
%ADD16C,0.080000*%
%ADD17C,0.100000*%
%ADD18C,0.080000*%
%ADD19C,0.090000*%
%ADD20O,0.075000X0.100000*%
%ADD21R,0.075000X0.100000*%
%ADD22R,0.100000X0.044000*%
%ADD23R,0.071200X0.079000*%
%ADD24R,0.062000X0.076000*%
%ADD25R,0.090000X0.090000*%
%ADD26R,0.094000X0.094000*%
%ADD27R,0.094000X0.064000*%
%ADD28R,0.094000X0.284000*%
%ADD29R,0.120000X0.120000*%
%ADD30C,0.120000*%
%ADD31R,0.080000X0.130000*%
%ADD32C,0.100000*%
%ADD33C,0.220000*%
%ADD34C,0.060000*%
%ADD35R,0.085000X0.085000*%
%ADD36C,0.085000*%
%ADD37O,0.110000X0.080000*%
%ADD38R,0.110000X0.080000*%
%ADD39R,0.080000X0.080000*%
%ADD40R,0.079000X0.071200*%
%ADD41R,0.145000X0.080000*%
G04 APERTURE END LIST*
G54D10*
G54D11*
X45339Y-59404D02*
X45351Y-59364D01*
X45351Y-59297D01*
X45339Y-59270D01*
X45327Y-59257D01*
X45304Y-59244D01*
X45280Y-59244D01*
X45256Y-59257D01*
X45244Y-59270D01*
X45232Y-59297D01*
X45220Y-59350D01*
X45208Y-59377D01*
X45196Y-59390D01*
X45173Y-59404D01*
X45149Y-59404D01*
X45125Y-59390D01*
X45113Y-59377D01*
X45101Y-59350D01*
X45101Y-59284D01*
X45113Y-59244D01*
X45351Y-59123D02*
X45101Y-59123D01*
X45101Y-59057D01*
X45113Y-59017D01*
X45137Y-58990D01*
X45161Y-58977D01*
X45208Y-58963D01*
X45244Y-58963D01*
X45292Y-58977D01*
X45315Y-58990D01*
X45339Y-59017D01*
X45351Y-59057D01*
X45351Y-59123D01*
X45280Y-58857D02*
X45280Y-58723D01*
X45351Y-58883D02*
X45101Y-58790D01*
X45351Y-58697D01*
X45435Y-58537D02*
X45077Y-58537D01*
X45339Y-58350D02*
X45351Y-58310D01*
X45351Y-58243D01*
X45339Y-58216D01*
X45327Y-58203D01*
X45304Y-58190D01*
X45280Y-58190D01*
X45256Y-58203D01*
X45244Y-58216D01*
X45232Y-58243D01*
X45220Y-58296D01*
X45208Y-58323D01*
X45196Y-58336D01*
X45173Y-58350D01*
X45149Y-58350D01*
X45125Y-58336D01*
X45113Y-58323D01*
X45101Y-58296D01*
X45101Y-58230D01*
X45113Y-58190D01*
X45327Y-57909D02*
X45339Y-57923D01*
X45351Y-57963D01*
X45351Y-57989D01*
X45339Y-58029D01*
X45315Y-58056D01*
X45292Y-58069D01*
X45244Y-58083D01*
X45208Y-58083D01*
X45161Y-58069D01*
X45137Y-58056D01*
X45113Y-58029D01*
X45101Y-57989D01*
X45101Y-57963D01*
X45113Y-57923D01*
X45125Y-57909D01*
X45351Y-57656D02*
X45351Y-57789D01*
X45101Y-57789D01*
X45435Y-57496D02*
X45077Y-57496D01*
X45101Y-57335D02*
X45351Y-57242D01*
X45101Y-57149D01*
X45327Y-56895D02*
X45339Y-56909D01*
X45351Y-56949D01*
X45351Y-56975D01*
X45339Y-57015D01*
X45315Y-57042D01*
X45292Y-57055D01*
X45244Y-57069D01*
X45208Y-57069D01*
X45161Y-57055D01*
X45137Y-57042D01*
X45113Y-57015D01*
X45101Y-56975D01*
X45101Y-56949D01*
X45113Y-56909D01*
X45125Y-56895D01*
X45327Y-56615D02*
X45339Y-56629D01*
X45351Y-56669D01*
X45351Y-56695D01*
X45339Y-56735D01*
X45315Y-56762D01*
X45292Y-56775D01*
X45244Y-56789D01*
X45208Y-56789D01*
X45161Y-56775D01*
X45137Y-56762D01*
X45113Y-56735D01*
X45101Y-56695D01*
X45101Y-56669D01*
X45113Y-56629D01*
X45125Y-56615D01*
X45435Y-56429D02*
X45077Y-56429D01*
X45113Y-56082D02*
X45101Y-56108D01*
X45101Y-56148D01*
X45113Y-56188D01*
X45137Y-56215D01*
X45161Y-56228D01*
X45208Y-56242D01*
X45244Y-56242D01*
X45292Y-56228D01*
X45315Y-56215D01*
X45339Y-56188D01*
X45351Y-56148D01*
X45351Y-56122D01*
X45339Y-56082D01*
X45327Y-56068D01*
X45244Y-56068D01*
X45244Y-56122D01*
X45351Y-55948D02*
X45101Y-55948D01*
X45351Y-55788D01*
X45101Y-55788D01*
X45351Y-55655D02*
X45101Y-55655D01*
X45101Y-55589D01*
X45113Y-55549D01*
X45137Y-55522D01*
X45161Y-55509D01*
X45208Y-55495D01*
X45244Y-55495D01*
X45292Y-55509D01*
X45315Y-55522D01*
X45339Y-55549D01*
X45351Y-55589D01*
X45351Y-55655D01*
X40207Y-59714D02*
X40107Y-59714D01*
X40107Y-59871D02*
X40107Y-59571D01*
X40250Y-59571D01*
X40322Y-59571D02*
X40493Y-59571D01*
X40407Y-59871D02*
X40407Y-59571D01*
X40593Y-59871D02*
X40593Y-59571D01*
X40665Y-59571D01*
X40708Y-59586D01*
X40736Y-59614D01*
X40751Y-59643D01*
X40765Y-59700D01*
X40765Y-59743D01*
X40751Y-59800D01*
X40736Y-59829D01*
X40708Y-59857D01*
X40665Y-59871D01*
X40593Y-59871D01*
X40893Y-59871D02*
X40893Y-59571D01*
X42747Y-59586D02*
X42718Y-59571D01*
X42675Y-59571D01*
X42632Y-59586D01*
X42604Y-59614D01*
X42589Y-59643D01*
X42575Y-59700D01*
X42575Y-59743D01*
X42589Y-59800D01*
X42604Y-59829D01*
X42632Y-59857D01*
X42675Y-59871D01*
X42704Y-59871D01*
X42747Y-59857D01*
X42761Y-59843D01*
X42761Y-59743D01*
X42704Y-59743D01*
X43061Y-59871D02*
X42961Y-59729D01*
X42889Y-59871D02*
X42889Y-59571D01*
X43004Y-59571D01*
X43032Y-59586D01*
X43047Y-59600D01*
X43061Y-59629D01*
X43061Y-59671D01*
X43047Y-59700D01*
X43032Y-59714D01*
X43004Y-59729D01*
X42889Y-59729D01*
X43189Y-59871D02*
X43189Y-59571D01*
X43361Y-59871D01*
X43361Y-59571D01*
X37725Y-59714D02*
X37768Y-59729D01*
X37783Y-59743D01*
X37797Y-59771D01*
X37797Y-59814D01*
X37783Y-59843D01*
X37768Y-59857D01*
X37740Y-59871D01*
X37625Y-59871D01*
X37625Y-59571D01*
X37725Y-59571D01*
X37754Y-59586D01*
X37768Y-59600D01*
X37783Y-59629D01*
X37783Y-59657D01*
X37768Y-59686D01*
X37754Y-59700D01*
X37725Y-59714D01*
X37625Y-59714D01*
X38068Y-59871D02*
X37925Y-59871D01*
X37925Y-59571D01*
X38168Y-59871D02*
X38168Y-59571D01*
X38340Y-59871D02*
X38211Y-59700D01*
X38340Y-59571D02*
X38168Y-59743D01*
X35643Y-56039D02*
X35629Y-56082D01*
X35629Y-56153D01*
X35643Y-56182D01*
X35657Y-56196D01*
X35686Y-56211D01*
X35714Y-56211D01*
X35743Y-56196D01*
X35757Y-56182D01*
X35771Y-56153D01*
X35786Y-56096D01*
X35800Y-56068D01*
X35814Y-56053D01*
X35843Y-56039D01*
X35871Y-56039D01*
X35900Y-56053D01*
X35914Y-56068D01*
X35929Y-56096D01*
X35929Y-56168D01*
X35914Y-56211D01*
X35786Y-56339D02*
X35786Y-56439D01*
X35629Y-56482D02*
X35629Y-56339D01*
X35929Y-56339D01*
X35929Y-56482D01*
X35629Y-56782D02*
X35771Y-56682D01*
X35629Y-56610D02*
X35929Y-56610D01*
X35929Y-56725D01*
X35914Y-56753D01*
X35900Y-56768D01*
X35871Y-56782D01*
X35829Y-56782D01*
X35800Y-56768D01*
X35786Y-56753D01*
X35771Y-56725D01*
X35771Y-56610D01*
X35929Y-57097D02*
X35629Y-57197D01*
X35929Y-57297D01*
X35657Y-57568D02*
X35643Y-57554D01*
X35629Y-57511D01*
X35629Y-57482D01*
X35643Y-57439D01*
X35671Y-57411D01*
X35700Y-57396D01*
X35757Y-57382D01*
X35800Y-57382D01*
X35857Y-57396D01*
X35886Y-57411D01*
X35914Y-57439D01*
X35929Y-57482D01*
X35929Y-57511D01*
X35914Y-57554D01*
X35900Y-57568D01*
X35657Y-57868D02*
X35643Y-57854D01*
X35629Y-57811D01*
X35629Y-57782D01*
X35643Y-57739D01*
X35671Y-57711D01*
X35700Y-57696D01*
X35757Y-57682D01*
X35800Y-57682D01*
X35857Y-57696D01*
X35886Y-57711D01*
X35914Y-57739D01*
X35929Y-57782D01*
X35929Y-57811D01*
X35914Y-57854D01*
X35900Y-57868D01*
X35914Y-58383D02*
X35929Y-58354D01*
X35929Y-58311D01*
X35914Y-58268D01*
X35886Y-58240D01*
X35857Y-58225D01*
X35800Y-58211D01*
X35757Y-58211D01*
X35700Y-58225D01*
X35671Y-58240D01*
X35643Y-58268D01*
X35629Y-58311D01*
X35629Y-58340D01*
X35643Y-58383D01*
X35657Y-58397D01*
X35757Y-58397D01*
X35757Y-58340D01*
X35629Y-58525D02*
X35929Y-58525D01*
X35629Y-58697D01*
X35929Y-58697D01*
X35629Y-58839D02*
X35929Y-58839D01*
X35929Y-58911D01*
X35914Y-58954D01*
X35886Y-58982D01*
X35857Y-58997D01*
X35800Y-59011D01*
X35757Y-59011D01*
X35700Y-58997D01*
X35671Y-58982D01*
X35643Y-58954D01*
X35629Y-58911D01*
X35629Y-58839D01*
X35843Y-59807D02*
X35886Y-59821D01*
X35957Y-59821D01*
X35986Y-59807D01*
X36000Y-59793D01*
X36015Y-59764D01*
X36015Y-59736D01*
X36000Y-59707D01*
X35986Y-59693D01*
X35957Y-59679D01*
X35900Y-59664D01*
X35872Y-59650D01*
X35857Y-59636D01*
X35843Y-59607D01*
X35843Y-59579D01*
X35857Y-59550D01*
X35872Y-59536D01*
X35900Y-59521D01*
X35972Y-59521D01*
X36015Y-59536D01*
X36143Y-59664D02*
X36243Y-59664D01*
X36286Y-59821D02*
X36143Y-59821D01*
X36143Y-59521D01*
X36286Y-59521D01*
X36586Y-59821D02*
X36486Y-59679D01*
X36414Y-59821D02*
X36414Y-59521D01*
X36529Y-59521D01*
X36557Y-59536D01*
X36572Y-59550D01*
X36586Y-59579D01*
X36586Y-59621D01*
X36572Y-59650D01*
X36557Y-59664D01*
X36529Y-59679D01*
X36414Y-59679D01*
X36672Y-59521D02*
X36772Y-59821D01*
X36872Y-59521D01*
X37029Y-59521D02*
X37086Y-59521D01*
X37114Y-59536D01*
X37143Y-59564D01*
X37157Y-59621D01*
X37157Y-59721D01*
X37143Y-59779D01*
X37114Y-59807D01*
X37086Y-59821D01*
X37029Y-59821D01*
X37000Y-59807D01*
X36971Y-59779D01*
X36957Y-59721D01*
X36957Y-59621D01*
X36971Y-59564D01*
X37000Y-59536D01*
X37029Y-59521D01*
X31196Y-58904D02*
X31439Y-58904D01*
X31468Y-58889D01*
X31482Y-58875D01*
X31496Y-58846D01*
X31496Y-58789D01*
X31482Y-58761D01*
X31468Y-58746D01*
X31439Y-58732D01*
X31196Y-58732D01*
X31482Y-58604D02*
X31496Y-58561D01*
X31496Y-58490D01*
X31482Y-58461D01*
X31468Y-58447D01*
X31439Y-58432D01*
X31411Y-58432D01*
X31382Y-58447D01*
X31368Y-58461D01*
X31354Y-58490D01*
X31339Y-58547D01*
X31325Y-58575D01*
X31311Y-58590D01*
X31282Y-58604D01*
X31254Y-58604D01*
X31225Y-58590D01*
X31211Y-58575D01*
X31196Y-58547D01*
X31196Y-58475D01*
X31211Y-58432D01*
X31339Y-58204D02*
X31354Y-58161D01*
X31368Y-58146D01*
X31396Y-58132D01*
X31439Y-58132D01*
X31468Y-58146D01*
X31482Y-58161D01*
X31496Y-58189D01*
X31496Y-58304D01*
X31196Y-58304D01*
X31196Y-58204D01*
X31211Y-58175D01*
X31225Y-58161D01*
X31254Y-58146D01*
X31282Y-58146D01*
X31311Y-58161D01*
X31325Y-58175D01*
X31339Y-58204D01*
X31339Y-58304D01*
X31364Y-56772D02*
X31379Y-56729D01*
X31393Y-56714D01*
X31421Y-56700D01*
X31464Y-56700D01*
X31493Y-56714D01*
X31507Y-56729D01*
X31521Y-56757D01*
X31521Y-56872D01*
X31221Y-56872D01*
X31221Y-56772D01*
X31236Y-56743D01*
X31250Y-56729D01*
X31279Y-56714D01*
X31307Y-56714D01*
X31336Y-56729D01*
X31350Y-56743D01*
X31364Y-56772D01*
X31364Y-56872D01*
X31436Y-56586D02*
X31436Y-56443D01*
X31521Y-56614D02*
X31221Y-56514D01*
X31521Y-56414D01*
X31221Y-56357D02*
X31221Y-56186D01*
X31521Y-56272D02*
X31221Y-56272D01*
X30036Y-55596D02*
X30136Y-55896D01*
X30236Y-55596D01*
X30264Y-55925D02*
X30493Y-55925D01*
X30550Y-55882D02*
X30593Y-55896D01*
X30664Y-55896D01*
X30693Y-55882D01*
X30707Y-55868D01*
X30722Y-55839D01*
X30722Y-55811D01*
X30707Y-55782D01*
X30693Y-55768D01*
X30664Y-55754D01*
X30607Y-55739D01*
X30579Y-55725D01*
X30564Y-55711D01*
X30550Y-55682D01*
X30550Y-55654D01*
X30564Y-55625D01*
X30579Y-55611D01*
X30607Y-55596D01*
X30679Y-55596D01*
X30722Y-55611D01*
X30850Y-55739D02*
X30950Y-55739D01*
X30993Y-55896D02*
X30850Y-55896D01*
X30850Y-55596D01*
X30993Y-55596D01*
X31264Y-55896D02*
X31121Y-55896D01*
X31121Y-55596D01*
X26731Y-59696D02*
X26597Y-59554D01*
X26502Y-59696D02*
X26502Y-59396D01*
X26655Y-59396D01*
X26693Y-59411D01*
X26712Y-59425D01*
X26731Y-59454D01*
X26731Y-59496D01*
X26712Y-59525D01*
X26693Y-59539D01*
X26655Y-59554D01*
X26502Y-59554D01*
X26883Y-59682D02*
X26940Y-59696D01*
X27036Y-59696D01*
X27074Y-59682D01*
X27093Y-59668D01*
X27112Y-59639D01*
X27112Y-59611D01*
X27093Y-59582D01*
X27074Y-59568D01*
X27036Y-59554D01*
X26959Y-59539D01*
X26921Y-59525D01*
X26902Y-59511D01*
X26883Y-59482D01*
X26883Y-59454D01*
X26902Y-59425D01*
X26921Y-59411D01*
X26959Y-59396D01*
X27055Y-59396D01*
X27112Y-59411D01*
X27226Y-59396D02*
X27455Y-59396D01*
X27340Y-59696D02*
X27340Y-59396D01*
X21277Y-59732D02*
X21334Y-59746D01*
X21430Y-59746D01*
X21468Y-59732D01*
X21487Y-59718D01*
X21506Y-59689D01*
X21506Y-59661D01*
X21487Y-59632D01*
X21468Y-59618D01*
X21430Y-59604D01*
X21353Y-59589D01*
X21315Y-59575D01*
X21296Y-59561D01*
X21277Y-59532D01*
X21277Y-59504D01*
X21296Y-59475D01*
X21315Y-59461D01*
X21353Y-59446D01*
X21449Y-59446D01*
X21506Y-59461D01*
X21620Y-59446D02*
X21849Y-59446D01*
X21734Y-59746D02*
X21734Y-59446D01*
X22116Y-59589D02*
X21982Y-59589D01*
X21982Y-59746D02*
X21982Y-59446D01*
X22173Y-59446D01*
X22325Y-59446D02*
X22325Y-59689D01*
X22344Y-59718D01*
X22363Y-59732D01*
X22401Y-59746D01*
X22478Y-59746D01*
X22516Y-59732D01*
X22535Y-59718D01*
X22554Y-59689D01*
X22554Y-59446D01*
G54D12*
X16171Y-59194D02*
X16052Y-59194D01*
X16052Y-58480D01*
X16171Y-58480D01*
X16361Y-58837D02*
X16742Y-58837D01*
X16932Y-59194D02*
X17051Y-59194D01*
X17051Y-58480D01*
X16932Y-58480D01*
X18218Y-59194D02*
X18099Y-59194D01*
X18099Y-58480D01*
X18218Y-58480D01*
X18408Y-58837D02*
X18789Y-58837D01*
X18599Y-59027D02*
X18599Y-58646D01*
X18979Y-59194D02*
X19098Y-59194D01*
X19098Y-58480D01*
X18979Y-58480D01*
G54D11*
X45752Y-59745D02*
X45662Y-59745D01*
X45662Y-59876D02*
X45662Y-59626D01*
X45791Y-59626D01*
X45945Y-59626D02*
X45970Y-59626D01*
X45996Y-59638D01*
X46009Y-59650D01*
X46022Y-59674D01*
X46035Y-59721D01*
X46035Y-59781D01*
X46022Y-59829D01*
X46009Y-59852D01*
X45996Y-59864D01*
X45970Y-59876D01*
X45945Y-59876D01*
X45919Y-59864D01*
X45906Y-59852D01*
X45893Y-59829D01*
X45880Y-59781D01*
X45880Y-59721D01*
X45893Y-59674D01*
X45906Y-59650D01*
X45919Y-59638D01*
X45945Y-59626D01*
X46279Y-59626D02*
X46150Y-59626D01*
X46137Y-59745D01*
X46150Y-59733D01*
X46176Y-59721D01*
X46240Y-59721D01*
X46266Y-59733D01*
X46279Y-59745D01*
X46292Y-59769D01*
X46292Y-59829D01*
X46279Y-59852D01*
X46266Y-59864D01*
X46240Y-59876D01*
X46176Y-59876D01*
X46150Y-59864D01*
X46137Y-59852D01*
X46472Y-59960D02*
X46472Y-59602D01*
X46754Y-59745D02*
X46664Y-59745D01*
X46664Y-59876D02*
X46664Y-59626D01*
X46793Y-59626D01*
X46947Y-59626D02*
X46972Y-59626D01*
X46998Y-59638D01*
X47011Y-59650D01*
X47024Y-59674D01*
X47037Y-59721D01*
X47037Y-59781D01*
X47024Y-59829D01*
X47011Y-59852D01*
X46998Y-59864D01*
X46972Y-59876D01*
X46947Y-59876D01*
X46921Y-59864D01*
X46908Y-59852D01*
X46895Y-59829D01*
X46882Y-59781D01*
X46882Y-59721D01*
X46895Y-59674D01*
X46908Y-59650D01*
X46921Y-59638D01*
X46947Y-59626D01*
X47268Y-59710D02*
X47268Y-59876D01*
X47204Y-59614D02*
X47139Y-59793D01*
X47307Y-59793D01*
X47474Y-59960D02*
X47474Y-59602D01*
X47756Y-59745D02*
X47666Y-59745D01*
X47666Y-59876D02*
X47666Y-59626D01*
X47795Y-59626D01*
X47949Y-59626D02*
X47974Y-59626D01*
X48000Y-59638D01*
X48013Y-59650D01*
X48026Y-59674D01*
X48039Y-59721D01*
X48039Y-59781D01*
X48026Y-59829D01*
X48013Y-59852D01*
X48000Y-59864D01*
X47974Y-59876D01*
X47949Y-59876D01*
X47923Y-59864D01*
X47910Y-59852D01*
X47897Y-59829D01*
X47884Y-59781D01*
X47884Y-59721D01*
X47897Y-59674D01*
X47910Y-59650D01*
X47923Y-59638D01*
X47949Y-59626D01*
X48129Y-59626D02*
X48296Y-59626D01*
X48206Y-59721D01*
X48244Y-59721D01*
X48270Y-59733D01*
X48283Y-59745D01*
X48296Y-59769D01*
X48296Y-59829D01*
X48283Y-59852D01*
X48270Y-59864D01*
X48244Y-59876D01*
X48167Y-59876D01*
X48141Y-59864D01*
X48129Y-59852D01*
X48476Y-59960D02*
X48476Y-59602D01*
X48758Y-59745D02*
X48668Y-59745D01*
X48668Y-59876D02*
X48668Y-59626D01*
X48797Y-59626D01*
X48951Y-59626D02*
X48976Y-59626D01*
X49002Y-59638D01*
X49015Y-59650D01*
X49028Y-59674D01*
X49041Y-59721D01*
X49041Y-59781D01*
X49028Y-59829D01*
X49015Y-59852D01*
X49002Y-59864D01*
X48976Y-59876D01*
X48951Y-59876D01*
X48925Y-59864D01*
X48912Y-59852D01*
X48899Y-59829D01*
X48886Y-59781D01*
X48886Y-59721D01*
X48899Y-59674D01*
X48912Y-59650D01*
X48925Y-59638D01*
X48951Y-59626D01*
X49143Y-59650D02*
X49156Y-59638D01*
X49182Y-59626D01*
X49246Y-59626D01*
X49272Y-59638D01*
X49285Y-59650D01*
X49298Y-59674D01*
X49298Y-59698D01*
X49285Y-59733D01*
X49131Y-59876D01*
X49298Y-59876D01*
X49478Y-59960D02*
X49478Y-59602D01*
X49760Y-59745D02*
X49670Y-59745D01*
X49670Y-59876D02*
X49670Y-59626D01*
X49799Y-59626D01*
X49953Y-59626D02*
X49978Y-59626D01*
X50004Y-59638D01*
X50017Y-59650D01*
X50030Y-59674D01*
X50043Y-59721D01*
X50043Y-59781D01*
X50030Y-59829D01*
X50017Y-59852D01*
X50004Y-59864D01*
X49978Y-59876D01*
X49953Y-59876D01*
X49927Y-59864D01*
X49914Y-59852D01*
X49901Y-59829D01*
X49888Y-59781D01*
X49888Y-59721D01*
X49901Y-59674D01*
X49914Y-59650D01*
X49927Y-59638D01*
X49953Y-59626D01*
X50300Y-59876D02*
X50145Y-59876D01*
X50223Y-59876D02*
X50223Y-59626D01*
X50197Y-59662D01*
X50171Y-59686D01*
X50145Y-59698D01*
X50480Y-59960D02*
X50480Y-59602D01*
X50685Y-59876D02*
X50737Y-59876D01*
X50762Y-59864D01*
X50775Y-59852D01*
X50801Y-59817D01*
X50814Y-59769D01*
X50814Y-59674D01*
X50801Y-59650D01*
X50788Y-59638D01*
X50762Y-59626D01*
X50711Y-59626D01*
X50685Y-59638D01*
X50672Y-59650D01*
X50659Y-59674D01*
X50659Y-59733D01*
X50672Y-59757D01*
X50685Y-59769D01*
X50711Y-59781D01*
X50762Y-59781D01*
X50788Y-59769D01*
X50801Y-59757D01*
X50814Y-59733D01*
X50891Y-59626D02*
X50981Y-59876D01*
X51071Y-59626D01*
X51212Y-59626D02*
X51237Y-59626D01*
X51263Y-59638D01*
X51276Y-59650D01*
X51289Y-59674D01*
X51302Y-59721D01*
X51302Y-59781D01*
X51289Y-59829D01*
X51276Y-59852D01*
X51263Y-59864D01*
X51237Y-59876D01*
X51212Y-59876D01*
X51186Y-59864D01*
X51173Y-59852D01*
X51160Y-59829D01*
X51147Y-59781D01*
X51147Y-59721D01*
X51160Y-59674D01*
X51173Y-59650D01*
X51186Y-59638D01*
X51212Y-59626D01*
X45756Y-57088D02*
X45731Y-57076D01*
X45694Y-57076D01*
X45657Y-57088D01*
X45632Y-57112D01*
X45620Y-57136D01*
X45608Y-57183D01*
X45608Y-57219D01*
X45620Y-57267D01*
X45632Y-57290D01*
X45657Y-57314D01*
X45694Y-57326D01*
X45719Y-57326D01*
X45756Y-57314D01*
X45768Y-57302D01*
X45768Y-57219D01*
X45719Y-57219D01*
X45880Y-57326D02*
X45880Y-57076D01*
X46028Y-57326D01*
X46028Y-57076D01*
X46152Y-57326D02*
X46152Y-57076D01*
X46214Y-57076D01*
X46251Y-57088D01*
X46276Y-57112D01*
X46288Y-57136D01*
X46300Y-57183D01*
X46300Y-57219D01*
X46288Y-57267D01*
X46276Y-57290D01*
X46251Y-57314D01*
X46214Y-57326D01*
X46152Y-57326D01*
X46474Y-57410D02*
X46474Y-57052D01*
X46796Y-57088D02*
X46771Y-57076D01*
X46734Y-57076D01*
X46697Y-57088D01*
X46672Y-57112D01*
X46660Y-57136D01*
X46648Y-57183D01*
X46648Y-57219D01*
X46660Y-57267D01*
X46672Y-57290D01*
X46697Y-57314D01*
X46734Y-57326D01*
X46759Y-57326D01*
X46796Y-57314D01*
X46808Y-57302D01*
X46808Y-57219D01*
X46759Y-57219D01*
X46920Y-57326D02*
X46920Y-57076D01*
X47068Y-57326D01*
X47068Y-57076D01*
X47192Y-57326D02*
X47192Y-57076D01*
X47254Y-57076D01*
X47291Y-57088D01*
X47316Y-57112D01*
X47328Y-57136D01*
X47340Y-57183D01*
X47340Y-57219D01*
X47328Y-57267D01*
X47316Y-57290D01*
X47291Y-57314D01*
X47254Y-57326D01*
X47192Y-57326D01*
X47514Y-57410D02*
X47514Y-57052D01*
X47700Y-57326D02*
X47700Y-57076D01*
X47799Y-57076D01*
X47824Y-57088D01*
X47836Y-57100D01*
X47848Y-57124D01*
X47848Y-57160D01*
X47836Y-57183D01*
X47824Y-57195D01*
X47799Y-57207D01*
X47700Y-57207D01*
X47935Y-57076D02*
X47997Y-57326D01*
X48047Y-57148D01*
X48096Y-57326D01*
X48158Y-57076D01*
X48257Y-57326D02*
X48257Y-57076D01*
X48344Y-57255D01*
X48430Y-57076D01*
X48430Y-57326D01*
X48616Y-57410D02*
X48616Y-57052D01*
X48889Y-57195D02*
X48802Y-57195D01*
X48802Y-57326D02*
X48802Y-57076D01*
X48926Y-57076D01*
X49074Y-57076D02*
X49099Y-57076D01*
X49124Y-57088D01*
X49136Y-57100D01*
X49149Y-57124D01*
X49161Y-57171D01*
X49161Y-57231D01*
X49149Y-57279D01*
X49136Y-57302D01*
X49124Y-57314D01*
X49099Y-57326D01*
X49074Y-57326D01*
X49050Y-57314D01*
X49037Y-57302D01*
X49025Y-57279D01*
X49013Y-57231D01*
X49013Y-57171D01*
X49025Y-57124D01*
X49037Y-57100D01*
X49050Y-57088D01*
X49074Y-57076D01*
X49310Y-57183D02*
X49285Y-57171D01*
X49273Y-57160D01*
X49261Y-57136D01*
X49261Y-57124D01*
X49273Y-57100D01*
X49285Y-57088D01*
X49310Y-57076D01*
X49360Y-57076D01*
X49384Y-57088D01*
X49397Y-57100D01*
X49409Y-57124D01*
X49409Y-57136D01*
X49397Y-57160D01*
X49384Y-57171D01*
X49360Y-57183D01*
X49310Y-57183D01*
X49285Y-57195D01*
X49273Y-57207D01*
X49261Y-57231D01*
X49261Y-57279D01*
X49273Y-57302D01*
X49285Y-57314D01*
X49310Y-57326D01*
X49360Y-57326D01*
X49384Y-57314D01*
X49397Y-57302D01*
X49409Y-57279D01*
X49409Y-57231D01*
X49397Y-57207D01*
X49384Y-57195D01*
X49360Y-57183D01*
X49583Y-57410D02*
X49583Y-57052D01*
X49856Y-57195D02*
X49769Y-57195D01*
X49769Y-57326D02*
X49769Y-57076D01*
X49893Y-57076D01*
X50041Y-57076D02*
X50066Y-57076D01*
X50091Y-57088D01*
X50103Y-57100D01*
X50116Y-57124D01*
X50128Y-57171D01*
X50128Y-57231D01*
X50116Y-57279D01*
X50103Y-57302D01*
X50091Y-57314D01*
X50066Y-57326D01*
X50041Y-57326D01*
X50017Y-57314D01*
X50004Y-57302D01*
X49992Y-57279D01*
X49980Y-57231D01*
X49980Y-57171D01*
X49992Y-57124D01*
X50004Y-57100D01*
X50017Y-57088D01*
X50041Y-57076D01*
X50215Y-57076D02*
X50388Y-57076D01*
X50277Y-57326D01*
X50550Y-57410D02*
X50550Y-57052D01*
X50823Y-57195D02*
X50736Y-57195D01*
X50736Y-57326D02*
X50736Y-57076D01*
X50860Y-57076D01*
X51008Y-57076D02*
X51033Y-57076D01*
X51058Y-57088D01*
X51070Y-57100D01*
X51083Y-57124D01*
X51095Y-57171D01*
X51095Y-57231D01*
X51083Y-57279D01*
X51070Y-57302D01*
X51058Y-57314D01*
X51033Y-57326D01*
X51008Y-57326D01*
X50984Y-57314D01*
X50971Y-57302D01*
X50959Y-57279D01*
X50947Y-57231D01*
X50947Y-57171D01*
X50959Y-57124D01*
X50971Y-57100D01*
X50984Y-57088D01*
X51008Y-57076D01*
X51318Y-57076D02*
X51269Y-57076D01*
X51244Y-57088D01*
X51232Y-57100D01*
X51207Y-57136D01*
X51195Y-57183D01*
X51195Y-57279D01*
X51207Y-57302D01*
X51219Y-57314D01*
X51244Y-57326D01*
X51294Y-57326D01*
X51318Y-57314D01*
X51331Y-57302D01*
X51343Y-57279D01*
X51343Y-57219D01*
X51331Y-57195D01*
X51318Y-57183D01*
X51294Y-57171D01*
X51244Y-57171D01*
X51219Y-57183D01*
X51207Y-57195D01*
X51195Y-57219D01*
X38915Y-15295D02*
X38832Y-15295D01*
X38832Y-15426D02*
X38832Y-15176D01*
X38951Y-15176D01*
X39093Y-15176D02*
X39117Y-15176D01*
X39141Y-15188D01*
X39153Y-15200D01*
X39165Y-15224D01*
X39176Y-15271D01*
X39176Y-15331D01*
X39165Y-15379D01*
X39153Y-15402D01*
X39141Y-15414D01*
X39117Y-15426D01*
X39093Y-15426D01*
X39069Y-15414D01*
X39057Y-15402D01*
X39046Y-15379D01*
X39034Y-15331D01*
X39034Y-15271D01*
X39046Y-15224D01*
X39057Y-15200D01*
X39069Y-15188D01*
X39093Y-15176D01*
X39391Y-15176D02*
X39343Y-15176D01*
X39319Y-15188D01*
X39307Y-15200D01*
X39284Y-15236D01*
X39272Y-15283D01*
X39272Y-15379D01*
X39284Y-15402D01*
X39295Y-15414D01*
X39319Y-15426D01*
X39367Y-15426D01*
X39391Y-15414D01*
X39403Y-15402D01*
X39414Y-15379D01*
X39414Y-15319D01*
X39403Y-15295D01*
X39391Y-15283D01*
X39367Y-15271D01*
X39319Y-15271D01*
X39295Y-15283D01*
X39284Y-15295D01*
X39272Y-15319D01*
X39581Y-15510D02*
X39581Y-15152D01*
X39843Y-15295D02*
X39760Y-15295D01*
X39760Y-15426D02*
X39760Y-15176D01*
X39879Y-15176D01*
X40021Y-15176D02*
X40045Y-15176D01*
X40069Y-15188D01*
X40081Y-15200D01*
X40093Y-15224D01*
X40104Y-15271D01*
X40104Y-15331D01*
X40093Y-15379D01*
X40081Y-15402D01*
X40069Y-15414D01*
X40045Y-15426D01*
X40021Y-15426D01*
X39997Y-15414D01*
X39985Y-15402D01*
X39974Y-15379D01*
X39962Y-15331D01*
X39962Y-15271D01*
X39974Y-15224D01*
X39985Y-15200D01*
X39997Y-15188D01*
X40021Y-15176D01*
X40188Y-15176D02*
X40354Y-15176D01*
X40247Y-15426D01*
X40509Y-15510D02*
X40509Y-15152D01*
X40771Y-15295D02*
X40688Y-15295D01*
X40688Y-15426D02*
X40688Y-15176D01*
X40807Y-15176D01*
X40949Y-15176D02*
X40973Y-15176D01*
X40997Y-15188D01*
X41009Y-15200D01*
X41021Y-15224D01*
X41032Y-15271D01*
X41032Y-15331D01*
X41021Y-15379D01*
X41009Y-15402D01*
X40997Y-15414D01*
X40973Y-15426D01*
X40949Y-15426D01*
X40925Y-15414D01*
X40913Y-15402D01*
X40902Y-15379D01*
X40890Y-15331D01*
X40890Y-15271D01*
X40902Y-15224D01*
X40913Y-15200D01*
X40925Y-15188D01*
X40949Y-15176D01*
X41175Y-15283D02*
X41151Y-15271D01*
X41140Y-15260D01*
X41128Y-15236D01*
X41128Y-15224D01*
X41140Y-15200D01*
X41151Y-15188D01*
X41175Y-15176D01*
X41223Y-15176D01*
X41247Y-15188D01*
X41259Y-15200D01*
X41270Y-15224D01*
X41270Y-15236D01*
X41259Y-15260D01*
X41247Y-15271D01*
X41223Y-15283D01*
X41175Y-15283D01*
X41151Y-15295D01*
X41140Y-15307D01*
X41128Y-15331D01*
X41128Y-15379D01*
X41140Y-15402D01*
X41151Y-15414D01*
X41175Y-15426D01*
X41223Y-15426D01*
X41247Y-15414D01*
X41259Y-15402D01*
X41270Y-15379D01*
X41270Y-15331D01*
X41259Y-15307D01*
X41247Y-15295D01*
X41223Y-15283D01*
X41437Y-15510D02*
X41437Y-15152D01*
X41616Y-15426D02*
X41616Y-15176D01*
X41711Y-15176D01*
X41735Y-15188D01*
X41746Y-15200D01*
X41758Y-15224D01*
X41758Y-15260D01*
X41746Y-15283D01*
X41735Y-15295D01*
X41711Y-15307D01*
X41616Y-15307D01*
X41842Y-15176D02*
X41901Y-15426D01*
X41949Y-15248D01*
X41996Y-15426D01*
X42056Y-15176D01*
X42152Y-15426D02*
X42152Y-15176D01*
X42235Y-15355D01*
X42318Y-15176D01*
X42318Y-15426D01*
X42497Y-15510D02*
X42497Y-15152D01*
X42806Y-15188D02*
X42783Y-15176D01*
X42747Y-15176D01*
X42711Y-15188D01*
X42687Y-15212D01*
X42676Y-15236D01*
X42664Y-15283D01*
X42664Y-15319D01*
X42676Y-15367D01*
X42687Y-15390D01*
X42711Y-15414D01*
X42747Y-15426D01*
X42771Y-15426D01*
X42806Y-15414D01*
X42818Y-15402D01*
X42818Y-15319D01*
X42771Y-15319D01*
X42926Y-15426D02*
X42926Y-15176D01*
X43068Y-15426D01*
X43068Y-15176D01*
X43188Y-15426D02*
X43188Y-15176D01*
X43247Y-15176D01*
X43283Y-15188D01*
X43307Y-15212D01*
X43318Y-15236D01*
X43330Y-15283D01*
X43330Y-15319D01*
X43318Y-15367D01*
X43307Y-15390D01*
X43283Y-15414D01*
X43247Y-15426D01*
X43188Y-15426D01*
X43497Y-15510D02*
X43497Y-15152D01*
X43806Y-15188D02*
X43783Y-15176D01*
X43747Y-15176D01*
X43711Y-15188D01*
X43687Y-15212D01*
X43676Y-15236D01*
X43664Y-15283D01*
X43664Y-15319D01*
X43676Y-15367D01*
X43687Y-15390D01*
X43711Y-15414D01*
X43747Y-15426D01*
X43771Y-15426D01*
X43806Y-15414D01*
X43818Y-15402D01*
X43818Y-15319D01*
X43771Y-15319D01*
X43926Y-15426D02*
X43926Y-15176D01*
X44068Y-15426D01*
X44068Y-15176D01*
X44188Y-15426D02*
X44188Y-15176D01*
X44247Y-15176D01*
X44283Y-15188D01*
X44307Y-15212D01*
X44318Y-15236D01*
X44330Y-15283D01*
X44330Y-15319D01*
X44318Y-15367D01*
X44307Y-15390D01*
X44283Y-15414D01*
X44247Y-15426D01*
X44188Y-15426D01*
X38725Y-12876D02*
X38777Y-12876D01*
X38802Y-12864D01*
X38815Y-12852D01*
X38841Y-12817D01*
X38854Y-12769D01*
X38854Y-12674D01*
X38841Y-12650D01*
X38828Y-12638D01*
X38802Y-12626D01*
X38751Y-12626D01*
X38725Y-12638D01*
X38712Y-12650D01*
X38699Y-12674D01*
X38699Y-12733D01*
X38712Y-12757D01*
X38725Y-12769D01*
X38751Y-12781D01*
X38802Y-12781D01*
X38828Y-12769D01*
X38841Y-12757D01*
X38854Y-12733D01*
X38931Y-12626D02*
X39021Y-12876D01*
X39111Y-12626D01*
X39252Y-12626D02*
X39277Y-12626D01*
X39303Y-12638D01*
X39316Y-12650D01*
X39329Y-12674D01*
X39342Y-12721D01*
X39342Y-12781D01*
X39329Y-12829D01*
X39316Y-12852D01*
X39303Y-12864D01*
X39277Y-12876D01*
X39252Y-12876D01*
X39226Y-12864D01*
X39213Y-12852D01*
X39200Y-12829D01*
X39187Y-12781D01*
X39187Y-12721D01*
X39200Y-12674D01*
X39213Y-12650D01*
X39226Y-12638D01*
X39252Y-12626D01*
X39522Y-12960D02*
X39522Y-12602D01*
X39804Y-12745D02*
X39714Y-12745D01*
X39714Y-12876D02*
X39714Y-12626D01*
X39843Y-12626D01*
X39997Y-12626D02*
X40022Y-12626D01*
X40048Y-12638D01*
X40061Y-12650D01*
X40074Y-12674D01*
X40087Y-12721D01*
X40087Y-12781D01*
X40074Y-12829D01*
X40061Y-12852D01*
X40048Y-12864D01*
X40022Y-12876D01*
X39997Y-12876D01*
X39971Y-12864D01*
X39958Y-12852D01*
X39945Y-12829D01*
X39932Y-12781D01*
X39932Y-12721D01*
X39945Y-12674D01*
X39958Y-12650D01*
X39971Y-12638D01*
X39997Y-12626D01*
X40344Y-12876D02*
X40189Y-12876D01*
X40267Y-12876D02*
X40267Y-12626D01*
X40241Y-12662D01*
X40215Y-12686D01*
X40189Y-12698D01*
X40524Y-12960D02*
X40524Y-12602D01*
X40806Y-12745D02*
X40716Y-12745D01*
X40716Y-12876D02*
X40716Y-12626D01*
X40845Y-12626D01*
X40999Y-12626D02*
X41024Y-12626D01*
X41050Y-12638D01*
X41063Y-12650D01*
X41076Y-12674D01*
X41089Y-12721D01*
X41089Y-12781D01*
X41076Y-12829D01*
X41063Y-12852D01*
X41050Y-12864D01*
X41024Y-12876D01*
X40999Y-12876D01*
X40973Y-12864D01*
X40960Y-12852D01*
X40947Y-12829D01*
X40934Y-12781D01*
X40934Y-12721D01*
X40947Y-12674D01*
X40960Y-12650D01*
X40973Y-12638D01*
X40999Y-12626D01*
X41191Y-12650D02*
X41204Y-12638D01*
X41230Y-12626D01*
X41294Y-12626D01*
X41320Y-12638D01*
X41333Y-12650D01*
X41346Y-12674D01*
X41346Y-12698D01*
X41333Y-12733D01*
X41179Y-12876D01*
X41346Y-12876D01*
X41526Y-12960D02*
X41526Y-12602D01*
X41808Y-12745D02*
X41718Y-12745D01*
X41718Y-12876D02*
X41718Y-12626D01*
X41847Y-12626D01*
X42001Y-12626D02*
X42026Y-12626D01*
X42052Y-12638D01*
X42065Y-12650D01*
X42078Y-12674D01*
X42091Y-12721D01*
X42091Y-12781D01*
X42078Y-12829D01*
X42065Y-12852D01*
X42052Y-12864D01*
X42026Y-12876D01*
X42001Y-12876D01*
X41975Y-12864D01*
X41962Y-12852D01*
X41949Y-12829D01*
X41936Y-12781D01*
X41936Y-12721D01*
X41949Y-12674D01*
X41962Y-12650D01*
X41975Y-12638D01*
X42001Y-12626D01*
X42181Y-12626D02*
X42348Y-12626D01*
X42258Y-12721D01*
X42296Y-12721D01*
X42322Y-12733D01*
X42335Y-12745D01*
X42348Y-12769D01*
X42348Y-12829D01*
X42335Y-12852D01*
X42322Y-12864D01*
X42296Y-12876D01*
X42219Y-12876D01*
X42193Y-12864D01*
X42181Y-12852D01*
X42528Y-12960D02*
X42528Y-12602D01*
X42810Y-12745D02*
X42720Y-12745D01*
X42720Y-12876D02*
X42720Y-12626D01*
X42849Y-12626D01*
X43003Y-12626D02*
X43028Y-12626D01*
X43054Y-12638D01*
X43067Y-12650D01*
X43080Y-12674D01*
X43093Y-12721D01*
X43093Y-12781D01*
X43080Y-12829D01*
X43067Y-12852D01*
X43054Y-12864D01*
X43028Y-12876D01*
X43003Y-12876D01*
X42977Y-12864D01*
X42964Y-12852D01*
X42951Y-12829D01*
X42938Y-12781D01*
X42938Y-12721D01*
X42951Y-12674D01*
X42964Y-12650D01*
X42977Y-12638D01*
X43003Y-12626D01*
X43324Y-12710D02*
X43324Y-12876D01*
X43260Y-12614D02*
X43195Y-12793D01*
X43363Y-12793D01*
X43530Y-12960D02*
X43530Y-12602D01*
X43812Y-12745D02*
X43722Y-12745D01*
X43722Y-12876D02*
X43722Y-12626D01*
X43851Y-12626D01*
X44005Y-12626D02*
X44030Y-12626D01*
X44056Y-12638D01*
X44069Y-12650D01*
X44082Y-12674D01*
X44095Y-12721D01*
X44095Y-12781D01*
X44082Y-12829D01*
X44069Y-12852D01*
X44056Y-12864D01*
X44030Y-12876D01*
X44005Y-12876D01*
X43979Y-12864D01*
X43966Y-12852D01*
X43953Y-12829D01*
X43940Y-12781D01*
X43940Y-12721D01*
X43953Y-12674D01*
X43966Y-12650D01*
X43979Y-12638D01*
X44005Y-12626D01*
X44339Y-12626D02*
X44210Y-12626D01*
X44197Y-12745D01*
X44210Y-12733D01*
X44236Y-12721D01*
X44300Y-12721D01*
X44326Y-12733D01*
X44339Y-12745D01*
X44352Y-12769D01*
X44352Y-12829D01*
X44339Y-12852D01*
X44326Y-12864D01*
X44300Y-12876D01*
X44236Y-12876D01*
X44210Y-12864D01*
X44197Y-12852D01*
G54D13*
X65512Y-47357D02*
X65655Y-47405D01*
X65893Y-47405D01*
X65989Y-47357D01*
X66036Y-47310D01*
X66084Y-47214D01*
X66084Y-47119D01*
X66036Y-47024D01*
X65989Y-46976D01*
X65893Y-46929D01*
X65703Y-46881D01*
X65608Y-46833D01*
X65560Y-46786D01*
X65512Y-46690D01*
X65512Y-46595D01*
X65560Y-46500D01*
X65608Y-46452D01*
X65703Y-46405D01*
X65941Y-46405D01*
X66084Y-46452D01*
X66369Y-46405D02*
X66941Y-46405D01*
X66655Y-47405D02*
X66655Y-46405D01*
X67607Y-46881D02*
X67274Y-46881D01*
X67274Y-47405D02*
X67274Y-46405D01*
X67750Y-46405D01*
X68131Y-46405D02*
X68131Y-47214D01*
X68179Y-47310D01*
X68226Y-47357D01*
X68322Y-47405D01*
X68512Y-47405D01*
X68607Y-47357D01*
X68655Y-47310D01*
X68703Y-47214D01*
X68703Y-46405D01*
X69941Y-47310D02*
X69989Y-47357D01*
X69941Y-47405D01*
X69893Y-47357D01*
X69941Y-47310D01*
X69941Y-47405D01*
X69941Y-47024D02*
X69893Y-46452D01*
X69941Y-46405D01*
X69989Y-46452D01*
X69941Y-47024D01*
X69941Y-46405D01*
X63988Y-49005D02*
X63988Y-48005D01*
X65036Y-49005D02*
X64702Y-48529D01*
X64464Y-49005D02*
X64464Y-48005D01*
X64845Y-48005D01*
X64940Y-48052D01*
X64988Y-48100D01*
X65036Y-48195D01*
X65036Y-48338D01*
X64988Y-48433D01*
X64940Y-48481D01*
X64845Y-48529D01*
X64464Y-48529D01*
X66798Y-49005D02*
X66464Y-48529D01*
X66226Y-49005D02*
X66226Y-48005D01*
X66607Y-48005D01*
X66702Y-48052D01*
X66750Y-48100D01*
X66798Y-48195D01*
X66798Y-48338D01*
X66750Y-48433D01*
X66702Y-48481D01*
X66607Y-48529D01*
X66226Y-48529D01*
X67226Y-48481D02*
X67559Y-48481D01*
X67702Y-49005D02*
X67226Y-49005D01*
X67226Y-48005D01*
X67702Y-48005D01*
X68131Y-49005D02*
X68131Y-48005D01*
X68464Y-48719D01*
X68798Y-48005D01*
X68798Y-49005D01*
X69465Y-48005D02*
X69655Y-48005D01*
X69750Y-48052D01*
X69846Y-48148D01*
X69893Y-48338D01*
X69893Y-48671D01*
X69846Y-48862D01*
X69750Y-48957D01*
X69655Y-49005D01*
X69465Y-49005D01*
X69369Y-48957D01*
X69274Y-48862D01*
X69226Y-48671D01*
X69226Y-48338D01*
X69274Y-48148D01*
X69369Y-48052D01*
X69465Y-48005D01*
X70179Y-48005D02*
X70751Y-48005D01*
X70465Y-49005D02*
X70465Y-48005D01*
X71084Y-48481D02*
X71417Y-48481D01*
X71560Y-49005D02*
X71084Y-49005D01*
X71084Y-48005D01*
X71560Y-48005D01*
G54D14*
X75000Y-46000D02*
X75000Y-60000D01*
X60500Y-46000D02*
X75000Y-46000D01*
X60500Y-60000D02*
X60500Y-46000D01*
X75000Y-60000D02*
X60500Y-60000D01*
G54D15*
X39655Y-30384D02*
X39131Y-30384D01*
X39036Y-30432D01*
X38988Y-30527D01*
X38988Y-30718D01*
X39036Y-30813D01*
X39607Y-30384D02*
X39655Y-30480D01*
X39655Y-30718D01*
X39607Y-30813D01*
X39512Y-30861D01*
X39417Y-30861D01*
X39321Y-30813D01*
X39274Y-30718D01*
X39274Y-30480D01*
X39226Y-30384D01*
X38988Y-29908D02*
X39655Y-29908D01*
X39083Y-29908D02*
X39036Y-29860D01*
X38988Y-29765D01*
X38988Y-29622D01*
X39036Y-29527D01*
X39131Y-29479D01*
X39655Y-29479D01*
X39655Y-28860D02*
X39607Y-28955D01*
X39560Y-29003D01*
X39464Y-29051D01*
X39179Y-29051D01*
X39083Y-29003D01*
X39036Y-28955D01*
X38988Y-28860D01*
X38988Y-28717D01*
X39036Y-28622D01*
X39083Y-28574D01*
X39179Y-28527D01*
X39464Y-28527D01*
X39560Y-28574D01*
X39607Y-28622D01*
X39655Y-28717D01*
X39655Y-28860D01*
X39655Y-27955D02*
X39607Y-28050D01*
X39560Y-28098D01*
X39464Y-28146D01*
X39179Y-28146D01*
X39083Y-28098D01*
X39036Y-28050D01*
X38988Y-27955D01*
X38988Y-27812D01*
X39036Y-27717D01*
X39083Y-27669D01*
X39179Y-27622D01*
X39464Y-27622D01*
X39560Y-27669D01*
X39607Y-27717D01*
X39655Y-27812D01*
X39655Y-27955D01*
X39655Y-27050D02*
X39607Y-27145D01*
X39512Y-27193D01*
X38655Y-27193D01*
X39560Y-26669D02*
X39607Y-26621D01*
X39655Y-26669D01*
X39607Y-26717D01*
X39560Y-26669D01*
X39655Y-26669D01*
X39655Y-26193D02*
X38988Y-26193D01*
X39083Y-26193D02*
X39036Y-26145D01*
X38988Y-26050D01*
X38988Y-25907D01*
X39036Y-25812D01*
X39131Y-25764D01*
X39655Y-25764D01*
X39131Y-25764D02*
X39036Y-25717D01*
X38988Y-25621D01*
X38988Y-25479D01*
X39036Y-25383D01*
X39131Y-25336D01*
X39655Y-25336D01*
X39179Y-24241D02*
X39131Y-24288D01*
X39083Y-24384D01*
X39083Y-24479D01*
X39131Y-24574D01*
X39179Y-24622D01*
X39274Y-24669D01*
X39369Y-24669D01*
X39464Y-24622D01*
X39512Y-24574D01*
X39560Y-24479D01*
X39560Y-24384D01*
X39512Y-24288D01*
X39464Y-24241D01*
X39083Y-24241D02*
X39464Y-24241D01*
X39512Y-24193D01*
X39512Y-24146D01*
X39464Y-24050D01*
X39369Y-24003D01*
X39131Y-24003D01*
X38988Y-24098D01*
X38893Y-24241D01*
X38845Y-24431D01*
X38893Y-24622D01*
X38988Y-24765D01*
X39131Y-24860D01*
X39321Y-24908D01*
X39512Y-24860D01*
X39655Y-24765D01*
X39750Y-24622D01*
X39798Y-24431D01*
X39750Y-24241D01*
X39655Y-24098D01*
X38988Y-23145D02*
X39798Y-23145D01*
X39893Y-23193D01*
X39940Y-23241D01*
X39988Y-23336D01*
X39988Y-23479D01*
X39940Y-23574D01*
X39607Y-23145D02*
X39655Y-23241D01*
X39655Y-23431D01*
X39607Y-23526D01*
X39560Y-23574D01*
X39464Y-23622D01*
X39179Y-23622D01*
X39083Y-23574D01*
X39036Y-23526D01*
X38988Y-23431D01*
X38988Y-23241D01*
X39036Y-23145D01*
X39655Y-22669D02*
X38988Y-22669D01*
X39083Y-22669D02*
X39036Y-22621D01*
X38988Y-22526D01*
X38988Y-22383D01*
X39036Y-22288D01*
X39131Y-22240D01*
X39655Y-22240D01*
X39131Y-22240D02*
X39036Y-22193D01*
X38988Y-22097D01*
X38988Y-21955D01*
X39036Y-21859D01*
X39131Y-21812D01*
X39655Y-21812D01*
X39655Y-20907D02*
X39131Y-20907D01*
X39036Y-20955D01*
X38988Y-21050D01*
X38988Y-21241D01*
X39036Y-21336D01*
X39607Y-20907D02*
X39655Y-21003D01*
X39655Y-21241D01*
X39607Y-21336D01*
X39512Y-21384D01*
X39417Y-21384D01*
X39321Y-21336D01*
X39274Y-21241D01*
X39274Y-21003D01*
X39226Y-20907D01*
X39655Y-20431D02*
X38988Y-20431D01*
X38655Y-20431D02*
X38702Y-20479D01*
X38750Y-20431D01*
X38702Y-20383D01*
X38655Y-20431D01*
X38750Y-20431D01*
X39655Y-19812D02*
X39607Y-19907D01*
X39512Y-19955D01*
X38655Y-19955D01*
X39560Y-19431D02*
X39607Y-19383D01*
X39655Y-19431D01*
X39607Y-19479D01*
X39560Y-19431D01*
X39655Y-19431D01*
X39607Y-18526D02*
X39655Y-18622D01*
X39655Y-18812D01*
X39607Y-18907D01*
X39560Y-18955D01*
X39464Y-19003D01*
X39179Y-19003D01*
X39083Y-18955D01*
X39036Y-18907D01*
X38988Y-18812D01*
X38988Y-18622D01*
X39036Y-18526D01*
X39655Y-17955D02*
X39607Y-18050D01*
X39560Y-18098D01*
X39464Y-18146D01*
X39179Y-18146D01*
X39083Y-18098D01*
X39036Y-18050D01*
X38988Y-17955D01*
X38988Y-17812D01*
X39036Y-17717D01*
X39083Y-17669D01*
X39179Y-17622D01*
X39464Y-17622D01*
X39560Y-17669D01*
X39607Y-17717D01*
X39655Y-17812D01*
X39655Y-17955D01*
X39655Y-17193D02*
X38988Y-17193D01*
X39083Y-17193D02*
X39036Y-17145D01*
X38988Y-17050D01*
X38988Y-16907D01*
X39036Y-16812D01*
X39131Y-16764D01*
X39655Y-16764D01*
X39131Y-16764D02*
X39036Y-16717D01*
X38988Y-16621D01*
X38988Y-16479D01*
X39036Y-16383D01*
X39131Y-16336D01*
X39655Y-16336D01*
G54D16*
X65579Y-34136D02*
X65769Y-33421D01*
X65769Y-32231D01*
X65579Y-31755D01*
X65388Y-31517D01*
X65007Y-31278D01*
X64626Y-31278D01*
X64245Y-31517D01*
X64055Y-31755D01*
X63864Y-32231D01*
X63674Y-33183D01*
X63483Y-33659D01*
X63293Y-33898D01*
X62912Y-34136D01*
X62531Y-34136D01*
X62150Y-33898D01*
X61960Y-33659D01*
X61769Y-33183D01*
X61769Y-31993D01*
X61960Y-31278D01*
X61769Y-29850D02*
X61769Y-26993D01*
X65769Y-28421D02*
X61769Y-28421D01*
X63674Y-23659D02*
X63674Y-25326D01*
X65769Y-25326D02*
X61769Y-25326D01*
X61769Y-22945D01*
X61769Y-21040D02*
X65007Y-21040D01*
X65388Y-20801D01*
X65579Y-20563D01*
X65769Y-20087D01*
X65769Y-19135D01*
X65579Y-18659D01*
X65388Y-18420D01*
X65007Y-18182D01*
X61769Y-18182D01*
X65388Y-15802D02*
X65579Y-15563D01*
X65769Y-15802D01*
X65579Y-16040D01*
X65388Y-15802D01*
X65769Y-15802D01*
X64245Y-15802D02*
X61960Y-16040D01*
X61769Y-15802D01*
X61960Y-15563D01*
X64245Y-15802D01*
X61769Y-15802D01*
G54D14*
X58000Y-20500D02*
X57971Y-20791D01*
X57886Y-21071D01*
X57749Y-21330D01*
X57564Y-21556D01*
X57338Y-21743D01*
X57081Y-21882D01*
X56801Y-21969D01*
X56510Y-21999D01*
X56219Y-21973D01*
X55939Y-21890D01*
X55679Y-21755D01*
X55451Y-21571D01*
X55263Y-21347D01*
X55122Y-21090D01*
X55033Y-20811D01*
X55001Y-20520D01*
X55025Y-20230D01*
X55106Y-19948D01*
X55240Y-19688D01*
X55421Y-19459D01*
X55644Y-19269D01*
X55900Y-19126D01*
X56178Y-19035D01*
X56469Y-19001D01*
X56760Y-19023D01*
X57042Y-19102D01*
X57303Y-19234D01*
X57534Y-19414D01*
X57725Y-19636D01*
X57870Y-19890D01*
X57962Y-20168D01*
X57999Y-20459D01*
X58000Y-20500D01*
X58000Y-15500D02*
X57971Y-15791D01*
X57886Y-16071D01*
X57749Y-16330D01*
X57564Y-16556D01*
X57338Y-16743D01*
X57081Y-16882D01*
X56801Y-16969D01*
X56510Y-16999D01*
X56219Y-16973D01*
X55939Y-16890D01*
X55679Y-16755D01*
X55451Y-16571D01*
X55263Y-16347D01*
X55122Y-16090D01*
X55033Y-15811D01*
X55001Y-15520D01*
X55025Y-15230D01*
X55106Y-14948D01*
X55240Y-14688D01*
X55421Y-14459D01*
X55644Y-14269D01*
X55900Y-14126D01*
X56178Y-14035D01*
X56469Y-14001D01*
X56760Y-14023D01*
X57042Y-14102D01*
X57303Y-14234D01*
X57534Y-14414D01*
X57725Y-14636D01*
X57870Y-14890D01*
X57962Y-15168D01*
X57999Y-15459D01*
X58000Y-15500D01*
X35000Y-56975D02*
X34971Y-57266D01*
X34886Y-57546D01*
X34749Y-57805D01*
X34564Y-58031D01*
X34338Y-58218D01*
X34081Y-58357D01*
X33801Y-58444D01*
X33510Y-58474D01*
X33219Y-58448D01*
X32939Y-58365D01*
X32679Y-58230D01*
X32451Y-58046D01*
X32263Y-57822D01*
X32122Y-57565D01*
X32033Y-57286D01*
X32001Y-56995D01*
X32025Y-56705D01*
X32106Y-56423D01*
X32240Y-56163D01*
X32421Y-55934D01*
X32644Y-55744D01*
X32900Y-55601D01*
X33178Y-55510D01*
X33469Y-55476D01*
X33760Y-55498D01*
X34042Y-55577D01*
X34303Y-55709D01*
X34534Y-55889D01*
X34725Y-56111D01*
X34870Y-56365D01*
X34962Y-56643D01*
X34999Y-56934D01*
X35000Y-56975D01*
X35000Y-52000D02*
X34971Y-52291D01*
X34886Y-52571D01*
X34749Y-52830D01*
X34564Y-53056D01*
X34338Y-53243D01*
X34081Y-53382D01*
X33801Y-53469D01*
X33510Y-53499D01*
X33219Y-53473D01*
X32939Y-53390D01*
X32679Y-53255D01*
X32451Y-53071D01*
X32263Y-52847D01*
X32122Y-52590D01*
X32033Y-52311D01*
X32001Y-52020D01*
X32025Y-51730D01*
X32106Y-51448D01*
X32240Y-51188D01*
X32421Y-50959D01*
X32644Y-50769D01*
X32900Y-50626D01*
X33178Y-50535D01*
X33469Y-50501D01*
X33760Y-50523D01*
X34042Y-50602D01*
X34303Y-50734D01*
X34534Y-50914D01*
X34725Y-51136D01*
X34870Y-51390D01*
X34962Y-51668D01*
X34999Y-51959D01*
X35000Y-52000D01*
X54700Y-12650D02*
X56500Y-12650D01*
X54700Y-23000D02*
X54700Y-12650D01*
X58300Y-23000D02*
X54700Y-23000D01*
X58300Y-12650D02*
X58300Y-23000D01*
X56500Y-12650D02*
X58300Y-12650D01*
X31700Y-59850D02*
X33500Y-59850D01*
X31700Y-57000D02*
X31700Y-59850D01*
X31700Y-52000D02*
X31700Y-57000D01*
X31700Y-49500D02*
X31700Y-52000D01*
X33500Y-49500D02*
X31700Y-49500D01*
X35300Y-59850D02*
X33500Y-59850D01*
X35300Y-49500D02*
X35300Y-59850D01*
X33500Y-49500D02*
X35300Y-49500D01*
X60500Y-41750D02*
X60500Y-45000D01*
X68000Y-38500D02*
X63750Y-38500D01*
X68000Y-22500D02*
X68000Y-38500D01*
X67000Y-34250D02*
X67000Y-22500D01*
X60500Y-22500D02*
X60500Y-34250D01*
X59500Y-56750D02*
X59500Y-22500D01*
X53000Y-22500D02*
X53000Y-56750D01*
X52000Y-34250D02*
X52000Y-22500D01*
X45500Y-22500D02*
X45500Y-34250D01*
X44500Y-31050D02*
X44500Y-22500D01*
X63750Y-38500D02*
X63467Y-38513D01*
X63186Y-38550D01*
X62909Y-38611D01*
X62639Y-38696D01*
X62377Y-38805D01*
X62126Y-38936D01*
X61886Y-39088D01*
X61661Y-39261D01*
X61452Y-39452D01*
X61261Y-39661D01*
X61088Y-39886D01*
X60936Y-40126D01*
X60805Y-40377D01*
X60696Y-40639D01*
X60611Y-40909D01*
X60550Y-41186D01*
X60513Y-41467D01*
X60500Y-41750D01*
X63750Y-37500D02*
X64033Y-37487D01*
X64314Y-37450D01*
X64591Y-37389D01*
X64861Y-37304D01*
X65123Y-37195D01*
X65375Y-37064D01*
X65614Y-36912D01*
X65839Y-36739D01*
X66048Y-36548D01*
X66239Y-36339D01*
X66412Y-36114D01*
X66564Y-35874D01*
X66695Y-35623D01*
X66804Y-35361D01*
X66889Y-35091D01*
X66950Y-34814D01*
X66987Y-34533D01*
X67000Y-34250D01*
X60500Y-34250D02*
X60513Y-34533D01*
X60550Y-34814D01*
X60611Y-35091D01*
X60696Y-35361D01*
X60805Y-35623D01*
X60936Y-35874D01*
X61088Y-36114D01*
X61261Y-36339D01*
X61452Y-36548D01*
X61661Y-36739D01*
X61886Y-36912D01*
X62126Y-37064D01*
X62377Y-37195D01*
X62639Y-37304D01*
X62909Y-37389D01*
X63186Y-37450D01*
X63467Y-37487D01*
X63750Y-37500D01*
X53000Y-56750D02*
X53013Y-57033D01*
X53050Y-57314D01*
X53111Y-57591D01*
X53196Y-57861D01*
X53305Y-58123D01*
X53436Y-58374D01*
X53588Y-58614D01*
X53761Y-58839D01*
X53952Y-59048D01*
X54161Y-59239D01*
X54386Y-59412D01*
X54626Y-59564D01*
X54877Y-59695D01*
X55139Y-59804D01*
X55409Y-59889D01*
X55686Y-59950D01*
X55967Y-59987D01*
X56250Y-60000D01*
X56250Y-60000D02*
X56533Y-59987D01*
X56814Y-59950D01*
X57091Y-59889D01*
X57361Y-59804D01*
X57623Y-59695D01*
X57875Y-59564D01*
X58114Y-59412D01*
X58339Y-59239D01*
X58548Y-59048D01*
X58739Y-58839D01*
X58912Y-58614D01*
X59064Y-58374D01*
X59195Y-58123D01*
X59304Y-57861D01*
X59389Y-57591D01*
X59450Y-57314D01*
X59487Y-57033D01*
X59500Y-56750D01*
X45500Y-34250D02*
X45513Y-34533D01*
X45550Y-34814D01*
X45611Y-35091D01*
X45696Y-35361D01*
X45805Y-35623D01*
X45936Y-35874D01*
X46088Y-36114D01*
X46261Y-36339D01*
X46452Y-36548D01*
X46661Y-36739D01*
X46886Y-36912D01*
X47126Y-37064D01*
X47377Y-37195D01*
X47639Y-37304D01*
X47909Y-37389D01*
X48186Y-37450D01*
X48467Y-37487D01*
X48750Y-37500D01*
X48750Y-37500D02*
X49033Y-37487D01*
X49314Y-37450D01*
X49591Y-37389D01*
X49861Y-37304D01*
X50123Y-37195D01*
X50375Y-37064D01*
X50614Y-36912D01*
X50839Y-36739D01*
X51048Y-36548D01*
X51239Y-36339D01*
X51412Y-36114D01*
X51564Y-35874D01*
X51695Y-35623D01*
X51804Y-35361D01*
X51889Y-35091D01*
X51950Y-34814D01*
X51987Y-34533D01*
X52000Y-34250D01*
X38000Y-31050D02*
X38013Y-31333D01*
X38050Y-31614D01*
X38111Y-31891D01*
X38196Y-32161D01*
X38305Y-32423D01*
X38436Y-32674D01*
X38588Y-32914D01*
X38761Y-33139D01*
X38952Y-33348D01*
X39161Y-33539D01*
X39386Y-33712D01*
X39626Y-33864D01*
X39877Y-33995D01*
X40139Y-34104D01*
X40409Y-34189D01*
X40686Y-34250D01*
X40967Y-34287D01*
X41250Y-34300D01*
X41250Y-34300D02*
X41533Y-34287D01*
X41814Y-34250D01*
X42091Y-34189D01*
X42361Y-34104D01*
X42623Y-33995D01*
X42875Y-33864D01*
X43114Y-33712D01*
X43339Y-33539D01*
X43548Y-33348D01*
X43739Y-33139D01*
X43912Y-32914D01*
X44064Y-32674D01*
X44195Y-32423D01*
X44304Y-32161D01*
X44389Y-31891D01*
X44450Y-31614D01*
X44487Y-31333D01*
X44500Y-31050D01*
X67000Y-22500D02*
X68000Y-22500D01*
X59500Y-22500D02*
X60500Y-22500D01*
X52000Y-22500D02*
X53000Y-22500D01*
X44500Y-22500D02*
X45500Y-22500D01*
X45500Y-50000D02*
X45500Y-41450D01*
X44500Y-50000D02*
X44500Y-38250D01*
X38000Y-40825D02*
X38000Y-38250D01*
X38000Y-44775D02*
X38000Y-41700D01*
X38000Y-50000D02*
X38000Y-45850D01*
X37000Y-50000D02*
X37000Y-15750D01*
X30500Y-50000D02*
X30500Y-15750D01*
X29500Y-38250D02*
X29500Y-50000D01*
X22000Y-34000D02*
X26250Y-34000D01*
X22000Y-50000D02*
X22000Y-34000D01*
X23000Y-50000D02*
X23000Y-38250D01*
X29500Y-30750D02*
X29500Y-27500D01*
X26250Y-34000D02*
X26533Y-33987D01*
X26814Y-33950D01*
X27091Y-33889D01*
X27361Y-33804D01*
X27623Y-33695D01*
X27875Y-33564D01*
X28114Y-33412D01*
X28339Y-33239D01*
X28548Y-33048D01*
X28739Y-32839D01*
X28912Y-32614D01*
X29064Y-32374D01*
X29195Y-32123D01*
X29304Y-31861D01*
X29389Y-31591D01*
X29450Y-31314D01*
X29487Y-31033D01*
X29500Y-30750D01*
X26250Y-35000D02*
X25967Y-35013D01*
X25686Y-35050D01*
X25409Y-35111D01*
X25139Y-35196D01*
X24877Y-35305D01*
X24626Y-35436D01*
X24386Y-35588D01*
X24161Y-35761D01*
X23952Y-35952D01*
X23761Y-36161D01*
X23588Y-36386D01*
X23436Y-36626D01*
X23305Y-36877D01*
X23196Y-37139D01*
X23111Y-37409D01*
X23050Y-37686D01*
X23013Y-37967D01*
X23000Y-38250D01*
X29500Y-38250D02*
X29487Y-37967D01*
X29450Y-37686D01*
X29389Y-37409D01*
X29304Y-37139D01*
X29195Y-36877D01*
X29064Y-36626D01*
X28912Y-36386D01*
X28739Y-36161D01*
X28548Y-35952D01*
X28339Y-35761D01*
X28114Y-35588D01*
X27875Y-35436D01*
X27623Y-35305D01*
X27361Y-35196D01*
X27091Y-35111D01*
X26814Y-35050D01*
X26533Y-35013D01*
X26250Y-35000D01*
X33750Y-12500D02*
X33467Y-12513D01*
X33186Y-12550D01*
X32909Y-12611D01*
X32639Y-12696D01*
X32377Y-12805D01*
X32126Y-12936D01*
X31886Y-13088D01*
X31661Y-13261D01*
X31452Y-13452D01*
X31261Y-13661D01*
X31088Y-13886D01*
X30936Y-14126D01*
X30805Y-14377D01*
X30696Y-14639D01*
X30611Y-14909D01*
X30550Y-15186D01*
X30513Y-15467D01*
X30500Y-15750D01*
X37000Y-15750D02*
X36987Y-15467D01*
X36950Y-15186D01*
X36889Y-14909D01*
X36804Y-14639D01*
X36695Y-14377D01*
X36564Y-14126D01*
X36412Y-13886D01*
X36239Y-13661D01*
X36048Y-13452D01*
X35839Y-13261D01*
X35614Y-13088D01*
X35375Y-12936D01*
X35123Y-12805D01*
X34861Y-12696D01*
X34591Y-12611D01*
X34314Y-12550D01*
X34033Y-12513D01*
X33750Y-12500D01*
X41250Y-35000D02*
X40967Y-35013D01*
X40686Y-35050D01*
X40409Y-35111D01*
X40139Y-35196D01*
X39877Y-35305D01*
X39626Y-35436D01*
X39386Y-35588D01*
X39161Y-35761D01*
X38952Y-35952D01*
X38761Y-36161D01*
X38588Y-36386D01*
X38436Y-36626D01*
X38305Y-36877D01*
X38196Y-37139D01*
X38111Y-37409D01*
X38050Y-37686D01*
X38013Y-37967D01*
X38000Y-38250D01*
X44500Y-38250D02*
X44487Y-37967D01*
X44450Y-37686D01*
X44389Y-37409D01*
X44304Y-37139D01*
X44195Y-36877D01*
X44064Y-36626D01*
X43912Y-36386D01*
X43739Y-36161D01*
X43548Y-35952D01*
X43339Y-35761D01*
X43114Y-35588D01*
X42875Y-35436D01*
X42623Y-35305D01*
X42361Y-35196D01*
X42091Y-35111D01*
X41814Y-35050D01*
X41533Y-35013D01*
X41250Y-35000D01*
X48750Y-38200D02*
X48467Y-38213D01*
X48186Y-38250D01*
X47909Y-38311D01*
X47639Y-38396D01*
X47377Y-38505D01*
X47126Y-38636D01*
X46886Y-38788D01*
X46661Y-38961D01*
X46452Y-39152D01*
X46261Y-39361D01*
X46088Y-39586D01*
X45936Y-39826D01*
X45805Y-40077D01*
X45696Y-40339D01*
X45611Y-40609D01*
X45550Y-40886D01*
X45513Y-41167D01*
X45500Y-41450D01*
X52000Y-41450D02*
X51987Y-41167D01*
X51950Y-40886D01*
X51889Y-40609D01*
X51804Y-40339D01*
X51695Y-40077D01*
X51564Y-39826D01*
X51412Y-39586D01*
X51239Y-39361D01*
X51048Y-39152D01*
X50839Y-38961D01*
X50614Y-38788D01*
X50375Y-38636D01*
X50123Y-38505D01*
X49861Y-38396D01*
X49591Y-38311D01*
X49314Y-38250D01*
X49033Y-38213D01*
X48750Y-38200D01*
X22000Y-50000D02*
X23000Y-50000D01*
X29500Y-50000D02*
X30500Y-50000D01*
X37000Y-50000D02*
X38000Y-50000D01*
X44500Y-50000D02*
X45500Y-50000D01*
X38000Y-12500D02*
X75000Y-12500D01*
X30500Y-12500D02*
X37000Y-12500D01*
X52000Y-60000D02*
X15000Y-60000D01*
X59500Y-60000D02*
X53000Y-60000D01*
X38000Y-34300D02*
X38000Y-12500D01*
X45500Y-34300D02*
X38000Y-34300D01*
X45500Y-37500D02*
X45500Y-34300D01*
X53000Y-37500D02*
X45500Y-37500D01*
X53000Y-60000D02*
X53000Y-37500D01*
X52000Y-38200D02*
X52000Y-60000D01*
X44500Y-38200D02*
X52000Y-38200D01*
X44500Y-35000D02*
X44500Y-38200D01*
X37000Y-35000D02*
X44500Y-35000D01*
X37000Y-12500D02*
X37000Y-35000D01*
X15000Y-27500D02*
X15000Y-60000D01*
X30500Y-27500D02*
X15000Y-27500D01*
X30500Y-12500D02*
X30500Y-27500D01*
X75000Y-45000D02*
X75000Y-12500D01*
X59500Y-45000D02*
X75000Y-45000D01*
X59500Y-60000D02*
X59500Y-45000D01*
X74850Y-55600D02*
X73850Y-54100D01*
X70850Y-55600D02*
X71850Y-54100D01*
X72850Y-54100D02*
X73850Y-54100D01*
X72850Y-54100D02*
X71850Y-54100D01*
X72850Y-55600D02*
X70850Y-55600D01*
X70850Y-55600D02*
X70850Y-59600D01*
X70850Y-59600D02*
X74850Y-59600D01*
X74850Y-59600D02*
X74850Y-55600D01*
X74850Y-55600D02*
X72850Y-55600D01*
G54D12*
X60775Y-54150D02*
X63175Y-54150D01*
X63175Y-54150D02*
X63175Y-56550D01*
X63175Y-56550D02*
X60775Y-56550D01*
X60775Y-56550D02*
X60775Y-54150D01*
G54D17*
X62291Y-55350D02*
X62284Y-55411D01*
X62267Y-55470D01*
X62238Y-55524D01*
X62199Y-55572D01*
X62151Y-55611D01*
X62097Y-55641D01*
X62038Y-55659D01*
X61977Y-55665D01*
X61916Y-55660D01*
X61857Y-55642D01*
X61802Y-55614D01*
X61754Y-55575D01*
X61715Y-55528D01*
X61685Y-55474D01*
X61666Y-55415D01*
X61660Y-55354D01*
X61665Y-55293D01*
X61682Y-55234D01*
X61710Y-55179D01*
X61748Y-55131D01*
X61795Y-55091D01*
X61849Y-55061D01*
X61908Y-55042D01*
X61969Y-55035D01*
X62029Y-55039D01*
X62089Y-55056D01*
X62144Y-55084D01*
X62192Y-55122D01*
X62233Y-55168D01*
X62263Y-55222D01*
X62283Y-55280D01*
X62290Y-55342D01*
X62291Y-55350D01*
G54D10*
X68550Y-53975D02*
X68475Y-54050D01*
X67600Y-53950D02*
X67900Y-53950D01*
X67600Y-54000D02*
X67900Y-54000D01*
X67600Y-54050D02*
X67600Y-53900D01*
X67600Y-53900D02*
X67900Y-53900D01*
X67900Y-53900D02*
X67900Y-54050D01*
X68550Y-52025D02*
X68550Y-51950D01*
X68550Y-51950D02*
X66950Y-51950D01*
X66950Y-51950D02*
X66950Y-52025D01*
X66950Y-53975D02*
X66950Y-54050D01*
X66950Y-54050D02*
X68550Y-54050D01*
X68550Y-54050D02*
X68550Y-53975D01*
X65200Y-55400D02*
X64575Y-55400D01*
X64575Y-55400D02*
X64575Y-56250D01*
X64575Y-56250D02*
X65200Y-56250D01*
X65500Y-56250D02*
X66100Y-56250D01*
X66100Y-56250D02*
X66125Y-56250D01*
X66125Y-56250D02*
X66125Y-55400D01*
X66125Y-55400D02*
X65500Y-55400D01*
X65500Y-55225D02*
X66125Y-55225D01*
X66125Y-55225D02*
X66125Y-54375D01*
X66125Y-54375D02*
X65500Y-54375D01*
X65200Y-54375D02*
X64600Y-54375D01*
X64600Y-54375D02*
X64575Y-54375D01*
X64575Y-54375D02*
X64575Y-55225D01*
X64575Y-55225D02*
X65200Y-55225D01*
X68850Y-49500D02*
X68225Y-49500D01*
X68225Y-49500D02*
X68225Y-50350D01*
X68225Y-50350D02*
X68850Y-50350D01*
X69150Y-50350D02*
X69750Y-50350D01*
X69750Y-50350D02*
X69775Y-50350D01*
X69775Y-50350D02*
X69775Y-49500D01*
X69775Y-49500D02*
X69150Y-49500D01*
X66375Y-49500D02*
X65750Y-49500D01*
X65750Y-49500D02*
X65750Y-50350D01*
X65750Y-50350D02*
X66375Y-50350D01*
X66675Y-50350D02*
X67275Y-50350D01*
X67275Y-50350D02*
X67300Y-50350D01*
X67300Y-50350D02*
X67300Y-49500D01*
X67300Y-49500D02*
X66675Y-49500D01*
X65775Y-50825D02*
X66475Y-50825D01*
X65775Y-51675D02*
X66475Y-51675D01*
X66925Y-50825D02*
X67275Y-50825D01*
X67275Y-51675D02*
X66925Y-51675D01*
X66475Y-51675D02*
X66475Y-50825D01*
X65775Y-51675D02*
X65775Y-50825D01*
X67275Y-51675D02*
X67275Y-50825D01*
X69725Y-51675D02*
X69025Y-51675D01*
X69725Y-50825D02*
X69025Y-50825D01*
X68575Y-51675D02*
X68225Y-51675D01*
X68225Y-50825D02*
X68575Y-50825D01*
X69025Y-50825D02*
X69025Y-51675D01*
X69725Y-50825D02*
X69725Y-51675D01*
X68225Y-50825D02*
X68225Y-51675D01*
X67000Y-54375D02*
X67700Y-54375D01*
X67000Y-55225D02*
X67700Y-55225D01*
X68150Y-54375D02*
X68500Y-54375D01*
X68500Y-55225D02*
X68150Y-55225D01*
X67700Y-55225D02*
X67700Y-54375D01*
X67000Y-55225D02*
X67000Y-54375D01*
X68500Y-55225D02*
X68500Y-54375D01*
G54D15*
X69900Y-59350D02*
X69400Y-59350D01*
X69400Y-59350D02*
X69400Y-58350D01*
X69400Y-58350D02*
X69650Y-58350D01*
X69650Y-58350D02*
X69400Y-58100D01*
X69400Y-58100D02*
X69400Y-57850D01*
X69400Y-57850D02*
X69400Y-57600D01*
X69400Y-57600D02*
X69650Y-57350D01*
X69650Y-57350D02*
X70150Y-57350D01*
X70150Y-57350D02*
X70400Y-57600D01*
X70400Y-57600D02*
X70400Y-58100D01*
X70400Y-58100D02*
X70150Y-58350D01*
X70150Y-58350D02*
X70400Y-58350D01*
X70400Y-58350D02*
X70400Y-59350D01*
X70400Y-59350D02*
X69900Y-59350D01*
G54D14*
X22375Y-54850D02*
X22375Y-53355D01*
X22375Y-53355D02*
X23725Y-53355D01*
X23725Y-53355D02*
X23725Y-56345D01*
X22375Y-54850D02*
X22375Y-56345D01*
X22375Y-56345D02*
X23725Y-56345D01*
X27500Y-30625D02*
X27500Y-30875D01*
X27375Y-30750D02*
X27375Y-30500D01*
X27375Y-30500D02*
X27625Y-30750D01*
X27625Y-30750D02*
X27375Y-31000D01*
X27375Y-31000D02*
X27375Y-30750D01*
X28575Y-31475D02*
X28875Y-31475D01*
X28575Y-30025D02*
X28875Y-30025D01*
X28875Y-31475D02*
X28875Y-30025D01*
X28725Y-30025D02*
X28725Y-31475D01*
X27700Y-30025D02*
X28575Y-30025D01*
X28575Y-30025D02*
X28575Y-31475D01*
X28575Y-31475D02*
X27700Y-31475D01*
X27300Y-30025D02*
X26425Y-30025D01*
X26425Y-30025D02*
X26425Y-31475D01*
X26425Y-31475D02*
X27300Y-31475D01*
X23500Y-30625D02*
X23500Y-30875D01*
X23375Y-30750D02*
X23375Y-30500D01*
X23375Y-30500D02*
X23625Y-30750D01*
X23625Y-30750D02*
X23375Y-31000D01*
X23375Y-31000D02*
X23375Y-30750D01*
X24575Y-31475D02*
X24875Y-31475D01*
X24575Y-30025D02*
X24875Y-30025D01*
X24875Y-31475D02*
X24875Y-30025D01*
X24725Y-30025D02*
X24725Y-31475D01*
X23700Y-30025D02*
X24575Y-30025D01*
X24575Y-30025D02*
X24575Y-31475D01*
X24575Y-31475D02*
X23700Y-31475D01*
X23300Y-30025D02*
X22425Y-30025D01*
X22425Y-30025D02*
X22425Y-31475D01*
X22425Y-31475D02*
X23300Y-31475D01*
X19500Y-30625D02*
X19500Y-30875D01*
X19375Y-30750D02*
X19375Y-30500D01*
X19375Y-30500D02*
X19625Y-30750D01*
X19625Y-30750D02*
X19375Y-31000D01*
X19375Y-31000D02*
X19375Y-30750D01*
X20575Y-31475D02*
X20875Y-31475D01*
X20575Y-30025D02*
X20875Y-30025D01*
X20875Y-31475D02*
X20875Y-30025D01*
X20725Y-30025D02*
X20725Y-31475D01*
X19700Y-30025D02*
X20575Y-30025D01*
X20575Y-30025D02*
X20575Y-31475D01*
X20575Y-31475D02*
X19700Y-31475D01*
X19300Y-30025D02*
X18425Y-30025D01*
X18425Y-30025D02*
X18425Y-31475D01*
X18425Y-31475D02*
X19300Y-31475D01*
X18500Y-34625D02*
X18500Y-34875D01*
X18375Y-34750D02*
X18375Y-34500D01*
X18375Y-34500D02*
X18625Y-34750D01*
X18625Y-34750D02*
X18375Y-35000D01*
X18375Y-35000D02*
X18375Y-34750D01*
X19575Y-35475D02*
X19875Y-35475D01*
X19575Y-34025D02*
X19875Y-34025D01*
X19875Y-35475D02*
X19875Y-34025D01*
X19725Y-34025D02*
X19725Y-35475D01*
X18700Y-34025D02*
X19575Y-34025D01*
X19575Y-34025D02*
X19575Y-35475D01*
X19575Y-35475D02*
X18700Y-35475D01*
X18300Y-34025D02*
X17425Y-34025D01*
X17425Y-34025D02*
X17425Y-35475D01*
X17425Y-35475D02*
X18300Y-35475D01*
X18500Y-38625D02*
X18500Y-38875D01*
X18375Y-38750D02*
X18375Y-38500D01*
X18375Y-38500D02*
X18625Y-38750D01*
X18625Y-38750D02*
X18375Y-39000D01*
X18375Y-39000D02*
X18375Y-38750D01*
X19575Y-39475D02*
X19875Y-39475D01*
X19575Y-38025D02*
X19875Y-38025D01*
X19875Y-39475D02*
X19875Y-38025D01*
X19725Y-38025D02*
X19725Y-39475D01*
X18700Y-38025D02*
X19575Y-38025D01*
X19575Y-38025D02*
X19575Y-39475D01*
X19575Y-39475D02*
X18700Y-39475D01*
X18300Y-38025D02*
X17425Y-38025D01*
X17425Y-38025D02*
X17425Y-39475D01*
X17425Y-39475D02*
X18300Y-39475D01*
X18500Y-42625D02*
X18500Y-42875D01*
X18375Y-42750D02*
X18375Y-42500D01*
X18375Y-42500D02*
X18625Y-42750D01*
X18625Y-42750D02*
X18375Y-43000D01*
X18375Y-43000D02*
X18375Y-42750D01*
X19575Y-43475D02*
X19875Y-43475D01*
X19575Y-42025D02*
X19875Y-42025D01*
X19875Y-43475D02*
X19875Y-42025D01*
X19725Y-42025D02*
X19725Y-43475D01*
X18700Y-42025D02*
X19575Y-42025D01*
X19575Y-42025D02*
X19575Y-43475D01*
X19575Y-43475D02*
X18700Y-43475D01*
X18300Y-42025D02*
X17425Y-42025D01*
X17425Y-42025D02*
X17425Y-43475D01*
X17425Y-43475D02*
X18300Y-43475D01*
X18500Y-46625D02*
X18500Y-46875D01*
X18375Y-46750D02*
X18375Y-46500D01*
X18375Y-46500D02*
X18625Y-46750D01*
X18625Y-46750D02*
X18375Y-47000D01*
X18375Y-47000D02*
X18375Y-46750D01*
X19575Y-47475D02*
X19875Y-47475D01*
X19575Y-46025D02*
X19875Y-46025D01*
X19875Y-47475D02*
X19875Y-46025D01*
X19725Y-46025D02*
X19725Y-47475D01*
X18700Y-46025D02*
X19575Y-46025D01*
X19575Y-46025D02*
X19575Y-47475D01*
X19575Y-47475D02*
X18700Y-47475D01*
X18300Y-46025D02*
X17425Y-46025D01*
X17425Y-46025D02*
X17425Y-47475D01*
X17425Y-47475D02*
X18300Y-47475D01*
X18500Y-50625D02*
X18500Y-50875D01*
X18375Y-50750D02*
X18375Y-50500D01*
X18375Y-50500D02*
X18625Y-50750D01*
X18625Y-50750D02*
X18375Y-51000D01*
X18375Y-51000D02*
X18375Y-50750D01*
X19575Y-51475D02*
X19875Y-51475D01*
X19575Y-50025D02*
X19875Y-50025D01*
X19875Y-51475D02*
X19875Y-50025D01*
X19725Y-50025D02*
X19725Y-51475D01*
X18700Y-50025D02*
X19575Y-50025D01*
X19575Y-50025D02*
X19575Y-51475D01*
X19575Y-51475D02*
X18700Y-51475D01*
X18300Y-50025D02*
X17425Y-50025D01*
X17425Y-50025D02*
X17425Y-51475D01*
X17425Y-51475D02*
X18300Y-51475D01*
X26250Y-52875D02*
X26250Y-53125D01*
X26125Y-53000D02*
X26125Y-52750D01*
X26125Y-52750D02*
X26375Y-53000D01*
X26375Y-53000D02*
X26125Y-53250D01*
X26125Y-53250D02*
X26125Y-53000D01*
X27325Y-53725D02*
X27625Y-53725D01*
X27325Y-52275D02*
X27625Y-52275D01*
X27625Y-53725D02*
X27625Y-52275D01*
X27475Y-52275D02*
X27475Y-53725D01*
X26450Y-52275D02*
X27325Y-52275D01*
X27325Y-52275D02*
X27325Y-53725D01*
X27325Y-53725D02*
X26450Y-53725D01*
X26050Y-52275D02*
X25175Y-52275D01*
X25175Y-52275D02*
X25175Y-53725D01*
X25175Y-53725D02*
X26050Y-53725D01*
X41250Y-52875D02*
X41250Y-53125D01*
X41125Y-53000D02*
X41125Y-52750D01*
X41125Y-52750D02*
X41375Y-53000D01*
X41375Y-53000D02*
X41125Y-53250D01*
X41125Y-53250D02*
X41125Y-53000D01*
X42325Y-53725D02*
X42625Y-53725D01*
X42325Y-52275D02*
X42625Y-52275D01*
X42625Y-53725D02*
X42625Y-52275D01*
X42475Y-52275D02*
X42475Y-53725D01*
X41450Y-52275D02*
X42325Y-52275D01*
X42325Y-52275D02*
X42325Y-53725D01*
X42325Y-53725D02*
X41450Y-53725D01*
X41050Y-52275D02*
X40175Y-52275D01*
X40175Y-52275D02*
X40175Y-53725D01*
X40175Y-53725D02*
X41050Y-53725D01*
X26250Y-36875D02*
X26250Y-37125D01*
X26125Y-37000D02*
X26125Y-36750D01*
X26125Y-36750D02*
X26375Y-37000D01*
X26375Y-37000D02*
X26125Y-37250D01*
X26125Y-37250D02*
X26125Y-37000D01*
X27325Y-37725D02*
X27625Y-37725D01*
X27325Y-36275D02*
X27625Y-36275D01*
X27625Y-37725D02*
X27625Y-36275D01*
X27475Y-36275D02*
X27475Y-37725D01*
X26450Y-36275D02*
X27325Y-36275D01*
X27325Y-36275D02*
X27325Y-37725D01*
X27325Y-37725D02*
X26450Y-37725D01*
X26050Y-36275D02*
X25175Y-36275D01*
X25175Y-36275D02*
X25175Y-37725D01*
X25175Y-37725D02*
X26050Y-37725D01*
X26250Y-40875D02*
X26250Y-41125D01*
X26125Y-41000D02*
X26125Y-40750D01*
X26125Y-40750D02*
X26375Y-41000D01*
X26375Y-41000D02*
X26125Y-41250D01*
X26125Y-41250D02*
X26125Y-41000D01*
X27325Y-41725D02*
X27625Y-41725D01*
X27325Y-40275D02*
X27625Y-40275D01*
X27625Y-41725D02*
X27625Y-40275D01*
X27475Y-40275D02*
X27475Y-41725D01*
X26450Y-40275D02*
X27325Y-40275D01*
X27325Y-40275D02*
X27325Y-41725D01*
X27325Y-41725D02*
X26450Y-41725D01*
X26050Y-40275D02*
X25175Y-40275D01*
X25175Y-40275D02*
X25175Y-41725D01*
X25175Y-41725D02*
X26050Y-41725D01*
X26250Y-44875D02*
X26250Y-45125D01*
X26125Y-45000D02*
X26125Y-44750D01*
X26125Y-44750D02*
X26375Y-45000D01*
X26375Y-45000D02*
X26125Y-45250D01*
X26125Y-45250D02*
X26125Y-45000D01*
X27325Y-45725D02*
X27625Y-45725D01*
X27325Y-44275D02*
X27625Y-44275D01*
X27625Y-45725D02*
X27625Y-44275D01*
X27475Y-44275D02*
X27475Y-45725D01*
X26450Y-44275D02*
X27325Y-44275D01*
X27325Y-44275D02*
X27325Y-45725D01*
X27325Y-45725D02*
X26450Y-45725D01*
X26050Y-44275D02*
X25175Y-44275D01*
X25175Y-44275D02*
X25175Y-45725D01*
X25175Y-45725D02*
X26050Y-45725D01*
X26250Y-48875D02*
X26250Y-49125D01*
X26125Y-49000D02*
X26125Y-48750D01*
X26125Y-48750D02*
X26375Y-49000D01*
X26375Y-49000D02*
X26125Y-49250D01*
X26125Y-49250D02*
X26125Y-49000D01*
X27325Y-49725D02*
X27625Y-49725D01*
X27325Y-48275D02*
X27625Y-48275D01*
X27625Y-49725D02*
X27625Y-48275D01*
X27475Y-48275D02*
X27475Y-49725D01*
X26450Y-48275D02*
X27325Y-48275D01*
X27325Y-48275D02*
X27325Y-49725D01*
X27325Y-49725D02*
X26450Y-49725D01*
X26050Y-48275D02*
X25175Y-48275D01*
X25175Y-48275D02*
X25175Y-49725D01*
X25175Y-49725D02*
X26050Y-49725D01*
X41250Y-36875D02*
X41250Y-37125D01*
X41125Y-37000D02*
X41125Y-36750D01*
X41125Y-36750D02*
X41375Y-37000D01*
X41375Y-37000D02*
X41125Y-37250D01*
X41125Y-37250D02*
X41125Y-37000D01*
X42325Y-37725D02*
X42625Y-37725D01*
X42325Y-36275D02*
X42625Y-36275D01*
X42625Y-37725D02*
X42625Y-36275D01*
X42475Y-36275D02*
X42475Y-37725D01*
X41450Y-36275D02*
X42325Y-36275D01*
X42325Y-36275D02*
X42325Y-37725D01*
X42325Y-37725D02*
X41450Y-37725D01*
X41050Y-36275D02*
X40175Y-36275D01*
X40175Y-36275D02*
X40175Y-37725D01*
X40175Y-37725D02*
X41050Y-37725D01*
X41250Y-40875D02*
X41250Y-41125D01*
X41125Y-41000D02*
X41125Y-40750D01*
X41125Y-40750D02*
X41375Y-41000D01*
X41375Y-41000D02*
X41125Y-41250D01*
X41125Y-41250D02*
X41125Y-41000D01*
X42325Y-41725D02*
X42625Y-41725D01*
X42325Y-40275D02*
X42625Y-40275D01*
X42625Y-41725D02*
X42625Y-40275D01*
X42475Y-40275D02*
X42475Y-41725D01*
X41450Y-40275D02*
X42325Y-40275D01*
X42325Y-40275D02*
X42325Y-41725D01*
X42325Y-41725D02*
X41450Y-41725D01*
X41050Y-40275D02*
X40175Y-40275D01*
X40175Y-40275D02*
X40175Y-41725D01*
X40175Y-41725D02*
X41050Y-41725D01*
X41250Y-44875D02*
X41250Y-45125D01*
X41125Y-45000D02*
X41125Y-44750D01*
X41125Y-44750D02*
X41375Y-45000D01*
X41375Y-45000D02*
X41125Y-45250D01*
X41125Y-45250D02*
X41125Y-45000D01*
X42325Y-45725D02*
X42625Y-45725D01*
X42325Y-44275D02*
X42625Y-44275D01*
X42625Y-45725D02*
X42625Y-44275D01*
X42475Y-44275D02*
X42475Y-45725D01*
X41450Y-44275D02*
X42325Y-44275D01*
X42325Y-44275D02*
X42325Y-45725D01*
X42325Y-45725D02*
X41450Y-45725D01*
X41050Y-44275D02*
X40175Y-44275D01*
X40175Y-44275D02*
X40175Y-45725D01*
X40175Y-45725D02*
X41050Y-45725D01*
X41250Y-48875D02*
X41250Y-49125D01*
X41125Y-49000D02*
X41125Y-48750D01*
X41125Y-48750D02*
X41375Y-49000D01*
X41375Y-49000D02*
X41125Y-49250D01*
X41125Y-49250D02*
X41125Y-49000D01*
X42325Y-49725D02*
X42625Y-49725D01*
X42325Y-48275D02*
X42625Y-48275D01*
X42625Y-49725D02*
X42625Y-48275D01*
X42475Y-48275D02*
X42475Y-49725D01*
X41450Y-48275D02*
X42325Y-48275D01*
X42325Y-48275D02*
X42325Y-49725D01*
X42325Y-49725D02*
X41450Y-49725D01*
X41050Y-48275D02*
X40175Y-48275D01*
X40175Y-48275D02*
X40175Y-49725D01*
X40175Y-49725D02*
X41050Y-49725D01*
X48750Y-40075D02*
X48750Y-40325D01*
X48625Y-40200D02*
X48625Y-39950D01*
X48625Y-39950D02*
X48875Y-40200D01*
X48875Y-40200D02*
X48625Y-40450D01*
X48625Y-40450D02*
X48625Y-40200D01*
X49825Y-40925D02*
X50125Y-40925D01*
X49825Y-39475D02*
X50125Y-39475D01*
X50125Y-40925D02*
X50125Y-39475D01*
X49975Y-39475D02*
X49975Y-40925D01*
X48950Y-39475D02*
X49825Y-39475D01*
X49825Y-39475D02*
X49825Y-40925D01*
X49825Y-40925D02*
X48950Y-40925D01*
X48550Y-39475D02*
X47675Y-39475D01*
X47675Y-39475D02*
X47675Y-40925D01*
X47675Y-40925D02*
X48550Y-40925D01*
X48750Y-44075D02*
X48750Y-44325D01*
X48625Y-44200D02*
X48625Y-43950D01*
X48625Y-43950D02*
X48875Y-44200D01*
X48875Y-44200D02*
X48625Y-44450D01*
X48625Y-44450D02*
X48625Y-44200D01*
X49825Y-44925D02*
X50125Y-44925D01*
X49825Y-43475D02*
X50125Y-43475D01*
X50125Y-44925D02*
X50125Y-43475D01*
X49975Y-43475D02*
X49975Y-44925D01*
X48950Y-43475D02*
X49825Y-43475D01*
X49825Y-43475D02*
X49825Y-44925D01*
X49825Y-44925D02*
X48950Y-44925D01*
X48550Y-43475D02*
X47675Y-43475D01*
X47675Y-43475D02*
X47675Y-44925D01*
X47675Y-44925D02*
X48550Y-44925D01*
X48750Y-48075D02*
X48750Y-48325D01*
X48625Y-48200D02*
X48625Y-47950D01*
X48625Y-47950D02*
X48875Y-48200D01*
X48875Y-48200D02*
X48625Y-48450D01*
X48625Y-48450D02*
X48625Y-48200D01*
X49825Y-48925D02*
X50125Y-48925D01*
X49825Y-47475D02*
X50125Y-47475D01*
X50125Y-48925D02*
X50125Y-47475D01*
X49975Y-47475D02*
X49975Y-48925D01*
X48950Y-47475D02*
X49825Y-47475D01*
X49825Y-47475D02*
X49825Y-48925D01*
X49825Y-48925D02*
X48950Y-48925D01*
X48550Y-47475D02*
X47675Y-47475D01*
X47675Y-47475D02*
X47675Y-48925D01*
X47675Y-48925D02*
X48550Y-48925D01*
X48750Y-52075D02*
X48750Y-52325D01*
X48625Y-52200D02*
X48625Y-51950D01*
X48625Y-51950D02*
X48875Y-52200D01*
X48875Y-52200D02*
X48625Y-52450D01*
X48625Y-52450D02*
X48625Y-52200D01*
X49825Y-52925D02*
X50125Y-52925D01*
X49825Y-51475D02*
X50125Y-51475D01*
X50125Y-52925D02*
X50125Y-51475D01*
X49975Y-51475D02*
X49975Y-52925D01*
X48950Y-51475D02*
X49825Y-51475D01*
X49825Y-51475D02*
X49825Y-52925D01*
X49825Y-52925D02*
X48950Y-52925D01*
X48550Y-51475D02*
X47675Y-51475D01*
X47675Y-51475D02*
X47675Y-52925D01*
X47675Y-52925D02*
X48550Y-52925D01*
X33750Y-14375D02*
X33750Y-14625D01*
X33625Y-14500D02*
X33625Y-14250D01*
X33625Y-14250D02*
X33875Y-14500D01*
X33875Y-14500D02*
X33625Y-14750D01*
X33625Y-14750D02*
X33625Y-14500D01*
X34825Y-15225D02*
X35125Y-15225D01*
X34825Y-13775D02*
X35125Y-13775D01*
X35125Y-15225D02*
X35125Y-13775D01*
X34975Y-13775D02*
X34975Y-15225D01*
X33950Y-13775D02*
X34825Y-13775D01*
X34825Y-13775D02*
X34825Y-15225D01*
X34825Y-15225D02*
X33950Y-15225D01*
X33550Y-13775D02*
X32675Y-13775D01*
X32675Y-13775D02*
X32675Y-15225D01*
X32675Y-15225D02*
X33550Y-15225D01*
X33750Y-18375D02*
X33750Y-18625D01*
X33625Y-18500D02*
X33625Y-18250D01*
X33625Y-18250D02*
X33875Y-18500D01*
X33875Y-18500D02*
X33625Y-18750D01*
X33625Y-18750D02*
X33625Y-18500D01*
X34825Y-19225D02*
X35125Y-19225D01*
X34825Y-17775D02*
X35125Y-17775D01*
X35125Y-19225D02*
X35125Y-17775D01*
X34975Y-17775D02*
X34975Y-19225D01*
X33950Y-17775D02*
X34825Y-17775D01*
X34825Y-17775D02*
X34825Y-19225D01*
X34825Y-19225D02*
X33950Y-19225D01*
X33550Y-17775D02*
X32675Y-17775D01*
X32675Y-17775D02*
X32675Y-19225D01*
X32675Y-19225D02*
X33550Y-19225D01*
X33750Y-22375D02*
X33750Y-22625D01*
X33625Y-22500D02*
X33625Y-22250D01*
X33625Y-22250D02*
X33875Y-22500D01*
X33875Y-22500D02*
X33625Y-22750D01*
X33625Y-22750D02*
X33625Y-22500D01*
X34825Y-23225D02*
X35125Y-23225D01*
X34825Y-21775D02*
X35125Y-21775D01*
X35125Y-23225D02*
X35125Y-21775D01*
X34975Y-21775D02*
X34975Y-23225D01*
X33950Y-21775D02*
X34825Y-21775D01*
X34825Y-21775D02*
X34825Y-23225D01*
X34825Y-23225D02*
X33950Y-23225D01*
X33550Y-21775D02*
X32675Y-21775D01*
X32675Y-21775D02*
X32675Y-23225D01*
X32675Y-23225D02*
X33550Y-23225D01*
X33750Y-26375D02*
X33750Y-26625D01*
X33625Y-26500D02*
X33625Y-26250D01*
X33625Y-26250D02*
X33875Y-26500D01*
X33875Y-26500D02*
X33625Y-26750D01*
X33625Y-26750D02*
X33625Y-26500D01*
X34825Y-27225D02*
X35125Y-27225D01*
X34825Y-25775D02*
X35125Y-25775D01*
X35125Y-27225D02*
X35125Y-25775D01*
X34975Y-25775D02*
X34975Y-27225D01*
X33950Y-25775D02*
X34825Y-25775D01*
X34825Y-25775D02*
X34825Y-27225D01*
X34825Y-27225D02*
X33950Y-27225D01*
X33550Y-25775D02*
X32675Y-25775D01*
X32675Y-25775D02*
X32675Y-27225D01*
X32675Y-27225D02*
X33550Y-27225D01*
X33750Y-30375D02*
X33750Y-30625D01*
X33625Y-30500D02*
X33625Y-30250D01*
X33625Y-30250D02*
X33875Y-30500D01*
X33875Y-30500D02*
X33625Y-30750D01*
X33625Y-30750D02*
X33625Y-30500D01*
X34825Y-31225D02*
X35125Y-31225D01*
X34825Y-29775D02*
X35125Y-29775D01*
X35125Y-31225D02*
X35125Y-29775D01*
X34975Y-29775D02*
X34975Y-31225D01*
X33950Y-29775D02*
X34825Y-29775D01*
X34825Y-29775D02*
X34825Y-31225D01*
X34825Y-31225D02*
X33950Y-31225D01*
X33550Y-29775D02*
X32675Y-29775D01*
X32675Y-29775D02*
X32675Y-31225D01*
X32675Y-31225D02*
X33550Y-31225D01*
X33650Y-34375D02*
X33650Y-34625D01*
X33525Y-34500D02*
X33525Y-34250D01*
X33525Y-34250D02*
X33775Y-34500D01*
X33775Y-34500D02*
X33525Y-34750D01*
X33525Y-34750D02*
X33525Y-34500D01*
X34725Y-35225D02*
X35025Y-35225D01*
X34725Y-33775D02*
X35025Y-33775D01*
X35025Y-35225D02*
X35025Y-33775D01*
X34875Y-33775D02*
X34875Y-35225D01*
X33850Y-33775D02*
X34725Y-33775D01*
X34725Y-33775D02*
X34725Y-35225D01*
X34725Y-35225D02*
X33850Y-35225D01*
X33450Y-33775D02*
X32575Y-33775D01*
X32575Y-33775D02*
X32575Y-35225D01*
X32575Y-35225D02*
X33450Y-35225D01*
X33760Y-38375D02*
X33760Y-38625D01*
X33635Y-38500D02*
X33635Y-38250D01*
X33635Y-38250D02*
X33885Y-38500D01*
X33885Y-38500D02*
X33635Y-38750D01*
X33635Y-38750D02*
X33635Y-38500D01*
X34835Y-39225D02*
X35135Y-39225D01*
X34835Y-37775D02*
X35135Y-37775D01*
X35135Y-39225D02*
X35135Y-37775D01*
X34985Y-37775D02*
X34985Y-39225D01*
X33960Y-37775D02*
X34835Y-37775D01*
X34835Y-37775D02*
X34835Y-39225D01*
X34835Y-39225D02*
X33960Y-39225D01*
X33560Y-37775D02*
X32685Y-37775D01*
X32685Y-37775D02*
X32685Y-39225D01*
X32685Y-39225D02*
X33560Y-39225D01*
X33760Y-42375D02*
X33760Y-42625D01*
X33635Y-42500D02*
X33635Y-42250D01*
X33635Y-42250D02*
X33885Y-42500D01*
X33885Y-42500D02*
X33635Y-42750D01*
X33635Y-42750D02*
X33635Y-42500D01*
X34835Y-43225D02*
X35135Y-43225D01*
X34835Y-41775D02*
X35135Y-41775D01*
X35135Y-43225D02*
X35135Y-41775D01*
X34985Y-41775D02*
X34985Y-43225D01*
X33960Y-41775D02*
X34835Y-41775D01*
X34835Y-41775D02*
X34835Y-43225D01*
X34835Y-43225D02*
X33960Y-43225D01*
X33560Y-41775D02*
X32685Y-41775D01*
X32685Y-41775D02*
X32685Y-43225D01*
X32685Y-43225D02*
X33560Y-43225D01*
G54D15*
X38525Y-13750D02*
X38525Y-13250D01*
X43525Y-13750D02*
X43525Y-13250D01*
X43525Y-13750D02*
X43275Y-14000D01*
X43275Y-14000D02*
X42775Y-14000D01*
X42775Y-14000D02*
X42525Y-13750D01*
X42525Y-13750D02*
X42275Y-14000D01*
X42275Y-14000D02*
X41775Y-14000D01*
X41775Y-14000D02*
X41525Y-13750D01*
X41525Y-13750D02*
X41275Y-14000D01*
X41275Y-14000D02*
X40775Y-14000D01*
X40775Y-14000D02*
X40525Y-13750D01*
X40525Y-13750D02*
X40275Y-14000D01*
X40275Y-14000D02*
X39775Y-14000D01*
X39775Y-14000D02*
X39525Y-13750D01*
X39525Y-13750D02*
X39275Y-14000D01*
X39275Y-14000D02*
X38775Y-14000D01*
X38775Y-14000D02*
X38525Y-13750D01*
X38525Y-13250D02*
X38775Y-13000D01*
X38775Y-13000D02*
X39275Y-13000D01*
X39275Y-13000D02*
X39525Y-13250D01*
X39525Y-13250D02*
X39775Y-13000D01*
X39775Y-13000D02*
X40275Y-13000D01*
X40275Y-13000D02*
X40525Y-13250D01*
X40525Y-13250D02*
X40775Y-13000D01*
X40775Y-13000D02*
X41275Y-13000D01*
X41275Y-13000D02*
X41525Y-13250D01*
X41525Y-13250D02*
X41775Y-13000D01*
X41775Y-13000D02*
X42275Y-13000D01*
X42275Y-13000D02*
X42525Y-13250D01*
X42525Y-13250D02*
X42775Y-13000D01*
X42775Y-13000D02*
X43275Y-13000D01*
X43275Y-13000D02*
X43525Y-13250D01*
X43525Y-13250D02*
X43525Y-13000D01*
X43525Y-13000D02*
X44525Y-13000D01*
X44525Y-13000D02*
X44525Y-13975D01*
X44525Y-13975D02*
X44525Y-14000D01*
X44525Y-14000D02*
X43525Y-14000D01*
X43525Y-14000D02*
X43525Y-13750D01*
X38525Y-14750D02*
X38525Y-14250D01*
X43525Y-14750D02*
X43525Y-14250D01*
X43525Y-14750D02*
X43275Y-15000D01*
X43275Y-15000D02*
X42775Y-15000D01*
X42775Y-15000D02*
X42525Y-14750D01*
X42525Y-14750D02*
X42275Y-15000D01*
X42275Y-15000D02*
X41775Y-15000D01*
X41775Y-15000D02*
X41525Y-14750D01*
X41525Y-14750D02*
X41275Y-15000D01*
X41275Y-15000D02*
X40775Y-15000D01*
X40775Y-15000D02*
X40525Y-14750D01*
X40525Y-14750D02*
X40275Y-15000D01*
X40275Y-15000D02*
X39775Y-15000D01*
X39775Y-15000D02*
X39525Y-14750D01*
X39525Y-14750D02*
X39275Y-15000D01*
X39275Y-15000D02*
X38775Y-15000D01*
X38775Y-15000D02*
X38525Y-14750D01*
X38525Y-14250D02*
X38775Y-14000D01*
X38775Y-14000D02*
X39275Y-14000D01*
X39275Y-14000D02*
X39525Y-14250D01*
X39525Y-14250D02*
X39775Y-14000D01*
X39775Y-14000D02*
X40275Y-14000D01*
X40275Y-14000D02*
X40525Y-14250D01*
X40525Y-14250D02*
X40775Y-14000D01*
X40775Y-14000D02*
X41275Y-14000D01*
X41275Y-14000D02*
X41525Y-14250D01*
X41525Y-14250D02*
X41775Y-14000D01*
X41775Y-14000D02*
X42275Y-14000D01*
X42275Y-14000D02*
X42525Y-14250D01*
X42525Y-14250D02*
X42775Y-14000D01*
X42775Y-14000D02*
X43275Y-14000D01*
X43275Y-14000D02*
X43525Y-14250D01*
X43525Y-14250D02*
X43525Y-14000D01*
X43525Y-14000D02*
X44525Y-14000D01*
X44525Y-14000D02*
X44525Y-14975D01*
X44525Y-14975D02*
X44525Y-15000D01*
X44525Y-15000D02*
X43525Y-15000D01*
X43525Y-15000D02*
X43525Y-14750D01*
G54D10*
X38390Y-45725D02*
X37690Y-45725D01*
X38390Y-44875D02*
X37690Y-44875D01*
X37240Y-45725D02*
X36890Y-45725D01*
X36890Y-44875D02*
X37240Y-44875D01*
X37690Y-44875D02*
X37690Y-45725D01*
X38390Y-44875D02*
X38390Y-45725D01*
X36890Y-44875D02*
X36890Y-45725D01*
X41850Y-57325D02*
X42550Y-57325D01*
X41850Y-58175D02*
X42550Y-58175D01*
X43000Y-57325D02*
X43350Y-57325D01*
X43350Y-58175D02*
X43000Y-58175D01*
X42550Y-58175D02*
X42550Y-57325D01*
X41850Y-58175D02*
X41850Y-57325D01*
X43350Y-58175D02*
X43350Y-57325D01*
X50550Y-49775D02*
X49925Y-49775D01*
X49925Y-49775D02*
X49925Y-50625D01*
X49925Y-50625D02*
X50550Y-50625D01*
X50850Y-50625D02*
X51450Y-50625D01*
X51450Y-50625D02*
X51475Y-50625D01*
X51475Y-50625D02*
X51475Y-49775D01*
X51475Y-49775D02*
X50850Y-49775D01*
X37015Y-41450D02*
X37015Y-42075D01*
X37015Y-42075D02*
X37865Y-42075D01*
X37865Y-42075D02*
X37865Y-41450D01*
X37865Y-41150D02*
X37865Y-40550D01*
X37865Y-40550D02*
X37865Y-40525D01*
X37865Y-40525D02*
X37015Y-40525D01*
X37015Y-40525D02*
X37015Y-41150D01*
X26100Y-54575D02*
X25475Y-54575D01*
X25475Y-54575D02*
X25475Y-55425D01*
X25475Y-55425D02*
X26100Y-55425D01*
X26400Y-55425D02*
X27000Y-55425D01*
X27000Y-55425D02*
X27025Y-55425D01*
X27025Y-55425D02*
X27025Y-54575D01*
X27025Y-54575D02*
X26400Y-54575D01*
X25650Y-33275D02*
X26275Y-33275D01*
X26275Y-33275D02*
X26275Y-32425D01*
X26275Y-32425D02*
X25650Y-32425D01*
X25350Y-32425D02*
X24750Y-32425D01*
X24750Y-32425D02*
X24725Y-32425D01*
X24725Y-32425D02*
X24725Y-33275D01*
X24725Y-33275D02*
X25350Y-33275D01*
X21325Y-32425D02*
X20700Y-32425D01*
X20700Y-32425D02*
X20700Y-33275D01*
X20700Y-33275D02*
X21325Y-33275D01*
X21625Y-33275D02*
X22225Y-33275D01*
X22225Y-33275D02*
X22250Y-33275D01*
X22250Y-33275D02*
X22250Y-32425D01*
X22250Y-32425D02*
X21625Y-32425D01*
X50550Y-41775D02*
X49925Y-41775D01*
X49925Y-41775D02*
X49925Y-42625D01*
X49925Y-42625D02*
X50550Y-42625D01*
X50850Y-42625D02*
X51450Y-42625D01*
X51450Y-42625D02*
X51475Y-42625D01*
X51475Y-42625D02*
X51475Y-41775D01*
X51475Y-41775D02*
X50850Y-41775D01*
X43050Y-46575D02*
X42425Y-46575D01*
X42425Y-46575D02*
X42425Y-47425D01*
X42425Y-47425D02*
X43050Y-47425D01*
X43350Y-47425D02*
X43950Y-47425D01*
X43950Y-47425D02*
X43975Y-47425D01*
X43975Y-47425D02*
X43975Y-46575D01*
X43975Y-46575D02*
X43350Y-46575D01*
X43050Y-38575D02*
X42425Y-38575D01*
X42425Y-38575D02*
X42425Y-39425D01*
X42425Y-39425D02*
X43050Y-39425D01*
X43350Y-39425D02*
X43950Y-39425D01*
X43950Y-39425D02*
X43975Y-39425D01*
X43975Y-39425D02*
X43975Y-38575D01*
X43975Y-38575D02*
X43350Y-38575D01*
X28050Y-46575D02*
X27425Y-46575D01*
X27425Y-46575D02*
X27425Y-47425D01*
X27425Y-47425D02*
X28050Y-47425D01*
X28350Y-47425D02*
X28950Y-47425D01*
X28950Y-47425D02*
X28975Y-47425D01*
X28975Y-47425D02*
X28975Y-46575D01*
X28975Y-46575D02*
X28350Y-46575D01*
X20450Y-48325D02*
X19825Y-48325D01*
X19825Y-48325D02*
X19825Y-49175D01*
X19825Y-49175D02*
X20450Y-49175D01*
X20750Y-49175D02*
X21350Y-49175D01*
X21350Y-49175D02*
X21375Y-49175D01*
X21375Y-49175D02*
X21375Y-48325D01*
X21375Y-48325D02*
X20750Y-48325D01*
X20450Y-40325D02*
X19825Y-40325D01*
X19825Y-40325D02*
X19825Y-41175D01*
X19825Y-41175D02*
X20450Y-41175D01*
X20750Y-41175D02*
X21350Y-41175D01*
X21350Y-41175D02*
X21375Y-41175D01*
X21375Y-41175D02*
X21375Y-40325D01*
X21375Y-40325D02*
X20750Y-40325D01*
X20750Y-52975D02*
X21375Y-52975D01*
X21375Y-52975D02*
X21375Y-52125D01*
X21375Y-52125D02*
X20750Y-52125D01*
X20450Y-52125D02*
X19850Y-52125D01*
X19850Y-52125D02*
X19825Y-52125D01*
X19825Y-52125D02*
X19825Y-52975D01*
X19825Y-52975D02*
X20450Y-52975D01*
X28050Y-38575D02*
X27425Y-38575D01*
X27425Y-38575D02*
X27425Y-39425D01*
X27425Y-39425D02*
X28050Y-39425D01*
X28350Y-39425D02*
X28950Y-39425D01*
X28950Y-39425D02*
X28975Y-39425D01*
X28975Y-39425D02*
X28975Y-38575D01*
X28975Y-38575D02*
X28350Y-38575D01*
G54D14*
X72050Y-52975D02*
X72050Y-53850D01*
X72050Y-53850D02*
X70450Y-53850D01*
X70450Y-53850D02*
X70450Y-52975D01*
X72050Y-51275D02*
X72050Y-50400D01*
X72050Y-50400D02*
X70450Y-50400D01*
X70450Y-50400D02*
X70450Y-51275D01*
G54D11*
X73475Y-53921D02*
X73375Y-53779D01*
X73303Y-53921D02*
X73303Y-53621D01*
X73418Y-53621D01*
X73446Y-53636D01*
X73461Y-53650D01*
X73475Y-53679D01*
X73475Y-53721D01*
X73461Y-53750D01*
X73446Y-53764D01*
X73418Y-53779D01*
X73303Y-53779D01*
X73746Y-53621D02*
X73603Y-53621D01*
X73589Y-53764D01*
X73603Y-53750D01*
X73632Y-53736D01*
X73703Y-53736D01*
X73732Y-53750D01*
X73746Y-53764D01*
X73761Y-53793D01*
X73761Y-53864D01*
X73746Y-53893D01*
X73732Y-53907D01*
X73703Y-53921D01*
X73632Y-53921D01*
X73603Y-53907D01*
X73589Y-53893D01*
X73497Y-53446D02*
X73325Y-53446D01*
X73411Y-53446D02*
X73411Y-53146D01*
X73382Y-53189D01*
X73354Y-53218D01*
X73325Y-53232D01*
X73683Y-53146D02*
X73711Y-53146D01*
X73740Y-53161D01*
X73754Y-53175D01*
X73768Y-53204D01*
X73783Y-53261D01*
X73783Y-53332D01*
X73768Y-53389D01*
X73754Y-53418D01*
X73740Y-53432D01*
X73711Y-53446D01*
X73683Y-53446D01*
X73654Y-53432D01*
X73640Y-53418D01*
X73625Y-53389D01*
X73611Y-53332D01*
X73611Y-53261D01*
X73625Y-53204D01*
X73640Y-53175D01*
X73654Y-53161D01*
X73683Y-53146D01*
X73911Y-53446D02*
X73911Y-53146D01*
X73940Y-53332D02*
X74026Y-53446D01*
X74026Y-53246D02*
X73911Y-53361D01*
X61575Y-53457D02*
X61618Y-53471D01*
X61689Y-53471D01*
X61718Y-53457D01*
X61732Y-53443D01*
X61747Y-53414D01*
X61747Y-53386D01*
X61732Y-53357D01*
X61718Y-53343D01*
X61689Y-53329D01*
X61632Y-53314D01*
X61604Y-53300D01*
X61589Y-53286D01*
X61575Y-53257D01*
X61575Y-53229D01*
X61589Y-53200D01*
X61604Y-53186D01*
X61632Y-53171D01*
X61704Y-53171D01*
X61747Y-53186D01*
X61847Y-53171D02*
X61918Y-53471D01*
X61975Y-53257D01*
X62033Y-53471D01*
X62104Y-53171D01*
X62376Y-53471D02*
X62204Y-53471D01*
X62290Y-53471D02*
X62290Y-53171D01*
X62261Y-53214D01*
X62233Y-53243D01*
X62204Y-53257D01*
X61060Y-52957D02*
X61103Y-52971D01*
X61174Y-52971D01*
X61203Y-52957D01*
X61217Y-52943D01*
X61232Y-52914D01*
X61232Y-52886D01*
X61217Y-52857D01*
X61203Y-52843D01*
X61174Y-52829D01*
X61117Y-52814D01*
X61089Y-52800D01*
X61074Y-52786D01*
X61060Y-52757D01*
X61060Y-52729D01*
X61074Y-52700D01*
X61089Y-52686D01*
X61117Y-52671D01*
X61189Y-52671D01*
X61232Y-52686D01*
X61332Y-52671D02*
X61403Y-52971D01*
X61460Y-52757D01*
X61518Y-52971D01*
X61589Y-52671D01*
X61632Y-53000D02*
X61861Y-53000D01*
X61918Y-52957D02*
X61961Y-52971D01*
X62032Y-52971D01*
X62061Y-52957D01*
X62075Y-52943D01*
X62090Y-52914D01*
X62090Y-52886D01*
X62075Y-52857D01*
X62061Y-52843D01*
X62032Y-52829D01*
X61975Y-52814D01*
X61947Y-52800D01*
X61932Y-52786D01*
X61918Y-52757D01*
X61918Y-52729D01*
X61932Y-52700D01*
X61947Y-52686D01*
X61975Y-52671D01*
X62047Y-52671D01*
X62090Y-52686D01*
X62176Y-52671D02*
X62347Y-52671D01*
X62261Y-52971D02*
X62261Y-52671D01*
X62547Y-52814D02*
X62447Y-52814D01*
X62447Y-52971D02*
X62447Y-52671D01*
X62590Y-52671D01*
X62704Y-52671D02*
X62704Y-52914D01*
X62719Y-52943D01*
X62733Y-52957D01*
X62762Y-52971D01*
X62819Y-52971D01*
X62847Y-52957D01*
X62862Y-52943D01*
X62876Y-52914D01*
X62876Y-52671D01*
X69296Y-53621D02*
X69296Y-53864D01*
X69311Y-53893D01*
X69325Y-53907D01*
X69354Y-53921D01*
X69411Y-53921D01*
X69439Y-53907D01*
X69454Y-53893D01*
X69468Y-53864D01*
X69468Y-53621D01*
X69739Y-53621D02*
X69682Y-53621D01*
X69653Y-53636D01*
X69639Y-53650D01*
X69610Y-53693D01*
X69596Y-53750D01*
X69596Y-53864D01*
X69610Y-53893D01*
X69625Y-53907D01*
X69653Y-53921D01*
X69710Y-53921D01*
X69739Y-53907D01*
X69753Y-53893D01*
X69768Y-53864D01*
X69768Y-53793D01*
X69753Y-53764D01*
X69739Y-53750D01*
X69710Y-53736D01*
X69653Y-53736D01*
X69625Y-53750D01*
X69610Y-53764D01*
X69596Y-53793D01*
X67896Y-53425D02*
X67596Y-53425D01*
X67896Y-53253D01*
X67596Y-53253D01*
X67739Y-53111D02*
X67739Y-53011D01*
X67896Y-52968D02*
X67896Y-53111D01*
X67596Y-53111D01*
X67596Y-52968D01*
X67596Y-52697D02*
X67596Y-52840D01*
X67739Y-52854D01*
X67725Y-52840D01*
X67711Y-52811D01*
X67711Y-52740D01*
X67725Y-52711D01*
X67739Y-52697D01*
X67768Y-52682D01*
X67839Y-52682D01*
X67868Y-52697D01*
X67882Y-52711D01*
X67896Y-52740D01*
X67896Y-52811D01*
X67882Y-52840D01*
X67868Y-52854D01*
X67596Y-52411D02*
X67596Y-52554D01*
X67739Y-52568D01*
X67725Y-52554D01*
X67711Y-52525D01*
X67711Y-52454D01*
X67725Y-52425D01*
X67739Y-52411D01*
X67768Y-52396D01*
X67839Y-52396D01*
X67868Y-52411D01*
X67882Y-52425D01*
X67896Y-52454D01*
X67896Y-52525D01*
X67882Y-52554D01*
X67868Y-52568D01*
X67596Y-52125D02*
X67596Y-52268D01*
X67739Y-52282D01*
X67725Y-52268D01*
X67711Y-52239D01*
X67711Y-52168D01*
X67725Y-52139D01*
X67739Y-52125D01*
X67768Y-52110D01*
X67839Y-52110D01*
X67868Y-52125D01*
X67882Y-52139D01*
X67896Y-52168D01*
X67896Y-52239D01*
X67882Y-52268D01*
X67868Y-52282D01*
X63857Y-55946D02*
X63757Y-55804D01*
X63685Y-55946D02*
X63685Y-55646D01*
X63800Y-55646D01*
X63828Y-55661D01*
X63843Y-55675D01*
X63857Y-55704D01*
X63857Y-55746D01*
X63843Y-55775D01*
X63828Y-55789D01*
X63800Y-55804D01*
X63685Y-55804D01*
X64114Y-55746D02*
X64114Y-55946D01*
X64043Y-55632D02*
X63971Y-55846D01*
X64157Y-55846D01*
X64243Y-55646D02*
X64429Y-55646D01*
X64329Y-55761D01*
X64371Y-55761D01*
X64400Y-55775D01*
X64414Y-55789D01*
X64429Y-55818D01*
X64429Y-55889D01*
X64414Y-55918D01*
X64400Y-55932D01*
X64371Y-55946D01*
X64286Y-55946D01*
X64257Y-55932D01*
X64243Y-55918D01*
X63907Y-54921D02*
X63807Y-54779D01*
X63735Y-54921D02*
X63735Y-54621D01*
X63850Y-54621D01*
X63878Y-54636D01*
X63893Y-54650D01*
X63907Y-54679D01*
X63907Y-54721D01*
X63893Y-54750D01*
X63878Y-54764D01*
X63850Y-54779D01*
X63735Y-54779D01*
X64164Y-54721D02*
X64164Y-54921D01*
X64093Y-54607D02*
X64021Y-54821D01*
X64207Y-54821D01*
X64479Y-54921D02*
X64307Y-54921D01*
X64393Y-54921D02*
X64393Y-54621D01*
X64364Y-54664D01*
X64336Y-54693D01*
X64307Y-54707D01*
X70075Y-50046D02*
X69975Y-49904D01*
X69903Y-50046D02*
X69903Y-49746D01*
X70018Y-49746D01*
X70046Y-49761D01*
X70061Y-49775D01*
X70075Y-49804D01*
X70075Y-49846D01*
X70061Y-49875D01*
X70046Y-49889D01*
X70018Y-49904D01*
X69903Y-49904D01*
X70175Y-49746D02*
X70375Y-49746D01*
X70246Y-50046D01*
X65325Y-50046D02*
X65225Y-49904D01*
X65153Y-50046D02*
X65153Y-49746D01*
X65268Y-49746D01*
X65296Y-49761D01*
X65311Y-49775D01*
X65325Y-49804D01*
X65325Y-49846D01*
X65311Y-49875D01*
X65296Y-49889D01*
X65268Y-49904D01*
X65153Y-49904D01*
X65582Y-49746D02*
X65525Y-49746D01*
X65496Y-49761D01*
X65482Y-49775D01*
X65453Y-49818D01*
X65439Y-49875D01*
X65439Y-49989D01*
X65453Y-50018D01*
X65468Y-50032D01*
X65496Y-50046D01*
X65553Y-50046D01*
X65582Y-50032D01*
X65596Y-50018D01*
X65611Y-49989D01*
X65611Y-49918D01*
X65596Y-49889D01*
X65582Y-49875D01*
X65553Y-49861D01*
X65496Y-49861D01*
X65468Y-49875D01*
X65453Y-49889D01*
X65439Y-49918D01*
X65082Y-51343D02*
X65068Y-51357D01*
X65025Y-51371D01*
X64996Y-51371D01*
X64953Y-51357D01*
X64925Y-51329D01*
X64910Y-51300D01*
X64896Y-51243D01*
X64896Y-51200D01*
X64910Y-51143D01*
X64925Y-51114D01*
X64953Y-51086D01*
X64996Y-51071D01*
X65025Y-51071D01*
X65068Y-51086D01*
X65082Y-51100D01*
X65368Y-51371D02*
X65196Y-51371D01*
X65282Y-51371D02*
X65282Y-51071D01*
X65253Y-51114D01*
X65225Y-51143D01*
X65196Y-51157D01*
X65554Y-51071D02*
X65582Y-51071D01*
X65611Y-51086D01*
X65625Y-51100D01*
X65639Y-51129D01*
X65654Y-51186D01*
X65654Y-51257D01*
X65639Y-51314D01*
X65625Y-51343D01*
X65611Y-51357D01*
X65582Y-51371D01*
X65554Y-51371D01*
X65525Y-51357D01*
X65511Y-51343D01*
X65496Y-51314D01*
X65482Y-51257D01*
X65482Y-51186D01*
X65496Y-51129D01*
X65511Y-51100D01*
X65525Y-51086D01*
X65554Y-51071D01*
X70025Y-51343D02*
X70011Y-51357D01*
X69968Y-51371D01*
X69939Y-51371D01*
X69896Y-51357D01*
X69868Y-51329D01*
X69853Y-51300D01*
X69839Y-51243D01*
X69839Y-51200D01*
X69853Y-51143D01*
X69868Y-51114D01*
X69896Y-51086D01*
X69939Y-51071D01*
X69968Y-51071D01*
X70011Y-51086D01*
X70025Y-51100D01*
X70168Y-51371D02*
X70225Y-51371D01*
X70253Y-51357D01*
X70268Y-51343D01*
X70296Y-51300D01*
X70311Y-51243D01*
X70311Y-51129D01*
X70296Y-51100D01*
X70282Y-51086D01*
X70253Y-51071D01*
X70196Y-51071D01*
X70168Y-51086D01*
X70153Y-51100D01*
X70139Y-51129D01*
X70139Y-51200D01*
X70153Y-51229D01*
X70168Y-51243D01*
X70196Y-51257D01*
X70253Y-51257D01*
X70282Y-51243D01*
X70296Y-51229D01*
X70311Y-51200D01*
X68800Y-54893D02*
X68786Y-54907D01*
X68743Y-54921D01*
X68714Y-54921D01*
X68671Y-54907D01*
X68643Y-54879D01*
X68628Y-54850D01*
X68614Y-54793D01*
X68614Y-54750D01*
X68628Y-54693D01*
X68643Y-54664D01*
X68671Y-54636D01*
X68714Y-54621D01*
X68743Y-54621D01*
X68786Y-54636D01*
X68800Y-54650D01*
X69057Y-54621D02*
X69000Y-54621D01*
X68971Y-54636D01*
X68957Y-54650D01*
X68928Y-54693D01*
X68914Y-54750D01*
X68914Y-54864D01*
X68928Y-54893D01*
X68943Y-54907D01*
X68971Y-54921D01*
X69028Y-54921D01*
X69057Y-54907D01*
X69071Y-54893D01*
X69086Y-54864D01*
X69086Y-54793D01*
X69071Y-54764D01*
X69057Y-54750D01*
X69028Y-54736D01*
X68971Y-54736D01*
X68943Y-54750D01*
X68928Y-54764D01*
X68914Y-54793D01*
X69535Y-57146D02*
X69535Y-56846D01*
X69650Y-56846D01*
X69678Y-56861D01*
X69693Y-56875D01*
X69707Y-56904D01*
X69707Y-56946D01*
X69693Y-56975D01*
X69678Y-56989D01*
X69650Y-57004D01*
X69535Y-57004D01*
X69993Y-57146D02*
X69821Y-57146D01*
X69907Y-57146D02*
X69907Y-56846D01*
X69878Y-56889D01*
X69850Y-56918D01*
X69821Y-56932D01*
X70179Y-56846D02*
X70207Y-56846D01*
X70236Y-56861D01*
X70250Y-56875D01*
X70264Y-56904D01*
X70279Y-56961D01*
X70279Y-57032D01*
X70264Y-57089D01*
X70250Y-57118D01*
X70236Y-57132D01*
X70207Y-57146D01*
X70179Y-57146D01*
X70150Y-57132D01*
X70136Y-57118D01*
X70121Y-57089D01*
X70107Y-57032D01*
X70107Y-56961D01*
X70121Y-56904D01*
X70136Y-56875D01*
X70150Y-56861D01*
X70179Y-56846D01*
X69493Y-59796D02*
X69493Y-59496D01*
X69593Y-59711D01*
X69693Y-59496D01*
X69693Y-59796D01*
X69894Y-59496D02*
X69951Y-59496D01*
X69979Y-59511D01*
X70008Y-59539D01*
X70022Y-59596D01*
X70022Y-59696D01*
X70008Y-59754D01*
X69979Y-59782D01*
X69951Y-59796D01*
X69894Y-59796D01*
X69865Y-59782D01*
X69836Y-59754D01*
X69822Y-59696D01*
X69822Y-59596D01*
X69836Y-59539D01*
X69865Y-59511D01*
X69894Y-59496D01*
X70150Y-59796D02*
X70150Y-59496D01*
X70222Y-59496D01*
X70265Y-59511D01*
X70293Y-59539D01*
X70308Y-59568D01*
X70322Y-59625D01*
X70322Y-59668D01*
X70308Y-59725D01*
X70293Y-59754D01*
X70265Y-59782D01*
X70222Y-59796D01*
X70150Y-59796D01*
X21275Y-54879D02*
X21261Y-54907D01*
X21232Y-54936D01*
X21189Y-54979D01*
X21175Y-55007D01*
X21175Y-55036D01*
X21246Y-55021D02*
X21232Y-55050D01*
X21204Y-55079D01*
X21146Y-55093D01*
X21046Y-55093D01*
X20989Y-55079D01*
X20961Y-55050D01*
X20946Y-55021D01*
X20946Y-54964D01*
X20961Y-54936D01*
X20989Y-54907D01*
X21046Y-54893D01*
X21146Y-54893D01*
X21204Y-54907D01*
X21232Y-54936D01*
X21246Y-54964D01*
X21246Y-55021D01*
X21246Y-54607D02*
X21246Y-54779D01*
X21246Y-54693D02*
X20946Y-54693D01*
X20989Y-54722D01*
X21018Y-54750D01*
X21032Y-54779D01*
X23171Y-55236D02*
X22871Y-55236D01*
X22871Y-55121D01*
X22886Y-55093D01*
X22900Y-55078D01*
X22929Y-55064D01*
X22971Y-55064D01*
X23000Y-55078D01*
X23014Y-55093D01*
X23029Y-55121D01*
X23029Y-55236D01*
X23171Y-54936D02*
X22871Y-54936D01*
X23171Y-54764D01*
X22871Y-54764D01*
X23171Y-54622D02*
X22871Y-54622D01*
X22871Y-54507D01*
X22886Y-54479D01*
X22900Y-54464D01*
X22929Y-54450D01*
X22971Y-54450D01*
X23000Y-54464D01*
X23014Y-54479D01*
X23029Y-54507D01*
X23029Y-54622D01*
X26171Y-30622D02*
X25871Y-30622D01*
X25871Y-30550D01*
X25886Y-30507D01*
X25914Y-30479D01*
X25943Y-30464D01*
X26000Y-30450D01*
X26043Y-30450D01*
X26100Y-30464D01*
X26129Y-30479D01*
X26157Y-30507D01*
X26171Y-30550D01*
X26171Y-30622D01*
X26171Y-30164D02*
X26171Y-30336D01*
X26171Y-30250D02*
X25871Y-30250D01*
X25914Y-30279D01*
X25943Y-30307D01*
X25957Y-30336D01*
X22171Y-30622D02*
X21871Y-30622D01*
X21871Y-30550D01*
X21886Y-30507D01*
X21914Y-30479D01*
X21943Y-30464D01*
X22000Y-30450D01*
X22043Y-30450D01*
X22100Y-30464D01*
X22129Y-30479D01*
X22157Y-30507D01*
X22171Y-30550D01*
X22171Y-30622D01*
X21900Y-30336D02*
X21886Y-30322D01*
X21871Y-30293D01*
X21871Y-30222D01*
X21886Y-30193D01*
X21900Y-30179D01*
X21929Y-30164D01*
X21957Y-30164D01*
X22000Y-30179D01*
X22171Y-30350D01*
X22171Y-30164D01*
X18171Y-30622D02*
X17871Y-30622D01*
X17871Y-30550D01*
X17886Y-30507D01*
X17914Y-30479D01*
X17943Y-30464D01*
X18000Y-30450D01*
X18043Y-30450D01*
X18100Y-30464D01*
X18129Y-30479D01*
X18157Y-30507D01*
X18171Y-30550D01*
X18171Y-30622D01*
X17871Y-30350D02*
X17871Y-30164D01*
X17986Y-30264D01*
X17986Y-30222D01*
X18000Y-30193D01*
X18014Y-30179D01*
X18043Y-30164D01*
X18114Y-30164D01*
X18143Y-30179D01*
X18157Y-30193D01*
X18171Y-30222D01*
X18171Y-30307D01*
X18157Y-30336D01*
X18143Y-30350D01*
X17171Y-34622D02*
X16871Y-34622D01*
X16871Y-34550D01*
X16886Y-34507D01*
X16914Y-34479D01*
X16943Y-34464D01*
X17000Y-34450D01*
X17043Y-34450D01*
X17100Y-34464D01*
X17129Y-34479D01*
X17157Y-34507D01*
X17171Y-34550D01*
X17171Y-34622D01*
X16971Y-34193D02*
X17171Y-34193D01*
X16857Y-34264D02*
X17071Y-34336D01*
X17071Y-34150D01*
X17171Y-38622D02*
X16871Y-38622D01*
X16871Y-38550D01*
X16886Y-38507D01*
X16914Y-38479D01*
X16943Y-38464D01*
X17000Y-38450D01*
X17043Y-38450D01*
X17100Y-38464D01*
X17129Y-38479D01*
X17157Y-38507D01*
X17171Y-38550D01*
X17171Y-38622D01*
X16871Y-38179D02*
X16871Y-38322D01*
X17014Y-38336D01*
X17000Y-38322D01*
X16986Y-38293D01*
X16986Y-38222D01*
X17000Y-38193D01*
X17014Y-38179D01*
X17043Y-38164D01*
X17114Y-38164D01*
X17143Y-38179D01*
X17157Y-38193D01*
X17171Y-38222D01*
X17171Y-38293D01*
X17157Y-38322D01*
X17143Y-38336D01*
X17171Y-42622D02*
X16871Y-42622D01*
X16871Y-42550D01*
X16886Y-42507D01*
X16914Y-42479D01*
X16943Y-42464D01*
X17000Y-42450D01*
X17043Y-42450D01*
X17100Y-42464D01*
X17129Y-42479D01*
X17157Y-42507D01*
X17171Y-42550D01*
X17171Y-42622D01*
X16871Y-42193D02*
X16871Y-42250D01*
X16886Y-42279D01*
X16900Y-42293D01*
X16943Y-42322D01*
X17000Y-42336D01*
X17114Y-42336D01*
X17143Y-42322D01*
X17157Y-42307D01*
X17171Y-42279D01*
X17171Y-42222D01*
X17157Y-42193D01*
X17143Y-42179D01*
X17114Y-42164D01*
X17043Y-42164D01*
X17014Y-42179D01*
X17000Y-42193D01*
X16986Y-42222D01*
X16986Y-42279D01*
X17000Y-42307D01*
X17014Y-42322D01*
X17043Y-42336D01*
X17171Y-46622D02*
X16871Y-46622D01*
X16871Y-46550D01*
X16886Y-46507D01*
X16914Y-46479D01*
X16943Y-46464D01*
X17000Y-46450D01*
X17043Y-46450D01*
X17100Y-46464D01*
X17129Y-46479D01*
X17157Y-46507D01*
X17171Y-46550D01*
X17171Y-46622D01*
X16871Y-46350D02*
X16871Y-46150D01*
X17171Y-46279D01*
X17171Y-50622D02*
X16871Y-50622D01*
X16871Y-50550D01*
X16886Y-50507D01*
X16914Y-50479D01*
X16943Y-50464D01*
X17000Y-50450D01*
X17043Y-50450D01*
X17100Y-50464D01*
X17129Y-50479D01*
X17157Y-50507D01*
X17171Y-50550D01*
X17171Y-50622D01*
X17000Y-50279D02*
X16986Y-50307D01*
X16971Y-50322D01*
X16943Y-50336D01*
X16929Y-50336D01*
X16900Y-50322D01*
X16886Y-50307D01*
X16871Y-50279D01*
X16871Y-50222D01*
X16886Y-50193D01*
X16900Y-50179D01*
X16929Y-50164D01*
X16943Y-50164D01*
X16971Y-50179D01*
X16986Y-50193D01*
X17000Y-50222D01*
X17000Y-50279D01*
X17014Y-50307D01*
X17029Y-50322D01*
X17057Y-50336D01*
X17114Y-50336D01*
X17143Y-50322D01*
X17157Y-50307D01*
X17171Y-50279D01*
X17171Y-50222D01*
X17157Y-50193D01*
X17143Y-50179D01*
X17114Y-50164D01*
X17057Y-50164D01*
X17029Y-50179D01*
X17014Y-50193D01*
X17000Y-50222D01*
X24921Y-52872D02*
X24621Y-52872D01*
X24621Y-52800D01*
X24636Y-52757D01*
X24664Y-52729D01*
X24693Y-52714D01*
X24750Y-52700D01*
X24793Y-52700D01*
X24850Y-52714D01*
X24879Y-52729D01*
X24907Y-52757D01*
X24921Y-52800D01*
X24921Y-52872D01*
X24921Y-52557D02*
X24921Y-52500D01*
X24907Y-52472D01*
X24893Y-52457D01*
X24850Y-52429D01*
X24793Y-52414D01*
X24679Y-52414D01*
X24650Y-52429D01*
X24636Y-52443D01*
X24621Y-52472D01*
X24621Y-52529D01*
X24636Y-52557D01*
X24650Y-52572D01*
X24679Y-52586D01*
X24750Y-52586D01*
X24779Y-52572D01*
X24793Y-52557D01*
X24807Y-52529D01*
X24807Y-52472D01*
X24793Y-52443D01*
X24779Y-52429D01*
X24750Y-52414D01*
X39921Y-53015D02*
X39621Y-53015D01*
X39621Y-52943D01*
X39636Y-52900D01*
X39664Y-52872D01*
X39693Y-52857D01*
X39750Y-52843D01*
X39793Y-52843D01*
X39850Y-52857D01*
X39879Y-52872D01*
X39907Y-52900D01*
X39921Y-52943D01*
X39921Y-53015D01*
X39921Y-52557D02*
X39921Y-52729D01*
X39921Y-52643D02*
X39621Y-52643D01*
X39664Y-52672D01*
X39693Y-52700D01*
X39707Y-52729D01*
X39621Y-52371D02*
X39621Y-52343D01*
X39636Y-52314D01*
X39650Y-52300D01*
X39679Y-52286D01*
X39736Y-52271D01*
X39807Y-52271D01*
X39864Y-52286D01*
X39893Y-52300D01*
X39907Y-52314D01*
X39921Y-52343D01*
X39921Y-52371D01*
X39907Y-52400D01*
X39893Y-52414D01*
X39864Y-52429D01*
X39807Y-52443D01*
X39736Y-52443D01*
X39679Y-52429D01*
X39650Y-52414D01*
X39636Y-52400D01*
X39621Y-52371D01*
X24921Y-37015D02*
X24621Y-37015D01*
X24621Y-36943D01*
X24636Y-36900D01*
X24664Y-36872D01*
X24693Y-36857D01*
X24750Y-36843D01*
X24793Y-36843D01*
X24850Y-36857D01*
X24879Y-36872D01*
X24907Y-36900D01*
X24921Y-36943D01*
X24921Y-37015D01*
X24921Y-36557D02*
X24921Y-36729D01*
X24921Y-36643D02*
X24621Y-36643D01*
X24664Y-36672D01*
X24693Y-36700D01*
X24707Y-36729D01*
X24921Y-36271D02*
X24921Y-36443D01*
X24921Y-36357D02*
X24621Y-36357D01*
X24664Y-36386D01*
X24693Y-36414D01*
X24707Y-36443D01*
X24921Y-41015D02*
X24621Y-41015D01*
X24621Y-40943D01*
X24636Y-40900D01*
X24664Y-40872D01*
X24693Y-40857D01*
X24750Y-40843D01*
X24793Y-40843D01*
X24850Y-40857D01*
X24879Y-40872D01*
X24907Y-40900D01*
X24921Y-40943D01*
X24921Y-41015D01*
X24921Y-40557D02*
X24921Y-40729D01*
X24921Y-40643D02*
X24621Y-40643D01*
X24664Y-40672D01*
X24693Y-40700D01*
X24707Y-40729D01*
X24650Y-40443D02*
X24636Y-40429D01*
X24621Y-40400D01*
X24621Y-40329D01*
X24636Y-40300D01*
X24650Y-40286D01*
X24679Y-40271D01*
X24707Y-40271D01*
X24750Y-40286D01*
X24921Y-40457D01*
X24921Y-40271D01*
X24921Y-45015D02*
X24621Y-45015D01*
X24621Y-44943D01*
X24636Y-44900D01*
X24664Y-44872D01*
X24693Y-44857D01*
X24750Y-44843D01*
X24793Y-44843D01*
X24850Y-44857D01*
X24879Y-44872D01*
X24907Y-44900D01*
X24921Y-44943D01*
X24921Y-45015D01*
X24921Y-44557D02*
X24921Y-44729D01*
X24921Y-44643D02*
X24621Y-44643D01*
X24664Y-44672D01*
X24693Y-44700D01*
X24707Y-44729D01*
X24621Y-44457D02*
X24621Y-44271D01*
X24736Y-44371D01*
X24736Y-44329D01*
X24750Y-44300D01*
X24764Y-44286D01*
X24793Y-44271D01*
X24864Y-44271D01*
X24893Y-44286D01*
X24907Y-44300D01*
X24921Y-44329D01*
X24921Y-44414D01*
X24907Y-44443D01*
X24893Y-44457D01*
X24921Y-49015D02*
X24621Y-49015D01*
X24621Y-48943D01*
X24636Y-48900D01*
X24664Y-48872D01*
X24693Y-48857D01*
X24750Y-48843D01*
X24793Y-48843D01*
X24850Y-48857D01*
X24879Y-48872D01*
X24907Y-48900D01*
X24921Y-48943D01*
X24921Y-49015D01*
X24921Y-48557D02*
X24921Y-48729D01*
X24921Y-48643D02*
X24621Y-48643D01*
X24664Y-48672D01*
X24693Y-48700D01*
X24707Y-48729D01*
X24721Y-48300D02*
X24921Y-48300D01*
X24607Y-48371D02*
X24821Y-48443D01*
X24821Y-48257D01*
X39921Y-37015D02*
X39621Y-37015D01*
X39621Y-36943D01*
X39636Y-36900D01*
X39664Y-36872D01*
X39693Y-36857D01*
X39750Y-36843D01*
X39793Y-36843D01*
X39850Y-36857D01*
X39879Y-36872D01*
X39907Y-36900D01*
X39921Y-36943D01*
X39921Y-37015D01*
X39921Y-36557D02*
X39921Y-36729D01*
X39921Y-36643D02*
X39621Y-36643D01*
X39664Y-36672D01*
X39693Y-36700D01*
X39707Y-36729D01*
X39621Y-36286D02*
X39621Y-36429D01*
X39764Y-36443D01*
X39750Y-36429D01*
X39736Y-36400D01*
X39736Y-36329D01*
X39750Y-36300D01*
X39764Y-36286D01*
X39793Y-36271D01*
X39864Y-36271D01*
X39893Y-36286D01*
X39907Y-36300D01*
X39921Y-36329D01*
X39921Y-36400D01*
X39907Y-36429D01*
X39893Y-36443D01*
X39921Y-41015D02*
X39621Y-41015D01*
X39621Y-40943D01*
X39636Y-40900D01*
X39664Y-40872D01*
X39693Y-40857D01*
X39750Y-40843D01*
X39793Y-40843D01*
X39850Y-40857D01*
X39879Y-40872D01*
X39907Y-40900D01*
X39921Y-40943D01*
X39921Y-41015D01*
X39921Y-40557D02*
X39921Y-40729D01*
X39921Y-40643D02*
X39621Y-40643D01*
X39664Y-40672D01*
X39693Y-40700D01*
X39707Y-40729D01*
X39621Y-40300D02*
X39621Y-40357D01*
X39636Y-40386D01*
X39650Y-40400D01*
X39693Y-40429D01*
X39750Y-40443D01*
X39864Y-40443D01*
X39893Y-40429D01*
X39907Y-40414D01*
X39921Y-40386D01*
X39921Y-40329D01*
X39907Y-40300D01*
X39893Y-40286D01*
X39864Y-40271D01*
X39793Y-40271D01*
X39764Y-40286D01*
X39750Y-40300D01*
X39736Y-40329D01*
X39736Y-40386D01*
X39750Y-40414D01*
X39764Y-40429D01*
X39793Y-40443D01*
X39921Y-45015D02*
X39621Y-45015D01*
X39621Y-44943D01*
X39636Y-44900D01*
X39664Y-44872D01*
X39693Y-44857D01*
X39750Y-44843D01*
X39793Y-44843D01*
X39850Y-44857D01*
X39879Y-44872D01*
X39907Y-44900D01*
X39921Y-44943D01*
X39921Y-45015D01*
X39921Y-44557D02*
X39921Y-44729D01*
X39921Y-44643D02*
X39621Y-44643D01*
X39664Y-44672D01*
X39693Y-44700D01*
X39707Y-44729D01*
X39621Y-44457D02*
X39621Y-44257D01*
X39921Y-44386D01*
X39921Y-49015D02*
X39621Y-49015D01*
X39621Y-48943D01*
X39636Y-48900D01*
X39664Y-48872D01*
X39693Y-48857D01*
X39750Y-48843D01*
X39793Y-48843D01*
X39850Y-48857D01*
X39879Y-48872D01*
X39907Y-48900D01*
X39921Y-48943D01*
X39921Y-49015D01*
X39921Y-48557D02*
X39921Y-48729D01*
X39921Y-48643D02*
X39621Y-48643D01*
X39664Y-48672D01*
X39693Y-48700D01*
X39707Y-48729D01*
X39750Y-48386D02*
X39736Y-48414D01*
X39721Y-48429D01*
X39693Y-48443D01*
X39679Y-48443D01*
X39650Y-48429D01*
X39636Y-48414D01*
X39621Y-48386D01*
X39621Y-48329D01*
X39636Y-48300D01*
X39650Y-48286D01*
X39679Y-48271D01*
X39693Y-48271D01*
X39721Y-48286D01*
X39736Y-48300D01*
X39750Y-48329D01*
X39750Y-48386D01*
X39764Y-48414D01*
X39779Y-48429D01*
X39807Y-48443D01*
X39864Y-48443D01*
X39893Y-48429D01*
X39907Y-48414D01*
X39921Y-48386D01*
X39921Y-48329D01*
X39907Y-48300D01*
X39893Y-48286D01*
X39864Y-48271D01*
X39807Y-48271D01*
X39779Y-48286D01*
X39764Y-48300D01*
X39750Y-48329D01*
X47421Y-40215D02*
X47121Y-40215D01*
X47121Y-40143D01*
X47136Y-40100D01*
X47164Y-40072D01*
X47193Y-40057D01*
X47250Y-40043D01*
X47293Y-40043D01*
X47350Y-40057D01*
X47379Y-40072D01*
X47407Y-40100D01*
X47421Y-40143D01*
X47421Y-40215D01*
X47421Y-39757D02*
X47421Y-39929D01*
X47421Y-39843D02*
X47121Y-39843D01*
X47164Y-39872D01*
X47193Y-39900D01*
X47207Y-39929D01*
X47421Y-39614D02*
X47421Y-39557D01*
X47407Y-39529D01*
X47393Y-39514D01*
X47350Y-39486D01*
X47293Y-39471D01*
X47179Y-39471D01*
X47150Y-39486D01*
X47136Y-39500D01*
X47121Y-39529D01*
X47121Y-39586D01*
X47136Y-39614D01*
X47150Y-39629D01*
X47179Y-39643D01*
X47250Y-39643D01*
X47279Y-39629D01*
X47293Y-39614D01*
X47307Y-39586D01*
X47307Y-39529D01*
X47293Y-39500D01*
X47279Y-39486D01*
X47250Y-39471D01*
X47421Y-44215D02*
X47121Y-44215D01*
X47121Y-44143D01*
X47136Y-44100D01*
X47164Y-44072D01*
X47193Y-44057D01*
X47250Y-44043D01*
X47293Y-44043D01*
X47350Y-44057D01*
X47379Y-44072D01*
X47407Y-44100D01*
X47421Y-44143D01*
X47421Y-44215D01*
X47150Y-43929D02*
X47136Y-43915D01*
X47121Y-43886D01*
X47121Y-43815D01*
X47136Y-43786D01*
X47150Y-43772D01*
X47179Y-43757D01*
X47207Y-43757D01*
X47250Y-43772D01*
X47421Y-43943D01*
X47421Y-43757D01*
X47121Y-43571D02*
X47121Y-43543D01*
X47136Y-43514D01*
X47150Y-43500D01*
X47179Y-43486D01*
X47236Y-43471D01*
X47307Y-43471D01*
X47364Y-43486D01*
X47393Y-43500D01*
X47407Y-43514D01*
X47421Y-43543D01*
X47421Y-43571D01*
X47407Y-43600D01*
X47393Y-43614D01*
X47364Y-43629D01*
X47307Y-43643D01*
X47236Y-43643D01*
X47179Y-43629D01*
X47150Y-43614D01*
X47136Y-43600D01*
X47121Y-43571D01*
X47421Y-48215D02*
X47121Y-48215D01*
X47121Y-48143D01*
X47136Y-48100D01*
X47164Y-48072D01*
X47193Y-48057D01*
X47250Y-48043D01*
X47293Y-48043D01*
X47350Y-48057D01*
X47379Y-48072D01*
X47407Y-48100D01*
X47421Y-48143D01*
X47421Y-48215D01*
X47150Y-47929D02*
X47136Y-47915D01*
X47121Y-47886D01*
X47121Y-47815D01*
X47136Y-47786D01*
X47150Y-47772D01*
X47179Y-47757D01*
X47207Y-47757D01*
X47250Y-47772D01*
X47421Y-47943D01*
X47421Y-47757D01*
X47421Y-47471D02*
X47421Y-47643D01*
X47421Y-47557D02*
X47121Y-47557D01*
X47164Y-47586D01*
X47193Y-47614D01*
X47207Y-47643D01*
X47421Y-52215D02*
X47121Y-52215D01*
X47121Y-52143D01*
X47136Y-52100D01*
X47164Y-52072D01*
X47193Y-52057D01*
X47250Y-52043D01*
X47293Y-52043D01*
X47350Y-52057D01*
X47379Y-52072D01*
X47407Y-52100D01*
X47421Y-52143D01*
X47421Y-52215D01*
X47150Y-51929D02*
X47136Y-51915D01*
X47121Y-51886D01*
X47121Y-51815D01*
X47136Y-51786D01*
X47150Y-51772D01*
X47179Y-51757D01*
X47207Y-51757D01*
X47250Y-51772D01*
X47421Y-51943D01*
X47421Y-51757D01*
X47150Y-51643D02*
X47136Y-51629D01*
X47121Y-51600D01*
X47121Y-51529D01*
X47136Y-51500D01*
X47150Y-51486D01*
X47179Y-51471D01*
X47207Y-51471D01*
X47250Y-51486D01*
X47421Y-51657D01*
X47421Y-51471D01*
X32421Y-14515D02*
X32121Y-14515D01*
X32121Y-14443D01*
X32136Y-14400D01*
X32164Y-14372D01*
X32193Y-14357D01*
X32250Y-14343D01*
X32293Y-14343D01*
X32350Y-14357D01*
X32379Y-14372D01*
X32407Y-14400D01*
X32421Y-14443D01*
X32421Y-14515D01*
X32221Y-14086D02*
X32421Y-14086D01*
X32107Y-14157D02*
X32321Y-14229D01*
X32321Y-14043D01*
X32121Y-13800D02*
X32121Y-13857D01*
X32136Y-13886D01*
X32150Y-13900D01*
X32193Y-13929D01*
X32250Y-13943D01*
X32364Y-13943D01*
X32393Y-13929D01*
X32407Y-13914D01*
X32421Y-13886D01*
X32421Y-13829D01*
X32407Y-13800D01*
X32393Y-13786D01*
X32364Y-13771D01*
X32293Y-13771D01*
X32264Y-13786D01*
X32250Y-13800D01*
X32236Y-13829D01*
X32236Y-13886D01*
X32250Y-13914D01*
X32264Y-13929D01*
X32293Y-13943D01*
X32421Y-18515D02*
X32121Y-18515D01*
X32121Y-18443D01*
X32136Y-18400D01*
X32164Y-18372D01*
X32193Y-18357D01*
X32250Y-18343D01*
X32293Y-18343D01*
X32350Y-18357D01*
X32379Y-18372D01*
X32407Y-18400D01*
X32421Y-18443D01*
X32421Y-18515D01*
X32221Y-18086D02*
X32421Y-18086D01*
X32107Y-18157D02*
X32321Y-18229D01*
X32321Y-18043D01*
X32250Y-17886D02*
X32236Y-17914D01*
X32221Y-17929D01*
X32193Y-17943D01*
X32179Y-17943D01*
X32150Y-17929D01*
X32136Y-17914D01*
X32121Y-17886D01*
X32121Y-17829D01*
X32136Y-17800D01*
X32150Y-17786D01*
X32179Y-17771D01*
X32193Y-17771D01*
X32221Y-17786D01*
X32236Y-17800D01*
X32250Y-17829D01*
X32250Y-17886D01*
X32264Y-17914D01*
X32279Y-17929D01*
X32307Y-17943D01*
X32364Y-17943D01*
X32393Y-17929D01*
X32407Y-17914D01*
X32421Y-17886D01*
X32421Y-17829D01*
X32407Y-17800D01*
X32393Y-17786D01*
X32364Y-17771D01*
X32307Y-17771D01*
X32279Y-17786D01*
X32264Y-17800D01*
X32250Y-17829D01*
X32421Y-22515D02*
X32121Y-22515D01*
X32121Y-22443D01*
X32136Y-22400D01*
X32164Y-22372D01*
X32193Y-22357D01*
X32250Y-22343D01*
X32293Y-22343D01*
X32350Y-22357D01*
X32379Y-22372D01*
X32407Y-22400D01*
X32421Y-22443D01*
X32421Y-22515D01*
X32121Y-22072D02*
X32121Y-22215D01*
X32264Y-22229D01*
X32250Y-22215D01*
X32236Y-22186D01*
X32236Y-22115D01*
X32250Y-22086D01*
X32264Y-22072D01*
X32293Y-22057D01*
X32364Y-22057D01*
X32393Y-22072D01*
X32407Y-22086D01*
X32421Y-22115D01*
X32421Y-22186D01*
X32407Y-22215D01*
X32393Y-22229D01*
X32121Y-21871D02*
X32121Y-21843D01*
X32136Y-21814D01*
X32150Y-21800D01*
X32179Y-21786D01*
X32236Y-21771D01*
X32307Y-21771D01*
X32364Y-21786D01*
X32393Y-21800D01*
X32407Y-21814D01*
X32421Y-21843D01*
X32421Y-21871D01*
X32407Y-21900D01*
X32393Y-21914D01*
X32364Y-21929D01*
X32307Y-21943D01*
X32236Y-21943D01*
X32179Y-21929D01*
X32150Y-21914D01*
X32136Y-21900D01*
X32121Y-21871D01*
X32421Y-26515D02*
X32121Y-26515D01*
X32121Y-26443D01*
X32136Y-26400D01*
X32164Y-26372D01*
X32193Y-26357D01*
X32250Y-26343D01*
X32293Y-26343D01*
X32350Y-26357D01*
X32379Y-26372D01*
X32407Y-26400D01*
X32421Y-26443D01*
X32421Y-26515D01*
X32121Y-26072D02*
X32121Y-26215D01*
X32264Y-26229D01*
X32250Y-26215D01*
X32236Y-26186D01*
X32236Y-26115D01*
X32250Y-26086D01*
X32264Y-26072D01*
X32293Y-26057D01*
X32364Y-26057D01*
X32393Y-26072D01*
X32407Y-26086D01*
X32421Y-26115D01*
X32421Y-26186D01*
X32407Y-26215D01*
X32393Y-26229D01*
X32150Y-25943D02*
X32136Y-25929D01*
X32121Y-25900D01*
X32121Y-25829D01*
X32136Y-25800D01*
X32150Y-25786D01*
X32179Y-25771D01*
X32207Y-25771D01*
X32250Y-25786D01*
X32421Y-25957D01*
X32421Y-25771D01*
X32421Y-30515D02*
X32121Y-30515D01*
X32121Y-30443D01*
X32136Y-30400D01*
X32164Y-30372D01*
X32193Y-30357D01*
X32250Y-30343D01*
X32293Y-30343D01*
X32350Y-30357D01*
X32379Y-30372D01*
X32407Y-30400D01*
X32421Y-30443D01*
X32421Y-30515D01*
X32121Y-30072D02*
X32121Y-30215D01*
X32264Y-30229D01*
X32250Y-30215D01*
X32236Y-30186D01*
X32236Y-30115D01*
X32250Y-30086D01*
X32264Y-30072D01*
X32293Y-30057D01*
X32364Y-30057D01*
X32393Y-30072D01*
X32407Y-30086D01*
X32421Y-30115D01*
X32421Y-30186D01*
X32407Y-30215D01*
X32393Y-30229D01*
X32221Y-29800D02*
X32421Y-29800D01*
X32107Y-29871D02*
X32321Y-29943D01*
X32321Y-29757D01*
X32321Y-34515D02*
X32021Y-34515D01*
X32021Y-34443D01*
X32036Y-34400D01*
X32064Y-34372D01*
X32093Y-34357D01*
X32150Y-34343D01*
X32193Y-34343D01*
X32250Y-34357D01*
X32279Y-34372D01*
X32307Y-34400D01*
X32321Y-34443D01*
X32321Y-34515D01*
X32021Y-34072D02*
X32021Y-34215D01*
X32164Y-34229D01*
X32150Y-34215D01*
X32136Y-34186D01*
X32136Y-34115D01*
X32150Y-34086D01*
X32164Y-34072D01*
X32193Y-34057D01*
X32264Y-34057D01*
X32293Y-34072D01*
X32307Y-34086D01*
X32321Y-34115D01*
X32321Y-34186D01*
X32307Y-34215D01*
X32293Y-34229D01*
X32021Y-33800D02*
X32021Y-33857D01*
X32036Y-33886D01*
X32050Y-33900D01*
X32093Y-33929D01*
X32150Y-33943D01*
X32264Y-33943D01*
X32293Y-33929D01*
X32307Y-33914D01*
X32321Y-33886D01*
X32321Y-33829D01*
X32307Y-33800D01*
X32293Y-33786D01*
X32264Y-33771D01*
X32193Y-33771D01*
X32164Y-33786D01*
X32150Y-33800D01*
X32136Y-33829D01*
X32136Y-33886D01*
X32150Y-33914D01*
X32164Y-33929D01*
X32193Y-33943D01*
X32431Y-38515D02*
X32131Y-38515D01*
X32131Y-38443D01*
X32146Y-38400D01*
X32174Y-38372D01*
X32203Y-38357D01*
X32260Y-38343D01*
X32303Y-38343D01*
X32360Y-38357D01*
X32389Y-38372D01*
X32417Y-38400D01*
X32431Y-38443D01*
X32431Y-38515D01*
X32131Y-38072D02*
X32131Y-38215D01*
X32274Y-38229D01*
X32260Y-38215D01*
X32246Y-38186D01*
X32246Y-38115D01*
X32260Y-38086D01*
X32274Y-38072D01*
X32303Y-38057D01*
X32374Y-38057D01*
X32403Y-38072D01*
X32417Y-38086D01*
X32431Y-38115D01*
X32431Y-38186D01*
X32417Y-38215D01*
X32403Y-38229D01*
X32260Y-37886D02*
X32246Y-37914D01*
X32231Y-37929D01*
X32203Y-37943D01*
X32189Y-37943D01*
X32160Y-37929D01*
X32146Y-37914D01*
X32131Y-37886D01*
X32131Y-37829D01*
X32146Y-37800D01*
X32160Y-37786D01*
X32189Y-37771D01*
X32203Y-37771D01*
X32231Y-37786D01*
X32246Y-37800D01*
X32260Y-37829D01*
X32260Y-37886D01*
X32274Y-37914D01*
X32289Y-37929D01*
X32317Y-37943D01*
X32374Y-37943D01*
X32403Y-37929D01*
X32417Y-37914D01*
X32431Y-37886D01*
X32431Y-37829D01*
X32417Y-37800D01*
X32403Y-37786D01*
X32374Y-37771D01*
X32317Y-37771D01*
X32289Y-37786D01*
X32274Y-37800D01*
X32260Y-37829D01*
X32431Y-42515D02*
X32131Y-42515D01*
X32131Y-42443D01*
X32146Y-42400D01*
X32174Y-42372D01*
X32203Y-42357D01*
X32260Y-42343D01*
X32303Y-42343D01*
X32360Y-42357D01*
X32389Y-42372D01*
X32417Y-42400D01*
X32431Y-42443D01*
X32431Y-42515D01*
X32131Y-42086D02*
X32131Y-42143D01*
X32146Y-42172D01*
X32160Y-42186D01*
X32203Y-42215D01*
X32260Y-42229D01*
X32374Y-42229D01*
X32403Y-42215D01*
X32417Y-42200D01*
X32431Y-42172D01*
X32431Y-42115D01*
X32417Y-42086D01*
X32403Y-42072D01*
X32374Y-42057D01*
X32303Y-42057D01*
X32274Y-42072D01*
X32260Y-42086D01*
X32246Y-42115D01*
X32246Y-42172D01*
X32260Y-42200D01*
X32274Y-42215D01*
X32303Y-42229D01*
X32131Y-41871D02*
X32131Y-41843D01*
X32146Y-41814D01*
X32160Y-41800D01*
X32189Y-41786D01*
X32246Y-41771D01*
X32317Y-41771D01*
X32374Y-41786D01*
X32403Y-41800D01*
X32417Y-41814D01*
X32431Y-41843D01*
X32431Y-41871D01*
X32417Y-41900D01*
X32403Y-41914D01*
X32374Y-41929D01*
X32317Y-41943D01*
X32246Y-41943D01*
X32189Y-41929D01*
X32160Y-41914D01*
X32146Y-41900D01*
X32131Y-41871D01*
X38446Y-13722D02*
X38146Y-13722D01*
X38146Y-13607D01*
X38161Y-13579D01*
X38175Y-13564D01*
X38204Y-13550D01*
X38246Y-13550D01*
X38275Y-13564D01*
X38289Y-13579D01*
X38304Y-13607D01*
X38304Y-13722D01*
X38146Y-13279D02*
X38146Y-13422D01*
X38289Y-13436D01*
X38275Y-13422D01*
X38261Y-13393D01*
X38261Y-13322D01*
X38275Y-13293D01*
X38289Y-13279D01*
X38318Y-13264D01*
X38389Y-13264D01*
X38418Y-13279D01*
X38432Y-13293D01*
X38446Y-13322D01*
X38446Y-13393D01*
X38432Y-13422D01*
X38418Y-13436D01*
X38446Y-14722D02*
X38146Y-14722D01*
X38146Y-14607D01*
X38161Y-14579D01*
X38175Y-14564D01*
X38204Y-14550D01*
X38246Y-14550D01*
X38275Y-14564D01*
X38289Y-14579D01*
X38304Y-14607D01*
X38304Y-14722D01*
X38146Y-14293D02*
X38146Y-14350D01*
X38161Y-14379D01*
X38175Y-14393D01*
X38218Y-14422D01*
X38275Y-14436D01*
X38389Y-14436D01*
X38418Y-14422D01*
X38432Y-14407D01*
X38446Y-14379D01*
X38446Y-14322D01*
X38432Y-14293D01*
X38418Y-14279D01*
X38389Y-14264D01*
X38318Y-14264D01*
X38289Y-14279D01*
X38275Y-14293D01*
X38261Y-14322D01*
X38261Y-14379D01*
X38275Y-14407D01*
X38289Y-14422D01*
X38318Y-14436D01*
X37475Y-44743D02*
X37461Y-44757D01*
X37418Y-44771D01*
X37389Y-44771D01*
X37346Y-44757D01*
X37318Y-44729D01*
X37303Y-44700D01*
X37289Y-44643D01*
X37289Y-44600D01*
X37303Y-44543D01*
X37318Y-44514D01*
X37346Y-44486D01*
X37389Y-44471D01*
X37418Y-44471D01*
X37461Y-44486D01*
X37475Y-44500D01*
X37589Y-44500D02*
X37603Y-44486D01*
X37632Y-44471D01*
X37703Y-44471D01*
X37732Y-44486D01*
X37746Y-44500D01*
X37761Y-44529D01*
X37761Y-44557D01*
X37746Y-44600D01*
X37575Y-44771D01*
X37761Y-44771D01*
X41375Y-57843D02*
X41361Y-57857D01*
X41318Y-57871D01*
X41289Y-57871D01*
X41246Y-57857D01*
X41218Y-57829D01*
X41203Y-57800D01*
X41189Y-57743D01*
X41189Y-57700D01*
X41203Y-57643D01*
X41218Y-57614D01*
X41246Y-57586D01*
X41289Y-57571D01*
X41318Y-57571D01*
X41361Y-57586D01*
X41375Y-57600D01*
X41661Y-57871D02*
X41489Y-57871D01*
X41575Y-57871D02*
X41575Y-57571D01*
X41546Y-57614D01*
X41518Y-57643D01*
X41489Y-57657D01*
X50507Y-51046D02*
X50407Y-50904D01*
X50335Y-51046D02*
X50335Y-50746D01*
X50450Y-50746D01*
X50478Y-50761D01*
X50493Y-50775D01*
X50507Y-50804D01*
X50507Y-50846D01*
X50493Y-50875D01*
X50478Y-50889D01*
X50450Y-50904D01*
X50335Y-50904D01*
X50793Y-51046D02*
X50621Y-51046D01*
X50707Y-51046D02*
X50707Y-50746D01*
X50678Y-50789D01*
X50650Y-50818D01*
X50621Y-50832D01*
X50964Y-50875D02*
X50936Y-50861D01*
X50921Y-50846D01*
X50907Y-50818D01*
X50907Y-50804D01*
X50921Y-50775D01*
X50936Y-50761D01*
X50964Y-50746D01*
X51021Y-50746D01*
X51050Y-50761D01*
X51064Y-50775D01*
X51079Y-50804D01*
X51079Y-50818D01*
X51064Y-50846D01*
X51050Y-50861D01*
X51021Y-50875D01*
X50964Y-50875D01*
X50936Y-50889D01*
X50921Y-50904D01*
X50907Y-50932D01*
X50907Y-50989D01*
X50921Y-51018D01*
X50936Y-51032D01*
X50964Y-51046D01*
X51021Y-51046D01*
X51050Y-51032D01*
X51064Y-51018D01*
X51079Y-50989D01*
X51079Y-50932D01*
X51064Y-50904D01*
X51050Y-50889D01*
X51021Y-50875D01*
X37400Y-40371D02*
X37300Y-40229D01*
X37228Y-40371D02*
X37228Y-40071D01*
X37343Y-40071D01*
X37371Y-40086D01*
X37386Y-40100D01*
X37400Y-40129D01*
X37400Y-40171D01*
X37386Y-40200D01*
X37371Y-40214D01*
X37343Y-40229D01*
X37228Y-40229D01*
X37514Y-40100D02*
X37528Y-40086D01*
X37557Y-40071D01*
X37628Y-40071D01*
X37657Y-40086D01*
X37671Y-40100D01*
X37686Y-40129D01*
X37686Y-40157D01*
X37671Y-40200D01*
X37500Y-40371D01*
X37686Y-40371D01*
X26200Y-55846D02*
X26100Y-55704D01*
X26028Y-55846D02*
X26028Y-55546D01*
X26143Y-55546D01*
X26171Y-55561D01*
X26186Y-55575D01*
X26200Y-55604D01*
X26200Y-55646D01*
X26186Y-55675D01*
X26171Y-55689D01*
X26143Y-55704D01*
X26028Y-55704D01*
X26300Y-55546D02*
X26486Y-55546D01*
X26386Y-55661D01*
X26428Y-55661D01*
X26457Y-55675D01*
X26471Y-55689D01*
X26486Y-55718D01*
X26486Y-55789D01*
X26471Y-55818D01*
X26457Y-55832D01*
X26428Y-55846D01*
X26343Y-55846D01*
X26314Y-55832D01*
X26300Y-55818D01*
X25450Y-32321D02*
X25350Y-32179D01*
X25278Y-32321D02*
X25278Y-32021D01*
X25393Y-32021D01*
X25421Y-32036D01*
X25436Y-32050D01*
X25450Y-32079D01*
X25450Y-32121D01*
X25436Y-32150D01*
X25421Y-32164D01*
X25393Y-32179D01*
X25278Y-32179D01*
X25621Y-32150D02*
X25593Y-32136D01*
X25578Y-32121D01*
X25564Y-32093D01*
X25564Y-32079D01*
X25578Y-32050D01*
X25593Y-32036D01*
X25621Y-32021D01*
X25678Y-32021D01*
X25707Y-32036D01*
X25721Y-32050D01*
X25736Y-32079D01*
X25736Y-32093D01*
X25721Y-32121D01*
X25707Y-32136D01*
X25678Y-32150D01*
X25621Y-32150D01*
X25593Y-32164D01*
X25578Y-32179D01*
X25564Y-32207D01*
X25564Y-32264D01*
X25578Y-32293D01*
X25593Y-32307D01*
X25621Y-32321D01*
X25678Y-32321D01*
X25707Y-32307D01*
X25721Y-32293D01*
X25736Y-32264D01*
X25736Y-32207D01*
X25721Y-32179D01*
X25707Y-32164D01*
X25678Y-32150D01*
X21425Y-32321D02*
X21325Y-32179D01*
X21253Y-32321D02*
X21253Y-32021D01*
X21368Y-32021D01*
X21396Y-32036D01*
X21411Y-32050D01*
X21425Y-32079D01*
X21425Y-32121D01*
X21411Y-32150D01*
X21396Y-32164D01*
X21368Y-32179D01*
X21253Y-32179D01*
X21568Y-32321D02*
X21625Y-32321D01*
X21653Y-32307D01*
X21668Y-32293D01*
X21696Y-32250D01*
X21711Y-32193D01*
X21711Y-32079D01*
X21696Y-32050D01*
X21682Y-32036D01*
X21653Y-32021D01*
X21596Y-32021D01*
X21568Y-32036D01*
X21553Y-32050D01*
X21539Y-32079D01*
X21539Y-32150D01*
X21553Y-32179D01*
X21568Y-32193D01*
X21596Y-32207D01*
X21653Y-32207D01*
X21682Y-32193D01*
X21696Y-32179D01*
X21711Y-32150D01*
X50507Y-43046D02*
X50407Y-42904D01*
X50335Y-43046D02*
X50335Y-42746D01*
X50450Y-42746D01*
X50478Y-42761D01*
X50493Y-42775D01*
X50507Y-42804D01*
X50507Y-42846D01*
X50493Y-42875D01*
X50478Y-42889D01*
X50450Y-42904D01*
X50335Y-42904D01*
X50793Y-43046D02*
X50621Y-43046D01*
X50707Y-43046D02*
X50707Y-42746D01*
X50678Y-42789D01*
X50650Y-42818D01*
X50621Y-42832D01*
X50893Y-42746D02*
X51093Y-42746D01*
X50964Y-43046D01*
X43007Y-47846D02*
X42907Y-47704D01*
X42835Y-47846D02*
X42835Y-47546D01*
X42950Y-47546D01*
X42978Y-47561D01*
X42993Y-47575D01*
X43007Y-47604D01*
X43007Y-47646D01*
X42993Y-47675D01*
X42978Y-47689D01*
X42950Y-47704D01*
X42835Y-47704D01*
X43293Y-47846D02*
X43121Y-47846D01*
X43207Y-47846D02*
X43207Y-47546D01*
X43178Y-47589D01*
X43150Y-47618D01*
X43121Y-47632D01*
X43550Y-47546D02*
X43493Y-47546D01*
X43464Y-47561D01*
X43450Y-47575D01*
X43421Y-47618D01*
X43407Y-47675D01*
X43407Y-47789D01*
X43421Y-47818D01*
X43436Y-47832D01*
X43464Y-47846D01*
X43521Y-47846D01*
X43550Y-47832D01*
X43564Y-47818D01*
X43579Y-47789D01*
X43579Y-47718D01*
X43564Y-47689D01*
X43550Y-47675D01*
X43521Y-47661D01*
X43464Y-47661D01*
X43436Y-47675D01*
X43421Y-47689D01*
X43407Y-47718D01*
X43007Y-39846D02*
X42907Y-39704D01*
X42835Y-39846D02*
X42835Y-39546D01*
X42950Y-39546D01*
X42978Y-39561D01*
X42993Y-39575D01*
X43007Y-39604D01*
X43007Y-39646D01*
X42993Y-39675D01*
X42978Y-39689D01*
X42950Y-39704D01*
X42835Y-39704D01*
X43293Y-39846D02*
X43121Y-39846D01*
X43207Y-39846D02*
X43207Y-39546D01*
X43178Y-39589D01*
X43150Y-39618D01*
X43121Y-39632D01*
X43564Y-39546D02*
X43421Y-39546D01*
X43407Y-39689D01*
X43421Y-39675D01*
X43450Y-39661D01*
X43521Y-39661D01*
X43550Y-39675D01*
X43564Y-39689D01*
X43579Y-39718D01*
X43579Y-39789D01*
X43564Y-39818D01*
X43550Y-39832D01*
X43521Y-39846D01*
X43450Y-39846D01*
X43421Y-39832D01*
X43407Y-39818D01*
X28007Y-47846D02*
X27907Y-47704D01*
X27835Y-47846D02*
X27835Y-47546D01*
X27950Y-47546D01*
X27978Y-47561D01*
X27993Y-47575D01*
X28007Y-47604D01*
X28007Y-47646D01*
X27993Y-47675D01*
X27978Y-47689D01*
X27950Y-47704D01*
X27835Y-47704D01*
X28293Y-47846D02*
X28121Y-47846D01*
X28207Y-47846D02*
X28207Y-47546D01*
X28178Y-47589D01*
X28150Y-47618D01*
X28121Y-47632D01*
X28550Y-47646D02*
X28550Y-47846D01*
X28479Y-47532D02*
X28407Y-47746D01*
X28593Y-47746D01*
X20407Y-49596D02*
X20307Y-49454D01*
X20235Y-49596D02*
X20235Y-49296D01*
X20350Y-49296D01*
X20378Y-49311D01*
X20393Y-49325D01*
X20407Y-49354D01*
X20407Y-49396D01*
X20393Y-49425D01*
X20378Y-49439D01*
X20350Y-49454D01*
X20235Y-49454D01*
X20693Y-49596D02*
X20521Y-49596D01*
X20607Y-49596D02*
X20607Y-49296D01*
X20578Y-49339D01*
X20550Y-49368D01*
X20521Y-49382D01*
X20979Y-49596D02*
X20807Y-49596D01*
X20893Y-49596D02*
X20893Y-49296D01*
X20864Y-49339D01*
X20836Y-49368D01*
X20807Y-49382D01*
X20407Y-41596D02*
X20307Y-41454D01*
X20235Y-41596D02*
X20235Y-41296D01*
X20350Y-41296D01*
X20378Y-41311D01*
X20393Y-41325D01*
X20407Y-41354D01*
X20407Y-41396D01*
X20393Y-41425D01*
X20378Y-41439D01*
X20350Y-41454D01*
X20235Y-41454D01*
X20693Y-41596D02*
X20521Y-41596D01*
X20607Y-41596D02*
X20607Y-41296D01*
X20578Y-41339D01*
X20550Y-41368D01*
X20521Y-41382D01*
X20879Y-41296D02*
X20907Y-41296D01*
X20936Y-41311D01*
X20950Y-41325D01*
X20964Y-41354D01*
X20979Y-41411D01*
X20979Y-41482D01*
X20964Y-41539D01*
X20950Y-41568D01*
X20936Y-41582D01*
X20907Y-41596D01*
X20879Y-41596D01*
X20850Y-41582D01*
X20836Y-41568D01*
X20821Y-41539D01*
X20807Y-41482D01*
X20807Y-41411D01*
X20821Y-41354D01*
X20836Y-41325D01*
X20850Y-41311D01*
X20879Y-41296D01*
X20407Y-53396D02*
X20307Y-53254D01*
X20235Y-53396D02*
X20235Y-53096D01*
X20350Y-53096D01*
X20378Y-53111D01*
X20393Y-53125D01*
X20407Y-53154D01*
X20407Y-53196D01*
X20393Y-53225D01*
X20378Y-53239D01*
X20350Y-53254D01*
X20235Y-53254D01*
X20693Y-53396D02*
X20521Y-53396D01*
X20607Y-53396D02*
X20607Y-53096D01*
X20578Y-53139D01*
X20550Y-53168D01*
X20521Y-53182D01*
X20807Y-53125D02*
X20821Y-53111D01*
X20850Y-53096D01*
X20921Y-53096D01*
X20950Y-53111D01*
X20964Y-53125D01*
X20979Y-53154D01*
X20979Y-53182D01*
X20964Y-53225D01*
X20793Y-53396D01*
X20979Y-53396D01*
X28007Y-39846D02*
X27907Y-39704D01*
X27835Y-39846D02*
X27835Y-39546D01*
X27950Y-39546D01*
X27978Y-39561D01*
X27993Y-39575D01*
X28007Y-39604D01*
X28007Y-39646D01*
X27993Y-39675D01*
X27978Y-39689D01*
X27950Y-39704D01*
X27835Y-39704D01*
X28293Y-39846D02*
X28121Y-39846D01*
X28207Y-39846D02*
X28207Y-39546D01*
X28178Y-39589D01*
X28150Y-39618D01*
X28121Y-39632D01*
X28393Y-39546D02*
X28579Y-39546D01*
X28479Y-39661D01*
X28521Y-39661D01*
X28550Y-39675D01*
X28564Y-39689D01*
X28579Y-39718D01*
X28579Y-39789D01*
X28564Y-39818D01*
X28550Y-39832D01*
X28521Y-39846D01*
X28436Y-39846D01*
X28407Y-39832D01*
X28393Y-39818D01*
X71057Y-50221D02*
X70957Y-50079D01*
X70885Y-50221D02*
X70885Y-49921D01*
X71000Y-49921D01*
X71028Y-49936D01*
X71043Y-49950D01*
X71057Y-49979D01*
X71057Y-50021D01*
X71043Y-50050D01*
X71028Y-50064D01*
X71000Y-50079D01*
X70885Y-50079D01*
X71314Y-50021D02*
X71314Y-50221D01*
X71243Y-49907D02*
X71171Y-50121D01*
X71357Y-50121D01*
X71457Y-49950D02*
X71471Y-49936D01*
X71500Y-49921D01*
X71571Y-49921D01*
X71600Y-49936D01*
X71614Y-49950D01*
X71629Y-49979D01*
X71629Y-50007D01*
X71614Y-50050D01*
X71443Y-50221D01*
X71629Y-50221D01*
%LPC*%
G54D18*
X71850Y-58600D03*
X71850Y-57600D03*
X72850Y-58600D03*
X72850Y-57600D03*
X73850Y-58600D03*
X73850Y-57600D03*
X72850Y-54600D03*
G54D19*
X61089Y-54070D03*
X62861Y-56630D03*
X62861Y-54070D03*
X61089Y-56630D03*
G54D18*
X61100Y-58200D03*
X62100Y-58200D03*
X63100Y-58200D03*
X62100Y-59200D03*
G54D20*
X64250Y-57600D03*
G54D21*
X65250Y-57600D03*
G54D20*
X68250Y-57600D03*
G54D21*
X67250Y-57600D03*
G54D22*
X66800Y-53750D03*
X68700Y-53750D03*
X66800Y-53250D03*
X66800Y-52750D03*
X66800Y-52250D03*
X68700Y-53250D03*
X68700Y-52750D03*
X68700Y-52250D03*
G54D23*
X64975Y-55825D03*
X65725Y-55825D03*
X65725Y-54800D03*
X64975Y-54800D03*
X68625Y-49925D03*
X69375Y-49925D03*
X66150Y-49925D03*
X66900Y-49925D03*
G54D24*
X66125Y-51250D03*
X66925Y-51250D03*
X69375Y-51250D03*
X68575Y-51250D03*
X67350Y-54800D03*
X68150Y-54800D03*
G54D25*
X69900Y-58850D03*
G54D19*
X69900Y-57850D03*
G54D26*
X24270Y-55910D03*
G54D27*
X24270Y-54850D03*
G54D26*
X24270Y-53790D03*
G54D28*
X21830Y-54850D03*
G54D29*
X16550Y-57200D03*
G54D30*
X18550Y-57200D03*
G54D31*
X28100Y-30750D03*
X26900Y-30750D03*
X24100Y-30750D03*
X22900Y-30750D03*
X20100Y-30750D03*
X18900Y-30750D03*
X19100Y-34750D03*
X17900Y-34750D03*
X19100Y-38750D03*
X17900Y-38750D03*
X19100Y-42750D03*
X17900Y-42750D03*
X19100Y-46750D03*
X17900Y-46750D03*
X19100Y-50750D03*
X17900Y-50750D03*
X26850Y-53000D03*
X25650Y-53000D03*
X41850Y-53000D03*
X40650Y-53000D03*
X26850Y-37000D03*
X25650Y-37000D03*
X26850Y-41000D03*
X25650Y-41000D03*
X26850Y-45000D03*
X25650Y-45000D03*
X26850Y-49000D03*
X25650Y-49000D03*
X41850Y-37000D03*
X40650Y-37000D03*
X41850Y-41000D03*
X40650Y-41000D03*
X41850Y-45000D03*
X40650Y-45000D03*
X41850Y-49000D03*
X40650Y-49000D03*
X49350Y-40200D03*
X48150Y-40200D03*
X49350Y-44200D03*
X48150Y-44200D03*
X49350Y-48200D03*
X48150Y-48200D03*
X49350Y-52200D03*
X48150Y-52200D03*
X34350Y-14500D03*
X33150Y-14500D03*
X34350Y-18500D03*
X33150Y-18500D03*
X34350Y-22500D03*
X33150Y-22500D03*
X34350Y-26500D03*
X33150Y-26500D03*
X34350Y-30500D03*
X33150Y-30500D03*
X34250Y-34500D03*
X33050Y-34500D03*
X34360Y-38500D03*
X33160Y-38500D03*
X34360Y-42500D03*
X33160Y-42500D03*
G54D19*
X27855Y-58890D03*
X26105Y-58890D03*
G54D32*
X28355Y-57890D03*
X25605Y-57890D03*
G54D19*
X26480Y-57390D03*
X27480Y-57390D03*
X22855Y-58890D03*
X21105Y-58890D03*
G54D32*
X23355Y-57890D03*
X20605Y-57890D03*
G54D19*
X21480Y-57390D03*
X22480Y-57390D03*
G54D33*
X56500Y-15500D03*
X56500Y-20500D03*
G54D34*
X39960Y-47900D03*
X39960Y-47300D03*
G54D35*
X37400Y-37175D03*
G54D36*
X38400Y-37175D03*
X39400Y-37175D03*
G54D18*
X36500Y-56500D03*
X36500Y-57500D03*
X36500Y-58500D03*
X30625Y-56500D03*
X30625Y-57500D03*
X30625Y-58500D03*
G54D35*
X44025Y-13500D03*
G54D36*
X43025Y-13500D03*
X42025Y-13500D03*
X41025Y-13500D03*
X40025Y-13500D03*
X39025Y-13500D03*
G54D35*
X44025Y-14500D03*
G54D36*
X43025Y-14500D03*
X42025Y-14500D03*
X41025Y-14500D03*
X40025Y-14500D03*
X39025Y-14500D03*
G54D35*
X46000Y-58000D03*
G54D36*
X47000Y-58000D03*
X48000Y-58000D03*
X49000Y-58000D03*
X50000Y-58000D03*
X51000Y-58000D03*
G54D35*
X46000Y-59000D03*
G54D36*
X47000Y-59000D03*
X48000Y-59000D03*
X49000Y-59000D03*
X50000Y-59000D03*
X51000Y-59000D03*
G54D24*
X38040Y-45300D03*
X37240Y-45300D03*
X42200Y-57750D03*
X43000Y-57750D03*
G54D37*
X36100Y-51300D03*
X36100Y-50300D03*
X36100Y-49300D03*
X36100Y-48300D03*
X36100Y-47300D03*
X36100Y-46300D03*
G54D38*
X36100Y-45300D03*
G54D37*
X36100Y-44300D03*
X36100Y-43300D03*
X36100Y-42300D03*
X36100Y-41300D03*
X36100Y-40300D03*
X36100Y-39300D03*
X36100Y-52300D03*
X39100Y-39300D03*
X39100Y-40300D03*
X39100Y-41300D03*
X39100Y-42300D03*
X39100Y-43300D03*
X39100Y-44300D03*
X39100Y-45300D03*
G54D38*
X39100Y-46300D03*
G54D37*
X39100Y-47300D03*
X39100Y-48300D03*
X39100Y-49300D03*
X39100Y-50300D03*
X39100Y-51300D03*
X39100Y-52300D03*
G54D39*
X38000Y-59000D03*
X39000Y-59000D03*
G54D18*
X40000Y-59000D03*
X41000Y-59000D03*
X42000Y-59000D03*
X43000Y-59000D03*
X38000Y-56500D03*
X38000Y-57500D03*
X39000Y-56500D03*
X39000Y-57500D03*
X40000Y-56500D03*
G54D39*
X40000Y-57500D03*
G54D34*
X40100Y-39900D03*
X40100Y-39000D03*
X37450Y-39300D03*
X30560Y-33280D03*
G54D36*
X44500Y-59000D03*
G54D35*
X44500Y-56000D03*
G54D36*
X44500Y-57000D03*
X44500Y-58000D03*
G54D23*
X50325Y-50200D03*
X51075Y-50200D03*
G54D40*
X37440Y-41675D03*
X37440Y-40925D03*
G54D23*
X25875Y-55000D03*
X26625Y-55000D03*
X25875Y-32850D03*
X25125Y-32850D03*
X21100Y-32850D03*
X21850Y-32850D03*
X50325Y-42200D03*
X51075Y-42200D03*
X42825Y-47000D03*
X43575Y-47000D03*
X42825Y-39000D03*
X43575Y-39000D03*
X27825Y-47000D03*
X28575Y-47000D03*
X20225Y-48750D03*
X20975Y-48750D03*
X20225Y-40750D03*
X20975Y-40750D03*
X20975Y-52550D03*
X20225Y-52550D03*
X27825Y-39000D03*
X28575Y-39000D03*
G54D33*
X33500Y-52000D03*
X33500Y-57000D03*
G54D18*
X32590Y-46900D03*
X30590Y-46900D03*
G54D39*
X31590Y-46900D03*
G54D41*
X71250Y-53375D03*
X71250Y-50875D03*
M02*
