G04 (created by PCBNEW-RS274X (2011-12-28 BZR 3254)-stable) date 7/17/2012 5:32:20 PM*
G01*
G70*
G90*
%MOIN*%
G04 Gerber Fmt 3.4, Leading zero omitted, Abs format*
%FSLAX34Y34*%
G04 APERTURE LIST*
%ADD10C,0.006000*%
%ADD11C,0.010000*%
%ADD12C,0.080000*%
%ADD13C,0.015000*%
%ADD14C,0.005000*%
G04 APERTURE END LIST*
G54D10*
G54D11*
X39655Y-30384D02*
X39131Y-30384D01*
X39036Y-30432D01*
X38988Y-30527D01*
X38988Y-30718D01*
X39036Y-30813D01*
X39607Y-30384D02*
X39655Y-30480D01*
X39655Y-30718D01*
X39607Y-30813D01*
X39512Y-30861D01*
X39417Y-30861D01*
X39321Y-30813D01*
X39274Y-30718D01*
X39274Y-30480D01*
X39226Y-30384D01*
X38988Y-29908D02*
X39655Y-29908D01*
X39083Y-29908D02*
X39036Y-29860D01*
X38988Y-29765D01*
X38988Y-29622D01*
X39036Y-29527D01*
X39131Y-29479D01*
X39655Y-29479D01*
X39655Y-28860D02*
X39607Y-28955D01*
X39560Y-29003D01*
X39464Y-29051D01*
X39179Y-29051D01*
X39083Y-29003D01*
X39036Y-28955D01*
X38988Y-28860D01*
X38988Y-28717D01*
X39036Y-28622D01*
X39083Y-28574D01*
X39179Y-28527D01*
X39464Y-28527D01*
X39560Y-28574D01*
X39607Y-28622D01*
X39655Y-28717D01*
X39655Y-28860D01*
X39655Y-27955D02*
X39607Y-28050D01*
X39560Y-28098D01*
X39464Y-28146D01*
X39179Y-28146D01*
X39083Y-28098D01*
X39036Y-28050D01*
X38988Y-27955D01*
X38988Y-27812D01*
X39036Y-27717D01*
X39083Y-27669D01*
X39179Y-27622D01*
X39464Y-27622D01*
X39560Y-27669D01*
X39607Y-27717D01*
X39655Y-27812D01*
X39655Y-27955D01*
X39655Y-27050D02*
X39607Y-27145D01*
X39512Y-27193D01*
X38655Y-27193D01*
X39560Y-26669D02*
X39607Y-26621D01*
X39655Y-26669D01*
X39607Y-26717D01*
X39560Y-26669D01*
X39655Y-26669D01*
X39655Y-26193D02*
X38988Y-26193D01*
X39083Y-26193D02*
X39036Y-26145D01*
X38988Y-26050D01*
X38988Y-25907D01*
X39036Y-25812D01*
X39131Y-25764D01*
X39655Y-25764D01*
X39131Y-25764D02*
X39036Y-25717D01*
X38988Y-25621D01*
X38988Y-25479D01*
X39036Y-25383D01*
X39131Y-25336D01*
X39655Y-25336D01*
X39179Y-24241D02*
X39131Y-24288D01*
X39083Y-24384D01*
X39083Y-24479D01*
X39131Y-24574D01*
X39179Y-24622D01*
X39274Y-24669D01*
X39369Y-24669D01*
X39464Y-24622D01*
X39512Y-24574D01*
X39560Y-24479D01*
X39560Y-24384D01*
X39512Y-24288D01*
X39464Y-24241D01*
X39083Y-24241D02*
X39464Y-24241D01*
X39512Y-24193D01*
X39512Y-24146D01*
X39464Y-24050D01*
X39369Y-24003D01*
X39131Y-24003D01*
X38988Y-24098D01*
X38893Y-24241D01*
X38845Y-24431D01*
X38893Y-24622D01*
X38988Y-24765D01*
X39131Y-24860D01*
X39321Y-24908D01*
X39512Y-24860D01*
X39655Y-24765D01*
X39750Y-24622D01*
X39798Y-24431D01*
X39750Y-24241D01*
X39655Y-24098D01*
X38988Y-23145D02*
X39798Y-23145D01*
X39893Y-23193D01*
X39940Y-23241D01*
X39988Y-23336D01*
X39988Y-23479D01*
X39940Y-23574D01*
X39607Y-23145D02*
X39655Y-23241D01*
X39655Y-23431D01*
X39607Y-23526D01*
X39560Y-23574D01*
X39464Y-23622D01*
X39179Y-23622D01*
X39083Y-23574D01*
X39036Y-23526D01*
X38988Y-23431D01*
X38988Y-23241D01*
X39036Y-23145D01*
X39655Y-22669D02*
X38988Y-22669D01*
X39083Y-22669D02*
X39036Y-22621D01*
X38988Y-22526D01*
X38988Y-22383D01*
X39036Y-22288D01*
X39131Y-22240D01*
X39655Y-22240D01*
X39131Y-22240D02*
X39036Y-22193D01*
X38988Y-22097D01*
X38988Y-21955D01*
X39036Y-21859D01*
X39131Y-21812D01*
X39655Y-21812D01*
X39655Y-20907D02*
X39131Y-20907D01*
X39036Y-20955D01*
X38988Y-21050D01*
X38988Y-21241D01*
X39036Y-21336D01*
X39607Y-20907D02*
X39655Y-21003D01*
X39655Y-21241D01*
X39607Y-21336D01*
X39512Y-21384D01*
X39417Y-21384D01*
X39321Y-21336D01*
X39274Y-21241D01*
X39274Y-21003D01*
X39226Y-20907D01*
X39655Y-20431D02*
X38988Y-20431D01*
X38655Y-20431D02*
X38702Y-20479D01*
X38750Y-20431D01*
X38702Y-20383D01*
X38655Y-20431D01*
X38750Y-20431D01*
X39655Y-19812D02*
X39607Y-19907D01*
X39512Y-19955D01*
X38655Y-19955D01*
X39560Y-19431D02*
X39607Y-19383D01*
X39655Y-19431D01*
X39607Y-19479D01*
X39560Y-19431D01*
X39655Y-19431D01*
X39607Y-18526D02*
X39655Y-18622D01*
X39655Y-18812D01*
X39607Y-18907D01*
X39560Y-18955D01*
X39464Y-19003D01*
X39179Y-19003D01*
X39083Y-18955D01*
X39036Y-18907D01*
X38988Y-18812D01*
X38988Y-18622D01*
X39036Y-18526D01*
X39655Y-17955D02*
X39607Y-18050D01*
X39560Y-18098D01*
X39464Y-18146D01*
X39179Y-18146D01*
X39083Y-18098D01*
X39036Y-18050D01*
X38988Y-17955D01*
X38988Y-17812D01*
X39036Y-17717D01*
X39083Y-17669D01*
X39179Y-17622D01*
X39464Y-17622D01*
X39560Y-17669D01*
X39607Y-17717D01*
X39655Y-17812D01*
X39655Y-17955D01*
X39655Y-17193D02*
X38988Y-17193D01*
X39083Y-17193D02*
X39036Y-17145D01*
X38988Y-17050D01*
X38988Y-16907D01*
X39036Y-16812D01*
X39131Y-16764D01*
X39655Y-16764D01*
X39131Y-16764D02*
X39036Y-16717D01*
X38988Y-16621D01*
X38988Y-16479D01*
X39036Y-16383D01*
X39131Y-16336D01*
X39655Y-16336D01*
G54D12*
X65479Y-42888D02*
X65669Y-42317D01*
X65669Y-41364D01*
X65479Y-40983D01*
X65288Y-40793D01*
X64907Y-40602D01*
X64526Y-40602D01*
X64145Y-40793D01*
X63955Y-40983D01*
X63764Y-41364D01*
X63574Y-42126D01*
X63383Y-42507D01*
X63193Y-42698D01*
X62812Y-42888D01*
X62431Y-42888D01*
X62050Y-42698D01*
X61860Y-42507D01*
X61669Y-42126D01*
X61669Y-41174D01*
X61860Y-40602D01*
X65288Y-38888D02*
X65479Y-38697D01*
X65669Y-38888D01*
X65479Y-39078D01*
X65288Y-38888D01*
X65669Y-38888D01*
X61669Y-37554D02*
X61669Y-35268D01*
X65669Y-36411D02*
X61669Y-36411D01*
X65288Y-33935D02*
X65479Y-33744D01*
X65669Y-33935D01*
X65479Y-34125D01*
X65288Y-33935D01*
X65669Y-33935D01*
X63574Y-30696D02*
X63574Y-32030D01*
X65669Y-32030D02*
X61669Y-32030D01*
X61669Y-30125D01*
X65288Y-28601D02*
X65479Y-28410D01*
X65669Y-28601D01*
X65479Y-28791D01*
X65288Y-28601D01*
X65669Y-28601D01*
X61669Y-26696D02*
X64907Y-26696D01*
X65288Y-26505D01*
X65479Y-26315D01*
X65669Y-25934D01*
X65669Y-25172D01*
X65479Y-24791D01*
X65288Y-24600D01*
X64907Y-24410D01*
X61669Y-24410D01*
X65288Y-22506D02*
X65479Y-22315D01*
X65669Y-22506D01*
X65479Y-22696D01*
X65288Y-22506D01*
X65669Y-22506D01*
X65288Y-17553D02*
X65479Y-17362D01*
X65669Y-17553D01*
X65479Y-17743D01*
X65288Y-17553D01*
X65669Y-17553D01*
X64145Y-17553D02*
X61860Y-17743D01*
X61669Y-17553D01*
X61860Y-17362D01*
X64145Y-17553D01*
X61669Y-17553D01*
G54D13*
X58000Y-20500D02*
X57971Y-20791D01*
X57886Y-21071D01*
X57749Y-21330D01*
X57564Y-21556D01*
X57338Y-21743D01*
X57081Y-21882D01*
X56801Y-21969D01*
X56510Y-21999D01*
X56219Y-21973D01*
X55939Y-21890D01*
X55679Y-21755D01*
X55451Y-21571D01*
X55263Y-21347D01*
X55122Y-21090D01*
X55033Y-20811D01*
X55001Y-20520D01*
X55025Y-20230D01*
X55106Y-19948D01*
X55240Y-19688D01*
X55421Y-19459D01*
X55644Y-19269D01*
X55900Y-19126D01*
X56178Y-19035D01*
X56469Y-19001D01*
X56760Y-19023D01*
X57042Y-19102D01*
X57303Y-19234D01*
X57534Y-19414D01*
X57725Y-19636D01*
X57870Y-19890D01*
X57962Y-20168D01*
X57999Y-20459D01*
X58000Y-20500D01*
X58000Y-15500D02*
X57971Y-15791D01*
X57886Y-16071D01*
X57749Y-16330D01*
X57564Y-16556D01*
X57338Y-16743D01*
X57081Y-16882D01*
X56801Y-16969D01*
X56510Y-16999D01*
X56219Y-16973D01*
X55939Y-16890D01*
X55679Y-16755D01*
X55451Y-16571D01*
X55263Y-16347D01*
X55122Y-16090D01*
X55033Y-15811D01*
X55001Y-15520D01*
X55025Y-15230D01*
X55106Y-14948D01*
X55240Y-14688D01*
X55421Y-14459D01*
X55644Y-14269D01*
X55900Y-14126D01*
X56178Y-14035D01*
X56469Y-14001D01*
X56760Y-14023D01*
X57042Y-14102D01*
X57303Y-14234D01*
X57534Y-14414D01*
X57725Y-14636D01*
X57870Y-14890D01*
X57962Y-15168D01*
X57999Y-15459D01*
X58000Y-15500D01*
X35000Y-56975D02*
X34971Y-57266D01*
X34886Y-57546D01*
X34749Y-57805D01*
X34564Y-58031D01*
X34338Y-58218D01*
X34081Y-58357D01*
X33801Y-58444D01*
X33510Y-58474D01*
X33219Y-58448D01*
X32939Y-58365D01*
X32679Y-58230D01*
X32451Y-58046D01*
X32263Y-57822D01*
X32122Y-57565D01*
X32033Y-57286D01*
X32001Y-56995D01*
X32025Y-56705D01*
X32106Y-56423D01*
X32240Y-56163D01*
X32421Y-55934D01*
X32644Y-55744D01*
X32900Y-55601D01*
X33178Y-55510D01*
X33469Y-55476D01*
X33760Y-55498D01*
X34042Y-55577D01*
X34303Y-55709D01*
X34534Y-55889D01*
X34725Y-56111D01*
X34870Y-56365D01*
X34962Y-56643D01*
X34999Y-56934D01*
X35000Y-56975D01*
X35000Y-52000D02*
X34971Y-52291D01*
X34886Y-52571D01*
X34749Y-52830D01*
X34564Y-53056D01*
X34338Y-53243D01*
X34081Y-53382D01*
X33801Y-53469D01*
X33510Y-53499D01*
X33219Y-53473D01*
X32939Y-53390D01*
X32679Y-53255D01*
X32451Y-53071D01*
X32263Y-52847D01*
X32122Y-52590D01*
X32033Y-52311D01*
X32001Y-52020D01*
X32025Y-51730D01*
X32106Y-51448D01*
X32240Y-51188D01*
X32421Y-50959D01*
X32644Y-50769D01*
X32900Y-50626D01*
X33178Y-50535D01*
X33469Y-50501D01*
X33760Y-50523D01*
X34042Y-50602D01*
X34303Y-50734D01*
X34534Y-50914D01*
X34725Y-51136D01*
X34870Y-51390D01*
X34962Y-51668D01*
X34999Y-51959D01*
X35000Y-52000D01*
X54700Y-12650D02*
X56500Y-12650D01*
X54700Y-23000D02*
X54700Y-12650D01*
X58300Y-23000D02*
X54700Y-23000D01*
X58300Y-12650D02*
X58300Y-23000D01*
X56500Y-12650D02*
X58300Y-12650D01*
X31700Y-59850D02*
X33500Y-59850D01*
X31700Y-57000D02*
X31700Y-59850D01*
X31700Y-52000D02*
X31700Y-57000D01*
X31700Y-49500D02*
X31700Y-52000D01*
X33500Y-49500D02*
X31700Y-49500D01*
X35300Y-59850D02*
X33500Y-59850D01*
X35300Y-49500D02*
X35300Y-59850D01*
X33500Y-49500D02*
X35300Y-49500D01*
X60500Y-41750D02*
X60500Y-45000D01*
X68000Y-38500D02*
X63750Y-38500D01*
X68000Y-22500D02*
X68000Y-38500D01*
X67000Y-34250D02*
X67000Y-22500D01*
X60500Y-22500D02*
X60500Y-34250D01*
X59500Y-56750D02*
X59500Y-22500D01*
X53000Y-22500D02*
X53000Y-56750D01*
X52000Y-34250D02*
X52000Y-22500D01*
X45500Y-22500D02*
X45500Y-34250D01*
X44500Y-31050D02*
X44500Y-22500D01*
X63750Y-38500D02*
X63467Y-38513D01*
X63186Y-38550D01*
X62909Y-38611D01*
X62639Y-38696D01*
X62377Y-38805D01*
X62126Y-38936D01*
X61886Y-39088D01*
X61661Y-39261D01*
X61452Y-39452D01*
X61261Y-39661D01*
X61088Y-39886D01*
X60936Y-40126D01*
X60805Y-40377D01*
X60696Y-40639D01*
X60611Y-40909D01*
X60550Y-41186D01*
X60513Y-41467D01*
X60500Y-41750D01*
X63750Y-37500D02*
X64033Y-37487D01*
X64314Y-37450D01*
X64591Y-37389D01*
X64861Y-37304D01*
X65123Y-37195D01*
X65375Y-37064D01*
X65614Y-36912D01*
X65839Y-36739D01*
X66048Y-36548D01*
X66239Y-36339D01*
X66412Y-36114D01*
X66564Y-35874D01*
X66695Y-35623D01*
X66804Y-35361D01*
X66889Y-35091D01*
X66950Y-34814D01*
X66987Y-34533D01*
X67000Y-34250D01*
X60500Y-34250D02*
X60513Y-34533D01*
X60550Y-34814D01*
X60611Y-35091D01*
X60696Y-35361D01*
X60805Y-35623D01*
X60936Y-35874D01*
X61088Y-36114D01*
X61261Y-36339D01*
X61452Y-36548D01*
X61661Y-36739D01*
X61886Y-36912D01*
X62126Y-37064D01*
X62377Y-37195D01*
X62639Y-37304D01*
X62909Y-37389D01*
X63186Y-37450D01*
X63467Y-37487D01*
X63750Y-37500D01*
X53000Y-56750D02*
X53013Y-57033D01*
X53050Y-57314D01*
X53111Y-57591D01*
X53196Y-57861D01*
X53305Y-58123D01*
X53436Y-58374D01*
X53588Y-58614D01*
X53761Y-58839D01*
X53952Y-59048D01*
X54161Y-59239D01*
X54386Y-59412D01*
X54626Y-59564D01*
X54877Y-59695D01*
X55139Y-59804D01*
X55409Y-59889D01*
X55686Y-59950D01*
X55967Y-59987D01*
X56250Y-60000D01*
X56250Y-60000D02*
X56533Y-59987D01*
X56814Y-59950D01*
X57091Y-59889D01*
X57361Y-59804D01*
X57623Y-59695D01*
X57875Y-59564D01*
X58114Y-59412D01*
X58339Y-59239D01*
X58548Y-59048D01*
X58739Y-58839D01*
X58912Y-58614D01*
X59064Y-58374D01*
X59195Y-58123D01*
X59304Y-57861D01*
X59389Y-57591D01*
X59450Y-57314D01*
X59487Y-57033D01*
X59500Y-56750D01*
X45500Y-34250D02*
X45513Y-34533D01*
X45550Y-34814D01*
X45611Y-35091D01*
X45696Y-35361D01*
X45805Y-35623D01*
X45936Y-35874D01*
X46088Y-36114D01*
X46261Y-36339D01*
X46452Y-36548D01*
X46661Y-36739D01*
X46886Y-36912D01*
X47126Y-37064D01*
X47377Y-37195D01*
X47639Y-37304D01*
X47909Y-37389D01*
X48186Y-37450D01*
X48467Y-37487D01*
X48750Y-37500D01*
X48750Y-37500D02*
X49033Y-37487D01*
X49314Y-37450D01*
X49591Y-37389D01*
X49861Y-37304D01*
X50123Y-37195D01*
X50375Y-37064D01*
X50614Y-36912D01*
X50839Y-36739D01*
X51048Y-36548D01*
X51239Y-36339D01*
X51412Y-36114D01*
X51564Y-35874D01*
X51695Y-35623D01*
X51804Y-35361D01*
X51889Y-35091D01*
X51950Y-34814D01*
X51987Y-34533D01*
X52000Y-34250D01*
X38000Y-31050D02*
X38013Y-31333D01*
X38050Y-31614D01*
X38111Y-31891D01*
X38196Y-32161D01*
X38305Y-32423D01*
X38436Y-32674D01*
X38588Y-32914D01*
X38761Y-33139D01*
X38952Y-33348D01*
X39161Y-33539D01*
X39386Y-33712D01*
X39626Y-33864D01*
X39877Y-33995D01*
X40139Y-34104D01*
X40409Y-34189D01*
X40686Y-34250D01*
X40967Y-34287D01*
X41250Y-34300D01*
X41250Y-34300D02*
X41533Y-34287D01*
X41814Y-34250D01*
X42091Y-34189D01*
X42361Y-34104D01*
X42623Y-33995D01*
X42875Y-33864D01*
X43114Y-33712D01*
X43339Y-33539D01*
X43548Y-33348D01*
X43739Y-33139D01*
X43912Y-32914D01*
X44064Y-32674D01*
X44195Y-32423D01*
X44304Y-32161D01*
X44389Y-31891D01*
X44450Y-31614D01*
X44487Y-31333D01*
X44500Y-31050D01*
X67000Y-22500D02*
X68000Y-22500D01*
X59500Y-22500D02*
X60500Y-22500D01*
X52000Y-22500D02*
X53000Y-22500D01*
X44500Y-22500D02*
X45500Y-22500D01*
X45500Y-50000D02*
X45500Y-41450D01*
X44500Y-50000D02*
X44500Y-38250D01*
X38000Y-40825D02*
X38000Y-38250D01*
X38000Y-44775D02*
X38000Y-41700D01*
X38000Y-50000D02*
X38000Y-45850D01*
X37000Y-50000D02*
X37000Y-15750D01*
X30500Y-50000D02*
X30500Y-15750D01*
X29500Y-38250D02*
X29500Y-50000D01*
X22000Y-34000D02*
X26250Y-34000D01*
X22000Y-50000D02*
X22000Y-34000D01*
X23000Y-50000D02*
X23000Y-38250D01*
X29500Y-30750D02*
X29500Y-27500D01*
X26250Y-34000D02*
X26533Y-33987D01*
X26814Y-33950D01*
X27091Y-33889D01*
X27361Y-33804D01*
X27623Y-33695D01*
X27875Y-33564D01*
X28114Y-33412D01*
X28339Y-33239D01*
X28548Y-33048D01*
X28739Y-32839D01*
X28912Y-32614D01*
X29064Y-32374D01*
X29195Y-32123D01*
X29304Y-31861D01*
X29389Y-31591D01*
X29450Y-31314D01*
X29487Y-31033D01*
X29500Y-30750D01*
X26250Y-35000D02*
X25967Y-35013D01*
X25686Y-35050D01*
X25409Y-35111D01*
X25139Y-35196D01*
X24877Y-35305D01*
X24626Y-35436D01*
X24386Y-35588D01*
X24161Y-35761D01*
X23952Y-35952D01*
X23761Y-36161D01*
X23588Y-36386D01*
X23436Y-36626D01*
X23305Y-36877D01*
X23196Y-37139D01*
X23111Y-37409D01*
X23050Y-37686D01*
X23013Y-37967D01*
X23000Y-38250D01*
X29500Y-38250D02*
X29487Y-37967D01*
X29450Y-37686D01*
X29389Y-37409D01*
X29304Y-37139D01*
X29195Y-36877D01*
X29064Y-36626D01*
X28912Y-36386D01*
X28739Y-36161D01*
X28548Y-35952D01*
X28339Y-35761D01*
X28114Y-35588D01*
X27875Y-35436D01*
X27623Y-35305D01*
X27361Y-35196D01*
X27091Y-35111D01*
X26814Y-35050D01*
X26533Y-35013D01*
X26250Y-35000D01*
X33750Y-12500D02*
X33467Y-12513D01*
X33186Y-12550D01*
X32909Y-12611D01*
X32639Y-12696D01*
X32377Y-12805D01*
X32126Y-12936D01*
X31886Y-13088D01*
X31661Y-13261D01*
X31452Y-13452D01*
X31261Y-13661D01*
X31088Y-13886D01*
X30936Y-14126D01*
X30805Y-14377D01*
X30696Y-14639D01*
X30611Y-14909D01*
X30550Y-15186D01*
X30513Y-15467D01*
X30500Y-15750D01*
X37000Y-15750D02*
X36987Y-15467D01*
X36950Y-15186D01*
X36889Y-14909D01*
X36804Y-14639D01*
X36695Y-14377D01*
X36564Y-14126D01*
X36412Y-13886D01*
X36239Y-13661D01*
X36048Y-13452D01*
X35839Y-13261D01*
X35614Y-13088D01*
X35375Y-12936D01*
X35123Y-12805D01*
X34861Y-12696D01*
X34591Y-12611D01*
X34314Y-12550D01*
X34033Y-12513D01*
X33750Y-12500D01*
X41250Y-35000D02*
X40967Y-35013D01*
X40686Y-35050D01*
X40409Y-35111D01*
X40139Y-35196D01*
X39877Y-35305D01*
X39626Y-35436D01*
X39386Y-35588D01*
X39161Y-35761D01*
X38952Y-35952D01*
X38761Y-36161D01*
X38588Y-36386D01*
X38436Y-36626D01*
X38305Y-36877D01*
X38196Y-37139D01*
X38111Y-37409D01*
X38050Y-37686D01*
X38013Y-37967D01*
X38000Y-38250D01*
X44500Y-38250D02*
X44487Y-37967D01*
X44450Y-37686D01*
X44389Y-37409D01*
X44304Y-37139D01*
X44195Y-36877D01*
X44064Y-36626D01*
X43912Y-36386D01*
X43739Y-36161D01*
X43548Y-35952D01*
X43339Y-35761D01*
X43114Y-35588D01*
X42875Y-35436D01*
X42623Y-35305D01*
X42361Y-35196D01*
X42091Y-35111D01*
X41814Y-35050D01*
X41533Y-35013D01*
X41250Y-35000D01*
X48750Y-38200D02*
X48467Y-38213D01*
X48186Y-38250D01*
X47909Y-38311D01*
X47639Y-38396D01*
X47377Y-38505D01*
X47126Y-38636D01*
X46886Y-38788D01*
X46661Y-38961D01*
X46452Y-39152D01*
X46261Y-39361D01*
X46088Y-39586D01*
X45936Y-39826D01*
X45805Y-40077D01*
X45696Y-40339D01*
X45611Y-40609D01*
X45550Y-40886D01*
X45513Y-41167D01*
X45500Y-41450D01*
X52000Y-41450D02*
X51987Y-41167D01*
X51950Y-40886D01*
X51889Y-40609D01*
X51804Y-40339D01*
X51695Y-40077D01*
X51564Y-39826D01*
X51412Y-39586D01*
X51239Y-39361D01*
X51048Y-39152D01*
X50839Y-38961D01*
X50614Y-38788D01*
X50375Y-38636D01*
X50123Y-38505D01*
X49861Y-38396D01*
X49591Y-38311D01*
X49314Y-38250D01*
X49033Y-38213D01*
X48750Y-38200D01*
X22000Y-50000D02*
X23000Y-50000D01*
X29500Y-50000D02*
X30500Y-50000D01*
X37000Y-50000D02*
X38000Y-50000D01*
X44500Y-50000D02*
X45500Y-50000D01*
G54D10*
X28050Y-38575D02*
X27425Y-38575D01*
X27425Y-38575D02*
X27425Y-39425D01*
X27425Y-39425D02*
X28050Y-39425D01*
X28350Y-39425D02*
X28950Y-39425D01*
X28950Y-39425D02*
X28975Y-39425D01*
X28975Y-39425D02*
X28975Y-38575D01*
X28975Y-38575D02*
X28350Y-38575D01*
X20750Y-52975D02*
X21375Y-52975D01*
X21375Y-52975D02*
X21375Y-52125D01*
X21375Y-52125D02*
X20750Y-52125D01*
X20450Y-52125D02*
X19850Y-52125D01*
X19850Y-52125D02*
X19825Y-52125D01*
X19825Y-52125D02*
X19825Y-52975D01*
X19825Y-52975D02*
X20450Y-52975D01*
X20450Y-40325D02*
X19825Y-40325D01*
X19825Y-40325D02*
X19825Y-41175D01*
X19825Y-41175D02*
X20450Y-41175D01*
X20750Y-41175D02*
X21350Y-41175D01*
X21350Y-41175D02*
X21375Y-41175D01*
X21375Y-41175D02*
X21375Y-40325D01*
X21375Y-40325D02*
X20750Y-40325D01*
X20450Y-48325D02*
X19825Y-48325D01*
X19825Y-48325D02*
X19825Y-49175D01*
X19825Y-49175D02*
X20450Y-49175D01*
X20750Y-49175D02*
X21350Y-49175D01*
X21350Y-49175D02*
X21375Y-49175D01*
X21375Y-49175D02*
X21375Y-48325D01*
X21375Y-48325D02*
X20750Y-48325D01*
X28050Y-46575D02*
X27425Y-46575D01*
X27425Y-46575D02*
X27425Y-47425D01*
X27425Y-47425D02*
X28050Y-47425D01*
X28350Y-47425D02*
X28950Y-47425D01*
X28950Y-47425D02*
X28975Y-47425D01*
X28975Y-47425D02*
X28975Y-46575D01*
X28975Y-46575D02*
X28350Y-46575D01*
X43050Y-38575D02*
X42425Y-38575D01*
X42425Y-38575D02*
X42425Y-39425D01*
X42425Y-39425D02*
X43050Y-39425D01*
X43350Y-39425D02*
X43950Y-39425D01*
X43950Y-39425D02*
X43975Y-39425D01*
X43975Y-39425D02*
X43975Y-38575D01*
X43975Y-38575D02*
X43350Y-38575D01*
X43050Y-46575D02*
X42425Y-46575D01*
X42425Y-46575D02*
X42425Y-47425D01*
X42425Y-47425D02*
X43050Y-47425D01*
X43350Y-47425D02*
X43950Y-47425D01*
X43950Y-47425D02*
X43975Y-47425D01*
X43975Y-47425D02*
X43975Y-46575D01*
X43975Y-46575D02*
X43350Y-46575D01*
X50550Y-41775D02*
X49925Y-41775D01*
X49925Y-41775D02*
X49925Y-42625D01*
X49925Y-42625D02*
X50550Y-42625D01*
X50850Y-42625D02*
X51450Y-42625D01*
X51450Y-42625D02*
X51475Y-42625D01*
X51475Y-42625D02*
X51475Y-41775D01*
X51475Y-41775D02*
X50850Y-41775D01*
X21325Y-32425D02*
X20700Y-32425D01*
X20700Y-32425D02*
X20700Y-33275D01*
X20700Y-33275D02*
X21325Y-33275D01*
X21625Y-33275D02*
X22225Y-33275D01*
X22225Y-33275D02*
X22250Y-33275D01*
X22250Y-33275D02*
X22250Y-32425D01*
X22250Y-32425D02*
X21625Y-32425D01*
X25650Y-33275D02*
X26275Y-33275D01*
X26275Y-33275D02*
X26275Y-32425D01*
X26275Y-32425D02*
X25650Y-32425D01*
X25350Y-32425D02*
X24750Y-32425D01*
X24750Y-32425D02*
X24725Y-32425D01*
X24725Y-32425D02*
X24725Y-33275D01*
X24725Y-33275D02*
X25350Y-33275D01*
X26100Y-54575D02*
X25475Y-54575D01*
X25475Y-54575D02*
X25475Y-55425D01*
X25475Y-55425D02*
X26100Y-55425D01*
X26400Y-55425D02*
X27000Y-55425D01*
X27000Y-55425D02*
X27025Y-55425D01*
X27025Y-55425D02*
X27025Y-54575D01*
X27025Y-54575D02*
X26400Y-54575D01*
X37015Y-41450D02*
X37015Y-42075D01*
X37015Y-42075D02*
X37865Y-42075D01*
X37865Y-42075D02*
X37865Y-41450D01*
X37865Y-41150D02*
X37865Y-40550D01*
X37865Y-40550D02*
X37865Y-40525D01*
X37865Y-40525D02*
X37015Y-40525D01*
X37015Y-40525D02*
X37015Y-41150D01*
X50550Y-49775D02*
X49925Y-49775D01*
X49925Y-49775D02*
X49925Y-50625D01*
X49925Y-50625D02*
X50550Y-50625D01*
X50850Y-50625D02*
X51450Y-50625D01*
X51450Y-50625D02*
X51475Y-50625D01*
X51475Y-50625D02*
X51475Y-49775D01*
X51475Y-49775D02*
X50850Y-49775D01*
X41850Y-57325D02*
X42550Y-57325D01*
X41850Y-58175D02*
X42550Y-58175D01*
X43000Y-57325D02*
X43350Y-57325D01*
X43350Y-58175D02*
X43000Y-58175D01*
X42550Y-58175D02*
X42550Y-57325D01*
X41850Y-58175D02*
X41850Y-57325D01*
X43350Y-58175D02*
X43350Y-57325D01*
X38390Y-45725D02*
X37690Y-45725D01*
X38390Y-44875D02*
X37690Y-44875D01*
X37240Y-45725D02*
X36890Y-45725D01*
X36890Y-44875D02*
X37240Y-44875D01*
X37690Y-44875D02*
X37690Y-45725D01*
X38390Y-44875D02*
X38390Y-45725D01*
X36890Y-44875D02*
X36890Y-45725D01*
G54D11*
X38525Y-14750D02*
X38525Y-14250D01*
X43525Y-14750D02*
X43525Y-14250D01*
X43525Y-14750D02*
X43275Y-15000D01*
X43275Y-15000D02*
X42775Y-15000D01*
X42775Y-15000D02*
X42525Y-14750D01*
X42525Y-14750D02*
X42275Y-15000D01*
X42275Y-15000D02*
X41775Y-15000D01*
X41775Y-15000D02*
X41525Y-14750D01*
X41525Y-14750D02*
X41275Y-15000D01*
X41275Y-15000D02*
X40775Y-15000D01*
X40775Y-15000D02*
X40525Y-14750D01*
X40525Y-14750D02*
X40275Y-15000D01*
X40275Y-15000D02*
X39775Y-15000D01*
X39775Y-15000D02*
X39525Y-14750D01*
X39525Y-14750D02*
X39275Y-15000D01*
X39275Y-15000D02*
X38775Y-15000D01*
X38775Y-15000D02*
X38525Y-14750D01*
X38525Y-14250D02*
X38775Y-14000D01*
X38775Y-14000D02*
X39275Y-14000D01*
X39275Y-14000D02*
X39525Y-14250D01*
X39525Y-14250D02*
X39775Y-14000D01*
X39775Y-14000D02*
X40275Y-14000D01*
X40275Y-14000D02*
X40525Y-14250D01*
X40525Y-14250D02*
X40775Y-14000D01*
X40775Y-14000D02*
X41275Y-14000D01*
X41275Y-14000D02*
X41525Y-14250D01*
X41525Y-14250D02*
X41775Y-14000D01*
X41775Y-14000D02*
X42275Y-14000D01*
X42275Y-14000D02*
X42525Y-14250D01*
X42525Y-14250D02*
X42775Y-14000D01*
X42775Y-14000D02*
X43275Y-14000D01*
X43275Y-14000D02*
X43525Y-14250D01*
X43525Y-14250D02*
X43525Y-14000D01*
X43525Y-14000D02*
X44525Y-14000D01*
X44525Y-14000D02*
X44525Y-14975D01*
X44525Y-14975D02*
X44525Y-15000D01*
X44525Y-15000D02*
X43525Y-15000D01*
X43525Y-15000D02*
X43525Y-14750D01*
X38525Y-13750D02*
X38525Y-13250D01*
X43525Y-13750D02*
X43525Y-13250D01*
X43525Y-13750D02*
X43275Y-14000D01*
X43275Y-14000D02*
X42775Y-14000D01*
X42775Y-14000D02*
X42525Y-13750D01*
X42525Y-13750D02*
X42275Y-14000D01*
X42275Y-14000D02*
X41775Y-14000D01*
X41775Y-14000D02*
X41525Y-13750D01*
X41525Y-13750D02*
X41275Y-14000D01*
X41275Y-14000D02*
X40775Y-14000D01*
X40775Y-14000D02*
X40525Y-13750D01*
X40525Y-13750D02*
X40275Y-14000D01*
X40275Y-14000D02*
X39775Y-14000D01*
X39775Y-14000D02*
X39525Y-13750D01*
X39525Y-13750D02*
X39275Y-14000D01*
X39275Y-14000D02*
X38775Y-14000D01*
X38775Y-14000D02*
X38525Y-13750D01*
X38525Y-13250D02*
X38775Y-13000D01*
X38775Y-13000D02*
X39275Y-13000D01*
X39275Y-13000D02*
X39525Y-13250D01*
X39525Y-13250D02*
X39775Y-13000D01*
X39775Y-13000D02*
X40275Y-13000D01*
X40275Y-13000D02*
X40525Y-13250D01*
X40525Y-13250D02*
X40775Y-13000D01*
X40775Y-13000D02*
X41275Y-13000D01*
X41275Y-13000D02*
X41525Y-13250D01*
X41525Y-13250D02*
X41775Y-13000D01*
X41775Y-13000D02*
X42275Y-13000D01*
X42275Y-13000D02*
X42525Y-13250D01*
X42525Y-13250D02*
X42775Y-13000D01*
X42775Y-13000D02*
X43275Y-13000D01*
X43275Y-13000D02*
X43525Y-13250D01*
X43525Y-13250D02*
X43525Y-13000D01*
X43525Y-13000D02*
X44525Y-13000D01*
X44525Y-13000D02*
X44525Y-13975D01*
X44525Y-13975D02*
X44525Y-14000D01*
X44525Y-14000D02*
X43525Y-14000D01*
X43525Y-14000D02*
X43525Y-13750D01*
G54D13*
X33760Y-42375D02*
X33760Y-42625D01*
X33635Y-42500D02*
X33635Y-42250D01*
X33635Y-42250D02*
X33885Y-42500D01*
X33885Y-42500D02*
X33635Y-42750D01*
X33635Y-42750D02*
X33635Y-42500D01*
X34835Y-43225D02*
X35135Y-43225D01*
X34835Y-41775D02*
X35135Y-41775D01*
X35135Y-43225D02*
X35135Y-41775D01*
X34985Y-41775D02*
X34985Y-43225D01*
X33960Y-41775D02*
X34835Y-41775D01*
X34835Y-41775D02*
X34835Y-43225D01*
X34835Y-43225D02*
X33960Y-43225D01*
X33560Y-41775D02*
X32685Y-41775D01*
X32685Y-41775D02*
X32685Y-43225D01*
X32685Y-43225D02*
X33560Y-43225D01*
X33760Y-38375D02*
X33760Y-38625D01*
X33635Y-38500D02*
X33635Y-38250D01*
X33635Y-38250D02*
X33885Y-38500D01*
X33885Y-38500D02*
X33635Y-38750D01*
X33635Y-38750D02*
X33635Y-38500D01*
X34835Y-39225D02*
X35135Y-39225D01*
X34835Y-37775D02*
X35135Y-37775D01*
X35135Y-39225D02*
X35135Y-37775D01*
X34985Y-37775D02*
X34985Y-39225D01*
X33960Y-37775D02*
X34835Y-37775D01*
X34835Y-37775D02*
X34835Y-39225D01*
X34835Y-39225D02*
X33960Y-39225D01*
X33560Y-37775D02*
X32685Y-37775D01*
X32685Y-37775D02*
X32685Y-39225D01*
X32685Y-39225D02*
X33560Y-39225D01*
X33650Y-34375D02*
X33650Y-34625D01*
X33525Y-34500D02*
X33525Y-34250D01*
X33525Y-34250D02*
X33775Y-34500D01*
X33775Y-34500D02*
X33525Y-34750D01*
X33525Y-34750D02*
X33525Y-34500D01*
X34725Y-35225D02*
X35025Y-35225D01*
X34725Y-33775D02*
X35025Y-33775D01*
X35025Y-35225D02*
X35025Y-33775D01*
X34875Y-33775D02*
X34875Y-35225D01*
X33850Y-33775D02*
X34725Y-33775D01*
X34725Y-33775D02*
X34725Y-35225D01*
X34725Y-35225D02*
X33850Y-35225D01*
X33450Y-33775D02*
X32575Y-33775D01*
X32575Y-33775D02*
X32575Y-35225D01*
X32575Y-35225D02*
X33450Y-35225D01*
X33750Y-30375D02*
X33750Y-30625D01*
X33625Y-30500D02*
X33625Y-30250D01*
X33625Y-30250D02*
X33875Y-30500D01*
X33875Y-30500D02*
X33625Y-30750D01*
X33625Y-30750D02*
X33625Y-30500D01*
X34825Y-31225D02*
X35125Y-31225D01*
X34825Y-29775D02*
X35125Y-29775D01*
X35125Y-31225D02*
X35125Y-29775D01*
X34975Y-29775D02*
X34975Y-31225D01*
X33950Y-29775D02*
X34825Y-29775D01*
X34825Y-29775D02*
X34825Y-31225D01*
X34825Y-31225D02*
X33950Y-31225D01*
X33550Y-29775D02*
X32675Y-29775D01*
X32675Y-29775D02*
X32675Y-31225D01*
X32675Y-31225D02*
X33550Y-31225D01*
X33750Y-26375D02*
X33750Y-26625D01*
X33625Y-26500D02*
X33625Y-26250D01*
X33625Y-26250D02*
X33875Y-26500D01*
X33875Y-26500D02*
X33625Y-26750D01*
X33625Y-26750D02*
X33625Y-26500D01*
X34825Y-27225D02*
X35125Y-27225D01*
X34825Y-25775D02*
X35125Y-25775D01*
X35125Y-27225D02*
X35125Y-25775D01*
X34975Y-25775D02*
X34975Y-27225D01*
X33950Y-25775D02*
X34825Y-25775D01*
X34825Y-25775D02*
X34825Y-27225D01*
X34825Y-27225D02*
X33950Y-27225D01*
X33550Y-25775D02*
X32675Y-25775D01*
X32675Y-25775D02*
X32675Y-27225D01*
X32675Y-27225D02*
X33550Y-27225D01*
X33750Y-22375D02*
X33750Y-22625D01*
X33625Y-22500D02*
X33625Y-22250D01*
X33625Y-22250D02*
X33875Y-22500D01*
X33875Y-22500D02*
X33625Y-22750D01*
X33625Y-22750D02*
X33625Y-22500D01*
X34825Y-23225D02*
X35125Y-23225D01*
X34825Y-21775D02*
X35125Y-21775D01*
X35125Y-23225D02*
X35125Y-21775D01*
X34975Y-21775D02*
X34975Y-23225D01*
X33950Y-21775D02*
X34825Y-21775D01*
X34825Y-21775D02*
X34825Y-23225D01*
X34825Y-23225D02*
X33950Y-23225D01*
X33550Y-21775D02*
X32675Y-21775D01*
X32675Y-21775D02*
X32675Y-23225D01*
X32675Y-23225D02*
X33550Y-23225D01*
X33750Y-18375D02*
X33750Y-18625D01*
X33625Y-18500D02*
X33625Y-18250D01*
X33625Y-18250D02*
X33875Y-18500D01*
X33875Y-18500D02*
X33625Y-18750D01*
X33625Y-18750D02*
X33625Y-18500D01*
X34825Y-19225D02*
X35125Y-19225D01*
X34825Y-17775D02*
X35125Y-17775D01*
X35125Y-19225D02*
X35125Y-17775D01*
X34975Y-17775D02*
X34975Y-19225D01*
X33950Y-17775D02*
X34825Y-17775D01*
X34825Y-17775D02*
X34825Y-19225D01*
X34825Y-19225D02*
X33950Y-19225D01*
X33550Y-17775D02*
X32675Y-17775D01*
X32675Y-17775D02*
X32675Y-19225D01*
X32675Y-19225D02*
X33550Y-19225D01*
X33750Y-14375D02*
X33750Y-14625D01*
X33625Y-14500D02*
X33625Y-14250D01*
X33625Y-14250D02*
X33875Y-14500D01*
X33875Y-14500D02*
X33625Y-14750D01*
X33625Y-14750D02*
X33625Y-14500D01*
X34825Y-15225D02*
X35125Y-15225D01*
X34825Y-13775D02*
X35125Y-13775D01*
X35125Y-15225D02*
X35125Y-13775D01*
X34975Y-13775D02*
X34975Y-15225D01*
X33950Y-13775D02*
X34825Y-13775D01*
X34825Y-13775D02*
X34825Y-15225D01*
X34825Y-15225D02*
X33950Y-15225D01*
X33550Y-13775D02*
X32675Y-13775D01*
X32675Y-13775D02*
X32675Y-15225D01*
X32675Y-15225D02*
X33550Y-15225D01*
X48750Y-52075D02*
X48750Y-52325D01*
X48625Y-52200D02*
X48625Y-51950D01*
X48625Y-51950D02*
X48875Y-52200D01*
X48875Y-52200D02*
X48625Y-52450D01*
X48625Y-52450D02*
X48625Y-52200D01*
X49825Y-52925D02*
X50125Y-52925D01*
X49825Y-51475D02*
X50125Y-51475D01*
X50125Y-52925D02*
X50125Y-51475D01*
X49975Y-51475D02*
X49975Y-52925D01*
X48950Y-51475D02*
X49825Y-51475D01*
X49825Y-51475D02*
X49825Y-52925D01*
X49825Y-52925D02*
X48950Y-52925D01*
X48550Y-51475D02*
X47675Y-51475D01*
X47675Y-51475D02*
X47675Y-52925D01*
X47675Y-52925D02*
X48550Y-52925D01*
X48750Y-48075D02*
X48750Y-48325D01*
X48625Y-48200D02*
X48625Y-47950D01*
X48625Y-47950D02*
X48875Y-48200D01*
X48875Y-48200D02*
X48625Y-48450D01*
X48625Y-48450D02*
X48625Y-48200D01*
X49825Y-48925D02*
X50125Y-48925D01*
X49825Y-47475D02*
X50125Y-47475D01*
X50125Y-48925D02*
X50125Y-47475D01*
X49975Y-47475D02*
X49975Y-48925D01*
X48950Y-47475D02*
X49825Y-47475D01*
X49825Y-47475D02*
X49825Y-48925D01*
X49825Y-48925D02*
X48950Y-48925D01*
X48550Y-47475D02*
X47675Y-47475D01*
X47675Y-47475D02*
X47675Y-48925D01*
X47675Y-48925D02*
X48550Y-48925D01*
X48750Y-44075D02*
X48750Y-44325D01*
X48625Y-44200D02*
X48625Y-43950D01*
X48625Y-43950D02*
X48875Y-44200D01*
X48875Y-44200D02*
X48625Y-44450D01*
X48625Y-44450D02*
X48625Y-44200D01*
X49825Y-44925D02*
X50125Y-44925D01*
X49825Y-43475D02*
X50125Y-43475D01*
X50125Y-44925D02*
X50125Y-43475D01*
X49975Y-43475D02*
X49975Y-44925D01*
X48950Y-43475D02*
X49825Y-43475D01*
X49825Y-43475D02*
X49825Y-44925D01*
X49825Y-44925D02*
X48950Y-44925D01*
X48550Y-43475D02*
X47675Y-43475D01*
X47675Y-43475D02*
X47675Y-44925D01*
X47675Y-44925D02*
X48550Y-44925D01*
X48750Y-40075D02*
X48750Y-40325D01*
X48625Y-40200D02*
X48625Y-39950D01*
X48625Y-39950D02*
X48875Y-40200D01*
X48875Y-40200D02*
X48625Y-40450D01*
X48625Y-40450D02*
X48625Y-40200D01*
X49825Y-40925D02*
X50125Y-40925D01*
X49825Y-39475D02*
X50125Y-39475D01*
X50125Y-40925D02*
X50125Y-39475D01*
X49975Y-39475D02*
X49975Y-40925D01*
X48950Y-39475D02*
X49825Y-39475D01*
X49825Y-39475D02*
X49825Y-40925D01*
X49825Y-40925D02*
X48950Y-40925D01*
X48550Y-39475D02*
X47675Y-39475D01*
X47675Y-39475D02*
X47675Y-40925D01*
X47675Y-40925D02*
X48550Y-40925D01*
X41250Y-48875D02*
X41250Y-49125D01*
X41125Y-49000D02*
X41125Y-48750D01*
X41125Y-48750D02*
X41375Y-49000D01*
X41375Y-49000D02*
X41125Y-49250D01*
X41125Y-49250D02*
X41125Y-49000D01*
X42325Y-49725D02*
X42625Y-49725D01*
X42325Y-48275D02*
X42625Y-48275D01*
X42625Y-49725D02*
X42625Y-48275D01*
X42475Y-48275D02*
X42475Y-49725D01*
X41450Y-48275D02*
X42325Y-48275D01*
X42325Y-48275D02*
X42325Y-49725D01*
X42325Y-49725D02*
X41450Y-49725D01*
X41050Y-48275D02*
X40175Y-48275D01*
X40175Y-48275D02*
X40175Y-49725D01*
X40175Y-49725D02*
X41050Y-49725D01*
X41250Y-44875D02*
X41250Y-45125D01*
X41125Y-45000D02*
X41125Y-44750D01*
X41125Y-44750D02*
X41375Y-45000D01*
X41375Y-45000D02*
X41125Y-45250D01*
X41125Y-45250D02*
X41125Y-45000D01*
X42325Y-45725D02*
X42625Y-45725D01*
X42325Y-44275D02*
X42625Y-44275D01*
X42625Y-45725D02*
X42625Y-44275D01*
X42475Y-44275D02*
X42475Y-45725D01*
X41450Y-44275D02*
X42325Y-44275D01*
X42325Y-44275D02*
X42325Y-45725D01*
X42325Y-45725D02*
X41450Y-45725D01*
X41050Y-44275D02*
X40175Y-44275D01*
X40175Y-44275D02*
X40175Y-45725D01*
X40175Y-45725D02*
X41050Y-45725D01*
X41250Y-40875D02*
X41250Y-41125D01*
X41125Y-41000D02*
X41125Y-40750D01*
X41125Y-40750D02*
X41375Y-41000D01*
X41375Y-41000D02*
X41125Y-41250D01*
X41125Y-41250D02*
X41125Y-41000D01*
X42325Y-41725D02*
X42625Y-41725D01*
X42325Y-40275D02*
X42625Y-40275D01*
X42625Y-41725D02*
X42625Y-40275D01*
X42475Y-40275D02*
X42475Y-41725D01*
X41450Y-40275D02*
X42325Y-40275D01*
X42325Y-40275D02*
X42325Y-41725D01*
X42325Y-41725D02*
X41450Y-41725D01*
X41050Y-40275D02*
X40175Y-40275D01*
X40175Y-40275D02*
X40175Y-41725D01*
X40175Y-41725D02*
X41050Y-41725D01*
X41250Y-36875D02*
X41250Y-37125D01*
X41125Y-37000D02*
X41125Y-36750D01*
X41125Y-36750D02*
X41375Y-37000D01*
X41375Y-37000D02*
X41125Y-37250D01*
X41125Y-37250D02*
X41125Y-37000D01*
X42325Y-37725D02*
X42625Y-37725D01*
X42325Y-36275D02*
X42625Y-36275D01*
X42625Y-37725D02*
X42625Y-36275D01*
X42475Y-36275D02*
X42475Y-37725D01*
X41450Y-36275D02*
X42325Y-36275D01*
X42325Y-36275D02*
X42325Y-37725D01*
X42325Y-37725D02*
X41450Y-37725D01*
X41050Y-36275D02*
X40175Y-36275D01*
X40175Y-36275D02*
X40175Y-37725D01*
X40175Y-37725D02*
X41050Y-37725D01*
X26250Y-48875D02*
X26250Y-49125D01*
X26125Y-49000D02*
X26125Y-48750D01*
X26125Y-48750D02*
X26375Y-49000D01*
X26375Y-49000D02*
X26125Y-49250D01*
X26125Y-49250D02*
X26125Y-49000D01*
X27325Y-49725D02*
X27625Y-49725D01*
X27325Y-48275D02*
X27625Y-48275D01*
X27625Y-49725D02*
X27625Y-48275D01*
X27475Y-48275D02*
X27475Y-49725D01*
X26450Y-48275D02*
X27325Y-48275D01*
X27325Y-48275D02*
X27325Y-49725D01*
X27325Y-49725D02*
X26450Y-49725D01*
X26050Y-48275D02*
X25175Y-48275D01*
X25175Y-48275D02*
X25175Y-49725D01*
X25175Y-49725D02*
X26050Y-49725D01*
X26250Y-44875D02*
X26250Y-45125D01*
X26125Y-45000D02*
X26125Y-44750D01*
X26125Y-44750D02*
X26375Y-45000D01*
X26375Y-45000D02*
X26125Y-45250D01*
X26125Y-45250D02*
X26125Y-45000D01*
X27325Y-45725D02*
X27625Y-45725D01*
X27325Y-44275D02*
X27625Y-44275D01*
X27625Y-45725D02*
X27625Y-44275D01*
X27475Y-44275D02*
X27475Y-45725D01*
X26450Y-44275D02*
X27325Y-44275D01*
X27325Y-44275D02*
X27325Y-45725D01*
X27325Y-45725D02*
X26450Y-45725D01*
X26050Y-44275D02*
X25175Y-44275D01*
X25175Y-44275D02*
X25175Y-45725D01*
X25175Y-45725D02*
X26050Y-45725D01*
X26250Y-40875D02*
X26250Y-41125D01*
X26125Y-41000D02*
X26125Y-40750D01*
X26125Y-40750D02*
X26375Y-41000D01*
X26375Y-41000D02*
X26125Y-41250D01*
X26125Y-41250D02*
X26125Y-41000D01*
X27325Y-41725D02*
X27625Y-41725D01*
X27325Y-40275D02*
X27625Y-40275D01*
X27625Y-41725D02*
X27625Y-40275D01*
X27475Y-40275D02*
X27475Y-41725D01*
X26450Y-40275D02*
X27325Y-40275D01*
X27325Y-40275D02*
X27325Y-41725D01*
X27325Y-41725D02*
X26450Y-41725D01*
X26050Y-40275D02*
X25175Y-40275D01*
X25175Y-40275D02*
X25175Y-41725D01*
X25175Y-41725D02*
X26050Y-41725D01*
X26250Y-36875D02*
X26250Y-37125D01*
X26125Y-37000D02*
X26125Y-36750D01*
X26125Y-36750D02*
X26375Y-37000D01*
X26375Y-37000D02*
X26125Y-37250D01*
X26125Y-37250D02*
X26125Y-37000D01*
X27325Y-37725D02*
X27625Y-37725D01*
X27325Y-36275D02*
X27625Y-36275D01*
X27625Y-37725D02*
X27625Y-36275D01*
X27475Y-36275D02*
X27475Y-37725D01*
X26450Y-36275D02*
X27325Y-36275D01*
X27325Y-36275D02*
X27325Y-37725D01*
X27325Y-37725D02*
X26450Y-37725D01*
X26050Y-36275D02*
X25175Y-36275D01*
X25175Y-36275D02*
X25175Y-37725D01*
X25175Y-37725D02*
X26050Y-37725D01*
X41250Y-52875D02*
X41250Y-53125D01*
X41125Y-53000D02*
X41125Y-52750D01*
X41125Y-52750D02*
X41375Y-53000D01*
X41375Y-53000D02*
X41125Y-53250D01*
X41125Y-53250D02*
X41125Y-53000D01*
X42325Y-53725D02*
X42625Y-53725D01*
X42325Y-52275D02*
X42625Y-52275D01*
X42625Y-53725D02*
X42625Y-52275D01*
X42475Y-52275D02*
X42475Y-53725D01*
X41450Y-52275D02*
X42325Y-52275D01*
X42325Y-52275D02*
X42325Y-53725D01*
X42325Y-53725D02*
X41450Y-53725D01*
X41050Y-52275D02*
X40175Y-52275D01*
X40175Y-52275D02*
X40175Y-53725D01*
X40175Y-53725D02*
X41050Y-53725D01*
X26250Y-52875D02*
X26250Y-53125D01*
X26125Y-53000D02*
X26125Y-52750D01*
X26125Y-52750D02*
X26375Y-53000D01*
X26375Y-53000D02*
X26125Y-53250D01*
X26125Y-53250D02*
X26125Y-53000D01*
X27325Y-53725D02*
X27625Y-53725D01*
X27325Y-52275D02*
X27625Y-52275D01*
X27625Y-53725D02*
X27625Y-52275D01*
X27475Y-52275D02*
X27475Y-53725D01*
X26450Y-52275D02*
X27325Y-52275D01*
X27325Y-52275D02*
X27325Y-53725D01*
X27325Y-53725D02*
X26450Y-53725D01*
X26050Y-52275D02*
X25175Y-52275D01*
X25175Y-52275D02*
X25175Y-53725D01*
X25175Y-53725D02*
X26050Y-53725D01*
X18500Y-50625D02*
X18500Y-50875D01*
X18375Y-50750D02*
X18375Y-50500D01*
X18375Y-50500D02*
X18625Y-50750D01*
X18625Y-50750D02*
X18375Y-51000D01*
X18375Y-51000D02*
X18375Y-50750D01*
X19575Y-51475D02*
X19875Y-51475D01*
X19575Y-50025D02*
X19875Y-50025D01*
X19875Y-51475D02*
X19875Y-50025D01*
X19725Y-50025D02*
X19725Y-51475D01*
X18700Y-50025D02*
X19575Y-50025D01*
X19575Y-50025D02*
X19575Y-51475D01*
X19575Y-51475D02*
X18700Y-51475D01*
X18300Y-50025D02*
X17425Y-50025D01*
X17425Y-50025D02*
X17425Y-51475D01*
X17425Y-51475D02*
X18300Y-51475D01*
X18500Y-46625D02*
X18500Y-46875D01*
X18375Y-46750D02*
X18375Y-46500D01*
X18375Y-46500D02*
X18625Y-46750D01*
X18625Y-46750D02*
X18375Y-47000D01*
X18375Y-47000D02*
X18375Y-46750D01*
X19575Y-47475D02*
X19875Y-47475D01*
X19575Y-46025D02*
X19875Y-46025D01*
X19875Y-47475D02*
X19875Y-46025D01*
X19725Y-46025D02*
X19725Y-47475D01*
X18700Y-46025D02*
X19575Y-46025D01*
X19575Y-46025D02*
X19575Y-47475D01*
X19575Y-47475D02*
X18700Y-47475D01*
X18300Y-46025D02*
X17425Y-46025D01*
X17425Y-46025D02*
X17425Y-47475D01*
X17425Y-47475D02*
X18300Y-47475D01*
X18500Y-42625D02*
X18500Y-42875D01*
X18375Y-42750D02*
X18375Y-42500D01*
X18375Y-42500D02*
X18625Y-42750D01*
X18625Y-42750D02*
X18375Y-43000D01*
X18375Y-43000D02*
X18375Y-42750D01*
X19575Y-43475D02*
X19875Y-43475D01*
X19575Y-42025D02*
X19875Y-42025D01*
X19875Y-43475D02*
X19875Y-42025D01*
X19725Y-42025D02*
X19725Y-43475D01*
X18700Y-42025D02*
X19575Y-42025D01*
X19575Y-42025D02*
X19575Y-43475D01*
X19575Y-43475D02*
X18700Y-43475D01*
X18300Y-42025D02*
X17425Y-42025D01*
X17425Y-42025D02*
X17425Y-43475D01*
X17425Y-43475D02*
X18300Y-43475D01*
X18500Y-38625D02*
X18500Y-38875D01*
X18375Y-38750D02*
X18375Y-38500D01*
X18375Y-38500D02*
X18625Y-38750D01*
X18625Y-38750D02*
X18375Y-39000D01*
X18375Y-39000D02*
X18375Y-38750D01*
X19575Y-39475D02*
X19875Y-39475D01*
X19575Y-38025D02*
X19875Y-38025D01*
X19875Y-39475D02*
X19875Y-38025D01*
X19725Y-38025D02*
X19725Y-39475D01*
X18700Y-38025D02*
X19575Y-38025D01*
X19575Y-38025D02*
X19575Y-39475D01*
X19575Y-39475D02*
X18700Y-39475D01*
X18300Y-38025D02*
X17425Y-38025D01*
X17425Y-38025D02*
X17425Y-39475D01*
X17425Y-39475D02*
X18300Y-39475D01*
X18500Y-34625D02*
X18500Y-34875D01*
X18375Y-34750D02*
X18375Y-34500D01*
X18375Y-34500D02*
X18625Y-34750D01*
X18625Y-34750D02*
X18375Y-35000D01*
X18375Y-35000D02*
X18375Y-34750D01*
X19575Y-35475D02*
X19875Y-35475D01*
X19575Y-34025D02*
X19875Y-34025D01*
X19875Y-35475D02*
X19875Y-34025D01*
X19725Y-34025D02*
X19725Y-35475D01*
X18700Y-34025D02*
X19575Y-34025D01*
X19575Y-34025D02*
X19575Y-35475D01*
X19575Y-35475D02*
X18700Y-35475D01*
X18300Y-34025D02*
X17425Y-34025D01*
X17425Y-34025D02*
X17425Y-35475D01*
X17425Y-35475D02*
X18300Y-35475D01*
X19500Y-30625D02*
X19500Y-30875D01*
X19375Y-30750D02*
X19375Y-30500D01*
X19375Y-30500D02*
X19625Y-30750D01*
X19625Y-30750D02*
X19375Y-31000D01*
X19375Y-31000D02*
X19375Y-30750D01*
X20575Y-31475D02*
X20875Y-31475D01*
X20575Y-30025D02*
X20875Y-30025D01*
X20875Y-31475D02*
X20875Y-30025D01*
X20725Y-30025D02*
X20725Y-31475D01*
X19700Y-30025D02*
X20575Y-30025D01*
X20575Y-30025D02*
X20575Y-31475D01*
X20575Y-31475D02*
X19700Y-31475D01*
X19300Y-30025D02*
X18425Y-30025D01*
X18425Y-30025D02*
X18425Y-31475D01*
X18425Y-31475D02*
X19300Y-31475D01*
X23500Y-30625D02*
X23500Y-30875D01*
X23375Y-30750D02*
X23375Y-30500D01*
X23375Y-30500D02*
X23625Y-30750D01*
X23625Y-30750D02*
X23375Y-31000D01*
X23375Y-31000D02*
X23375Y-30750D01*
X24575Y-31475D02*
X24875Y-31475D01*
X24575Y-30025D02*
X24875Y-30025D01*
X24875Y-31475D02*
X24875Y-30025D01*
X24725Y-30025D02*
X24725Y-31475D01*
X23700Y-30025D02*
X24575Y-30025D01*
X24575Y-30025D02*
X24575Y-31475D01*
X24575Y-31475D02*
X23700Y-31475D01*
X23300Y-30025D02*
X22425Y-30025D01*
X22425Y-30025D02*
X22425Y-31475D01*
X22425Y-31475D02*
X23300Y-31475D01*
X27500Y-30625D02*
X27500Y-30875D01*
X27375Y-30750D02*
X27375Y-30500D01*
X27375Y-30500D02*
X27625Y-30750D01*
X27625Y-30750D02*
X27375Y-31000D01*
X27375Y-31000D02*
X27375Y-30750D01*
X28575Y-31475D02*
X28875Y-31475D01*
X28575Y-30025D02*
X28875Y-30025D01*
X28875Y-31475D02*
X28875Y-30025D01*
X28725Y-30025D02*
X28725Y-31475D01*
X27700Y-30025D02*
X28575Y-30025D01*
X28575Y-30025D02*
X28575Y-31475D01*
X28575Y-31475D02*
X27700Y-31475D01*
X27300Y-30025D02*
X26425Y-30025D01*
X26425Y-30025D02*
X26425Y-31475D01*
X26425Y-31475D02*
X27300Y-31475D01*
X22375Y-54850D02*
X22375Y-53355D01*
X22375Y-53355D02*
X23725Y-53355D01*
X23725Y-53355D02*
X23725Y-56345D01*
X22375Y-54850D02*
X22375Y-56345D01*
X22375Y-56345D02*
X23725Y-56345D01*
G54D14*
X28007Y-39831D02*
X27907Y-39689D01*
X27835Y-39831D02*
X27835Y-39531D01*
X27950Y-39531D01*
X27978Y-39546D01*
X27993Y-39560D01*
X28007Y-39589D01*
X28007Y-39631D01*
X27993Y-39660D01*
X27978Y-39674D01*
X27950Y-39689D01*
X27835Y-39689D01*
X28293Y-39831D02*
X28121Y-39831D01*
X28207Y-39831D02*
X28207Y-39531D01*
X28178Y-39574D01*
X28150Y-39603D01*
X28121Y-39617D01*
X28393Y-39531D02*
X28579Y-39531D01*
X28479Y-39646D01*
X28521Y-39646D01*
X28550Y-39660D01*
X28564Y-39674D01*
X28579Y-39703D01*
X28579Y-39774D01*
X28564Y-39803D01*
X28550Y-39817D01*
X28521Y-39831D01*
X28436Y-39831D01*
X28407Y-39817D01*
X28393Y-39803D01*
X20407Y-53381D02*
X20307Y-53239D01*
X20235Y-53381D02*
X20235Y-53081D01*
X20350Y-53081D01*
X20378Y-53096D01*
X20393Y-53110D01*
X20407Y-53139D01*
X20407Y-53181D01*
X20393Y-53210D01*
X20378Y-53224D01*
X20350Y-53239D01*
X20235Y-53239D01*
X20693Y-53381D02*
X20521Y-53381D01*
X20607Y-53381D02*
X20607Y-53081D01*
X20578Y-53124D01*
X20550Y-53153D01*
X20521Y-53167D01*
X20807Y-53110D02*
X20821Y-53096D01*
X20850Y-53081D01*
X20921Y-53081D01*
X20950Y-53096D01*
X20964Y-53110D01*
X20979Y-53139D01*
X20979Y-53167D01*
X20964Y-53210D01*
X20793Y-53381D01*
X20979Y-53381D01*
X20407Y-41581D02*
X20307Y-41439D01*
X20235Y-41581D02*
X20235Y-41281D01*
X20350Y-41281D01*
X20378Y-41296D01*
X20393Y-41310D01*
X20407Y-41339D01*
X20407Y-41381D01*
X20393Y-41410D01*
X20378Y-41424D01*
X20350Y-41439D01*
X20235Y-41439D01*
X20693Y-41581D02*
X20521Y-41581D01*
X20607Y-41581D02*
X20607Y-41281D01*
X20578Y-41324D01*
X20550Y-41353D01*
X20521Y-41367D01*
X20879Y-41281D02*
X20907Y-41281D01*
X20936Y-41296D01*
X20950Y-41310D01*
X20964Y-41339D01*
X20979Y-41396D01*
X20979Y-41467D01*
X20964Y-41524D01*
X20950Y-41553D01*
X20936Y-41567D01*
X20907Y-41581D01*
X20879Y-41581D01*
X20850Y-41567D01*
X20836Y-41553D01*
X20821Y-41524D01*
X20807Y-41467D01*
X20807Y-41396D01*
X20821Y-41339D01*
X20836Y-41310D01*
X20850Y-41296D01*
X20879Y-41281D01*
X20407Y-49581D02*
X20307Y-49439D01*
X20235Y-49581D02*
X20235Y-49281D01*
X20350Y-49281D01*
X20378Y-49296D01*
X20393Y-49310D01*
X20407Y-49339D01*
X20407Y-49381D01*
X20393Y-49410D01*
X20378Y-49424D01*
X20350Y-49439D01*
X20235Y-49439D01*
X20693Y-49581D02*
X20521Y-49581D01*
X20607Y-49581D02*
X20607Y-49281D01*
X20578Y-49324D01*
X20550Y-49353D01*
X20521Y-49367D01*
X20979Y-49581D02*
X20807Y-49581D01*
X20893Y-49581D02*
X20893Y-49281D01*
X20864Y-49324D01*
X20836Y-49353D01*
X20807Y-49367D01*
X28007Y-47831D02*
X27907Y-47689D01*
X27835Y-47831D02*
X27835Y-47531D01*
X27950Y-47531D01*
X27978Y-47546D01*
X27993Y-47560D01*
X28007Y-47589D01*
X28007Y-47631D01*
X27993Y-47660D01*
X27978Y-47674D01*
X27950Y-47689D01*
X27835Y-47689D01*
X28293Y-47831D02*
X28121Y-47831D01*
X28207Y-47831D02*
X28207Y-47531D01*
X28178Y-47574D01*
X28150Y-47603D01*
X28121Y-47617D01*
X28550Y-47631D02*
X28550Y-47831D01*
X28479Y-47517D02*
X28407Y-47731D01*
X28593Y-47731D01*
X43007Y-39831D02*
X42907Y-39689D01*
X42835Y-39831D02*
X42835Y-39531D01*
X42950Y-39531D01*
X42978Y-39546D01*
X42993Y-39560D01*
X43007Y-39589D01*
X43007Y-39631D01*
X42993Y-39660D01*
X42978Y-39674D01*
X42950Y-39689D01*
X42835Y-39689D01*
X43293Y-39831D02*
X43121Y-39831D01*
X43207Y-39831D02*
X43207Y-39531D01*
X43178Y-39574D01*
X43150Y-39603D01*
X43121Y-39617D01*
X43564Y-39531D02*
X43421Y-39531D01*
X43407Y-39674D01*
X43421Y-39660D01*
X43450Y-39646D01*
X43521Y-39646D01*
X43550Y-39660D01*
X43564Y-39674D01*
X43579Y-39703D01*
X43579Y-39774D01*
X43564Y-39803D01*
X43550Y-39817D01*
X43521Y-39831D01*
X43450Y-39831D01*
X43421Y-39817D01*
X43407Y-39803D01*
X43007Y-47831D02*
X42907Y-47689D01*
X42835Y-47831D02*
X42835Y-47531D01*
X42950Y-47531D01*
X42978Y-47546D01*
X42993Y-47560D01*
X43007Y-47589D01*
X43007Y-47631D01*
X42993Y-47660D01*
X42978Y-47674D01*
X42950Y-47689D01*
X42835Y-47689D01*
X43293Y-47831D02*
X43121Y-47831D01*
X43207Y-47831D02*
X43207Y-47531D01*
X43178Y-47574D01*
X43150Y-47603D01*
X43121Y-47617D01*
X43550Y-47531D02*
X43493Y-47531D01*
X43464Y-47546D01*
X43450Y-47560D01*
X43421Y-47603D01*
X43407Y-47660D01*
X43407Y-47774D01*
X43421Y-47803D01*
X43436Y-47817D01*
X43464Y-47831D01*
X43521Y-47831D01*
X43550Y-47817D01*
X43564Y-47803D01*
X43579Y-47774D01*
X43579Y-47703D01*
X43564Y-47674D01*
X43550Y-47660D01*
X43521Y-47646D01*
X43464Y-47646D01*
X43436Y-47660D01*
X43421Y-47674D01*
X43407Y-47703D01*
X50507Y-43031D02*
X50407Y-42889D01*
X50335Y-43031D02*
X50335Y-42731D01*
X50450Y-42731D01*
X50478Y-42746D01*
X50493Y-42760D01*
X50507Y-42789D01*
X50507Y-42831D01*
X50493Y-42860D01*
X50478Y-42874D01*
X50450Y-42889D01*
X50335Y-42889D01*
X50793Y-43031D02*
X50621Y-43031D01*
X50707Y-43031D02*
X50707Y-42731D01*
X50678Y-42774D01*
X50650Y-42803D01*
X50621Y-42817D01*
X50893Y-42731D02*
X51093Y-42731D01*
X50964Y-43031D01*
X21430Y-33681D02*
X21330Y-33539D01*
X21258Y-33681D02*
X21258Y-33381D01*
X21373Y-33381D01*
X21401Y-33396D01*
X21416Y-33410D01*
X21430Y-33439D01*
X21430Y-33481D01*
X21416Y-33510D01*
X21401Y-33524D01*
X21373Y-33539D01*
X21258Y-33539D01*
X21573Y-33681D02*
X21630Y-33681D01*
X21658Y-33667D01*
X21673Y-33653D01*
X21701Y-33610D01*
X21716Y-33553D01*
X21716Y-33439D01*
X21701Y-33410D01*
X21687Y-33396D01*
X21658Y-33381D01*
X21601Y-33381D01*
X21573Y-33396D01*
X21558Y-33410D01*
X21544Y-33439D01*
X21544Y-33510D01*
X21558Y-33539D01*
X21573Y-33553D01*
X21601Y-33567D01*
X21658Y-33567D01*
X21687Y-33553D01*
X21701Y-33539D01*
X21716Y-33510D01*
X25450Y-33681D02*
X25350Y-33539D01*
X25278Y-33681D02*
X25278Y-33381D01*
X25393Y-33381D01*
X25421Y-33396D01*
X25436Y-33410D01*
X25450Y-33439D01*
X25450Y-33481D01*
X25436Y-33510D01*
X25421Y-33524D01*
X25393Y-33539D01*
X25278Y-33539D01*
X25621Y-33510D02*
X25593Y-33496D01*
X25578Y-33481D01*
X25564Y-33453D01*
X25564Y-33439D01*
X25578Y-33410D01*
X25593Y-33396D01*
X25621Y-33381D01*
X25678Y-33381D01*
X25707Y-33396D01*
X25721Y-33410D01*
X25736Y-33439D01*
X25736Y-33453D01*
X25721Y-33481D01*
X25707Y-33496D01*
X25678Y-33510D01*
X25621Y-33510D01*
X25593Y-33524D01*
X25578Y-33539D01*
X25564Y-33567D01*
X25564Y-33624D01*
X25578Y-33653D01*
X25593Y-33667D01*
X25621Y-33681D01*
X25678Y-33681D01*
X25707Y-33667D01*
X25721Y-33653D01*
X25736Y-33624D01*
X25736Y-33567D01*
X25721Y-33539D01*
X25707Y-33524D01*
X25678Y-33510D01*
X26200Y-55831D02*
X26100Y-55689D01*
X26028Y-55831D02*
X26028Y-55531D01*
X26143Y-55531D01*
X26171Y-55546D01*
X26186Y-55560D01*
X26200Y-55589D01*
X26200Y-55631D01*
X26186Y-55660D01*
X26171Y-55674D01*
X26143Y-55689D01*
X26028Y-55689D01*
X26300Y-55531D02*
X26486Y-55531D01*
X26386Y-55646D01*
X26428Y-55646D01*
X26457Y-55660D01*
X26471Y-55674D01*
X26486Y-55703D01*
X26486Y-55774D01*
X26471Y-55803D01*
X26457Y-55817D01*
X26428Y-55831D01*
X26343Y-55831D01*
X26314Y-55817D01*
X26300Y-55803D01*
X38261Y-41350D02*
X38119Y-41450D01*
X38261Y-41522D02*
X37961Y-41522D01*
X37961Y-41407D01*
X37976Y-41379D01*
X37990Y-41364D01*
X38019Y-41350D01*
X38061Y-41350D01*
X38090Y-41364D01*
X38104Y-41379D01*
X38119Y-41407D01*
X38119Y-41522D01*
X37990Y-41236D02*
X37976Y-41222D01*
X37961Y-41193D01*
X37961Y-41122D01*
X37976Y-41093D01*
X37990Y-41079D01*
X38019Y-41064D01*
X38047Y-41064D01*
X38090Y-41079D01*
X38261Y-41250D01*
X38261Y-41064D01*
X50507Y-51031D02*
X50407Y-50889D01*
X50335Y-51031D02*
X50335Y-50731D01*
X50450Y-50731D01*
X50478Y-50746D01*
X50493Y-50760D01*
X50507Y-50789D01*
X50507Y-50831D01*
X50493Y-50860D01*
X50478Y-50874D01*
X50450Y-50889D01*
X50335Y-50889D01*
X50793Y-51031D02*
X50621Y-51031D01*
X50707Y-51031D02*
X50707Y-50731D01*
X50678Y-50774D01*
X50650Y-50803D01*
X50621Y-50817D01*
X50964Y-50860D02*
X50936Y-50846D01*
X50921Y-50831D01*
X50907Y-50803D01*
X50907Y-50789D01*
X50921Y-50760D01*
X50936Y-50746D01*
X50964Y-50731D01*
X51021Y-50731D01*
X51050Y-50746D01*
X51064Y-50760D01*
X51079Y-50789D01*
X51079Y-50803D01*
X51064Y-50831D01*
X51050Y-50846D01*
X51021Y-50860D01*
X50964Y-50860D01*
X50936Y-50874D01*
X50921Y-50889D01*
X50907Y-50917D01*
X50907Y-50974D01*
X50921Y-51003D01*
X50936Y-51017D01*
X50964Y-51031D01*
X51021Y-51031D01*
X51050Y-51017D01*
X51064Y-51003D01*
X51079Y-50974D01*
X51079Y-50917D01*
X51064Y-50889D01*
X51050Y-50874D01*
X51021Y-50860D01*
X42550Y-57193D02*
X42536Y-57207D01*
X42493Y-57221D01*
X42464Y-57221D01*
X42421Y-57207D01*
X42393Y-57179D01*
X42378Y-57150D01*
X42364Y-57093D01*
X42364Y-57050D01*
X42378Y-56993D01*
X42393Y-56964D01*
X42421Y-56936D01*
X42464Y-56921D01*
X42493Y-56921D01*
X42536Y-56936D01*
X42550Y-56950D01*
X42836Y-57221D02*
X42664Y-57221D01*
X42750Y-57221D02*
X42750Y-56921D01*
X42721Y-56964D01*
X42693Y-56993D01*
X42664Y-57007D01*
X37590Y-44743D02*
X37576Y-44757D01*
X37533Y-44771D01*
X37504Y-44771D01*
X37461Y-44757D01*
X37433Y-44729D01*
X37418Y-44700D01*
X37404Y-44643D01*
X37404Y-44600D01*
X37418Y-44543D01*
X37433Y-44514D01*
X37461Y-44486D01*
X37504Y-44471D01*
X37533Y-44471D01*
X37576Y-44486D01*
X37590Y-44500D01*
X37704Y-44500D02*
X37718Y-44486D01*
X37747Y-44471D01*
X37818Y-44471D01*
X37847Y-44486D01*
X37861Y-44500D01*
X37876Y-44529D01*
X37876Y-44557D01*
X37861Y-44600D01*
X37690Y-44771D01*
X37876Y-44771D01*
X45041Y-14722D02*
X44741Y-14722D01*
X44741Y-14607D01*
X44756Y-14579D01*
X44770Y-14564D01*
X44799Y-14550D01*
X44841Y-14550D01*
X44870Y-14564D01*
X44884Y-14579D01*
X44899Y-14607D01*
X44899Y-14722D01*
X44741Y-14293D02*
X44741Y-14350D01*
X44756Y-14379D01*
X44770Y-14393D01*
X44813Y-14422D01*
X44870Y-14436D01*
X44984Y-14436D01*
X45013Y-14422D01*
X45027Y-14407D01*
X45041Y-14379D01*
X45041Y-14322D01*
X45027Y-14293D01*
X45013Y-14279D01*
X44984Y-14264D01*
X44913Y-14264D01*
X44884Y-14279D01*
X44870Y-14293D01*
X44856Y-14322D01*
X44856Y-14379D01*
X44870Y-14407D01*
X44884Y-14422D01*
X44913Y-14436D01*
X45041Y-13722D02*
X44741Y-13722D01*
X44741Y-13607D01*
X44756Y-13579D01*
X44770Y-13564D01*
X44799Y-13550D01*
X44841Y-13550D01*
X44870Y-13564D01*
X44884Y-13579D01*
X44899Y-13607D01*
X44899Y-13722D01*
X44741Y-13279D02*
X44741Y-13422D01*
X44884Y-13436D01*
X44870Y-13422D01*
X44856Y-13393D01*
X44856Y-13322D01*
X44870Y-13293D01*
X44884Y-13279D01*
X44913Y-13264D01*
X44984Y-13264D01*
X45013Y-13279D01*
X45027Y-13293D01*
X45041Y-13322D01*
X45041Y-13393D01*
X45027Y-13422D01*
X45013Y-13436D01*
X32431Y-42515D02*
X32131Y-42515D01*
X32131Y-42443D01*
X32146Y-42400D01*
X32174Y-42372D01*
X32203Y-42357D01*
X32260Y-42343D01*
X32303Y-42343D01*
X32360Y-42357D01*
X32389Y-42372D01*
X32417Y-42400D01*
X32431Y-42443D01*
X32431Y-42515D01*
X32131Y-42086D02*
X32131Y-42143D01*
X32146Y-42172D01*
X32160Y-42186D01*
X32203Y-42215D01*
X32260Y-42229D01*
X32374Y-42229D01*
X32403Y-42215D01*
X32417Y-42200D01*
X32431Y-42172D01*
X32431Y-42115D01*
X32417Y-42086D01*
X32403Y-42072D01*
X32374Y-42057D01*
X32303Y-42057D01*
X32274Y-42072D01*
X32260Y-42086D01*
X32246Y-42115D01*
X32246Y-42172D01*
X32260Y-42200D01*
X32274Y-42215D01*
X32303Y-42229D01*
X32131Y-41871D02*
X32131Y-41843D01*
X32146Y-41814D01*
X32160Y-41800D01*
X32189Y-41786D01*
X32246Y-41771D01*
X32317Y-41771D01*
X32374Y-41786D01*
X32403Y-41800D01*
X32417Y-41814D01*
X32431Y-41843D01*
X32431Y-41871D01*
X32417Y-41900D01*
X32403Y-41914D01*
X32374Y-41929D01*
X32317Y-41943D01*
X32246Y-41943D01*
X32189Y-41929D01*
X32160Y-41914D01*
X32146Y-41900D01*
X32131Y-41871D01*
X32431Y-38515D02*
X32131Y-38515D01*
X32131Y-38443D01*
X32146Y-38400D01*
X32174Y-38372D01*
X32203Y-38357D01*
X32260Y-38343D01*
X32303Y-38343D01*
X32360Y-38357D01*
X32389Y-38372D01*
X32417Y-38400D01*
X32431Y-38443D01*
X32431Y-38515D01*
X32131Y-38072D02*
X32131Y-38215D01*
X32274Y-38229D01*
X32260Y-38215D01*
X32246Y-38186D01*
X32246Y-38115D01*
X32260Y-38086D01*
X32274Y-38072D01*
X32303Y-38057D01*
X32374Y-38057D01*
X32403Y-38072D01*
X32417Y-38086D01*
X32431Y-38115D01*
X32431Y-38186D01*
X32417Y-38215D01*
X32403Y-38229D01*
X32260Y-37886D02*
X32246Y-37914D01*
X32231Y-37929D01*
X32203Y-37943D01*
X32189Y-37943D01*
X32160Y-37929D01*
X32146Y-37914D01*
X32131Y-37886D01*
X32131Y-37829D01*
X32146Y-37800D01*
X32160Y-37786D01*
X32189Y-37771D01*
X32203Y-37771D01*
X32231Y-37786D01*
X32246Y-37800D01*
X32260Y-37829D01*
X32260Y-37886D01*
X32274Y-37914D01*
X32289Y-37929D01*
X32317Y-37943D01*
X32374Y-37943D01*
X32403Y-37929D01*
X32417Y-37914D01*
X32431Y-37886D01*
X32431Y-37829D01*
X32417Y-37800D01*
X32403Y-37786D01*
X32374Y-37771D01*
X32317Y-37771D01*
X32289Y-37786D01*
X32274Y-37800D01*
X32260Y-37829D01*
X32321Y-34515D02*
X32021Y-34515D01*
X32021Y-34443D01*
X32036Y-34400D01*
X32064Y-34372D01*
X32093Y-34357D01*
X32150Y-34343D01*
X32193Y-34343D01*
X32250Y-34357D01*
X32279Y-34372D01*
X32307Y-34400D01*
X32321Y-34443D01*
X32321Y-34515D01*
X32021Y-34072D02*
X32021Y-34215D01*
X32164Y-34229D01*
X32150Y-34215D01*
X32136Y-34186D01*
X32136Y-34115D01*
X32150Y-34086D01*
X32164Y-34072D01*
X32193Y-34057D01*
X32264Y-34057D01*
X32293Y-34072D01*
X32307Y-34086D01*
X32321Y-34115D01*
X32321Y-34186D01*
X32307Y-34215D01*
X32293Y-34229D01*
X32021Y-33800D02*
X32021Y-33857D01*
X32036Y-33886D01*
X32050Y-33900D01*
X32093Y-33929D01*
X32150Y-33943D01*
X32264Y-33943D01*
X32293Y-33929D01*
X32307Y-33914D01*
X32321Y-33886D01*
X32321Y-33829D01*
X32307Y-33800D01*
X32293Y-33786D01*
X32264Y-33771D01*
X32193Y-33771D01*
X32164Y-33786D01*
X32150Y-33800D01*
X32136Y-33829D01*
X32136Y-33886D01*
X32150Y-33914D01*
X32164Y-33929D01*
X32193Y-33943D01*
X32421Y-30075D02*
X32121Y-30075D01*
X32121Y-30003D01*
X32136Y-29960D01*
X32164Y-29932D01*
X32193Y-29917D01*
X32250Y-29903D01*
X32293Y-29903D01*
X32350Y-29917D01*
X32379Y-29932D01*
X32407Y-29960D01*
X32421Y-30003D01*
X32421Y-30075D01*
X32121Y-29632D02*
X32121Y-29775D01*
X32264Y-29789D01*
X32250Y-29775D01*
X32236Y-29746D01*
X32236Y-29675D01*
X32250Y-29646D01*
X32264Y-29632D01*
X32293Y-29617D01*
X32364Y-29617D01*
X32393Y-29632D01*
X32407Y-29646D01*
X32421Y-29675D01*
X32421Y-29746D01*
X32407Y-29775D01*
X32393Y-29789D01*
X32221Y-29360D02*
X32421Y-29360D01*
X32107Y-29431D02*
X32321Y-29503D01*
X32321Y-29317D01*
X32421Y-26055D02*
X32121Y-26055D01*
X32121Y-25983D01*
X32136Y-25940D01*
X32164Y-25912D01*
X32193Y-25897D01*
X32250Y-25883D01*
X32293Y-25883D01*
X32350Y-25897D01*
X32379Y-25912D01*
X32407Y-25940D01*
X32421Y-25983D01*
X32421Y-26055D01*
X32121Y-25612D02*
X32121Y-25755D01*
X32264Y-25769D01*
X32250Y-25755D01*
X32236Y-25726D01*
X32236Y-25655D01*
X32250Y-25626D01*
X32264Y-25612D01*
X32293Y-25597D01*
X32364Y-25597D01*
X32393Y-25612D01*
X32407Y-25626D01*
X32421Y-25655D01*
X32421Y-25726D01*
X32407Y-25755D01*
X32393Y-25769D01*
X32150Y-25483D02*
X32136Y-25469D01*
X32121Y-25440D01*
X32121Y-25369D01*
X32136Y-25340D01*
X32150Y-25326D01*
X32179Y-25311D01*
X32207Y-25311D01*
X32250Y-25326D01*
X32421Y-25497D01*
X32421Y-25311D01*
X32421Y-22065D02*
X32121Y-22065D01*
X32121Y-21993D01*
X32136Y-21950D01*
X32164Y-21922D01*
X32193Y-21907D01*
X32250Y-21893D01*
X32293Y-21893D01*
X32350Y-21907D01*
X32379Y-21922D01*
X32407Y-21950D01*
X32421Y-21993D01*
X32421Y-22065D01*
X32121Y-21622D02*
X32121Y-21765D01*
X32264Y-21779D01*
X32250Y-21765D01*
X32236Y-21736D01*
X32236Y-21665D01*
X32250Y-21636D01*
X32264Y-21622D01*
X32293Y-21607D01*
X32364Y-21607D01*
X32393Y-21622D01*
X32407Y-21636D01*
X32421Y-21665D01*
X32421Y-21736D01*
X32407Y-21765D01*
X32393Y-21779D01*
X32121Y-21421D02*
X32121Y-21393D01*
X32136Y-21364D01*
X32150Y-21350D01*
X32179Y-21336D01*
X32236Y-21321D01*
X32307Y-21321D01*
X32364Y-21336D01*
X32393Y-21350D01*
X32407Y-21364D01*
X32421Y-21393D01*
X32421Y-21421D01*
X32407Y-21450D01*
X32393Y-21464D01*
X32364Y-21479D01*
X32307Y-21493D01*
X32236Y-21493D01*
X32179Y-21479D01*
X32150Y-21464D01*
X32136Y-21450D01*
X32121Y-21421D01*
X32421Y-18065D02*
X32121Y-18065D01*
X32121Y-17993D01*
X32136Y-17950D01*
X32164Y-17922D01*
X32193Y-17907D01*
X32250Y-17893D01*
X32293Y-17893D01*
X32350Y-17907D01*
X32379Y-17922D01*
X32407Y-17950D01*
X32421Y-17993D01*
X32421Y-18065D01*
X32221Y-17636D02*
X32421Y-17636D01*
X32107Y-17707D02*
X32321Y-17779D01*
X32321Y-17593D01*
X32250Y-17436D02*
X32236Y-17464D01*
X32221Y-17479D01*
X32193Y-17493D01*
X32179Y-17493D01*
X32150Y-17479D01*
X32136Y-17464D01*
X32121Y-17436D01*
X32121Y-17379D01*
X32136Y-17350D01*
X32150Y-17336D01*
X32179Y-17321D01*
X32193Y-17321D01*
X32221Y-17336D01*
X32236Y-17350D01*
X32250Y-17379D01*
X32250Y-17436D01*
X32264Y-17464D01*
X32279Y-17479D01*
X32307Y-17493D01*
X32364Y-17493D01*
X32393Y-17479D01*
X32407Y-17464D01*
X32421Y-17436D01*
X32421Y-17379D01*
X32407Y-17350D01*
X32393Y-17336D01*
X32364Y-17321D01*
X32307Y-17321D01*
X32279Y-17336D01*
X32264Y-17350D01*
X32250Y-17379D01*
X32421Y-14075D02*
X32121Y-14075D01*
X32121Y-14003D01*
X32136Y-13960D01*
X32164Y-13932D01*
X32193Y-13917D01*
X32250Y-13903D01*
X32293Y-13903D01*
X32350Y-13917D01*
X32379Y-13932D01*
X32407Y-13960D01*
X32421Y-14003D01*
X32421Y-14075D01*
X32221Y-13646D02*
X32421Y-13646D01*
X32107Y-13717D02*
X32321Y-13789D01*
X32321Y-13603D01*
X32121Y-13360D02*
X32121Y-13417D01*
X32136Y-13446D01*
X32150Y-13460D01*
X32193Y-13489D01*
X32250Y-13503D01*
X32364Y-13503D01*
X32393Y-13489D01*
X32407Y-13474D01*
X32421Y-13446D01*
X32421Y-13389D01*
X32407Y-13360D01*
X32393Y-13346D01*
X32364Y-13331D01*
X32293Y-13331D01*
X32264Y-13346D01*
X32250Y-13360D01*
X32236Y-13389D01*
X32236Y-13446D01*
X32250Y-13474D01*
X32264Y-13489D01*
X32293Y-13503D01*
X47421Y-51805D02*
X47121Y-51805D01*
X47121Y-51733D01*
X47136Y-51690D01*
X47164Y-51662D01*
X47193Y-51647D01*
X47250Y-51633D01*
X47293Y-51633D01*
X47350Y-51647D01*
X47379Y-51662D01*
X47407Y-51690D01*
X47421Y-51733D01*
X47421Y-51805D01*
X47150Y-51519D02*
X47136Y-51505D01*
X47121Y-51476D01*
X47121Y-51405D01*
X47136Y-51376D01*
X47150Y-51362D01*
X47179Y-51347D01*
X47207Y-51347D01*
X47250Y-51362D01*
X47421Y-51533D01*
X47421Y-51347D01*
X47150Y-51233D02*
X47136Y-51219D01*
X47121Y-51190D01*
X47121Y-51119D01*
X47136Y-51090D01*
X47150Y-51076D01*
X47179Y-51061D01*
X47207Y-51061D01*
X47250Y-51076D01*
X47421Y-51247D01*
X47421Y-51061D01*
X47421Y-48215D02*
X47121Y-48215D01*
X47121Y-48143D01*
X47136Y-48100D01*
X47164Y-48072D01*
X47193Y-48057D01*
X47250Y-48043D01*
X47293Y-48043D01*
X47350Y-48057D01*
X47379Y-48072D01*
X47407Y-48100D01*
X47421Y-48143D01*
X47421Y-48215D01*
X47150Y-47929D02*
X47136Y-47915D01*
X47121Y-47886D01*
X47121Y-47815D01*
X47136Y-47786D01*
X47150Y-47772D01*
X47179Y-47757D01*
X47207Y-47757D01*
X47250Y-47772D01*
X47421Y-47943D01*
X47421Y-47757D01*
X47421Y-47471D02*
X47421Y-47643D01*
X47421Y-47557D02*
X47121Y-47557D01*
X47164Y-47586D01*
X47193Y-47614D01*
X47207Y-47643D01*
X47421Y-44215D02*
X47121Y-44215D01*
X47121Y-44143D01*
X47136Y-44100D01*
X47164Y-44072D01*
X47193Y-44057D01*
X47250Y-44043D01*
X47293Y-44043D01*
X47350Y-44057D01*
X47379Y-44072D01*
X47407Y-44100D01*
X47421Y-44143D01*
X47421Y-44215D01*
X47150Y-43929D02*
X47136Y-43915D01*
X47121Y-43886D01*
X47121Y-43815D01*
X47136Y-43786D01*
X47150Y-43772D01*
X47179Y-43757D01*
X47207Y-43757D01*
X47250Y-43772D01*
X47421Y-43943D01*
X47421Y-43757D01*
X47121Y-43571D02*
X47121Y-43543D01*
X47136Y-43514D01*
X47150Y-43500D01*
X47179Y-43486D01*
X47236Y-43471D01*
X47307Y-43471D01*
X47364Y-43486D01*
X47393Y-43500D01*
X47407Y-43514D01*
X47421Y-43543D01*
X47421Y-43571D01*
X47407Y-43600D01*
X47393Y-43614D01*
X47364Y-43629D01*
X47307Y-43643D01*
X47236Y-43643D01*
X47179Y-43629D01*
X47150Y-43614D01*
X47136Y-43600D01*
X47121Y-43571D01*
X47421Y-40215D02*
X47121Y-40215D01*
X47121Y-40143D01*
X47136Y-40100D01*
X47164Y-40072D01*
X47193Y-40057D01*
X47250Y-40043D01*
X47293Y-40043D01*
X47350Y-40057D01*
X47379Y-40072D01*
X47407Y-40100D01*
X47421Y-40143D01*
X47421Y-40215D01*
X47421Y-39757D02*
X47421Y-39929D01*
X47421Y-39843D02*
X47121Y-39843D01*
X47164Y-39872D01*
X47193Y-39900D01*
X47207Y-39929D01*
X47421Y-39614D02*
X47421Y-39557D01*
X47407Y-39529D01*
X47393Y-39514D01*
X47350Y-39486D01*
X47293Y-39471D01*
X47179Y-39471D01*
X47150Y-39486D01*
X47136Y-39500D01*
X47121Y-39529D01*
X47121Y-39586D01*
X47136Y-39614D01*
X47150Y-39629D01*
X47179Y-39643D01*
X47250Y-39643D01*
X47279Y-39629D01*
X47293Y-39614D01*
X47307Y-39586D01*
X47307Y-39529D01*
X47293Y-39500D01*
X47279Y-39486D01*
X47250Y-39471D01*
X40021Y-49355D02*
X39721Y-49355D01*
X39721Y-49283D01*
X39736Y-49240D01*
X39764Y-49212D01*
X39793Y-49197D01*
X39850Y-49183D01*
X39893Y-49183D01*
X39950Y-49197D01*
X39979Y-49212D01*
X40007Y-49240D01*
X40021Y-49283D01*
X40021Y-49355D01*
X40021Y-48897D02*
X40021Y-49069D01*
X40021Y-48983D02*
X39721Y-48983D01*
X39764Y-49012D01*
X39793Y-49040D01*
X39807Y-49069D01*
X39850Y-48726D02*
X39836Y-48754D01*
X39821Y-48769D01*
X39793Y-48783D01*
X39779Y-48783D01*
X39750Y-48769D01*
X39736Y-48754D01*
X39721Y-48726D01*
X39721Y-48669D01*
X39736Y-48640D01*
X39750Y-48626D01*
X39779Y-48611D01*
X39793Y-48611D01*
X39821Y-48626D01*
X39836Y-48640D01*
X39850Y-48669D01*
X39850Y-48726D01*
X39864Y-48754D01*
X39879Y-48769D01*
X39907Y-48783D01*
X39964Y-48783D01*
X39993Y-48769D01*
X40007Y-48754D01*
X40021Y-48726D01*
X40021Y-48669D01*
X40007Y-48640D01*
X39993Y-48626D01*
X39964Y-48611D01*
X39907Y-48611D01*
X39879Y-48626D01*
X39864Y-48640D01*
X39850Y-48669D01*
X40031Y-45365D02*
X39731Y-45365D01*
X39731Y-45293D01*
X39746Y-45250D01*
X39774Y-45222D01*
X39803Y-45207D01*
X39860Y-45193D01*
X39903Y-45193D01*
X39960Y-45207D01*
X39989Y-45222D01*
X40017Y-45250D01*
X40031Y-45293D01*
X40031Y-45365D01*
X40031Y-44907D02*
X40031Y-45079D01*
X40031Y-44993D02*
X39731Y-44993D01*
X39774Y-45022D01*
X39803Y-45050D01*
X39817Y-45079D01*
X39731Y-44807D02*
X39731Y-44607D01*
X40031Y-44736D01*
X40031Y-41365D02*
X39731Y-41365D01*
X39731Y-41293D01*
X39746Y-41250D01*
X39774Y-41222D01*
X39803Y-41207D01*
X39860Y-41193D01*
X39903Y-41193D01*
X39960Y-41207D01*
X39989Y-41222D01*
X40017Y-41250D01*
X40031Y-41293D01*
X40031Y-41365D01*
X40031Y-40907D02*
X40031Y-41079D01*
X40031Y-40993D02*
X39731Y-40993D01*
X39774Y-41022D01*
X39803Y-41050D01*
X39817Y-41079D01*
X39731Y-40650D02*
X39731Y-40707D01*
X39746Y-40736D01*
X39760Y-40750D01*
X39803Y-40779D01*
X39860Y-40793D01*
X39974Y-40793D01*
X40003Y-40779D01*
X40017Y-40764D01*
X40031Y-40736D01*
X40031Y-40679D01*
X40017Y-40650D01*
X40003Y-40636D01*
X39974Y-40621D01*
X39903Y-40621D01*
X39874Y-40636D01*
X39860Y-40650D01*
X39846Y-40679D01*
X39846Y-40736D01*
X39860Y-40764D01*
X39874Y-40779D01*
X39903Y-40793D01*
X39921Y-36455D02*
X39621Y-36455D01*
X39621Y-36383D01*
X39636Y-36340D01*
X39664Y-36312D01*
X39693Y-36297D01*
X39750Y-36283D01*
X39793Y-36283D01*
X39850Y-36297D01*
X39879Y-36312D01*
X39907Y-36340D01*
X39921Y-36383D01*
X39921Y-36455D01*
X39921Y-35997D02*
X39921Y-36169D01*
X39921Y-36083D02*
X39621Y-36083D01*
X39664Y-36112D01*
X39693Y-36140D01*
X39707Y-36169D01*
X39621Y-35726D02*
X39621Y-35869D01*
X39764Y-35883D01*
X39750Y-35869D01*
X39736Y-35840D01*
X39736Y-35769D01*
X39750Y-35740D01*
X39764Y-35726D01*
X39793Y-35711D01*
X39864Y-35711D01*
X39893Y-35726D01*
X39907Y-35740D01*
X39921Y-35769D01*
X39921Y-35840D01*
X39907Y-35869D01*
X39893Y-35883D01*
X24921Y-49015D02*
X24621Y-49015D01*
X24621Y-48943D01*
X24636Y-48900D01*
X24664Y-48872D01*
X24693Y-48857D01*
X24750Y-48843D01*
X24793Y-48843D01*
X24850Y-48857D01*
X24879Y-48872D01*
X24907Y-48900D01*
X24921Y-48943D01*
X24921Y-49015D01*
X24921Y-48557D02*
X24921Y-48729D01*
X24921Y-48643D02*
X24621Y-48643D01*
X24664Y-48672D01*
X24693Y-48700D01*
X24707Y-48729D01*
X24721Y-48300D02*
X24921Y-48300D01*
X24607Y-48371D02*
X24821Y-48443D01*
X24821Y-48257D01*
X24921Y-45015D02*
X24621Y-45015D01*
X24621Y-44943D01*
X24636Y-44900D01*
X24664Y-44872D01*
X24693Y-44857D01*
X24750Y-44843D01*
X24793Y-44843D01*
X24850Y-44857D01*
X24879Y-44872D01*
X24907Y-44900D01*
X24921Y-44943D01*
X24921Y-45015D01*
X24921Y-44557D02*
X24921Y-44729D01*
X24921Y-44643D02*
X24621Y-44643D01*
X24664Y-44672D01*
X24693Y-44700D01*
X24707Y-44729D01*
X24621Y-44457D02*
X24621Y-44271D01*
X24736Y-44371D01*
X24736Y-44329D01*
X24750Y-44300D01*
X24764Y-44286D01*
X24793Y-44271D01*
X24864Y-44271D01*
X24893Y-44286D01*
X24907Y-44300D01*
X24921Y-44329D01*
X24921Y-44414D01*
X24907Y-44443D01*
X24893Y-44457D01*
X24921Y-41015D02*
X24621Y-41015D01*
X24621Y-40943D01*
X24636Y-40900D01*
X24664Y-40872D01*
X24693Y-40857D01*
X24750Y-40843D01*
X24793Y-40843D01*
X24850Y-40857D01*
X24879Y-40872D01*
X24907Y-40900D01*
X24921Y-40943D01*
X24921Y-41015D01*
X24921Y-40557D02*
X24921Y-40729D01*
X24921Y-40643D02*
X24621Y-40643D01*
X24664Y-40672D01*
X24693Y-40700D01*
X24707Y-40729D01*
X24650Y-40443D02*
X24636Y-40429D01*
X24621Y-40400D01*
X24621Y-40329D01*
X24636Y-40300D01*
X24650Y-40286D01*
X24679Y-40271D01*
X24707Y-40271D01*
X24750Y-40286D01*
X24921Y-40457D01*
X24921Y-40271D01*
X24921Y-37015D02*
X24621Y-37015D01*
X24621Y-36943D01*
X24636Y-36900D01*
X24664Y-36872D01*
X24693Y-36857D01*
X24750Y-36843D01*
X24793Y-36843D01*
X24850Y-36857D01*
X24879Y-36872D01*
X24907Y-36900D01*
X24921Y-36943D01*
X24921Y-37015D01*
X24921Y-36557D02*
X24921Y-36729D01*
X24921Y-36643D02*
X24621Y-36643D01*
X24664Y-36672D01*
X24693Y-36700D01*
X24707Y-36729D01*
X24921Y-36271D02*
X24921Y-36443D01*
X24921Y-36357D02*
X24621Y-36357D01*
X24664Y-36386D01*
X24693Y-36414D01*
X24707Y-36443D01*
X39921Y-53015D02*
X39621Y-53015D01*
X39621Y-52943D01*
X39636Y-52900D01*
X39664Y-52872D01*
X39693Y-52857D01*
X39750Y-52843D01*
X39793Y-52843D01*
X39850Y-52857D01*
X39879Y-52872D01*
X39907Y-52900D01*
X39921Y-52943D01*
X39921Y-53015D01*
X39921Y-52557D02*
X39921Y-52729D01*
X39921Y-52643D02*
X39621Y-52643D01*
X39664Y-52672D01*
X39693Y-52700D01*
X39707Y-52729D01*
X39621Y-52371D02*
X39621Y-52343D01*
X39636Y-52314D01*
X39650Y-52300D01*
X39679Y-52286D01*
X39736Y-52271D01*
X39807Y-52271D01*
X39864Y-52286D01*
X39893Y-52300D01*
X39907Y-52314D01*
X39921Y-52343D01*
X39921Y-52371D01*
X39907Y-52400D01*
X39893Y-52414D01*
X39864Y-52429D01*
X39807Y-52443D01*
X39736Y-52443D01*
X39679Y-52429D01*
X39650Y-52414D01*
X39636Y-52400D01*
X39621Y-52371D01*
X24921Y-52712D02*
X24621Y-52712D01*
X24621Y-52640D01*
X24636Y-52597D01*
X24664Y-52569D01*
X24693Y-52554D01*
X24750Y-52540D01*
X24793Y-52540D01*
X24850Y-52554D01*
X24879Y-52569D01*
X24907Y-52597D01*
X24921Y-52640D01*
X24921Y-52712D01*
X24921Y-52397D02*
X24921Y-52340D01*
X24907Y-52312D01*
X24893Y-52297D01*
X24850Y-52269D01*
X24793Y-52254D01*
X24679Y-52254D01*
X24650Y-52269D01*
X24636Y-52283D01*
X24621Y-52312D01*
X24621Y-52369D01*
X24636Y-52397D01*
X24650Y-52412D01*
X24679Y-52426D01*
X24750Y-52426D01*
X24779Y-52412D01*
X24793Y-52397D01*
X24807Y-52369D01*
X24807Y-52312D01*
X24793Y-52283D01*
X24779Y-52269D01*
X24750Y-52254D01*
X17171Y-50622D02*
X16871Y-50622D01*
X16871Y-50550D01*
X16886Y-50507D01*
X16914Y-50479D01*
X16943Y-50464D01*
X17000Y-50450D01*
X17043Y-50450D01*
X17100Y-50464D01*
X17129Y-50479D01*
X17157Y-50507D01*
X17171Y-50550D01*
X17171Y-50622D01*
X17000Y-50279D02*
X16986Y-50307D01*
X16971Y-50322D01*
X16943Y-50336D01*
X16929Y-50336D01*
X16900Y-50322D01*
X16886Y-50307D01*
X16871Y-50279D01*
X16871Y-50222D01*
X16886Y-50193D01*
X16900Y-50179D01*
X16929Y-50164D01*
X16943Y-50164D01*
X16971Y-50179D01*
X16986Y-50193D01*
X17000Y-50222D01*
X17000Y-50279D01*
X17014Y-50307D01*
X17029Y-50322D01*
X17057Y-50336D01*
X17114Y-50336D01*
X17143Y-50322D01*
X17157Y-50307D01*
X17171Y-50279D01*
X17171Y-50222D01*
X17157Y-50193D01*
X17143Y-50179D01*
X17114Y-50164D01*
X17057Y-50164D01*
X17029Y-50179D01*
X17014Y-50193D01*
X17000Y-50222D01*
X17171Y-46622D02*
X16871Y-46622D01*
X16871Y-46550D01*
X16886Y-46507D01*
X16914Y-46479D01*
X16943Y-46464D01*
X17000Y-46450D01*
X17043Y-46450D01*
X17100Y-46464D01*
X17129Y-46479D01*
X17157Y-46507D01*
X17171Y-46550D01*
X17171Y-46622D01*
X16871Y-46350D02*
X16871Y-46150D01*
X17171Y-46279D01*
X17171Y-42622D02*
X16871Y-42622D01*
X16871Y-42550D01*
X16886Y-42507D01*
X16914Y-42479D01*
X16943Y-42464D01*
X17000Y-42450D01*
X17043Y-42450D01*
X17100Y-42464D01*
X17129Y-42479D01*
X17157Y-42507D01*
X17171Y-42550D01*
X17171Y-42622D01*
X16871Y-42193D02*
X16871Y-42250D01*
X16886Y-42279D01*
X16900Y-42293D01*
X16943Y-42322D01*
X17000Y-42336D01*
X17114Y-42336D01*
X17143Y-42322D01*
X17157Y-42307D01*
X17171Y-42279D01*
X17171Y-42222D01*
X17157Y-42193D01*
X17143Y-42179D01*
X17114Y-42164D01*
X17043Y-42164D01*
X17014Y-42179D01*
X17000Y-42193D01*
X16986Y-42222D01*
X16986Y-42279D01*
X17000Y-42307D01*
X17014Y-42322D01*
X17043Y-42336D01*
X17171Y-38622D02*
X16871Y-38622D01*
X16871Y-38550D01*
X16886Y-38507D01*
X16914Y-38479D01*
X16943Y-38464D01*
X17000Y-38450D01*
X17043Y-38450D01*
X17100Y-38464D01*
X17129Y-38479D01*
X17157Y-38507D01*
X17171Y-38550D01*
X17171Y-38622D01*
X16871Y-38179D02*
X16871Y-38322D01*
X17014Y-38336D01*
X17000Y-38322D01*
X16986Y-38293D01*
X16986Y-38222D01*
X17000Y-38193D01*
X17014Y-38179D01*
X17043Y-38164D01*
X17114Y-38164D01*
X17143Y-38179D01*
X17157Y-38193D01*
X17171Y-38222D01*
X17171Y-38293D01*
X17157Y-38322D01*
X17143Y-38336D01*
X17171Y-34622D02*
X16871Y-34622D01*
X16871Y-34550D01*
X16886Y-34507D01*
X16914Y-34479D01*
X16943Y-34464D01*
X17000Y-34450D01*
X17043Y-34450D01*
X17100Y-34464D01*
X17129Y-34479D01*
X17157Y-34507D01*
X17171Y-34550D01*
X17171Y-34622D01*
X16971Y-34193D02*
X17171Y-34193D01*
X16857Y-34264D02*
X17071Y-34336D01*
X17071Y-34150D01*
X18171Y-30622D02*
X17871Y-30622D01*
X17871Y-30550D01*
X17886Y-30507D01*
X17914Y-30479D01*
X17943Y-30464D01*
X18000Y-30450D01*
X18043Y-30450D01*
X18100Y-30464D01*
X18129Y-30479D01*
X18157Y-30507D01*
X18171Y-30550D01*
X18171Y-30622D01*
X17871Y-30350D02*
X17871Y-30164D01*
X17986Y-30264D01*
X17986Y-30222D01*
X18000Y-30193D01*
X18014Y-30179D01*
X18043Y-30164D01*
X18114Y-30164D01*
X18143Y-30179D01*
X18157Y-30193D01*
X18171Y-30222D01*
X18171Y-30307D01*
X18157Y-30336D01*
X18143Y-30350D01*
X22171Y-30622D02*
X21871Y-30622D01*
X21871Y-30550D01*
X21886Y-30507D01*
X21914Y-30479D01*
X21943Y-30464D01*
X22000Y-30450D01*
X22043Y-30450D01*
X22100Y-30464D01*
X22129Y-30479D01*
X22157Y-30507D01*
X22171Y-30550D01*
X22171Y-30622D01*
X21900Y-30336D02*
X21886Y-30322D01*
X21871Y-30293D01*
X21871Y-30222D01*
X21886Y-30193D01*
X21900Y-30179D01*
X21929Y-30164D01*
X21957Y-30164D01*
X22000Y-30179D01*
X22171Y-30350D01*
X22171Y-30164D01*
X26171Y-30622D02*
X25871Y-30622D01*
X25871Y-30550D01*
X25886Y-30507D01*
X25914Y-30479D01*
X25943Y-30464D01*
X26000Y-30450D01*
X26043Y-30450D01*
X26100Y-30464D01*
X26129Y-30479D01*
X26157Y-30507D01*
X26171Y-30550D01*
X26171Y-30622D01*
X26171Y-30164D02*
X26171Y-30336D01*
X26171Y-30250D02*
X25871Y-30250D01*
X25914Y-30279D01*
X25943Y-30307D01*
X25957Y-30336D01*
X21275Y-54879D02*
X21261Y-54907D01*
X21232Y-54936D01*
X21189Y-54979D01*
X21175Y-55007D01*
X21175Y-55036D01*
X21246Y-55021D02*
X21232Y-55050D01*
X21204Y-55079D01*
X21146Y-55093D01*
X21046Y-55093D01*
X20989Y-55079D01*
X20961Y-55050D01*
X20946Y-55021D01*
X20946Y-54964D01*
X20961Y-54936D01*
X20989Y-54907D01*
X21046Y-54893D01*
X21146Y-54893D01*
X21204Y-54907D01*
X21232Y-54936D01*
X21246Y-54964D01*
X21246Y-55021D01*
X21246Y-54607D02*
X21246Y-54779D01*
X21246Y-54693D02*
X20946Y-54693D01*
X20989Y-54722D01*
X21018Y-54750D01*
X21032Y-54779D01*
X23171Y-55236D02*
X22871Y-55236D01*
X22871Y-55121D01*
X22886Y-55093D01*
X22900Y-55078D01*
X22929Y-55064D01*
X22971Y-55064D01*
X23000Y-55078D01*
X23014Y-55093D01*
X23029Y-55121D01*
X23029Y-55236D01*
X23171Y-54936D02*
X22871Y-54936D01*
X23171Y-54764D01*
X22871Y-54764D01*
X23171Y-54622D02*
X22871Y-54622D01*
X22871Y-54507D01*
X22886Y-54479D01*
X22900Y-54464D01*
X22929Y-54450D01*
X22971Y-54450D01*
X23000Y-54464D01*
X23014Y-54479D01*
X23029Y-54507D01*
X23029Y-54622D01*
M02*
