G04 (created by PCBNEW-RS274X (2011-12-28 BZR 3254)-stable) date 7/17/2012 5:32:20 PM*
G01*
G70*
G90*
%MOIN*%
G04 Gerber Fmt 3.4, Leading zero omitted, Abs format*
%FSLAX34Y34*%
G04 APERTURE LIST*
%ADD10C,0.006000*%
%ADD11C,0.080000*%
%ADD12R,0.080000X0.080000*%
%ADD13C,0.220000*%
%ADD14R,0.071200X0.079000*%
%ADD15R,0.079000X0.071200*%
%ADD16C,0.085000*%
%ADD17R,0.085000X0.085000*%
%ADD18C,0.060000*%
%ADD19O,0.110000X0.080000*%
%ADD20R,0.110000X0.080000*%
%ADD21R,0.062000X0.076000*%
%ADD22C,0.090000*%
%ADD23C,0.100000*%
%ADD24R,0.080000X0.130000*%
%ADD25R,0.120000X0.120000*%
%ADD26C,0.120000*%
%ADD27R,0.094000X0.094000*%
%ADD28R,0.094000X0.064000*%
%ADD29R,0.094000X0.284000*%
G04 APERTURE END LIST*
G54D10*
G54D11*
X32590Y-46900D03*
X30590Y-46900D03*
G54D12*
X31590Y-46900D03*
G54D13*
X33500Y-57000D03*
X33500Y-52000D03*
G54D14*
X27825Y-39000D03*
X28575Y-39000D03*
X20975Y-52550D03*
X20225Y-52550D03*
X20225Y-40750D03*
X20975Y-40750D03*
X20225Y-48750D03*
X20975Y-48750D03*
X27825Y-47000D03*
X28575Y-47000D03*
X42825Y-39000D03*
X43575Y-39000D03*
X42825Y-47000D03*
X43575Y-47000D03*
X50325Y-42200D03*
X51075Y-42200D03*
X21100Y-32850D03*
X21850Y-32850D03*
X25875Y-32850D03*
X25125Y-32850D03*
X25875Y-55000D03*
X26625Y-55000D03*
G54D15*
X37440Y-41675D03*
X37440Y-40925D03*
G54D14*
X50325Y-50200D03*
X51075Y-50200D03*
G54D16*
X44500Y-59000D03*
G54D17*
X44500Y-56000D03*
G54D16*
X44500Y-57000D03*
X44500Y-58000D03*
G54D18*
X30560Y-33280D03*
X37450Y-39300D03*
X40100Y-39000D03*
X40100Y-39900D03*
G54D11*
X38000Y-56500D03*
X38000Y-57500D03*
X39000Y-56500D03*
X39000Y-57500D03*
X40000Y-56500D03*
G54D12*
X40000Y-57500D03*
X38000Y-59000D03*
X39000Y-59000D03*
G54D11*
X40000Y-59000D03*
X41000Y-59000D03*
X42000Y-59000D03*
X43000Y-59000D03*
G54D19*
X36100Y-51300D03*
X36100Y-50300D03*
X36100Y-49300D03*
X36100Y-48300D03*
X36100Y-47300D03*
X36100Y-46300D03*
G54D20*
X36100Y-45300D03*
G54D19*
X36100Y-44300D03*
X36100Y-43300D03*
X36100Y-42300D03*
X36100Y-41300D03*
X36100Y-40300D03*
X36100Y-39300D03*
X36100Y-52300D03*
X39100Y-39300D03*
X39100Y-40300D03*
X39100Y-41300D03*
X39100Y-42300D03*
X39100Y-43300D03*
X39100Y-44300D03*
X39100Y-45300D03*
G54D20*
X39100Y-46300D03*
G54D19*
X39100Y-47300D03*
X39100Y-48300D03*
X39100Y-49300D03*
X39100Y-50300D03*
X39100Y-51300D03*
X39100Y-52300D03*
G54D21*
X42200Y-57750D03*
X43000Y-57750D03*
X38040Y-45300D03*
X37240Y-45300D03*
G54D16*
X46000Y-59000D03*
X47000Y-59000D03*
X48000Y-59000D03*
X49000Y-59000D03*
X50000Y-59000D03*
X51000Y-59000D03*
G54D17*
X46000Y-58000D03*
X47000Y-58000D03*
G54D16*
X48000Y-58000D03*
X49000Y-58000D03*
X50000Y-58000D03*
X51000Y-58000D03*
G54D17*
X44025Y-14500D03*
X43025Y-14500D03*
G54D16*
X42025Y-14500D03*
X41025Y-14500D03*
X40025Y-14500D03*
X39025Y-14500D03*
X44025Y-13500D03*
X43025Y-13500D03*
X42025Y-13500D03*
X41025Y-13500D03*
X40025Y-13500D03*
X39025Y-13500D03*
G54D11*
X30625Y-56500D03*
X30625Y-57500D03*
X30625Y-58500D03*
X36500Y-56500D03*
X36500Y-57500D03*
G54D12*
X36500Y-58500D03*
G54D16*
X37400Y-37175D03*
G54D17*
X38400Y-37175D03*
G54D16*
X39400Y-37175D03*
G54D18*
X39960Y-47300D03*
X39960Y-47900D03*
G54D13*
X56500Y-20500D03*
X56500Y-15500D03*
G54D22*
X22855Y-58890D03*
X21105Y-58890D03*
G54D23*
X23355Y-57890D03*
X20605Y-57890D03*
G54D22*
X21480Y-57390D03*
X22480Y-57390D03*
X27855Y-58890D03*
X26105Y-58890D03*
G54D23*
X28355Y-57890D03*
X25605Y-57890D03*
G54D22*
X26480Y-57390D03*
X27480Y-57390D03*
G54D24*
X34360Y-42500D03*
X33160Y-42500D03*
X34360Y-38500D03*
X33160Y-38500D03*
X34250Y-34500D03*
X33050Y-34500D03*
X34350Y-30500D03*
X33150Y-30500D03*
X34350Y-26500D03*
X33150Y-26500D03*
X34350Y-22500D03*
X33150Y-22500D03*
X34350Y-18500D03*
X33150Y-18500D03*
X34350Y-14500D03*
X33150Y-14500D03*
X49350Y-52200D03*
X48150Y-52200D03*
X49350Y-48200D03*
X48150Y-48200D03*
X49350Y-44200D03*
X48150Y-44200D03*
X49350Y-40200D03*
X48150Y-40200D03*
X41850Y-49000D03*
X40650Y-49000D03*
X41850Y-45000D03*
X40650Y-45000D03*
X41850Y-41000D03*
X40650Y-41000D03*
X41850Y-37000D03*
X40650Y-37000D03*
X26850Y-49000D03*
X25650Y-49000D03*
X26850Y-45000D03*
X25650Y-45000D03*
X26850Y-41000D03*
X25650Y-41000D03*
X26850Y-37000D03*
X25650Y-37000D03*
X41850Y-53000D03*
X40650Y-53000D03*
X26850Y-53000D03*
X25650Y-53000D03*
X19100Y-50750D03*
X17900Y-50750D03*
X19100Y-46750D03*
X17900Y-46750D03*
X19100Y-42750D03*
X17900Y-42750D03*
X19100Y-38750D03*
X17900Y-38750D03*
X19100Y-34750D03*
X17900Y-34750D03*
X20100Y-30750D03*
X18900Y-30750D03*
X24100Y-30750D03*
X22900Y-30750D03*
X28100Y-30750D03*
X26900Y-30750D03*
G54D25*
X16550Y-57200D03*
G54D26*
X18550Y-57200D03*
G54D27*
X24270Y-55910D03*
G54D28*
X24270Y-54850D03*
G54D27*
X24270Y-53790D03*
G54D29*
X21830Y-54850D03*
M02*
