G04 (created by PCBNEW-RS274X (2011-12-28 BZR 3254)-stable) date 7/21/2012 6:49:21 PM*
G01*
G70*
G90*
%MOIN*%
G04 Gerber Fmt 3.4, Leading zero omitted, Abs format*
%FSLAX34Y34*%
G04 APERTURE LIST*
%ADD10C,0.006000*%
%ADD11C,0.015000*%
%ADD12R,0.060000X0.110000*%
%ADD13R,0.050000X0.040000*%
%ADD14R,0.244000X0.228000*%
%ADD15R,0.120000X0.080000*%
%ADD16R,0.042000X0.056000*%
%ADD17R,0.056000X0.042000*%
%ADD18R,0.120000X0.064000*%
%ADD19R,0.051200X0.059000*%
%ADD20R,0.059000X0.051200*%
%ADD21R,0.080000X0.024000*%
%ADD22R,0.022000X0.060000*%
%ADD23R,0.040000X0.035000*%
%ADD24R,0.210000X0.210000*%
%ADD25C,0.250000*%
G04 APERTURE END LIST*
G54D10*
G54D11*
X75000Y-46000D02*
X75000Y-60000D01*
X60500Y-46000D02*
X75000Y-46000D01*
X60500Y-60000D02*
X60500Y-46000D01*
X75000Y-60000D02*
X60500Y-60000D01*
X38000Y-12500D02*
X75000Y-12500D01*
X30500Y-12500D02*
X37000Y-12500D01*
X52000Y-60000D02*
X15000Y-60000D01*
X59500Y-60000D02*
X53000Y-60000D01*
X38000Y-34300D02*
X38000Y-12500D01*
X45500Y-34300D02*
X38000Y-34300D01*
X45500Y-37500D02*
X45500Y-34300D01*
X53000Y-37500D02*
X45500Y-37500D01*
X53000Y-60000D02*
X53000Y-37500D01*
X52000Y-38200D02*
X52000Y-60000D01*
X44500Y-38200D02*
X52000Y-38200D01*
X44500Y-35000D02*
X44500Y-38200D01*
X37000Y-35000D02*
X44500Y-35000D01*
X37000Y-12500D02*
X37000Y-35000D01*
X15000Y-27500D02*
X15000Y-60000D01*
X30500Y-27500D02*
X15000Y-27500D01*
X30500Y-12500D02*
X30500Y-27500D01*
X75000Y-45000D02*
X75000Y-12500D01*
X59500Y-45000D02*
X75000Y-45000D01*
X59500Y-60000D02*
X59500Y-45000D01*
G54D12*
X61900Y-41750D03*
X63100Y-41750D03*
X65900Y-41750D03*
X67100Y-41750D03*
X69900Y-41750D03*
X71100Y-41750D03*
X70900Y-37750D03*
X72100Y-37750D03*
X70900Y-33750D03*
X72100Y-33750D03*
X70900Y-29750D03*
X72100Y-29750D03*
X70900Y-25750D03*
X72100Y-25750D03*
X70900Y-21750D03*
X72100Y-21750D03*
X64350Y-19500D03*
X63150Y-19500D03*
X48150Y-19500D03*
X49350Y-19500D03*
X63150Y-35500D03*
X64350Y-35500D03*
X63150Y-31500D03*
X64350Y-31500D03*
X63150Y-27500D03*
X64350Y-27500D03*
X63150Y-23500D03*
X64350Y-23500D03*
X48150Y-35500D03*
X49350Y-35500D03*
X48150Y-31500D03*
X49350Y-31500D03*
X48150Y-27500D03*
X49350Y-27500D03*
X48150Y-23500D03*
X49350Y-23500D03*
X40650Y-32300D03*
X41850Y-32300D03*
X40650Y-28300D03*
X41850Y-28300D03*
X40650Y-24300D03*
X41850Y-24300D03*
X40650Y-20300D03*
X41850Y-20300D03*
X55650Y-58000D03*
X56850Y-58000D03*
X55650Y-54000D03*
X56850Y-54000D03*
X55650Y-50000D03*
X56850Y-50000D03*
X55650Y-46000D03*
X56850Y-46000D03*
X55650Y-42000D03*
X56850Y-42000D03*
X55650Y-38000D03*
X56850Y-38000D03*
X55650Y-34000D03*
X56850Y-34000D03*
X55650Y-30000D03*
X56850Y-30000D03*
G54D13*
X29450Y-55000D03*
X29450Y-54200D03*
G54D14*
X16975Y-45000D03*
G54D15*
X19800Y-45850D03*
X19800Y-44150D03*
G54D14*
X16975Y-48500D03*
G54D15*
X19800Y-49350D03*
X19800Y-47650D03*
G54D16*
X17400Y-50760D03*
X16600Y-50760D03*
G54D17*
X21440Y-49350D03*
X21440Y-48550D03*
X29450Y-58400D03*
X29450Y-59200D03*
X21440Y-44150D03*
X21440Y-44950D03*
G54D18*
X17900Y-52775D03*
X16100Y-52750D03*
G54D19*
X42225Y-57500D03*
X42975Y-57500D03*
X42225Y-56500D03*
X42975Y-56500D03*
G54D20*
X30925Y-54225D03*
X30925Y-54975D03*
X24480Y-58565D03*
X24480Y-59315D03*
X24480Y-56815D03*
X24480Y-57565D03*
G54D21*
X31300Y-44550D03*
X31300Y-44050D03*
X31300Y-43550D03*
X31300Y-43050D03*
X31300Y-42550D03*
X31300Y-42050D03*
X31300Y-41550D03*
X31300Y-41050D03*
X33200Y-41050D03*
X33200Y-41550D03*
X33200Y-42050D03*
X33200Y-42550D03*
X33200Y-43050D03*
X33200Y-43550D03*
X33200Y-44050D03*
X33200Y-44550D03*
G54D22*
X34560Y-38080D03*
X34060Y-38080D03*
X33560Y-38080D03*
X33060Y-38080D03*
X32560Y-38080D03*
X32060Y-38080D03*
X31560Y-38080D03*
X31060Y-38080D03*
X31060Y-34080D03*
X31560Y-34080D03*
X32060Y-34080D03*
X32560Y-34080D03*
X33060Y-34080D03*
X33560Y-34080D03*
X34060Y-34080D03*
X34560Y-34080D03*
X30560Y-38080D03*
X30560Y-34080D03*
G54D23*
X17400Y-54375D03*
X16550Y-54375D03*
G54D19*
X39675Y-30350D03*
X38925Y-30350D03*
X47175Y-25500D03*
X46425Y-25500D03*
X47175Y-33500D03*
X46425Y-33500D03*
X39675Y-22300D03*
X38925Y-22300D03*
X62175Y-25500D03*
X61425Y-25500D03*
X62175Y-33400D03*
X61425Y-33400D03*
X69925Y-19525D03*
X69175Y-19525D03*
X69925Y-23750D03*
X69175Y-23750D03*
X68875Y-39700D03*
X68125Y-39700D03*
X64000Y-39700D03*
X64750Y-39700D03*
X54675Y-56000D03*
X53925Y-56000D03*
X54675Y-52000D03*
X53925Y-52000D03*
X54675Y-44000D03*
X53925Y-44000D03*
X54675Y-40000D03*
X53925Y-40000D03*
X54675Y-36000D03*
X53925Y-36000D03*
X54675Y-32000D03*
X53925Y-32000D03*
X54675Y-28000D03*
X53925Y-28000D03*
X54675Y-48000D03*
X53925Y-48000D03*
X69925Y-31750D03*
X69175Y-31750D03*
G54D24*
X62150Y-51600D03*
X73350Y-51600D03*
G54D25*
X67750Y-51600D03*
G54D19*
X42000Y-37175D03*
X41250Y-37175D03*
G54D16*
X41250Y-38200D03*
X42050Y-38200D03*
M02*
