G04 (created by PCBNEW-RS274X (2011-12-28 BZR 3254)-stable) date 7/11/2012 5:38:12 PM*
G01*
G70*
G90*
%MOIN*%
G04 Gerber Fmt 3.4, Leading zero omitted, Abs format*
%FSLAX34Y34*%
G04 APERTURE LIST*
%ADD10C,0.006000*%
%ADD11C,0.010000*%
%ADD12C,0.005000*%
%ADD13C,0.015000*%
%ADD14C,0.004000*%
%ADD15C,0.008000*%
G04 APERTURE END LIST*
G54D10*
X69700Y-31325D02*
X70325Y-31325D01*
X70325Y-31325D02*
X70325Y-32175D01*
X70325Y-32175D02*
X69700Y-32175D01*
X69400Y-32175D02*
X68800Y-32175D01*
X68800Y-32175D02*
X68775Y-32175D01*
X68775Y-32175D02*
X68775Y-31325D01*
X68775Y-31325D02*
X69400Y-31325D01*
X54450Y-44575D02*
X55075Y-44575D01*
X55075Y-44575D02*
X55075Y-45425D01*
X55075Y-45425D02*
X54450Y-45425D01*
X54150Y-45425D02*
X53550Y-45425D01*
X53550Y-45425D02*
X53525Y-45425D01*
X53525Y-45425D02*
X53525Y-44575D01*
X53525Y-44575D02*
X54150Y-44575D01*
X54450Y-19575D02*
X55075Y-19575D01*
X55075Y-19575D02*
X55075Y-20425D01*
X55075Y-20425D02*
X54450Y-20425D01*
X54150Y-20425D02*
X53550Y-20425D01*
X53550Y-20425D02*
X53525Y-20425D01*
X53525Y-20425D02*
X53525Y-19575D01*
X53525Y-19575D02*
X54150Y-19575D01*
X54450Y-24575D02*
X55075Y-24575D01*
X55075Y-24575D02*
X55075Y-25425D01*
X55075Y-25425D02*
X54450Y-25425D01*
X54150Y-25425D02*
X53550Y-25425D01*
X53550Y-25425D02*
X53525Y-25425D01*
X53525Y-25425D02*
X53525Y-24575D01*
X53525Y-24575D02*
X54150Y-24575D01*
X54450Y-29575D02*
X55075Y-29575D01*
X55075Y-29575D02*
X55075Y-30425D01*
X55075Y-30425D02*
X54450Y-30425D01*
X54150Y-30425D02*
X53550Y-30425D01*
X53550Y-30425D02*
X53525Y-30425D01*
X53525Y-30425D02*
X53525Y-29575D01*
X53525Y-29575D02*
X54150Y-29575D01*
X54450Y-34575D02*
X55075Y-34575D01*
X55075Y-34575D02*
X55075Y-35425D01*
X55075Y-35425D02*
X54450Y-35425D01*
X54150Y-35425D02*
X53550Y-35425D01*
X53550Y-35425D02*
X53525Y-35425D01*
X53525Y-35425D02*
X53525Y-34575D01*
X53525Y-34575D02*
X54150Y-34575D01*
X54450Y-39575D02*
X55075Y-39575D01*
X55075Y-39575D02*
X55075Y-40425D01*
X55075Y-40425D02*
X54450Y-40425D01*
X54150Y-40425D02*
X53550Y-40425D01*
X53550Y-40425D02*
X53525Y-40425D01*
X53525Y-40425D02*
X53525Y-39575D01*
X53525Y-39575D02*
X54150Y-39575D01*
X54450Y-49575D02*
X55075Y-49575D01*
X55075Y-49575D02*
X55075Y-50425D01*
X55075Y-50425D02*
X54450Y-50425D01*
X54150Y-50425D02*
X53550Y-50425D01*
X53550Y-50425D02*
X53525Y-50425D01*
X53525Y-50425D02*
X53525Y-49575D01*
X53525Y-49575D02*
X54150Y-49575D01*
X54450Y-54575D02*
X55075Y-54575D01*
X55075Y-54575D02*
X55075Y-55425D01*
X55075Y-55425D02*
X54450Y-55425D01*
X54150Y-55425D02*
X53550Y-55425D01*
X53550Y-55425D02*
X53525Y-55425D01*
X53525Y-55425D02*
X53525Y-54575D01*
X53525Y-54575D02*
X54150Y-54575D01*
X64225Y-40425D02*
X63600Y-40425D01*
X63600Y-40425D02*
X63600Y-39575D01*
X63600Y-39575D02*
X64225Y-39575D01*
X64525Y-39575D02*
X65125Y-39575D01*
X65125Y-39575D02*
X65150Y-39575D01*
X65150Y-39575D02*
X65150Y-40425D01*
X65150Y-40425D02*
X64525Y-40425D01*
X69700Y-39575D02*
X70325Y-39575D01*
X70325Y-39575D02*
X70325Y-40425D01*
X70325Y-40425D02*
X69700Y-40425D01*
X69400Y-40425D02*
X68800Y-40425D01*
X68800Y-40425D02*
X68775Y-40425D01*
X68775Y-40425D02*
X68775Y-39575D01*
X68775Y-39575D02*
X69400Y-39575D01*
X69700Y-23325D02*
X70325Y-23325D01*
X70325Y-23325D02*
X70325Y-24175D01*
X70325Y-24175D02*
X69700Y-24175D01*
X69400Y-24175D02*
X68800Y-24175D01*
X68800Y-24175D02*
X68775Y-24175D01*
X68775Y-24175D02*
X68775Y-23325D01*
X68775Y-23325D02*
X69400Y-23325D01*
X69700Y-19100D02*
X70325Y-19100D01*
X70325Y-19100D02*
X70325Y-19950D01*
X70325Y-19950D02*
X69700Y-19950D01*
X69400Y-19950D02*
X68800Y-19950D01*
X68800Y-19950D02*
X68775Y-19950D01*
X68775Y-19950D02*
X68775Y-19100D01*
X68775Y-19100D02*
X69400Y-19100D01*
X61950Y-32975D02*
X62575Y-32975D01*
X62575Y-32975D02*
X62575Y-33825D01*
X62575Y-33825D02*
X61950Y-33825D01*
X61650Y-33825D02*
X61050Y-33825D01*
X61050Y-33825D02*
X61025Y-33825D01*
X61025Y-33825D02*
X61025Y-32975D01*
X61025Y-32975D02*
X61650Y-32975D01*
X61950Y-25075D02*
X62575Y-25075D01*
X62575Y-25075D02*
X62575Y-25925D01*
X62575Y-25925D02*
X61950Y-25925D01*
X61650Y-25925D02*
X61050Y-25925D01*
X61050Y-25925D02*
X61025Y-25925D01*
X61025Y-25925D02*
X61025Y-25075D01*
X61025Y-25075D02*
X61650Y-25075D01*
X56175Y-22400D02*
X56175Y-22600D01*
X56325Y-22500D02*
X56175Y-22500D01*
X56175Y-22500D02*
X56325Y-22425D01*
X56325Y-22425D02*
X56325Y-22575D01*
X56325Y-22575D02*
X56175Y-22500D01*
X55500Y-22800D02*
X55575Y-22800D01*
X55500Y-22850D02*
X55625Y-22850D01*
X55500Y-22700D02*
X55500Y-22900D01*
X55500Y-22900D02*
X55700Y-22900D01*
X55500Y-22200D02*
X55575Y-22200D01*
X55500Y-22150D02*
X55625Y-22150D01*
X55500Y-22300D02*
X55500Y-22100D01*
X55500Y-22100D02*
X55700Y-22100D01*
X55700Y-22900D02*
X55500Y-22700D01*
X55500Y-22700D02*
X55500Y-22500D01*
X55500Y-22500D02*
X55500Y-22300D01*
X55500Y-22300D02*
X55700Y-22100D01*
X56650Y-22100D02*
X57000Y-22100D01*
X57000Y-22100D02*
X57000Y-22900D01*
X57000Y-22900D02*
X56650Y-22900D01*
X56025Y-22100D02*
X55700Y-22100D01*
X56025Y-22900D02*
X55700Y-22900D01*
X63825Y-19600D02*
X63825Y-19400D01*
X63675Y-19500D02*
X63825Y-19500D01*
X63825Y-19500D02*
X63675Y-19575D01*
X63675Y-19575D02*
X63675Y-19425D01*
X63675Y-19425D02*
X63825Y-19500D01*
X64500Y-19200D02*
X64425Y-19200D01*
X64500Y-19150D02*
X64375Y-19150D01*
X64500Y-19300D02*
X64500Y-19100D01*
X64500Y-19100D02*
X64300Y-19100D01*
X64500Y-19800D02*
X64425Y-19800D01*
X64500Y-19850D02*
X64375Y-19850D01*
X64500Y-19700D02*
X64500Y-19900D01*
X64500Y-19900D02*
X64300Y-19900D01*
X64300Y-19100D02*
X64500Y-19300D01*
X64500Y-19300D02*
X64500Y-19500D01*
X64500Y-19500D02*
X64500Y-19700D01*
X64500Y-19700D02*
X64300Y-19900D01*
X63350Y-19900D02*
X63000Y-19900D01*
X63000Y-19900D02*
X63000Y-19100D01*
X63000Y-19100D02*
X63350Y-19100D01*
X63975Y-19900D02*
X64300Y-19900D01*
X63975Y-19100D02*
X64300Y-19100D01*
X71425Y-21650D02*
X71425Y-21850D01*
X71575Y-21750D02*
X71425Y-21750D01*
X71425Y-21750D02*
X71575Y-21675D01*
X71575Y-21675D02*
X71575Y-21825D01*
X71575Y-21825D02*
X71425Y-21750D01*
X70750Y-22050D02*
X70825Y-22050D01*
X70750Y-22100D02*
X70875Y-22100D01*
X70750Y-21950D02*
X70750Y-22150D01*
X70750Y-22150D02*
X70950Y-22150D01*
X70750Y-21450D02*
X70825Y-21450D01*
X70750Y-21400D02*
X70875Y-21400D01*
X70750Y-21550D02*
X70750Y-21350D01*
X70750Y-21350D02*
X70950Y-21350D01*
X70950Y-22150D02*
X70750Y-21950D01*
X70750Y-21950D02*
X70750Y-21750D01*
X70750Y-21750D02*
X70750Y-21550D01*
X70750Y-21550D02*
X70950Y-21350D01*
X71900Y-21350D02*
X72250Y-21350D01*
X72250Y-21350D02*
X72250Y-22150D01*
X72250Y-22150D02*
X71900Y-22150D01*
X71275Y-21350D02*
X70950Y-21350D01*
X71275Y-22150D02*
X70950Y-22150D01*
X71425Y-25650D02*
X71425Y-25850D01*
X71575Y-25750D02*
X71425Y-25750D01*
X71425Y-25750D02*
X71575Y-25675D01*
X71575Y-25675D02*
X71575Y-25825D01*
X71575Y-25825D02*
X71425Y-25750D01*
X70750Y-26050D02*
X70825Y-26050D01*
X70750Y-26100D02*
X70875Y-26100D01*
X70750Y-25950D02*
X70750Y-26150D01*
X70750Y-26150D02*
X70950Y-26150D01*
X70750Y-25450D02*
X70825Y-25450D01*
X70750Y-25400D02*
X70875Y-25400D01*
X70750Y-25550D02*
X70750Y-25350D01*
X70750Y-25350D02*
X70950Y-25350D01*
X70950Y-26150D02*
X70750Y-25950D01*
X70750Y-25950D02*
X70750Y-25750D01*
X70750Y-25750D02*
X70750Y-25550D01*
X70750Y-25550D02*
X70950Y-25350D01*
X71900Y-25350D02*
X72250Y-25350D01*
X72250Y-25350D02*
X72250Y-26150D01*
X72250Y-26150D02*
X71900Y-26150D01*
X71275Y-25350D02*
X70950Y-25350D01*
X71275Y-26150D02*
X70950Y-26150D01*
X71425Y-29650D02*
X71425Y-29850D01*
X71575Y-29750D02*
X71425Y-29750D01*
X71425Y-29750D02*
X71575Y-29675D01*
X71575Y-29675D02*
X71575Y-29825D01*
X71575Y-29825D02*
X71425Y-29750D01*
X70750Y-30050D02*
X70825Y-30050D01*
X70750Y-30100D02*
X70875Y-30100D01*
X70750Y-29950D02*
X70750Y-30150D01*
X70750Y-30150D02*
X70950Y-30150D01*
X70750Y-29450D02*
X70825Y-29450D01*
X70750Y-29400D02*
X70875Y-29400D01*
X70750Y-29550D02*
X70750Y-29350D01*
X70750Y-29350D02*
X70950Y-29350D01*
X70950Y-30150D02*
X70750Y-29950D01*
X70750Y-29950D02*
X70750Y-29750D01*
X70750Y-29750D02*
X70750Y-29550D01*
X70750Y-29550D02*
X70950Y-29350D01*
X71900Y-29350D02*
X72250Y-29350D01*
X72250Y-29350D02*
X72250Y-30150D01*
X72250Y-30150D02*
X71900Y-30150D01*
X71275Y-29350D02*
X70950Y-29350D01*
X71275Y-30150D02*
X70950Y-30150D01*
X71425Y-33650D02*
X71425Y-33850D01*
X71575Y-33750D02*
X71425Y-33750D01*
X71425Y-33750D02*
X71575Y-33675D01*
X71575Y-33675D02*
X71575Y-33825D01*
X71575Y-33825D02*
X71425Y-33750D01*
X70750Y-34050D02*
X70825Y-34050D01*
X70750Y-34100D02*
X70875Y-34100D01*
X70750Y-33950D02*
X70750Y-34150D01*
X70750Y-34150D02*
X70950Y-34150D01*
X70750Y-33450D02*
X70825Y-33450D01*
X70750Y-33400D02*
X70875Y-33400D01*
X70750Y-33550D02*
X70750Y-33350D01*
X70750Y-33350D02*
X70950Y-33350D01*
X70950Y-34150D02*
X70750Y-33950D01*
X70750Y-33950D02*
X70750Y-33750D01*
X70750Y-33750D02*
X70750Y-33550D01*
X70750Y-33550D02*
X70950Y-33350D01*
X71900Y-33350D02*
X72250Y-33350D01*
X72250Y-33350D02*
X72250Y-34150D01*
X72250Y-34150D02*
X71900Y-34150D01*
X71275Y-33350D02*
X70950Y-33350D01*
X71275Y-34150D02*
X70950Y-34150D01*
X71425Y-37650D02*
X71425Y-37850D01*
X71575Y-37750D02*
X71425Y-37750D01*
X71425Y-37750D02*
X71575Y-37675D01*
X71575Y-37675D02*
X71575Y-37825D01*
X71575Y-37825D02*
X71425Y-37750D01*
X70750Y-38050D02*
X70825Y-38050D01*
X70750Y-38100D02*
X70875Y-38100D01*
X70750Y-37950D02*
X70750Y-38150D01*
X70750Y-38150D02*
X70950Y-38150D01*
X70750Y-37450D02*
X70825Y-37450D01*
X70750Y-37400D02*
X70875Y-37400D01*
X70750Y-37550D02*
X70750Y-37350D01*
X70750Y-37350D02*
X70950Y-37350D01*
X70950Y-38150D02*
X70750Y-37950D01*
X70750Y-37950D02*
X70750Y-37750D01*
X70750Y-37750D02*
X70750Y-37550D01*
X70750Y-37550D02*
X70950Y-37350D01*
X71900Y-37350D02*
X72250Y-37350D01*
X72250Y-37350D02*
X72250Y-38150D01*
X72250Y-38150D02*
X71900Y-38150D01*
X71275Y-37350D02*
X70950Y-37350D01*
X71275Y-38150D02*
X70950Y-38150D01*
X70600Y-41675D02*
X70400Y-41675D01*
X70500Y-41825D02*
X70500Y-41675D01*
X70500Y-41675D02*
X70575Y-41825D01*
X70575Y-41825D02*
X70425Y-41825D01*
X70425Y-41825D02*
X70500Y-41675D01*
X70200Y-41000D02*
X70200Y-41075D01*
X70150Y-41000D02*
X70150Y-41125D01*
X70300Y-41000D02*
X70100Y-41000D01*
X70100Y-41000D02*
X70100Y-41200D01*
X70800Y-41000D02*
X70800Y-41075D01*
X70850Y-41000D02*
X70850Y-41125D01*
X70700Y-41000D02*
X70900Y-41000D01*
X70900Y-41000D02*
X70900Y-41200D01*
X70100Y-41200D02*
X70300Y-41000D01*
X70300Y-41000D02*
X70500Y-41000D01*
X70500Y-41000D02*
X70700Y-41000D01*
X70700Y-41000D02*
X70900Y-41200D01*
X70900Y-42150D02*
X70900Y-42500D01*
X70900Y-42500D02*
X70100Y-42500D01*
X70100Y-42500D02*
X70100Y-42150D01*
X70900Y-41525D02*
X70900Y-41200D01*
X70100Y-41525D02*
X70100Y-41200D01*
X66600Y-41675D02*
X66400Y-41675D01*
X66500Y-41825D02*
X66500Y-41675D01*
X66500Y-41675D02*
X66575Y-41825D01*
X66575Y-41825D02*
X66425Y-41825D01*
X66425Y-41825D02*
X66500Y-41675D01*
X66200Y-41000D02*
X66200Y-41075D01*
X66150Y-41000D02*
X66150Y-41125D01*
X66300Y-41000D02*
X66100Y-41000D01*
X66100Y-41000D02*
X66100Y-41200D01*
X66800Y-41000D02*
X66800Y-41075D01*
X66850Y-41000D02*
X66850Y-41125D01*
X66700Y-41000D02*
X66900Y-41000D01*
X66900Y-41000D02*
X66900Y-41200D01*
X66100Y-41200D02*
X66300Y-41000D01*
X66300Y-41000D02*
X66500Y-41000D01*
X66500Y-41000D02*
X66700Y-41000D01*
X66700Y-41000D02*
X66900Y-41200D01*
X66900Y-42150D02*
X66900Y-42500D01*
X66900Y-42500D02*
X66100Y-42500D01*
X66100Y-42500D02*
X66100Y-42150D01*
X66900Y-41525D02*
X66900Y-41200D01*
X66100Y-41525D02*
X66100Y-41200D01*
X62600Y-41675D02*
X62400Y-41675D01*
X62500Y-41825D02*
X62500Y-41675D01*
X62500Y-41675D02*
X62575Y-41825D01*
X62575Y-41825D02*
X62425Y-41825D01*
X62425Y-41825D02*
X62500Y-41675D01*
X62200Y-41000D02*
X62200Y-41075D01*
X62150Y-41000D02*
X62150Y-41125D01*
X62300Y-41000D02*
X62100Y-41000D01*
X62100Y-41000D02*
X62100Y-41200D01*
X62800Y-41000D02*
X62800Y-41075D01*
X62850Y-41000D02*
X62850Y-41125D01*
X62700Y-41000D02*
X62900Y-41000D01*
X62900Y-41000D02*
X62900Y-41200D01*
X62100Y-41200D02*
X62300Y-41000D01*
X62300Y-41000D02*
X62500Y-41000D01*
X62500Y-41000D02*
X62700Y-41000D01*
X62700Y-41000D02*
X62900Y-41200D01*
X62900Y-42150D02*
X62900Y-42500D01*
X62900Y-42500D02*
X62100Y-42500D01*
X62100Y-42500D02*
X62100Y-42150D01*
X62900Y-41525D02*
X62900Y-41200D01*
X62100Y-41525D02*
X62100Y-41200D01*
X56175Y-57400D02*
X56175Y-57600D01*
X56325Y-57500D02*
X56175Y-57500D01*
X56175Y-57500D02*
X56325Y-57425D01*
X56325Y-57425D02*
X56325Y-57575D01*
X56325Y-57575D02*
X56175Y-57500D01*
X55500Y-57800D02*
X55575Y-57800D01*
X55500Y-57850D02*
X55625Y-57850D01*
X55500Y-57700D02*
X55500Y-57900D01*
X55500Y-57900D02*
X55700Y-57900D01*
X55500Y-57200D02*
X55575Y-57200D01*
X55500Y-57150D02*
X55625Y-57150D01*
X55500Y-57300D02*
X55500Y-57100D01*
X55500Y-57100D02*
X55700Y-57100D01*
X55700Y-57900D02*
X55500Y-57700D01*
X55500Y-57700D02*
X55500Y-57500D01*
X55500Y-57500D02*
X55500Y-57300D01*
X55500Y-57300D02*
X55700Y-57100D01*
X56650Y-57100D02*
X57000Y-57100D01*
X57000Y-57100D02*
X57000Y-57900D01*
X57000Y-57900D02*
X56650Y-57900D01*
X56025Y-57100D02*
X55700Y-57100D01*
X56025Y-57900D02*
X55700Y-57900D01*
X56175Y-32400D02*
X56175Y-32600D01*
X56325Y-32500D02*
X56175Y-32500D01*
X56175Y-32500D02*
X56325Y-32425D01*
X56325Y-32425D02*
X56325Y-32575D01*
X56325Y-32575D02*
X56175Y-32500D01*
X55500Y-32800D02*
X55575Y-32800D01*
X55500Y-32850D02*
X55625Y-32850D01*
X55500Y-32700D02*
X55500Y-32900D01*
X55500Y-32900D02*
X55700Y-32900D01*
X55500Y-32200D02*
X55575Y-32200D01*
X55500Y-32150D02*
X55625Y-32150D01*
X55500Y-32300D02*
X55500Y-32100D01*
X55500Y-32100D02*
X55700Y-32100D01*
X55700Y-32900D02*
X55500Y-32700D01*
X55500Y-32700D02*
X55500Y-32500D01*
X55500Y-32500D02*
X55500Y-32300D01*
X55500Y-32300D02*
X55700Y-32100D01*
X56650Y-32100D02*
X57000Y-32100D01*
X57000Y-32100D02*
X57000Y-32900D01*
X57000Y-32900D02*
X56650Y-32900D01*
X56025Y-32100D02*
X55700Y-32100D01*
X56025Y-32900D02*
X55700Y-32900D01*
X56175Y-37400D02*
X56175Y-37600D01*
X56325Y-37500D02*
X56175Y-37500D01*
X56175Y-37500D02*
X56325Y-37425D01*
X56325Y-37425D02*
X56325Y-37575D01*
X56325Y-37575D02*
X56175Y-37500D01*
X55500Y-37800D02*
X55575Y-37800D01*
X55500Y-37850D02*
X55625Y-37850D01*
X55500Y-37700D02*
X55500Y-37900D01*
X55500Y-37900D02*
X55700Y-37900D01*
X55500Y-37200D02*
X55575Y-37200D01*
X55500Y-37150D02*
X55625Y-37150D01*
X55500Y-37300D02*
X55500Y-37100D01*
X55500Y-37100D02*
X55700Y-37100D01*
X55700Y-37900D02*
X55500Y-37700D01*
X55500Y-37700D02*
X55500Y-37500D01*
X55500Y-37500D02*
X55500Y-37300D01*
X55500Y-37300D02*
X55700Y-37100D01*
X56650Y-37100D02*
X57000Y-37100D01*
X57000Y-37100D02*
X57000Y-37900D01*
X57000Y-37900D02*
X56650Y-37900D01*
X56025Y-37100D02*
X55700Y-37100D01*
X56025Y-37900D02*
X55700Y-37900D01*
X48675Y-19400D02*
X48675Y-19600D01*
X48825Y-19500D02*
X48675Y-19500D01*
X48675Y-19500D02*
X48825Y-19425D01*
X48825Y-19425D02*
X48825Y-19575D01*
X48825Y-19575D02*
X48675Y-19500D01*
X48000Y-19800D02*
X48075Y-19800D01*
X48000Y-19850D02*
X48125Y-19850D01*
X48000Y-19700D02*
X48000Y-19900D01*
X48000Y-19900D02*
X48200Y-19900D01*
X48000Y-19200D02*
X48075Y-19200D01*
X48000Y-19150D02*
X48125Y-19150D01*
X48000Y-19300D02*
X48000Y-19100D01*
X48000Y-19100D02*
X48200Y-19100D01*
X48200Y-19900D02*
X48000Y-19700D01*
X48000Y-19700D02*
X48000Y-19500D01*
X48000Y-19500D02*
X48000Y-19300D01*
X48000Y-19300D02*
X48200Y-19100D01*
X49150Y-19100D02*
X49500Y-19100D01*
X49500Y-19100D02*
X49500Y-19900D01*
X49500Y-19900D02*
X49150Y-19900D01*
X48525Y-19100D02*
X48200Y-19100D01*
X48525Y-19900D02*
X48200Y-19900D01*
X56175Y-42400D02*
X56175Y-42600D01*
X56325Y-42500D02*
X56175Y-42500D01*
X56175Y-42500D02*
X56325Y-42425D01*
X56325Y-42425D02*
X56325Y-42575D01*
X56325Y-42575D02*
X56175Y-42500D01*
X55500Y-42800D02*
X55575Y-42800D01*
X55500Y-42850D02*
X55625Y-42850D01*
X55500Y-42700D02*
X55500Y-42900D01*
X55500Y-42900D02*
X55700Y-42900D01*
X55500Y-42200D02*
X55575Y-42200D01*
X55500Y-42150D02*
X55625Y-42150D01*
X55500Y-42300D02*
X55500Y-42100D01*
X55500Y-42100D02*
X55700Y-42100D01*
X55700Y-42900D02*
X55500Y-42700D01*
X55500Y-42700D02*
X55500Y-42500D01*
X55500Y-42500D02*
X55500Y-42300D01*
X55500Y-42300D02*
X55700Y-42100D01*
X56650Y-42100D02*
X57000Y-42100D01*
X57000Y-42100D02*
X57000Y-42900D01*
X57000Y-42900D02*
X56650Y-42900D01*
X56025Y-42100D02*
X55700Y-42100D01*
X56025Y-42900D02*
X55700Y-42900D01*
X56175Y-47400D02*
X56175Y-47600D01*
X56325Y-47500D02*
X56175Y-47500D01*
X56175Y-47500D02*
X56325Y-47425D01*
X56325Y-47425D02*
X56325Y-47575D01*
X56325Y-47575D02*
X56175Y-47500D01*
X55500Y-47800D02*
X55575Y-47800D01*
X55500Y-47850D02*
X55625Y-47850D01*
X55500Y-47700D02*
X55500Y-47900D01*
X55500Y-47900D02*
X55700Y-47900D01*
X55500Y-47200D02*
X55575Y-47200D01*
X55500Y-47150D02*
X55625Y-47150D01*
X55500Y-47300D02*
X55500Y-47100D01*
X55500Y-47100D02*
X55700Y-47100D01*
X55700Y-47900D02*
X55500Y-47700D01*
X55500Y-47700D02*
X55500Y-47500D01*
X55500Y-47500D02*
X55500Y-47300D01*
X55500Y-47300D02*
X55700Y-47100D01*
X56650Y-47100D02*
X57000Y-47100D01*
X57000Y-47100D02*
X57000Y-47900D01*
X57000Y-47900D02*
X56650Y-47900D01*
X56025Y-47100D02*
X55700Y-47100D01*
X56025Y-47900D02*
X55700Y-47900D01*
X56175Y-52400D02*
X56175Y-52600D01*
X56325Y-52500D02*
X56175Y-52500D01*
X56175Y-52500D02*
X56325Y-52425D01*
X56325Y-52425D02*
X56325Y-52575D01*
X56325Y-52575D02*
X56175Y-52500D01*
X55500Y-52800D02*
X55575Y-52800D01*
X55500Y-52850D02*
X55625Y-52850D01*
X55500Y-52700D02*
X55500Y-52900D01*
X55500Y-52900D02*
X55700Y-52900D01*
X55500Y-52200D02*
X55575Y-52200D01*
X55500Y-52150D02*
X55625Y-52150D01*
X55500Y-52300D02*
X55500Y-52100D01*
X55500Y-52100D02*
X55700Y-52100D01*
X55700Y-52900D02*
X55500Y-52700D01*
X55500Y-52700D02*
X55500Y-52500D01*
X55500Y-52500D02*
X55500Y-52300D01*
X55500Y-52300D02*
X55700Y-52100D01*
X56650Y-52100D02*
X57000Y-52100D01*
X57000Y-52100D02*
X57000Y-52900D01*
X57000Y-52900D02*
X56650Y-52900D01*
X56025Y-52100D02*
X55700Y-52100D01*
X56025Y-52900D02*
X55700Y-52900D01*
X56175Y-27400D02*
X56175Y-27600D01*
X56325Y-27500D02*
X56175Y-27500D01*
X56175Y-27500D02*
X56325Y-27425D01*
X56325Y-27425D02*
X56325Y-27575D01*
X56325Y-27575D02*
X56175Y-27500D01*
X55500Y-27800D02*
X55575Y-27800D01*
X55500Y-27850D02*
X55625Y-27850D01*
X55500Y-27700D02*
X55500Y-27900D01*
X55500Y-27900D02*
X55700Y-27900D01*
X55500Y-27200D02*
X55575Y-27200D01*
X55500Y-27150D02*
X55625Y-27150D01*
X55500Y-27300D02*
X55500Y-27100D01*
X55500Y-27100D02*
X55700Y-27100D01*
X55700Y-27900D02*
X55500Y-27700D01*
X55500Y-27700D02*
X55500Y-27500D01*
X55500Y-27500D02*
X55500Y-27300D01*
X55500Y-27300D02*
X55700Y-27100D01*
X56650Y-27100D02*
X57000Y-27100D01*
X57000Y-27100D02*
X57000Y-27900D01*
X57000Y-27900D02*
X56650Y-27900D01*
X56025Y-27100D02*
X55700Y-27100D01*
X56025Y-27900D02*
X55700Y-27900D01*
X63675Y-23400D02*
X63675Y-23600D01*
X63825Y-23500D02*
X63675Y-23500D01*
X63675Y-23500D02*
X63825Y-23425D01*
X63825Y-23425D02*
X63825Y-23575D01*
X63825Y-23575D02*
X63675Y-23500D01*
X63000Y-23800D02*
X63075Y-23800D01*
X63000Y-23850D02*
X63125Y-23850D01*
X63000Y-23700D02*
X63000Y-23900D01*
X63000Y-23900D02*
X63200Y-23900D01*
X63000Y-23200D02*
X63075Y-23200D01*
X63000Y-23150D02*
X63125Y-23150D01*
X63000Y-23300D02*
X63000Y-23100D01*
X63000Y-23100D02*
X63200Y-23100D01*
X63200Y-23900D02*
X63000Y-23700D01*
X63000Y-23700D02*
X63000Y-23500D01*
X63000Y-23500D02*
X63000Y-23300D01*
X63000Y-23300D02*
X63200Y-23100D01*
X64150Y-23100D02*
X64500Y-23100D01*
X64500Y-23100D02*
X64500Y-23900D01*
X64500Y-23900D02*
X64150Y-23900D01*
X63525Y-23100D02*
X63200Y-23100D01*
X63525Y-23900D02*
X63200Y-23900D01*
X63675Y-27400D02*
X63675Y-27600D01*
X63825Y-27500D02*
X63675Y-27500D01*
X63675Y-27500D02*
X63825Y-27425D01*
X63825Y-27425D02*
X63825Y-27575D01*
X63825Y-27575D02*
X63675Y-27500D01*
X63000Y-27800D02*
X63075Y-27800D01*
X63000Y-27850D02*
X63125Y-27850D01*
X63000Y-27700D02*
X63000Y-27900D01*
X63000Y-27900D02*
X63200Y-27900D01*
X63000Y-27200D02*
X63075Y-27200D01*
X63000Y-27150D02*
X63125Y-27150D01*
X63000Y-27300D02*
X63000Y-27100D01*
X63000Y-27100D02*
X63200Y-27100D01*
X63200Y-27900D02*
X63000Y-27700D01*
X63000Y-27700D02*
X63000Y-27500D01*
X63000Y-27500D02*
X63000Y-27300D01*
X63000Y-27300D02*
X63200Y-27100D01*
X64150Y-27100D02*
X64500Y-27100D01*
X64500Y-27100D02*
X64500Y-27900D01*
X64500Y-27900D02*
X64150Y-27900D01*
X63525Y-27100D02*
X63200Y-27100D01*
X63525Y-27900D02*
X63200Y-27900D01*
X63675Y-31400D02*
X63675Y-31600D01*
X63825Y-31500D02*
X63675Y-31500D01*
X63675Y-31500D02*
X63825Y-31425D01*
X63825Y-31425D02*
X63825Y-31575D01*
X63825Y-31575D02*
X63675Y-31500D01*
X63000Y-31800D02*
X63075Y-31800D01*
X63000Y-31850D02*
X63125Y-31850D01*
X63000Y-31700D02*
X63000Y-31900D01*
X63000Y-31900D02*
X63200Y-31900D01*
X63000Y-31200D02*
X63075Y-31200D01*
X63000Y-31150D02*
X63125Y-31150D01*
X63000Y-31300D02*
X63000Y-31100D01*
X63000Y-31100D02*
X63200Y-31100D01*
X63200Y-31900D02*
X63000Y-31700D01*
X63000Y-31700D02*
X63000Y-31500D01*
X63000Y-31500D02*
X63000Y-31300D01*
X63000Y-31300D02*
X63200Y-31100D01*
X64150Y-31100D02*
X64500Y-31100D01*
X64500Y-31100D02*
X64500Y-31900D01*
X64500Y-31900D02*
X64150Y-31900D01*
X63525Y-31100D02*
X63200Y-31100D01*
X63525Y-31900D02*
X63200Y-31900D01*
X63675Y-35400D02*
X63675Y-35600D01*
X63825Y-35500D02*
X63675Y-35500D01*
X63675Y-35500D02*
X63825Y-35425D01*
X63825Y-35425D02*
X63825Y-35575D01*
X63825Y-35575D02*
X63675Y-35500D01*
X63000Y-35800D02*
X63075Y-35800D01*
X63000Y-35850D02*
X63125Y-35850D01*
X63000Y-35700D02*
X63000Y-35900D01*
X63000Y-35900D02*
X63200Y-35900D01*
X63000Y-35200D02*
X63075Y-35200D01*
X63000Y-35150D02*
X63125Y-35150D01*
X63000Y-35300D02*
X63000Y-35100D01*
X63000Y-35100D02*
X63200Y-35100D01*
X63200Y-35900D02*
X63000Y-35700D01*
X63000Y-35700D02*
X63000Y-35500D01*
X63000Y-35500D02*
X63000Y-35300D01*
X63000Y-35300D02*
X63200Y-35100D01*
X64150Y-35100D02*
X64500Y-35100D01*
X64500Y-35100D02*
X64500Y-35900D01*
X64500Y-35900D02*
X64150Y-35900D01*
X63525Y-35100D02*
X63200Y-35100D01*
X63525Y-35900D02*
X63200Y-35900D01*
X39450Y-21875D02*
X40075Y-21875D01*
X40075Y-21875D02*
X40075Y-22725D01*
X40075Y-22725D02*
X39450Y-22725D01*
X39150Y-22725D02*
X38550Y-22725D01*
X38550Y-22725D02*
X38525Y-22725D01*
X38525Y-22725D02*
X38525Y-21875D01*
X38525Y-21875D02*
X39150Y-21875D01*
X46950Y-33075D02*
X47575Y-33075D01*
X47575Y-33075D02*
X47575Y-33925D01*
X47575Y-33925D02*
X46950Y-33925D01*
X46650Y-33925D02*
X46050Y-33925D01*
X46050Y-33925D02*
X46025Y-33925D01*
X46025Y-33925D02*
X46025Y-33075D01*
X46025Y-33075D02*
X46650Y-33075D01*
X46950Y-25075D02*
X47575Y-25075D01*
X47575Y-25075D02*
X47575Y-25925D01*
X47575Y-25925D02*
X46950Y-25925D01*
X46650Y-25925D02*
X46050Y-25925D01*
X46050Y-25925D02*
X46025Y-25925D01*
X46025Y-25925D02*
X46025Y-25075D01*
X46025Y-25075D02*
X46650Y-25075D01*
X39450Y-29925D02*
X40075Y-29925D01*
X40075Y-29925D02*
X40075Y-30775D01*
X40075Y-30775D02*
X39450Y-30775D01*
X39150Y-30775D02*
X38550Y-30775D01*
X38550Y-30775D02*
X38525Y-30775D01*
X38525Y-30775D02*
X38525Y-29925D01*
X38525Y-29925D02*
X39150Y-29925D01*
X41175Y-20200D02*
X41175Y-20400D01*
X41325Y-20300D02*
X41175Y-20300D01*
X41175Y-20300D02*
X41325Y-20225D01*
X41325Y-20225D02*
X41325Y-20375D01*
X41325Y-20375D02*
X41175Y-20300D01*
X40500Y-20600D02*
X40575Y-20600D01*
X40500Y-20650D02*
X40625Y-20650D01*
X40500Y-20500D02*
X40500Y-20700D01*
X40500Y-20700D02*
X40700Y-20700D01*
X40500Y-20000D02*
X40575Y-20000D01*
X40500Y-19950D02*
X40625Y-19950D01*
X40500Y-20100D02*
X40500Y-19900D01*
X40500Y-19900D02*
X40700Y-19900D01*
X40700Y-20700D02*
X40500Y-20500D01*
X40500Y-20500D02*
X40500Y-20300D01*
X40500Y-20300D02*
X40500Y-20100D01*
X40500Y-20100D02*
X40700Y-19900D01*
X41650Y-19900D02*
X42000Y-19900D01*
X42000Y-19900D02*
X42000Y-20700D01*
X42000Y-20700D02*
X41650Y-20700D01*
X41025Y-19900D02*
X40700Y-19900D01*
X41025Y-20700D02*
X40700Y-20700D01*
X41175Y-24200D02*
X41175Y-24400D01*
X41325Y-24300D02*
X41175Y-24300D01*
X41175Y-24300D02*
X41325Y-24225D01*
X41325Y-24225D02*
X41325Y-24375D01*
X41325Y-24375D02*
X41175Y-24300D01*
X40500Y-24600D02*
X40575Y-24600D01*
X40500Y-24650D02*
X40625Y-24650D01*
X40500Y-24500D02*
X40500Y-24700D01*
X40500Y-24700D02*
X40700Y-24700D01*
X40500Y-24000D02*
X40575Y-24000D01*
X40500Y-23950D02*
X40625Y-23950D01*
X40500Y-24100D02*
X40500Y-23900D01*
X40500Y-23900D02*
X40700Y-23900D01*
X40700Y-24700D02*
X40500Y-24500D01*
X40500Y-24500D02*
X40500Y-24300D01*
X40500Y-24300D02*
X40500Y-24100D01*
X40500Y-24100D02*
X40700Y-23900D01*
X41650Y-23900D02*
X42000Y-23900D01*
X42000Y-23900D02*
X42000Y-24700D01*
X42000Y-24700D02*
X41650Y-24700D01*
X41025Y-23900D02*
X40700Y-23900D01*
X41025Y-24700D02*
X40700Y-24700D01*
X41175Y-28200D02*
X41175Y-28400D01*
X41325Y-28300D02*
X41175Y-28300D01*
X41175Y-28300D02*
X41325Y-28225D01*
X41325Y-28225D02*
X41325Y-28375D01*
X41325Y-28375D02*
X41175Y-28300D01*
X40500Y-28600D02*
X40575Y-28600D01*
X40500Y-28650D02*
X40625Y-28650D01*
X40500Y-28500D02*
X40500Y-28700D01*
X40500Y-28700D02*
X40700Y-28700D01*
X40500Y-28000D02*
X40575Y-28000D01*
X40500Y-27950D02*
X40625Y-27950D01*
X40500Y-28100D02*
X40500Y-27900D01*
X40500Y-27900D02*
X40700Y-27900D01*
X40700Y-28700D02*
X40500Y-28500D01*
X40500Y-28500D02*
X40500Y-28300D01*
X40500Y-28300D02*
X40500Y-28100D01*
X40500Y-28100D02*
X40700Y-27900D01*
X41650Y-27900D02*
X42000Y-27900D01*
X42000Y-27900D02*
X42000Y-28700D01*
X42000Y-28700D02*
X41650Y-28700D01*
X41025Y-27900D02*
X40700Y-27900D01*
X41025Y-28700D02*
X40700Y-28700D01*
X41175Y-32200D02*
X41175Y-32400D01*
X41325Y-32300D02*
X41175Y-32300D01*
X41175Y-32300D02*
X41325Y-32225D01*
X41325Y-32225D02*
X41325Y-32375D01*
X41325Y-32375D02*
X41175Y-32300D01*
X40500Y-32600D02*
X40575Y-32600D01*
X40500Y-32650D02*
X40625Y-32650D01*
X40500Y-32500D02*
X40500Y-32700D01*
X40500Y-32700D02*
X40700Y-32700D01*
X40500Y-32000D02*
X40575Y-32000D01*
X40500Y-31950D02*
X40625Y-31950D01*
X40500Y-32100D02*
X40500Y-31900D01*
X40500Y-31900D02*
X40700Y-31900D01*
X40700Y-32700D02*
X40500Y-32500D01*
X40500Y-32500D02*
X40500Y-32300D01*
X40500Y-32300D02*
X40500Y-32100D01*
X40500Y-32100D02*
X40700Y-31900D01*
X41650Y-31900D02*
X42000Y-31900D01*
X42000Y-31900D02*
X42000Y-32700D01*
X42000Y-32700D02*
X41650Y-32700D01*
X41025Y-31900D02*
X40700Y-31900D01*
X41025Y-32700D02*
X40700Y-32700D01*
X48675Y-23400D02*
X48675Y-23600D01*
X48825Y-23500D02*
X48675Y-23500D01*
X48675Y-23500D02*
X48825Y-23425D01*
X48825Y-23425D02*
X48825Y-23575D01*
X48825Y-23575D02*
X48675Y-23500D01*
X48000Y-23800D02*
X48075Y-23800D01*
X48000Y-23850D02*
X48125Y-23850D01*
X48000Y-23700D02*
X48000Y-23900D01*
X48000Y-23900D02*
X48200Y-23900D01*
X48000Y-23200D02*
X48075Y-23200D01*
X48000Y-23150D02*
X48125Y-23150D01*
X48000Y-23300D02*
X48000Y-23100D01*
X48000Y-23100D02*
X48200Y-23100D01*
X48200Y-23900D02*
X48000Y-23700D01*
X48000Y-23700D02*
X48000Y-23500D01*
X48000Y-23500D02*
X48000Y-23300D01*
X48000Y-23300D02*
X48200Y-23100D01*
X49150Y-23100D02*
X49500Y-23100D01*
X49500Y-23100D02*
X49500Y-23900D01*
X49500Y-23900D02*
X49150Y-23900D01*
X48525Y-23100D02*
X48200Y-23100D01*
X48525Y-23900D02*
X48200Y-23900D01*
X48675Y-27400D02*
X48675Y-27600D01*
X48825Y-27500D02*
X48675Y-27500D01*
X48675Y-27500D02*
X48825Y-27425D01*
X48825Y-27425D02*
X48825Y-27575D01*
X48825Y-27575D02*
X48675Y-27500D01*
X48000Y-27800D02*
X48075Y-27800D01*
X48000Y-27850D02*
X48125Y-27850D01*
X48000Y-27700D02*
X48000Y-27900D01*
X48000Y-27900D02*
X48200Y-27900D01*
X48000Y-27200D02*
X48075Y-27200D01*
X48000Y-27150D02*
X48125Y-27150D01*
X48000Y-27300D02*
X48000Y-27100D01*
X48000Y-27100D02*
X48200Y-27100D01*
X48200Y-27900D02*
X48000Y-27700D01*
X48000Y-27700D02*
X48000Y-27500D01*
X48000Y-27500D02*
X48000Y-27300D01*
X48000Y-27300D02*
X48200Y-27100D01*
X49150Y-27100D02*
X49500Y-27100D01*
X49500Y-27100D02*
X49500Y-27900D01*
X49500Y-27900D02*
X49150Y-27900D01*
X48525Y-27100D02*
X48200Y-27100D01*
X48525Y-27900D02*
X48200Y-27900D01*
X48675Y-31400D02*
X48675Y-31600D01*
X48825Y-31500D02*
X48675Y-31500D01*
X48675Y-31500D02*
X48825Y-31425D01*
X48825Y-31425D02*
X48825Y-31575D01*
X48825Y-31575D02*
X48675Y-31500D01*
X48000Y-31800D02*
X48075Y-31800D01*
X48000Y-31850D02*
X48125Y-31850D01*
X48000Y-31700D02*
X48000Y-31900D01*
X48000Y-31900D02*
X48200Y-31900D01*
X48000Y-31200D02*
X48075Y-31200D01*
X48000Y-31150D02*
X48125Y-31150D01*
X48000Y-31300D02*
X48000Y-31100D01*
X48000Y-31100D02*
X48200Y-31100D01*
X48200Y-31900D02*
X48000Y-31700D01*
X48000Y-31700D02*
X48000Y-31500D01*
X48000Y-31500D02*
X48000Y-31300D01*
X48000Y-31300D02*
X48200Y-31100D01*
X49150Y-31100D02*
X49500Y-31100D01*
X49500Y-31100D02*
X49500Y-31900D01*
X49500Y-31900D02*
X49150Y-31900D01*
X48525Y-31100D02*
X48200Y-31100D01*
X48525Y-31900D02*
X48200Y-31900D01*
X48675Y-35400D02*
X48675Y-35600D01*
X48825Y-35500D02*
X48675Y-35500D01*
X48675Y-35500D02*
X48825Y-35425D01*
X48825Y-35425D02*
X48825Y-35575D01*
X48825Y-35575D02*
X48675Y-35500D01*
X48000Y-35800D02*
X48075Y-35800D01*
X48000Y-35850D02*
X48125Y-35850D01*
X48000Y-35700D02*
X48000Y-35900D01*
X48000Y-35900D02*
X48200Y-35900D01*
X48000Y-35200D02*
X48075Y-35200D01*
X48000Y-35150D02*
X48125Y-35150D01*
X48000Y-35300D02*
X48000Y-35100D01*
X48000Y-35100D02*
X48200Y-35100D01*
X48200Y-35900D02*
X48000Y-35700D01*
X48000Y-35700D02*
X48000Y-35500D01*
X48000Y-35500D02*
X48000Y-35300D01*
X48000Y-35300D02*
X48200Y-35100D01*
X49150Y-35100D02*
X49500Y-35100D01*
X49500Y-35100D02*
X49500Y-35900D01*
X49500Y-35900D02*
X49150Y-35900D01*
X48525Y-35100D02*
X48200Y-35100D01*
X48525Y-35900D02*
X48200Y-35900D01*
G54D11*
X51200Y-53950D02*
X51197Y-53898D01*
X51190Y-53846D01*
X51179Y-53795D01*
X51163Y-53745D01*
X51143Y-53697D01*
X51119Y-53651D01*
X51091Y-53606D01*
X51059Y-53565D01*
X51024Y-53526D01*
X50985Y-53491D01*
X50944Y-53459D01*
X50900Y-53431D01*
X50853Y-53407D01*
X50805Y-53387D01*
X50755Y-53371D01*
X50704Y-53360D01*
X50652Y-53353D01*
X50600Y-53350D01*
X48850Y-53350D02*
X48798Y-53353D01*
X48746Y-53360D01*
X48695Y-53371D01*
X48645Y-53387D01*
X48597Y-53407D01*
X48551Y-53431D01*
X48506Y-53459D01*
X48465Y-53491D01*
X48426Y-53526D01*
X48391Y-53565D01*
X48359Y-53606D01*
X48331Y-53651D01*
X48307Y-53697D01*
X48287Y-53745D01*
X48271Y-53795D01*
X48260Y-53846D01*
X48253Y-53898D01*
X48250Y-53950D01*
X50600Y-57100D02*
X50652Y-57097D01*
X50704Y-57090D01*
X50755Y-57079D01*
X50805Y-57063D01*
X50853Y-57043D01*
X50900Y-57019D01*
X50944Y-56991D01*
X50985Y-56959D01*
X51024Y-56924D01*
X51059Y-56885D01*
X51091Y-56844D01*
X51119Y-56799D01*
X51143Y-56753D01*
X51163Y-56705D01*
X51179Y-56655D01*
X51190Y-56604D01*
X51197Y-56552D01*
X51200Y-56500D01*
X48250Y-56500D02*
X48253Y-56552D01*
X48260Y-56604D01*
X48271Y-56655D01*
X48287Y-56705D01*
X48307Y-56753D01*
X48331Y-56799D01*
X48359Y-56844D01*
X48391Y-56885D01*
X48426Y-56924D01*
X48465Y-56959D01*
X48506Y-56991D01*
X48551Y-57019D01*
X48597Y-57043D01*
X48645Y-57063D01*
X48695Y-57079D01*
X48746Y-57090D01*
X48798Y-57097D01*
X48850Y-57100D01*
X50600Y-57100D02*
X48850Y-57100D01*
X48850Y-53350D02*
X50600Y-53350D01*
X48250Y-53950D02*
X48250Y-56500D01*
X51200Y-53950D02*
X51200Y-56500D01*
G54D12*
X17250Y-54600D02*
X17250Y-54150D01*
X17200Y-54350D02*
X17200Y-54425D01*
X17150Y-54275D02*
X17150Y-54475D01*
X17100Y-54225D02*
X17100Y-54525D01*
X17050Y-54375D02*
X17050Y-54575D01*
X17050Y-54575D02*
X17250Y-54375D01*
X17250Y-54375D02*
X17050Y-54175D01*
X17050Y-54175D02*
X17050Y-54375D01*
X17775Y-54075D02*
X17900Y-54075D01*
X17900Y-54075D02*
X17900Y-54675D01*
X17900Y-54675D02*
X17775Y-54675D01*
X17025Y-54675D02*
X16400Y-54675D01*
X16400Y-54675D02*
X16400Y-54075D01*
X16400Y-54075D02*
X17025Y-54075D01*
G54D13*
X36125Y-37600D02*
X31325Y-37600D01*
X36125Y-34550D02*
X31325Y-34550D01*
X36125Y-37300D02*
X35825Y-37600D01*
X35975Y-35875D02*
X35975Y-36275D01*
X35825Y-36275D02*
X36125Y-36275D01*
X35825Y-35875D02*
X36125Y-35875D01*
X35825Y-35875D02*
X35825Y-36275D01*
X31325Y-34550D02*
X31325Y-37600D01*
X36125Y-34550D02*
X36125Y-37600D01*
G54D11*
X33150Y-44950D02*
X33025Y-44825D01*
X33025Y-44725D02*
X33250Y-44950D01*
X33925Y-44850D02*
X33525Y-44850D01*
X33925Y-44750D02*
X33525Y-44750D01*
X33525Y-44650D02*
X33925Y-44650D01*
X33525Y-44650D02*
X33525Y-44950D01*
X33925Y-44650D02*
X33925Y-44950D01*
X34425Y-40650D02*
X33025Y-40650D01*
X34425Y-40650D02*
X34425Y-40875D01*
X33025Y-40650D02*
X33025Y-40875D01*
X33025Y-44950D02*
X33025Y-44725D01*
X34425Y-44950D02*
X34425Y-44725D01*
X33025Y-44950D02*
X34425Y-44950D01*
G54D10*
X25750Y-57750D02*
X25125Y-57750D01*
X25125Y-57750D02*
X25125Y-56900D01*
X25125Y-56900D02*
X25750Y-56900D01*
X26050Y-56900D02*
X26650Y-56900D01*
X26650Y-56900D02*
X26675Y-56900D01*
X26675Y-56900D02*
X26675Y-57750D01*
X26675Y-57750D02*
X26050Y-57750D01*
X25850Y-58525D02*
X25850Y-58725D01*
X26000Y-58625D02*
X25850Y-58625D01*
X25850Y-58625D02*
X26000Y-58550D01*
X26000Y-58550D02*
X26000Y-58700D01*
X26000Y-58700D02*
X25850Y-58625D01*
X25175Y-58925D02*
X25250Y-58925D01*
X25175Y-58975D02*
X25300Y-58975D01*
X25175Y-58825D02*
X25175Y-59025D01*
X25175Y-59025D02*
X25375Y-59025D01*
X25175Y-58325D02*
X25250Y-58325D01*
X25175Y-58275D02*
X25300Y-58275D01*
X25175Y-58425D02*
X25175Y-58225D01*
X25175Y-58225D02*
X25375Y-58225D01*
X25375Y-59025D02*
X25175Y-58825D01*
X25175Y-58825D02*
X25175Y-58625D01*
X25175Y-58625D02*
X25175Y-58425D01*
X25175Y-58425D02*
X25375Y-58225D01*
X26325Y-58225D02*
X26675Y-58225D01*
X26675Y-58225D02*
X26675Y-59025D01*
X26675Y-59025D02*
X26325Y-59025D01*
X25700Y-58225D02*
X25375Y-58225D01*
X25700Y-59025D02*
X25375Y-59025D01*
X17924Y-52301D02*
X17879Y-52222D01*
X17827Y-52147D01*
X17769Y-52078D01*
X17705Y-52013D01*
X17636Y-51955D01*
X17562Y-51902D01*
X17484Y-51856D01*
X17402Y-51818D01*
X17317Y-51786D01*
X17230Y-51762D01*
X17141Y-51746D01*
X17050Y-51738D01*
X16961Y-51737D01*
X16870Y-51745D01*
X16781Y-51760D01*
X16693Y-51783D01*
X16608Y-51814D01*
X16526Y-51851D01*
X17474Y-51851D02*
X17392Y-51814D01*
X17307Y-51783D01*
X17219Y-51760D01*
X17130Y-51745D01*
X17039Y-51737D01*
X16950Y-51738D01*
X16859Y-51746D01*
X16770Y-51762D01*
X16683Y-51786D01*
X16598Y-51818D01*
X16516Y-51856D01*
X16438Y-51902D01*
X16364Y-51955D01*
X16295Y-52013D01*
X16231Y-52078D01*
X16173Y-52147D01*
X16121Y-52222D01*
X16076Y-52301D01*
X17800Y-51725D02*
X15950Y-51725D01*
X16551Y-53699D02*
X16634Y-53735D01*
X16719Y-53763D01*
X16806Y-53784D01*
X16895Y-53797D01*
X16984Y-53802D01*
X17073Y-53800D01*
X17162Y-53790D01*
X17250Y-53772D01*
X17336Y-53746D01*
X17419Y-53713D01*
X17499Y-53673D01*
X17576Y-53626D01*
X17648Y-53572D01*
X17715Y-53513D01*
X17777Y-53448D01*
X17832Y-53377D01*
X17882Y-53302D01*
X17924Y-53224D01*
X16076Y-53199D02*
X16115Y-53278D01*
X16160Y-53354D01*
X16211Y-53425D01*
X16269Y-53491D01*
X16332Y-53553D01*
X16400Y-53608D01*
X16473Y-53657D01*
X16550Y-53700D01*
X16630Y-53736D01*
X16713Y-53765D01*
X16798Y-53786D01*
X16885Y-53800D01*
X16972Y-53806D01*
X17059Y-53805D01*
X17147Y-53796D01*
X17233Y-53779D01*
X17317Y-53755D01*
X17399Y-53724D01*
X15950Y-53825D02*
X15950Y-53175D01*
X15950Y-51725D02*
X15950Y-52325D01*
X18050Y-51975D02*
X18050Y-52350D01*
X18050Y-53575D02*
X18050Y-53200D01*
X18050Y-53575D02*
X17800Y-53825D01*
X17800Y-53825D02*
X17000Y-53825D01*
X18050Y-51975D02*
X17800Y-51725D01*
X15950Y-53825D02*
X17000Y-53825D01*
X25850Y-54775D02*
X25850Y-55475D01*
X26700Y-54775D02*
X26700Y-55475D01*
X25850Y-55925D02*
X25850Y-56275D01*
X26700Y-56275D02*
X26700Y-55925D01*
X26700Y-55475D02*
X25850Y-55475D01*
X26700Y-54775D02*
X25850Y-54775D01*
X26700Y-56275D02*
X25850Y-56275D01*
X31350Y-56200D02*
X31350Y-55500D01*
X30500Y-56200D02*
X30500Y-55500D01*
X31350Y-55050D02*
X31350Y-54700D01*
X30500Y-54700D02*
X30500Y-55050D01*
X30500Y-55500D02*
X31350Y-55500D01*
X30500Y-56200D02*
X31350Y-56200D01*
X30500Y-54700D02*
X31350Y-54700D01*
X24850Y-54775D02*
X24850Y-55475D01*
X25700Y-54775D02*
X25700Y-55475D01*
X24850Y-55925D02*
X24850Y-56275D01*
X25700Y-56275D02*
X25700Y-55925D01*
X25700Y-55475D02*
X24850Y-55475D01*
X25700Y-54775D02*
X24850Y-54775D01*
X25700Y-56275D02*
X24850Y-56275D01*
X20075Y-54775D02*
X20075Y-55475D01*
X20925Y-54775D02*
X20925Y-55475D01*
X20075Y-55925D02*
X20075Y-56275D01*
X20925Y-56275D02*
X20925Y-55925D01*
X20925Y-55475D02*
X20075Y-55475D01*
X20925Y-54775D02*
X20075Y-54775D01*
X20925Y-56275D02*
X20075Y-56275D01*
G54D11*
X19550Y-55700D02*
X15550Y-55700D01*
X19550Y-58200D02*
X15550Y-58200D01*
X19550Y-57200D02*
X19550Y-59450D01*
X19550Y-59450D02*
X17550Y-59450D01*
X17550Y-59450D02*
X15550Y-59450D01*
X15550Y-59450D02*
X15550Y-57200D01*
X17550Y-54950D02*
X15550Y-54950D01*
X15550Y-54950D02*
X15550Y-57200D01*
X17550Y-54950D02*
X19550Y-54950D01*
X19550Y-54950D02*
X19550Y-57200D01*
G54D10*
X30750Y-59375D02*
X31250Y-59375D01*
X30750Y-56375D02*
X31250Y-56375D01*
X31500Y-57125D02*
X31500Y-56625D01*
X31500Y-58125D02*
X31500Y-57625D01*
X31500Y-59125D02*
X31500Y-58625D01*
X30500Y-58625D02*
X30500Y-59125D01*
X30500Y-57625D02*
X30500Y-58125D01*
X30500Y-56625D02*
X30500Y-57125D01*
X30500Y-59125D02*
X30750Y-59375D01*
X30500Y-58125D02*
X30750Y-58375D01*
X30750Y-58375D02*
X30500Y-58625D01*
X30500Y-57125D02*
X30750Y-57375D01*
X30750Y-57375D02*
X30500Y-57625D01*
X30750Y-56375D02*
X30500Y-56625D01*
X31500Y-56625D02*
X31250Y-56375D01*
X31500Y-57625D02*
X31250Y-57375D01*
X31250Y-57375D02*
X31500Y-57125D01*
X31500Y-58625D02*
X31250Y-58375D01*
X31250Y-58375D02*
X31500Y-58125D01*
X31250Y-59375D02*
X31500Y-59125D01*
X42150Y-58725D02*
X42150Y-59225D01*
X45150Y-58725D02*
X45150Y-59225D01*
X44400Y-59475D02*
X44900Y-59475D01*
X43400Y-59475D02*
X43900Y-59475D01*
X42400Y-59475D02*
X42900Y-59475D01*
X42900Y-58475D02*
X42400Y-58475D01*
X43900Y-58475D02*
X43400Y-58475D01*
X44900Y-58475D02*
X44400Y-58475D01*
X42400Y-58475D02*
X42150Y-58725D01*
X43400Y-58475D02*
X43150Y-58725D01*
X43150Y-58725D02*
X42900Y-58475D01*
X44400Y-58475D02*
X44150Y-58725D01*
X44150Y-58725D02*
X43900Y-58475D01*
X45150Y-58725D02*
X44900Y-58475D01*
X44900Y-59475D02*
X45150Y-59225D01*
X43900Y-59475D02*
X44150Y-59225D01*
X44150Y-59225D02*
X44400Y-59475D01*
X42900Y-59475D02*
X43150Y-59225D01*
X43150Y-59225D02*
X43400Y-59475D01*
X42150Y-59225D02*
X42400Y-59475D01*
G54D13*
X21575Y-58950D02*
X21575Y-59350D01*
X21575Y-59350D02*
X24225Y-59350D01*
X24225Y-59350D02*
X24225Y-58950D01*
X21475Y-55900D02*
X21475Y-54350D01*
X21475Y-54350D02*
X24325Y-54350D01*
X24325Y-54350D02*
X24325Y-55900D01*
X27350Y-58950D02*
X27350Y-59350D01*
X27350Y-59350D02*
X30000Y-59350D01*
X30000Y-59350D02*
X30000Y-58950D01*
X27250Y-55900D02*
X27250Y-54350D01*
X27250Y-54350D02*
X30100Y-54350D01*
X30100Y-54350D02*
X30100Y-55900D01*
G54D14*
X69743Y-32521D02*
X69843Y-32379D01*
X69915Y-32521D02*
X69915Y-32221D01*
X69800Y-32221D01*
X69772Y-32236D01*
X69757Y-32250D01*
X69743Y-32279D01*
X69743Y-32321D01*
X69757Y-32350D01*
X69772Y-32364D01*
X69800Y-32379D01*
X69915Y-32379D01*
X69629Y-32250D02*
X69615Y-32236D01*
X69586Y-32221D01*
X69515Y-32221D01*
X69486Y-32236D01*
X69472Y-32250D01*
X69457Y-32279D01*
X69457Y-32307D01*
X69472Y-32350D01*
X69643Y-32521D01*
X69457Y-32521D01*
X69171Y-32521D02*
X69343Y-32521D01*
X69257Y-32521D02*
X69257Y-32221D01*
X69286Y-32264D01*
X69314Y-32293D01*
X69343Y-32307D01*
X54493Y-45771D02*
X54593Y-45629D01*
X54665Y-45771D02*
X54665Y-45471D01*
X54550Y-45471D01*
X54522Y-45486D01*
X54507Y-45500D01*
X54493Y-45529D01*
X54493Y-45571D01*
X54507Y-45600D01*
X54522Y-45614D01*
X54550Y-45629D01*
X54665Y-45629D01*
X54393Y-45471D02*
X54207Y-45471D01*
X54307Y-45586D01*
X54265Y-45586D01*
X54236Y-45600D01*
X54222Y-45614D01*
X54207Y-45643D01*
X54207Y-45714D01*
X54222Y-45743D01*
X54236Y-45757D01*
X54265Y-45771D01*
X54350Y-45771D01*
X54379Y-45757D01*
X54393Y-45743D01*
X54093Y-45500D02*
X54079Y-45486D01*
X54050Y-45471D01*
X53979Y-45471D01*
X53950Y-45486D01*
X53936Y-45500D01*
X53921Y-45529D01*
X53921Y-45557D01*
X53936Y-45600D01*
X54107Y-45771D01*
X53921Y-45771D01*
X54493Y-20771D02*
X54593Y-20629D01*
X54665Y-20771D02*
X54665Y-20471D01*
X54550Y-20471D01*
X54522Y-20486D01*
X54507Y-20500D01*
X54493Y-20529D01*
X54493Y-20571D01*
X54507Y-20600D01*
X54522Y-20614D01*
X54550Y-20629D01*
X54665Y-20629D01*
X54393Y-20471D02*
X54207Y-20471D01*
X54307Y-20586D01*
X54265Y-20586D01*
X54236Y-20600D01*
X54222Y-20614D01*
X54207Y-20643D01*
X54207Y-20714D01*
X54222Y-20743D01*
X54236Y-20757D01*
X54265Y-20771D01*
X54350Y-20771D01*
X54379Y-20757D01*
X54393Y-20743D01*
X54107Y-20471D02*
X53907Y-20471D01*
X54036Y-20771D01*
X54493Y-25771D02*
X54593Y-25629D01*
X54665Y-25771D02*
X54665Y-25471D01*
X54550Y-25471D01*
X54522Y-25486D01*
X54507Y-25500D01*
X54493Y-25529D01*
X54493Y-25571D01*
X54507Y-25600D01*
X54522Y-25614D01*
X54550Y-25629D01*
X54665Y-25629D01*
X54393Y-25471D02*
X54207Y-25471D01*
X54307Y-25586D01*
X54265Y-25586D01*
X54236Y-25600D01*
X54222Y-25614D01*
X54207Y-25643D01*
X54207Y-25714D01*
X54222Y-25743D01*
X54236Y-25757D01*
X54265Y-25771D01*
X54350Y-25771D01*
X54379Y-25757D01*
X54393Y-25743D01*
X53950Y-25471D02*
X54007Y-25471D01*
X54036Y-25486D01*
X54050Y-25500D01*
X54079Y-25543D01*
X54093Y-25600D01*
X54093Y-25714D01*
X54079Y-25743D01*
X54064Y-25757D01*
X54036Y-25771D01*
X53979Y-25771D01*
X53950Y-25757D01*
X53936Y-25743D01*
X53921Y-25714D01*
X53921Y-25643D01*
X53936Y-25614D01*
X53950Y-25600D01*
X53979Y-25586D01*
X54036Y-25586D01*
X54064Y-25600D01*
X54079Y-25614D01*
X54093Y-25643D01*
X54493Y-30771D02*
X54593Y-30629D01*
X54665Y-30771D02*
X54665Y-30471D01*
X54550Y-30471D01*
X54522Y-30486D01*
X54507Y-30500D01*
X54493Y-30529D01*
X54493Y-30571D01*
X54507Y-30600D01*
X54522Y-30614D01*
X54550Y-30629D01*
X54665Y-30629D01*
X54393Y-30471D02*
X54207Y-30471D01*
X54307Y-30586D01*
X54265Y-30586D01*
X54236Y-30600D01*
X54222Y-30614D01*
X54207Y-30643D01*
X54207Y-30714D01*
X54222Y-30743D01*
X54236Y-30757D01*
X54265Y-30771D01*
X54350Y-30771D01*
X54379Y-30757D01*
X54393Y-30743D01*
X53936Y-30471D02*
X54079Y-30471D01*
X54093Y-30614D01*
X54079Y-30600D01*
X54050Y-30586D01*
X53979Y-30586D01*
X53950Y-30600D01*
X53936Y-30614D01*
X53921Y-30643D01*
X53921Y-30714D01*
X53936Y-30743D01*
X53950Y-30757D01*
X53979Y-30771D01*
X54050Y-30771D01*
X54079Y-30757D01*
X54093Y-30743D01*
X54493Y-35771D02*
X54593Y-35629D01*
X54665Y-35771D02*
X54665Y-35471D01*
X54550Y-35471D01*
X54522Y-35486D01*
X54507Y-35500D01*
X54493Y-35529D01*
X54493Y-35571D01*
X54507Y-35600D01*
X54522Y-35614D01*
X54550Y-35629D01*
X54665Y-35629D01*
X54393Y-35471D02*
X54207Y-35471D01*
X54307Y-35586D01*
X54265Y-35586D01*
X54236Y-35600D01*
X54222Y-35614D01*
X54207Y-35643D01*
X54207Y-35714D01*
X54222Y-35743D01*
X54236Y-35757D01*
X54265Y-35771D01*
X54350Y-35771D01*
X54379Y-35757D01*
X54393Y-35743D01*
X53950Y-35571D02*
X53950Y-35771D01*
X54021Y-35457D02*
X54093Y-35671D01*
X53907Y-35671D01*
X54493Y-40771D02*
X54593Y-40629D01*
X54665Y-40771D02*
X54665Y-40471D01*
X54550Y-40471D01*
X54522Y-40486D01*
X54507Y-40500D01*
X54493Y-40529D01*
X54493Y-40571D01*
X54507Y-40600D01*
X54522Y-40614D01*
X54550Y-40629D01*
X54665Y-40629D01*
X54393Y-40471D02*
X54207Y-40471D01*
X54307Y-40586D01*
X54265Y-40586D01*
X54236Y-40600D01*
X54222Y-40614D01*
X54207Y-40643D01*
X54207Y-40714D01*
X54222Y-40743D01*
X54236Y-40757D01*
X54265Y-40771D01*
X54350Y-40771D01*
X54379Y-40757D01*
X54393Y-40743D01*
X54107Y-40471D02*
X53921Y-40471D01*
X54021Y-40586D01*
X53979Y-40586D01*
X53950Y-40600D01*
X53936Y-40614D01*
X53921Y-40643D01*
X53921Y-40714D01*
X53936Y-40743D01*
X53950Y-40757D01*
X53979Y-40771D01*
X54064Y-40771D01*
X54093Y-40757D01*
X54107Y-40743D01*
X54493Y-50771D02*
X54593Y-50629D01*
X54665Y-50771D02*
X54665Y-50471D01*
X54550Y-50471D01*
X54522Y-50486D01*
X54507Y-50500D01*
X54493Y-50529D01*
X54493Y-50571D01*
X54507Y-50600D01*
X54522Y-50614D01*
X54550Y-50629D01*
X54665Y-50629D01*
X54393Y-50471D02*
X54207Y-50471D01*
X54307Y-50586D01*
X54265Y-50586D01*
X54236Y-50600D01*
X54222Y-50614D01*
X54207Y-50643D01*
X54207Y-50714D01*
X54222Y-50743D01*
X54236Y-50757D01*
X54265Y-50771D01*
X54350Y-50771D01*
X54379Y-50757D01*
X54393Y-50743D01*
X53921Y-50771D02*
X54093Y-50771D01*
X54007Y-50771D02*
X54007Y-50471D01*
X54036Y-50514D01*
X54064Y-50543D01*
X54093Y-50557D01*
X54493Y-55771D02*
X54593Y-55629D01*
X54665Y-55771D02*
X54665Y-55471D01*
X54550Y-55471D01*
X54522Y-55486D01*
X54507Y-55500D01*
X54493Y-55529D01*
X54493Y-55571D01*
X54507Y-55600D01*
X54522Y-55614D01*
X54550Y-55629D01*
X54665Y-55629D01*
X54393Y-55471D02*
X54207Y-55471D01*
X54307Y-55586D01*
X54265Y-55586D01*
X54236Y-55600D01*
X54222Y-55614D01*
X54207Y-55643D01*
X54207Y-55714D01*
X54222Y-55743D01*
X54236Y-55757D01*
X54265Y-55771D01*
X54350Y-55771D01*
X54379Y-55757D01*
X54393Y-55743D01*
X54021Y-55471D02*
X53993Y-55471D01*
X53964Y-55486D01*
X53950Y-55500D01*
X53936Y-55529D01*
X53921Y-55586D01*
X53921Y-55657D01*
X53936Y-55714D01*
X53950Y-55743D01*
X53964Y-55757D01*
X53993Y-55771D01*
X54021Y-55771D01*
X54050Y-55757D01*
X54064Y-55743D01*
X54079Y-55714D01*
X54093Y-55657D01*
X54093Y-55586D01*
X54079Y-55529D01*
X54064Y-55500D01*
X54050Y-55486D01*
X54021Y-55471D01*
X64568Y-39471D02*
X64668Y-39329D01*
X64740Y-39471D02*
X64740Y-39171D01*
X64625Y-39171D01*
X64597Y-39186D01*
X64582Y-39200D01*
X64568Y-39229D01*
X64568Y-39271D01*
X64582Y-39300D01*
X64597Y-39314D01*
X64625Y-39329D01*
X64740Y-39329D01*
X64282Y-39471D02*
X64454Y-39471D01*
X64368Y-39471D02*
X64368Y-39171D01*
X64397Y-39214D01*
X64425Y-39243D01*
X64454Y-39257D01*
X64139Y-39471D02*
X64082Y-39471D01*
X64054Y-39457D01*
X64039Y-39443D01*
X64011Y-39400D01*
X63996Y-39343D01*
X63996Y-39229D01*
X64011Y-39200D01*
X64025Y-39186D01*
X64054Y-39171D01*
X64111Y-39171D01*
X64139Y-39186D01*
X64154Y-39200D01*
X64168Y-39229D01*
X64168Y-39300D01*
X64154Y-39329D01*
X64139Y-39343D01*
X64111Y-39357D01*
X64054Y-39357D01*
X64025Y-39343D01*
X64011Y-39329D01*
X63996Y-39300D01*
X69743Y-40771D02*
X69843Y-40629D01*
X69915Y-40771D02*
X69915Y-40471D01*
X69800Y-40471D01*
X69772Y-40486D01*
X69757Y-40500D01*
X69743Y-40529D01*
X69743Y-40571D01*
X69757Y-40600D01*
X69772Y-40614D01*
X69800Y-40629D01*
X69915Y-40629D01*
X69629Y-40500D02*
X69615Y-40486D01*
X69586Y-40471D01*
X69515Y-40471D01*
X69486Y-40486D01*
X69472Y-40500D01*
X69457Y-40529D01*
X69457Y-40557D01*
X69472Y-40600D01*
X69643Y-40771D01*
X69457Y-40771D01*
X69271Y-40471D02*
X69243Y-40471D01*
X69214Y-40486D01*
X69200Y-40500D01*
X69186Y-40529D01*
X69171Y-40586D01*
X69171Y-40657D01*
X69186Y-40714D01*
X69200Y-40743D01*
X69214Y-40757D01*
X69243Y-40771D01*
X69271Y-40771D01*
X69300Y-40757D01*
X69314Y-40743D01*
X69329Y-40714D01*
X69343Y-40657D01*
X69343Y-40586D01*
X69329Y-40529D01*
X69314Y-40500D01*
X69300Y-40486D01*
X69271Y-40471D01*
X69743Y-24521D02*
X69843Y-24379D01*
X69915Y-24521D02*
X69915Y-24221D01*
X69800Y-24221D01*
X69772Y-24236D01*
X69757Y-24250D01*
X69743Y-24279D01*
X69743Y-24321D01*
X69757Y-24350D01*
X69772Y-24364D01*
X69800Y-24379D01*
X69915Y-24379D01*
X69629Y-24250D02*
X69615Y-24236D01*
X69586Y-24221D01*
X69515Y-24221D01*
X69486Y-24236D01*
X69472Y-24250D01*
X69457Y-24279D01*
X69457Y-24307D01*
X69472Y-24350D01*
X69643Y-24521D01*
X69457Y-24521D01*
X69343Y-24250D02*
X69329Y-24236D01*
X69300Y-24221D01*
X69229Y-24221D01*
X69200Y-24236D01*
X69186Y-24250D01*
X69171Y-24279D01*
X69171Y-24307D01*
X69186Y-24350D01*
X69357Y-24521D01*
X69171Y-24521D01*
X69743Y-20296D02*
X69843Y-20154D01*
X69915Y-20296D02*
X69915Y-19996D01*
X69800Y-19996D01*
X69772Y-20011D01*
X69757Y-20025D01*
X69743Y-20054D01*
X69743Y-20096D01*
X69757Y-20125D01*
X69772Y-20139D01*
X69800Y-20154D01*
X69915Y-20154D01*
X69629Y-20025D02*
X69615Y-20011D01*
X69586Y-19996D01*
X69515Y-19996D01*
X69486Y-20011D01*
X69472Y-20025D01*
X69457Y-20054D01*
X69457Y-20082D01*
X69472Y-20125D01*
X69643Y-20296D01*
X69457Y-20296D01*
X69357Y-19996D02*
X69171Y-19996D01*
X69271Y-20111D01*
X69229Y-20111D01*
X69200Y-20125D01*
X69186Y-20139D01*
X69171Y-20168D01*
X69171Y-20239D01*
X69186Y-20268D01*
X69200Y-20282D01*
X69229Y-20296D01*
X69314Y-20296D01*
X69343Y-20282D01*
X69357Y-20268D01*
X61993Y-34171D02*
X62093Y-34029D01*
X62165Y-34171D02*
X62165Y-33871D01*
X62050Y-33871D01*
X62022Y-33886D01*
X62007Y-33900D01*
X61993Y-33929D01*
X61993Y-33971D01*
X62007Y-34000D01*
X62022Y-34014D01*
X62050Y-34029D01*
X62165Y-34029D01*
X61879Y-33900D02*
X61865Y-33886D01*
X61836Y-33871D01*
X61765Y-33871D01*
X61736Y-33886D01*
X61722Y-33900D01*
X61707Y-33929D01*
X61707Y-33957D01*
X61722Y-34000D01*
X61893Y-34171D01*
X61707Y-34171D01*
X61450Y-33971D02*
X61450Y-34171D01*
X61521Y-33857D02*
X61593Y-34071D01*
X61407Y-34071D01*
X61993Y-26271D02*
X62093Y-26129D01*
X62165Y-26271D02*
X62165Y-25971D01*
X62050Y-25971D01*
X62022Y-25986D01*
X62007Y-26000D01*
X61993Y-26029D01*
X61993Y-26071D01*
X62007Y-26100D01*
X62022Y-26114D01*
X62050Y-26129D01*
X62165Y-26129D01*
X61879Y-26000D02*
X61865Y-25986D01*
X61836Y-25971D01*
X61765Y-25971D01*
X61736Y-25986D01*
X61722Y-26000D01*
X61707Y-26029D01*
X61707Y-26057D01*
X61722Y-26100D01*
X61893Y-26271D01*
X61707Y-26271D01*
X61436Y-25971D02*
X61579Y-25971D01*
X61593Y-26114D01*
X61579Y-26100D01*
X61550Y-26086D01*
X61479Y-26086D01*
X61450Y-26100D01*
X61436Y-26114D01*
X61421Y-26143D01*
X61421Y-26214D01*
X61436Y-26243D01*
X61450Y-26257D01*
X61479Y-26271D01*
X61550Y-26271D01*
X61579Y-26257D01*
X61593Y-26243D01*
X56615Y-21996D02*
X56615Y-21696D01*
X56543Y-21696D01*
X56500Y-21711D01*
X56472Y-21739D01*
X56457Y-21768D01*
X56443Y-21825D01*
X56443Y-21868D01*
X56457Y-21925D01*
X56472Y-21954D01*
X56500Y-21982D01*
X56543Y-21996D01*
X56615Y-21996D01*
X56172Y-21696D02*
X56315Y-21696D01*
X56329Y-21839D01*
X56315Y-21825D01*
X56286Y-21811D01*
X56215Y-21811D01*
X56186Y-21825D01*
X56172Y-21839D01*
X56157Y-21868D01*
X56157Y-21939D01*
X56172Y-21968D01*
X56186Y-21982D01*
X56215Y-21996D01*
X56286Y-21996D01*
X56315Y-21982D01*
X56329Y-21968D01*
X56014Y-21996D02*
X55957Y-21996D01*
X55929Y-21982D01*
X55914Y-21968D01*
X55886Y-21925D01*
X55871Y-21868D01*
X55871Y-21754D01*
X55886Y-21725D01*
X55900Y-21711D01*
X55929Y-21696D01*
X55986Y-21696D01*
X56014Y-21711D01*
X56029Y-21725D01*
X56043Y-21754D01*
X56043Y-21825D01*
X56029Y-21854D01*
X56014Y-21868D01*
X55986Y-21882D01*
X55929Y-21882D01*
X55900Y-21868D01*
X55886Y-21854D01*
X55871Y-21825D01*
X64115Y-20246D02*
X64115Y-19946D01*
X64043Y-19946D01*
X64000Y-19961D01*
X63972Y-19989D01*
X63957Y-20018D01*
X63943Y-20075D01*
X63943Y-20118D01*
X63957Y-20175D01*
X63972Y-20204D01*
X64000Y-20232D01*
X64043Y-20246D01*
X64115Y-20246D01*
X63843Y-19946D02*
X63657Y-19946D01*
X63757Y-20061D01*
X63715Y-20061D01*
X63686Y-20075D01*
X63672Y-20089D01*
X63657Y-20118D01*
X63657Y-20189D01*
X63672Y-20218D01*
X63686Y-20232D01*
X63715Y-20246D01*
X63800Y-20246D01*
X63829Y-20232D01*
X63843Y-20218D01*
X63371Y-20246D02*
X63543Y-20246D01*
X63457Y-20246D02*
X63457Y-19946D01*
X63486Y-19989D01*
X63514Y-20018D01*
X63543Y-20032D01*
X71865Y-21246D02*
X71865Y-20946D01*
X71793Y-20946D01*
X71750Y-20961D01*
X71722Y-20989D01*
X71707Y-21018D01*
X71693Y-21075D01*
X71693Y-21118D01*
X71707Y-21175D01*
X71722Y-21204D01*
X71750Y-21232D01*
X71793Y-21246D01*
X71865Y-21246D01*
X71593Y-20946D02*
X71407Y-20946D01*
X71507Y-21061D01*
X71465Y-21061D01*
X71436Y-21075D01*
X71422Y-21089D01*
X71407Y-21118D01*
X71407Y-21189D01*
X71422Y-21218D01*
X71436Y-21232D01*
X71465Y-21246D01*
X71550Y-21246D01*
X71579Y-21232D01*
X71593Y-21218D01*
X71221Y-20946D02*
X71193Y-20946D01*
X71164Y-20961D01*
X71150Y-20975D01*
X71136Y-21004D01*
X71121Y-21061D01*
X71121Y-21132D01*
X71136Y-21189D01*
X71150Y-21218D01*
X71164Y-21232D01*
X71193Y-21246D01*
X71221Y-21246D01*
X71250Y-21232D01*
X71264Y-21218D01*
X71279Y-21189D01*
X71293Y-21132D01*
X71293Y-21061D01*
X71279Y-21004D01*
X71264Y-20975D01*
X71250Y-20961D01*
X71221Y-20946D01*
X71865Y-25246D02*
X71865Y-24946D01*
X71793Y-24946D01*
X71750Y-24961D01*
X71722Y-24989D01*
X71707Y-25018D01*
X71693Y-25075D01*
X71693Y-25118D01*
X71707Y-25175D01*
X71722Y-25204D01*
X71750Y-25232D01*
X71793Y-25246D01*
X71865Y-25246D01*
X71579Y-24975D02*
X71565Y-24961D01*
X71536Y-24946D01*
X71465Y-24946D01*
X71436Y-24961D01*
X71422Y-24975D01*
X71407Y-25004D01*
X71407Y-25032D01*
X71422Y-25075D01*
X71593Y-25246D01*
X71407Y-25246D01*
X71264Y-25246D02*
X71207Y-25246D01*
X71179Y-25232D01*
X71164Y-25218D01*
X71136Y-25175D01*
X71121Y-25118D01*
X71121Y-25004D01*
X71136Y-24975D01*
X71150Y-24961D01*
X71179Y-24946D01*
X71236Y-24946D01*
X71264Y-24961D01*
X71279Y-24975D01*
X71293Y-25004D01*
X71293Y-25075D01*
X71279Y-25104D01*
X71264Y-25118D01*
X71236Y-25132D01*
X71179Y-25132D01*
X71150Y-25118D01*
X71136Y-25104D01*
X71121Y-25075D01*
X71865Y-29246D02*
X71865Y-28946D01*
X71793Y-28946D01*
X71750Y-28961D01*
X71722Y-28989D01*
X71707Y-29018D01*
X71693Y-29075D01*
X71693Y-29118D01*
X71707Y-29175D01*
X71722Y-29204D01*
X71750Y-29232D01*
X71793Y-29246D01*
X71865Y-29246D01*
X71579Y-28975D02*
X71565Y-28961D01*
X71536Y-28946D01*
X71465Y-28946D01*
X71436Y-28961D01*
X71422Y-28975D01*
X71407Y-29004D01*
X71407Y-29032D01*
X71422Y-29075D01*
X71593Y-29246D01*
X71407Y-29246D01*
X71236Y-29075D02*
X71264Y-29061D01*
X71279Y-29046D01*
X71293Y-29018D01*
X71293Y-29004D01*
X71279Y-28975D01*
X71264Y-28961D01*
X71236Y-28946D01*
X71179Y-28946D01*
X71150Y-28961D01*
X71136Y-28975D01*
X71121Y-29004D01*
X71121Y-29018D01*
X71136Y-29046D01*
X71150Y-29061D01*
X71179Y-29075D01*
X71236Y-29075D01*
X71264Y-29089D01*
X71279Y-29104D01*
X71293Y-29132D01*
X71293Y-29189D01*
X71279Y-29218D01*
X71264Y-29232D01*
X71236Y-29246D01*
X71179Y-29246D01*
X71150Y-29232D01*
X71136Y-29218D01*
X71121Y-29189D01*
X71121Y-29132D01*
X71136Y-29104D01*
X71150Y-29089D01*
X71179Y-29075D01*
X71865Y-33246D02*
X71865Y-32946D01*
X71793Y-32946D01*
X71750Y-32961D01*
X71722Y-32989D01*
X71707Y-33018D01*
X71693Y-33075D01*
X71693Y-33118D01*
X71707Y-33175D01*
X71722Y-33204D01*
X71750Y-33232D01*
X71793Y-33246D01*
X71865Y-33246D01*
X71579Y-32975D02*
X71565Y-32961D01*
X71536Y-32946D01*
X71465Y-32946D01*
X71436Y-32961D01*
X71422Y-32975D01*
X71407Y-33004D01*
X71407Y-33032D01*
X71422Y-33075D01*
X71593Y-33246D01*
X71407Y-33246D01*
X71307Y-32946D02*
X71107Y-32946D01*
X71236Y-33246D01*
X71865Y-37246D02*
X71865Y-36946D01*
X71793Y-36946D01*
X71750Y-36961D01*
X71722Y-36989D01*
X71707Y-37018D01*
X71693Y-37075D01*
X71693Y-37118D01*
X71707Y-37175D01*
X71722Y-37204D01*
X71750Y-37232D01*
X71793Y-37246D01*
X71865Y-37246D01*
X71579Y-36975D02*
X71565Y-36961D01*
X71536Y-36946D01*
X71465Y-36946D01*
X71436Y-36961D01*
X71422Y-36975D01*
X71407Y-37004D01*
X71407Y-37032D01*
X71422Y-37075D01*
X71593Y-37246D01*
X71407Y-37246D01*
X71150Y-36946D02*
X71207Y-36946D01*
X71236Y-36961D01*
X71250Y-36975D01*
X71279Y-37018D01*
X71293Y-37075D01*
X71293Y-37189D01*
X71279Y-37218D01*
X71264Y-37232D01*
X71236Y-37246D01*
X71179Y-37246D01*
X71150Y-37232D01*
X71136Y-37218D01*
X71121Y-37189D01*
X71121Y-37118D01*
X71136Y-37089D01*
X71150Y-37075D01*
X71179Y-37061D01*
X71236Y-37061D01*
X71264Y-37075D01*
X71279Y-37089D01*
X71293Y-37118D01*
X71246Y-41385D02*
X70946Y-41385D01*
X70946Y-41457D01*
X70961Y-41500D01*
X70989Y-41528D01*
X71018Y-41543D01*
X71075Y-41557D01*
X71118Y-41557D01*
X71175Y-41543D01*
X71204Y-41528D01*
X71232Y-41500D01*
X71246Y-41457D01*
X71246Y-41385D01*
X70975Y-41671D02*
X70961Y-41685D01*
X70946Y-41714D01*
X70946Y-41785D01*
X70961Y-41814D01*
X70975Y-41828D01*
X71004Y-41843D01*
X71032Y-41843D01*
X71075Y-41828D01*
X71246Y-41657D01*
X71246Y-41843D01*
X70946Y-42114D02*
X70946Y-41971D01*
X71089Y-41957D01*
X71075Y-41971D01*
X71061Y-42000D01*
X71061Y-42071D01*
X71075Y-42100D01*
X71089Y-42114D01*
X71118Y-42129D01*
X71189Y-42129D01*
X71218Y-42114D01*
X71232Y-42100D01*
X71246Y-42071D01*
X71246Y-42000D01*
X71232Y-41971D01*
X71218Y-41957D01*
X67246Y-41385D02*
X66946Y-41385D01*
X66946Y-41457D01*
X66961Y-41500D01*
X66989Y-41528D01*
X67018Y-41543D01*
X67075Y-41557D01*
X67118Y-41557D01*
X67175Y-41543D01*
X67204Y-41528D01*
X67232Y-41500D01*
X67246Y-41457D01*
X67246Y-41385D01*
X66975Y-41671D02*
X66961Y-41685D01*
X66946Y-41714D01*
X66946Y-41785D01*
X66961Y-41814D01*
X66975Y-41828D01*
X67004Y-41843D01*
X67032Y-41843D01*
X67075Y-41828D01*
X67246Y-41657D01*
X67246Y-41843D01*
X67046Y-42100D02*
X67246Y-42100D01*
X66932Y-42029D02*
X67146Y-41957D01*
X67146Y-42143D01*
X63246Y-41385D02*
X62946Y-41385D01*
X62946Y-41457D01*
X62961Y-41500D01*
X62989Y-41528D01*
X63018Y-41543D01*
X63075Y-41557D01*
X63118Y-41557D01*
X63175Y-41543D01*
X63204Y-41528D01*
X63232Y-41500D01*
X63246Y-41457D01*
X63246Y-41385D01*
X62975Y-41671D02*
X62961Y-41685D01*
X62946Y-41714D01*
X62946Y-41785D01*
X62961Y-41814D01*
X62975Y-41828D01*
X63004Y-41843D01*
X63032Y-41843D01*
X63075Y-41828D01*
X63246Y-41657D01*
X63246Y-41843D01*
X62946Y-41943D02*
X62946Y-42129D01*
X63061Y-42029D01*
X63061Y-42071D01*
X63075Y-42100D01*
X63089Y-42114D01*
X63118Y-42129D01*
X63189Y-42129D01*
X63218Y-42114D01*
X63232Y-42100D01*
X63246Y-42071D01*
X63246Y-41986D01*
X63232Y-41957D01*
X63218Y-41943D01*
X56615Y-56996D02*
X56615Y-56696D01*
X56543Y-56696D01*
X56500Y-56711D01*
X56472Y-56739D01*
X56457Y-56768D01*
X56443Y-56825D01*
X56443Y-56868D01*
X56457Y-56925D01*
X56472Y-56954D01*
X56500Y-56982D01*
X56543Y-56996D01*
X56615Y-56996D01*
X56186Y-56796D02*
X56186Y-56996D01*
X56257Y-56682D02*
X56329Y-56896D01*
X56143Y-56896D01*
X55886Y-56696D02*
X56029Y-56696D01*
X56043Y-56839D01*
X56029Y-56825D01*
X56000Y-56811D01*
X55929Y-56811D01*
X55900Y-56825D01*
X55886Y-56839D01*
X55871Y-56868D01*
X55871Y-56939D01*
X55886Y-56968D01*
X55900Y-56982D01*
X55929Y-56996D01*
X56000Y-56996D01*
X56029Y-56982D01*
X56043Y-56968D01*
X56615Y-31996D02*
X56615Y-31696D01*
X56543Y-31696D01*
X56500Y-31711D01*
X56472Y-31739D01*
X56457Y-31768D01*
X56443Y-31825D01*
X56443Y-31868D01*
X56457Y-31925D01*
X56472Y-31954D01*
X56500Y-31982D01*
X56543Y-31996D01*
X56615Y-31996D01*
X56172Y-31696D02*
X56315Y-31696D01*
X56329Y-31839D01*
X56315Y-31825D01*
X56286Y-31811D01*
X56215Y-31811D01*
X56186Y-31825D01*
X56172Y-31839D01*
X56157Y-31868D01*
X56157Y-31939D01*
X56172Y-31968D01*
X56186Y-31982D01*
X56215Y-31996D01*
X56286Y-31996D01*
X56315Y-31982D01*
X56329Y-31968D01*
X55886Y-31696D02*
X56029Y-31696D01*
X56043Y-31839D01*
X56029Y-31825D01*
X56000Y-31811D01*
X55929Y-31811D01*
X55900Y-31825D01*
X55886Y-31839D01*
X55871Y-31868D01*
X55871Y-31939D01*
X55886Y-31968D01*
X55900Y-31982D01*
X55929Y-31996D01*
X56000Y-31996D01*
X56029Y-31982D01*
X56043Y-31968D01*
X56615Y-36996D02*
X56615Y-36696D01*
X56543Y-36696D01*
X56500Y-36711D01*
X56472Y-36739D01*
X56457Y-36768D01*
X56443Y-36825D01*
X56443Y-36868D01*
X56457Y-36925D01*
X56472Y-36954D01*
X56500Y-36982D01*
X56543Y-36996D01*
X56615Y-36996D01*
X56172Y-36696D02*
X56315Y-36696D01*
X56329Y-36839D01*
X56315Y-36825D01*
X56286Y-36811D01*
X56215Y-36811D01*
X56186Y-36825D01*
X56172Y-36839D01*
X56157Y-36868D01*
X56157Y-36939D01*
X56172Y-36968D01*
X56186Y-36982D01*
X56215Y-36996D01*
X56286Y-36996D01*
X56315Y-36982D01*
X56329Y-36968D01*
X56057Y-36696D02*
X55871Y-36696D01*
X55971Y-36811D01*
X55929Y-36811D01*
X55900Y-36825D01*
X55886Y-36839D01*
X55871Y-36868D01*
X55871Y-36939D01*
X55886Y-36968D01*
X55900Y-36982D01*
X55929Y-36996D01*
X56014Y-36996D01*
X56043Y-36982D01*
X56057Y-36968D01*
X49115Y-18996D02*
X49115Y-18696D01*
X49043Y-18696D01*
X49000Y-18711D01*
X48972Y-18739D01*
X48957Y-18768D01*
X48943Y-18825D01*
X48943Y-18868D01*
X48957Y-18925D01*
X48972Y-18954D01*
X49000Y-18982D01*
X49043Y-18996D01*
X49115Y-18996D01*
X48843Y-18696D02*
X48657Y-18696D01*
X48757Y-18811D01*
X48715Y-18811D01*
X48686Y-18825D01*
X48672Y-18839D01*
X48657Y-18868D01*
X48657Y-18939D01*
X48672Y-18968D01*
X48686Y-18982D01*
X48715Y-18996D01*
X48800Y-18996D01*
X48829Y-18982D01*
X48843Y-18968D01*
X48543Y-18725D02*
X48529Y-18711D01*
X48500Y-18696D01*
X48429Y-18696D01*
X48400Y-18711D01*
X48386Y-18725D01*
X48371Y-18754D01*
X48371Y-18782D01*
X48386Y-18825D01*
X48557Y-18996D01*
X48371Y-18996D01*
X56615Y-41996D02*
X56615Y-41696D01*
X56543Y-41696D01*
X56500Y-41711D01*
X56472Y-41739D01*
X56457Y-41768D01*
X56443Y-41825D01*
X56443Y-41868D01*
X56457Y-41925D01*
X56472Y-41954D01*
X56500Y-41982D01*
X56543Y-41996D01*
X56615Y-41996D01*
X56172Y-41696D02*
X56315Y-41696D01*
X56329Y-41839D01*
X56315Y-41825D01*
X56286Y-41811D01*
X56215Y-41811D01*
X56186Y-41825D01*
X56172Y-41839D01*
X56157Y-41868D01*
X56157Y-41939D01*
X56172Y-41968D01*
X56186Y-41982D01*
X56215Y-41996D01*
X56286Y-41996D01*
X56315Y-41982D01*
X56329Y-41968D01*
X55871Y-41996D02*
X56043Y-41996D01*
X55957Y-41996D02*
X55957Y-41696D01*
X55986Y-41739D01*
X56014Y-41768D01*
X56043Y-41782D01*
X56615Y-46996D02*
X56615Y-46696D01*
X56543Y-46696D01*
X56500Y-46711D01*
X56472Y-46739D01*
X56457Y-46768D01*
X56443Y-46825D01*
X56443Y-46868D01*
X56457Y-46925D01*
X56472Y-46954D01*
X56500Y-46982D01*
X56543Y-46996D01*
X56615Y-46996D01*
X56186Y-46796D02*
X56186Y-46996D01*
X56257Y-46682D02*
X56329Y-46896D01*
X56143Y-46896D01*
X56014Y-46996D02*
X55957Y-46996D01*
X55929Y-46982D01*
X55914Y-46968D01*
X55886Y-46925D01*
X55871Y-46868D01*
X55871Y-46754D01*
X55886Y-46725D01*
X55900Y-46711D01*
X55929Y-46696D01*
X55986Y-46696D01*
X56014Y-46711D01*
X56029Y-46725D01*
X56043Y-46754D01*
X56043Y-46825D01*
X56029Y-46854D01*
X56014Y-46868D01*
X55986Y-46882D01*
X55929Y-46882D01*
X55900Y-46868D01*
X55886Y-46854D01*
X55871Y-46825D01*
X56615Y-51996D02*
X56615Y-51696D01*
X56543Y-51696D01*
X56500Y-51711D01*
X56472Y-51739D01*
X56457Y-51768D01*
X56443Y-51825D01*
X56443Y-51868D01*
X56457Y-51925D01*
X56472Y-51954D01*
X56500Y-51982D01*
X56543Y-51996D01*
X56615Y-51996D01*
X56186Y-51796D02*
X56186Y-51996D01*
X56257Y-51682D02*
X56329Y-51896D01*
X56143Y-51896D01*
X56057Y-51696D02*
X55857Y-51696D01*
X55986Y-51996D01*
X56615Y-26996D02*
X56615Y-26696D01*
X56543Y-26696D01*
X56500Y-26711D01*
X56472Y-26739D01*
X56457Y-26768D01*
X56443Y-26825D01*
X56443Y-26868D01*
X56457Y-26925D01*
X56472Y-26954D01*
X56500Y-26982D01*
X56543Y-26996D01*
X56615Y-26996D01*
X56172Y-26696D02*
X56315Y-26696D01*
X56329Y-26839D01*
X56315Y-26825D01*
X56286Y-26811D01*
X56215Y-26811D01*
X56186Y-26825D01*
X56172Y-26839D01*
X56157Y-26868D01*
X56157Y-26939D01*
X56172Y-26968D01*
X56186Y-26982D01*
X56215Y-26996D01*
X56286Y-26996D01*
X56315Y-26982D01*
X56329Y-26968D01*
X56057Y-26696D02*
X55857Y-26696D01*
X55986Y-26996D01*
X64115Y-22996D02*
X64115Y-22696D01*
X64043Y-22696D01*
X64000Y-22711D01*
X63972Y-22739D01*
X63957Y-22768D01*
X63943Y-22825D01*
X63943Y-22868D01*
X63957Y-22925D01*
X63972Y-22954D01*
X64000Y-22982D01*
X64043Y-22996D01*
X64115Y-22996D01*
X63843Y-22696D02*
X63657Y-22696D01*
X63757Y-22811D01*
X63715Y-22811D01*
X63686Y-22825D01*
X63672Y-22839D01*
X63657Y-22868D01*
X63657Y-22939D01*
X63672Y-22968D01*
X63686Y-22982D01*
X63715Y-22996D01*
X63800Y-22996D01*
X63829Y-22982D01*
X63843Y-22968D01*
X63400Y-22696D02*
X63457Y-22696D01*
X63486Y-22711D01*
X63500Y-22725D01*
X63529Y-22768D01*
X63543Y-22825D01*
X63543Y-22939D01*
X63529Y-22968D01*
X63514Y-22982D01*
X63486Y-22996D01*
X63429Y-22996D01*
X63400Y-22982D01*
X63386Y-22968D01*
X63371Y-22939D01*
X63371Y-22868D01*
X63386Y-22839D01*
X63400Y-22825D01*
X63429Y-22811D01*
X63486Y-22811D01*
X63514Y-22825D01*
X63529Y-22839D01*
X63543Y-22868D01*
X64115Y-26996D02*
X64115Y-26696D01*
X64043Y-26696D01*
X64000Y-26711D01*
X63972Y-26739D01*
X63957Y-26768D01*
X63943Y-26825D01*
X63943Y-26868D01*
X63957Y-26925D01*
X63972Y-26954D01*
X64000Y-26982D01*
X64043Y-26996D01*
X64115Y-26996D01*
X63843Y-26696D02*
X63657Y-26696D01*
X63757Y-26811D01*
X63715Y-26811D01*
X63686Y-26825D01*
X63672Y-26839D01*
X63657Y-26868D01*
X63657Y-26939D01*
X63672Y-26968D01*
X63686Y-26982D01*
X63715Y-26996D01*
X63800Y-26996D01*
X63829Y-26982D01*
X63843Y-26968D01*
X63386Y-26696D02*
X63529Y-26696D01*
X63543Y-26839D01*
X63529Y-26825D01*
X63500Y-26811D01*
X63429Y-26811D01*
X63400Y-26825D01*
X63386Y-26839D01*
X63371Y-26868D01*
X63371Y-26939D01*
X63386Y-26968D01*
X63400Y-26982D01*
X63429Y-26996D01*
X63500Y-26996D01*
X63529Y-26982D01*
X63543Y-26968D01*
X64115Y-30996D02*
X64115Y-30696D01*
X64043Y-30696D01*
X64000Y-30711D01*
X63972Y-30739D01*
X63957Y-30768D01*
X63943Y-30825D01*
X63943Y-30868D01*
X63957Y-30925D01*
X63972Y-30954D01*
X64000Y-30982D01*
X64043Y-30996D01*
X64115Y-30996D01*
X63843Y-30696D02*
X63657Y-30696D01*
X63757Y-30811D01*
X63715Y-30811D01*
X63686Y-30825D01*
X63672Y-30839D01*
X63657Y-30868D01*
X63657Y-30939D01*
X63672Y-30968D01*
X63686Y-30982D01*
X63715Y-30996D01*
X63800Y-30996D01*
X63829Y-30982D01*
X63843Y-30968D01*
X63400Y-30796D02*
X63400Y-30996D01*
X63471Y-30682D02*
X63543Y-30896D01*
X63357Y-30896D01*
X64115Y-34996D02*
X64115Y-34696D01*
X64043Y-34696D01*
X64000Y-34711D01*
X63972Y-34739D01*
X63957Y-34768D01*
X63943Y-34825D01*
X63943Y-34868D01*
X63957Y-34925D01*
X63972Y-34954D01*
X64000Y-34982D01*
X64043Y-34996D01*
X64115Y-34996D01*
X63843Y-34696D02*
X63657Y-34696D01*
X63757Y-34811D01*
X63715Y-34811D01*
X63686Y-34825D01*
X63672Y-34839D01*
X63657Y-34868D01*
X63657Y-34939D01*
X63672Y-34968D01*
X63686Y-34982D01*
X63715Y-34996D01*
X63800Y-34996D01*
X63829Y-34982D01*
X63843Y-34968D01*
X63557Y-34696D02*
X63371Y-34696D01*
X63471Y-34811D01*
X63429Y-34811D01*
X63400Y-34825D01*
X63386Y-34839D01*
X63371Y-34868D01*
X63371Y-34939D01*
X63386Y-34968D01*
X63400Y-34982D01*
X63429Y-34996D01*
X63514Y-34996D01*
X63543Y-34982D01*
X63557Y-34968D01*
X39493Y-23071D02*
X39593Y-22929D01*
X39665Y-23071D02*
X39665Y-22771D01*
X39550Y-22771D01*
X39522Y-22786D01*
X39507Y-22800D01*
X39493Y-22829D01*
X39493Y-22871D01*
X39507Y-22900D01*
X39522Y-22914D01*
X39550Y-22929D01*
X39665Y-22929D01*
X39379Y-22800D02*
X39365Y-22786D01*
X39336Y-22771D01*
X39265Y-22771D01*
X39236Y-22786D01*
X39222Y-22800D01*
X39207Y-22829D01*
X39207Y-22857D01*
X39222Y-22900D01*
X39393Y-23071D01*
X39207Y-23071D01*
X39064Y-23071D02*
X39007Y-23071D01*
X38979Y-23057D01*
X38964Y-23043D01*
X38936Y-23000D01*
X38921Y-22943D01*
X38921Y-22829D01*
X38936Y-22800D01*
X38950Y-22786D01*
X38979Y-22771D01*
X39036Y-22771D01*
X39064Y-22786D01*
X39079Y-22800D01*
X39093Y-22829D01*
X39093Y-22900D01*
X39079Y-22929D01*
X39064Y-22943D01*
X39036Y-22957D01*
X38979Y-22957D01*
X38950Y-22943D01*
X38936Y-22929D01*
X38921Y-22900D01*
X46993Y-34271D02*
X47093Y-34129D01*
X47165Y-34271D02*
X47165Y-33971D01*
X47050Y-33971D01*
X47022Y-33986D01*
X47007Y-34000D01*
X46993Y-34029D01*
X46993Y-34071D01*
X47007Y-34100D01*
X47022Y-34114D01*
X47050Y-34129D01*
X47165Y-34129D01*
X46879Y-34000D02*
X46865Y-33986D01*
X46836Y-33971D01*
X46765Y-33971D01*
X46736Y-33986D01*
X46722Y-34000D01*
X46707Y-34029D01*
X46707Y-34057D01*
X46722Y-34100D01*
X46893Y-34271D01*
X46707Y-34271D01*
X46450Y-33971D02*
X46507Y-33971D01*
X46536Y-33986D01*
X46550Y-34000D01*
X46579Y-34043D01*
X46593Y-34100D01*
X46593Y-34214D01*
X46579Y-34243D01*
X46564Y-34257D01*
X46536Y-34271D01*
X46479Y-34271D01*
X46450Y-34257D01*
X46436Y-34243D01*
X46421Y-34214D01*
X46421Y-34143D01*
X46436Y-34114D01*
X46450Y-34100D01*
X46479Y-34086D01*
X46536Y-34086D01*
X46564Y-34100D01*
X46579Y-34114D01*
X46593Y-34143D01*
X46993Y-26271D02*
X47093Y-26129D01*
X47165Y-26271D02*
X47165Y-25971D01*
X47050Y-25971D01*
X47022Y-25986D01*
X47007Y-26000D01*
X46993Y-26029D01*
X46993Y-26071D01*
X47007Y-26100D01*
X47022Y-26114D01*
X47050Y-26129D01*
X47165Y-26129D01*
X46879Y-26000D02*
X46865Y-25986D01*
X46836Y-25971D01*
X46765Y-25971D01*
X46736Y-25986D01*
X46722Y-26000D01*
X46707Y-26029D01*
X46707Y-26057D01*
X46722Y-26100D01*
X46893Y-26271D01*
X46707Y-26271D01*
X46607Y-25971D02*
X46407Y-25971D01*
X46536Y-26271D01*
X39493Y-31121D02*
X39593Y-30979D01*
X39665Y-31121D02*
X39665Y-30821D01*
X39550Y-30821D01*
X39522Y-30836D01*
X39507Y-30850D01*
X39493Y-30879D01*
X39493Y-30921D01*
X39507Y-30950D01*
X39522Y-30964D01*
X39550Y-30979D01*
X39665Y-30979D01*
X39379Y-30850D02*
X39365Y-30836D01*
X39336Y-30821D01*
X39265Y-30821D01*
X39236Y-30836D01*
X39222Y-30850D01*
X39207Y-30879D01*
X39207Y-30907D01*
X39222Y-30950D01*
X39393Y-31121D01*
X39207Y-31121D01*
X39036Y-30950D02*
X39064Y-30936D01*
X39079Y-30921D01*
X39093Y-30893D01*
X39093Y-30879D01*
X39079Y-30850D01*
X39064Y-30836D01*
X39036Y-30821D01*
X38979Y-30821D01*
X38950Y-30836D01*
X38936Y-30850D01*
X38921Y-30879D01*
X38921Y-30893D01*
X38936Y-30921D01*
X38950Y-30936D01*
X38979Y-30950D01*
X39036Y-30950D01*
X39064Y-30964D01*
X39079Y-30979D01*
X39093Y-31007D01*
X39093Y-31064D01*
X39079Y-31093D01*
X39064Y-31107D01*
X39036Y-31121D01*
X38979Y-31121D01*
X38950Y-31107D01*
X38936Y-31093D01*
X38921Y-31064D01*
X38921Y-31007D01*
X38936Y-30979D01*
X38950Y-30964D01*
X38979Y-30950D01*
X41615Y-19796D02*
X41615Y-19496D01*
X41543Y-19496D01*
X41500Y-19511D01*
X41472Y-19539D01*
X41457Y-19568D01*
X41443Y-19625D01*
X41443Y-19668D01*
X41457Y-19725D01*
X41472Y-19754D01*
X41500Y-19782D01*
X41543Y-19796D01*
X41615Y-19796D01*
X41186Y-19596D02*
X41186Y-19796D01*
X41257Y-19482D02*
X41329Y-19696D01*
X41143Y-19696D01*
X40900Y-19596D02*
X40900Y-19796D01*
X40971Y-19482D02*
X41043Y-19696D01*
X40857Y-19696D01*
X41615Y-23796D02*
X41615Y-23496D01*
X41543Y-23496D01*
X41500Y-23511D01*
X41472Y-23539D01*
X41457Y-23568D01*
X41443Y-23625D01*
X41443Y-23668D01*
X41457Y-23725D01*
X41472Y-23754D01*
X41500Y-23782D01*
X41543Y-23796D01*
X41615Y-23796D01*
X41186Y-23596D02*
X41186Y-23796D01*
X41257Y-23482D02*
X41329Y-23696D01*
X41143Y-23696D01*
X41057Y-23496D02*
X40871Y-23496D01*
X40971Y-23611D01*
X40929Y-23611D01*
X40900Y-23625D01*
X40886Y-23639D01*
X40871Y-23668D01*
X40871Y-23739D01*
X40886Y-23768D01*
X40900Y-23782D01*
X40929Y-23796D01*
X41014Y-23796D01*
X41043Y-23782D01*
X41057Y-23768D01*
X41615Y-27796D02*
X41615Y-27496D01*
X41543Y-27496D01*
X41500Y-27511D01*
X41472Y-27539D01*
X41457Y-27568D01*
X41443Y-27625D01*
X41443Y-27668D01*
X41457Y-27725D01*
X41472Y-27754D01*
X41500Y-27782D01*
X41543Y-27796D01*
X41615Y-27796D01*
X41186Y-27596D02*
X41186Y-27796D01*
X41257Y-27482D02*
X41329Y-27696D01*
X41143Y-27696D01*
X41043Y-27525D02*
X41029Y-27511D01*
X41000Y-27496D01*
X40929Y-27496D01*
X40900Y-27511D01*
X40886Y-27525D01*
X40871Y-27554D01*
X40871Y-27582D01*
X40886Y-27625D01*
X41057Y-27796D01*
X40871Y-27796D01*
X41615Y-31796D02*
X41615Y-31496D01*
X41543Y-31496D01*
X41500Y-31511D01*
X41472Y-31539D01*
X41457Y-31568D01*
X41443Y-31625D01*
X41443Y-31668D01*
X41457Y-31725D01*
X41472Y-31754D01*
X41500Y-31782D01*
X41543Y-31796D01*
X41615Y-31796D01*
X41186Y-31596D02*
X41186Y-31796D01*
X41257Y-31482D02*
X41329Y-31696D01*
X41143Y-31696D01*
X40871Y-31796D02*
X41043Y-31796D01*
X40957Y-31796D02*
X40957Y-31496D01*
X40986Y-31539D01*
X41014Y-31568D01*
X41043Y-31582D01*
X49115Y-22996D02*
X49115Y-22696D01*
X49043Y-22696D01*
X49000Y-22711D01*
X48972Y-22739D01*
X48957Y-22768D01*
X48943Y-22825D01*
X48943Y-22868D01*
X48957Y-22925D01*
X48972Y-22954D01*
X49000Y-22982D01*
X49043Y-22996D01*
X49115Y-22996D01*
X48686Y-22796D02*
X48686Y-22996D01*
X48757Y-22682D02*
X48829Y-22896D01*
X48643Y-22896D01*
X48471Y-22696D02*
X48443Y-22696D01*
X48414Y-22711D01*
X48400Y-22725D01*
X48386Y-22754D01*
X48371Y-22811D01*
X48371Y-22882D01*
X48386Y-22939D01*
X48400Y-22968D01*
X48414Y-22982D01*
X48443Y-22996D01*
X48471Y-22996D01*
X48500Y-22982D01*
X48514Y-22968D01*
X48529Y-22939D01*
X48543Y-22882D01*
X48543Y-22811D01*
X48529Y-22754D01*
X48514Y-22725D01*
X48500Y-22711D01*
X48471Y-22696D01*
X49115Y-26996D02*
X49115Y-26696D01*
X49043Y-26696D01*
X49000Y-26711D01*
X48972Y-26739D01*
X48957Y-26768D01*
X48943Y-26825D01*
X48943Y-26868D01*
X48957Y-26925D01*
X48972Y-26954D01*
X49000Y-26982D01*
X49043Y-26996D01*
X49115Y-26996D01*
X48843Y-26696D02*
X48657Y-26696D01*
X48757Y-26811D01*
X48715Y-26811D01*
X48686Y-26825D01*
X48672Y-26839D01*
X48657Y-26868D01*
X48657Y-26939D01*
X48672Y-26968D01*
X48686Y-26982D01*
X48715Y-26996D01*
X48800Y-26996D01*
X48829Y-26982D01*
X48843Y-26968D01*
X48514Y-26996D02*
X48457Y-26996D01*
X48429Y-26982D01*
X48414Y-26968D01*
X48386Y-26925D01*
X48371Y-26868D01*
X48371Y-26754D01*
X48386Y-26725D01*
X48400Y-26711D01*
X48429Y-26696D01*
X48486Y-26696D01*
X48514Y-26711D01*
X48529Y-26725D01*
X48543Y-26754D01*
X48543Y-26825D01*
X48529Y-26854D01*
X48514Y-26868D01*
X48486Y-26882D01*
X48429Y-26882D01*
X48400Y-26868D01*
X48386Y-26854D01*
X48371Y-26825D01*
X49115Y-30996D02*
X49115Y-30696D01*
X49043Y-30696D01*
X49000Y-30711D01*
X48972Y-30739D01*
X48957Y-30768D01*
X48943Y-30825D01*
X48943Y-30868D01*
X48957Y-30925D01*
X48972Y-30954D01*
X49000Y-30982D01*
X49043Y-30996D01*
X49115Y-30996D01*
X48843Y-30696D02*
X48657Y-30696D01*
X48757Y-30811D01*
X48715Y-30811D01*
X48686Y-30825D01*
X48672Y-30839D01*
X48657Y-30868D01*
X48657Y-30939D01*
X48672Y-30968D01*
X48686Y-30982D01*
X48715Y-30996D01*
X48800Y-30996D01*
X48829Y-30982D01*
X48843Y-30968D01*
X48486Y-30825D02*
X48514Y-30811D01*
X48529Y-30796D01*
X48543Y-30768D01*
X48543Y-30754D01*
X48529Y-30725D01*
X48514Y-30711D01*
X48486Y-30696D01*
X48429Y-30696D01*
X48400Y-30711D01*
X48386Y-30725D01*
X48371Y-30754D01*
X48371Y-30768D01*
X48386Y-30796D01*
X48400Y-30811D01*
X48429Y-30825D01*
X48486Y-30825D01*
X48514Y-30839D01*
X48529Y-30854D01*
X48543Y-30882D01*
X48543Y-30939D01*
X48529Y-30968D01*
X48514Y-30982D01*
X48486Y-30996D01*
X48429Y-30996D01*
X48400Y-30982D01*
X48386Y-30968D01*
X48371Y-30939D01*
X48371Y-30882D01*
X48386Y-30854D01*
X48400Y-30839D01*
X48429Y-30825D01*
X49115Y-34996D02*
X49115Y-34696D01*
X49043Y-34696D01*
X49000Y-34711D01*
X48972Y-34739D01*
X48957Y-34768D01*
X48943Y-34825D01*
X48943Y-34868D01*
X48957Y-34925D01*
X48972Y-34954D01*
X49000Y-34982D01*
X49043Y-34996D01*
X49115Y-34996D01*
X48843Y-34696D02*
X48657Y-34696D01*
X48757Y-34811D01*
X48715Y-34811D01*
X48686Y-34825D01*
X48672Y-34839D01*
X48657Y-34868D01*
X48657Y-34939D01*
X48672Y-34968D01*
X48686Y-34982D01*
X48715Y-34996D01*
X48800Y-34996D01*
X48829Y-34982D01*
X48843Y-34968D01*
X48557Y-34696D02*
X48357Y-34696D01*
X48486Y-34996D01*
G54D10*
X50258Y-53093D02*
X50201Y-53112D01*
X50105Y-53112D01*
X50067Y-53093D01*
X50048Y-53074D01*
X50029Y-53036D01*
X50029Y-52998D01*
X50048Y-52960D01*
X50067Y-52940D01*
X50105Y-52921D01*
X50182Y-52902D01*
X50220Y-52883D01*
X50239Y-52864D01*
X50258Y-52826D01*
X50258Y-52788D01*
X50239Y-52750D01*
X50220Y-52731D01*
X50182Y-52712D01*
X50086Y-52712D01*
X50029Y-52731D01*
X49896Y-52712D02*
X49801Y-53112D01*
X49724Y-52826D01*
X49648Y-53112D01*
X49553Y-52712D01*
X49191Y-53112D02*
X49420Y-53112D01*
X49306Y-53112D02*
X49306Y-52712D01*
X49344Y-52769D01*
X49382Y-52807D01*
X49420Y-52826D01*
X49944Y-52462D02*
X50078Y-52271D01*
X50173Y-52462D02*
X50173Y-52062D01*
X50020Y-52062D01*
X49982Y-52081D01*
X49963Y-52100D01*
X49944Y-52138D01*
X49944Y-52195D01*
X49963Y-52233D01*
X49982Y-52252D01*
X50020Y-52271D01*
X50173Y-52271D01*
X49792Y-52443D02*
X49735Y-52462D01*
X49639Y-52462D01*
X49601Y-52443D01*
X49582Y-52424D01*
X49563Y-52386D01*
X49563Y-52348D01*
X49582Y-52310D01*
X49601Y-52290D01*
X49639Y-52271D01*
X49716Y-52252D01*
X49754Y-52233D01*
X49773Y-52214D01*
X49792Y-52176D01*
X49792Y-52138D01*
X49773Y-52100D01*
X49754Y-52081D01*
X49716Y-52062D01*
X49620Y-52062D01*
X49563Y-52081D01*
X49449Y-52062D02*
X49220Y-52062D01*
X49335Y-52462D02*
X49335Y-52062D01*
G54D12*
X16296Y-54010D02*
X15996Y-54010D01*
X15996Y-54082D01*
X16011Y-54125D01*
X16039Y-54153D01*
X16068Y-54168D01*
X16125Y-54182D01*
X16168Y-54182D01*
X16225Y-54168D01*
X16254Y-54153D01*
X16282Y-54125D01*
X16296Y-54082D01*
X16296Y-54010D01*
X15996Y-54439D02*
X15996Y-54382D01*
X16011Y-54353D01*
X16025Y-54339D01*
X16068Y-54310D01*
X16125Y-54296D01*
X16239Y-54296D01*
X16268Y-54310D01*
X16282Y-54325D01*
X16296Y-54353D01*
X16296Y-54410D01*
X16282Y-54439D01*
X16268Y-54453D01*
X16239Y-54468D01*
X16168Y-54468D01*
X16139Y-54453D01*
X16125Y-54439D01*
X16111Y-54410D01*
X16111Y-54353D01*
X16125Y-54325D01*
X16139Y-54310D01*
X16168Y-54296D01*
X16296Y-54754D02*
X16296Y-54582D01*
X16296Y-54668D02*
X15996Y-54668D01*
X16039Y-54639D01*
X16068Y-54611D01*
X16082Y-54582D01*
X34006Y-35427D02*
X34006Y-35832D01*
X33982Y-35880D01*
X33958Y-35904D01*
X33911Y-35927D01*
X33815Y-35927D01*
X33768Y-35904D01*
X33744Y-35880D01*
X33720Y-35832D01*
X33720Y-35427D01*
X33530Y-35427D02*
X33220Y-35427D01*
X33387Y-35618D01*
X33315Y-35618D01*
X33268Y-35642D01*
X33244Y-35665D01*
X33220Y-35713D01*
X33220Y-35832D01*
X33244Y-35880D01*
X33268Y-35904D01*
X33315Y-35927D01*
X33458Y-35927D01*
X33506Y-35904D01*
X33530Y-35880D01*
X35234Y-36677D02*
X35234Y-37082D01*
X35210Y-37130D01*
X35186Y-37154D01*
X35139Y-37177D01*
X35043Y-37177D01*
X34996Y-37154D01*
X34972Y-37130D01*
X34948Y-37082D01*
X34948Y-36677D01*
X34472Y-37177D02*
X34710Y-37177D01*
X34710Y-36677D01*
X34305Y-37177D02*
X34305Y-36677D01*
X34019Y-37177D01*
X34019Y-36677D01*
X33805Y-36725D02*
X33781Y-36701D01*
X33733Y-36677D01*
X33614Y-36677D01*
X33567Y-36701D01*
X33543Y-36725D01*
X33519Y-36773D01*
X33519Y-36820D01*
X33543Y-36892D01*
X33829Y-37177D01*
X33519Y-37177D01*
X33234Y-36892D02*
X33281Y-36868D01*
X33305Y-36844D01*
X33329Y-36796D01*
X33329Y-36773D01*
X33305Y-36725D01*
X33281Y-36701D01*
X33234Y-36677D01*
X33138Y-36677D01*
X33091Y-36701D01*
X33067Y-36725D01*
X33043Y-36773D01*
X33043Y-36796D01*
X33067Y-36844D01*
X33091Y-36868D01*
X33138Y-36892D01*
X33234Y-36892D01*
X33281Y-36915D01*
X33305Y-36939D01*
X33329Y-36987D01*
X33329Y-37082D01*
X33305Y-37130D01*
X33281Y-37154D01*
X33234Y-37177D01*
X33138Y-37177D01*
X33091Y-37154D01*
X33067Y-37130D01*
X33043Y-37082D01*
X33043Y-36987D01*
X33067Y-36939D01*
X33091Y-36915D01*
X33138Y-36892D01*
X32734Y-36677D02*
X32686Y-36677D01*
X32638Y-36701D01*
X32615Y-36725D01*
X32591Y-36773D01*
X32567Y-36868D01*
X32567Y-36987D01*
X32591Y-37082D01*
X32615Y-37130D01*
X32638Y-37154D01*
X32686Y-37177D01*
X32734Y-37177D01*
X32781Y-37154D01*
X32805Y-37130D01*
X32829Y-37082D01*
X32853Y-36987D01*
X32853Y-36868D01*
X32829Y-36773D01*
X32805Y-36725D01*
X32781Y-36701D01*
X32734Y-36677D01*
X32401Y-36677D02*
X32091Y-36677D01*
X32258Y-36868D01*
X32186Y-36868D01*
X32139Y-36892D01*
X32115Y-36915D01*
X32091Y-36963D01*
X32091Y-37082D01*
X32115Y-37130D01*
X32139Y-37154D01*
X32186Y-37177D01*
X32329Y-37177D01*
X32377Y-37154D01*
X32401Y-37130D01*
X33771Y-42571D02*
X34014Y-42571D01*
X34043Y-42586D01*
X34057Y-42600D01*
X34071Y-42629D01*
X34071Y-42686D01*
X34057Y-42714D01*
X34043Y-42729D01*
X34014Y-42743D01*
X33771Y-42743D01*
X33800Y-42871D02*
X33786Y-42885D01*
X33771Y-42914D01*
X33771Y-42985D01*
X33786Y-43014D01*
X33800Y-43028D01*
X33829Y-43043D01*
X33857Y-43043D01*
X33900Y-43028D01*
X34071Y-42857D01*
X34071Y-43043D01*
X33596Y-41728D02*
X33296Y-41728D01*
X33439Y-41728D02*
X33439Y-41900D01*
X33596Y-41900D02*
X33296Y-41900D01*
X33439Y-42042D02*
X33439Y-42142D01*
X33596Y-42185D02*
X33596Y-42042D01*
X33296Y-42042D01*
X33296Y-42185D01*
X33439Y-42413D02*
X33439Y-42313D01*
X33596Y-42313D02*
X33296Y-42313D01*
X33296Y-42456D01*
X33396Y-42699D02*
X33596Y-42699D01*
X33282Y-42628D02*
X33496Y-42556D01*
X33496Y-42742D01*
X33296Y-42914D02*
X33296Y-42942D01*
X33311Y-42971D01*
X33325Y-42985D01*
X33354Y-42999D01*
X33411Y-43014D01*
X33482Y-43014D01*
X33539Y-42999D01*
X33568Y-42985D01*
X33582Y-42971D01*
X33596Y-42942D01*
X33596Y-42914D01*
X33582Y-42885D01*
X33568Y-42871D01*
X33539Y-42856D01*
X33482Y-42842D01*
X33411Y-42842D01*
X33354Y-42856D01*
X33325Y-42871D01*
X33311Y-42885D01*
X33296Y-42914D01*
X33296Y-43285D02*
X33296Y-43142D01*
X33439Y-43128D01*
X33425Y-43142D01*
X33411Y-43171D01*
X33411Y-43242D01*
X33425Y-43271D01*
X33439Y-43285D01*
X33468Y-43300D01*
X33539Y-43300D01*
X33568Y-43285D01*
X33582Y-43271D01*
X33596Y-43242D01*
X33596Y-43171D01*
X33582Y-43142D01*
X33568Y-43128D01*
X33596Y-43586D02*
X33596Y-43414D01*
X33596Y-43500D02*
X33296Y-43500D01*
X33339Y-43471D01*
X33368Y-43443D01*
X33382Y-43414D01*
X33439Y-43814D02*
X33454Y-43857D01*
X33468Y-43872D01*
X33496Y-43886D01*
X33539Y-43886D01*
X33568Y-43872D01*
X33582Y-43857D01*
X33596Y-43829D01*
X33596Y-43714D01*
X33296Y-43714D01*
X33296Y-43814D01*
X33311Y-43843D01*
X33325Y-43857D01*
X33354Y-43872D01*
X33382Y-43872D01*
X33411Y-43857D01*
X33425Y-43843D01*
X33439Y-43814D01*
X33439Y-43714D01*
G54D14*
X26093Y-56796D02*
X26193Y-56654D01*
X26265Y-56796D02*
X26265Y-56496D01*
X26150Y-56496D01*
X26122Y-56511D01*
X26107Y-56525D01*
X26093Y-56554D01*
X26093Y-56596D01*
X26107Y-56625D01*
X26122Y-56639D01*
X26150Y-56654D01*
X26265Y-56654D01*
X25836Y-56596D02*
X25836Y-56796D01*
X25907Y-56482D02*
X25979Y-56696D01*
X25793Y-56696D01*
X25621Y-56496D02*
X25593Y-56496D01*
X25564Y-56511D01*
X25550Y-56525D01*
X25536Y-56554D01*
X25521Y-56611D01*
X25521Y-56682D01*
X25536Y-56739D01*
X25550Y-56768D01*
X25564Y-56782D01*
X25593Y-56796D01*
X25621Y-56796D01*
X25650Y-56782D01*
X25664Y-56768D01*
X25679Y-56739D01*
X25693Y-56682D01*
X25693Y-56611D01*
X25679Y-56554D01*
X25664Y-56525D01*
X25650Y-56511D01*
X25621Y-56496D01*
X26290Y-58121D02*
X26290Y-57821D01*
X26218Y-57821D01*
X26175Y-57836D01*
X26147Y-57864D01*
X26132Y-57893D01*
X26118Y-57950D01*
X26118Y-57993D01*
X26132Y-58050D01*
X26147Y-58079D01*
X26175Y-58107D01*
X26218Y-58121D01*
X26290Y-58121D01*
X25861Y-57821D02*
X25918Y-57821D01*
X25947Y-57836D01*
X25961Y-57850D01*
X25990Y-57893D01*
X26004Y-57950D01*
X26004Y-58064D01*
X25990Y-58093D01*
X25975Y-58107D01*
X25947Y-58121D01*
X25890Y-58121D01*
X25861Y-58107D01*
X25847Y-58093D01*
X25832Y-58064D01*
X25832Y-57993D01*
X25847Y-57964D01*
X25861Y-57950D01*
X25890Y-57936D01*
X25947Y-57936D01*
X25975Y-57950D01*
X25990Y-57964D01*
X26004Y-57993D01*
X25732Y-57821D02*
X25546Y-57821D01*
X25646Y-57936D01*
X25604Y-57936D01*
X25575Y-57950D01*
X25561Y-57964D01*
X25546Y-57993D01*
X25546Y-58064D01*
X25561Y-58093D01*
X25575Y-58107D01*
X25604Y-58121D01*
X25689Y-58121D01*
X25718Y-58107D01*
X25732Y-58093D01*
G54D12*
X18243Y-51475D02*
X18257Y-51461D01*
X18271Y-51418D01*
X18271Y-51389D01*
X18257Y-51346D01*
X18229Y-51318D01*
X18200Y-51303D01*
X18143Y-51289D01*
X18100Y-51289D01*
X18043Y-51303D01*
X18014Y-51318D01*
X17986Y-51346D01*
X17971Y-51389D01*
X17971Y-51418D01*
X17986Y-51461D01*
X18000Y-51475D01*
X17971Y-51575D02*
X17971Y-51761D01*
X18086Y-51661D01*
X18086Y-51703D01*
X18100Y-51732D01*
X18114Y-51746D01*
X18143Y-51761D01*
X18214Y-51761D01*
X18243Y-51746D01*
X18257Y-51732D01*
X18271Y-51703D01*
X18271Y-51618D01*
X18257Y-51589D01*
X18243Y-51575D01*
X17121Y-52495D02*
X17121Y-52353D01*
X17121Y-52424D02*
X16821Y-52424D01*
X16864Y-52400D01*
X16893Y-52376D01*
X16907Y-52353D01*
X16821Y-52650D02*
X16821Y-52674D01*
X16836Y-52698D01*
X16850Y-52710D01*
X16879Y-52722D01*
X16936Y-52733D01*
X17007Y-52733D01*
X17064Y-52722D01*
X17093Y-52710D01*
X17107Y-52698D01*
X17121Y-52674D01*
X17121Y-52650D01*
X17107Y-52626D01*
X17093Y-52614D01*
X17064Y-52603D01*
X17007Y-52591D01*
X16936Y-52591D01*
X16879Y-52603D01*
X16850Y-52614D01*
X16836Y-52626D01*
X16821Y-52650D01*
X16821Y-52888D02*
X16821Y-52912D01*
X16836Y-52936D01*
X16850Y-52948D01*
X16879Y-52960D01*
X16936Y-52971D01*
X17007Y-52971D01*
X17064Y-52960D01*
X17093Y-52948D01*
X17107Y-52936D01*
X17121Y-52912D01*
X17121Y-52888D01*
X17107Y-52864D01*
X17093Y-52852D01*
X17064Y-52841D01*
X17007Y-52829D01*
X16936Y-52829D01*
X16879Y-52841D01*
X16850Y-52852D01*
X16836Y-52864D01*
X16821Y-52888D01*
X16921Y-53186D02*
X17121Y-53186D01*
X16921Y-53079D02*
X17079Y-53079D01*
X17107Y-53090D01*
X17121Y-53114D01*
X17121Y-53150D01*
X17107Y-53174D01*
X17093Y-53186D01*
X18510Y-53334D02*
X18510Y-53274D01*
X18152Y-53274D01*
X18152Y-53334D01*
X18331Y-53430D02*
X18331Y-53620D01*
X18426Y-53525D02*
X18236Y-53525D01*
X18510Y-53716D02*
X18510Y-53775D01*
X18152Y-53775D01*
X18152Y-53716D01*
G54D14*
X27018Y-55475D02*
X27032Y-55461D01*
X27046Y-55418D01*
X27046Y-55389D01*
X27032Y-55346D01*
X27004Y-55318D01*
X26975Y-55303D01*
X26918Y-55289D01*
X26875Y-55289D01*
X26818Y-55303D01*
X26789Y-55318D01*
X26761Y-55346D01*
X26746Y-55389D01*
X26746Y-55418D01*
X26761Y-55461D01*
X26775Y-55475D01*
X26746Y-55575D02*
X26746Y-55775D01*
X27046Y-55646D01*
X30368Y-55400D02*
X30382Y-55386D01*
X30396Y-55343D01*
X30396Y-55314D01*
X30382Y-55271D01*
X30354Y-55243D01*
X30325Y-55228D01*
X30268Y-55214D01*
X30225Y-55214D01*
X30168Y-55228D01*
X30139Y-55243D01*
X30111Y-55271D01*
X30096Y-55314D01*
X30096Y-55343D01*
X30111Y-55386D01*
X30125Y-55400D01*
X30225Y-55571D02*
X30211Y-55543D01*
X30196Y-55528D01*
X30168Y-55514D01*
X30154Y-55514D01*
X30125Y-55528D01*
X30111Y-55543D01*
X30096Y-55571D01*
X30096Y-55628D01*
X30111Y-55657D01*
X30125Y-55671D01*
X30154Y-55686D01*
X30168Y-55686D01*
X30196Y-55671D01*
X30211Y-55657D01*
X30225Y-55628D01*
X30225Y-55571D01*
X30239Y-55543D01*
X30254Y-55528D01*
X30282Y-55514D01*
X30339Y-55514D01*
X30368Y-55528D01*
X30382Y-55543D01*
X30396Y-55571D01*
X30396Y-55628D01*
X30382Y-55657D01*
X30368Y-55671D01*
X30339Y-55686D01*
X30282Y-55686D01*
X30254Y-55671D01*
X30239Y-55657D01*
X30225Y-55628D01*
X26018Y-55475D02*
X26032Y-55461D01*
X26046Y-55418D01*
X26046Y-55389D01*
X26032Y-55346D01*
X26004Y-55318D01*
X25975Y-55303D01*
X25918Y-55289D01*
X25875Y-55289D01*
X25818Y-55303D01*
X25789Y-55318D01*
X25761Y-55346D01*
X25746Y-55389D01*
X25746Y-55418D01*
X25761Y-55461D01*
X25775Y-55475D01*
X25746Y-55746D02*
X25746Y-55603D01*
X25889Y-55589D01*
X25875Y-55603D01*
X25861Y-55632D01*
X25861Y-55703D01*
X25875Y-55732D01*
X25889Y-55746D01*
X25918Y-55761D01*
X25989Y-55761D01*
X26018Y-55746D01*
X26032Y-55732D01*
X26046Y-55703D01*
X26046Y-55632D01*
X26032Y-55603D01*
X26018Y-55589D01*
X21243Y-55475D02*
X21257Y-55461D01*
X21271Y-55418D01*
X21271Y-55389D01*
X21257Y-55346D01*
X21229Y-55318D01*
X21200Y-55303D01*
X21143Y-55289D01*
X21100Y-55289D01*
X21043Y-55303D01*
X21014Y-55318D01*
X20986Y-55346D01*
X20971Y-55389D01*
X20971Y-55418D01*
X20986Y-55461D01*
X21000Y-55475D01*
X21071Y-55732D02*
X21271Y-55732D01*
X20957Y-55661D02*
X21171Y-55589D01*
X21171Y-55775D01*
G54D12*
X20297Y-57321D02*
X20297Y-57021D01*
X20182Y-57021D01*
X20154Y-57036D01*
X20139Y-57050D01*
X20125Y-57079D01*
X20125Y-57121D01*
X20139Y-57150D01*
X20154Y-57164D01*
X20182Y-57179D01*
X20297Y-57179D01*
X20025Y-57021D02*
X19825Y-57021D01*
X19954Y-57321D01*
X18415Y-58789D02*
X18372Y-58804D01*
X18357Y-58818D01*
X18343Y-58846D01*
X18343Y-58889D01*
X18357Y-58918D01*
X18372Y-58932D01*
X18400Y-58946D01*
X18515Y-58946D01*
X18515Y-58646D01*
X18415Y-58646D01*
X18386Y-58661D01*
X18372Y-58675D01*
X18357Y-58704D01*
X18357Y-58732D01*
X18372Y-58761D01*
X18386Y-58775D01*
X18415Y-58789D01*
X18515Y-58789D01*
X18229Y-58861D02*
X18086Y-58861D01*
X18257Y-58946D02*
X18157Y-58646D01*
X18057Y-58946D01*
X18000Y-58646D02*
X17829Y-58646D01*
X17915Y-58946D02*
X17915Y-58646D01*
X17771Y-58646D02*
X17600Y-58646D01*
X17686Y-58946D02*
X17686Y-58646D01*
X17571Y-58975D02*
X17342Y-58975D01*
X17113Y-58946D02*
X17285Y-58946D01*
X17199Y-58946D02*
X17199Y-58646D01*
X17228Y-58689D01*
X17256Y-58718D01*
X17285Y-58732D01*
X16999Y-58675D02*
X16985Y-58661D01*
X16956Y-58646D01*
X16885Y-58646D01*
X16856Y-58661D01*
X16842Y-58675D01*
X16827Y-58704D01*
X16827Y-58732D01*
X16842Y-58775D01*
X17013Y-58946D01*
X16827Y-58946D01*
X16741Y-58646D02*
X16641Y-58946D01*
X16541Y-58646D01*
X31222Y-59821D02*
X31222Y-59521D01*
X31050Y-59821D02*
X31179Y-59650D01*
X31050Y-59521D02*
X31222Y-59693D01*
X30779Y-59521D02*
X30922Y-59521D01*
X30936Y-59664D01*
X30922Y-59650D01*
X30893Y-59636D01*
X30822Y-59636D01*
X30793Y-59650D01*
X30779Y-59664D01*
X30764Y-59693D01*
X30764Y-59764D01*
X30779Y-59793D01*
X30793Y-59807D01*
X30822Y-59821D01*
X30893Y-59821D01*
X30922Y-59807D01*
X30936Y-59793D01*
X32739Y-57696D02*
X32639Y-57996D01*
X32539Y-57696D01*
X32511Y-58025D02*
X32282Y-58025D01*
X32225Y-57982D02*
X32182Y-57996D01*
X32111Y-57996D01*
X32082Y-57982D01*
X32068Y-57968D01*
X32053Y-57939D01*
X32053Y-57911D01*
X32068Y-57882D01*
X32082Y-57868D01*
X32111Y-57854D01*
X32168Y-57839D01*
X32196Y-57825D01*
X32211Y-57811D01*
X32225Y-57782D01*
X32225Y-57754D01*
X32211Y-57725D01*
X32196Y-57711D01*
X32168Y-57696D01*
X32096Y-57696D01*
X32053Y-57711D01*
X31925Y-57839D02*
X31825Y-57839D01*
X31782Y-57996D02*
X31925Y-57996D01*
X31925Y-57696D01*
X31782Y-57696D01*
X31511Y-57996D02*
X31654Y-57996D01*
X31654Y-57696D01*
X32379Y-58696D02*
X32379Y-58939D01*
X32364Y-58968D01*
X32350Y-58982D01*
X32321Y-58996D01*
X32264Y-58996D01*
X32236Y-58982D01*
X32221Y-58968D01*
X32207Y-58939D01*
X32207Y-58696D01*
X32079Y-58982D02*
X32036Y-58996D01*
X31965Y-58996D01*
X31936Y-58982D01*
X31922Y-58968D01*
X31907Y-58939D01*
X31907Y-58911D01*
X31922Y-58882D01*
X31936Y-58868D01*
X31965Y-58854D01*
X32022Y-58839D01*
X32050Y-58825D01*
X32065Y-58811D01*
X32079Y-58782D01*
X32079Y-58754D01*
X32065Y-58725D01*
X32050Y-58711D01*
X32022Y-58696D01*
X31950Y-58696D01*
X31907Y-58711D01*
X31679Y-58839D02*
X31636Y-58854D01*
X31621Y-58868D01*
X31607Y-58896D01*
X31607Y-58939D01*
X31621Y-58968D01*
X31636Y-58982D01*
X31664Y-58996D01*
X31779Y-58996D01*
X31779Y-58696D01*
X31679Y-58696D01*
X31650Y-58711D01*
X31636Y-58725D01*
X31621Y-58754D01*
X31621Y-58782D01*
X31636Y-58811D01*
X31650Y-58825D01*
X31679Y-58839D01*
X31779Y-58839D01*
X32222Y-56839D02*
X32179Y-56854D01*
X32164Y-56868D01*
X32150Y-56896D01*
X32150Y-56939D01*
X32164Y-56968D01*
X32179Y-56982D01*
X32207Y-56996D01*
X32322Y-56996D01*
X32322Y-56696D01*
X32222Y-56696D01*
X32193Y-56711D01*
X32179Y-56725D01*
X32164Y-56754D01*
X32164Y-56782D01*
X32179Y-56811D01*
X32193Y-56825D01*
X32222Y-56839D01*
X32322Y-56839D01*
X32036Y-56911D02*
X31893Y-56911D01*
X32064Y-56996D02*
X31964Y-56696D01*
X31864Y-56996D01*
X31807Y-56696D02*
X31636Y-56696D01*
X31722Y-56996D02*
X31722Y-56696D01*
X41946Y-58753D02*
X41646Y-58753D01*
X41946Y-58925D02*
X41775Y-58796D01*
X41646Y-58925D02*
X41818Y-58753D01*
X41746Y-59182D02*
X41946Y-59182D01*
X41632Y-59111D02*
X41846Y-59039D01*
X41846Y-59225D01*
X43757Y-59443D02*
X43771Y-59486D01*
X43771Y-59557D01*
X43757Y-59586D01*
X43743Y-59600D01*
X43714Y-59615D01*
X43686Y-59615D01*
X43657Y-59600D01*
X43643Y-59586D01*
X43629Y-59557D01*
X43614Y-59500D01*
X43600Y-59472D01*
X43586Y-59457D01*
X43557Y-59443D01*
X43529Y-59443D01*
X43500Y-59457D01*
X43486Y-59472D01*
X43471Y-59500D01*
X43471Y-59572D01*
X43486Y-59615D01*
X43614Y-59743D02*
X43614Y-59843D01*
X43771Y-59886D02*
X43771Y-59743D01*
X43471Y-59743D01*
X43471Y-59886D01*
X43771Y-60186D02*
X43629Y-60086D01*
X43771Y-60014D02*
X43471Y-60014D01*
X43471Y-60129D01*
X43486Y-60157D01*
X43500Y-60172D01*
X43529Y-60186D01*
X43571Y-60186D01*
X43600Y-60172D01*
X43614Y-60157D01*
X43629Y-60129D01*
X43629Y-60014D01*
X43471Y-60272D02*
X43771Y-60372D01*
X43471Y-60472D01*
X43471Y-60629D02*
X43471Y-60686D01*
X43486Y-60714D01*
X43514Y-60743D01*
X43571Y-60757D01*
X43671Y-60757D01*
X43729Y-60743D01*
X43757Y-60714D01*
X43771Y-60686D01*
X43771Y-60629D01*
X43757Y-60600D01*
X43729Y-60571D01*
X43671Y-60557D01*
X43571Y-60557D01*
X43514Y-60571D01*
X43486Y-60600D01*
X43471Y-60629D01*
X42486Y-59747D02*
X42471Y-59718D01*
X42471Y-59675D01*
X42486Y-59632D01*
X42514Y-59604D01*
X42543Y-59589D01*
X42600Y-59575D01*
X42643Y-59575D01*
X42700Y-59589D01*
X42729Y-59604D01*
X42757Y-59632D01*
X42771Y-59675D01*
X42771Y-59704D01*
X42757Y-59747D01*
X42743Y-59761D01*
X42643Y-59761D01*
X42643Y-59704D01*
X42771Y-59889D02*
X42471Y-59889D01*
X42771Y-60061D01*
X42471Y-60061D01*
X42771Y-60203D02*
X42471Y-60203D01*
X42471Y-60275D01*
X42486Y-60318D01*
X42514Y-60346D01*
X42543Y-60361D01*
X42600Y-60375D01*
X42643Y-60375D01*
X42700Y-60361D01*
X42729Y-60346D01*
X42757Y-60318D01*
X42771Y-60275D01*
X42771Y-60203D01*
X44757Y-59604D02*
X44771Y-59647D01*
X44771Y-59718D01*
X44757Y-59747D01*
X44743Y-59761D01*
X44714Y-59776D01*
X44686Y-59776D01*
X44657Y-59761D01*
X44643Y-59747D01*
X44629Y-59718D01*
X44614Y-59661D01*
X44600Y-59633D01*
X44586Y-59618D01*
X44557Y-59604D01*
X44529Y-59604D01*
X44500Y-59618D01*
X44486Y-59633D01*
X44471Y-59661D01*
X44471Y-59733D01*
X44486Y-59776D01*
X44614Y-59904D02*
X44614Y-60004D01*
X44771Y-60047D02*
X44771Y-59904D01*
X44471Y-59904D01*
X44471Y-60047D01*
X44771Y-60347D02*
X44629Y-60247D01*
X44771Y-60175D02*
X44471Y-60175D01*
X44471Y-60290D01*
X44486Y-60318D01*
X44500Y-60333D01*
X44529Y-60347D01*
X44571Y-60347D01*
X44600Y-60333D01*
X44614Y-60318D01*
X44629Y-60290D01*
X44629Y-60175D01*
G54D15*
X23205Y-56287D02*
X23205Y-56611D01*
X23186Y-56649D01*
X23167Y-56668D01*
X23129Y-56687D01*
X23052Y-56687D01*
X23014Y-56668D01*
X22995Y-56649D01*
X22976Y-56611D01*
X22976Y-56287D01*
X22614Y-56420D02*
X22614Y-56687D01*
X22710Y-56268D02*
X22805Y-56554D01*
X22557Y-56554D01*
X23605Y-55687D02*
X23338Y-55687D01*
X23510Y-56087D01*
X23129Y-55858D02*
X23167Y-55839D01*
X23186Y-55820D01*
X23205Y-55782D01*
X23205Y-55763D01*
X23186Y-55725D01*
X23167Y-55706D01*
X23129Y-55687D01*
X23052Y-55687D01*
X23014Y-55706D01*
X22995Y-55725D01*
X22976Y-55763D01*
X22976Y-55782D01*
X22995Y-55820D01*
X23014Y-55839D01*
X23052Y-55858D01*
X23129Y-55858D01*
X23167Y-55877D01*
X23186Y-55896D01*
X23205Y-55935D01*
X23205Y-56011D01*
X23186Y-56049D01*
X23167Y-56068D01*
X23129Y-56087D01*
X23052Y-56087D01*
X23014Y-56068D01*
X22995Y-56049D01*
X22976Y-56011D01*
X22976Y-55935D01*
X22995Y-55896D01*
X23014Y-55877D01*
X23052Y-55858D01*
X22729Y-55687D02*
X22690Y-55687D01*
X22652Y-55706D01*
X22633Y-55725D01*
X22614Y-55763D01*
X22595Y-55839D01*
X22595Y-55935D01*
X22614Y-56011D01*
X22633Y-56049D01*
X22652Y-56068D01*
X22690Y-56087D01*
X22729Y-56087D01*
X22767Y-56068D01*
X22786Y-56049D01*
X22805Y-56011D01*
X22824Y-55935D01*
X22824Y-55839D01*
X22805Y-55763D01*
X22786Y-55725D01*
X22767Y-55706D01*
X22729Y-55687D01*
X22405Y-56087D02*
X22329Y-56087D01*
X22290Y-56068D01*
X22271Y-56049D01*
X22233Y-55992D01*
X22214Y-55915D01*
X22214Y-55763D01*
X22233Y-55725D01*
X22252Y-55706D01*
X22290Y-55687D01*
X22367Y-55687D01*
X22405Y-55706D01*
X22424Y-55725D01*
X22443Y-55763D01*
X22443Y-55858D01*
X22424Y-55896D01*
X22405Y-55915D01*
X22367Y-55935D01*
X22290Y-55935D01*
X22252Y-55915D01*
X22233Y-55896D01*
X22214Y-55858D01*
X28980Y-56287D02*
X28980Y-56611D01*
X28961Y-56649D01*
X28942Y-56668D01*
X28904Y-56687D01*
X28827Y-56687D01*
X28789Y-56668D01*
X28770Y-56649D01*
X28751Y-56611D01*
X28751Y-56287D01*
X28370Y-56287D02*
X28561Y-56287D01*
X28580Y-56477D01*
X28561Y-56458D01*
X28523Y-56439D01*
X28427Y-56439D01*
X28389Y-56458D01*
X28370Y-56477D01*
X28351Y-56515D01*
X28351Y-56611D01*
X28370Y-56649D01*
X28389Y-56668D01*
X28427Y-56687D01*
X28523Y-56687D01*
X28561Y-56668D01*
X28580Y-56649D01*
X29380Y-55687D02*
X29113Y-55687D01*
X29285Y-56087D01*
X28904Y-55858D02*
X28942Y-55839D01*
X28961Y-55820D01*
X28980Y-55782D01*
X28980Y-55763D01*
X28961Y-55725D01*
X28942Y-55706D01*
X28904Y-55687D01*
X28827Y-55687D01*
X28789Y-55706D01*
X28770Y-55725D01*
X28751Y-55763D01*
X28751Y-55782D01*
X28770Y-55820D01*
X28789Y-55839D01*
X28827Y-55858D01*
X28904Y-55858D01*
X28942Y-55877D01*
X28961Y-55896D01*
X28980Y-55935D01*
X28980Y-56011D01*
X28961Y-56049D01*
X28942Y-56068D01*
X28904Y-56087D01*
X28827Y-56087D01*
X28789Y-56068D01*
X28770Y-56049D01*
X28751Y-56011D01*
X28751Y-55935D01*
X28770Y-55896D01*
X28789Y-55877D01*
X28827Y-55858D01*
X28504Y-55687D02*
X28465Y-55687D01*
X28427Y-55706D01*
X28408Y-55725D01*
X28389Y-55763D01*
X28370Y-55839D01*
X28370Y-55935D01*
X28389Y-56011D01*
X28408Y-56049D01*
X28427Y-56068D01*
X28465Y-56087D01*
X28504Y-56087D01*
X28542Y-56068D01*
X28561Y-56049D01*
X28580Y-56011D01*
X28599Y-55935D01*
X28599Y-55839D01*
X28580Y-55763D01*
X28561Y-55725D01*
X28542Y-55706D01*
X28504Y-55687D01*
X28008Y-55687D02*
X28199Y-55687D01*
X28218Y-55877D01*
X28199Y-55858D01*
X28161Y-55839D01*
X28065Y-55839D01*
X28027Y-55858D01*
X28008Y-55877D01*
X27989Y-55915D01*
X27989Y-56011D01*
X28008Y-56049D01*
X28027Y-56068D01*
X28065Y-56087D01*
X28161Y-56087D01*
X28199Y-56068D01*
X28218Y-56049D01*
M02*
